<svg width="18" height="20" viewBox="0 0 18 20" fill="none" xmlns="http://www.w3.org/2000/svg">
<path d="M12.5 17.5L12.5647 17.9958L12.7333 17.9738L12.8536 17.8536L12.5 17.5ZM14 16L14.3536 16.3536L14.5 16.2071L14.5 16L14 16ZM14.3536 0.646446C14.1583 0.451183 13.8417 0.451183 13.6464 0.646445L10.4645 3.82843C10.2692 4.02369 10.2692 4.34027 10.4645 4.53553C10.6597 4.7308 10.9763 4.7308 11.1716 4.53553L14 1.70711L16.8284 4.53553C17.0237 4.73079 17.3403 4.73079 17.5355 4.53553C17.7308 4.34027 17.7308 4.02369 17.5355 3.82843L14.3536 0.646446ZM1.06467 19.4958L12.5647 17.9958L12.4353 17.0042L0.93533 18.5042L1.06467 19.4958ZM12.8536 17.8536L14.3536 16.3536L13.6464 15.6464L12.1464 17.1464L12.8536 17.8536ZM14.5 16L14.5 0.999999L13.5 0.999999L13.5 16L14.5 16Z" fill="#FF0282"/>
</svg>
