<svg width="117" height="99" viewBox="0 0 117 99" fill="none" xmlns="http://www.w3.org/2000/svg">
<path d="M94.0793 41.4132C92.1498 27.4565 87.2429 11.961 78.6173 8.37438C69.9512 4.82126 57.6069 13.1436 46.3076 22.5645C35.0084 31.9854 24.7136 42.5385 26.2501 52.9698C27.7091 63.3898 40.9623 73.6432 54.1911 78.1789C67.4604 82.6811 80.6278 81.4543 87.7944 74.621C94.961 67.7876 96.0088 55.3698 94.0793 41.4132Z" fill="#F7F7FC"/>
<path d="M44.7101 97.6839L44.7069 97.6833C37.0421 96.1817 30.2429 92.6581 23.4375 88.8374L23.4364 88.8367C16.6799 85.0664 10.1208 80.9759 5.89814 75.1585C1.67901 69.2937 -0.22596 61.6217 0.751411 54.5245L0.751928 54.5205C1.67854 47.3664 5.49305 40.8019 9.57866 34.4652C13.6584 28.1376 17.8691 22.1662 23.6265 17.136L23.6284 17.1344C29.4053 12.035 36.5667 7.94204 43.6628 7.99237C47.2038 8.04367 50.7435 9.15252 54.2828 10.8116C57.8238 12.4716 61.3326 14.6665 64.8185 16.8676C71.8517 21.3281 78.5111 25.6736 82.6322 31.8015C86.6964 37.923 88.2367 45.8461 86.6452 52.8268C85.8495 56.3171 84.2671 59.592 82.4385 62.9613C81.9631 63.8372 81.4703 64.7207 80.9711 65.6157C79.5599 68.1457 78.0976 70.7673 76.8332 73.5676C75.9624 75.454 75.1821 77.4196 74.4205 79.3695C74.3309 79.5988 74.2416 79.8279 74.1525 80.0566C73.4817 81.7773 72.819 83.477 72.1097 85.1079C70.4997 88.8095 68.677 92.0866 66.0686 94.3401C60.9072 98.7919 52.4151 99.2454 44.7101 97.6839Z" stroke="#D6D8E7"/>
<mask id="path-3-inside-1_2472_36306" fill="white">
<path d="M68.0979 39.1072C68.0979 39.4268 68.0979 39.7464 68.0979 40.0661C68.0454 40.1952 67.9854 40.3205 67.9406 40.4522C67.6312 41.3664 67.0418 42.0338 66.1442 42.3828C65.8041 42.5145 65.7057 42.6807 65.7057 43.04C65.7185 49.6028 65.7146 56.1644 65.7159 62.7272C65.7159 62.8947 65.7313 63.0622 65.7415 63.2821C66.8295 63.1159 67.6619 63.387 68.0979 64.4226C68.0979 65.2217 68.0979 66.0208 68.0979 66.8199C67.8383 67.3006 67.5852 67.9706 67.0098 67.9706C66.3066 67.9706 66.4345 67.9706 66.0509 67.9706C65.7952 67.9706 65.923 67.9706 65.4116 67.9706C64.6445 67.9706 64.4527 67.9706 64.1331 67.9706C58.2658 67.9706 55.086 67.9706 50.005 67.9706C48.3736 67.9706 46.7447 67.9706 44.9547 67.9706C43.9958 67.9706 42.078 67.9706 41.119 67.9706H34.918C29.2898 67.9706 28.9727 68 23.5389 68C22.3242 67.9706 21.4932 67.9706 21.4932 67.9706C21.2375 67.9706 20.8539 67.9706 20.8539 67.9706C20.7261 67.9706 20.5982 67.9706 20.5982 67.9706C19.5754 67.9706 19.335 67.5052 19 66.8212C19 66.0221 19 65.223 19 64.4239C19.4347 63.364 20.3016 63.1249 21.3832 63.2808C21.3832 63.0251 21.3832 62.8538 21.3832 62.6825C21.3832 60.592 21.3832 58.5016 21.3832 56.4112C21.3832 53.5229 21.3858 50.6346 21.3768 47.7464C21.3768 47.5827 21.3155 47.3078 21.2145 47.2708C20.0113 46.8373 19.3337 45.9577 19 44.7661C19 44.4464 19 44.1268 19 43.8071C19.1189 43.7304 19.2455 43.6639 19.3567 43.577C22.7615 40.9048 26.165 38.2301 29.5698 35.5566C30.9238 34.4929 32.3942 34.4762 33.7392 35.5298C37.1721 38.2186 40.6012 40.9125 44.0201 43.6205C44.185 43.7509 44.3065 44.0322 44.3167 44.2482C44.3615 45.1982 43.9152 45.9602 43.2619 46.6327C43.8756 47.1122 44.4586 47.5674 45.1056 48.0737C45.1171 47.8218 45.1311 47.6658 45.1311 47.5111C45.1324 46.0254 45.1209 44.5385 45.1401 43.0528C45.1452 42.7037 45.0583 42.5311 44.7131 42.3828C43.4869 41.8573 42.8387 40.9061 42.7581 39.5611C42.7377 39.2158 42.863 39.0113 43.1276 38.8054C46.3496 36.2879 49.5677 33.7641 52.7756 31.2287C53.443 30.7019 54.1028 30.1828 54.9581 30C55.2778 30 55.5974 30 55.9171 30C56.4272 30.2468 57 30.4117 57.4373 30.7518C61.007 33.5173 64.5486 36.3174 68.0979 39.1072ZM64.119 63.2284C64.1318 63.1057 64.1446 63.043 64.1446 62.9804C64.1458 56.1733 64.1484 49.3676 64.1343 42.5605C64.1343 42.3752 63.9988 42.1386 63.8531 42.012C63.022 41.2884 62.1679 40.5903 61.3202 39.8871C61.232 39.8142 61.1259 39.7631 60.9661 39.6621C60.9661 41.7512 60.9661 43.7598 60.9661 45.7838C57.2531 45.7838 53.5773 45.7838 49.849 45.7838C49.849 43.7304 49.849 41.7154 49.849 39.6301C48.9118 40.41 48.0552 41.1516 47.1641 41.8509C46.8125 42.1271 46.6999 42.4199 46.7051 42.8584C46.7306 44.6791 46.7562 46.5023 46.6961 48.3217C46.6718 49.0697 46.87 49.5543 47.5016 49.9787C48.3697 50.563 49.1637 51.2586 50.0127 51.926C50.0932 51.7214 50.1431 51.5718 50.2096 51.4286C50.9153 49.8918 52.1121 49.0607 53.8036 48.9955C54.7612 48.9597 55.7202 48.9866 56.6791 48.9879C59.3257 48.9891 60.9763 50.6436 60.9776 53.3004C60.9801 56.4163 60.9776 59.5321 60.9776 62.648C60.9776 62.8333 60.9776 63.02 60.9776 63.2284C62.0567 63.2284 63.0706 63.2284 64.119 63.2284ZM29.2885 61.6213C27.6686 61.6213 26.128 61.6213 24.5809 61.6213C24.5809 60.0474 24.5809 58.5054 24.5809 56.9149C26.0218 56.9149 27.4334 56.9149 28.8628 56.9149C28.7106 56.3664 28.5726 55.8678 28.4204 55.3154C27.17 55.3154 25.8838 55.3154 24.5911 55.3154C24.5911 53.7147 24.5911 52.1612 24.5911 50.6218C26.1714 50.6218 27.7134 50.6218 29.3077 50.6218C29.3077 51.8467 29.3077 53.0332 29.3077 54.3105C32.7586 51.5987 36.1314 48.9495 39.5311 46.2786C36.8908 44.0782 34.2839 41.9059 31.6731 39.7298C28.8014 42.122 25.9771 44.4694 23.1668 46.8348C23.03 46.9498 22.9622 47.2183 22.9622 47.4165C22.9507 52.5295 22.9533 57.6424 22.9546 62.7541C22.9546 62.9075 22.9712 63.0622 22.9801 63.2182C25.6344 63.2182 28.244 63.2182 30.8855 63.2182C30.8855 61.6647 30.888 60.1497 30.8778 58.6333C30.8765 58.5336 30.7985 58.3916 30.7141 58.3418C30.2564 58.0733 29.7859 57.8265 29.2898 57.5567C29.2885 58.8954 29.2885 60.2443 29.2885 61.6213ZM49.881 63.2259C49.881 61.5471 49.8874 59.9182 49.8708 58.2881C49.8695 58.1462 49.7455 57.9697 49.6266 57.8687C48.7891 57.1514 47.9389 56.4508 47.0912 55.7437C45.1286 54.1085 43.166 52.4732 41.197 50.8328C41.1152 50.8865 41.0436 50.9236 40.9835 50.9735C38.2205 53.2736 35.4563 55.5711 32.7049 57.8853C32.5629 58.0055 32.4683 58.2612 32.4658 58.4556C32.4466 59.9093 32.4543 61.3643 32.4568 62.818C32.4568 62.9548 32.4798 63.0929 32.4926 63.2233C34.0844 63.2233 35.6289 63.2233 37.2194 63.2233C37.2194 62.382 37.2041 61.5701 37.222 60.7595C37.2782 58.1359 39.8814 56.2935 42.3784 57.1029C44.0648 57.6488 45.1017 59.1115 45.1311 61.0063C45.1427 61.7363 45.1324 62.4677 45.1324 63.2246C46.7383 63.2259 48.2802 63.2259 49.881 63.2259ZM59.3692 63.2259C59.3692 59.674 59.3935 56.1746 59.3551 52.6765C59.3436 51.6115 58.3629 50.6602 57.3005 50.6155C56.0564 50.5618 54.8073 50.5618 53.5632 50.6155C52.4739 50.6628 51.5521 51.6383 51.5048 52.72C51.4971 52.9054 51.6045 53.1559 51.7451 53.2774C52.3269 53.776 52.9546 54.2197 53.5364 54.7183C53.6898 54.85 53.8241 55.1057 53.8228 55.3039C53.8164 56.7129 53.1234 57.6948 51.8436 58.2472C51.5585 58.3699 51.4626 58.5042 51.469 58.8033C51.4869 59.6817 51.4753 60.5614 51.4753 61.4397C51.4753 62.0266 51.4753 62.6134 51.4753 63.2271C54.1284 63.2259 56.7251 63.2259 59.3692 63.2259ZM66.4831 64.8522C51.1838 64.8522 35.9166 64.8522 20.6276 64.8522C20.6276 65.379 20.6276 65.8763 20.6276 66.3826C35.9345 66.3826 51.2017 66.3826 66.4831 66.3826C66.4831 65.8571 66.4831 65.3687 66.4831 64.8522ZM55.4261 32.9177C55.6089 33.0673 55.7572 33.1862 55.903 33.3076C58.8833 35.7919 61.87 38.271 64.8363 40.7718C65.1776 41.0595 65.4525 41.0595 65.7632 40.8217C65.9499 40.6785 66.1199 40.5046 66.2644 40.3192C66.4767 40.0482 66.4805 39.8347 66.1532 39.5789C62.9287 37.0679 59.7208 34.5338 56.5052 32.0099C55.7662 31.4307 55.077 31.4409 54.3291 32.0278C51.1135 34.5517 47.9031 37.0819 44.6798 39.5968C44.3985 39.8168 44.3563 40.0098 44.5532 40.2668C44.6964 40.4548 44.8537 40.6427 45.0378 40.7885C45.3702 41.0506 45.6745 41.0774 46.044 40.7527C47.0746 39.8449 48.146 38.9844 49.2008 38.1061C51.2631 36.3877 53.3229 34.6706 55.4261 32.9177ZM31.6756 37.6662C34.8413 40.3052 37.9738 42.907 41.0896 45.5294C41.4131 45.8017 41.6803 45.8132 41.9757 45.5894C42.1879 45.4296 42.3746 45.2263 42.5408 45.0179C42.7441 44.7648 42.6993 44.5653 42.418 44.3467C39.1948 41.8318 35.9844 39.3002 32.7662 36.7776C31.9837 36.1639 31.3432 36.1742 30.5569 36.7917C28.0816 38.7338 25.6076 40.6772 23.1336 42.6206C22.2948 43.2804 21.4574 43.9414 20.5611 44.6484C20.7695 44.9323 20.9242 45.2161 21.1467 45.4296C21.5967 45.8605 21.8486 45.849 22.3255 45.4514C24.0068 44.0513 25.6881 42.65 27.3694 41.25C28.7937 40.0635 30.2181 38.8796 31.6756 37.6662ZM41.1715 48.7552C41.3415 48.8945 41.4783 49.0045 41.6126 49.117C44.6057 51.6102 47.6039 54.0982 50.5842 56.6081C50.9268 56.897 51.2017 56.8919 51.5137 56.6566C51.7004 56.5147 51.8679 56.337 52.0162 56.1529C52.2438 55.8703 52.2118 55.6542 51.8922 55.4062C48.7431 52.9539 45.608 50.4838 42.4679 48.02C41.4272 47.2017 40.9145 47.203 39.8776 48.0187C36.7655 50.4659 33.651 52.9117 30.5377 55.3576C30.0787 55.7182 30.0646 55.8409 30.4341 56.3102C30.9034 56.906 31.3291 56.9545 31.8981 56.4802C33.0015 55.5596 34.1074 54.6416 35.2108 53.7223C37.1862 52.0768 39.159 50.4326 41.1715 48.7552ZM60.8267 39.4728C58.969 37.9258 57.1995 36.4529 55.4286 34.9774C53.6323 36.4759 51.8768 37.9398 50.0382 39.4728C53.6706 39.4728 57.179 39.4728 60.8267 39.4728ZM43.5496 63.2399C43.5496 63.0392 43.5509 62.8832 43.5496 62.7272C43.5445 62.0087 43.5892 61.285 43.5214 60.5716C43.4166 59.4656 42.5139 58.6269 41.3926 58.5003C40.3391 58.3814 39.1846 59.0399 38.9634 60.1062C38.7537 61.1162 38.8048 62.1813 38.7396 63.2412C40.4082 63.2399 41.9399 63.2399 43.5496 63.2399ZM54.6168 41.1017C53.5428 41.1017 52.5314 41.1017 51.4984 41.1017C51.4984 42.1501 51.4984 43.164 51.4984 44.2073C52.5468 44.2073 53.5709 44.2073 54.6168 44.2073C54.6168 43.1602 54.6168 42.1476 54.6168 41.1017ZM59.3666 41.1081C58.2939 41.1081 57.2672 41.1081 56.2456 41.1081C56.2456 42.1642 56.2456 43.1794 56.2456 44.2009C57.303 44.2009 58.3284 44.2009 59.3666 44.2009C59.3666 43.1551 59.3666 42.1514 59.3666 41.1081ZM26.1484 60.0538C26.6969 60.0538 27.1828 60.0538 27.6852 60.0538C27.6852 59.5257 27.6852 59.0284 27.6852 58.5272C27.1546 58.5272 26.656 58.5272 26.1484 58.5272C26.1484 59.0488 26.1484 59.5347 26.1484 60.0538ZM27.6929 52.1919C27.1534 52.1919 26.656 52.1919 26.1471 52.1919C26.1471 52.7123 26.1471 53.1969 26.1471 53.7147C26.6726 53.7147 27.17 53.7147 27.6929 53.7147C27.6929 53.1994 27.6929 52.7136 27.6929 52.1919Z"/>
</mask>
<path d="M68.0979 39.1072C68.0979 39.4268 68.0979 39.7464 68.0979 40.0661C68.0454 40.1952 67.9854 40.3205 67.9406 40.4522C67.6312 41.3664 67.0418 42.0338 66.1442 42.3828C65.8041 42.5145 65.7057 42.6807 65.7057 43.04C65.7185 49.6028 65.7146 56.1644 65.7159 62.7272C65.7159 62.8947 65.7313 63.0622 65.7415 63.2821C66.8295 63.1159 67.6619 63.387 68.0979 64.4226C68.0979 65.2217 68.0979 66.0208 68.0979 66.8199C67.8383 67.3006 67.5852 67.9706 67.0098 67.9706C66.3066 67.9706 66.4345 67.9706 66.0509 67.9706C65.7952 67.9706 65.923 67.9706 65.4116 67.9706C64.6445 67.9706 64.4527 67.9706 64.1331 67.9706C58.2658 67.9706 55.086 67.9706 50.005 67.9706C48.3736 67.9706 46.7447 67.9706 44.9547 67.9706C43.9958 67.9706 42.078 67.9706 41.119 67.9706H34.918C29.2898 67.9706 28.9727 68 23.5389 68C22.3242 67.9706 21.4932 67.9706 21.4932 67.9706C21.2375 67.9706 20.8539 67.9706 20.8539 67.9706C20.7261 67.9706 20.5982 67.9706 20.5982 67.9706C19.5754 67.9706 19.335 67.5052 19 66.8212C19 66.0221 19 65.223 19 64.4239C19.4347 63.364 20.3016 63.1249 21.3832 63.2808C21.3832 63.0251 21.3832 62.8538 21.3832 62.6825C21.3832 60.592 21.3832 58.5016 21.3832 56.4112C21.3832 53.5229 21.3858 50.6346 21.3768 47.7464C21.3768 47.5827 21.3155 47.3078 21.2145 47.2708C20.0113 46.8373 19.3337 45.9577 19 44.7661C19 44.4464 19 44.1268 19 43.8071C19.1189 43.7304 19.2455 43.6639 19.3567 43.577C22.7615 40.9048 26.165 38.2301 29.5698 35.5566C30.9238 34.4929 32.3942 34.4762 33.7392 35.5298C37.1721 38.2186 40.6012 40.9125 44.0201 43.6205C44.185 43.7509 44.3065 44.0322 44.3167 44.2482C44.3615 45.1982 43.9152 45.9602 43.2619 46.6327C43.8756 47.1122 44.4586 47.5674 45.1056 48.0737C45.1171 47.8218 45.1311 47.6658 45.1311 47.5111C45.1324 46.0254 45.1209 44.5385 45.1401 43.0528C45.1452 42.7037 45.0583 42.5311 44.7131 42.3828C43.4869 41.8573 42.8387 40.9061 42.7581 39.5611C42.7377 39.2158 42.863 39.0113 43.1276 38.8054C46.3496 36.2879 49.5677 33.7641 52.7756 31.2287C53.443 30.7019 54.1028 30.1828 54.9581 30C55.2778 30 55.5974 30 55.9171 30C56.4272 30.2468 57 30.4117 57.4373 30.7518C61.007 33.5173 64.5486 36.3174 68.0979 39.1072ZM64.119 63.2284C64.1318 63.1057 64.1446 63.043 64.1446 62.9804C64.1458 56.1733 64.1484 49.3676 64.1343 42.5605C64.1343 42.3752 63.9988 42.1386 63.8531 42.012C63.022 41.2884 62.1679 40.5903 61.3202 39.8871C61.232 39.8142 61.1259 39.7631 60.9661 39.6621C60.9661 41.7512 60.9661 43.7598 60.9661 45.7838C57.2531 45.7838 53.5773 45.7838 49.849 45.7838C49.849 43.7304 49.849 41.7154 49.849 39.6301C48.9118 40.41 48.0552 41.1516 47.1641 41.8509C46.8125 42.1271 46.6999 42.4199 46.7051 42.8584C46.7306 44.6791 46.7562 46.5023 46.6961 48.3217C46.6718 49.0697 46.87 49.5543 47.5016 49.9787C48.3697 50.563 49.1637 51.2586 50.0127 51.926C50.0932 51.7214 50.1431 51.5718 50.2096 51.4286C50.9153 49.8918 52.1121 49.0607 53.8036 48.9955C54.7612 48.9597 55.7202 48.9866 56.6791 48.9879C59.3257 48.9891 60.9763 50.6436 60.9776 53.3004C60.9801 56.4163 60.9776 59.5321 60.9776 62.648C60.9776 62.8333 60.9776 63.02 60.9776 63.2284C62.0567 63.2284 63.0706 63.2284 64.119 63.2284ZM29.2885 61.6213C27.6686 61.6213 26.128 61.6213 24.5809 61.6213C24.5809 60.0474 24.5809 58.5054 24.5809 56.9149C26.0218 56.9149 27.4334 56.9149 28.8628 56.9149C28.7106 56.3664 28.5726 55.8678 28.4204 55.3154C27.17 55.3154 25.8838 55.3154 24.5911 55.3154C24.5911 53.7147 24.5911 52.1612 24.5911 50.6218C26.1714 50.6218 27.7134 50.6218 29.3077 50.6218C29.3077 51.8467 29.3077 53.0332 29.3077 54.3105C32.7586 51.5987 36.1314 48.9495 39.5311 46.2786C36.8908 44.0782 34.2839 41.9059 31.6731 39.7298C28.8014 42.122 25.9771 44.4694 23.1668 46.8348C23.03 46.9498 22.9622 47.2183 22.9622 47.4165C22.9507 52.5295 22.9533 57.6424 22.9546 62.7541C22.9546 62.9075 22.9712 63.0622 22.9801 63.2182C25.6344 63.2182 28.244 63.2182 30.8855 63.2182C30.8855 61.6647 30.888 60.1497 30.8778 58.6333C30.8765 58.5336 30.7985 58.3916 30.7141 58.3418C30.2564 58.0733 29.7859 57.8265 29.2898 57.5567C29.2885 58.8954 29.2885 60.2443 29.2885 61.6213ZM49.881 63.2259C49.881 61.5471 49.8874 59.9182 49.8708 58.2881C49.8695 58.1462 49.7455 57.9697 49.6266 57.8687C48.7891 57.1514 47.9389 56.4508 47.0912 55.7437C45.1286 54.1085 43.166 52.4732 41.197 50.8328C41.1152 50.8865 41.0436 50.9236 40.9835 50.9735C38.2205 53.2736 35.4563 55.5711 32.7049 57.8853C32.5629 58.0055 32.4683 58.2612 32.4658 58.4556C32.4466 59.9093 32.4543 61.3643 32.4568 62.818C32.4568 62.9548 32.4798 63.0929 32.4926 63.2233C34.0844 63.2233 35.6289 63.2233 37.2194 63.2233C37.2194 62.382 37.2041 61.5701 37.222 60.7595C37.2782 58.1359 39.8814 56.2935 42.3784 57.1029C44.0648 57.6488 45.1017 59.1115 45.1311 61.0063C45.1427 61.7363 45.1324 62.4677 45.1324 63.2246C46.7383 63.2259 48.2802 63.2259 49.881 63.2259ZM59.3692 63.2259C59.3692 59.674 59.3935 56.1746 59.3551 52.6765C59.3436 51.6115 58.3629 50.6602 57.3005 50.6155C56.0564 50.5618 54.8073 50.5618 53.5632 50.6155C52.4739 50.6628 51.5521 51.6383 51.5048 52.72C51.4971 52.9054 51.6045 53.1559 51.7451 53.2774C52.3269 53.776 52.9546 54.2197 53.5364 54.7183C53.6898 54.85 53.8241 55.1057 53.8228 55.3039C53.8164 56.7129 53.1234 57.6948 51.8436 58.2472C51.5585 58.3699 51.4626 58.5042 51.469 58.8033C51.4869 59.6817 51.4753 60.5614 51.4753 61.4397C51.4753 62.0266 51.4753 62.6134 51.4753 63.2271C54.1284 63.2259 56.7251 63.2259 59.3692 63.2259ZM66.4831 64.8522C51.1838 64.8522 35.9166 64.8522 20.6276 64.8522C20.6276 65.379 20.6276 65.8763 20.6276 66.3826C35.9345 66.3826 51.2017 66.3826 66.4831 66.3826C66.4831 65.8571 66.4831 65.3687 66.4831 64.8522ZM55.4261 32.9177C55.6089 33.0673 55.7572 33.1862 55.903 33.3076C58.8833 35.7919 61.87 38.271 64.8363 40.7718C65.1776 41.0595 65.4525 41.0595 65.7632 40.8217C65.9499 40.6785 66.1199 40.5046 66.2644 40.3192C66.4767 40.0482 66.4805 39.8347 66.1532 39.5789C62.9287 37.0679 59.7208 34.5338 56.5052 32.0099C55.7662 31.4307 55.077 31.4409 54.3291 32.0278C51.1135 34.5517 47.9031 37.0819 44.6798 39.5968C44.3985 39.8168 44.3563 40.0098 44.5532 40.2668C44.6964 40.4548 44.8537 40.6427 45.0378 40.7885C45.3702 41.0506 45.6745 41.0774 46.044 40.7527C47.0746 39.8449 48.146 38.9844 49.2008 38.1061C51.2631 36.3877 53.3229 34.6706 55.4261 32.9177ZM31.6756 37.6662C34.8413 40.3052 37.9738 42.907 41.0896 45.5294C41.4131 45.8017 41.6803 45.8132 41.9757 45.5894C42.1879 45.4296 42.3746 45.2263 42.5408 45.0179C42.7441 44.7648 42.6993 44.5653 42.418 44.3467C39.1948 41.8318 35.9844 39.3002 32.7662 36.7776C31.9837 36.1639 31.3432 36.1742 30.5569 36.7917C28.0816 38.7338 25.6076 40.6772 23.1336 42.6206C22.2948 43.2804 21.4574 43.9414 20.5611 44.6484C20.7695 44.9323 20.9242 45.2161 21.1467 45.4296C21.5967 45.8605 21.8486 45.849 22.3255 45.4514C24.0068 44.0513 25.6881 42.65 27.3694 41.25C28.7937 40.0635 30.2181 38.8796 31.6756 37.6662ZM41.1715 48.7552C41.3415 48.8945 41.4783 49.0045 41.6126 49.117C44.6057 51.6102 47.6039 54.0982 50.5842 56.6081C50.9268 56.897 51.2017 56.8919 51.5137 56.6566C51.7004 56.5147 51.8679 56.337 52.0162 56.1529C52.2438 55.8703 52.2118 55.6542 51.8922 55.4062C48.7431 52.9539 45.608 50.4838 42.4679 48.02C41.4272 47.2017 40.9145 47.203 39.8776 48.0187C36.7655 50.4659 33.651 52.9117 30.5377 55.3576C30.0787 55.7182 30.0646 55.8409 30.4341 56.3102C30.9034 56.906 31.3291 56.9545 31.8981 56.4802C33.0015 55.5596 34.1074 54.6416 35.2108 53.7223C37.1862 52.0768 39.159 50.4326 41.1715 48.7552ZM60.8267 39.4728C58.969 37.9258 57.1995 36.4529 55.4286 34.9774C53.6323 36.4759 51.8768 37.9398 50.0382 39.4728C53.6706 39.4728 57.179 39.4728 60.8267 39.4728ZM43.5496 63.2399C43.5496 63.0392 43.5509 62.8832 43.5496 62.7272C43.5445 62.0087 43.5892 61.285 43.5214 60.5716C43.4166 59.4656 42.5139 58.6269 41.3926 58.5003C40.3391 58.3814 39.1846 59.0399 38.9634 60.1062C38.7537 61.1162 38.8048 62.1813 38.7396 63.2412C40.4082 63.2399 41.9399 63.2399 43.5496 63.2399ZM54.6168 41.1017C53.5428 41.1017 52.5314 41.1017 51.4984 41.1017C51.4984 42.1501 51.4984 43.164 51.4984 44.2073C52.5468 44.2073 53.5709 44.2073 54.6168 44.2073C54.6168 43.1602 54.6168 42.1476 54.6168 41.1017ZM59.3666 41.1081C58.2939 41.1081 57.2672 41.1081 56.2456 41.1081C56.2456 42.1642 56.2456 43.1794 56.2456 44.2009C57.303 44.2009 58.3284 44.2009 59.3666 44.2009C59.3666 43.1551 59.3666 42.1514 59.3666 41.1081ZM26.1484 60.0538C26.6969 60.0538 27.1828 60.0538 27.6852 60.0538C27.6852 59.5257 27.6852 59.0284 27.6852 58.5272C27.1546 58.5272 26.656 58.5272 26.1484 58.5272C26.1484 59.0488 26.1484 59.5347 26.1484 60.0538ZM27.6929 52.1919C27.1534 52.1919 26.656 52.1919 26.1471 52.1919C26.1471 52.7123 26.1471 53.1969 26.1471 53.7147C26.6726 53.7147 27.17 53.7147 27.6929 53.7147C27.6929 53.1994 27.6929 52.7136 27.6929 52.1919Z" fill="#4E4B66" stroke="#4E4B66" stroke-width="2" mask="url(#path-3-inside-1_2472_36306)"/>
</svg>
