<svg width="117" height="99" viewBox="0 0 117 99" fill="none" xmlns="http://www.w3.org/2000/svg">
<path d="M94.0793 41.4132C92.1497 27.4565 87.2429 11.961 78.6173 8.37439C69.9512 4.82127 57.6069 13.1436 46.3076 22.5645C35.0083 31.9854 24.7136 42.5385 26.2501 52.9698C27.7091 63.3898 40.9623 73.6432 54.1911 78.1789C67.4604 82.6811 80.6277 81.4543 87.7944 74.621C94.961 67.7876 96.0088 55.3699 94.0793 41.4132Z" fill="#F7F7FC"/>
<path d="M76.8328 73.5684C75.9622 75.4545 75.182 77.4199 74.4205 79.3695C74.331 79.5987 74.2417 79.8277 74.1526 80.0563C73.4818 81.7771 72.8191 83.4769 72.1097 85.1079C70.4997 88.8094 68.6772 92.0864 66.0689 94.3398C60.9075 98.7919 52.4152 99.2455 44.7101 97.6839L44.7069 97.6833C37.0421 96.1817 30.2429 92.6581 23.4375 88.8374L23.4364 88.8367C16.6796 85.0662 10.1202 80.9754 5.89753 75.1577C1.67882 69.2929 -0.225913 61.6214 0.751411 54.5245L0.751927 54.5205C1.67854 47.3664 5.49305 40.8019 9.57866 34.4652C13.6584 28.1376 17.8691 22.1662 23.6265 17.136L23.6284 17.1344C29.4053 12.035 36.5667 7.94203 43.6628 7.99237C47.2038 8.04367 50.7435 9.15252 54.2828 10.8116C57.8239 12.4716 61.3327 14.6665 64.8186 16.8677C71.8521 21.3284 78.5118 25.6741 82.6328 31.8024C86.6966 37.9238 88.2366 45.8464 86.6452 52.8268C85.8495 56.3171 84.2671 59.592 82.4385 62.9613C81.9631 63.8372 81.4702 64.7207 80.971 65.6158C79.5597 68.1459 78.0973 70.7678 76.8328 73.5684ZM76.8328 73.5684C76.8331 73.5677 76.8335 73.567 76.8338 73.5663L77.2877 73.7758L76.832 73.5701C76.8323 73.5695 76.8325 73.5689 76.8328 73.5684Z" stroke="#D6D8E7"/>
<path d="M19 33.5228C31.6392 33.5228 44.2442 33.5228 56.8834 33.5228C56.9677 31.7287 57.6527 30.2507 59.0635 29.1561C60.1595 28.3051 61.4148 27.9323 62.7993 28.01C65.4971 28.1615 67.747 30.3877 67.9511 33.1052C68.1659 35.965 66.2808 38.3493 63.2234 39.0119C63.2234 39.17 63.2234 39.3438 63.2234 39.519C63.2234 44.3587 63.2261 49.1997 63.2169 54.0393C63.2169 54.3621 63.3157 54.5689 63.558 54.7915C67.4809 58.3969 68.9233 62.8295 67.4045 67.9365C65.8949 73.0146 62.3079 76.0536 57.0678 76.8571C49.9756 77.9439 43.4222 72.7011 42.7583 65.5747C42.7465 65.4456 42.7175 65.3191 42.6911 65.1571C34.7954 65.1571 26.9155 65.1571 19 65.1571C19 54.6097 19 44.1005 19 33.5228ZM20.5741 35.1101C20.5741 44.6129 20.5741 54.0696 20.5741 63.5434C27.9574 63.5434 35.3105 63.5434 42.7017 63.5434C42.7623 63.0323 42.8229 62.5331 42.89 61.9654C42.2696 61.9654 41.6887 61.9654 41.1236 61.9654C41.1236 58.7789 41.1236 55.6569 41.1236 52.5324C42.7056 52.5324 44.2587 52.5324 45.8592 52.5324C45.8592 53.6744 45.8592 54.781 45.8592 55.8967C50.5408 51.3626 55.7677 50.4932 61.6124 53.3293C61.6124 48.5568 61.6124 43.7778 61.6124 39.1146C60.7325 38.7458 59.9197 38.4059 59.0569 38.0437C59.0319 38.0674 58.9331 38.1517 58.8409 38.2439C57.4314 39.6521 56.0298 41.0668 54.6085 42.4631C54.3767 42.691 54.3384 42.8781 54.4267 43.1876C54.7086 44.1769 54.4083 45.0213 53.6192 45.6523C52.842 46.2727 51.9608 46.3623 51.0756 45.896C50.1759 45.4231 49.6173 44.6116 49.8386 43.6355C50.0323 42.7872 49.6885 42.3657 49.155 41.9112C48.9798 41.7624 48.8454 41.5595 48.6557 41.4357C48.5187 41.3461 48.3238 41.3158 48.1525 41.3118C47.6836 41.3013 47.2041 41.3777 46.7483 41.3039C46.4651 41.2578 46.3031 41.2829 46.1095 41.4791C44.999 42.6041 43.8846 43.7251 42.7557 44.8303C42.5265 45.0542 42.4751 45.2386 42.5699 45.5535C42.8795 46.5875 42.4158 47.6901 41.4898 48.2249C40.5545 48.765 39.3914 48.6082 38.626 47.8402C37.862 47.0723 37.7118 45.9065 38.2585 44.9752C38.8012 44.0491 39.8932 43.5934 40.9352 43.9095C41.2579 44.007 41.4358 43.9332 41.6544 43.7106C42.7386 42.6067 43.8332 41.5121 44.9384 40.4293C45.1742 40.1988 45.2506 40.0117 45.1505 39.6679C44.8607 38.6813 45.1676 37.8356 45.9593 37.2059C46.7378 36.5855 47.6125 36.5143 48.5056 36.9635C49.3539 37.3903 49.9888 38.3427 49.7412 39.2292C49.5001 40.0907 49.9111 40.4925 50.4262 40.9522C50.5737 41.084 50.7146 41.2236 50.8437 41.3724C51.0202 41.574 51.1836 41.6201 51.4773 41.5621C51.9134 41.4752 52.3915 41.4778 52.8289 41.5595C53.116 41.6135 53.2741 41.574 53.4664 41.3803C54.8719 39.9669 56.2841 38.5614 57.6909 37.1519C57.7937 37.0492 57.8872 36.9398 57.9675 36.8516C57.7383 36.4169 57.467 36.0296 57.326 35.6002C57.1917 35.1918 56.9849 35.1009 56.5857 35.1022C44.7645 35.1128 32.9433 35.1101 21.1221 35.1101C20.9469 35.1101 20.7704 35.1101 20.5741 35.1101ZM61.7428 68.9746C58.4035 73.3505 52.1808 73.3215 48.8902 68.9798C47.9958 69.4975 47.0961 70.0178 46.1384 70.5711C48.852 74.133 52.3257 75.827 56.7346 75.3067C60.0054 74.9207 62.553 73.2636 64.4775 70.5526C63.5238 70.0033 62.6438 69.4949 61.7428 68.9746ZM54.5176 53.3096C50.4551 53.7759 47.3951 55.6951 45.5101 59.2834C43.8121 62.5147 43.849 65.8276 45.3744 69.1827C46.3215 68.636 47.2133 68.121 48.1104 67.6033C47.0882 65.1136 47.1554 62.7083 48.4884 60.407C49.8268 58.0952 51.9002 56.8372 54.5176 56.4684C54.5176 55.4106 54.5176 54.4095 54.5176 53.3096ZM65.2217 69.1537C66.6997 66.452 66.9329 62.3987 64.9952 59.0107C63.0443 55.6016 60.0699 53.7443 56.1392 53.3175C56.1392 54.4029 56.1392 55.429 56.1392 56.4763C58.7777 56.8451 60.8247 58.1163 62.1565 60.4136C63.4974 62.7281 63.5462 65.1492 62.5358 67.6046C63.4606 68.1381 64.3405 68.6452 65.2217 69.1537ZM55.3172 58.0307C51.8449 58.032 49.0022 60.8733 48.9995 64.3443C48.9969 67.8193 51.833 70.6672 55.3014 70.6752C58.7974 70.6831 61.6493 67.8325 61.644 64.3351C61.6388 60.8681 58.7908 58.0293 55.3172 58.0307ZM62.3988 37.4799C64.5802 37.4957 66.3744 35.7253 66.3836 33.5518C66.3928 31.3902 64.6435 29.6053 62.4924 29.5802C60.307 29.5552 58.5023 31.3111 58.4826 33.482C58.4641 35.666 60.2267 37.4641 62.3988 37.4799ZM44.2561 54.1105C43.7041 54.1105 43.2062 54.1105 42.7043 54.1105C42.7043 56.2207 42.7043 58.2994 42.7043 60.3675C43.1627 60.4966 43.3695 60.3306 43.5039 59.9025C43.6541 59.4217 43.9149 58.9751 44.1164 58.5088C44.1796 58.3626 44.2481 58.2006 44.2495 58.0465C44.26 56.7503 44.2561 55.4528 44.2561 54.1105ZM48.2039 39.054C48.2 38.6259 47.8377 38.2703 47.4096 38.2755C46.9802 38.2795 46.6271 38.6417 46.6311 39.0699C46.635 39.498 46.9973 39.8536 47.4241 39.8497C47.8522 39.8444 48.2079 39.4808 48.2039 39.054ZM52.1636 44.5905C52.5917 44.5879 52.9487 44.2257 52.9448 43.7989C52.9421 43.3707 52.5812 43.0138 52.1544 43.0177C51.7263 43.0203 51.3706 43.38 51.3733 43.8081C51.3759 44.2362 51.7368 44.5932 52.1636 44.5905ZM40.32 45.3888C39.8919 45.3796 39.527 45.73 39.5178 46.1581C39.5086 46.5849 39.859 46.9524 40.2871 46.9616C40.7139 46.9708 41.0801 46.6191 41.0906 46.191C41.0999 45.7642 40.7482 45.398 40.32 45.3888Z" fill="#4E4B66"/>
<path d="M20.5741 35.1102C20.7704 35.1102 20.9469 35.1102 21.1234 35.1102C32.9446 35.1102 44.7658 35.1115 56.587 35.1023C56.9862 35.1023 57.193 35.1932 57.3273 35.6002C57.4683 36.0296 57.7396 36.4182 57.9688 36.8516C57.8885 36.9385 57.7936 37.0492 57.6922 37.1519C56.284 38.5614 54.8733 39.9669 53.4704 41.3817C53.278 41.5753 53.12 41.6135 52.8328 41.5608C52.3941 41.4792 51.9173 41.4765 51.4813 41.5635C51.1875 41.6214 51.0229 41.5767 50.8477 41.3738C50.7186 41.2249 50.5763 41.0853 50.4301 40.9536C49.915 40.4939 49.5041 40.0921 49.7451 39.2306C49.9941 38.3441 49.3578 37.3917 48.5095 36.9649C47.6164 36.5157 46.7417 36.5881 45.9632 37.2073C45.1715 37.8369 44.8646 38.6826 45.1544 39.6692C45.2559 40.0131 45.1781 40.2001 44.9423 40.4306C43.8372 41.5134 42.7425 42.6081 41.6584 43.712C41.441 43.9333 41.2619 44.0083 40.9392 43.9109C39.8985 43.5947 38.8065 44.0505 38.2625 44.9765C37.7158 45.9078 37.866 47.0736 38.63 47.8416C39.3953 48.6096 40.5585 48.7663 41.4937 48.2262C42.4198 47.6914 42.8848 46.5889 42.5739 45.5548C42.4804 45.2413 42.5304 45.0569 42.7596 44.8316C43.8898 43.7264 45.0043 42.6054 46.1134 41.4805C46.307 41.2842 46.4691 41.2592 46.7523 41.3053C47.208 41.3791 47.6875 41.3027 48.1565 41.3132C48.3264 41.3172 48.5227 41.3474 48.6597 41.437C48.8481 41.5608 48.9837 41.7637 49.1589 41.9126C49.6937 42.367 50.0362 42.7885 49.8426 43.6369C49.62 44.613 50.1798 45.4244 51.0795 45.8973C51.9647 46.3636 52.846 46.274 53.6232 45.6536C54.4135 45.0226 54.7139 44.1783 54.4306 43.189C54.3424 42.8794 54.3793 42.6924 54.6124 42.4645C56.0325 41.0682 57.4353 39.6521 58.8448 38.2453C58.937 38.1531 59.0358 38.0688 59.0609 38.045C59.9237 38.406 60.7364 38.7472 61.6164 39.116C61.6164 43.7791 61.6164 48.5582 61.6164 53.3307C55.7716 50.4946 50.5434 51.364 45.8631 55.898C45.8631 54.7823 45.8631 53.6745 45.8631 52.5337C44.2626 52.5337 42.7096 52.5337 41.1275 52.5337C41.1275 55.6583 41.1275 58.7802 41.1275 61.9667C41.6926 61.9667 42.2749 61.9667 42.894 61.9667C42.8255 62.5344 42.7662 63.0337 42.7056 63.5448C35.3157 63.5448 27.9614 63.5448 20.5781 63.5448C20.5741 54.0697 20.5741 44.613 20.5741 35.1102ZM39.4888 61.9601C39.4888 57.729 39.4888 53.5546 39.4888 49.367C37.9107 49.367 36.359 49.367 34.8059 49.367C34.8059 53.5836 34.8059 57.7686 34.8059 61.9601C36.3814 61.9601 37.9213 61.9601 39.4888 61.9601ZM26.8338 61.9601C26.8338 59.3164 26.8338 56.7121 26.8338 54.1184C25.2478 54.1184 23.6947 54.1184 22.1509 54.1184C22.1509 56.7503 22.1509 59.344 22.1509 61.9601C23.7171 61.9601 25.257 61.9601 26.8338 61.9601ZM28.4725 61.9548C30.0479 61.9548 31.5997 61.9548 33.1593 61.9548C33.1593 59.8485 33.1593 57.7699 33.1593 55.6965C31.5747 55.6965 30.0229 55.6965 28.4725 55.6965C28.4725 57.8002 28.4725 59.867 28.4725 61.9548ZM36.33 36.7251C32.6298 36.7251 28.9717 36.7251 25.3282 36.7251C25.3282 37.26 25.3282 37.7592 25.3282 38.2453C29.0152 38.2453 32.6627 38.2453 36.33 38.2453C36.33 37.7329 36.33 37.2455 36.33 36.7251ZM25.3097 41.3988C29.0086 41.3988 32.668 41.3988 36.3116 41.3988C36.3116 40.864 36.3116 40.3648 36.3116 39.8787C32.6245 39.8787 28.9783 39.8787 25.3097 39.8787C25.3097 40.3911 25.3097 40.8785 25.3097 41.3988ZM25.3097 44.5603C29.0086 44.5603 32.668 44.5603 36.3116 44.5603C36.3116 44.0255 36.3116 43.5262 36.3116 43.0401C32.6245 43.0401 28.9783 43.0401 25.3097 43.0401C25.3097 43.5526 25.3097 44.04 25.3097 44.5603ZM25.311 47.723C29.006 47.723 32.6654 47.723 36.3129 47.723C36.3129 47.1895 36.3129 46.6903 36.3129 46.2003C32.6272 46.2003 28.981 46.2003 25.311 46.2003C25.311 46.7114 25.311 47.1988 25.311 47.723ZM23.6855 36.7172C23.1428 36.7172 22.6554 36.7172 22.1562 36.7172C22.1562 37.2415 22.1562 37.7394 22.1562 38.2374C22.6844 38.2374 23.1823 38.2374 23.6855 38.2374C23.6855 37.7157 23.6855 37.2297 23.6855 36.7172ZM22.1614 39.8734C22.1614 40.4135 22.1614 40.9114 22.1614 41.3936C22.6963 41.3936 23.1942 41.3936 23.6803 41.3936C23.6803 40.8666 23.6803 40.3806 23.6803 39.8734C23.1665 39.8734 22.6804 39.8734 22.1614 39.8734ZM23.6658 44.584C23.6658 44.0716 23.6658 43.5618 23.6658 43.0467C23.1507 43.0467 22.6528 43.0467 22.1641 43.0467C22.1641 43.5789 22.1641 44.0768 22.1641 44.584C22.6752 44.584 23.1494 44.584 23.6658 44.584ZM23.6961 46.2161C23.1836 46.2161 22.6739 46.2161 22.1588 46.2161C22.1588 46.7311 22.1588 47.2291 22.1588 47.7178C22.691 47.7178 23.1889 47.7178 23.6961 47.7178C23.6961 47.2067 23.6961 46.7325 23.6961 46.2161Z" fill="white"/>
<path d="M61.7428 68.9746C62.6438 69.4949 63.5238 70.002 64.4762 70.5527C62.5516 73.2636 60.0054 74.9207 56.7332 75.3067C52.3257 75.827 48.8507 74.133 46.1371 70.5711C47.0948 70.0179 47.9945 69.4975 48.8889 68.9798C52.1808 73.3216 58.4036 73.3505 61.7428 68.9746Z" fill="white"/>
<path d="M54.5176 53.3096C54.5176 54.4095 54.5176 55.4107 54.5176 56.4684C51.9015 56.8373 49.8281 58.0953 48.4885 60.4071C47.1554 62.7097 47.0869 65.1137 48.1104 67.6033C47.2133 68.121 46.3215 68.6361 45.3744 69.1827C43.849 65.8263 43.8121 62.5147 45.5101 59.2834C47.3951 55.6952 50.4551 53.7759 54.5176 53.3096Z" fill="white"/>
<path d="M65.2217 69.1537C64.3405 68.6452 63.4592 68.1381 62.5358 67.6059C63.5462 65.1505 63.4974 62.7293 62.1564 60.4149C60.8247 58.1163 58.7776 56.8464 56.1391 56.4776C56.1391 55.4303 56.1391 54.4029 56.1391 53.3188C60.0699 53.7456 63.0443 55.6029 64.9952 59.012C66.9329 62.3987 66.701 66.4506 65.2217 69.1537Z" fill="white"/>
<path d="M55.3172 58.0306C58.7908 58.0293 61.6388 60.8667 61.644 64.3364C61.6493 67.8338 58.7974 70.683 55.3014 70.6764C51.833 70.6685 48.9969 67.8193 48.9995 64.3456C49.0009 60.8733 51.8435 58.0333 55.3172 58.0306ZM50.5803 64.3351C50.5724 66.9433 52.6984 69.0865 55.3027 69.0944C57.9122 69.1023 60.0528 66.9776 60.0607 64.3707C60.0686 61.7598 57.9451 59.6206 55.3383 59.6127C52.7301 59.6048 50.5882 61.7309 50.5803 64.3351Z" fill="white"/>
<path d="M62.3988 37.48C60.2253 37.4641 58.4641 35.6661 58.4839 33.482C58.5037 31.3099 60.307 29.5539 62.4937 29.5803C64.6448 29.6053 66.3941 31.3902 66.3849 33.5518C66.3757 35.7253 64.5802 37.4944 62.3988 37.48Z" fill="#FF0282"/>
<path d="M44.2561 54.1104C44.2561 55.4527 44.26 56.7489 44.2495 58.0464C44.2482 58.2019 44.181 58.3626 44.1164 58.5088C43.9149 58.9751 43.6541 59.4217 43.5039 59.9025C43.3695 60.3306 43.1627 60.4965 42.7043 60.3675C42.7043 58.2993 42.7043 56.222 42.7043 54.1104C43.2049 54.1104 43.7041 54.1104 44.2561 54.1104Z" fill="#FF0282"/>
<path d="M48.2039 39.054C48.2079 39.4808 47.8522 39.8444 47.4254 39.8484C46.9986 39.8523 46.6364 39.498 46.6324 39.0685C46.6285 38.6404 46.9815 38.2795 47.4109 38.2742C47.8377 38.2703 48.1987 38.6259 48.2039 39.054Z" fill="#FF0282"/>
<path d="M52.1636 44.5906C51.7368 44.5932 51.3759 44.2362 51.3733 43.8081C51.3706 43.38 51.7263 43.0204 52.1544 43.0178C52.5825 43.0151 52.9421 43.3708 52.9448 43.7989C52.9487 44.2257 52.5917 44.5879 52.1636 44.5906Z" fill="#FF0282"/>
<path d="M40.32 45.3888C40.7482 45.398 41.0986 45.7642 41.0893 46.191C41.0801 46.6178 40.7126 46.9708 40.2858 46.9616C39.8577 46.9524 39.5073 46.5862 39.5165 46.1581C39.5271 45.7299 39.8933 45.3795 40.32 45.3888Z" fill="#FF0282"/>
<path d="M39.4888 61.9601C37.9213 61.9601 36.3814 61.9601 34.8059 61.9601C34.8059 57.7685 34.8059 53.5835 34.8059 49.367C36.3577 49.367 37.9108 49.367 39.4888 49.367C39.4888 53.5559 39.4888 57.729 39.4888 61.9601ZM37.8989 60.3793C37.8989 57.2087 37.8989 54.0775 37.8989 50.9582C37.3654 50.9582 36.8662 50.9582 36.3775 50.9582C36.3775 54.1184 36.3775 57.2377 36.3775 60.3793C36.8899 60.3793 37.3773 60.3793 37.8989 60.3793Z" fill="#4E4B66"/>
<path d="M26.8338 61.96C25.257 61.96 23.7171 61.96 22.1509 61.96C22.1509 59.3439 22.1509 56.7502 22.1509 54.1183C23.6947 54.1183 25.2465 54.1183 26.8338 54.1183C26.8338 56.712 26.8338 59.3163 26.8338 61.96ZM25.2531 60.3793C25.2531 58.7881 25.2531 57.2363 25.2531 55.6991C24.7183 55.6991 24.2203 55.6991 23.7329 55.6991C23.7329 57.2785 23.7329 58.8184 23.7329 60.3793C24.2454 60.3793 24.7314 60.3793 25.2531 60.3793Z" fill="#4E4B66"/>
<path d="M28.4725 61.9548C28.4725 59.8669 28.4725 57.8001 28.4725 55.6965C30.0229 55.6965 31.5747 55.6965 33.1593 55.6965C33.1593 57.7699 33.1593 59.8485 33.1593 61.9548C31.5997 61.9548 30.048 61.9548 28.4725 61.9548ZM30.0638 57.2627C30.0638 58.3257 30.0638 59.3493 30.0638 60.3622C30.5973 60.3622 31.0952 60.3622 31.5852 60.3622C31.5852 59.3097 31.5852 58.2981 31.5852 57.2627C31.0728 57.2627 30.5867 57.2627 30.0638 57.2627Z" fill="#4E4B66"/>
<path d="M36.33 36.7251C36.33 37.2441 36.33 37.7315 36.33 38.2452C32.6614 38.2452 29.0152 38.2452 25.3282 38.2452C25.3282 37.7591 25.3282 37.2599 25.3282 36.7251C28.9717 36.7251 32.6298 36.7251 36.33 36.7251Z" fill="#4E4B66"/>
<path d="M25.3097 41.3988C25.3097 40.8784 25.3097 40.391 25.3097 39.8786C28.9783 39.8786 32.6245 39.8786 36.3116 39.8786C36.3116 40.3647 36.3116 40.8639 36.3116 41.3988C32.6667 41.3988 29.0086 41.3988 25.3097 41.3988Z" fill="#4E4B66"/>
<path d="M25.3097 44.5602C25.3097 44.0399 25.3097 43.5525 25.3097 43.0401C28.9783 43.0401 32.6245 43.0401 36.3116 43.0401C36.3116 43.5262 36.3116 44.0254 36.3116 44.5602C32.6667 44.5602 29.0086 44.5602 25.3097 44.5602Z" fill="#4E4B66"/>
<path d="M25.311 47.723C25.311 47.1987 25.311 46.7113 25.311 46.2002C28.981 46.2002 32.6272 46.2002 36.3129 46.2002C36.3129 46.6902 36.3129 47.1908 36.3129 47.723C32.664 47.723 29.006 47.723 25.311 47.723Z" fill="#4E4B66"/>
<path d="M23.6855 36.7172C23.6855 37.2296 23.6855 37.7157 23.6855 38.2373C23.1837 38.2373 22.6857 38.2373 22.1562 38.2373C22.1562 37.7394 22.1562 37.2414 22.1562 36.7172C22.6554 36.7172 23.1415 36.7172 23.6855 36.7172Z" fill="#FF0282"/>
<path d="M22.1615 39.8734C22.6805 39.8734 23.1665 39.8734 23.6803 39.8734C23.6803 40.3793 23.6803 40.8667 23.6803 41.3936C23.1955 41.3936 22.6963 41.3936 22.1615 41.3936C22.1615 40.9114 22.1615 40.4135 22.1615 39.8734Z" fill="#FF0282"/>
<path d="M23.6658 44.5839C23.1507 44.5839 22.6752 44.5839 22.1641 44.5839C22.1641 44.0768 22.1641 43.5789 22.1641 43.0467C22.6541 43.0467 23.1507 43.0467 23.6658 43.0467C23.6658 43.5617 23.6658 44.0715 23.6658 44.5839Z" fill="#FF0282"/>
<path d="M23.6961 46.216C23.6961 46.7311 23.6961 47.2066 23.6961 47.7177C23.1889 47.7177 22.691 47.7177 22.1588 47.7177C22.1588 47.2277 22.1588 46.7311 22.1588 46.216C22.6739 46.216 23.1837 46.216 23.6961 46.216Z" fill="#FF0282"/>
<path d="M50.5803 64.3352C50.5882 61.7309 52.7301 59.6049 55.3396 59.6128C57.9465 59.6207 60.0699 61.7599 60.062 64.3707C60.0541 66.9776 57.9135 69.1024 55.304 69.0945C52.6984 69.0866 50.5724 66.9434 50.5803 64.3352ZM55.3343 67.5137C57.0757 67.5072 58.4918 66.0727 58.4799 64.3273C58.4681 62.6056 57.0533 61.1988 55.3304 61.1935C53.585 61.1895 52.1597 62.6109 52.1597 64.3549C52.161 66.0977 53.5902 67.519 55.3343 67.5137Z" fill="#4E4B66"/>
<path d="M37.8989 60.3793C37.3773 60.3793 36.8899 60.3793 36.3775 60.3793C36.3775 57.2376 36.3775 54.117 36.3775 50.9582C36.8662 50.9582 37.3654 50.9582 37.8989 50.9582C37.8989 54.0762 37.8989 57.2073 37.8989 60.3793Z" fill="white"/>
<path d="M25.2531 60.3794C24.7328 60.3794 24.2454 60.3794 23.733 60.3794C23.733 58.8184 23.733 57.2785 23.733 55.6991C24.219 55.6991 24.7183 55.6991 25.2531 55.6991C25.2531 57.2364 25.2531 58.7881 25.2531 60.3794Z" fill="white"/>
<path d="M30.0638 57.2627C30.5867 57.2627 31.0741 57.2627 31.5852 57.2627C31.5852 58.2981 31.5852 59.3098 31.5852 60.3623C31.0965 60.3623 30.5973 60.3623 30.0638 60.3623C30.0638 59.3506 30.0638 58.3258 30.0638 57.2627Z" fill="#FF0282"/>
<path d="M55.3343 67.5137C53.5902 67.5203 52.161 66.0976 52.161 64.3549C52.161 62.6108 53.5863 61.1895 55.3317 61.1934C57.0547 61.1974 58.4694 62.6055 58.4813 64.3272C58.4918 66.0726 57.0757 67.5071 55.3343 67.5137Z" fill="white"/>
<path d="M48.802 71.2863C48.9666 71.129 49.1443 70.9853 49.2958 70.8142C49.546 70.5487 49.5467 70.2858 49.3338 70.096C49.1241 69.8767 48.8581 69.895 48.6112 70.1311C48.2853 70.4165 47.9726 70.7155 47.6729 71.0282C47.4391 71.278 47.3958 71.5293 47.5889 71.7642C47.8116 71.9972 48.0777 71.9788 48.3542 71.7407C48.5188 71.5833 48.6669 71.4417 48.802 71.2863Z" fill="#FF0282"/>
<path d="M50.5476 72.6057C50.6837 72.4231 50.8351 72.2519 50.956 72.058C51.1587 71.7546 51.1156 71.4952 50.8741 71.3434C50.6309 71.1621 50.3716 71.2244 50.1674 71.4982C49.8935 71.8338 49.6348 72.1806 49.3913 72.5388C49.2023 72.824 49.2013 73.079 49.4308 73.2785C49.6892 73.4712 49.9485 73.4089 50.1815 73.1282C50.3177 72.9456 50.4402 72.7813 50.5476 72.6057Z" fill="#FF0282"/>
<path d="M52.4847 73.6544C52.5662 73.4418 52.6655 73.2359 52.7293 73.0165C52.8421 72.6695 52.7304 72.4315 52.4567 72.3509C52.1735 72.2423 51.9408 72.3726 51.8185 72.6916C51.6458 73.0888 51.4909 73.4928 51.3536 73.9036C51.249 74.2293 51.3172 74.475 51.5922 74.6049C51.8931 74.7203 52.1258 74.59 52.274 74.2566C52.3556 74.044 52.429 73.8526 52.4847 73.6544Z" fill="#FF0282"/>
<path d="M54.8139 73.9384C54.8317 73.7114 54.8684 73.4858 54.8673 73.2573C54.8769 72.8925 54.7022 72.6961 54.4169 72.6966C54.1145 72.6728 53.9284 72.8638 53.9017 73.2044C53.8489 73.6343 53.8151 74.0657 53.8002 74.4985C53.7924 74.8406 53.9275 75.0568 54.2281 75.1032C54.5494 75.1284 54.7355 74.9374 54.7829 74.5756C54.8007 74.3486 54.8168 74.1442 54.8139 73.9384Z" fill="#FF0282"/>
<path d="M57.2256 73.8105C57.1864 73.5861 57.1659 73.3585 57.108 73.1375C57.0266 72.7818 56.8085 72.635 56.5323 72.7063C56.2335 72.7586 56.1007 72.9898 56.1595 73.3264C56.2154 73.7559 56.2899 74.1821 56.383 74.6051C56.4605 74.9383 56.6452 75.1141 56.9479 75.0843C57.2654 75.0289 57.3981 74.7976 57.3541 74.4354C57.3149 74.211 57.2796 74.0091 57.2256 73.8105Z" fill="#FF0282"/>
<path d="M59.3962 73.0322C59.305 72.8235 59.2312 72.6072 59.1227 72.4061C58.9594 72.0798 58.7128 71.9887 58.4613 72.1234C58.1834 72.2448 58.1091 72.5009 58.2458 72.814C58.4017 73.2181 58.5749 73.6146 58.7655 74.0036C58.9196 74.309 59.1406 74.4361 59.4277 74.3356C59.723 74.2065 59.7973 73.9504 59.6688 73.6089C59.5777 73.4002 59.4956 73.2124 59.3962 73.0322Z" fill="#FF0282"/>
<path d="M61.4252 71.9543C61.3093 71.7583 61.2097 71.5526 61.0775 71.3662C60.8757 71.0622 60.6198 71.0019 60.3866 71.1662C60.1255 71.3206 60.083 71.5839 60.2569 71.8779C60.4608 72.26 60.681 72.6325 60.9176 72.9953C61.1078 73.2797 61.3427 73.3789 61.6153 73.2441C61.8927 73.0801 61.9353 72.8168 61.7661 72.4935C61.6502 72.2975 61.5459 72.1211 61.4252 71.9543Z" fill="#FF0282"/>
<path d="M62.6971 70.4395C62.5265 70.2886 62.3684 70.1236 62.1852 69.987C61.8996 69.7598 61.6376 69.7812 61.4663 70.0094C61.2654 70.2366 61.306 70.5002 61.5619 70.7264C61.8736 71.0272 62.1978 71.3138 62.5345 71.5862C62.803 71.7982 63.057 71.8203 63.275 71.6082C63.4884 71.3667 63.4479 71.1031 63.1874 70.8476C63.0168 70.6968 62.8632 70.561 62.6971 70.4395Z" fill="#FF0282"/>
</svg>
