<svg width="255" height="217" viewBox="0 0 255 217" fill="none" xmlns="http://www.w3.org/2000/svg">
<path d="M206.214 90.7742C201.985 60.1824 191.229 26.2174 172.322 18.3558C153.327 10.5677 126.269 28.8095 101.502 49.4594C76.7351 70.1094 54.1699 93.2408 57.5378 116.105C60.7358 138.945 89.7857 161.42 118.782 171.362C147.867 181.23 176.729 178.541 192.438 163.563C208.147 148.585 210.443 121.366 206.214 90.7742Z" fill="#F7F7FC"/>
<path d="M97.8826 214.699L97.8794 214.698C80.9769 211.387 66.001 203.62 51.0814 195.244L51.0803 195.243C36.2716 186.979 21.7852 177.959 12.4443 165.089C3.10751 152.11 -1.10661 135.14 1.05663 119.432L1.05714 119.428C3.10726 103.599 11.5406 89.1094 20.4948 75.2217C29.4431 61.3431 38.7096 48.1952 51.3952 37.1117L51.3971 37.1101C64.1024 25.895 79.9398 16.8097 95.7118 16.9224C103.591 17.0361 111.437 19.5023 119.237 23.1584C127.038 26.8152 134.759 31.6467 142.396 36.4689C157.793 46.2338 172.504 55.8214 181.619 69.3755C190.614 82.9231 194.027 100.457 190.5 115.924C188.737 123.658 185.236 130.896 181.222 138.29C180.173 140.222 179.089 142.167 177.992 144.133C174.902 149.673 171.714 155.388 168.954 161.503C167.053 165.62 165.348 169.914 163.679 174.188C163.483 174.69 163.287 175.192 163.092 175.693C161.622 179.464 160.165 183.201 158.605 186.787C155.068 194.919 151.03 202.206 145.207 207.237C133.679 217.18 114.825 218.133 97.8826 214.699Z" stroke="#D6D8E7"/>
<path d="M46 116.203C46.2784 115.352 46.4976 114.478 46.8482 113.659C47.4979 112.143 48.9365 111.575 50.4266 112.279C52.2829 113.156 54.1082 114.099 55.9284 115.048C56.8668 115.538 57.3102 116.366 57.2819 117.423C57.2535 118.446 56.7637 119.225 55.8536 119.655C53.9973 120.534 52.1334 121.393 50.241 122.195C48.903 122.762 47.5495 122.236 46.9127 120.926C46.5388 120.161 46.3016 119.328 46 118.526C46 117.75 46 116.977 46 116.203ZM49.4031 119.421C50.9268 118.73 52.4092 118.059 54.0541 117.314C52.3886 116.479 50.9371 115.749 49.4366 114.997C48.7741 116.5 48.689 117.9 49.4031 119.421Z" fill="#4E4B66"/>
<path d="M145 118.524C144.742 119.24 144.523 119.978 144.216 120.674C143.523 122.239 142.115 122.806 140.571 122.13C138.807 121.359 137.065 120.545 135.314 119.74C134.321 119.287 133.752 118.524 133.718 117.417C133.685 116.27 134.229 115.458 135.239 114.948C136.956 114.079 138.666 113.189 140.398 112.349C142.076 111.537 143.518 112.096 144.224 113.836C144.536 114.602 144.745 115.412 145 116.201C145 116.977 145 117.75 145 118.524ZM141.571 114.986C140.024 115.767 138.575 116.5 136.959 117.317C138.596 118.057 140.086 118.732 141.602 119.418C142.303 117.879 142.208 116.492 141.571 114.986Z" fill="#4E4B66"/>
<path d="M95.4845 78.0857C97.2557 78.1398 98.4236 79.037 99.1867 80.5916C101.494 85.3019 103.822 90.0018 106.145 94.7043C106.586 95.5989 107.058 96.478 107.465 97.3881C107.756 98.0404 108.169 98.3575 108.906 98.4632C115.058 99.332 121.201 100.252 127.353 101.132C129.085 101.379 130.426 102.132 131.003 103.851C131.581 105.569 131.006 106.984 129.737 108.214C125.342 112.475 120.982 116.776 116.566 121.014C115.844 121.708 115.656 122.373 115.821 123.319C116.893 129.406 117.919 135.498 118.979 141.587C119.265 143.235 118.824 144.606 117.491 145.607C116.153 146.61 114.692 146.659 113.217 145.89C110.989 144.733 108.767 143.565 106.552 142.382C105.596 141.871 105.307 141.105 105.722 140.327C106.142 139.543 106.944 139.339 107.89 139.832C110.004 140.927 112.093 142.075 114.227 143.132C114.655 143.346 115.385 143.467 115.702 143.245C116.012 143.026 116.138 142.286 116.061 141.82C115.045 135.691 113.99 129.568 112.92 123.45C112.616 121.713 113.111 120.331 114.39 119.104C118.713 114.953 122.985 110.751 127.278 106.566C127.464 106.386 127.701 106.234 127.817 106.017C128.013 105.646 128.343 105.151 128.229 104.86C128.093 104.504 127.582 104.127 127.185 104.063C124.104 103.56 121.011 103.13 117.922 102.684C114.671 102.214 111.42 101.763 108.171 101.284C106.653 101.059 105.622 100.196 104.944 98.8138C102.268 93.3533 99.5657 87.9032 96.8715 82.4505C96.8277 82.3628 96.789 82.2751 96.7426 82.1901C96.4642 81.659 96.3095 81.0067 95.5206 80.9912C94.7265 80.9758 94.5435 81.6074 94.2754 82.1488C93.0198 84.6857 91.7643 87.2251 90.5087 89.762C90.3798 90.0224 90.2689 90.2957 90.1014 90.5277C89.6502 91.1516 89.0366 91.3759 88.325 91.0459C87.5722 90.6979 87.3479 90.0637 87.5645 89.2773C87.6057 89.1252 87.6831 88.9783 87.7553 88.8365C89.15 86.0083 90.5371 83.1775 91.9447 80.3544C92.6692 78.9055 93.8577 78.1424 95.4845 78.0857Z" fill="#4E4B66"/>
<path d="M71.8921 142.394C72.2402 140.353 72.6037 138.197 72.9749 136.039C73.7097 131.757 74.4316 127.475 75.1999 123.198C75.3597 122.308 75.138 121.692 74.4857 121.063C70.0333 116.768 65.6118 112.444 61.1903 108.118C59.4243 106.391 59.3006 104.086 60.8371 102.428C61.6312 101.572 62.6573 101.278 63.7659 101.119C69.8812 100.239 75.9939 99.332 82.1118 98.4683C82.8466 98.3652 83.2565 98.0223 83.5427 97.3726C83.9191 96.5192 84.3496 95.6891 84.7802 94.8641C85.2571 93.9566 86.077 93.6498 86.8478 94.0571C87.5852 94.4464 87.7914 95.2327 87.3583 96.1506C86.8917 97.138 86.3967 98.1151 85.9042 99.0896C85.2597 100.368 84.1975 101.083 82.8027 101.286C76.5611 102.201 70.3169 103.091 64.0804 104.032C63.6086 104.104 62.9434 104.424 62.8094 104.79C62.6805 105.143 63.0053 105.826 63.3379 106.154C67.7181 110.475 72.1113 114.785 76.5534 119.042C77.9249 120.354 78.3735 121.818 78.0461 123.659C76.9581 129.774 75.9114 135.895 74.8905 142.021C74.8234 142.42 75.0065 143.101 75.2901 143.258C75.6459 143.454 76.3007 143.387 76.6952 143.181C82.1505 140.353 87.6006 137.514 93.0121 134.603C94.7085 133.691 96.2683 133.613 97.9389 134.583C99.246 135.343 100.615 135.99 101.943 136.712C102.866 137.215 103.157 138.024 102.742 138.79C102.337 139.535 101.502 139.721 100.566 139.239C99.1919 138.532 97.81 137.841 96.4694 137.076C95.7681 136.676 95.1881 136.723 94.492 137.094C88.949 140.033 83.4009 142.962 77.8347 145.854C75.2978 147.174 72.5289 145.88 71.9875 143.183C71.9463 142.967 71.9334 142.742 71.8921 142.394Z" fill="#4E4B66"/>
<path d="M65.4827 104.987C65.4216 104.735 65.2519 104.616 64.9756 104.645C64.7009 104.69 64.5596 104.843 64.588 105.114C64.6044 105.439 64.638 105.762 64.689 106.083C64.7138 106.321 64.8852 106.458 65.1288 106.449C65.3897 106.439 65.5674 106.301 65.5753 106.042C65.5922 105.869 65.5727 105.682 65.5532 105.495C65.5359 105.497 65.5359 105.497 65.5186 105.498C65.5182 105.327 65.516 105.138 65.4827 104.987Z" fill="#FF0282"/>
<path d="M67.4536 104.8C67.3925 104.549 67.2229 104.429 66.9465 104.458C66.6718 104.504 66.5305 104.656 66.5589 104.928C66.5753 105.253 66.6089 105.576 66.6599 105.897C66.6847 106.134 66.8561 106.271 67.0997 106.263C67.3606 106.253 67.5383 106.114 67.5462 105.856C67.5631 105.682 67.5436 105.495 67.5241 105.308C67.5068 105.31 67.5068 105.31 67.4895 105.312C67.4891 105.14 67.4869 104.951 67.4536 104.8Z" fill="#FF0282"/>
<path d="M69.3447 104.456C69.2836 104.205 69.114 104.085 68.8376 104.114C68.5629 104.16 68.4216 104.312 68.45 104.584C68.4664 104.908 68.5001 105.231 68.551 105.552C68.5758 105.79 68.7472 105.927 68.9908 105.919C69.2517 105.909 69.4294 105.77 69.4373 105.511C69.4542 105.338 69.4347 105.151 69.4152 104.964C69.3979 104.966 69.3979 104.966 69.3806 104.968C69.3802 104.796 69.378 104.607 69.3447 104.456Z" fill="#FF0282"/>
<path d="M71.321 104.114C71.2598 103.863 71.0902 103.743 70.8138 103.772C70.5392 103.817 70.3979 103.97 70.4262 104.241C70.4426 104.566 70.4763 104.889 70.5272 105.21C70.552 105.448 70.7235 105.585 70.9671 105.576C71.228 105.566 71.4056 105.428 71.4136 105.169C71.4304 104.996 71.4109 104.809 71.3914 104.622C71.3741 104.624 71.3741 104.624 71.3568 104.625C71.3564 104.454 71.3542 104.265 71.321 104.114Z" fill="#FF0282"/>
<path d="M73.2937 103.832C73.2326 103.581 73.063 103.461 72.7866 103.49C72.5119 103.535 72.3706 103.688 72.399 103.959C72.4154 104.284 72.4491 104.607 72.5 104.928C72.5248 105.166 72.6962 105.303 72.9399 105.294C73.2007 105.284 73.3784 105.146 73.3863 104.887C73.4032 104.714 73.3837 104.527 73.3642 104.34C73.3469 104.342 73.3469 104.342 73.3296 104.343C73.3292 104.172 73.327 103.983 73.2937 103.832Z" fill="#FF0282"/>
<path d="M109.494 138.103C109.589 137.863 109.52 137.667 109.278 137.531C109.027 137.41 108.824 137.452 108.69 137.69C108.516 137.965 108.357 138.248 108.213 138.539C108.096 138.748 108.157 138.959 108.361 139.093C108.579 139.235 108.804 139.224 108.96 139.018C109.074 138.886 109.166 138.722 109.258 138.558C109.243 138.55 109.243 138.55 109.228 138.541C109.327 138.401 109.434 138.246 109.494 138.103Z" fill="#FF0282"/>
<path d="M111.237 138.914C111.332 138.674 111.263 138.478 111.02 138.342C110.77 138.221 110.567 138.263 110.433 138.502C110.259 138.776 110.1 139.059 109.956 139.351C109.839 139.559 109.9 139.77 110.103 139.904C110.322 140.046 110.547 140.036 110.703 139.829C110.817 139.697 110.909 139.533 111.001 139.37C110.986 139.361 110.986 139.361 110.971 139.353C111.069 139.212 111.177 139.057 111.237 138.914Z" fill="#FF0282"/>
<path d="M113.048 139.776C113.143 139.536 113.074 139.34 112.831 139.204C112.581 139.083 112.377 139.125 112.244 139.364C112.069 139.638 111.91 139.921 111.767 140.213C111.649 140.421 111.71 140.632 111.914 140.766C112.133 140.908 112.358 140.898 112.514 140.691C112.628 140.559 112.72 140.396 112.812 140.232C112.797 140.223 112.797 140.223 112.782 140.215C112.88 140.074 112.988 139.919 113.048 139.776Z" fill="#FF0282"/>
<path d="M114.821 140.686C114.916 140.445 114.847 140.249 114.605 140.113C114.354 139.992 114.151 140.035 114.017 140.273C113.843 140.547 113.684 140.83 113.54 141.122C113.423 141.33 113.484 141.541 113.687 141.675C113.906 141.818 114.131 141.807 114.287 141.601C114.401 141.469 114.493 141.305 114.585 141.141C114.57 141.132 114.57 141.132 114.555 141.124C114.654 140.983 114.761 140.828 114.821 140.686Z" fill="#FF0282"/>
<path d="M129.165 68C129.428 68.0593 129.815 68.1083 130.173 68.232C134.185 69.6242 137.08 72.2565 138.854 76.1082C139.632 77.7995 139.068 79.5242 137.397 80.375C133.53 82.3473 129.642 84.2783 125.749 86.2016C124.463 86.8384 123.223 86.6579 122.171 85.6885C121.142 84.7398 120.907 83.5332 121.397 82.2416C122.934 78.1836 124.491 74.1308 126.059 70.0857C126.584 68.7451 127.626 68.098 129.165 68ZM136.384 77.668C134.999 74.4866 132.813 72.3648 129.74 71.1273C129.083 70.8617 128.796 70.9571 128.536 71.648C127.152 75.3451 125.716 79.0215 124.305 82.7056C124.2 82.9789 124.158 83.278 124.017 83.8452C128.281 81.7156 132.285 79.715 136.384 77.668Z" fill="#4E4B66"/>
<path d="M61.8606 68.0129C63.3121 68.0697 64.3794 68.6833 64.8873 69.9723C66.4986 74.0715 68.0661 78.1862 69.6182 82.3112C70.1054 83.6106 69.8193 84.8146 68.7751 85.7401C67.7387 86.6605 66.5218 86.8333 65.2714 86.2145C61.3527 84.2758 57.4365 82.3267 53.5384 80.3467C52.0173 79.5733 51.3753 77.8433 52.0534 76.3145C53.8426 72.2668 56.8668 69.5443 61.0691 68.147C61.3398 68.0542 61.6389 68.0465 61.8606 68.0129ZM66.7178 83.7111C66.7848 83.6467 66.8518 83.5797 66.9189 83.5152C66.857 83.2806 66.8132 83.0357 66.7281 82.8114C65.3024 79.086 63.8741 75.3632 62.4432 71.6378C62.2963 71.2562 62.2189 70.7767 61.6028 71.0036C58.3569 72.205 56.0366 74.368 54.6212 77.6629C58.6921 79.697 62.7036 81.7028 66.7178 83.7111Z" fill="#4E4B66"/>
<path d="M69.8915 151.361C69.7549 151.851 69.6517 152.356 69.4713 152.831C68.0198 156.646 66.558 160.459 65.0884 164.27C64.2299 166.495 62.6212 167.188 60.3834 166.34C56.6528 164.922 53.9458 162.395 52.2236 158.809C51.3187 156.925 51.8988 155.213 53.7602 154.274C57.5217 152.379 61.2857 150.49 65.0601 148.621C67.3907 147.466 69.8296 148.878 69.8915 151.361ZM54.7553 156.997C54.7373 157.175 54.7063 157.247 54.727 157.298C56.0882 160.405 58.3827 162.517 61.5513 163.71C62.1442 163.935 62.268 163.563 62.4252 163.151C63.8587 159.405 65.2973 155.661 66.7281 151.913C66.8209 151.67 66.8442 151.402 66.955 150.9C62.7114 153.019 58.7076 155.022 54.7553 156.997Z" fill="#4E4B66"/>
<path d="M124.048 151.028C124.158 151.454 124.205 151.753 124.31 152.031C125.713 155.695 127.144 159.351 128.518 163.027C128.789 163.749 129.077 163.875 129.781 163.589C132.586 162.442 134.675 160.542 136.038 157.837C136.126 157.665 136.203 157.487 136.27 157.309C136.291 157.255 136.265 157.185 136.255 157.015C135.652 156.706 134.992 156.383 134.347 156.038C133.453 155.558 133.153 154.829 133.509 154.055C133.873 153.264 134.695 153.032 135.644 153.473C136.258 153.756 136.866 154.05 137.459 154.375C139.032 155.236 139.619 156.948 138.869 158.59C137.103 162.45 134.21 165.095 130.199 166.489C128.356 167.131 126.747 166.361 126.009 164.476C124.651 161.001 123.323 157.515 121.985 154.032C121.766 153.462 121.524 152.898 121.346 152.315C120.964 151.067 121.201 149.938 122.171 149.043C123.158 148.133 124.326 147.886 125.566 148.458C126.997 149.118 128.407 149.827 129.802 150.557C130.635 150.992 130.882 151.758 130.524 152.493C130.147 153.264 129.356 153.522 128.472 153.099C127.224 152.503 125.997 151.861 124.757 151.248C124.594 151.165 124.406 151.137 124.048 151.028Z" fill="#4E4B66"/>
<path d="M80.534 70.9984C80.7583 71.2201 81.3668 71.545 81.5318 72.0245C82.1402 73.8111 82.6301 75.639 83.1096 77.4669C83.3493 78.3796 82.9317 79.0808 82.1583 79.2948C81.3152 79.5269 80.6243 79.1376 80.3407 78.1836C79.8276 76.4666 79.3326 74.7419 78.8763 73.0068C78.585 71.9162 79.1986 71.0242 80.534 70.9984Z" fill="#FF0282"/>
<path d="M112.235 72.6407C112.052 73.2904 111.838 74.0612 111.618 74.8295C111.286 76 110.982 77.1808 110.605 78.3358C110.335 79.1659 109.654 79.514 108.873 79.2974C108.11 79.086 107.676 78.5162 107.86 77.784C108.36 75.7679 108.922 73.7622 109.564 71.7847C109.778 71.1273 110.445 70.8772 111.165 71.0783C111.876 71.2794 112.196 71.7899 112.235 72.6407Z" fill="#FF0282"/>
<path d="M61.6183 93.0027C61.6441 94.2917 60.6489 95.0368 59.6744 94.6423C58.1533 94.0288 56.6605 93.343 55.1859 92.6263C54.4305 92.2602 54.2577 91.5331 54.58 90.8087C54.9023 90.0842 55.5468 89.7284 56.3305 90.0533C57.8439 90.6798 59.3547 91.332 60.8191 92.0668C61.2187 92.2679 61.4533 92.799 61.6183 93.0027Z" fill="#FF0282"/>
<path d="M136.546 91.7239C136.353 91.9405 136.069 92.4896 135.621 92.7191C134.278 93.41 132.88 93.9953 131.488 94.5831C130.627 94.9466 129.879 94.6656 129.529 93.9205C129.173 93.1651 129.433 92.3968 130.276 91.9998C131.699 91.3269 133.135 90.672 134.595 90.0817C135.59 89.6795 136.544 90.3601 136.546 91.7239Z" fill="#FF0282"/>
<path d="M110.835 160.328C110.461 160.715 110.144 161.308 109.7 161.426C109.249 161.547 108.409 161.367 108.195 161.027C107.246 159.542 106.387 157.982 105.668 156.373C105.503 156.004 105.885 155.197 106.251 154.829C106.756 154.323 107.599 154.396 107.963 154.986C108.935 156.569 109.757 158.242 110.634 159.882C110.675 159.962 110.662 160.07 110.675 160.165C110.726 160.222 110.781 160.274 110.835 160.328Z" fill="#FF0282"/>
<path d="M85.582 155.775C85.3938 156.293 85.3268 156.577 85.1953 156.827C84.5147 158.105 83.834 159.382 83.1225 160.642C82.6094 161.55 81.7844 161.823 81.0316 161.382C80.3226 160.967 80.1344 160.155 80.5985 159.271C81.2843 157.961 81.9933 156.662 82.7151 155.37C83.0838 154.713 83.6922 154.326 84.4038 154.669C84.8833 154.898 85.2236 155.424 85.582 155.775Z" fill="#FF0282"/>
<path d="M131.318 130.715C131.839 130.947 132.176 131.051 132.465 131.234C133.659 131.994 134.845 132.768 136.018 133.562C136.892 134.152 137.093 134.972 136.588 135.699C136.103 136.395 135.309 136.511 134.461 135.967C133.187 135.152 131.924 134.325 130.671 133.479C130.06 133.067 129.841 132.409 130.168 131.788C130.4 131.342 130.936 131.056 131.318 130.715Z" fill="#FF0282"/>
<path d="M60.9583 132.543C60.8371 132.726 60.6618 133.219 60.3138 133.469C59.0324 134.384 57.7073 135.243 56.3718 136.075C55.6448 136.529 54.8585 136.333 54.4099 135.689C53.9587 135.036 54.0567 134.217 54.7579 133.729C56.0779 132.812 57.416 131.917 58.7927 131.089C59.7827 130.491 60.9171 131.146 60.9583 132.543Z" fill="#FF0282"/>
</svg>
