<svg width="53" height="49" viewBox="0 0 53 49" fill="none" xmlns="http://www.w3.org/2000/svg">
<path d="M52.9058 29.521C52.3797 25.5601 50.1827 22.6823 46.9335 20.5781C45.9433 19.9282 45.541 19.3712 45.51 18.1025C45.4791 13.3371 43.3749 9.40712 39.8781 6.25078C35.0199 1.88761 29.2023 0.123778 22.8896 0C20.8782 0.0618889 19.0216 0.185667 17.1958 0.587945C11.8425 1.73289 7.13889 4.08467 3.67311 8.4169C0.145438 12.842 -0.968563 17.824 0.888106 23.2393C2.46627 27.7881 5.6845 30.9445 9.80011 33.2962C10.3881 33.6366 10.5737 33.977 10.4499 34.5959C10.1405 36.6692 9.55256 38.6806 8.53139 40.5373C8.34572 40.8776 8.191 41.249 8.50045 41.6203C8.77895 41.9607 9.11934 42.0226 9.52161 41.9298C12.4304 41.1871 15.1535 39.9803 17.0102 37.5975C17.9385 36.3907 18.805 36.205 20.1356 36.4216C21.033 36.5764 21.7447 36.7311 22.1779 37.6285C22.3945 38.0926 22.7659 38.464 23.1372 38.8044C27.4694 43.1985 32.7919 44.6219 38.7951 44.003C39.414 43.9411 39.8163 44.003 40.2185 44.5291C41.611 46.3858 43.5605 47.345 45.7267 47.933C46.1289 48.0258 46.5621 48.0877 46.8407 47.6854C47.1192 47.2831 46.9954 46.9118 46.7788 46.5405C46.098 45.3027 45.7267 44.003 45.51 42.6415C45.4172 42.1464 45.541 41.8988 45.9742 41.6822C47.5524 40.8158 48.9449 39.6708 50.1208 38.3093C52.2559 35.7718 53.339 32.863 52.9058 29.521ZM18.217 34.565C17.5981 34.4721 17.1958 34.6269 16.8864 35.1529C15.463 37.4119 13.3278 38.7425 10.6975 39.7636C11.3783 38.0617 11.9043 36.5454 12.121 34.9054C12.1519 34.7506 12.1828 34.5959 12.1828 34.4412C12.3376 32.8321 12.3376 32.863 10.9141 32.0894C6.7985 29.7995 3.54933 26.6741 2.24966 22.0015C0.764328 16.741 2.31155 12.1921 5.963 8.32406C9.18122 4.92017 13.2659 3.00161 17.8147 2.16611C23.787 1.05211 29.5427 1.79478 34.927 4.76545C38.857 6.93156 41.9205 9.96412 43.282 14.3892C44.8293 19.526 43.4986 24.0439 40.0019 27.9738C36.598 31.78 32.2039 33.7604 27.2528 34.6269C24.2202 35.122 21.2186 35.091 18.217 34.565ZM51.2967 31.4086C51.1419 34.6888 49.409 37.1643 46.9025 39.1757C46.1908 39.7636 45.4172 40.2588 44.5817 40.6301C43.9319 40.9395 43.6843 41.3728 43.7771 42.0845C43.9009 43.0747 44.1485 44.034 44.427 44.9933C44.4889 45.2099 44.6436 45.3955 44.4889 45.674C43.1273 45.0861 41.8895 44.3125 41.1159 43.0438C40.6518 42.3011 40.0948 42.1773 39.3211 42.3011C36.2576 42.8271 33.256 42.5177 30.3163 41.4965C27.8098 40.5991 25.6437 39.2066 23.9417 37.1334C23.818 37.0096 23.7251 36.8549 23.5704 36.6383C28.7072 36.4216 33.3798 35.122 37.5573 32.306C41.3325 29.7376 44.0247 26.3647 45.1697 21.8777C45.2934 21.3826 45.4482 21.5064 45.7267 21.6921C49.1615 23.982 51.4823 27.0145 51.2967 31.4086Z" fill="#4E4B66"/>
<path d="M14.4412 14.1107C20.0112 14.1107 25.5812 14.1107 31.1203 14.1107C31.7392 14.1107 32.2033 13.956 32.2962 13.3061C32.358 12.7491 31.8939 12.4397 31.1203 12.4397C28.3353 12.4397 25.5193 12.4397 22.7343 12.4397C19.9803 12.4397 17.1953 12.4397 14.4412 12.4397C13.8532 12.4397 13.3581 12.5635 13.2962 13.2443C13.2344 13.8322 13.6366 14.1107 14.4412 14.1107Z" fill="#FF0282"/>
<path d="M21.0333 5.6629C21.219 5.6629 21.4046 5.6629 21.5594 5.6629C24.8395 5.41535 27.9958 5.91046 30.9974 7.21013C31.5544 7.45768 32.0805 7.55052 32.359 6.86974C32.6375 6.2199 32.2352 5.91046 31.6473 5.6629C28.9241 4.51796 26.1082 3.93001 23.1375 3.9919C22.3949 3.9919 21.6522 3.96096 20.9095 3.9919C20.4144 4.02285 20.105 4.33229 20.1359 4.85835C20.1978 5.3844 20.5382 5.63196 21.0333 5.6629Z" fill="#FF0282"/>
<path d="M23.7867 17.3907C20.6304 17.3907 17.4741 17.3907 14.3177 17.3907C13.7607 17.3907 13.2656 17.5764 13.2656 18.2572C13.2656 18.907 13.7298 19.0927 14.3177 19.0927C15.8959 19.0927 17.4431 19.0927 19.0213 19.0927C20.5995 19.0927 22.2086 19.0927 23.7867 19.0927C24.3747 19.0927 24.8389 18.938 24.8389 18.2572C24.8389 17.5764 24.3437 17.3907 23.7867 17.3907Z" fill="#FF0282"/>
<path d="M9.15072 23.5178C8.77938 23.8582 8.40805 24.2296 8.03671 24.57C7.8201 24.7556 7.66538 25.0032 7.69633 25.2817C7.69633 25.653 7.85105 25.8696 8.16049 26.0243C8.46994 26.1791 8.77938 26.1172 9.02694 25.9315C9.49111 25.5292 9.92433 25.096 10.3576 24.6628C10.6979 24.2915 10.7289 23.8582 10.3885 23.4869C9.98622 23.1156 9.55299 23.1465 9.15072 23.5178Z" fill="#FF0282"/>
<path d="M35.8552 10.1807C36.3812 10.4592 37.031 9.87125 36.9382 9.2833C36.8763 8.78819 35.2672 7.48853 34.6793 7.48853C34.4317 7.48853 34.1842 7.67419 34.0294 7.95269C33.8747 8.23119 33.8747 8.54064 34.0604 8.75725C34.5864 9.31425 35.1744 9.84031 35.8552 10.1807Z" fill="#FF0282"/>
<path d="M17.6908 28.0048C17.2885 27.881 16.8862 27.9739 16.7005 28.3761C16.422 28.995 16.2364 29.6758 16.1435 30.3566C16.1126 30.7589 16.3292 31.0374 16.7315 31.1611C17.1338 31.3159 17.5051 31.1302 17.6289 30.7898C17.9074 30.1709 18.0621 29.4901 18.2478 29.026C18.2478 28.438 18.093 28.1286 17.6908 28.0048Z" fill="#FF0282"/>
<path d="M13.5439 26.21C13.1725 26.0553 12.8321 26.1481 12.6155 26.4885C12.3061 26.9836 11.9966 27.4787 11.7491 28.0048C11.5015 28.5618 11.9038 29.1188 12.5536 29.1188C12.6465 29.0878 12.8321 29.1188 12.925 29.0259C13.451 28.438 13.8843 27.7881 14.0699 27.0145C14.1318 26.6123 13.8533 26.3338 13.5439 26.21Z" fill="#FF0282"/>
</svg>
