<svg width="52" height="47" viewBox="0 0 52 47" fill="none" xmlns="http://www.w3.org/2000/svg">
<path d="M6.85913 35.8456C2.85297 34.7234 2.05174 31.9179 4.85605 28.952C5.65728 28.1505 5.65728 27.5092 5.17654 26.5473C3.6542 23.822 2.21198 21.0966 0.769765 18.3713C-0.432084 16.1268 -0.271838 14.6039 1.571 12.8404C5.33679 9.07299 9.10258 5.38575 12.7883 1.5382C14.3106 -0.0649496 16.1534 -0.465737 17.9963 0.57631C22.9639 3.46198 27.8514 2.41993 32.7389 0.57631C34.9824 -0.305422 36.7451 -0.0649497 38.5078 1.69851C42.1134 5.38575 45.799 8.99284 49.4847 12.6801C51.4077 14.6039 51.648 15.9665 50.3661 18.3713C48.6835 21.4172 47.3214 24.7037 44.8376 27.2687C44.2767 27.8298 44.5972 28.0703 44.9177 28.5512C47.4015 31.7575 46.44 34.563 42.514 35.4448C41.7127 35.6051 41.7128 36.0059 41.5525 36.567C41.0718 39.0519 39.4693 40.3344 37.0656 39.8534C36.1041 39.6931 36.024 39.9336 35.7836 40.655C35.0625 42.8193 33.0594 42.7391 31.2967 43.4605C30.175 43.9415 29.9346 47.2279 27.8514 46.9874C25.2074 46.6668 22.6434 46.1057 19.9993 45.8652C18.7174 45.7851 18.3168 44.3423 17.7559 43.22C16.7944 44.1018 15.5926 44.3423 14.3907 44.0216C13.1087 43.701 12.3075 42.8994 11.9069 41.6971C11.7467 41.2963 11.8268 40.4947 10.9454 40.8955C9.34295 41.6169 7.98086 41.3764 6.85913 40.0939C5.73741 38.6511 6.0579 37.2082 6.85913 35.8456ZM20.2397 3.38182C19.3584 2.98103 18.8776 2.74056 18.3969 2.58024C15.4323 1.29773 15.3522 1.29773 13.0286 3.54213C9.74357 6.90874 6.37839 10.3555 2.93309 13.642C1.49087 15.0046 1.33063 16.2872 2.37223 17.9705C4.05482 20.776 5.57716 23.7418 7.0995 26.6275C8.30135 28.952 9.90382 30.956 11.9069 32.6393C13.5895 34.0019 15.192 35.5249 16.7944 36.9678C19.759 39.613 22.8037 42.178 25.7682 44.8232C26.8098 45.7049 27.8514 45.7851 28.7328 44.743C29.6141 43.7811 29.4539 42.8193 28.6527 41.9375C28.1719 41.3764 27.6111 40.8955 27.1303 40.3344C26.7297 39.9336 26.4092 39.4526 26.8098 38.9717C27.2906 38.4106 27.7713 38.8114 28.1719 39.132C29.1334 39.8534 30.0148 40.655 31.0564 41.2963C32.0178 41.8574 32.9793 41.7772 33.7805 40.8955C34.5017 40.0137 34.5017 39.0519 33.7805 38.1701C33.4601 37.7693 33.0594 37.3686 32.6588 37.0479C32.2582 36.6471 31.9377 36.1662 32.3383 35.6852C32.7389 35.2043 33.2998 35.4448 33.7004 35.7654C34.5017 36.4067 35.383 37.0479 36.1842 37.6892C37.2258 38.4908 38.2675 38.5709 39.2289 37.609C40.1904 36.567 39.95 35.4448 38.9886 34.4027C38.2675 33.6813 37.5463 32.9599 36.9054 32.3186C36.5047 31.9179 36.4246 31.5171 36.9054 31.1163C37.2258 30.7956 37.6265 30.8758 37.947 31.1163C38.6681 31.6774 39.4693 32.2385 40.1904 32.7996C41.3923 33.7615 42.5941 34.4027 43.8761 33.0401C45.0779 31.6774 44.3568 30.5552 43.3152 29.433C39.0687 24.6235 34.742 19.8942 30.4154 15.0848C28.0918 12.5198 25.3676 11.9587 22.1627 13.2412C20.4 13.9626 18.6373 14.684 16.8745 15.4054C14.9516 16.207 13.0286 16.2872 11.1057 15.4856C8.38147 14.4435 7.98086 12.3594 10.3044 10.596C13.4292 8.19126 16.2336 5.3056 20.2397 3.38182ZM14.1504 14.4435C16.3938 14.2031 18.477 12.9205 20.8006 12.0388C25.5279 10.115 28.6527 10.7563 32.0178 14.4435C35.4631 18.1308 38.8283 21.818 42.1935 25.5854C42.9947 26.4671 43.3953 26.4671 44.1164 25.5854C46.1195 23.2609 47.2413 20.3752 48.7636 17.8102C49.7251 16.2872 49.4847 15.0046 48.2027 13.8023C44.5171 10.1952 40.8314 6.50796 37.2258 2.82072C36.1041 1.69851 34.9023 1.37788 33.4601 2.0993C31.5371 3.06119 29.534 3.62229 27.3707 3.70245C22.3229 3.78261 18.1565 5.8667 14.551 9.23331C13.8299 9.87457 12.9485 10.4357 12.2274 11.0769C11.5063 11.7182 10.0641 12.119 10.4647 13.161C10.8653 14.2832 12.3075 14.2031 13.4292 14.4435C13.5895 14.4435 13.7497 14.4435 14.1504 14.4435ZM13.5094 36.3265C10.7852 33.8416 10.7852 33.8416 8.54172 36.4868C8.4616 36.567 8.4616 36.567 8.38147 36.6471C7.66037 37.4487 7.50012 38.3304 8.22123 39.132C9.02246 39.9336 9.90382 39.7733 10.705 39.0519C11.6665 38.1701 12.628 37.2082 13.5094 36.3265ZM18.1565 40.655C18.1565 40.2542 15.5124 37.9297 15.192 38.09C14.1503 38.6511 13.3491 39.4526 13.4292 40.7352C13.5094 41.8574 14.1504 42.5788 15.3522 42.5788C16.7143 42.4986 17.3553 41.3764 18.1565 40.655ZM9.18271 32.479C8.70197 31.9179 8.30135 31.3568 7.82061 30.8758C7.33987 30.475 7.17963 29.3528 6.53864 29.5933C5.73741 29.9139 5.0163 30.7155 4.85605 31.6774C4.61568 32.8797 5.33679 33.6813 6.53864 34.0019C7.74049 34.2424 8.4616 33.4408 9.18271 32.479ZM19.759 41.7772C19.5186 42.6589 19.5186 43.22 19.8391 43.701C20.2397 44.3422 20.8006 44.743 21.6018 44.743C21.9223 44.743 22.4832 44.5827 22.3229 44.3422C22.0826 43.8613 21.6018 43.4605 21.2012 43.0597C20.8006 42.6589 20.3198 42.3383 19.759 41.7772Z" fill="#4E4B66"/>
<path d="M20.2398 3.38176C16.2336 5.30553 13.4293 8.1912 10.2244 10.5959C7.98095 12.3594 8.38156 14.4435 11.0256 15.4855C12.9486 16.2069 14.8715 16.2069 16.7945 15.4054C18.5572 14.684 20.3199 13.8824 22.0826 13.2411C25.3677 11.9586 28.0118 12.5999 30.3353 15.0847C34.662 19.814 38.9887 24.6235 43.3153 29.3528C44.3569 30.475 45.078 31.6773 43.8762 32.9598C42.6743 34.3225 41.3924 33.6813 40.1905 32.7194C39.4694 32.1583 38.7483 31.5972 37.9471 31.0361C37.6266 30.7956 37.2259 30.7154 36.9054 31.0361C36.4247 31.4368 36.585 31.8376 36.9054 32.2384C37.6266 32.9598 38.3477 33.6813 38.9887 34.3225C39.9501 35.2844 40.1104 36.4066 39.229 37.5288C38.3477 38.5709 37.2259 38.4105 36.1843 37.609C35.3831 36.9677 34.5018 36.3264 33.7005 35.6852C33.2198 35.3646 32.739 35.1241 32.3384 35.605C31.9378 36.086 32.2583 36.5669 32.6589 36.9677C33.0595 37.3685 33.4601 37.6891 33.7806 38.0899C34.5018 38.9716 34.5018 39.9335 33.7806 40.8153C33.0595 41.697 32.0179 41.7772 31.0564 41.216C30.0148 40.5748 29.1335 39.7732 28.172 39.0518C27.7714 38.7312 27.2105 38.4105 26.8099 38.8915C26.3292 39.3724 26.7298 39.8534 27.1304 40.2542C27.6112 40.7351 28.172 41.2962 28.6528 41.8573C29.454 42.739 29.6142 43.7811 28.7329 44.6628C27.7714 45.7049 26.7298 45.6247 25.7683 44.743C22.8038 42.0978 19.7591 39.5327 16.7945 36.8876C15.192 35.4447 13.5896 33.9217 11.907 32.559C9.90391 30.8757 8.30144 28.8718 7.09959 26.5472C5.57725 23.7417 4.05491 20.8561 2.37232 17.9704C1.33072 16.2871 1.49096 15.0046 2.93318 13.6419C6.37848 10.3555 9.74366 6.90868 13.1088 3.54207C15.3523 1.29766 15.5125 1.29766 18.4771 2.58018C18.8777 2.82066 19.3585 2.98097 20.2398 3.38176ZM35.1427 25.425C34.7421 24.7036 34.2614 23.9021 33.2999 23.6616C32.8192 23.5013 32.4987 23.9021 32.4987 24.3028C32.5788 25.3449 33.38 25.906 34.1813 26.3068C34.7421 26.5472 35.0626 26.0663 35.1427 25.425ZM27.8515 29.2726C27.2105 29.2726 26.8099 29.5932 26.89 30.0742C27.0503 31.0361 27.8515 31.5972 28.6528 31.9979C29.1335 32.1583 29.5341 31.7575 29.5341 31.1964C29.3739 30.2345 28.4925 29.7535 27.8515 29.2726ZM26.7298 34.0019C26.4894 33.1202 25.7683 32.4789 24.9671 32.1583C24.4863 31.9178 24.0056 32.3987 24.0857 32.8797C24.246 33.8416 24.9671 34.4027 25.7683 34.8035C26.2491 35.0439 26.6497 34.563 26.7298 34.0019ZM30.6558 26.4671C30.0148 26.4671 29.6944 26.7076 29.7745 27.1083C29.8546 28.1504 30.6558 28.7115 31.4571 29.1123C31.9378 29.3528 32.4185 28.8718 32.3384 28.3107C32.1782 27.3488 31.2968 26.948 30.6558 26.4671ZM23.9255 36.7272C23.5249 35.9257 22.964 35.2042 22.0826 34.8836C21.6019 34.7233 21.1212 35.2844 21.2814 35.7653C21.682 36.5669 22.2429 37.3685 23.2044 37.5288C23.605 37.6891 23.8454 37.2883 23.9255 36.7272Z" fill="white"/>
<path d="M14.1504 14.4434C13.7498 14.4434 13.5896 14.4434 13.5094 14.4434C12.4678 14.203 10.9455 14.2831 10.5449 13.1609C10.2244 12.1189 11.6666 11.7181 12.3076 11.0768C13.0287 10.4356 13.9101 9.87446 14.6312 9.2332C18.2367 5.86659 22.4031 3.7825 27.4509 3.70234C29.5341 3.62219 31.6173 3.14124 33.5403 2.0992C34.9825 1.37778 36.1843 1.69841 37.306 2.82061C40.9116 6.50785 44.5973 10.1951 48.2829 13.8022C49.5649 15.0847 49.8053 16.2871 48.8438 17.81C47.2413 20.3751 46.1196 23.2607 44.1966 25.5853C43.4755 26.467 43.0749 26.467 42.2737 25.5853C38.8284 21.8179 35.4632 18.1307 32.0179 14.4434C28.6527 10.7562 25.4478 10.1951 20.8007 12.0387C18.4771 12.9204 16.3939 14.203 14.1504 14.4434ZM34.5017 6.26738C35.303 5.94675 36.0241 5.38565 36.2644 4.42376C36.4247 3.94282 35.9439 3.46187 35.4632 3.54203C34.5819 3.7825 33.8607 4.50392 33.6204 5.38565C33.4601 5.86659 33.8607 6.18722 34.5017 6.26738ZM37.306 9.07289C38.1073 8.75226 38.8284 8.19116 39.0688 7.22927C39.229 6.74832 38.8284 6.34754 38.4278 6.42769C37.3862 6.50785 36.8253 7.30942 36.4247 8.19116C36.2644 8.59194 36.6651 8.91257 37.306 9.07289ZM40.1905 11.7982C40.9116 11.4776 41.6327 10.9165 41.8731 10.0348C42.0333 9.55383 41.6327 9.15305 41.3122 9.2332C40.2706 9.39352 39.5495 10.1149 39.3091 11.0768C39.1489 11.4776 39.5495 11.7982 40.1905 11.7982ZM42.9948 14.6037C43.7159 14.2831 44.437 13.722 44.6774 12.7601C44.7575 12.2792 44.437 11.9586 44.0364 12.0387C43.0749 12.199 42.4339 12.9204 42.1134 13.8823C42.0333 14.2831 42.2737 14.6037 42.9948 14.6037ZM47.4817 15.726C47.4817 15.1648 47.2413 14.7641 46.8407 14.8442C45.8792 15.0045 45.2382 15.726 44.9979 16.6077C44.8376 17.0085 45.1581 17.4093 45.6389 17.3291C46.6003 17.2489 47.0811 16.4474 47.4817 15.726Z" fill="white"/>
<path d="M13.5094 36.3265C12.5479 37.2082 11.6665 38.1701 10.7051 39.0519C9.90383 39.7733 9.02247 39.9336 8.22124 39.132C7.50013 38.3304 7.66038 37.4487 8.38148 36.6471C8.46161 36.567 8.46161 36.567 8.54173 36.4868C10.7852 33.8416 10.7852 33.8416 13.5094 36.3265Z" fill="white"/>
<path d="M18.1562 40.6549C17.3549 41.4565 16.714 42.4985 15.3519 42.4985C14.15 42.4985 13.509 41.7771 13.4289 40.6549C13.3488 39.3724 14.2301 38.651 15.1916 38.0097C15.5121 37.8494 18.1562 40.2541 18.1562 40.6549Z" fill="white"/>
<path d="M9.18297 32.4789C8.46186 33.4408 7.74075 34.2424 6.5389 34.0019C5.33705 33.7614 4.69607 32.9599 4.85631 31.6773C5.01656 30.7155 5.73767 29.9139 6.5389 29.5933C7.17989 29.3528 7.34014 30.3948 7.82088 30.8758C8.30161 31.3567 8.70223 31.9178 9.18297 32.4789Z" fill="white"/>
<path d="M19.759 41.7773C20.4 42.3384 20.8006 42.6591 21.2814 43.0599C21.682 43.4607 22.1627 43.8614 22.4031 44.3424C22.5633 44.5829 22.0025 44.7432 21.682 44.7432C20.8807 44.7432 20.3199 44.3424 19.9193 43.7011C19.4385 43.2202 19.4385 42.6591 19.759 41.7773Z" fill="white"/>
<path d="M35.143 25.425C35.0629 26.0663 34.7424 26.5472 34.2617 26.3068C33.4605 25.906 32.6592 25.425 32.5791 24.3028C32.5791 23.902 32.8996 23.5012 33.3803 23.6616C34.2617 23.9822 34.7424 24.7036 35.143 25.425Z" fill="#FF0282"/>
<path d="M27.8515 29.2727C28.4925 29.7536 29.3739 30.1544 29.5341 31.1965C29.6142 31.7576 29.1335 32.1584 28.6528 31.9981C27.7714 31.6774 27.0503 31.0362 26.89 30.0743C26.8099 29.5933 27.2105 29.2727 27.8515 29.2727Z" fill="#FF0282"/>
<path d="M26.7295 34.0019C26.5693 34.563 26.2488 34.9637 25.768 34.8034C24.9668 34.4026 24.1656 33.8415 24.0855 32.8797C24.0053 32.4789 24.4861 31.9178 24.9668 32.1582C25.8482 32.559 26.4892 33.1201 26.7295 34.0019Z" fill="#FF0282"/>
<path d="M30.6552 26.4672C31.3763 26.8679 32.1775 27.3489 32.3378 28.3909C32.4179 28.952 31.9371 29.3528 31.4564 29.1925C30.6552 28.7917 29.8539 28.2306 29.7738 27.1886C29.6937 26.7878 30.0142 26.4672 30.6552 26.4672Z" fill="#FF0282"/>
<path d="M23.9255 36.7273C23.8454 37.2884 23.605 37.609 23.2044 37.5289C22.2429 37.3686 21.6019 36.567 21.2814 35.7654C21.1212 35.3646 21.6019 34.8035 22.0827 34.8837C22.964 35.2043 23.5249 35.9257 23.9255 36.7273Z" fill="#FF0282"/>
<path d="M34.5012 6.26745C33.8602 6.18729 33.4596 5.86666 33.6198 5.38572C33.9403 4.50398 34.5813 3.78257 35.4626 3.5421C35.9434 3.38178 36.344 3.94288 36.2639 4.42383C36.0235 5.30556 35.3024 5.86666 34.5012 6.26745Z" fill="#FF0282"/>
<path d="M37.3058 9.07288C36.6648 8.99273 36.2642 8.59194 36.5046 8.111C36.8251 7.22927 37.4661 6.50785 38.4276 6.34753C38.748 6.34753 39.1487 6.74832 39.0685 7.14911C38.8282 8.111 38.1071 8.6721 37.3058 9.07288Z" fill="#FF0282"/>
<path d="M40.1908 11.7982C39.5498 11.7982 39.2293 11.4776 39.3095 11.0768C39.5498 10.0348 40.2709 9.31336 41.3125 9.2332C41.7132 9.15305 42.0337 9.63399 41.8734 10.0348C41.5529 10.9165 40.9119 11.4776 40.1908 11.7982Z" fill="#FF0282"/>
<path d="M42.9952 14.6038C42.2741 14.6038 42.0337 14.2832 42.1138 13.8824C42.3542 12.9205 42.9952 12.2792 44.0368 12.0388C44.5175 11.9586 44.838 12.3594 44.6778 12.7602C44.4374 13.7221 43.7163 14.2832 42.9952 14.6038Z" fill="#FF0282"/>
<path d="M47.482 15.7261C47.0814 16.4475 46.6007 17.1689 45.6392 17.4094C45.1585 17.4896 44.838 17.0888 44.9982 16.688C45.2386 15.8063 45.8796 15.0849 46.8411 14.9245C47.2417 14.7642 47.482 15.165 47.482 15.7261Z" fill="#FF0282"/>
</svg>
