<svg width="109" height="108" viewBox="0 0 109 108" fill="none" xmlns="http://www.w3.org/2000/svg">
<path d="M55.0086 0C25.1443 0 0.539062 24.2296 0.539062 53.7183C0.539062 83.5826 24.7686 108 54.4451 108C84.3095 108 108.727 83.7704 108.727 53.9061C108.727 24.4174 84.4973 0 55.0086 0ZM54.633 104.243C27.0225 104.243 4.29558 81.7043 4.29558 54.0939C4.29558 26.2957 27.0226 3.5687 54.8208 3.75652C82.4313 3.75652 104.97 26.4835 104.97 54.0939C104.97 81.7043 82.4312 104.243 54.633 104.243Z" fill="#FF0282"/>
<path d="M55.9483 15.026C56.3239 15.026 56.8874 15.026 57.2631 15.026C59.1413 14.6503 62.3344 16.9042 62.71 13.7112C62.8979 10.8938 59.517 11.8329 57.4509 11.2695C57.0752 11.2695 56.8874 11.2695 56.5118 11.2695C27.9622 10.5181 6.92567 35.499 12.7483 63.2973C14.2509 70.9981 18.0074 77.7599 23.4544 83.5825C24.3935 84.5216 25.1448 85.4608 26.6474 84.5216C27.2109 84.146 27.7744 83.3947 27.2109 82.4555C26.6474 81.5164 25.8961 80.7651 25.1448 79.826C14.6265 66.866 12.1848 52.5912 19.1344 37.3773C26.4596 22.1634 39.4196 15.4016 55.9483 15.026Z" fill="#4E4B66"/>
<path d="M82.9958 21.9758C81.8689 21.0366 80.5541 18.7827 78.6758 20.661C76.7976 22.7271 79.2393 23.4784 80.3662 24.6053C97.0828 40.1949 98.3975 62.734 83.5593 80.3897C82.6202 81.5166 80.5541 82.4558 82.2445 84.1462C84.1228 86.0245 85.2497 83.7706 86.1889 82.6436C93.7019 74.5671 97.0828 64.8001 97.4584 53.9062C97.2706 41.3219 92.575 30.4279 82.9958 21.9758Z" fill="#4E4B66"/>
<path d="M74.1662 39.4431C66.4653 46.9561 58.9523 54.4692 51.4393 62.17C49.561 64.0483 48.434 64.0483 46.7436 62.17C43.3627 58.6013 39.794 55.0327 36.2253 51.6518C35.2862 50.9005 34.5349 49.5857 33.0323 50.9005C31.3419 52.4031 32.6566 53.3422 33.5958 54.2814C37.9158 58.6014 42.4236 63.1092 46.7436 67.4292C47.3071 67.9927 47.8705 68.9318 49.3732 68.9318C49.9366 68.3683 50.8758 67.8048 51.6271 67.0535C60.0792 58.7892 68.3436 50.337 76.6079 42.0727C77.5471 40.9457 79.9888 40.0066 78.1105 37.9405C76.2323 36.0622 75.1053 38.504 74.1662 39.4431Z" fill="#FF0282"/>
<path d="M72.8503 19.158C73.7894 19.5337 75.2921 18.4067 74.9164 17.2798C74.1651 14.6502 71.3477 14.6502 69.6573 13.8989C68.1547 13.7111 67.0277 14.4624 67.4034 15.5893C67.9669 18.4067 70.7842 18.4067 72.8503 19.158Z" fill="#4E4B66"/>
<path d="M45.0529 88.4665C42.6112 89.03 42.9868 91.4717 42.4234 93.1622C42.0477 94.2891 42.799 95.2283 44.1138 95.4161C46.7434 95.0404 46.1799 92.4109 46.9312 90.7204C47.4947 89.4056 46.5555 88.0909 45.0529 88.4665Z" fill="#4E4B66"/>
<path d="M64.2112 88.2783C62.5208 88.4661 61.7695 89.5931 62.3329 90.9079C63.0842 92.5983 62.3329 95.2279 65.3381 95.2279C66.6529 95.2279 67.2164 94.1009 66.8408 92.974C66.2773 91.2835 66.6529 89.0296 64.2112 88.2783Z" fill="#4E4B66"/>
<path d="M54.8196 89.5931C52.5656 89.4053 52.7535 91.2836 52.7535 92.7862C52.7535 94.2888 52.19 96.5427 54.6317 96.7305C56.6978 96.7305 56.3222 94.6644 56.51 93.1618C56.51 91.6592 56.8856 89.7809 54.8196 89.5931Z" fill="#4E4B66"/>
<path d="M36.6014 84.7097C33.9718 85.2732 33.5961 87.5271 33.0327 89.5932C32.8448 90.5323 33.4083 91.4715 34.5353 91.2836C37.1648 90.7202 37.1648 88.2784 38.2918 86.4002C37.9161 85.461 37.7283 84.5219 36.6014 84.7097Z" fill="#4E4B66"/>
<path d="M72.6656 84.7092C71.5387 84.5214 70.9752 85.6483 71.163 86.5874C71.7265 88.6535 72.1022 90.9074 74.7317 91.2831C75.8587 91.4709 76.2343 90.5318 76.2343 88.8414C75.2952 87.7144 75.483 84.897 72.6656 84.7092Z" fill="#4E4B66"/>
</svg>
