<svg width="255" height="215" viewBox="0 0 255 215" fill="none" xmlns="http://www.w3.org/2000/svg">
<path d="M206.214 90.7742C201.985 60.1824 191.229 26.2174 172.322 18.3558C153.327 10.5677 126.269 28.8095 101.502 49.4594C76.7352 70.1094 54.1699 93.2408 57.5379 116.105C60.7358 138.945 89.7857 161.42 118.782 171.362C147.867 181.23 176.729 178.541 192.438 163.563C208.147 148.585 210.443 121.366 206.214 90.7742Z" fill="#F7F7FC"/>
<path d="M89.2417 125H99.2417C99.794 125 100.242 125.448 100.242 126C100.242 126.552 99.794 127 99.2417 127H91.2417C90.1371 127 89.2417 126.105 89.2417 125Z" fill="#FF0282"/>
<path d="M91.2883 114.062L91.2383 126.909C90.1337 126.905 89.2418 126.006 89.2461 124.902L89.2805 116.054C89.2849 114.95 90.1838 114.058 91.2883 114.062Z" fill="#FF0282"/>
<path d="M127.325 126.86L127.243 114.14C128.347 114.133 129.248 115.023 129.256 116.127L129.312 124.847C129.319 125.952 128.43 126.853 127.325 126.86Z" fill="#FF0282"/>
<path d="M129.265 116.121L89.2417 116C89.245 114.895 90.1431 114.003 91.2477 114.006L127.271 114.115C128.375 114.118 129.268 115.017 129.265 116.121Z" fill="#FF0282"/>
<path d="M103.876 126.116C103.88 125.564 104.331 125.12 104.884 125.124L129.279 125.318C129.271 126.422 128.368 127.311 127.264 127.302L104.868 127.124C104.316 127.12 103.871 126.668 103.876 126.116Z" fill="#FF0282"/>
<path d="M89.2497 133C89.254 132.448 89.7053 132.004 90.2576 132.008L114.685 132.202C115.238 132.206 115.682 132.658 115.677 133.21C115.673 133.762 115.222 134.206 114.67 134.202L90.2417 134.008C89.6894 134.003 89.2453 133.552 89.2497 133Z" fill="#FF0282"/>
<path d="M117.175 133C117.18 132.448 117.631 132.004 118.183 132.008L127.686 132.083C128.238 132.088 128.682 132.539 128.678 133.091C128.673 133.644 128.222 134.088 127.67 134.083L118.167 134.008C117.615 134.003 117.171 133.552 117.175 133Z" fill="#FF0282"/>
<path d="M97.3515 139C97.3558 138.448 97.8071 138.004 98.3594 138.008L127.76 138.241C128.312 138.246 128.756 138.697 128.752 139.249C128.747 139.802 128.296 140.246 127.744 140.241L98.3435 140.008C97.7912 140.003 97.3471 139.552 97.3515 139Z" fill="#FF0282"/>
<path d="M89.2497 145C89.254 144.448 89.7053 144.003 90.2576 144.008L119.658 144.241C120.21 144.246 120.654 144.697 120.65 145.249C120.646 145.801 120.194 146.246 119.642 146.241L90.2417 146.008C89.6894 146.003 89.2453 145.552 89.2497 145Z" fill="#FF0282"/>
<path d="M89.2497 139C89.254 138.448 89.7053 138.004 90.2576 138.008L95.6126 138.05C96.1649 138.055 96.609 138.506 96.6046 139.058C96.6003 139.611 96.149 140.055 95.5967 140.05L90.2417 140.008C89.6894 140.003 89.2453 139.552 89.2497 139Z" fill="#FF0282"/>
<path d="M139.112 87.2207L97.6137 87.095L97.6197 85.095L137.118 85.2147C138.223 85.218 139.116 86.1161 139.112 87.2207Z" fill="#4E4B66"/>
<path d="M81.6831 87.0468L67.2419 87.003C66.6896 87.0013 66.2433 86.5523 66.245 86C66.2466 85.4477 66.6957 85.0013 67.248 85.003L81.6892 85.0468L81.6831 87.0468Z" fill="#4E4B66"/>
<path d="M61.5681 87.0615L40.5186 86.9978C40.522 85.8932 41.4201 85.0005 42.5247 85.0038L59.5742 85.0555C60.6787 85.0588 61.5715 85.957 61.5681 87.0615Z" fill="#4E4B66"/>
<path d="M137.734 161.947L137.242 86.013C138.346 86.0059 139.247 86.8955 139.255 88L139.721 159.934C139.728 161.038 138.838 161.94 137.734 161.947Z" fill="#4E4B66"/>
<path d="M40.2605 159.396L139.441 160.03C139.434 161.135 138.533 162.024 137.428 162.017L42.2477 161.409C41.1431 161.402 40.2534 160.501 40.2605 159.396Z" fill="#4E4B66"/>
<path d="M42.2949 85.2307L42 160.901C40.8955 160.897 40.0035 159.998 40.0078 158.894L40.2871 87.2229C40.2914 86.1183 41.1904 85.2264 42.2949 85.2307Z" fill="#4E4B66"/>
<path d="M82.2417 81C82.2417 79.3431 83.5848 78 85.2417 78H94.2417C95.8986 78 97.2417 79.3431 97.2417 81V99H82.2417V81Z" stroke="#4E4B66" stroke-width="2"/>
<rect x="71.2417" y="94" width="37" height="6" rx="3" stroke="#4E4B66" stroke-width="2"/>
<path d="M98.7085 209.758L98.7054 209.757C81.6559 206.554 66.5508 199.04 51.5051 190.939L51.504 190.938C36.5685 182.945 21.9596 174.22 12.5408 161.774C3.12744 149.225 -1.11911 132.82 1.06099 117.637L1.06155 117.633C3.12794 102.332 11.629 88.322 20.6599 74.8887C29.6836 61.466 39.028 48.7503 51.8207 38.0308L51.8226 38.0292C64.634 27.1834 80.6095 18.3919 96.5243 18.501C112.452 18.7214 128.189 28.0671 143.615 37.409C159.143 46.8541 173.978 56.1268 183.169 69.2337C192.237 82.3326 195.676 99.2817 192.122 114.231C190.345 121.707 186.815 128.704 182.768 135.856C181.711 137.725 180.617 139.605 179.511 141.506C176.395 146.865 173.179 152.394 170.395 158.308C168.478 162.292 166.758 166.445 165.074 170.58C164.877 171.065 164.679 171.551 164.482 172.036C163 175.682 161.531 179.296 159.958 182.765C156.392 190.628 152.321 197.673 146.449 202.538C134.82 212.158 115.799 213.08 98.7085 209.758Z" stroke="#D6D8E7"/>
<path d="M84.4654 150.347H84.0196C83.9241 150.347 83.8604 150.283 83.8604 150.188C83.8604 150.092 83.9241 150.028 84.0196 150.028H84.3062V149.742C84.3062 149.646 84.3699 149.583 84.4654 149.583C84.561 149.583 84.6247 149.646 84.6247 149.742V150.188C84.6247 150.283 84.5291 150.347 84.4654 150.347Z" fill="#4E4B66"/>
<path d="M83.0961 150.347H82.1727C82.0771 150.347 82.0134 150.283 82.0134 150.188C82.0134 150.092 82.0771 150.028 82.1727 150.028H83.0961C83.1917 150.028 83.2554 150.092 83.2554 150.188C83.2554 150.283 83.1917 150.347 83.0961 150.347ZM81.281 150.347H80.3575C80.262 150.347 80.1983 150.283 80.1983 150.188C80.1983 150.092 80.262 150.028 80.3575 150.028H81.281C81.3765 150.028 81.4402 150.092 81.4402 150.188C81.4402 150.283 81.3447 150.347 81.281 150.347ZM79.4659 150.347H78.5424C78.4469 150.347 78.3832 150.283 78.3832 150.188C78.3832 150.092 78.4469 150.028 78.5424 150.028H79.4659C79.5614 150.028 79.6251 150.092 79.6251 150.188C79.5933 150.283 79.5296 150.347 79.4659 150.347ZM77.6189 150.347H76.6954C76.5999 150.347 76.5362 150.283 76.5362 150.188C76.5362 150.092 76.5999 150.028 76.6954 150.028H77.6189C77.7144 150.028 77.7781 150.092 77.7781 150.188C77.7781 150.283 77.7144 150.347 77.6189 150.347ZM75.8038 150.347H74.8803C74.7847 150.347 74.7211 150.283 74.7211 150.188C74.7211 150.092 74.7847 150.028 74.8803 150.028H75.8038C75.8993 150.028 75.963 150.092 75.963 150.188C75.963 150.283 75.8993 150.347 75.8038 150.347ZM73.9886 150.347H73.0651C72.9696 150.347 72.9059 150.283 72.9059 150.188C72.9059 150.092 72.9696 150.028 73.0651 150.028H73.9886C74.0842 150.028 74.1479 150.092 74.1479 150.188C74.1479 150.283 74.0842 150.347 73.9886 150.347ZM72.1735 150.347H71.25C71.1545 150.347 71.0908 150.283 71.0908 150.188C71.0908 150.092 71.1545 150.028 71.25 150.028H72.1735C72.269 150.028 72.3327 150.092 72.3327 150.188C72.3327 150.283 72.2372 150.347 72.1735 150.347ZM70.3584 150.347H69.4349C69.3393 150.347 69.2757 150.283 69.2757 150.188C69.2757 150.092 69.3393 150.028 69.4349 150.028H70.3584C70.4539 150.028 70.5176 150.092 70.5176 150.188C70.4857 150.283 70.4221 150.347 70.3584 150.347ZM68.5114 150.347H67.5879C67.4924 150.347 67.4287 150.283 67.4287 150.188C67.4287 150.092 67.4924 150.028 67.5879 150.028H68.5114C68.6069 150.028 68.6706 150.092 68.6706 150.188C68.6706 150.283 68.6069 150.347 68.5114 150.347ZM66.6963 150.347H65.7728C65.6772 150.347 65.6136 150.283 65.6136 150.188C65.6136 150.092 65.6772 150.028 65.7728 150.028H66.6963C66.7918 150.028 66.8555 150.092 66.8555 150.188C66.8555 150.283 66.7918 150.347 66.6963 150.347ZM64.8811 150.347H63.9576C63.8621 150.347 63.7984 150.283 63.7984 150.188C63.7984 150.092 63.8621 150.028 63.9576 150.028H64.8811C64.9767 150.028 65.0404 150.092 65.0404 150.188C65.0404 150.283 64.9767 150.347 64.8811 150.347ZM63.066 150.347H62.1425C62.047 150.347 61.9833 150.283 61.9833 150.188C61.9833 150.092 62.047 150.028 62.1425 150.028H63.066C63.1615 150.028 63.2252 150.092 63.2252 150.188C63.2252 150.283 63.1297 150.347 63.066 150.347ZM61.2509 150.347H60.3274C60.2318 150.347 60.1682 150.283 60.1682 150.188C60.1682 150.092 60.2318 150.028 60.3274 150.028H61.2509C61.3464 150.028 61.4101 150.092 61.4101 150.188C61.3782 150.283 61.3146 150.347 61.2509 150.347ZM59.4039 150.347H58.5122C58.4167 150.347 58.353 150.283 58.353 150.188C58.353 150.092 58.4167 150.028 58.5122 150.028H59.4357C59.5313 150.028 59.595 150.092 59.595 150.188C59.5631 150.283 59.4994 150.347 59.4039 150.347ZM57.5888 150.347H56.6653C56.5697 150.347 56.506 150.283 56.506 150.188C56.506 150.092 56.5697 150.028 56.6653 150.028H57.5888C57.6843 150.028 57.748 150.092 57.748 150.188C57.748 150.283 57.6843 150.347 57.5888 150.347ZM55.7736 150.347H54.8501C54.7546 150.347 54.6909 150.283 54.6909 150.188C54.6909 150.092 54.7546 150.028 54.8501 150.028H55.7736C55.8692 150.028 55.9328 150.092 55.9328 150.188C55.9328 150.283 55.8692 150.347 55.7736 150.347ZM53.9585 150.347H53.035C52.9395 150.347 52.8758 150.283 52.8758 150.188C52.8758 150.092 52.9395 150.028 53.035 150.028H53.9585C54.054 150.028 54.1177 150.092 54.1177 150.188C54.0859 150.283 54.0222 150.347 53.9585 150.347ZM52.1434 150.347H51.2199C51.1243 150.347 51.0606 150.283 51.0606 150.188C51.0606 150.092 51.1243 150.028 51.2199 150.028H52.1434C52.2389 150.028 52.3026 150.092 52.3026 150.188C52.2707 150.283 52.207 150.347 52.1434 150.347Z" fill="#4E4B66"/>
<path d="M50.2964 150.347H49.8506C49.755 150.347 49.6913 150.283 49.6913 150.188V149.742C49.6913 149.646 49.755 149.583 49.8506 149.583C49.9461 149.583 50.0098 149.646 50.0098 149.742V150.028H50.2964C50.3919 150.028 50.4556 150.092 50.4556 150.188C50.4556 150.283 50.3919 150.347 50.2964 150.347Z" fill="#4E4B66"/>
<path d="M49.8506 149.009C49.755 149.009 49.6913 148.946 49.6913 148.85V147.958C49.6913 147.863 49.755 147.799 49.8506 147.799C49.9461 147.799 50.0098 147.863 50.0098 147.958V148.85C50.0098 148.946 49.9461 149.009 49.8506 149.009ZM49.8506 147.194C49.755 147.194 49.6913 147.131 49.6913 147.035V146.143C49.6913 146.048 49.755 145.984 49.8506 145.984C49.9461 145.984 50.0098 146.048 50.0098 146.143V147.035C50.0098 147.131 49.9461 147.194 49.8506 147.194ZM49.8506 145.411C49.755 145.411 49.6913 145.347 49.6913 145.252V144.36C49.6913 144.265 49.755 144.201 49.8506 144.201C49.9461 144.201 50.0098 144.265 50.0098 144.36V145.252C50.0098 145.347 49.9461 145.411 49.8506 145.411ZM49.8506 143.628C49.755 143.628 49.6913 143.564 49.6913 143.468V142.577C49.6913 142.481 49.755 142.418 49.8506 142.418C49.9461 142.418 50.0098 142.481 50.0098 142.577V143.468C50.0098 143.532 49.9461 143.628 49.8506 143.628ZM49.8506 141.812C49.755 141.812 49.6913 141.749 49.6913 141.653V140.762C49.6913 140.666 49.755 140.602 49.8506 140.602C49.9461 140.602 50.0098 140.666 50.0098 140.762V141.653C50.0098 141.749 49.9461 141.812 49.8506 141.812ZM49.8506 140.029C49.755 140.029 49.6913 139.966 49.6913 139.87V138.978C49.6913 138.883 49.755 138.819 49.8506 138.819C49.9461 138.819 50.0098 138.883 50.0098 138.978V139.87C50.0098 139.966 49.9461 140.029 49.8506 140.029ZM49.8506 138.214C49.755 138.214 49.6913 138.15 49.6913 138.055V137.163C49.6913 137.068 49.755 137.004 49.8506 137.004C49.9461 137.004 50.0098 137.068 50.0098 137.163V138.055C50.0098 138.15 49.9461 138.214 49.8506 138.214ZM49.8506 136.431C49.755 136.431 49.6913 136.367 49.6913 136.272V135.38C49.6913 135.284 49.755 135.221 49.8506 135.221C49.9461 135.221 50.0098 135.284 50.0098 135.38V136.272C50.0098 136.367 49.9461 136.431 49.8506 136.431ZM49.8506 134.616C49.755 134.616 49.6913 134.552 49.6913 134.456V133.565C49.6913 133.469 49.755 133.406 49.8506 133.406C49.9461 133.406 50.0098 133.469 50.0098 133.565V134.456C50.0098 134.552 49.9461 134.616 49.8506 134.616ZM49.8506 132.832C49.755 132.832 49.6913 132.769 49.6913 132.673V131.781C49.6913 131.686 49.755 131.622 49.8506 131.622C49.9461 131.622 50.0098 131.686 50.0098 131.781V132.673C50.0098 132.769 49.9461 132.832 49.8506 132.832ZM49.8506 131.049C49.755 131.049 49.6913 130.985 49.6913 130.89V129.998C49.6913 129.903 49.755 129.839 49.8506 129.839C49.9461 129.839 50.0098 129.903 50.0098 129.998V130.89C50.0098 130.985 49.9461 131.049 49.8506 131.049ZM49.8506 129.234C49.755 129.234 49.6913 129.17 49.6913 129.075V128.183C49.6913 128.088 49.755 128.024 49.8506 128.024C49.9461 128.024 50.0098 128.088 50.0098 128.183V129.075C50.0098 129.17 49.9461 129.234 49.8506 129.234ZM49.8506 127.451C49.755 127.451 49.6913 127.387 49.6913 127.291V126.4C49.6913 126.304 49.755 126.241 49.8506 126.241C49.9461 126.241 50.0098 126.304 50.0098 126.4V127.291C50.0098 127.387 49.9461 127.451 49.8506 127.451ZM49.8506 125.636C49.755 125.636 49.6913 125.572 49.6913 125.476V124.585C49.6913 124.489 49.755 124.425 49.8506 124.425C49.9461 124.425 50.0098 124.489 50.0098 124.585V125.476C50.0098 125.572 49.9461 125.636 49.8506 125.636ZM49.8506 123.852C49.755 123.852 49.6913 123.789 49.6913 123.693V122.801C49.6913 122.706 49.755 122.642 49.8506 122.642C49.9461 122.642 50.0098 122.706 50.0098 122.801V123.693C50.0098 123.789 49.9461 123.852 49.8506 123.852ZM49.8506 122.069C49.755 122.069 49.6913 122.005 49.6913 121.91V121.018C49.6913 120.923 49.755 120.859 49.8506 120.859C49.9461 120.859 50.0098 120.923 50.0098 121.018V121.91C50.0098 121.973 49.9461 122.069 49.8506 122.069ZM49.8506 120.254C49.755 120.254 49.6913 120.19 49.6913 120.095V119.203C49.6913 119.107 49.755 119.044 49.8506 119.044C49.9461 119.044 50.0098 119.107 50.0098 119.203V120.095C50.0098 120.19 49.9461 120.254 49.8506 120.254ZM49.8506 118.471C49.755 118.471 49.6913 118.407 49.6913 118.311V117.42C49.6913 117.324 49.755 117.26 49.8506 117.26C49.9461 117.26 50.0098 117.324 50.0098 117.42V118.311C50.0098 118.407 49.9461 118.471 49.8506 118.471ZM49.8506 116.655C49.755 116.655 49.6913 116.592 49.6913 116.496V115.605C49.6913 115.509 49.755 115.445 49.8506 115.445C49.9461 115.445 50.0098 115.509 50.0098 115.605V116.496C50.0098 116.592 49.9461 116.655 49.8506 116.655ZM49.8506 114.872C49.755 114.872 49.6913 114.808 49.6913 114.713V113.821C49.6913 113.726 49.755 113.662 49.8506 113.662C49.9461 113.662 50.0098 113.726 50.0098 113.821V114.713C50.0098 114.808 49.9461 114.872 49.8506 114.872ZM49.8506 113.057C49.755 113.057 49.6913 112.993 49.6913 112.898V112.006C49.6913 111.911 49.755 111.847 49.8506 111.847C49.9461 111.847 50.0098 111.911 50.0098 112.006V112.898C50.0098 112.993 49.9461 113.057 49.8506 113.057ZM49.8506 111.274C49.7869 111.274 49.6913 111.21 49.6913 111.114V110.223C49.6913 110.127 49.755 110.064 49.8506 110.064C49.9461 110.064 50.0098 110.127 50.0098 110.223V111.114C50.0098 111.21 49.9461 111.274 49.8506 111.274Z" fill="#4E4B66"/>
<path d="M49.8509 109.49C49.7553 109.49 49.6916 109.427 49.6916 109.331V108.885C49.6916 108.79 49.7872 108.726 49.8509 108.726H50.2967C50.3922 108.726 50.4559 108.79 50.4559 108.885C50.4559 108.981 50.3922 109.044 50.2967 109.044H50.0101V109.331C50.0101 109.427 49.9464 109.49 49.8509 109.49Z" fill="#4E4B66"/>
<path d="M83.0961 109.013H82.1727C82.0771 109.013 82.0134 108.949 82.0134 108.853C82.0134 108.758 82.0771 108.694 82.1727 108.694H83.0961C83.1917 108.694 83.2554 108.758 83.2554 108.853C83.2554 108.949 83.1917 109.013 83.0961 109.013ZM81.281 109.013H80.3575C80.262 109.013 80.1983 108.949 80.1983 108.853C80.1983 108.758 80.262 108.694 80.3575 108.694H81.281C81.3765 108.694 81.4402 108.758 81.4402 108.853C81.4402 108.949 81.3447 109.013 81.281 109.013ZM79.4659 109.013H78.5424C78.4469 109.013 78.3832 108.949 78.3832 108.853C78.3832 108.758 78.4469 108.694 78.5424 108.694H79.4659C79.5614 108.694 79.6251 108.758 79.6251 108.853C79.5933 108.949 79.5296 109.013 79.4659 109.013ZM77.6189 109.013H76.6954C76.5999 109.013 76.5362 108.949 76.5362 108.853C76.5362 108.758 76.5999 108.694 76.6954 108.694H77.6189C77.7144 108.694 77.7781 108.758 77.7781 108.853C77.7781 108.949 77.7144 109.013 77.6189 109.013ZM75.8038 109.013H74.8803C74.7847 109.013 74.7211 108.949 74.7211 108.853C74.7529 108.79 74.8166 108.726 74.9121 108.726H75.8356C75.9311 108.726 75.9948 108.79 75.9948 108.885C75.963 108.949 75.8993 109.013 75.8038 109.013ZM73.9886 109.013H73.0651C72.9696 109.013 72.9059 108.949 72.9059 108.853C72.9059 108.758 72.9696 108.694 73.0651 108.694H73.9886C74.0842 108.694 74.1479 108.758 74.1479 108.853C74.1479 108.949 74.0842 109.013 73.9886 109.013ZM72.1735 109.013H71.25C71.1545 109.013 71.0908 108.949 71.0908 108.853C71.0908 108.79 71.1863 108.726 71.25 108.726H72.1735C72.269 108.726 72.3327 108.79 72.3327 108.885C72.3327 108.949 72.2372 109.013 72.1735 109.013ZM70.3584 109.013H69.4349C69.3393 109.013 69.2757 108.949 69.2757 108.853C69.2757 108.79 69.3393 108.726 69.4349 108.726H70.3584C70.4539 108.726 70.5176 108.79 70.5176 108.885C70.4857 108.949 70.4221 109.013 70.3584 109.013ZM68.5114 109.013H67.5879C67.4924 109.013 67.4287 108.949 67.4287 108.853C67.4287 108.758 67.4924 108.694 67.5879 108.694H68.5114C68.6069 108.694 68.6706 108.758 68.6706 108.853C68.6706 108.949 68.6069 109.013 68.5114 109.013ZM66.6963 109.013H65.7728C65.6772 109.013 65.6136 108.949 65.6136 108.853C65.6136 108.758 65.6772 108.694 65.7728 108.694H66.6963C66.7918 108.694 66.8555 108.758 66.8555 108.853C66.8555 108.949 66.7918 109.013 66.6963 109.013ZM64.8811 109.013H63.9576C63.8621 109.013 63.7984 108.949 63.7984 108.853C63.7984 108.758 63.8621 108.694 63.9576 108.694H64.8811C64.9767 108.694 65.0404 108.758 65.0404 108.853C65.0404 108.949 64.9767 109.013 64.8811 109.013ZM63.066 109.013H62.1425C62.047 109.013 61.9833 108.949 61.9833 108.853C61.9833 108.758 62.047 108.694 62.1425 108.694H63.066C63.1615 108.694 63.2252 108.758 63.2252 108.853C63.2252 108.949 63.1297 109.013 63.066 109.013ZM61.2509 109.013H60.3274C60.2318 109.013 60.1682 108.949 60.1682 108.853C60.1682 108.758 60.2318 108.694 60.3274 108.694H61.2509C61.3146 108.726 61.3782 108.79 61.3782 108.885C61.3782 108.949 61.3146 109.013 61.2509 109.013ZM59.4039 109.013H58.5122C58.4167 109.013 58.353 108.949 58.353 108.853C58.353 108.79 58.4167 108.726 58.5122 108.726H59.4357C59.5313 108.726 59.595 108.79 59.595 108.885C59.5631 108.949 59.4994 109.013 59.4039 109.013ZM57.5888 109.013H56.6653C56.5697 109.013 56.506 108.949 56.506 108.853C56.5379 108.79 56.6016 108.726 56.6971 108.726H57.6206C57.7161 108.726 57.7798 108.79 57.7798 108.885C57.748 108.949 57.6843 109.013 57.5888 109.013ZM55.7736 109.013H54.8501C54.7546 109.013 54.6909 108.949 54.6909 108.853C54.6909 108.758 54.7546 108.694 54.8501 108.694H55.7736C55.8692 108.694 55.9328 108.758 55.9328 108.853C55.9328 108.949 55.8692 109.013 55.7736 109.013ZM53.9585 109.013H53.035C52.9395 109.013 52.8758 108.949 52.8758 108.853C52.8758 108.758 52.9395 108.694 53.035 108.694H53.9585C54.054 108.694 54.1177 108.758 54.1177 108.853C54.0859 108.949 54.0222 109.013 53.9585 109.013ZM52.1434 109.013H51.2199C51.1243 109.013 51.0606 108.949 51.0606 108.853C51.0606 108.79 51.1243 108.726 51.2199 108.726H52.1434C52.2389 108.726 52.3026 108.79 52.3026 108.885C52.2707 108.949 52.207 109.013 52.1434 109.013Z" fill="#4E4B66"/>
<path d="M84.4654 109.49C84.3699 109.49 84.3062 109.427 84.3062 109.331V109.013H84.0196C83.9241 109.013 83.8604 108.949 83.8604 108.853C83.8604 108.758 83.9241 108.694 84.0196 108.694H84.4654C84.561 108.694 84.6247 108.758 84.6247 108.853V109.299C84.6247 109.427 84.5291 109.49 84.4654 109.49Z" fill="#4E4B66"/>
<path d="M84.4655 149.009C84.37 149.009 84.3063 148.946 84.3063 148.85V147.958C84.3063 147.863 84.37 147.799 84.4655 147.799C84.5611 147.799 84.6248 147.863 84.6248 147.958V148.85C84.6248 148.946 84.5292 149.009 84.4655 149.009ZM84.4655 147.194C84.37 147.194 84.3063 147.131 84.3063 147.035V146.143C84.3063 146.048 84.37 145.984 84.4655 145.984C84.5611 145.984 84.6248 146.048 84.6248 146.143V147.035C84.6248 147.131 84.5292 147.194 84.4655 147.194ZM84.4655 145.411C84.37 145.411 84.3063 145.347 84.3063 145.252V144.36C84.3063 144.265 84.37 144.201 84.4655 144.201C84.5611 144.201 84.6248 144.265 84.6248 144.36V145.252C84.6248 145.347 84.5292 145.411 84.4655 145.411ZM84.4655 143.628C84.37 143.628 84.3063 143.564 84.3063 143.468V142.577C84.3063 142.481 84.37 142.418 84.4655 142.418C84.5611 142.418 84.6248 142.481 84.6248 142.577V143.468C84.6248 143.532 84.5292 143.628 84.4655 143.628ZM84.4655 141.812C84.37 141.812 84.3063 141.749 84.3063 141.653V140.762C84.3063 140.666 84.37 140.602 84.4655 140.602C84.5611 140.602 84.6248 140.666 84.6248 140.762V141.653C84.6248 141.749 84.5292 141.812 84.4655 141.812ZM84.4655 140.029C84.37 140.029 84.3063 139.966 84.3063 139.87V138.978C84.3063 138.883 84.37 138.819 84.4655 138.819C84.5611 138.819 84.6248 138.883 84.6248 138.978V139.87C84.6248 139.966 84.5292 140.029 84.4655 140.029ZM84.4655 138.214C84.37 138.214 84.3063 138.15 84.3063 138.055V137.163C84.3063 137.068 84.37 137.004 84.4655 137.004C84.5611 137.004 84.6248 137.068 84.6248 137.163V138.055C84.6248 138.15 84.5292 138.214 84.4655 138.214ZM84.4655 136.431C84.37 136.431 84.3063 136.367 84.3063 136.272V135.38C84.3063 135.284 84.37 135.221 84.4655 135.221C84.5611 135.221 84.6248 135.284 84.6248 135.38V136.272C84.6248 136.367 84.5292 136.431 84.4655 136.431ZM84.4655 134.616C84.37 134.616 84.3063 134.552 84.3063 134.456V133.565C84.3063 133.469 84.37 133.406 84.4655 133.406C84.5611 133.406 84.6248 133.469 84.6248 133.565V134.456C84.6248 134.552 84.5292 134.616 84.4655 134.616ZM84.4655 132.832C84.37 132.832 84.3063 132.769 84.3063 132.673V131.781C84.3063 131.686 84.37 131.622 84.4655 131.622C84.5611 131.622 84.6248 131.686 84.6248 131.781V132.673C84.6248 132.769 84.5292 132.832 84.4655 132.832ZM84.4655 131.049C84.37 131.049 84.3063 130.985 84.3063 130.89V129.998C84.3063 129.903 84.37 129.839 84.4655 129.839C84.5611 129.839 84.6248 129.903 84.6248 129.998V130.89C84.6248 130.985 84.5292 131.049 84.4655 131.049ZM84.4655 129.234C84.37 129.234 84.3063 129.17 84.3063 129.075V128.183C84.3063 128.088 84.37 128.024 84.4655 128.024C84.5611 128.024 84.6248 128.088 84.6248 128.183V129.075C84.6248 129.17 84.5292 129.234 84.4655 129.234ZM84.4655 127.451C84.37 127.451 84.3063 127.387 84.3063 127.291V126.4C84.3063 126.304 84.37 126.241 84.4655 126.241C84.5611 126.241 84.6248 126.304 84.6248 126.4V127.291C84.6248 127.387 84.5292 127.451 84.4655 127.451ZM84.4655 125.636C84.37 125.636 84.3063 125.572 84.3063 125.476V124.585C84.3063 124.489 84.37 124.425 84.4655 124.425C84.5611 124.425 84.6248 124.489 84.6248 124.585V125.476C84.6248 125.572 84.5292 125.636 84.4655 125.636ZM84.4655 123.852C84.37 123.852 84.3063 123.789 84.3063 123.693V122.801C84.3063 122.706 84.37 122.642 84.4655 122.642C84.5611 122.642 84.6248 122.706 84.6248 122.801V123.693C84.6248 123.789 84.5292 123.852 84.4655 123.852ZM84.4655 122.069C84.37 122.069 84.3063 122.005 84.3063 121.91V121.018C84.3063 120.923 84.37 120.859 84.4655 120.859C84.5611 120.859 84.6248 120.923 84.6248 121.018V121.91C84.6248 121.973 84.5292 122.069 84.4655 122.069ZM84.4655 120.254C84.37 120.254 84.3063 120.19 84.3063 120.095V119.203C84.3063 119.107 84.37 119.044 84.4655 119.044C84.5611 119.044 84.6248 119.107 84.6248 119.203V120.095C84.6248 120.19 84.5292 120.254 84.4655 120.254ZM84.4655 118.471C84.37 118.471 84.3063 118.407 84.3063 118.311V117.42C84.3063 117.324 84.37 117.26 84.4655 117.26C84.5611 117.26 84.6248 117.324 84.6248 117.42V118.311C84.6248 118.407 84.5292 118.471 84.4655 118.471ZM84.4655 116.655C84.37 116.655 84.3063 116.592 84.3063 116.496V115.605C84.3063 115.509 84.37 115.445 84.4655 115.445C84.5611 115.445 84.6248 115.509 84.6248 115.605V116.496C84.6248 116.592 84.5292 116.655 84.4655 116.655ZM84.4655 114.872C84.37 114.872 84.3063 114.808 84.3063 114.713V113.821C84.3063 113.726 84.37 113.662 84.4655 113.662C84.5611 113.662 84.6248 113.726 84.6248 113.821V114.713C84.6248 114.808 84.5292 114.872 84.4655 114.872ZM84.4655 113.057C84.37 113.057 84.3063 112.993 84.3063 112.898V112.006C84.3063 111.911 84.37 111.847 84.4655 111.847C84.5611 111.847 84.6248 111.911 84.6248 112.006V112.898C84.6248 112.993 84.5292 113.057 84.4655 113.057ZM84.4655 111.274C84.37 111.274 84.3063 111.21 84.3063 111.114V110.223C84.3063 110.127 84.37 110.064 84.4655 110.064C84.5611 110.064 84.6248 110.127 84.6248 110.223V111.114C84.6248 111.21 84.5292 111.274 84.4655 111.274Z" fill="#4E4B66"/>
<path d="M63.7989 125.095C64.0803 125.095 64.3084 124.866 64.3084 124.585C64.3084 124.304 64.0803 124.076 63.7989 124.076C63.5175 124.076 63.2894 124.304 63.2894 124.585C63.2894 124.866 63.5175 125.095 63.7989 125.095Z" fill="#4E4B66"/>
<path d="M63.7984 125.253C63.4163 125.253 63.1297 124.935 63.1297 124.585C63.1297 124.202 63.4163 123.916 63.7984 123.916C64.1805 123.916 64.4671 124.234 64.4671 124.585C64.4671 124.935 64.1487 125.253 63.7984 125.253ZM63.7984 124.202C63.6073 124.202 63.4163 124.362 63.4163 124.585C63.4163 124.808 63.5755 124.967 63.7984 124.967C63.9895 124.967 64.1805 124.808 64.1805 124.585C64.1805 124.362 63.9895 124.202 63.7984 124.202Z" fill="#4E4B66"/>
<path d="M71.6645 125.095C71.9459 125.095 72.174 124.866 72.174 124.585C72.174 124.304 71.9459 124.076 71.6645 124.076C71.3831 124.076 71.155 124.304 71.155 124.585C71.155 124.866 71.3831 125.095 71.6645 125.095Z" fill="#4E4B66"/>
<path d="M71.664 125.253C71.2819 125.253 70.9953 124.935 70.9953 124.585C70.9953 124.202 71.3137 123.916 71.664 123.916C72.0462 123.916 72.3328 124.234 72.3328 124.585C72.3328 124.935 72.0462 125.253 71.664 125.253ZM71.664 124.202C71.473 124.202 71.2819 124.362 71.2819 124.585C71.2819 124.808 71.4411 124.967 71.664 124.967C71.8551 124.967 72.0462 124.808 72.0462 124.585C72.0462 124.362 71.8551 124.202 71.664 124.202Z" fill="#4E4B66"/>
<path d="M67.2695 137.004C64.6264 137.004 62.5565 136.112 61.1554 134.329C59.1492 131.813 58.7989 127.96 58.8626 125.158C58.9262 122.26 59.4358 119.84 59.4994 119.681L59.6587 118.057C59.6587 118.025 59.6905 117.993 59.7224 117.961L61.219 116.624C61.2509 116.592 61.2827 116.592 61.3464 116.592L74.6255 118.279C74.6892 118.279 74.7529 118.343 74.7529 118.407C74.7529 118.439 75.3898 121.145 75.5172 124.457C75.6446 127.514 75.3261 131.718 73.2244 134.393C71.8232 136.112 69.817 137.004 67.2695 137.004ZM59.9453 118.152L59.786 119.744C59.786 119.744 59.786 119.744 59.786 119.776C59.7542 119.872 57.6525 129.489 61.3783 134.17C62.7476 135.858 64.7219 136.717 67.2695 136.717C69.7215 136.717 71.6322 135.858 72.9696 134.202C76.6954 129.521 74.7211 119.681 74.4982 118.598L61.3464 116.91L59.9453 118.152Z" fill="#4E4B66"/>
<path d="M67.0147 141.876C62.7476 141.876 59.8816 139.265 59.8179 139.233C59.786 139.201 59.7542 139.169 59.7542 139.137V131.813C59.7542 131.718 59.8179 131.654 59.9134 131.654C60.0089 131.654 60.0726 131.718 60.0726 131.813V139.074C60.6777 139.583 66.7281 144.487 74.0842 139.074V132.227C74.0842 132.132 74.1479 132.068 74.2434 132.068C74.3389 132.068 74.4026 132.132 74.4026 132.227V139.106C74.4026 139.137 74.3708 139.201 74.3389 139.233C71.664 141.207 69.1801 141.876 67.0147 141.876Z" fill="#4E4B66"/>
<path d="M67.27 136.845C63.1621 136.845 60.9966 134.648 59.9458 131.846C59.9458 133.024 59.9776 136.081 59.9776 136.145C59.9776 136.145 69.5946 140.953 74.2439 133.024V132.323C73.0975 134.934 71.0276 136.845 67.27 136.845Z" fill="#4E4B66"/>
<path d="M66.2504 137.705C62.8749 137.705 59.9452 136.303 59.9134 136.272C59.8497 136.24 59.8179 136.208 59.8179 136.144C59.8179 136.08 59.786 133.023 59.786 131.845C59.786 131.781 59.8497 131.718 59.9134 131.686C59.9771 131.686 60.0408 131.718 60.0726 131.781C61.3146 135.03 63.7347 136.685 67.2695 136.685C70.5176 136.685 72.8422 135.189 74.0842 132.259C74.116 132.195 74.1797 132.164 74.2434 132.164C74.3071 132.164 74.3708 132.227 74.3708 132.323V133.023C74.3708 133.055 74.3708 133.087 74.3389 133.087C72.2372 136.717 69.0846 137.705 66.2504 137.705ZM60.1045 136.049C60.8369 136.399 66.3778 138.787 70.8042 136.303C69.7852 136.781 68.6069 137.036 67.2695 137.036C63.8621 137.004 61.4419 135.539 60.1045 132.609C60.1045 133.819 60.1045 135.603 60.1045 136.049Z" fill="#4E4B66"/>
<path d="M58.5762 121.942C58.9902 121.942 59.2768 122.037 59.5634 122.292C59.6271 119.617 59.9774 116.433 60.8372 114.904C59.1176 115.509 58.1941 118.885 58.0667 122.037C58.2259 122.006 58.417 121.942 58.5762 121.942Z" fill="#4E4B66"/>
<path d="M59.5631 122.451C59.5313 122.451 59.4995 122.451 59.4676 122.419C59.2447 122.196 58.9899 122.101 58.6078 122.101C58.4486 122.101 58.2894 122.133 58.162 122.196C58.1301 122.228 58.0665 122.196 58.0346 122.164C58.0028 122.133 57.9709 122.101 57.9709 122.037C58.0983 119.107 58.8944 115.445 60.8369 114.776C60.9006 114.745 60.9643 114.776 60.9961 114.808C61.028 114.872 61.028 114.936 60.9961 114.968C60.2956 116.209 59.8179 118.948 59.7542 122.292C59.7542 122.355 59.7224 122.419 59.6587 122.419C59.595 122.451 59.595 122.451 59.5631 122.451ZM58.576 121.814C58.9263 121.814 59.181 121.878 59.4039 122.005C59.4358 120.572 59.6268 117.165 60.4866 115.254C59.1173 116.146 58.3531 119.075 58.2257 121.846C58.3531 121.814 58.4804 121.814 58.576 121.814Z" fill="#4E4B66"/>
<path d="M58.5764 125.254C58.449 125.254 58.3216 125.222 58.2261 125.222C58.5127 127.005 59.0222 127.451 59.0222 127.451L59.691 126.368C59.691 126.368 59.5636 125.859 59.5317 124.935C59.2451 125.19 58.9904 125.254 58.5764 125.254Z" fill="#4E4B66"/>
<path d="M59.0218 127.578C58.9899 127.578 58.9581 127.578 58.9262 127.546C58.8944 127.514 58.353 127.037 58.0664 125.253C58.0664 125.19 58.0664 125.158 58.0983 125.126C58.1301 125.094 58.1938 125.094 58.2257 125.094C58.3212 125.126 58.4486 125.126 58.5441 125.126C58.9581 125.126 59.1492 125.062 59.4039 124.839C59.4358 124.808 59.4994 124.776 59.5631 124.808C59.6268 124.839 59.6587 124.871 59.6587 124.935C59.6587 125.827 59.8179 126.304 59.8179 126.304C59.8179 126.336 59.8179 126.4 59.786 126.432L59.181 127.514C59.1492 127.546 59.1173 127.578 59.0218 127.578C59.0536 127.578 59.0536 127.578 59.0218 127.578ZM58.4167 125.381C58.6078 126.4 58.8626 126.941 59.0218 127.164L59.5313 126.304C59.4994 126.177 59.4358 125.795 59.4039 125.221C59.1492 125.381 58.8944 125.413 58.6078 125.413C58.5441 125.413 58.4804 125.413 58.4167 125.381Z" fill="#4E4B66"/>
<path d="M76.1545 125.254C76.0908 125.254 76.0271 125.254 75.9634 125.254C75.7724 125.254 75.5813 125.222 75.4221 125.158C75.4221 126.655 75.3584 127.738 75.3584 127.738C75.7405 126.91 75.9953 126.082 76.1545 125.254Z" fill="#4E4B66"/>
<path d="M75.3579 127.865H75.326C75.2624 127.833 75.1987 127.769 75.1987 127.705C75.1987 127.705 75.2624 126.623 75.2624 125.158C75.2624 125.094 75.2942 125.062 75.326 125.031C75.3579 124.999 75.4216 124.999 75.4534 124.999C75.6763 125.094 75.8992 125.094 76.1222 125.094C76.154 125.094 76.2177 125.094 76.2495 125.126C76.2814 125.158 76.2814 125.222 76.2814 125.253C76.1222 126.145 75.8356 127.005 75.4853 127.769C75.4534 127.833 75.4216 127.865 75.3579 127.865ZM75.549 125.349C75.549 125.954 75.549 126.464 75.5171 126.877C75.6763 126.4 75.8356 125.922 75.9311 125.413C75.8356 125.413 75.7082 125.381 75.549 125.349Z" fill="#4E4B66"/>
<path d="M75.9632 121.942C76.0906 121.942 76.1861 121.942 76.2817 121.974C76.0587 119.044 74.976 116.783 74.976 116.783L74.371 117.993C74.8487 119.108 75.1034 120.636 75.2626 122.101C75.4855 122.006 75.7085 121.942 75.9632 121.942Z" fill="#4E4B66"/>
<path d="M75.2624 122.26C75.2306 122.26 75.1987 122.26 75.1987 122.228C75.1669 122.196 75.135 122.164 75.135 122.101C74.9758 120.381 74.6892 119.012 74.2752 118.025C74.2434 117.993 74.2752 117.929 74.2752 117.897L74.8803 116.687C74.9121 116.624 74.944 116.592 75.0076 116.592C75.0713 116.592 75.1032 116.624 75.135 116.687C75.135 116.719 76.2177 119.012 76.4406 121.942C76.4406 121.973 76.4406 122.037 76.377 122.069C76.3451 122.101 76.2814 122.101 76.2496 122.101C75.9311 122.037 75.6127 122.069 75.3261 122.228C75.3261 122.26 75.2942 122.26 75.2624 122.26ZM74.5618 117.993C74.944 118.948 75.2306 120.254 75.4216 121.878C75.6445 121.782 75.8993 121.75 76.154 121.782C75.963 119.585 75.2942 117.802 75.0076 117.101L74.5618 117.993Z" fill="#4E4B66"/>
<path d="M59.7226 119.267C59.7226 119.267 60.0092 117.165 61.8881 117.993C63.7669 118.821 73.575 124.744 75.3583 116.337C75.3583 116.337 75.3264 116.306 74.5621 115.987C74.1163 115.796 73.2565 115.35 72.5878 114.076C71.9191 112.803 69.1486 110.796 64.7859 111.943C60.4551 113.057 59.5634 116.051 59.7226 119.267Z" fill="#4E4B66"/>
<path d="M70.3265 120.923C67.4605 120.923 64.1805 119.298 62.5883 118.502C62.2699 118.343 62.0151 118.216 61.824 118.12C61.3145 117.897 60.9006 117.897 60.5821 118.057C59.9771 118.375 59.8497 119.267 59.8497 119.267C59.8497 119.33 59.786 119.394 59.6905 119.394C59.6268 119.394 59.5631 119.33 59.5631 119.267C59.372 115.127 61.0279 112.739 64.7537 111.783C69.2438 110.605 72.0461 112.802 72.7148 114.044C73.3199 115.159 74.0842 115.668 74.6255 115.891C75.3898 116.21 75.4535 116.241 75.4535 116.273C75.4853 116.305 75.5172 116.369 75.4853 116.401C75.0395 118.407 74.116 119.776 72.7148 120.445C72.0143 120.795 71.1863 120.923 70.3265 120.923ZM61.0916 117.643C61.3464 117.643 61.633 117.706 61.9514 117.834C62.1425 117.929 62.3972 118.057 62.7157 118.216C64.7537 119.235 69.5304 121.623 72.5875 120.158C73.8931 119.521 74.7529 118.279 75.1669 116.432C75.0713 116.401 74.8803 116.305 74.4981 116.146C73.9249 115.923 73.0651 115.382 72.4282 114.172C71.8232 112.993 69.1483 110.955 64.8493 112.07C61.5374 112.93 59.9134 114.968 59.8497 118.407C59.9771 118.184 60.1681 117.929 60.4229 117.802C60.6458 117.706 60.8369 117.643 61.0916 117.643Z" fill="#4E4B66"/>
<path d="M67.5242 149.805C64.7537 149.583 56.4741 140.953 56.1239 140.571C56.092 140.539 56.0602 140.475 56.092 140.443C56.092 140.38 56.1239 140.348 56.1875 140.348L58.0027 139.615C58.0664 139.583 58.1301 139.615 58.1619 139.647C58.2256 139.711 63.9257 146.621 67.142 147.927C67.8426 147.449 73.6701 143.309 76.1858 139.774C76.2177 139.711 76.3132 139.711 76.3769 139.711L77.9054 140.348C77.9373 140.38 77.9691 140.411 78.001 140.443C78.001 140.475 78.001 140.539 77.9691 140.571C73.7657 145.729 67.6834 149.742 67.6197 149.774C67.5878 149.805 67.556 149.805 67.5242 149.805ZM56.506 140.539C57.6524 141.717 64.9766 149.2 67.4923 149.519C68.0337 149.137 73.6383 145.347 77.6188 140.539L76.4088 140.029C73.702 143.787 67.3649 148.15 67.3012 148.213C67.2694 148.245 67.2057 148.245 67.1739 148.245C64.0213 147.035 58.7669 140.793 58.0664 139.934L56.506 140.539Z" fill="#4E4B66"/>
<path d="M69.4667 119.521C67.2694 119.521 65.9957 118.693 64.8811 117.961C63.9895 117.388 63.2252 116.878 62.1425 116.846C61.3145 116.815 60.7095 117.038 60.3273 117.452C59.7541 118.057 59.8497 118.948 59.8497 118.948C59.8497 119.044 59.786 119.107 59.7223 119.107C59.6268 119.107 59.5631 119.044 59.5631 118.98C59.5631 118.948 59.4675 117.961 60.1044 117.229C60.5503 116.751 61.2508 116.496 62.1425 116.528C63.2889 116.56 64.1487 117.101 65.0403 117.674C66.2823 118.471 67.6516 119.362 70.2628 119.139C74.0841 118.821 75.2305 116.273 75.2305 116.241C75.2624 116.178 75.3579 116.114 75.4216 116.146C75.4853 116.178 75.549 116.273 75.5171 116.337C75.4853 116.464 74.307 119.076 70.2946 119.426C70.008 119.49 69.7214 119.521 69.4667 119.521Z" fill="#4E4B66"/>
<path d="M69.8488 117.611C68.0337 117.611 66.8873 116.91 65.9001 116.305C65.0403 115.764 64.2761 115.318 63.2252 115.35C60.9005 115.445 59.9771 116.846 59.9771 116.846C59.9452 116.91 59.8497 116.942 59.7541 116.878C59.6905 116.846 59.6586 116.751 59.7223 116.655C59.7541 116.592 60.7095 115.127 63.2252 114.999C64.3716 114.936 65.1995 115.445 66.0593 115.987C67.0784 116.623 68.2248 117.324 70.1673 117.229C73.6065 117.165 74.4344 115.923 74.4344 115.923C74.4663 115.859 74.5618 115.827 74.6573 115.891C74.721 115.923 74.7529 116.018 74.721 116.082C74.6892 116.146 73.8294 117.451 70.1991 117.611C70.0717 117.611 69.9762 117.611 69.8488 117.611Z" fill="#4E4B66"/>
<path d="M72.078 116.178C70.645 116.178 69.5304 115.573 68.384 114.936C67.3968 114.394 66.4097 113.853 65.1359 113.662C61.9196 113.216 60.3274 115.732 60.3274 115.764C60.2955 115.827 60.2 115.859 60.1045 115.827C60.0408 115.796 60.0089 115.7 60.0408 115.604C60.0726 115.573 61.7604 112.898 65.1677 113.375C66.4734 113.566 67.5242 114.108 68.5114 114.681C70.0718 115.541 71.5685 116.337 73.925 115.573C73.9886 115.541 74.0842 115.604 74.116 115.668C74.1479 115.732 74.0842 115.827 74.0205 115.859C73.2881 116.082 72.6512 116.178 72.078 116.178Z" fill="#4E4B66"/>
<path d="M73.0014 114.904C73.0014 114.904 72.9696 114.904 73.0014 114.904C72.2053 114.84 71.6321 114.522 70.9315 114.108C70.1673 113.662 69.1801 113.089 67.4924 112.579C64.3079 111.624 62.1106 113.344 62.0788 113.344C62.0151 113.407 61.9196 113.375 61.8559 113.312C61.7922 113.248 61.824 113.153 61.8877 113.089C61.9196 113.057 64.2442 111.242 67.556 112.261C69.2756 112.77 70.2628 113.344 71.0589 113.821C71.7595 114.235 72.269 114.522 73.0014 114.586C73.097 114.586 73.1607 114.649 73.1288 114.745C73.1288 114.84 73.0651 114.904 73.0014 114.904Z" fill="#4E4B66"/>
<path d="M58.5759 122.101C58.4804 122.101 58.4167 122.037 58.4167 121.942C58.4485 119.521 59.5949 117.133 59.6586 117.037C59.6905 116.974 59.786 116.942 59.8497 116.974C59.9134 117.006 59.9452 117.101 59.9134 117.165C59.9134 117.197 58.7351 119.585 58.7033 121.942C58.7351 122.037 58.6714 122.101 58.5759 122.101Z" fill="#4E4B66"/>
<path d="M59.0217 126.495C58.9899 126.495 58.9899 126.495 59.0217 126.495C58.5122 126.4 58.4485 125.444 58.4485 125.253C58.4485 125.158 58.5122 125.094 58.6077 125.094C58.7033 125.094 58.767 125.158 58.767 125.253C58.7988 125.667 58.9262 126.177 59.0536 126.209C59.1491 126.209 59.1809 126.304 59.1809 126.368C59.1491 126.432 59.0854 126.495 59.0217 126.495Z" fill="#4E4B66"/>
<path d="M61.3464 123.215C61.3145 123.215 61.2508 123.183 61.219 123.152C61.1553 123.088 61.1871 122.992 61.2508 122.929C61.2827 122.897 62.238 122.133 64.0213 121.782C64.1168 121.75 64.1805 121.814 64.2124 121.91C64.2442 122.005 64.1805 122.069 64.085 122.101C62.3972 122.451 61.4737 123.183 61.4419 123.183C61.41 123.215 61.3782 123.215 61.3464 123.215Z" fill="#4E4B66"/>
<path d="M73.702 123.215C73.6702 123.215 73.6383 123.215 73.6065 123.183C73.6065 123.183 72.6511 122.419 70.9634 122.101C70.8678 122.069 70.836 122.005 70.836 121.91C70.8678 121.814 70.9315 121.782 71.0271 121.782C72.7785 122.133 73.7338 122.897 73.7975 122.929C73.8612 122.992 73.8612 123.088 73.8294 123.152C73.7975 123.215 73.7657 123.215 73.702 123.215Z" fill="#4E4B66"/>
<path d="M67.7153 129.297C67.1102 129.297 66.4415 129.234 66.0912 129.17C65.9957 129.138 65.9638 129.075 65.9957 128.979C66.0275 128.884 66.0912 128.852 66.1867 128.884C66.8555 129.043 68.6069 129.043 68.989 128.884C69.1483 128.661 69.0846 126.272 68.8935 124.107C68.8935 124.011 68.9572 123.948 69.0209 123.948C69.1164 123.948 69.1801 124.011 69.1801 124.075C69.3712 126.304 69.4986 128.979 69.0846 129.138C68.8617 129.266 68.2885 129.297 67.7153 129.297Z" fill="#4E4B66"/>
<path d="M59.6908 126.336C59.85 126.91 60.264 127.547 61.1556 128.088C61.8881 127.833 62.3976 127.26 62.3976 126.559C62.3976 125.636 61.4422 124.903 60.264 124.903C60.0092 124.903 59.7545 124.935 59.5316 124.999C59.5953 125.604 59.6271 126.05 59.6908 126.336Z" fill="#FF0282"/>
<path d="M61.1872 128.247C61.1554 128.247 61.1235 128.247 61.1235 128.215C60.0726 127.578 59.6905 126.846 59.5631 126.368C59.4994 126.113 59.4676 125.667 59.4358 124.999C59.4358 124.935 59.4676 124.871 59.5313 124.839C59.786 124.776 60.0408 124.744 60.2956 124.744C61.5375 124.744 62.5565 125.572 62.5565 126.559C62.5565 127.291 62.0152 127.928 61.1872 128.215C61.219 128.247 61.1872 128.247 61.1872 128.247ZM59.8497 126.304C59.9453 126.718 60.2637 127.355 61.1872 127.928C61.8559 127.674 62.2699 127.132 62.2699 126.591C62.2699 125.763 61.3783 125.062 60.2956 125.062C60.1045 125.062 59.9134 125.094 59.7224 125.126C59.7542 125.667 59.786 126.081 59.8497 126.304Z" fill="#4E4B66"/>
<path d="M73.2566 128.215C74.3393 127.515 74.7533 126.719 74.8806 126.337C74.9443 126.177 74.9443 125.763 74.9443 125.19C74.7533 125.158 74.5304 125.126 74.3393 125.126C73.161 125.126 72.2057 125.859 72.2057 126.782C72.1739 127.387 72.6197 127.929 73.2566 128.215Z" fill="#FF0282"/>
<path d="M73.2562 128.374C73.2244 128.374 73.2243 128.374 73.1925 128.374C72.4919 128.056 72.0461 127.451 72.0461 126.782C72.0461 125.795 73.0651 124.967 74.3071 124.967C74.53 124.967 74.7529 124.999 74.9758 125.03C75.0395 125.062 75.1032 125.094 75.1032 125.19C75.1032 126.05 75.0713 126.272 75.0395 126.368C74.9439 126.718 74.5618 127.578 73.3517 128.342C73.288 128.374 73.2562 128.374 73.2562 128.374ZM74.3071 125.285C73.2243 125.285 72.3327 125.954 72.3327 126.814C72.3327 127.323 72.683 127.801 73.2243 128.088C74.2752 127.387 74.6255 126.623 74.721 126.336C74.7529 126.241 74.7847 126.018 74.7847 125.349C74.6255 125.285 74.4663 125.285 74.3071 125.285Z" fill="#4E4B66"/>
<path d="M74.5941 118.439C74.5941 118.439 75.1036 125.54 74.8488 126.336C74.5941 127.132 73.2566 129.553 67.5246 129.457C61.9837 129.362 60.0412 127.706 59.6909 126.336C59.3406 124.967 59.8501 118.757 59.8501 118.757L59.6272 119.713C59.6272 119.713 55.7422 136.845 67.2698 136.845C78.8612 136.845 74.5941 118.439 74.5941 118.439ZM67.5246 132.546C65.0407 132.546 64.8815 131.049 64.8815 131.049C64.8815 131.049 67.2698 131.623 70.0085 131.049C70.0085 131.049 70.0085 132.546 67.5246 132.546Z" fill="#4E4B66"/>
<path d="M67.2695 137.004C64.6264 137.004 62.5565 136.112 61.1554 134.329C59.1492 131.813 58.7989 127.96 58.8626 125.158C58.9262 122.133 59.4994 119.681 59.4994 119.681L59.7224 118.725C59.7542 118.662 59.8179 118.598 59.8816 118.598C59.9453 118.598 60.009 118.693 60.009 118.757C60.009 118.821 59.4994 124.967 59.8497 126.304C60.009 126.973 61.0598 129.202 67.5242 129.298C73.4155 129.393 74.53 126.814 74.7211 126.304C74.9121 125.667 74.5937 120.445 74.4663 118.471C74.4663 118.407 74.53 118.311 74.5937 118.311C74.6574 118.311 74.7529 118.343 74.7529 118.439C74.7529 118.471 75.3898 121.177 75.5172 124.489C75.6446 127.546 75.3261 131.75 73.2244 134.425C71.8232 136.112 69.817 137.004 67.2695 137.004ZM59.5631 121.018C59.1173 123.789 58.4486 130.476 61.3783 134.138C62.7476 135.826 64.7219 136.686 67.2695 136.686C69.7215 136.686 71.6322 135.826 72.9696 134.17C75.6446 130.826 75.3898 124.839 74.944 121.305C75.0714 123.375 75.1669 125.89 75.0077 126.368C74.8166 126.909 73.6384 129.68 67.5242 129.584C61.028 129.489 59.786 127.291 59.5631 126.368C59.3402 125.54 59.4358 122.929 59.5631 121.018ZM67.5242 132.705C64.9448 132.705 64.7219 131.113 64.7219 131.049C64.7219 130.985 64.7219 130.954 64.7856 130.922C64.8175 130.89 64.8811 130.89 64.913 130.89C64.9448 130.89 67.3013 131.463 69.9763 130.89C70.0081 130.89 70.0718 130.89 70.1036 130.922C70.1355 130.954 70.1673 130.985 70.1673 131.049C70.1673 131.049 70.1355 132.705 67.5242 132.705ZM65.0722 131.24C65.2314 131.622 65.7409 132.418 67.5242 132.418C69.3075 132.418 69.7215 131.622 69.817 131.24C67.6835 131.654 65.7409 131.367 65.0722 131.24Z" fill="#4E4B66"/>
<path d="M75.963 125.413C75.7401 125.413 75.5172 125.349 75.2943 125.285C75.2306 125.253 75.1987 125.158 75.2306 125.094C75.2624 125.03 75.358 124.999 75.4216 125.03C75.5809 125.094 75.7719 125.158 75.963 125.158C76.7591 125.158 77.396 124.489 77.396 123.661C77.396 122.833 76.7591 122.164 75.963 122.164C75.7401 122.164 75.549 122.228 75.358 122.324C75.2943 122.355 75.1987 122.324 75.1669 122.26C75.135 122.196 75.1669 122.101 75.2306 122.069C75.4535 121.941 75.7082 121.878 75.9948 121.878C76.9502 121.878 77.7144 122.674 77.7144 123.661C77.6826 124.585 76.9183 125.413 75.963 125.413Z" fill="#4E4B66"/>
<path d="M75.7719 124.553C75.6127 124.553 75.4535 124.521 75.2943 124.457C75.2306 124.425 75.1669 124.33 75.1987 124.266C75.2306 124.202 75.3261 124.139 75.3898 124.171C75.4853 124.202 75.6127 124.234 75.7401 124.234C76.1541 124.234 76.5043 123.948 76.5043 123.597C76.5043 123.247 76.1541 122.961 75.7401 122.961C75.5809 122.961 75.4216 122.992 75.2943 123.088C75.2306 123.12 75.135 123.088 75.1032 123.024C75.0714 122.961 75.1032 122.865 75.1669 122.833C75.3261 122.738 75.549 122.674 75.7401 122.674C76.3451 122.674 76.8228 123.088 76.8228 123.597C76.8546 124.107 76.377 124.553 75.7719 124.553Z" fill="#4E4B66"/>
<path d="M58.5759 125.413C57.6206 125.413 56.8563 124.616 56.8563 123.629C56.8563 122.642 57.6206 121.846 58.5759 121.846C58.7988 121.846 59.0218 121.878 59.2447 121.973C59.3084 122.005 59.3402 122.101 59.3084 122.164C59.2765 122.228 59.181 122.26 59.1173 122.228C58.9581 122.164 58.767 122.101 58.5759 122.101C57.7798 122.101 57.1429 122.769 57.1429 123.597C57.1429 124.425 57.7798 125.094 58.5759 125.094C58.7352 125.094 58.8307 125.094 58.9581 125.03C59.0536 124.999 59.1173 125.062 59.1491 125.126C59.181 125.19 59.1173 125.285 59.0536 125.317C58.8944 125.381 58.767 125.413 58.5759 125.413Z" fill="#4E4B66"/>
<path d="M58.7669 124.553C58.1619 124.553 57.6842 124.139 57.6842 123.629C57.6842 123.12 58.1619 122.706 58.7669 122.706C58.9262 122.706 59.0854 122.738 59.2128 122.801C59.2764 122.833 59.3401 122.929 59.3083 122.992C59.2764 123.056 59.1809 123.12 59.1172 123.088C59.0217 123.056 58.8943 123.024 58.7669 123.024C58.353 123.024 58.0027 123.311 58.0027 123.661C58.0027 124.011 58.353 124.298 58.7669 124.298C58.8306 124.298 58.8943 124.298 58.9898 124.266C59.0854 124.234 59.1491 124.298 59.1809 124.394C59.2128 124.489 59.1491 124.553 59.0535 124.585C58.958 124.521 58.8625 124.553 58.7669 124.553Z" fill="#4E4B66"/>
<path d="M59.9134 139.079C59.9076 139.045 59.9019 139.012 59.8963 138.98C59.8963 138.98 59.8963 138.98 59.8963 138.98L59.9134 139.079ZM74.1478 139.042L74.1568 138.979L74.1568 138.979C74.1538 139 74.1508 139.021 74.1478 139.042Z" fill="#4E4B66" stroke="#4E4B66" stroke-width="5"/>
</svg>
