<svg width="93" height="80" viewBox="0 0 93 80" fill="none" xmlns="http://www.w3.org/2000/svg">
<g clip-path="url(#clip0_1663:24428)">
<path d="M0.0871547 78.5537C-0.0751983 77.9643 0.249508 77.5892 0.736566 77.2141C7.82598 72.1237 14.9154 67.0332 21.9507 61.8892C22.8166 61.2998 23.6283 61.0855 24.2777 62.05C24.9272 63.0145 24.386 63.7111 23.5742 64.3005C16.593 69.3373 9.61186 74.3206 2.6848 79.3574C2.03539 79.8397 1.38598 80.2148 0.574214 79.7861C0.0871547 79.5718 -0.0210806 79.0895 0.0871547 78.5537Z" fill="#FF0282"/>
<path d="M4.36278 67.1402C3.76749 67.0866 3.28043 66.9258 3.00984 66.39C2.68513 65.8006 2.73925 65.1576 3.22631 64.7825C5.76984 62.9071 8.36749 61.0316 10.9651 59.2098C11.6145 58.7276 12.264 59.0491 12.751 59.6385C13.184 60.2279 13.2381 60.9245 12.6969 61.3531C10.1534 63.2821 7.5016 65.1576 4.90396 67.033C4.68749 67.1402 4.47102 67.1402 4.36278 67.1402Z" fill="#FF0282"/>
<path d="M21.7887 54.0659C21.7887 54.6017 21.5722 55.0304 21.1393 55.2983C20.0028 56.1021 18.8664 56.9058 17.784 57.7096C17.0264 58.2454 16.2687 58.3526 15.6734 57.5488C15.0781 56.7451 15.2946 55.9413 16.1064 55.3519C17.297 54.5481 18.3793 53.6372 19.624 52.8871C20.5981 52.2976 21.7887 52.9406 21.7887 54.0659Z" fill="#FF0282"/>
<path d="M89.2733 0C88.5156 0 87.8662 0.267917 87.2168 0.535834C72.8215 5.57267 58.4804 10.6631 44.0851 15.6999C31.8004 20.0402 19.4615 24.3269 7.17684 28.6671C5.55331 29.2565 4.30861 30.1139 3.87566 31.8285C3.33449 33.8647 4.09214 35.5258 6.09449 36.8118C12.1015 40.6162 18.1627 44.4206 24.278 48.2251C24.9815 48.7073 25.4686 49.1896 25.6851 50.0469C26.3886 52.7796 27.1462 55.566 27.9039 58.2987C29.2568 63.1748 30.6098 68.0509 31.9627 72.927C32.2874 74.0522 32.8286 75.0167 34.0733 75.2847C35.3721 75.6062 36.4545 75.2311 37.2662 74.1594C37.5368 73.7843 37.8615 73.4628 38.1321 73.1413C40.838 69.6048 43.5439 66.0147 46.2498 62.4782C47.3321 61.0851 47.3321 61.0851 48.9015 62.0496C53.8804 65.1574 58.8592 68.2652 63.838 71.3731C64.7039 71.9089 65.5698 72.284 66.3815 72.3376C68.8168 72.3912 70.278 71.1052 71.1439 68.3724C76.3933 52.0831 81.6427 35.7937 86.9462 19.5044C88.6239 14.3603 90.3015 9.26993 91.9251 4.12592C92.5204 1.98259 91.3298 0.0535834 89.2733 0ZM27.3086 45.2244C26.4427 45.8138 25.9015 45.921 24.9815 45.3315C19.2451 41.6343 13.5086 38.0442 7.71802 34.4005C7.06861 34.0255 6.47331 33.5968 6.58155 32.7394C6.68978 31.9357 7.28508 31.6142 8.04272 31.3463C32.558 22.7194 57.1274 14.0924 81.6427 5.46551C81.8592 5.35834 82.1298 5.30476 82.5086 5.19759C82.4004 5.89417 81.9674 6.00134 81.6427 6.21567C63.5674 19.2364 45.438 32.2036 27.3086 45.2244ZM35.2098 71.1587C35.1015 71.4802 35.1015 71.8553 34.7768 72.1768C32.6662 64.4608 30.5557 56.852 28.4451 49.1896C28.2286 48.3858 28.3368 47.9571 29.0404 47.4749C44.8427 36.1688 60.6451 24.8627 76.4474 13.5566C76.718 13.3958 76.9886 12.7528 77.4215 13.2351C77.6921 13.5566 77.1509 13.7709 76.9886 14.0388C64.758 27.2204 52.4733 40.4555 40.2427 53.637C39.7557 54.1728 39.431 54.7622 39.2145 55.4588C37.8615 60.7636 36.5086 65.9612 35.2098 71.1587ZM43.2192 61.6209C42.0286 63.1748 40.838 64.6751 39.7015 66.2291C39.6474 66.1755 39.5392 66.1219 39.4851 66.1219C40.1345 63.4427 40.7839 60.8171 41.4874 58.138C41.5957 57.7093 41.758 57.6021 42.2451 57.8165C44.951 59.1025 45.0051 59.3168 43.2192 61.6209ZM84.4027 17.6289C79.8027 31.8821 75.2027 46.1353 70.6027 60.3885C70.3862 61.0851 70.2239 61.4601 69.358 61.2994C68.8168 61.1922 68.3298 61.5673 68.0592 62.0496C67.6804 62.6926 67.3015 63.282 66.9768 63.8714C66.0027 65.5325 66.4898 66.4434 68.5462 66.497C68.4921 66.7113 68.438 66.8721 68.3839 67.0864C67.6262 69.712 67.0309 69.9263 64.758 68.5332C57.8309 64.1929 50.958 59.9062 44.031 55.566C43.7062 55.3516 43.3815 55.1373 42.9486 54.8694C57.831 38.7944 72.7133 22.8265 87.5415 6.80509C87.6498 6.85867 87.7039 6.91226 87.8121 6.96584C86.6757 10.5559 85.5392 14.0924 84.4027 17.6289Z" fill="black"/>
<path d="M50.0923 50.3147C48.9017 51.2792 48.3064 52.6723 47.8193 53.8512C47.8193 54.7621 48.1982 55.1907 48.7935 55.4051C49.3887 55.673 49.984 55.4587 50.3629 54.9764C51.0123 54.0655 51.5535 53.101 52.0946 52.1365C52.4193 51.5471 52.2029 51.0112 51.7158 50.5826C51.2287 50.1003 50.5793 49.9396 50.0923 50.3147Z" fill="#FF0282"/>
<path d="M56.3154 54.0653C55.1789 55.0298 54.6378 56.3693 54.0425 57.4946C54.0425 58.3519 54.3131 58.7806 54.9084 59.0485C55.6119 59.37 56.2072 59.1557 56.586 58.6198C57.2354 57.7089 57.7766 56.7444 58.3178 55.7799C58.6425 55.1905 58.426 54.6547 57.9389 54.226C57.4519 53.7973 56.7484 53.6902 56.3154 54.0653Z" fill="#FF0282"/>
<path d="M62.539 57.7627C61.4026 58.7272 60.8073 60.0667 60.2661 61.2992C60.3202 62.1029 60.5908 62.5852 61.2402 62.7995C61.8896 63.0138 62.4308 62.9067 62.8096 62.3708C63.459 61.4599 64.0543 60.4954 64.5414 59.5309C64.812 58.9951 64.6496 58.4057 64.1626 57.977C63.6214 57.4947 62.972 57.3876 62.539 57.7627Z" fill="#FF0282"/>
<path d="M15.2405 30.167C15.024 30.2206 14.6452 30.2742 14.4828 30.4885C13.5628 31.5066 12.8052 32.6318 12.3722 33.9714C12.2099 34.5608 12.5346 35.0967 13.1299 35.3646C13.8334 35.6861 14.4828 35.5789 14.9157 34.9359C15.511 34.0786 16.1063 33.1677 16.5393 32.2032C17.0263 31.2922 16.2687 30.2206 15.2405 30.167Z" fill="#FF0282"/>
<path d="M22.2756 34.1863C21.7344 33.8112 21.1391 33.7576 20.6521 34.2399C19.678 35.2044 19.0827 36.4368 18.5415 37.6692C18.5415 38.3658 18.758 38.8481 19.3533 39.1696C20.0027 39.4911 20.6521 39.3839 21.0309 38.8481C21.6803 37.9371 22.2756 36.9191 22.8168 35.901C23.1956 35.1508 22.8168 34.5614 22.2756 34.1863Z" fill="#FF0282"/>
<path d="M28.2284 37.7223C27.579 37.4543 26.9296 37.6151 26.5508 38.2045C25.9555 39.0619 25.4143 39.9728 24.8731 40.9373C24.5484 41.5267 24.7108 42.1697 25.252 42.5984C25.739 43.027 26.3343 43.1878 26.8755 42.7591C28.012 41.7946 28.5531 40.4014 29.2026 39.2226C29.0943 38.4724 28.8779 37.9902 28.2284 37.7223Z" fill="#FF0282"/>
</g>
<defs>
<clipPath id="clip0_1663:24428">
<rect width="92" height="80" fill="white" transform="translate(0.0332031)"/>
</clipPath>
</defs>
</svg>
