<svg width="current" height="current" viewBox="0 0 53 49" fill="none" xmlns="http://www.w3.org/2000/svg">
<path d="M7.19496 28.3707L7.08709 33.5835L5.66521 34.055L2.46423 29.9393L3.67349 29.5383L5.99722 32.6764L5.99234 28.7694L7.19496 28.3707ZM9.81969 28.5107L10.1325 29.4542L11.6541 28.9497L11.9449 29.8267L10.4233 30.3313L10.7626 31.3545L12.4835 30.7839L12.7853 31.6941L9.92826 32.6415L8.3817 27.9772L11.2387 27.0299L11.5406 27.9401L9.81969 28.5107ZM16.6135 30.4248L15.0596 28.9857L14.7872 29.0761L15.371 30.8368L14.2348 31.2135L12.6882 26.5492L14.5952 25.917C14.9628 25.7951 15.2964 25.7557 15.5959 25.799C15.8998 25.8408 16.1535 25.9534 16.3568 26.1367C16.5587 26.3156 16.7052 26.5423 16.7963 26.8169C16.8991 27.127 16.9023 27.4332 16.8059 27.7356C16.7139 28.0365 16.5143 28.2944 16.207 28.5094L17.8958 29.9996L16.6135 30.4248ZM14.5206 28.2721L15.2249 28.0386C15.4331 27.9695 15.5712 27.8672 15.6393 27.7315C15.7118 27.5944 15.7173 27.4328 15.6556 27.2468C15.5968 27.0696 15.4974 26.9477 15.3573 26.8811C15.2217 26.813 15.0497 26.8134 14.8416 26.8825L14.1373 27.116L14.5206 28.2721ZM18.8707 24.4993L20.4172 29.1636L19.281 29.5403L17.7345 24.876L18.8707 24.4993ZM23.4424 22.9834L23.7442 23.8937L21.8439 24.5238L22.17 25.5071L23.5918 25.0357L23.8849 25.9194L22.463 26.3908L23.0887 28.2778L21.9525 28.6545L20.4059 23.9903L23.4424 22.9834ZM25.8876 22.1727L27.4341 26.837L26.298 27.2137L24.7514 22.5494L25.8876 22.1727ZM28.0012 24.053C27.8485 23.5923 27.8123 23.1496 27.8926 22.7247C27.9715 22.2954 28.1551 21.9223 28.4434 21.6055C28.7346 21.2828 29.1061 21.0465 29.558 20.8967C30.1116 20.7131 30.6341 20.7021 31.1252 20.8637C31.6164 21.0254 32.0121 21.3366 32.3125 21.7975L31.0633 22.2117C30.9057 22.0477 30.7236 21.9433 30.5171 21.8987C30.315 21.8527 30.1054 21.8656 29.8883 21.9376C29.5384 22.0536 29.2953 22.2694 29.159 22.585C29.0228 22.9006 29.0222 23.2622 29.1573 23.6697C29.2924 24.0772 29.5089 24.3668 29.8067 24.5384C30.1046 24.7101 30.4285 24.7379 30.7784 24.6219C30.9954 24.5499 31.1712 24.4351 31.3058 24.2774C31.4447 24.1182 31.5284 23.9258 31.5568 23.7L32.8059 23.2859C32.8405 23.8349 32.7091 24.3209 32.4118 24.744C32.1131 25.1626 31.6868 25.4637 31.1332 25.6473C30.6813 25.7971 30.243 25.8319 29.8181 25.7515C29.3962 25.6652 29.0261 25.4758 28.7078 25.1831C28.3895 24.8904 28.154 24.5137 28.0012 24.053ZM37.3727 22.6271L35.6319 23.2043L35.626 24.1207L34.4367 24.5151L34.5778 19.2912L35.8934 18.855L39.1276 22.9597L37.925 23.3585L37.3727 22.6271ZM36.7896 21.847L35.6453 20.3311L35.6401 22.2281L36.7896 21.847ZM40.554 17.3097C41.0457 17.1466 41.5076 17.1016 41.9399 17.1746C42.3722 17.2476 42.7467 17.4283 43.0636 17.7165C43.3833 17.9989 43.6196 18.3704 43.7724 18.8311C43.9236 19.2873 43.9561 19.7264 43.8699 20.1483C43.7881 20.5688 43.5934 20.9381 43.286 21.2564C42.9829 21.5732 42.5878 21.8124 42.1005 21.974L40.3531 22.5534L38.8065 17.8891L40.554 17.3097ZM41.7014 21.0148C42.1311 20.8724 42.4266 20.6441 42.5879 20.33C42.7493 20.016 42.7587 19.6441 42.6163 19.2144C42.4738 18.7848 42.2433 18.49 41.9248 18.3301C41.6063 18.1702 41.2322 18.1615 40.8025 18.304L40.2644 18.4824L41.1632 21.1933L41.7014 21.0148ZM48.1138 20.0317C47.6753 20.1771 47.2384 20.2089 46.8032 20.1271C46.3724 20.0437 45.9883 19.8565 45.6508 19.5652C45.3163 19.268 45.0734 18.8913 44.9221 18.4351C44.7708 17.9789 44.7413 17.5339 44.8335 17.1002C44.9301 16.665 45.1262 16.2853 45.4219 15.9611C45.722 15.6354 46.0913 15.3999 46.5298 15.2545C46.9683 15.1091 47.403 15.0781 47.8337 15.1614C48.2689 15.2432 48.6509 15.4313 48.9795 15.7255C49.3125 16.0182 49.5547 16.3927 49.706 16.8489C49.8573 17.3051 49.8875 17.7523 49.7968 18.1905C49.7046 18.6242 49.5107 19.0032 49.2151 19.3273C48.9194 19.6515 48.5523 19.8863 48.1138 20.0317ZM47.7701 18.9952C48.1422 18.8719 48.3978 18.6494 48.5371 18.3279C48.6807 18.005 48.685 17.6397 48.5499 17.2322C48.4133 16.8203 48.1916 16.53 47.885 16.3612C47.5812 16.1866 47.2433 16.161 46.8713 16.2844C46.4947 16.4092 46.2339 16.6309 46.0888 16.9494C45.9481 17.2665 45.9468 17.6332 46.0848 18.0496C46.2214 18.4615 46.4416 18.7548 46.7453 18.9294C47.052 19.0981 47.3936 19.1201 47.7701 18.9952Z" fill="#FF0282"/>
<path d="M16.8649 18.3784L16.1201 18.6297L16.1197 19.0225L15.6109 19.1942L15.6595 16.9551L16.2223 16.7652L17.6177 18.517L17.1032 18.6906L16.8649 18.3784ZM16.6132 18.0454L16.1193 17.3983L16.1214 18.2114L16.6132 18.0454ZM19.2768 17.9793C19.1308 18.0285 18.9921 18.0489 18.8605 18.0406C18.7289 18.0322 18.6124 17.9934 18.511 17.9242C18.4114 17.8544 18.3377 17.7547 18.2898 17.6253L18.8071 17.4507C18.8396 17.522 18.8844 17.5702 18.9414 17.5953C18.9978 17.6185 19.061 17.6183 19.1311 17.5946C19.2031 17.5703 19.2546 17.535 19.2854 17.4888C19.3156 17.4406 19.3207 17.3871 19.3009 17.3284C19.2843 17.2791 19.2535 17.2441 19.2085 17.2234C19.1654 17.2021 19.1157 17.1893 19.0594 17.1851C19.005 17.1802 18.9288 17.1795 18.8308 17.1831C18.6885 17.1868 18.5699 17.1824 18.475 17.1702C18.38 17.1579 18.2901 17.1228 18.2051 17.0649C18.1202 17.007 18.0566 16.9156 18.0144 16.7905C17.9517 16.6048 17.9701 16.4371 18.0694 16.2875C18.1682 16.136 18.3256 16.0237 18.5416 15.9508C18.7614 15.8767 18.9565 15.8699 19.1269 15.9306C19.2966 15.9895 19.4178 16.1111 19.4906 16.2955L18.9647 16.4729C18.9392 16.4098 18.8986 16.3676 18.8428 16.3463C18.7865 16.3231 18.7242 16.323 18.6559 16.346C18.5972 16.3658 18.5553 16.3979 18.5301 16.4423C18.5044 16.4848 18.5014 16.5354 18.5212 16.5941C18.5429 16.6586 18.5902 16.6985 18.663 16.7141C18.7358 16.7296 18.8437 16.7365 18.9866 16.7347C19.1302 16.7348 19.2484 16.7413 19.3415 16.7543C19.4364 16.7666 19.526 16.8007 19.6103 16.8567C19.6947 16.9126 19.757 17.0003 19.7972 17.1197C19.8356 17.2334 19.8411 17.3466 19.8137 17.4593C19.7882 17.5713 19.7297 17.6734 19.6384 17.7654C19.547 17.8575 19.4265 17.9287 19.2768 17.9793ZM20.9516 15.603L21.0878 16.0066L21.7387 15.787L21.8654 16.1622L21.2144 16.3818L21.3621 16.8196L22.0983 16.5711L22.2298 16.9606L21.0075 17.373L20.3341 15.3776L21.5564 14.9651L21.6878 15.3545L20.9516 15.603ZM23.9847 16.3905C23.8388 16.4398 23.7 16.4602 23.5684 16.4518C23.4368 16.4435 23.3203 16.4047 23.2189 16.3355C23.1193 16.2657 23.0456 16.166 22.9977 16.0365L23.515 15.8619C23.5475 15.9333 23.5923 15.9815 23.6493 16.0066C23.7057 16.0298 23.7689 16.0296 23.839 16.0059C23.9111 15.9816 23.9625 15.9463 23.9933 15.9C24.0235 15.8518 24.0286 15.7984 24.0088 15.7396C23.9922 15.6904 23.9614 15.6554 23.9164 15.6347C23.8733 15.6133 23.8236 15.6005 23.7673 15.5963C23.7129 15.5915 23.6367 15.5908 23.5387 15.5943C23.3964 15.598 23.2778 15.5937 23.1829 15.5814C23.088 15.5691 22.998 15.534 22.9131 15.4762C22.8281 15.4183 22.7645 15.3268 22.7223 15.2018C22.6596 15.016 22.678 14.8484 22.7773 14.6987C22.8761 14.5472 23.0335 14.435 23.2495 14.3621C23.4693 14.2879 23.6644 14.2812 23.8348 14.3419C24.0045 14.4007 24.1257 14.5223 24.1985 14.7067L23.6727 14.8842C23.6471 14.8211 23.6065 14.7788 23.5507 14.7575C23.4944 14.7343 23.4321 14.7343 23.3639 14.7573C23.3051 14.7771 23.2632 14.8092 23.238 14.8536C23.2123 14.896 23.2093 14.9466 23.2291 15.0054C23.2509 15.0698 23.2981 15.1098 23.3709 15.1253C23.4437 15.1409 23.5516 15.1478 23.6945 15.146C23.8381 15.1461 23.9564 15.1526 24.0494 15.1655C24.1443 15.1778 24.2339 15.212 24.3182 15.2679C24.4026 15.3239 24.4649 15.4116 24.5052 15.531C24.5435 15.6447 24.549 15.7579 24.5216 15.8705C24.4961 15.9826 24.4376 16.0846 24.3463 16.1767C24.2549 16.2687 24.1344 16.34 23.9847 16.3905ZM26.6658 15.4857C26.4782 15.549 26.2911 15.5636 26.1044 15.5296C25.9196 15.4948 25.7545 15.4154 25.6092 15.2914C25.4652 15.1648 25.3602 15.0039 25.2943 14.8087C25.2285 14.6135 25.2148 14.4229 25.2533 14.2368C25.2937 14.0501 25.3769 13.8869 25.5029 13.7473C25.6308 13.6071 25.7885 13.5053 25.9761 13.442C26.1637 13.3787 26.3499 13.3644 26.5347 13.3991C26.7215 13.4332 26.8856 13.5129 27.0271 13.6382C27.1705 13.7629 27.2751 13.9229 27.341 14.1181C27.4068 14.3132 27.4208 14.5048 27.3829 14.6928C27.3444 14.8789 27.2622 15.0417 27.1362 15.1814C27.0102 15.321 26.8534 15.4224 26.6658 15.4857ZM26.5162 15.0423C26.6754 14.9886 26.7844 14.8927 26.8434 14.7546C26.9042 14.6158 26.9052 14.4593 26.8464 14.285C26.7869 14.1087 26.6912 13.9848 26.5594 13.9132C26.4289 13.8391 26.284 13.8288 26.1248 13.8826C25.9637 13.9369 25.8525 14.0325 25.791 14.1693C25.7314 14.3055 25.7317 14.4627 25.7918 14.6408C25.8513 14.8171 25.9463 14.9423 26.0768 15.0164C26.2087 15.088 26.3551 15.0967 26.5162 15.0423ZM29.6782 14.447L29.009 13.8338L28.8925 13.8731L29.1467 14.6264L28.6606 14.7904L27.9872 12.795L28.803 12.5197C28.9603 12.4666 29.1032 12.449 29.2316 12.4668C29.362 12.4841 29.4709 12.5317 29.5585 12.6098C29.6454 12.686 29.7087 12.7829 29.7484 12.9004C29.7931 13.033 29.7952 13.1642 29.7546 13.2941C29.7159 13.4232 29.6309 13.5342 29.4997 13.627L30.2268 14.2619L29.6782 14.447ZM28.7764 13.5292L29.0777 13.4275C29.1668 13.3974 29.2258 13.3533 29.2546 13.295C29.2854 13.236 29.2874 13.1668 29.2605 13.0872C29.2349 13.0114 29.192 12.9594 29.1319 12.9311C29.0736 12.9022 28.9999 12.9028 28.9108 12.9329L28.6095 13.0346L28.7764 13.5292Z" fill="#FF0282"/>
<path d="M19.4502 37.3058C19.4892 37.4214 19.4985 37.5365 19.4781 37.651C19.457 37.7637 19.4014 37.8679 19.3113 37.9638C19.2212 38.0596 19.0947 38.135 18.9317 38.19L18.6304 38.2917L18.8722 39.008L18.3861 39.172L17.7127 37.1766L18.5001 36.9109C18.6593 36.8572 18.8031 36.8392 18.9315 36.8571C19.06 36.875 19.168 36.9229 19.2556 37.001C19.3431 37.0791 19.408 37.1807 19.4502 37.3058ZM18.7643 37.8159C18.8572 37.7846 18.919 37.7394 18.9498 37.6805C18.9805 37.6216 18.9825 37.5523 18.9556 37.4727C18.9288 37.3931 18.8853 37.3392 18.8251 37.311C18.7649 37.2827 18.6884 37.2843 18.5955 37.3156L18.3311 37.4048L18.5 37.9051L18.7643 37.8159ZM21.8209 38.0351C21.6333 38.0984 21.4462 38.113 21.2595 38.0789C21.0747 38.0442 20.9096 37.9648 20.7643 37.8407C20.6203 37.7141 20.5153 37.5532 20.4495 37.358C20.3836 37.1629 20.3699 36.9722 20.4084 36.7861C20.4489 36.5994 20.5321 36.4362 20.658 36.2966C20.7859 36.1564 20.9436 36.0546 21.1312 35.9913C21.3189 35.928 21.5051 35.9137 21.6899 35.9484C21.8766 35.9825 22.0407 36.0622 22.1822 36.1876C22.3256 36.3123 22.4302 36.4722 22.4961 36.6674C22.5619 36.8626 22.5759 37.0542 22.5381 37.2421C22.4995 37.4282 22.4173 37.5911 22.2913 37.7307C22.1653 37.8703 22.0085 37.9717 21.8209 38.0351ZM21.6713 37.5916C21.8305 37.5379 21.9395 37.442 21.9985 37.3039C22.0593 37.1652 22.0603 37.0086 22.0015 36.8343C21.942 36.6581 21.8464 36.5341 21.7145 36.4625C21.584 36.3884 21.4391 36.3782 21.2799 36.4319C21.1189 36.4862 21.0076 36.5818 20.9461 36.7187C20.8865 36.8549 20.8868 37.012 20.9469 37.1902C21.0064 37.3664 21.1014 37.4916 21.232 37.5657C21.3638 37.6374 21.5102 37.646 21.6713 37.5916ZM24.8333 36.9963L24.1641 36.3831L24.0476 36.4224L24.3018 37.1757L23.8157 37.3397L23.1423 35.3443L23.9581 35.069C24.1154 35.0159 24.2583 34.9983 24.3868 35.0162C24.5171 35.0334 24.6261 35.0811 24.7136 35.1592C24.8006 35.2354 24.8639 35.3322 24.9035 35.4497C24.9483 35.5823 24.9503 35.7136 24.9097 35.8434C24.871 35.9725 24.786 36.0835 24.6548 36.1764L25.382 36.8112L24.8333 36.9963ZM23.9315 36.0785L24.2328 35.9768C24.3219 35.9468 24.3809 35.9026 24.4097 35.8443C24.4405 35.7854 24.4425 35.7161 24.4156 35.6365C24.39 35.5607 24.3472 35.5087 24.287 35.4804C24.2287 35.4516 24.155 35.4522 24.0659 35.4822L23.7646 35.5839L23.9315 36.0785Z" fill="#FF0282"/>
<path d="M28.7485 33.4524L29.4219 35.4479L28.9358 35.6119L28.6586 34.7904L27.9025 35.0456L28.1797 35.867L27.6936 36.0311L27.0203 34.0356L27.5063 33.8716L27.7701 34.6533L28.5262 34.3981L28.2624 33.6165L28.7485 33.4524ZM31.4338 34.7911C31.2462 34.8544 31.0591 34.869 30.8724 34.8349C30.6876 34.8002 30.5225 34.7208 30.3772 34.5967C30.2332 34.4701 30.1282 34.3092 30.0624 34.1141C29.9965 33.9189 29.9828 33.7282 30.0213 33.5421C30.0618 33.3554 30.145 33.1923 30.2709 33.0526C30.3988 32.9124 30.5565 32.8106 30.7441 32.7473C30.9318 32.684 31.118 32.6697 31.3028 32.7044C31.4895 32.7385 31.6536 32.8182 31.7951 32.9436C31.9385 33.0683 32.0431 33.2282 32.109 33.4234C32.1748 33.6186 32.1888 33.8102 32.151 33.9981C32.1124 34.1842 32.0302 34.3471 31.9042 34.4867C31.7782 34.6263 31.6214 34.7278 31.4338 34.7911ZM31.2842 34.3476C31.4434 34.2939 31.5524 34.198 31.6114 34.0599C31.6722 33.9212 31.6732 33.7646 31.6144 33.5903C31.5549 33.4141 31.4593 33.2901 31.3274 33.2185C31.1969 33.1444 31.052 33.1342 30.8928 33.1879C30.7318 33.2423 30.6205 33.3378 30.559 33.4747C30.4994 33.6109 30.4997 33.7681 30.5598 33.9462C30.6193 34.1224 30.7143 34.2476 30.8449 34.3218C30.9767 34.3934 31.1231 34.402 31.2842 34.3476ZM35.015 31.3377L35.6884 33.3331L35.2024 33.4972L34.7985 32.3005L34.7561 33.6478L34.3638 33.7802L33.5099 32.7322L33.9147 33.9317L33.4286 34.0957L32.7552 32.1003L33.3294 31.9065L34.3556 33.099L34.4437 31.5305L35.015 31.3377ZM36.5613 30.8159L37.2347 32.8114L36.7486 32.9754L36.0752 30.9799L36.5613 30.8159ZM38.9232 30.0189L39.0546 30.4083L38.2416 30.6826L38.3836 31.1033L38.9919 30.898L39.1195 31.2761L38.5112 31.4814L38.7836 32.2886L38.2975 32.4527L37.6242 30.4572L38.9232 30.0189ZM41.6005 29.1154L41.3606 30.6844L41.5831 31.3439L41.0971 31.5079L40.8745 30.8485L39.7329 29.7456L40.2844 29.5595L40.953 30.2647L41.0547 29.2995L41.6005 29.1154Z" fill="black"/>
<path d="M19.4268 2.38221C29.5509 -0.895221 40.3237 3.2532 45.8393 11.7992L47.0806 11.3974C41.3204 2.1914 29.827 -2.3117 19.0362 1.18123C8.24533 4.67417 1.57149 15.0564 2.29881 25.8922L3.54019 25.4903C3.00144 15.3348 9.30264 5.65964 19.4268 2.38221ZM32.862 43.8956C24.1588 46.7128 14.9214 43.4107 9.81221 36.3822L9.17693 36.5865C14.4163 43.945 24.0174 47.4222 33.055 44.495C42.0949 41.57 47.8371 33.1272 47.7698 24.0941L47.1345 24.2983C47.1166 32.9903 41.5651 41.0806 32.862 43.8956ZM33.5915 46.1516C23.6335 49.3752 13.047 45.4108 7.45515 37.1454L6.20479 37.5495C12.048 46.4749 23.3529 50.7917 33.9799 47.3526C44.6068 43.9135 51.238 33.7917 50.7442 23.1355L49.4938 23.5396C49.8058 33.5133 43.5518 42.9281 33.5915 46.1516ZM19.961 4.03664C10.7573 7.01551 4.97463 15.7164 5.25972 24.9336L5.88378 24.7316C5.68848 15.8556 11.2848 7.50712 20.1563 4.63601C29.0278 1.76489 38.4538 5.25108 43.4957 12.558L44.1197 12.3559C38.9499 4.71906 29.1648 1.05777 19.961 4.03664Z" fill="#FF0282"/>
<path d="M20.7669 7.68451L21.721 8.69243L23.0836 8.44101L22.4213 9.65995L23.0813 10.8789L21.7187 10.6252L20.7624 11.6309L20.5828 10.2548L19.3302 9.65546L20.5828 9.06058L20.7669 7.68451Z" fill="#FF0282"/>
<path d="M24.9041 7.29846L25.5798 8.01231L26.5473 7.83497L26.0782 8.69923L26.5473 9.56573L25.5798 9.38614L24.8996 10.0977L24.7717 9.12125L23.885 8.69698L24.7739 8.27496L24.9041 7.29846Z" fill="#FF0282"/>
<path d="M17.1864 9.79694L17.8644 10.5108L18.8319 10.3334L18.3605 11.1977L18.8296 12.062L17.8621 11.8824L17.1842 12.5962L17.0562 11.6197L16.1695 11.1955L17.0585 10.7712L17.1864 9.79694Z" fill="#FF0282"/>
<path d="M31.7373 41.5834L30.7833 40.5755L29.4184 40.8269L30.0829 39.608L29.4229 38.389L30.7855 38.6427L31.7418 37.637L31.9214 39.0131L33.1718 39.6125L31.9192 40.2073L31.7373 41.5834Z" fill="#FF0282"/>
<path d="M27.6001 41.9695L26.9222 41.2534L25.9547 41.433L26.4261 40.5687L25.9569 39.7022L26.9244 39.8818L27.6024 39.1702L27.7303 40.1445L28.6193 40.571L27.7303 40.993L27.6001 41.9695Z" fill="#FF0282"/>
<path d="M35.3156 39.471L34.6399 38.7572L33.6724 38.9345L34.1415 38.0703L33.6746 37.206L34.6421 37.3856L35.3201 36.6718L35.448 37.6482L36.3347 38.0725L35.4458 38.4968L35.3156 39.471Z" fill="#FF0282"/>
<path d="M38.6744 13.3057L9.45993 22.7603L9.65277 23.3562L38.8672 13.9015L38.6744 13.3057Z" fill="#FF0282"/>
<path d="M42.7164 25.7959L13.502 35.2505L13.6948 35.8464L42.9093 26.3918L42.7164 25.7959Z" fill="#FF0282"/>
</svg>
