<svg width="111" height="106" viewBox="0 0 111 106" fill="none" xmlns="http://www.w3.org/2000/svg">
<path d="M0 42.3625C13.241 32.0998 26.4855 21.837 39.7229 11.5671C44.2994 8.016 48.8903 4.47922 53.4201 0.867192C54.8893 -0.300984 56.1143 -0.2759 57.5799 0.863609C74.9232 14.3729 92.2845 27.8571 109.657 41.3341C110.102 41.6781 110.35 42.2873 111 42.3625C111 43.0792 111 43.7959 111 44.5125C110.098 45.5266 108.952 45.7201 107.638 45.6951C104.358 45.627 101.078 45.6736 97.8488 45.6736C97.4609 46.4906 97.6153 47.218 97.6153 47.9203C97.6046 66.0736 97.6082 84.2269 97.6082 102.38C97.6082 105.487 97.0945 105.996 93.9405 105.996C84.8414 105.999 75.7422 105.996 66.6431 105.996C66.1043 105.996 65.5618 106.017 65.0302 105.942C63.8879 105.777 63.1658 105.139 63.1012 103.946C63.0293 102.678 63.7118 101.914 64.9081 101.653C65.4828 101.527 66.0971 101.563 66.6934 101.56C74.8334 101.556 82.977 101.56 91.117 101.549C91.7564 101.549 92.4246 101.707 93.1897 101.323C93.1897 100.675 93.1897 99.9722 93.1897 99.2699C93.1897 81.1775 93.1897 63.0815 93.1897 44.9891C93.1897 41.7569 93.6567 41.2983 96.9508 41.2983C98.5601 41.2983 100.173 41.2983 101.991 40.9686C86.5297 28.9536 71.0687 16.935 55.5072 4.84114C39.9816 16.9063 24.5062 28.9321 8.59262 41.2983C9.86068 41.2983 10.554 41.3018 11.2473 41.2983C18.3168 41.2374 17.8247 40.9256 17.8175 47.9311C17.8031 65.0094 17.8139 82.0877 17.8139 99.166C17.8139 99.8791 17.8139 100.596 17.8139 101.28C18.4677 101.76 19.1466 101.545 19.7824 101.549C28.102 101.567 36.4252 101.556 44.7449 101.567C45.3986 101.567 46.0776 101.553 46.699 101.725C47.7983 102.029 48.4269 102.839 48.3263 103.986C48.2365 105.036 47.5827 105.734 46.5086 105.913C45.9806 106.003 45.4382 105.996 44.8993 105.996C35.5595 105.999 26.2233 106.003 16.8835 105.996C13.963 105.996 13.399 105.433 13.399 102.563C13.3954 84.3488 13.399 66.1381 13.3918 47.9239C13.3918 47.2216 13.5427 46.4941 13.1583 45.6736C9.87146 45.6736 6.53068 45.6306 3.1935 45.6951C1.92903 45.7201 0.865728 45.4585 0.0107767 44.5125C-1.00366e-08 43.7959 0 43.0792 0 42.3625Z" fill="#4E4B66"/>
<path d="M55.5064 69.9977C50.6736 69.9977 45.8409 70.0048 41.0081 69.9941C38.6978 69.9906 38.0115 69.3342 38.008 67.0885C37.9973 57.339 37.9973 47.586 38.008 37.8365C38.0115 35.7539 38.6943 35.0195 40.7357 35.016C50.5781 34.9947 60.417 34.9947 70.2594 35.016C72.3079 35.0195 72.9907 35.7468 72.9907 37.833C73.0048 47.5824 73.0013 57.3354 72.9907 67.0849C72.9871 69.3342 72.3043 69.987 69.9976 69.9906C65.1719 70.0048 60.3392 69.9977 55.5064 69.9977ZM42.4056 50.3462C46.1593 50.3462 49.7325 50.3462 53.3483 50.3462C53.3483 46.6529 53.3483 43.0447 53.3483 39.4295C49.637 39.4295 46.0673 39.4295 42.4056 39.4295C42.4056 43.0873 42.4056 46.66 42.4056 50.3462ZM68.5895 50.3639C68.5895 46.621 68.5895 43.0483 68.5895 39.465C64.8747 39.465 61.259 39.465 57.6256 39.465C57.6256 43.1618 57.6256 46.7309 57.6256 50.3639C61.305 50.3639 64.8818 50.3639 68.5895 50.3639ZM42.4268 54.6391C42.4268 58.4317 42.4268 62.0079 42.4268 65.5522C46.1593 65.5522 49.7785 65.5522 53.373 65.5522C53.373 61.8447 53.373 58.2685 53.373 54.6391C49.683 54.6391 46.1027 54.6391 42.4268 54.6391ZM57.5831 65.5629C61.3475 65.5629 64.9667 65.5629 68.5895 65.5629C68.5895 61.866 68.5895 58.2898 68.5895 54.7029C64.8712 54.7029 61.2555 54.7029 57.5831 54.7029C57.5831 58.3643 57.5831 61.8944 57.5831 65.5629Z" fill="#2A193B"/>
<path d="M53 53.0288C53.1793 51.7126 53.9098 50.9491 55.0919 51.0026C56.2507 51.0529 57.0476 51.7964 56.9978 53.0791C56.9447 54.3417 56.1909 55.0416 54.9624 54.9981C53.7338 54.9545 53.1029 54.1742 53 53.0288Z" fill="#2A193B"/>
</svg>
