<svg width="117" height="99" viewBox="0 0 117 99" fill="none" xmlns="http://www.w3.org/2000/svg">
<path d="M94.0793 41.4132C92.1497 27.4565 87.2429 11.961 78.6173 8.37438C69.9512 4.82126 57.6069 13.1436 46.3076 22.5645C35.0083 31.9854 24.7135 42.5385 26.2501 52.9698C27.7091 63.3898 40.9622 73.6432 54.1911 78.1789C67.4604 82.6811 80.6277 81.4543 87.7944 74.621C94.961 67.7876 96.0088 55.3698 94.0793 41.4132Z" fill="#F7F7FC"/>
<path d="M76.8328 73.5684C75.9622 75.4545 75.182 77.4199 74.4205 79.3695C74.331 79.5987 74.2417 79.8277 74.1526 80.0563C73.4818 81.7771 72.8191 83.4769 72.1097 85.1079C70.4997 88.8094 68.6772 92.0864 66.0689 94.3398C60.9075 98.7919 52.4152 99.2455 44.7101 97.6839L44.7069 97.6833C37.0421 96.1817 30.2429 92.6581 23.4375 88.8374L23.4364 88.8367C16.6796 85.0662 10.1202 80.9754 5.89753 75.1577C1.67882 69.2929 -0.225913 61.6214 0.751411 54.5245L0.751927 54.5205C1.67854 47.3664 5.49305 40.8019 9.57866 34.4652C13.6584 28.1376 17.8691 22.1662 23.6265 17.136L23.6284 17.1344C29.4053 12.035 36.5667 7.94203 43.6628 7.99237C47.2038 8.04367 50.7435 9.15252 54.2828 10.8116C57.8239 12.4716 61.3327 14.6665 64.8186 16.8677C71.8521 21.3284 78.5118 25.6741 82.6328 31.8024C86.6966 37.9238 88.2366 45.8464 86.6452 52.8268C85.8495 56.3171 84.2671 59.592 82.4385 62.9613C81.9631 63.8372 81.4702 64.7207 80.971 65.6158C79.5597 68.1459 78.0973 70.7678 76.8328 73.5684ZM76.8328 73.5684C76.8331 73.5677 76.8335 73.567 76.8338 73.5663L77.2877 73.7758L76.832 73.5701C76.8323 73.5695 76.8325 73.5689 76.8328 73.5684Z" stroke="#D6D8E7"/>
<path d="M38.3301 42.7152L52.0199 33.8451L65.8122 42.7152V61.6348L38.3301 62.3013V42.7152Z" fill="white"/>
<path d="M70.0898 45.452C69.5853 46.1206 69.2776 46.1719 68.566 45.6992C68.0112 45.331 67.4575 44.9608 66.8227 44.5384C66.8227 44.807 66.8227 44.9906 66.8227 45.1731C66.8227 50.7823 66.8227 56.3915 66.8227 62.0007C66.8227 62.9493 66.5807 63.1903 65.6332 63.1913C60.2157 63.1913 54.7983 63.1913 49.3808 63.1913C49.2086 63.1913 49.0363 63.1913 48.8373 63.1913C48.8373 62.6437 48.8373 62.1402 48.8373 61.5731C51.2656 61.5731 53.698 61.5731 56.156 61.5731C56.156 57.1873 56.156 52.8619 56.156 48.4976C53.4662 48.4976 50.7765 48.4976 48.0242 48.4976C48.0242 50.6418 48.0242 52.7881 48.0242 54.9754C47.4489 54.9754 46.9351 54.9754 46.3619 54.9754C46.3619 54.8021 46.3619 54.6472 46.3619 54.4914C46.3619 52.3184 46.3609 50.1445 46.3629 47.9716C46.364 47.0538 46.6049 46.82 47.5391 46.819C50.5755 46.8179 53.6118 46.8179 56.6482 46.819C57.569 46.819 57.8152 47.0651 57.8152 47.9818C57.8152 52.2969 57.8152 56.611 57.8152 60.9261C57.8152 61.1158 57.8152 61.3045 57.8152 61.526C60.268 61.526 62.6891 61.526 65.1861 61.526C65.1861 61.365 65.1861 61.1968 65.1861 61.0286C65.1861 55.324 65.183 49.6184 65.1943 43.9138C65.1953 43.5703 65.0907 43.3714 64.8036 43.1817C60.6782 40.4458 56.56 37.6996 52.448 34.9442C52.1844 34.7679 52.0111 34.7556 51.7404 34.9371C47.616 37.7037 43.4845 40.4591 39.3478 43.2063C39.0884 43.3786 38.9879 43.558 38.9981 43.8657C39.0207 44.564 39.0053 45.2623 39.0053 45.9883C38.4465 45.9883 37.944 45.9883 37.3923 45.9883C37.3923 45.5392 37.3923 45.0993 37.3923 44.5794C37.219 44.6655 37.1082 44.7076 37.0129 44.7701C36.4653 45.129 35.931 45.5095 35.3732 45.8509C34.7712 46.2191 34.116 45.8919 34.1037 45.1936C34.077 43.5642 34.0955 41.9337 34.0944 40.3043C34.0944 39.8787 34.3682 39.6531 34.6861 39.4419C38.0629 37.1951 41.4377 34.9442 44.8125 32.6954C46.9782 31.2516 49.144 29.8078 51.3107 28.3649C52.0367 27.8809 52.1434 27.8799 52.854 28.3526C55.0198 29.7955 57.1855 31.2393 59.4046 32.718C59.4231 32.5621 59.4467 32.4493 59.4477 32.3355C59.4508 31.4885 59.4446 30.6414 59.4508 29.7944C59.4559 29.1422 59.7399 28.8397 60.3767 28.8377C62.2143 28.8295 64.0519 28.8295 65.8896 28.8377C66.5407 28.8408 66.8186 29.1484 66.8196 29.8406C66.8227 32.3017 66.8268 34.7627 66.8135 37.2238C66.8114 37.5479 66.9047 37.7427 67.1847 37.917C67.9158 38.3723 68.6316 38.8563 69.3392 39.3475C69.6078 39.5342 69.8396 39.7731 70.0877 39.9884C70.0898 41.8086 70.0898 43.6308 70.0898 45.452ZM68.4563 43.6513C68.4563 42.752 68.4388 41.9532 68.4645 41.1564C68.4747 40.8283 68.3609 40.6416 68.0922 40.4632C62.8922 37.0074 57.6972 33.5465 52.5095 30.0733C52.1988 29.8652 51.9988 29.8529 51.6799 30.0672C46.5998 33.4717 41.5146 36.868 36.412 40.2386C35.8982 40.5781 35.6593 40.9144 35.7167 41.5369C35.7782 42.2055 35.73 42.8843 35.73 43.6411C36.0141 43.4596 36.2017 43.3437 36.3853 43.2217C41.3546 39.9095 46.3229 36.5962 51.2912 33.283C52.0337 32.7877 52.1465 32.7877 52.8745 33.2728C57.8828 36.6116 62.8922 39.9505 67.9005 43.2894C68.0574 43.3939 68.2153 43.4944 68.4563 43.6513ZM65.1605 36.5501C65.1605 34.4746 65.1605 32.4996 65.1605 30.4969C63.8007 30.4969 62.4687 30.4969 61.0843 30.4969C61.0843 31.1244 61.1551 31.7377 61.0689 32.3283C60.9059 33.4461 61.2966 34.1526 62.3097 34.6827C63.29 35.1965 64.174 35.8938 65.1605 36.5501Z" fill="#4E4B66"/>
<path d="M22.7222 76.999C21.7326 76.5283 21.0682 75.8105 21.0046 74.6671C20.9595 73.8519 21.2476 73.1341 21.8772 72.6285C22.4997 72.1281 22.6586 71.5405 22.6474 70.7642C22.6033 67.7925 22.6289 64.8197 22.6299 61.8479C22.632 57.2068 25.4704 53.6874 30.0009 52.7061C30.0931 52.6856 30.1844 52.6579 30.3157 52.623C30.2531 52.4784 30.2049 52.3502 30.1444 52.2282C29.604 51.1433 29.0544 50.0614 28.5211 48.9724C28.1509 48.2177 28.4975 47.6537 29.3302 47.6526C33.0536 47.6485 36.777 47.6485 40.4994 47.6526C41.2982 47.6537 41.6592 48.2248 41.3085 48.9437C40.7137 50.1599 40.0985 51.3668 39.4719 52.6158C39.7847 52.6897 40.0595 52.7522 40.3323 52.8199C44.3243 53.8074 47.1464 57.3616 47.171 61.4726C47.1905 64.7807 47.1802 68.0878 47.1689 71.3959C47.1679 71.7282 47.2489 71.9753 47.5053 72.1855C47.6899 72.3363 47.8488 72.5188 48.016 72.6911C49.346 74.058 48.9696 76.0884 47.2366 76.9016C47.1802 76.9282 47.13 76.9662 47.0777 77C38.9592 76.999 30.8407 76.999 22.7222 76.999ZM30.5351 49.3046C30.6171 49.482 30.6797 49.6246 30.7484 49.763C31.2611 50.7905 31.781 51.8149 32.2866 52.8455C32.6547 53.5962 32.3173 54.1437 31.4929 54.1899C31.0796 54.2124 30.6623 54.2432 30.2572 54.3252C26.7122 55.042 24.2768 58.0046 24.2665 61.6203C24.2563 65.0392 24.2573 68.457 24.2727 71.8758C24.2747 72.3455 24.1445 72.7054 23.7928 73.0141C23.4821 73.2879 23.197 73.5924 22.9109 73.8939C22.6494 74.1698 22.552 74.4917 22.6966 74.8619C22.8473 75.2455 23.1375 75.4341 23.5395 75.4618C23.6513 75.469 23.763 75.4649 23.8748 75.4649C31.2232 75.4649 38.5705 75.4649 45.9189 75.4649C46.0307 75.4649 46.1425 75.468 46.2542 75.4629C46.6572 75.4413 46.9536 75.2567 47.1074 74.8753C47.2541 74.5112 47.171 74.181 46.9085 73.9031C46.6121 73.5894 46.3147 73.2756 45.9938 72.9884C45.6585 72.688 45.5344 72.3393 45.5354 71.8892C45.5487 68.4385 45.5559 64.9879 45.5385 61.5383C45.519 57.538 42.3791 54.3283 38.3788 54.1878C37.4774 54.156 37.1452 53.6187 37.541 52.8178C38.0496 51.7883 38.5685 50.7628 39.0812 49.7353C39.1468 49.6041 39.2022 49.4687 39.275 49.3057C36.3289 49.3046 33.4587 49.3046 30.5351 49.3046Z" fill="#4E4B66"/>
<path d="M52.9422 57.4211C52.9422 56.3454 52.9422 55.2881 52.9422 54.2073C53.4724 54.2073 53.9759 54.2073 54.5142 54.2073C54.5142 55.2738 54.5142 56.331 54.5142 57.4211C53.9943 57.4211 53.4806 57.4211 52.9422 57.4211Z" fill="#FF0282"/>
<path d="M57.0204 66.4317C57.0204 65.9005 57.0204 65.3981 57.0204 64.8587C57.5475 64.8587 58.0613 64.8587 58.6068 64.8587C58.6068 65.3724 58.6068 65.8893 58.6068 66.4317C58.0838 66.4317 57.5824 66.4317 57.0204 66.4317Z" fill="#FF0282"/>
<path d="M57.0225 69.6916C57.0225 69.1727 57.0225 68.6692 57.0225 68.1278C57.5403 68.1278 58.0418 68.1278 58.5904 68.1278C58.5904 68.6272 58.5904 69.1409 58.5904 69.6916C58.0808 69.6916 57.566 69.6916 57.0225 69.6916Z" fill="#FF0282"/>
<path d="M58.5709 72.971C58.0531 72.971 57.5496 72.971 57.0215 72.971C57.0215 72.4388 57.0215 71.9353 57.0215 71.3979C57.5301 71.3979 58.0172 71.3979 58.5709 71.3979C58.5709 71.8932 58.5709 72.4121 58.5709 72.971Z" fill="#FF0282"/>
<path d="M50.4709 72.9689C50.4709 72.4378 50.4709 71.9343 50.4709 71.3979C50.9908 71.3979 51.4933 71.3979 52.0388 71.3979C52.0388 71.9086 52.0388 72.4224 52.0388 72.9689C51.524 72.9689 51.0103 72.9689 50.4709 72.9689Z" fill="#FF0282"/>
<path d="M53.7503 71.3898C54.2856 71.3898 54.787 71.3898 55.3223 71.3898C55.3223 71.9158 55.3223 72.4173 55.3223 72.9608C54.8126 72.9608 54.2989 72.9608 53.7503 72.9608C53.7503 72.4552 53.7503 71.9527 53.7503 71.3898Z" fill="#FF0282"/>
<path d="M68.4563 43.6513C68.2153 43.4944 68.0563 43.3939 67.9005 43.2893C62.8911 39.9505 57.8828 36.6116 52.8745 33.2727C52.1465 32.7867 52.0337 32.7877 51.2912 33.283C46.3229 36.5962 41.3536 39.9084 36.3853 43.2216C36.2017 43.3437 36.0141 43.4596 35.73 43.6411C35.73 42.8833 35.7772 42.2054 35.7167 41.5368C35.6593 40.9134 35.8982 40.578 36.412 40.2386C41.5146 36.869 46.5998 33.4717 51.6799 30.0672C51.9998 29.8529 52.1998 29.8652 52.5095 30.0733C57.6972 33.5465 62.8932 37.0084 68.0932 40.4632C68.3619 40.6416 68.4757 40.8282 68.4655 41.1564C68.4398 41.9532 68.4563 42.752 68.4563 43.6513Z" fill="white"/>
<path d="M67.5731 41.4005C67.266 41.7272 67.0438 42.352 66.6062 42.2041C66.4756 42.1444 66.4691 41.8821 66.6194 41.6913C66.9199 41.3098 67.1683 40.6969 67.5993 40.79C67.8018 40.8306 67.7364 41.112 67.5731 41.4005Z" fill="#FF0282"/>
<path d="M66.4834 40.5716C66.1763 40.8983 65.9541 41.5231 65.5165 41.3752C65.3859 41.3155 65.3794 41.0532 65.5297 40.8624C65.8302 40.4808 66.0785 39.868 66.5096 39.9611C66.7121 40.0016 66.6467 40.2831 66.4834 40.5716Z" fill="#FF0282"/>
<path d="M65.385 39.7163C65.0779 40.043 64.8557 40.6678 64.4181 40.5199C64.2875 40.4602 64.281 40.1979 64.4313 40.0071C64.7318 39.6255 64.9801 39.0127 65.4112 39.1058C65.6137 39.1463 65.5483 39.4278 65.385 39.7163Z" fill="#FF0282"/>
<path d="M55.067 32.8363C54.7599 33.1629 54.5377 33.7878 54.1001 33.6398C53.9695 33.5802 53.963 33.3178 54.1133 33.127C54.4138 32.7455 54.6622 32.1326 55.0932 32.2257C55.2957 32.2663 55.2303 32.5477 55.067 32.8363Z" fill="#FF0282"/>
<path d="M56.1857 33.6258C55.8786 33.9525 55.6564 34.5773 55.2188 34.4293C55.0882 34.3697 55.0817 34.1073 55.232 33.9166C55.5325 33.535 55.7808 32.9221 56.2119 33.0152C56.4144 33.0558 56.349 33.3372 56.1857 33.6258Z" fill="#FF0282"/>
<path d="M57.2741 34.4349C56.9671 34.7616 56.7449 35.3864 56.3073 35.2385C56.1767 35.1788 56.1702 34.9165 56.3204 34.7257C56.621 34.3442 56.8693 33.7313 57.3004 33.8244C57.5028 33.865 57.4375 34.1464 57.2741 34.4349Z" fill="#FF0282"/>
<path d="M58.4966 35.2251C58.1896 35.5518 57.9674 36.1766 57.5298 36.0287C57.3992 35.969 57.3927 35.7067 57.543 35.5159C57.8435 35.1344 58.0918 34.5215 58.5229 34.6146C58.7254 34.6552 58.66 34.9366 58.4966 35.2251Z" fill="#FF0282"/>
<path d="M59.9509 36.3142C59.6438 36.6409 59.4216 37.2657 58.984 37.1178C58.8534 37.0581 58.6174 36.4774 58.7677 36.2867C59.0682 35.9051 59.3165 35.2922 59.7476 35.3853C59.9501 35.4259 60.1142 36.0257 59.9509 36.3142Z" fill="#FF0282"/>
<path d="M61.1104 36.9099C60.8033 37.2365 60.5811 37.8614 60.1435 37.7134C60.0129 37.6538 60.0064 37.3914 60.1567 37.2006C60.4572 36.8191 60.7055 36.2062 61.1366 36.2993C61.3391 36.3399 61.2737 36.6213 61.1104 36.9099Z" fill="#FF0282"/>
<path d="M62.1305 37.6668C61.8235 37.9935 61.6013 38.6184 61.1637 38.4704C61.0331 38.4107 61.0266 38.1484 61.1768 37.9576C61.4774 37.5761 61.7257 36.9632 62.1567 37.0563C62.3592 37.0969 62.2939 37.3783 62.1305 37.6668Z" fill="#FF0282"/>
<path d="M63.1497 38.4084C62.8426 38.7351 62.6204 39.3599 62.1829 39.212C62.0522 39.1523 62.0458 38.89 62.196 38.6992C62.4965 38.3177 62.7449 37.7048 63.1759 37.7979C63.3784 37.8385 63.313 38.1199 63.1497 38.4084Z" fill="#FF0282"/>
<path d="M64.2799 39.1557C63.9729 39.4824 63.7507 40.1072 63.3131 39.9593C63.1825 39.8996 63.176 39.6373 63.3262 39.4465C63.6268 39.0649 63.8751 38.4521 64.3061 38.5451C64.5086 38.5857 64.4432 38.8671 64.2799 39.1557Z" fill="#FF0282"/>
<path d="M65.1605 36.5501C64.174 35.8938 63.2901 35.1965 62.3097 34.6838C61.2966 34.1536 60.9059 33.4471 61.0689 32.3293C61.1551 31.7387 61.0843 31.1255 61.0843 30.4979C62.4687 30.4979 63.8018 30.4979 65.1605 30.4979C65.1605 32.5006 65.1605 34.4756 65.1605 36.5501Z" fill="white"/>
<path d="M30.5351 49.3046C33.4587 49.3046 36.3289 49.3046 39.276 49.3046C39.2032 49.4666 39.1468 49.603 39.0822 49.7343C38.5695 50.7618 38.0506 51.7872 37.542 52.8168C37.1462 53.6177 37.4794 54.155 38.3798 54.1868C42.379 54.3273 45.519 57.5369 45.5395 61.5372C45.5569 64.9879 45.5487 68.4385 45.5364 71.8881C45.5344 72.3393 45.6595 72.688 45.9948 72.9874C46.3158 73.2745 46.6131 73.5883 46.9095 73.9021C47.172 74.18 47.254 74.5092 47.1084 74.8742C46.9556 75.2557 46.6593 75.4403 46.2553 75.4618C46.1435 75.468 46.0317 75.4639 45.9199 75.4639C38.5716 75.4639 31.2242 75.4639 23.8758 75.4639C23.7641 75.4639 23.6523 75.468 23.5405 75.4608C23.1385 75.4331 22.8473 75.2444 22.6976 74.8609C22.552 74.4907 22.6504 74.1687 22.9119 73.8929C23.197 73.5914 23.4821 73.2868 23.7938 73.013C24.1445 72.7044 24.2758 72.3444 24.2737 71.8748C24.2593 68.4559 24.2583 65.0381 24.2675 61.6193C24.2778 58.0035 26.7132 55.041 30.2582 54.3242C30.6633 54.2422 31.0806 54.2114 31.4939 54.1888C32.3194 54.1437 32.6557 53.5951 32.2876 52.8445C31.782 51.8139 31.2621 50.7895 30.7494 49.762C30.6787 49.6246 30.6171 49.4831 30.5351 49.3046ZM38.1429 61.5577C38.1429 60.9753 38.1429 60.4708 38.1429 59.9242C37.7358 59.9242 37.3554 59.9242 36.976 59.9242C36.5801 59.9242 36.1843 59.9242 35.727 59.9242C35.727 59.3592 35.727 58.8413 35.727 58.3153C35.1578 58.3153 34.6523 58.3153 34.0862 58.3153C34.0862 58.8567 34.0862 59.3756 34.0862 59.8422C33.5663 59.9396 33.0956 59.9693 32.667 60.12C31.4436 60.5497 30.6899 61.7956 30.8356 63.06C30.9914 64.4157 31.9748 65.475 33.2997 65.596C34.2031 65.679 35.1189 65.6349 36.0284 65.6544C36.8201 65.6708 37.3523 66.1589 37.3595 66.8614C37.3666 67.5802 36.818 68.0868 36.0028 68.0919C34.7251 68.0991 33.4464 68.094 32.1676 68.094C31.9994 68.094 31.8302 68.094 31.6621 68.094C31.6621 68.6723 31.6621 69.1779 31.6621 69.7429C32.4732 69.7429 33.2607 69.7429 34.0975 69.7429C34.0975 70.3069 34.0975 70.8104 34.0975 71.3251C34.6646 71.3251 35.1773 71.3251 35.7444 71.3251C35.7444 70.7817 35.7444 70.2792 35.7444 69.7531C35.9526 69.7408 36.1094 69.7295 36.2653 69.7224C37.987 69.6444 39.234 68.1001 38.9469 66.3999C38.711 65.0043 37.5963 64.0537 36.1279 64.0168C35.2819 63.9952 34.4328 64.0301 33.5889 63.9839C32.8926 63.945 32.4394 63.4015 32.4609 62.739C32.4824 62.0807 32.9828 61.5885 33.6699 61.5618C33.9734 61.5506 34.277 61.5577 34.5805 61.5577C35.7587 61.5577 36.938 61.5577 38.1429 61.5577Z" fill="white"/>
<path d="M38.1429 61.5578C36.937 61.5578 35.7588 61.5578 34.5805 61.5578C34.277 61.5578 33.9735 61.5496 33.6699 61.5619C32.9829 61.5885 32.4824 62.0807 32.4609 62.7391C32.4394 63.4015 32.8926 63.945 33.5889 63.984C34.4329 64.0312 35.2819 63.9953 36.1279 64.0168C37.5974 64.0537 38.711 65.0033 38.9469 66.3999C39.234 68.1001 37.9871 69.6445 36.2653 69.7224C36.1084 69.7296 35.9526 69.7409 35.7444 69.7532C35.7444 70.2792 35.7444 70.7827 35.7444 71.3252C35.1773 71.3252 34.6646 71.3252 34.0975 71.3252C34.0975 70.8104 34.0975 70.3069 34.0975 69.7429C33.2608 69.7429 32.4732 69.7429 31.6621 69.7429C31.6621 69.1769 31.6621 68.6723 31.6621 68.094C31.8313 68.094 31.9995 68.094 32.1676 68.094C33.4464 68.094 34.7241 68.0991 36.0028 68.0919C36.8181 68.0868 37.3667 67.5802 37.3595 66.8614C37.3523 66.159 36.8201 65.6708 36.0285 65.6544C35.1189 65.635 34.2032 65.678 33.2997 65.596C31.9749 65.475 30.9904 64.4157 30.8356 63.06C30.69 61.7957 31.4437 60.5497 32.667 60.1201C33.0946 59.9693 33.5653 59.9396 34.0863 59.8422C34.0863 59.3756 34.0863 58.8567 34.0863 58.3153C34.6533 58.3153 35.1589 58.3153 35.727 58.3153C35.727 58.8413 35.727 59.3592 35.727 59.9242C36.1843 59.9242 36.5801 59.9242 36.976 59.9242C37.3564 59.9242 37.7358 59.9242 38.1429 59.9242C38.1429 60.4708 38.1429 60.9753 38.1429 61.5578Z" fill="#FF0282"/>
</svg>
