<svg width="282" height="240" viewBox="0 0 282 240" fill="none" xmlns="http://www.w3.org/2000/svg">
<path d="M228.089 101.586C223.366 67.4284 211.357 29.5044 190.247 20.7264C169.037 12.0305 138.826 32.3986 111.172 55.4555C83.5177 78.5125 58.3221 104.34 62.0827 129.87C65.6534 155.372 98.0894 180.466 130.466 191.567C162.941 202.586 195.167 199.583 212.707 182.859C230.247 166.135 232.811 135.744 228.089 101.586Z" fill="#F7F7FC"/>
<path d="M103.741 233.591L103.737 233.59C85.8171 230.079 69.9404 221.845 54.1269 212.967L54.1258 212.966C38.4305 204.208 23.0711 194.644 13.1664 180.998C3.26519 167.235 -1.2037 149.24 1.09025 132.583L1.09077 132.579C3.26467 115.795 12.2069 100.432 21.6974 85.7119C31.1821 71.0014 41.0056 57.0629 54.4545 45.3126L54.4564 45.3109C67.9249 33.4221 84.7181 23.7868 101.446 23.9064C109.803 24.027 118.124 26.6426 126.392 30.5187C134.663 34.3956 142.849 39.5176 150.943 44.6285C167.261 54.9777 182.859 65.1427 192.524 79.5148C202.062 93.8806 205.682 112.473 201.942 128.876C200.072 137.077 196.359 144.751 192.105 152.589C190.993 154.638 189.844 156.699 188.681 158.783C185.406 164.655 182.028 170.711 179.103 177.19C177.089 181.553 175.282 186.104 173.512 190.634C173.304 191.167 173.097 191.699 172.89 192.23C171.332 196.226 169.788 200.188 168.134 203.989C164.385 212.61 160.102 220.338 153.925 225.674C141.696 236.223 121.701 237.231 103.741 233.591Z" stroke="#D6D8E7"/>
<path d="M99.349 178.997C97.4609 178.734 95.5622 178.538 93.6897 178.196C80.3706 175.754 69.5247 169.11 61.0005 158.674C54.2731 150.437 50.2617 140.991 49.2484 130.385C48.0653 117.999 51.1261 106.615 58.0599 96.3459C65.7928 84.8915 76.3148 77.0802 89.7723 73.7087C107.265 69.3264 122.934 73.4841 136.669 84.9098C146.083 92.7419 152.129 102.778 154.788 114.771C155.268 116.936 155.451 119.166 155.775 121.365C155.825 121.704 155.903 122.041 155.968 122.381C155.968 124.47 155.968 126.559 155.968 128.649C155.882 129.333 155.791 130.02 155.712 130.704C154.529 141.176 150.625 150.528 143.965 158.677C135.439 169.11 124.595 175.754 111.276 178.198C109.404 178.54 107.505 178.736 105.617 179C103.528 178.997 101.438 178.997 99.349 178.997ZM102.519 174.819C129.228 174.785 151.8 152.192 151.79 125.502C151.779 98.8008 129.199 76.221 102.499 76.2054C75.7716 76.1923 53.1161 98.8687 53.1762 125.575C53.2363 152.297 75.8395 174.853 102.519 174.819Z" fill="black"/>
<path d="M57.9268 124.854C58.2323 116.283 61.1651 108.612 65.785 101.509C66.5267 100.368 67.7698 100.067 68.7648 100.702C69.7651 101.342 69.9583 102.507 69.3002 103.744C67.8194 106.536 66.148 109.247 64.9258 112.149C61.6248 119.968 61.3479 128.011 63.6853 136.152C65.7589 143.375 69.577 149.546 75.0405 154.696C79.9633 159.34 85.6696 162.594 92.2064 164.401C99.1924 166.334 106.158 166.295 113.112 164.31C120.338 162.247 126.507 158.423 131.66 152.962C136.303 148.042 139.56 142.336 141.37 135.799C143.313 128.779 143.266 121.78 141.255 114.794C139.186 107.607 135.376 101.47 129.944 96.3432C124.755 91.4465 118.711 88.1063 111.775 86.3617C103.726 84.3351 95.894 84.9567 88.3126 88.2865C85.9334 89.3311 83.6953 90.6944 81.3945 91.9166C81.0576 92.0968 80.7442 92.3266 80.3995 92.4859C79.3157 92.9899 78.2188 92.6922 77.6573 91.7651C77.101 90.851 77.3178 89.6811 78.2632 88.9864C79.0467 88.4118 79.8902 87.9156 80.7285 87.422C87.8947 83.2148 95.5597 80.7599 103.948 81.0445C112.856 81.3475 120.913 84.2202 128.129 89.4199C136.076 95.1471 141.704 102.655 144.765 111.963C148.332 122.812 147.677 133.483 142.845 143.856C138.703 152.751 132.297 159.591 123.773 164.391C116.186 168.661 108.014 170.57 99.2995 169.865C86.7038 168.846 76.422 163.255 68.3496 153.686C62.3691 146.595 58.8852 138.345 58.1592 129.022C58.0495 127.635 58.0025 126.243 57.9268 124.854Z" fill="#FF0083"/>
<path d="M96.1729 128.322C96.5411 127.969 96.8206 127.714 97.0869 127.447C103.067 121.467 109.043 115.481 115.031 109.508C118.087 106.463 121.923 105.886 125.509 107.889C129.766 110.268 130.951 116.298 127.906 120.103C127.559 120.537 127.196 120.963 126.802 121.354C118.708 129.455 110.615 137.557 102.511 145.647C99.4113 148.742 95.5644 149.34 91.9578 147.28C91.3597 146.937 90.793 146.507 90.3047 146.021C86.1287 141.876 81.9215 137.766 77.8317 133.537C74.1233 129.704 74.5777 124.149 78.7223 120.905C81.9737 118.361 86.6119 118.779 89.8241 121.942C91.9343 124.018 94 126.134 96.1729 128.322ZM96.2173 134.175C95.9013 133.877 95.6218 133.626 95.3555 133.362C92.4984 130.511 89.6674 127.633 86.779 124.809C84.4782 122.561 81.0675 123.154 79.8505 125.959C79.1192 127.646 79.5188 129.346 81.0492 130.881C84.9326 134.775 88.8239 138.659 92.7151 142.545C95.11 144.937 97.3298 144.924 99.7481 142.508C107.724 134.535 115.697 126.562 123.668 118.586C123.963 118.291 124.258 117.993 124.519 117.669C126.407 115.303 125.305 111.885 122.396 111.065C120.57 110.55 119.163 111.266 117.899 112.535C110.968 119.484 104.021 126.418 97.0791 133.357C96.8153 133.621 96.5359 133.872 96.2173 134.175Z" fill="black"/>
<path d="M73.0137 98.1271C71.9195 98.1192 70.9453 97.1347 70.9532 96.043C70.961 94.9488 71.9456 93.9746 73.0372 93.9825C74.1315 93.9903 75.1056 94.9749 75.0978 96.0665C75.0899 97.1608 74.1054 98.1323 73.0137 98.1271Z" fill="#FF0083"/>
<path d="M82.9614 128.81C82.3915 129.415 81.7591 130.389 80.8562 129.681C79.7265 128.759 80.8082 128.065 81.4493 127.385C82.0193 126.78 82.6517 125.806 83.4878 126.736C84.4663 127.516 83.5314 128.205 82.9614 128.81Z" fill="#FF0282"/>
<path d="M84.9614 130.81C84.3915 131.415 83.7591 132.389 82.8562 131.681C81.7265 130.759 82.8082 130.065 83.4493 129.385C84.0193 128.78 84.6517 127.806 85.4878 128.736C86.4663 129.516 85.5314 130.205 84.9614 130.81Z" fill="#FF0282"/>
<path d="M86.9614 132.81C86.3915 133.415 85.7591 134.389 84.8562 133.681C83.7265 132.759 84.8082 132.065 85.4493 131.385C86.0193 130.78 86.6517 129.806 87.4878 130.736C88.4663 131.516 87.5314 132.205 86.9614 132.81Z" fill="#FF0282"/>
<path d="M118.553 119.96C117.937 119.401 116.952 118.787 117.643 117.871C118.544 116.724 119.257 117.793 119.949 118.422C120.565 118.98 121.55 119.595 120.635 120.448C119.874 121.44 119.168 120.518 118.553 119.96Z" fill="#FF0282"/>
<path d="M120.553 117.96C119.937 117.401 118.952 116.787 119.643 115.871C120.544 114.724 121.257 115.793 121.949 116.422C122.565 116.98 123.55 117.595 122.635 118.448C121.874 119.44 121.168 118.518 120.553 117.96Z" fill="#FF0282"/>
<path d="M122.553 115.96C121.937 115.401 120.952 114.787 121.643 113.871C122.544 112.724 123.257 113.793 123.949 114.422C124.565 114.98 125.55 115.595 124.635 116.448C123.874 117.44 123.168 116.518 122.553 115.96Z" fill="#FF0282"/>
<path d="M108.553 129.96C107.937 129.401 106.952 128.787 107.643 127.871C108.544 126.724 109.257 127.793 109.949 128.422C110.565 128.98 111.55 129.595 110.635 130.448C109.874 131.44 109.168 130.518 108.553 129.96Z" fill="#FF0282"/>
<path d="M110.553 127.96C109.937 127.401 108.952 126.787 109.643 125.871C110.544 124.724 111.257 125.793 111.949 126.422C112.565 126.98 113.55 127.595 112.635 128.448C111.874 129.44 111.168 128.518 110.553 127.96Z" fill="#FF0282"/>
<path d="M112.553 125.96C111.937 125.401 110.952 124.787 111.643 123.871C112.544 122.724 113.257 123.793 113.949 124.422C114.565 124.98 115.55 125.595 114.635 126.448C113.874 127.44 113.168 126.518 112.553 125.96Z" fill="#FF0282"/>
<path d="M114.553 123.96C113.937 123.401 112.952 122.787 113.643 121.871C114.544 120.724 115.257 121.793 115.949 122.422C116.565 122.98 117.55 123.595 116.635 124.448C115.874 125.44 115.168 124.518 114.553 123.96Z" fill="#FF0282"/>
<path d="M116.553 121.96C115.937 121.401 114.952 120.787 115.643 119.871C116.544 118.724 117.257 119.793 117.949 120.422C118.565 120.98 119.55 121.595 118.635 122.448C117.874 123.44 117.168 122.518 116.553 121.96Z" fill="#FF0282"/>
</svg>
