<svg width="32" height="32" viewBox="0 0 32 32" fill="none" xmlns="http://www.w3.org/2000/svg">
<path d="M30.3067 32C20.2058 32 10.1058 32 0 32C0 21.3408 0 10.6817 0 0C8.05667 0 16.1192 0 24.1817 0C24.52 0.184167 24.6267 0.465 24.6258 0.849167C24.6158 5.24 24.6208 9.63083 24.615 14.0217C24.615 14.2367 24.6758 14.3858 24.8283 14.5383C27.0625 16.7625 29.2908 18.9933 31.5183 21.2242C31.685 21.3917 31.8358 21.5742 31.9942 21.75C31.9942 21.875 31.9942 22 31.9942 22.125C31.7633 22.6967 31.235 22.5458 30.765 22.5917C30.765 22.7417 30.765 22.8642 30.765 22.9867C30.765 25.7142 30.7608 28.4417 30.77 31.1683C30.7717 31.5517 30.67 31.8392 30.3067 32ZM1.26667 1.26417C1.26667 11.1033 1.26667 20.9183 1.26667 30.7267C5.93833 30.7267 10.5883 30.7267 15.2283 30.7267C15.2283 28.0008 15.2283 25.2992 15.2283 22.5708C15.0075 22.5708 14.7967 22.6158 14.6192 22.5583C14.4292 22.4967 14.1883 22.3733 14.1208 22.2133C14.0467 22.0383 14.1267 21.7858 14.1758 21.575C14.1967 21.4875 14.3083 21.42 14.3825 21.3467C17.0333 18.695 19.6875 16.0467 22.3325 13.3892C22.6267 13.0942 22.9133 12.865 23.3533 13.0475C23.3533 9.1025 23.3533 5.19 23.3533 1.26417C15.9875 1.26417 8.6375 1.26417 1.26667 1.26417ZM19.5708 30.7358C19.5708 30.5842 19.5708 30.4608 19.5708 30.3375C19.5708 28.5258 19.57 26.7142 19.5717 24.9017C19.5725 24.295 19.7933 24.075 20.4025 24.0742C22.1417 24.0725 23.8808 24.0725 25.62 24.0742C26.2433 24.075 26.4458 24.2767 26.4467 24.8967C26.4475 26.7192 26.4467 28.5408 26.4467 30.3633C26.4467 30.4842 26.4467 30.6058 26.4467 30.7267C27.4925 30.7267 28.4958 30.7267 29.4892 30.7267C29.4892 28.0017 29.4892 25.3008 29.4892 22.5742C29.35 22.5742 29.2375 22.5742 29.1242 22.5742C28.0408 22.5742 26.9583 22.5767 25.875 22.5725C25.4933 22.5708 25.24 22.35 25.205 22.0125C25.1633 21.6183 25.47 21.3283 25.9483 21.3267C27.1142 21.3225 28.2808 21.3258 29.4475 21.3242C29.5567 21.3242 29.665 21.315 29.7483 21.3108C27.49 19.0525 25.235 16.7983 23.0542 14.6175C20.825 16.8467 18.5725 19.0983 16.3458 21.325C16.4433 21.325 16.6092 21.325 16.7742 21.325C17.8783 21.325 18.9817 21.3225 20.0858 21.3267C20.5075 21.3283 20.7692 21.53 20.8117 21.865C20.8642 22.2758 20.5942 22.5708 20.1433 22.5733C19.05 22.5783 17.9567 22.575 16.8633 22.575C16.7525 22.575 16.6425 22.575 16.5217 22.575C16.5217 25.32 16.5217 28.0208 16.5217 30.7367C17.535 30.7358 18.5308 30.7358 19.5708 30.7358ZM20.8458 25.3408C20.8458 27.1642 20.8458 28.9492 20.8458 30.7317C22.3033 30.7317 23.7367 30.7317 25.1767 30.7317C25.1767 28.9283 25.1767 27.1425 25.1767 25.3408C23.725 25.3408 22.2942 25.3408 20.8458 25.3408Z" fill="current"/>
<path d="M7.03318 26.8842C6.73235 26.8884 6.48152 26.7117 6.42902 26.4067C6.39735 26.2226 6.30652 26.1526 6.15152 26.0834C5.46318 25.7751 5.05068 25.2501 4.95735 24.4926C4.90652 24.0817 5.13068 23.7667 5.49985 23.7159C5.85152 23.6676 6.12652 23.9034 6.19318 24.3117C6.29818 24.9559 7.03235 25.2442 7.56152 24.8484C7.98402 24.5326 7.92152 23.9634 7.42485 23.7442C7.25902 23.6709 7.06402 23.6476 6.88068 23.6351C5.93818 23.5709 5.14735 22.9167 4.98902 22.0559C4.82152 21.1484 5.28235 20.3434 6.18902 19.9242C6.28735 19.8784 6.37652 19.7517 6.41152 19.6434C6.50735 19.3459 6.72485 19.1484 7.01402 19.1434C7.31318 19.1384 7.54152 19.3442 7.63735 19.6559C7.66985 19.7626 7.76818 19.8817 7.86735 19.9284C8.56068 20.2534 8.99235 20.7676 9.08485 21.5409C9.13318 21.9459 8.92485 22.2592 8.57818 22.3134C8.19818 22.3726 7.92568 22.1526 7.85152 21.7259C7.75985 21.1959 7.32485 20.9167 6.79652 21.0484C6.41985 21.1426 6.17568 21.4292 6.20235 21.7459C6.22902 22.0609 6.51402 22.3284 6.87985 22.3759C7.04485 22.3976 7.21152 22.4042 7.37652 22.4292C8.27568 22.5651 8.95568 23.2359 9.07402 24.0992C9.18818 24.9342 8.72235 25.7251 7.88402 26.0876C7.72068 26.1584 7.64652 26.2392 7.61568 26.4176C7.56652 26.7034 7.31902 26.8809 7.03318 26.8842Z" fill="current"/>
<path d="M12.4109 10.63C10.1617 10.63 7.91336 10.6316 5.6642 10.6291C5.20086 10.6283 4.89003 10.3125 4.96003 9.91912C5.01336 9.61829 5.20336 9.44245 5.50086 9.39079C5.60253 9.37329 5.70836 9.38162 5.81253 9.38162C10.2059 9.38162 14.6 9.38079 18.9934 9.38245C19.1275 9.38245 19.2667 9.38412 19.3942 9.41829C19.685 9.49579 19.8675 9.76579 19.8442 10.0516C19.82 10.355 19.59 10.5933 19.2817 10.6258C19.1784 10.6366 19.0734 10.6316 18.9692 10.6316C16.7834 10.63 14.5975 10.63 12.4109 10.63Z" fill="current"/>
<path d="M12.377 14.1299C10.1487 14.1299 7.9212 14.1307 5.69286 14.1291C5.2037 14.1291 4.88703 13.8199 4.95953 13.4166C5.0137 13.1157 5.2037 12.9407 5.5012 12.8891C5.60286 12.8716 5.7087 12.8799 5.81286 12.8799C10.2062 12.8799 14.6004 12.8791 18.9937 12.8816C19.1379 12.8816 19.2879 12.8874 19.4237 12.9282C19.6987 13.0107 19.8654 13.2774 19.8429 13.5516C19.8187 13.8424 19.5995 14.0824 19.3095 14.1207C19.197 14.1357 19.0812 14.1299 18.9662 14.1299C16.7712 14.1299 14.5745 14.1299 12.377 14.1299Z" fill="current"/>
<path d="M12.4111 6.48325C11.2352 6.48325 10.0602 6.48158 8.8844 6.48408C8.5719 6.48491 8.33356 6.43075 8.21606 6.28075C8.05606 6.07741 8.34773 5.86991 8.8144 5.85991C9.1469 5.85325 9.48023 5.85825 9.81273 5.85825C11.7894 5.85825 13.7661 5.85825 15.7419 5.85825C15.8352 5.85825 15.9294 5.85575 16.0227 5.85991C16.3819 5.87658 16.6261 6.00741 16.6211 6.17741C16.6152 6.34825 16.3652 6.47824 15.9994 6.48074C15.1261 6.48574 14.2519 6.48241 13.3777 6.48325C13.0561 6.48325 12.7336 6.48325 12.4111 6.48325Z" fill="current"/>
<path d="M8.97947 17.63C7.88614 17.63 6.7928 17.6317 5.7003 17.6292C5.2453 17.6283 4.95697 17.3883 4.9503 17.0158C4.94364 16.635 5.24447 16.3808 5.71447 16.3808C7.8903 16.3792 10.0661 16.38 12.242 16.3808C12.7328 16.3808 13.0103 16.6058 13.0153 16.9992C13.0203 17.4033 12.7395 17.63 12.2278 17.63C11.1453 17.6308 10.0628 17.63 8.97947 17.63Z" fill="current"/>
<path d="M22.9716 22.5699C22.6349 22.5507 22.3682 22.2532 22.3899 21.9207C22.4116 21.5866 22.7107 21.3149 23.0391 21.3307C23.3916 21.3482 23.6516 21.6449 23.6274 22.0041C23.6041 22.3457 23.3207 22.5899 22.9716 22.5699Z" fill="current"/>
</svg>
