<svg width="109" height="111" viewBox="0 0 109 111" fill="none" xmlns="http://www.w3.org/2000/svg">
<path d="M77.9311 0.00358905C77.9024 2.57335 77.8701 5.14311 77.8485 7.71287C77.827 10.0135 77.3245 10.6702 75.0563 10.9681C73.6529 11.1512 73.9365 12.1777 73.9329 12.9995C73.9042 18.3831 74.1626 23.7811 73.8252 29.1431C73.6099 32.5599 74.866 34.5769 77.644 36.2387C79.8835 37.5774 81.9149 39.275 83.993 40.8757C86.1285 42.5195 86.8284 46.0152 85.6332 48.6675C84.5027 51.1835 81.6099 52.7806 78.9324 52.3643C76.901 52.0484 76.797 52.113 76.797 54.1983C76.7862 63.1709 76.797 72.1399 76.7862 81.1126C76.7826 84.131 76.3483 84.5545 73.3945 84.5545C53.3604 84.5545 33.3228 84.5545 13.2887 84.5545C11.0778 84.5545 10.5933 84.0664 10.5933 81.8196C10.5933 72.7285 10.5969 63.6375 10.5897 54.5464C10.5897 53.7855 10.5251 53.0211 10.4964 52.3355C9.12539 52.3355 7.89793 52.4468 6.69919 52.314C3.56595 51.9623 1.8109 49.9093 1.06079 47.074C0.40758 44.5976 1.45558 42.4046 3.35778 40.8937C6.85711 38.1157 10.4856 35.4957 14.1716 32.9654C14.832 32.5132 16.2138 32.4666 16.9208 32.8542C18.2595 33.5863 18.0729 35.065 16.6121 36.1776C13.8593 38.2701 11.0527 40.2907 8.26401 42.34C7.59286 42.8353 6.86787 43.266 6.23979 43.808C5.14154 44.7555 4.5637 45.825 5.62965 47.214C6.63458 48.524 7.8764 48.5958 9.08591 47.7487C12.212 45.5558 15.2663 43.2624 18.3421 41.0013C26.1231 35.2696 33.9114 29.5451 41.6817 23.8026C43.0706 22.7761 44.2694 22.7725 45.7122 23.8457C56.246 31.6734 66.8266 39.4401 77.3927 47.2283C77.6332 47.4042 77.8665 47.598 78.1177 47.7523C79.3524 48.506 81.0607 48.3625 81.6745 47.3396C82.4533 46.0439 82.2236 44.7519 81.05 43.8187C79.2734 42.4082 77.4071 41.1198 75.5767 39.7739C65.7247 32.5348 55.8728 25.2956 46.0137 18.0601C43.7705 16.4127 43.3757 16.4737 41.1648 18.1355C38.0675 20.4648 34.9127 22.7259 31.7902 25.0229C30.7028 25.8232 29.6512 26.157 28.7037 24.8614C27.7274 23.5298 28.2873 22.5034 29.4358 21.6563C32.9926 19.0327 36.5278 16.3804 40.1312 13.825C42.5215 12.1274 45.2061 12.3356 47.923 14.2916C49.5704 15.4796 51.1711 16.7286 52.8077 17.9309C53.2707 18.2719 53.7768 18.5482 54.5197 19.0112C54.5197 16.183 54.5197 13.6779 54.5197 11.1907C51.1245 10.6056 51.1388 10.6056 51.1173 7.16734C51.1029 4.77703 51.0455 2.39031 51.0096 0C59.9858 0.00358905 68.9585 0.00358905 77.9311 0.00358905ZM54.893 75.5711C54.893 76.8272 54.9719 77.7819 54.875 78.7187C54.7279 80.1148 55.216 80.5993 56.6552 80.5742C61.26 80.4953 65.8683 80.4809 70.4695 80.5778C72.1563 80.6137 72.7485 80.1471 72.7342 78.3777C72.6552 69.1682 72.666 59.9551 72.7306 50.7456C72.7413 49.3028 72.2066 48.4917 71.0904 47.677C62.3761 41.2992 53.6978 34.8712 45.0374 28.4253C44.0863 27.7182 43.3793 27.5855 42.36 28.3427C33.5022 34.9322 24.5942 41.4535 15.7544 48.0646C15.1586 48.5096 14.6812 49.4966 14.6525 50.2539C14.5305 53.4805 14.5987 56.7106 14.5987 59.9408C14.5987 66.2216 14.6274 72.5024 14.5772 78.7797C14.5664 80.0646 14.893 80.5886 16.2748 80.5706C21.1774 80.5024 26.0837 80.5132 30.9863 80.567C32.2568 80.5814 32.7162 80.0323 32.6983 78.873C32.6911 78.4531 32.6803 78.0332 32.7162 77.6168C32.8382 76.1381 32.3394 75.4634 30.6956 75.5352C27.8315 75.6608 24.9567 75.5747 22.0855 75.5711C20.2945 75.5675 19.5803 74.882 19.5803 73.1485C19.5731 68.9026 19.5731 64.6568 19.5803 60.4109C19.5839 58.5913 20.2371 57.9452 22.0388 57.9452C25.4376 57.9417 28.84 57.9452 32.1994 57.9452C32.5439 57.1018 32.8059 56.3912 33.1182 55.6985C33.8109 54.1516 35.1137 53.5235 36.7144 53.5199C41.0787 53.5092 45.443 53.563 49.8109 53.563C52.6713 53.563 53.5004 54.0296 54.5377 56.6639C54.9289 57.6617 55.4672 57.9919 56.5116 57.9668C59.3219 57.9022 62.1321 57.9417 64.9459 57.9452C66.9701 57.9488 67.7418 58.6559 67.7669 60.7375C67.81 64.8039 67.81 68.8703 67.7669 72.9367C67.7454 74.882 66.9665 75.5675 64.9854 75.5711C61.705 75.5747 58.4246 75.5711 54.893 75.5711ZM36.8544 68.9888C36.8544 72.3302 36.8903 75.6716 36.8329 79.013C36.8113 80.1902 37.2456 80.5778 38.3941 80.5599C41.9724 80.5132 45.5543 80.5132 49.1361 80.5599C50.2954 80.5742 50.7476 80.1004 50.744 78.9771C50.7297 72.2943 50.7297 65.6115 50.744 58.9286C50.7476 57.7801 50.2236 57.3315 49.111 57.3387C45.5291 57.3638 41.9509 57.3674 38.369 57.3387C37.2169 57.3315 36.8149 57.8124 36.8329 58.9609C36.8903 62.3059 36.8544 65.6473 36.8544 68.9888ZM69.3246 30.0547C69.6009 29.6097 69.7122 29.5128 69.7158 29.4195C69.7409 23.6303 69.784 17.8376 69.7122 12.052C69.7086 11.6895 68.8293 11.0471 68.3376 11.0292C65.714 10.9251 63.0832 11.0256 60.4596 10.961C59.1998 10.9287 58.7656 11.4419 58.7835 12.6478C58.8266 15.4545 58.7691 18.2611 58.823 21.0641C58.8337 21.6169 58.9953 22.3849 59.3757 22.6756C62.6202 25.1593 65.9365 27.5567 69.3246 30.0547ZM64.4722 1.99551C62.3869 1.99551 60.3017 1.97398 58.2164 1.9991C54.8894 2.04217 55.3237 1.48228 55.2196 5.10363C55.1801 6.4567 55.5462 7.02018 57.0141 6.99865C61.9598 6.92328 66.9055 6.93405 71.8512 6.99147C73.2258 7.00942 73.8719 6.56079 73.7427 5.15029C73.6996 4.67653 73.6996 4.1956 73.7427 3.72185C73.8539 2.41902 73.312 1.92732 71.9804 1.97039C69.4789 2.05653 66.9737 1.99551 64.4722 1.99551ZM23.5857 66.7097C23.5857 67.8403 23.6252 68.9744 23.5749 70.1049C23.5247 71.2032 24.0343 71.5836 25.0751 71.5693C27.0994 71.537 29.1236 71.5262 31.1478 71.5729C32.2281 71.598 32.6732 71.0848 32.6875 70.0834C32.7055 68.8344 32.7198 67.5818 32.7162 66.3328C32.6983 60.978 32.9854 62.0224 28.3519 61.9614C23.5821 61.8968 23.5821 61.9434 23.5857 66.7097ZM63.7149 66.9071C63.7149 66.4908 63.7185 66.0744 63.7149 65.6581C63.679 61.423 64.1348 61.9614 59.9894 61.9614C58.3528 61.9614 56.1886 61.5666 55.2339 62.428C54.4084 63.1709 54.9109 65.4392 54.9002 67.0327C54.875 71.5657 54.893 71.5657 59.3111 71.5657C63.7149 71.5657 63.7149 71.5657 63.7149 66.9071Z" fill="current"/>
<path d="M105.208 0.00358905C106.027 0.933153 106.859 1.85195 107.656 2.79946C108.478 3.77568 109.727 4.69448 108.46 6.14805C107.233 7.55854 106.063 7.07761 104.939 5.95783C104.781 5.79991 104.555 5.71018 104.361 5.59174C103.511 6.77613 103.367 75.0291 104.239 76.9277C104.684 76.6119 105.122 76.3391 105.521 76.0161C106.454 75.266 107.398 75.2445 108.274 76.0412C109.164 76.8524 109.246 77.8645 108.439 78.7294C106.73 80.5599 104.986 82.3723 103.145 84.0628C102.265 84.8703 101.189 84.7985 100.27 83.8582C98.6405 82.1929 97.0075 80.524 95.3206 78.9161C94.4305 78.0655 94.287 77.1969 95.0227 76.253C95.8051 75.2445 96.8316 75.2122 97.8868 75.7936C98.3462 76.0448 98.7482 76.3966 99.3942 76.8631C99.3942 53.0569 99.3942 29.4697 99.3942 5.6384C98.8056 6.05832 98.4036 6.38133 97.9693 6.64692C96.9177 7.28936 95.8877 7.26424 95.0909 6.26648C94.3121 5.29026 94.3911 4.38582 95.3637 3.44549C96.4619 2.39031 97.3879 1.15567 98.3893 0C100.661 0.00358905 102.937 0.00358905 105.208 0.00358905Z" fill="current"/>
<path d="M4.71465 110.905C3.85687 109.936 3.02062 108.942 2.13053 107.998C0.47239 106.236 0.450856 105.723 2.12335 104.011C3.50155 102.6 4.96588 101.269 6.26153 99.7864C7.288 98.6128 8.36471 98.4262 9.51321 99.345C10.7371 100.321 10.1951 101.452 9.49527 102.496C9.30146 102.783 9.07535 103.049 8.63389 103.627C9.63165 103.709 10.3531 103.817 11.0744 103.817C25.5347 103.828 39.9914 103.824 54.4517 103.824C55.1085 103.824 55.7689 103.799 56.4221 103.846C57.6209 103.935 58.8052 104.205 58.7155 105.733C58.6258 107.183 57.7752 107.898 56.2283 107.894C45.235 107.865 34.2418 107.88 23.2485 107.88C19.0673 107.88 14.8824 107.876 10.7012 107.887C10.0767 107.887 9.4522 107.962 8.5011 108.02C9.28351 109.172 9.87212 110.037 10.4607 110.902C8.54417 110.905 6.62761 110.905 4.71465 110.905Z" fill="current"/>
<path d="M76.8545 110.905C77.3857 110.055 77.9169 109.204 78.7423 107.883C77.4359 107.883 76.4274 107.891 75.4153 107.883C73.6782 107.869 72.6194 107.09 72.7127 105.784C72.8276 104.154 74.0156 103.839 75.3794 103.835C76.3772 103.831 77.3713 103.835 78.8428 103.835C78.3188 103.024 78.0963 102.582 77.7805 102.216C77.0663 101.384 76.4346 100.361 77.5113 99.6178C78.2363 99.1189 79.8083 98.7923 80.3108 99.2158C82.3529 100.917 84.2192 102.862 85.9671 104.876C86.9074 105.96 85.9312 106.972 85.2206 107.837C84.3664 108.878 83.4691 109.89 82.5934 110.913C80.684 110.905 78.7675 110.905 76.8545 110.905Z" fill="current"/>
<path d="M67.7449 106.437C67.2819 106.774 66.5784 107.664 65.7529 107.801C64.4358 108.02 63.5277 107 63.8077 105.744C63.9728 105.019 64.9598 104.111 65.7027 103.971C66.7866 103.767 67.7484 104.431 67.7449 106.437Z" fill="current"/>
<path d="M22.5521 26.7312C24.2353 27.1188 25.2331 27.8079 24.9352 29.0067C24.7342 29.8106 23.6826 30.8084 22.8751 30.9519C21.7768 31.1493 20.7217 30.1552 20.9083 28.9744C21.0375 28.1596 21.9778 27.4741 22.5521 26.7312Z" fill="current"/>
<path d="M43.6166 35.8653C47.3349 35.7827 50.2277 38.5068 50.1954 42.2682C50.1595 46.2053 47.5395 48.8253 43.7171 48.9187C40.0455 49.0084 37.4255 46.2699 37.1348 42.7275C36.8226 38.9124 40.3004 35.4095 43.6166 35.8653ZM43.9002 39.964C42.3461 39.9496 41.2156 40.9653 41.2156 42.3686C41.2192 43.5782 42.3856 44.68 43.6812 44.6943C44.8764 44.7087 46.0572 43.5351 46.1003 42.2933C46.1397 41.1125 45.0666 39.9747 43.9002 39.964Z" fill="current"/>
<path d="M46.5769 70.9878C44.7142 70.8585 43.9677 70.2412 43.9928 68.9276C44.0179 67.6392 44.8972 66.7383 45.9847 66.9967C46.7887 67.1869 47.7398 68.278 47.9049 69.1143C48.0233 69.6957 46.9322 70.5248 46.5769 70.9878Z" fill="current"/>
</svg>
