<svg width="25" height="35" viewBox="0 0 25 35" fill="none" xmlns="http://www.w3.org/2000/svg">
<path d="M19.1492 0C19.3132 0.132565 19.4914 0.249902 19.6374 0.399485C21.3213 2.13447 22.9972 3.87662 24.682 5.61071C24.8988 5.83374 25 6.07289 25 6.38728C24.9946 14.1558 24.9973 21.9242 24.9946 29.6927C24.9937 31.3739 23.8562 32.5213 22.1731 32.524C18.4685 32.5312 14.763 32.5258 11.0583 32.5258C10.9267 32.5258 10.7941 32.5258 10.6212 32.5258C10.6212 32.8671 10.5997 33.1788 10.6266 33.486C10.6633 33.9034 10.5093 34.1981 10.1483 34.3951C10.0139 34.3951 9.87957 34.3951 9.74522 34.3951C9.03492 33.8228 8.31925 33.2567 7.61702 32.6745C7.40563 32.4989 7.24709 32.498 7.0357 32.6745C6.33347 33.2567 5.6187 33.8228 4.9084 34.396C4.77404 34.396 4.63969 34.396 4.50533 34.396C4.12287 34.1963 3.98582 33.8819 4.02434 33.4564C4.05121 33.16 4.02971 32.8599 4.02971 32.5267C3.64545 32.5267 3.30061 32.5321 2.95666 32.5249C2.71123 32.5204 2.46043 32.5267 2.22128 32.481C0.881302 32.2248 0.00530115 31.1348 0.00440544 29.7231C0.00171832 22.9955 0.00350971 16.2678 0.00350971 9.54017C0.00350971 7.26777 -0.00723878 4.99536 0.00888395 2.72295C0.0151539 1.55853 0.583032 0.727314 1.62922 0.228405C1.83792 0.128982 2.06722 0.0752394 2.28756 0C7.90812 0 13.5287 0 19.1492 0ZM18.292 1.34356C18.1138 1.34356 17.9812 1.34356 17.8487 1.34356C12.8891 1.34356 7.92962 1.34356 2.9692 1.34356C1.85404 1.34356 1.34528 1.84874 1.34528 2.95673C1.34528 11.8233 1.34528 20.6908 1.34528 29.5574C1.34528 29.6577 1.34349 29.759 1.34707 29.8593C1.36767 30.4478 1.72327 30.9923 2.29294 31.0998C2.85096 31.2046 3.43407 31.176 4.02792 31.2064C4.02792 30.0286 4.03509 28.9322 4.02255 27.8368C4.01986 27.5851 3.93835 27.3361 3.91237 27.0835C3.86042 26.5747 3.73413 26.0543 3.79325 25.5572C4.03688 23.5078 5.96892 22.1365 8.01113 22.51C9.95392 22.8656 11.2652 24.8371 10.7941 26.7942C10.6526 27.3835 10.6221 27.9586 10.6203 28.5489C10.6176 29.3102 10.6194 30.0716 10.6203 30.8329C10.6203 30.9413 10.6293 31.0488 10.6355 31.1813C10.7735 31.1813 10.8837 31.1813 10.9938 31.1813C14.6886 31.1813 18.3834 31.1822 22.0773 31.1813C23.1405 31.1813 23.6502 30.6627 23.6502 29.5879C23.6502 22.1535 23.6502 14.72 23.6502 7.28568C23.6502 7.16476 23.6502 7.04294 23.6502 6.88082C22.9658 6.88082 22.3084 6.88799 21.651 6.87813C21.238 6.87186 20.8144 6.89246 20.4149 6.80737C19.1358 6.53418 18.3073 5.46202 18.292 4.10771C18.2831 3.20215 18.292 2.2957 18.292 1.34356ZM5.10008 26.0292C5.10456 27.2465 6.11223 28.2506 7.3286 28.2497C8.54766 28.2488 9.54637 27.2465 9.54816 26.0221C9.54995 24.7824 8.5378 23.7747 7.30262 23.7873C6.08088 23.7989 5.0956 24.8012 5.10008 26.0292ZM5.38939 32.2884C5.75663 31.9884 6.06834 31.7358 6.37825 31.4796C7.32502 30.6977 7.3277 30.6977 8.28342 31.4895C8.59513 31.7474 8.91042 32.0009 9.26243 32.2884C9.26243 31.1697 9.26243 30.1253 9.26243 29.0415C7.96276 29.7724 6.67742 29.7661 5.38939 29.0442C5.38939 30.1289 5.38939 31.1742 5.38939 32.2884ZM19.6464 2.33869C19.6464 3.05794 19.6105 3.68315 19.6553 4.30208C19.7082 5.03119 20.2617 5.5086 21.0007 5.53457C21.3133 5.54532 21.6268 5.53726 21.9394 5.53726C22.1749 5.53726 22.4114 5.53726 22.7383 5.53726C21.676 4.43912 20.6934 3.4216 19.6464 2.33869Z" fill="current"/>
<path d="M11.0752 7.7299C11.0752 8.49484 11.0752 9.21767 11.0752 9.9414C11.0743 10.6777 10.871 10.8828 10.141 10.8828C8.77595 10.8828 7.41 10.8828 6.04494 10.8828C5.35793 10.8828 5.15282 10.675 5.15192 9.97723C5.15102 9.24275 5.15192 8.50738 5.15192 7.71557C5.031 7.79708 4.96472 7.84724 4.89216 7.88934C4.58225 8.07027 4.23382 8.01026 4.01706 7.74065C3.80926 7.48269 3.81821 7.10112 4.06722 6.8548C4.38519 6.54041 4.72288 6.24572 5.05339 5.94386C5.86311 5.20401 6.67283 4.46505 7.48344 3.72609C7.96802 3.28451 8.25196 3.28362 8.72669 3.71803C9.83378 4.72929 10.94 5.74144 12.0489 6.7509C12.2907 6.97124 12.4286 7.22025 12.3032 7.55345C12.1644 7.92517 11.7533 8.09356 11.395 7.92338C11.2983 7.8768 11.2096 7.81231 11.0752 7.7299ZM9.73077 9.52132C9.73077 8.52619 9.73256 7.55524 9.72719 6.5834C9.72719 6.51443 9.69047 6.42576 9.6412 6.37918C9.13602 5.90893 8.62457 5.44496 8.10954 4.97561C7.70379 5.34553 7.34282 5.71815 6.93796 6.03164C6.58326 6.30663 6.46413 6.61744 6.48473 7.06171C6.52235 7.87411 6.49548 8.68921 6.49548 9.52042C7.57929 9.52132 8.62816 9.52132 9.73077 9.52132Z" fill="current"/>
<path d="M12.637 14.0321C14.9864 14.0321 17.3359 14.0321 19.6853 14.0321C19.7973 14.0321 19.9101 14.0267 20.0203 14.0375C20.3383 14.0679 20.581 14.308 20.6195 14.6206C20.6562 14.926 20.4726 15.2314 20.1663 15.3201C20.0087 15.3658 19.8358 15.3721 19.6701 15.373C14.9604 15.3757 10.2499 15.3757 5.5403 15.373C5.37459 15.373 5.20172 15.3667 5.04408 15.321C4.73864 15.2323 4.54875 14.9224 4.58816 14.6224C4.62847 14.3098 4.8721 14.0679 5.18739 14.0375C5.29846 14.0267 5.41132 14.0312 5.52239 14.0312C7.89332 14.0321 10.2652 14.0321 12.637 14.0321Z" fill="current"/>
<path d="M18.1875 26.1036C19.36 25.2061 20.7501 25.9504 20.6462 27.4176C20.7967 27.4283 20.949 27.4319 21.0995 27.4507C21.4712 27.4991 21.7139 27.7759 21.7041 28.1315C21.6942 28.4736 21.4524 28.7459 21.0923 28.7665C20.7018 28.7889 20.3086 28.7898 19.9189 28.7692C19.5248 28.7486 19.2982 28.4898 19.2848 28.0849C19.274 27.7606 19.2758 27.4364 19.2704 27.1122C19.2704 27.1059 19.2534 27.1005 19.2077 27.0718C19.1029 27.1955 18.9937 27.3262 18.8808 27.4543C18.5297 27.8529 18.0782 27.981 17.6125 27.818C17.1413 27.6523 16.8664 27.2761 16.8475 26.7476C16.8341 26.3786 16.8377 26.0095 16.8314 25.6405C16.8314 25.6342 16.8153 25.6289 16.7822 25.6065C16.723 25.6925 16.6603 25.7767 16.6048 25.8662C16.0934 26.6939 15.5855 27.5233 15.0723 28.3491C14.8143 28.7638 14.4291 28.8892 14.0852 28.6814C13.7323 28.4683 13.666 28.0777 13.924 27.6567C14.5071 26.7028 15.092 25.7498 15.6849 24.8021C16.0468 24.2235 16.6102 23.9933 17.2013 24.1608C17.8051 24.3319 18.1571 24.8012 18.1848 25.4847C18.1938 25.6808 18.1875 25.8779 18.1875 26.1036Z" fill="current"/>
<path d="M11.1208 18.5359C12.9901 18.5359 14.8586 18.5359 16.7279 18.5359C16.8399 18.5359 16.9527 18.5305 17.0629 18.5449C17.3648 18.5834 17.5923 18.8189 17.6317 19.1208C17.6711 19.4244 17.5134 19.7102 17.2232 19.8159C17.1005 19.8606 16.9617 19.8768 16.83 19.8768C13.0251 19.8795 9.2201 19.8795 5.41424 19.8786C5.31392 19.8786 5.21092 19.8786 5.11418 19.8562C4.79083 19.7818 4.56511 19.4853 4.58303 19.1719C4.60184 18.8369 4.86428 18.5708 5.21092 18.5413C5.31124 18.5323 5.41245 18.5368 5.51277 18.5368C7.38301 18.5359 9.25235 18.5359 11.1208 18.5359Z" fill="current"/>
<path d="M17.2262 9.52479C18.1317 9.52479 19.0364 9.523 19.942 9.52568C20.2716 9.52658 20.4937 9.69139 20.5931 10.004C20.6809 10.2781 20.6003 10.5262 20.3782 10.6928C20.2528 10.7868 20.0736 10.8567 19.9187 10.8576C18.1192 10.8692 16.3206 10.871 14.5211 10.8612C14.0885 10.8585 13.8171 10.5584 13.8306 10.1616C13.8431 9.78275 14.1136 9.52926 14.5444 9.52568C15.4383 9.51762 16.3323 9.523 17.2262 9.523C17.2262 9.52389 17.2262 9.52479 17.2262 9.52479Z" fill="current"/>
<path d="M20.6226 19.2003C20.6244 19.5613 20.3207 19.8721 19.966 19.8712C19.6069 19.8712 19.2934 19.5711 19.2844 19.22C19.2746 18.8447 19.5818 18.5348 19.9598 18.5384C20.327 18.5428 20.6208 18.8366 20.6226 19.2003Z" fill="current"/>
</svg>
