<svg width="119" height="119" viewBox="0 0 119 119" fill="none" xmlns="http://www.w3.org/2000/svg">
<path d="M116.04 39.8158C98.6486 27.1404 81.2575 14.4649 63.8663 1.78947C60.5361 -0.596491 58.4639 -0.596491 55.2077 1.78947C37.9646 14.3158 20.7954 26.9167 3.62624 39.3684C1.11007 41.1579 0 43.2456 0 46.3772C0.074005 68.1491 0.14801 89.9956 0 111.768C0 116.167 2.66418 119.075 7.25249 119C24.6437 118.851 42.0348 118.925 59.426 118.925C77.0392 118.925 94.7264 118.925 112.34 118.925C116.706 118.925 119 116.689 119 112.364C119 90.1447 119 67.9254 119 45.7061C119 43.1711 118.038 41.307 116.04 39.8158ZM5.18035 43.2456C11.2488 38.7719 17.2432 34.3728 23.3116 29.9737C34.7083 21.6228 46.1791 13.4211 57.5019 5.07018C58.982 3.95175 60.092 3.95175 61.5721 5.07018C78.8153 17.7456 96.1325 30.3465 113.45 42.9474C115.744 44.5877 115.744 47.4956 113.524 49.2105C108.861 52.6404 104.199 55.9956 99.3147 59.6491C99.3147 54.2807 99.3147 49.3596 99.3147 44.364C99.3147 40.4868 97.9086 39.0702 94.1343 39.0702C71.1188 39.0702 48.1772 39.0702 25.1617 39.0702C21.3134 39.0702 19.9813 40.4868 19.9813 44.364C19.9813 49.2851 19.9813 54.2807 19.9813 59.2763C19.2413 59.4254 18.9453 58.9035 18.5012 58.6053C13.9869 55.3246 9.62065 52.1184 5.25435 48.9123C3.55224 47.6447 3.47823 44.5877 5.18035 43.2456ZM95.2444 61.0658C95.2444 62.0351 94.9484 62.6316 94.2083 63.2281C83.4776 70.9825 72.8209 78.8114 62.1642 86.5658C60.6841 87.6096 59.13 88.057 57.5759 86.9386C52.1735 83.136 46.8451 79.1842 41.5168 75.307C41.5908 75.1579 41.6648 75.0833 41.6648 74.9342C45.4391 74.9342 49.1393 74.9342 52.9136 74.9342C54.3937 74.9342 55.5777 74.5614 55.5037 72.8465C55.4297 71.2061 54.3196 70.9079 52.9136 70.9079C48.0292 70.9079 43.1449 70.6096 38.3346 71.057C36.1144 71.2807 34.7823 70.386 33.3022 69.3421C30.49 67.3289 27.7519 65.2412 24.9397 63.3026C24.1256 62.7061 23.7556 62.1097 23.7556 60.9912C23.8296 55.4737 23.8296 49.9561 23.7556 44.4386C23.7556 43.1711 24.1996 42.9474 25.3097 42.9474C48.1032 42.9474 70.8968 42.9474 93.6903 42.9474C94.8744 42.9474 95.2444 43.2456 95.2444 44.5132C95.1704 50.0307 95.1704 55.5482 95.2444 61.0658ZM114.782 113.781C114.486 114.377 114.042 114.75 113.376 114.825C112.71 114.899 112.044 114.899 111.377 114.899C76.8172 114.899 42.3308 114.899 7.77052 114.899C7.17848 114.899 6.51244 114.899 5.9204 114.825C5.47637 114.825 5.10634 114.675 4.73632 114.377C3.40423 113.184 3.84826 108.189 5.40236 107.294C6.14241 106.846 6.95647 106.325 7.99254 105.728C7.99254 107.07 7.91853 108.039 7.99254 109.083C8.14055 110.276 8.8806 111.096 10.0647 111.022C11.2488 110.947 11.9888 110.202 11.9888 108.934C11.9148 107.368 12.2848 105.728 11.7668 104.162C11.3968 103.044 12.4328 103.118 12.8769 102.82C21.1654 97.6754 29.454 92.6053 37.8165 87.4605C38.2606 87.2368 38.7046 86.9386 39.0746 86.6404C39.9627 85.8947 40.1107 85 39.5927 84.0307C39.0006 83.0614 38.0386 82.9123 37.0025 83.2851C36.5585 83.4342 36.1884 83.807 35.7444 84.0307C25.8277 90.1447 15.9111 96.2588 5.9204 102.373C5.40236 102.671 4.88433 102.969 4.21828 103.342C4.21828 86.5658 4.21828 70.0132 4.21828 53.4605C4.95833 53.3114 5.32836 53.9825 5.77239 54.2807C21.9795 66.0614 38.1866 77.9167 54.3937 89.6974C58.0199 92.307 61.2761 92.3816 64.9024 89.7719C80.9614 78.0658 97.0205 66.3596 113.08 54.6535C113.672 54.2061 114.264 53.8333 115.078 53.2368C115.078 70.0132 115.078 86.6404 115.078 103.342C109.823 100.136 104.717 97.0044 99.6107 93.8728C94.1343 90.5175 88.658 87.1623 83.1076 83.7325C82.1455 83.136 81.1094 82.6886 80.0734 83.5833C78.9633 84.5526 79.2593 86.0439 80.8134 87.0132C85.6978 89.9956 90.5081 92.9781 95.3924 95.9605C99.0186 98.1974 102.719 100.434 106.345 102.671C107.085 103.118 107.677 103.342 107.307 104.61C106.937 106.026 107.159 107.592 107.233 109.009C107.307 110.202 108.047 110.873 109.157 110.873C110.267 110.947 111.081 110.202 111.155 109.158C111.303 108.114 111.155 107.07 111.155 105.952C114.708 106.996 116.336 110.575 114.782 113.781Z" fill="#FF0282"/>
<path d="M29.602 102.969C28.566 103.118 27.8259 103.789 27.8259 104.982C27.8259 105.653 27.8259 106.324 27.8259 106.995C27.8259 107.666 27.8259 108.337 27.8259 109.008C27.8999 110.201 28.64 110.872 29.6761 110.947C30.7861 111.021 31.6002 110.35 31.7482 109.232C31.8962 107.666 31.8962 106.1 31.7482 104.609C31.6002 103.491 30.7121 102.82 29.602 102.969Z" fill="#4E4B66"/>
<path d="M39.4445 102.969C38.4825 103.119 37.7424 103.715 37.7424 104.833C37.7424 105.504 37.7424 106.176 37.7424 106.847C37.7424 107.592 37.7424 108.338 37.7424 109.083C37.8164 110.202 38.4825 110.798 39.4445 110.947C40.4806 111.097 41.2947 110.575 41.5167 109.531C41.8867 107.816 41.8867 106.101 41.5167 104.386C41.2947 103.342 40.4806 102.82 39.4445 102.969Z" fill="#4E4B66"/>
<path d="M71.3406 106.921C71.3406 106.175 71.4146 105.429 71.3406 104.684C71.2666 103.565 70.5265 102.969 69.5645 102.969C68.5284 102.894 67.7143 103.416 67.5663 104.535C67.3443 106.175 67.2703 107.89 67.5663 109.53C67.7884 110.574 68.6024 111.096 69.5645 111.022C70.5265 110.947 71.2666 110.35 71.3406 109.232C71.4146 108.412 71.3406 107.666 71.3406 106.921Z" fill="#4E4B66"/>
<path d="M79.4814 102.97C78.2973 102.821 77.4832 103.641 77.3352 104.834C77.1872 106.325 77.2612 107.816 77.3352 109.233C77.4092 110.351 78.2973 111.022 79.4074 110.948C80.4434 110.873 81.1835 110.202 81.2575 109.009C81.2575 108.338 81.2575 107.667 81.2575 106.996C81.2575 106.399 81.2575 105.728 81.2575 105.132C81.3315 103.864 80.6654 103.044 79.4814 102.97Z" fill="#4E4B66"/>
<path d="M91.2481 104.834C91.1741 103.641 90.4341 103.044 89.324 102.97C88.2879 102.895 87.4739 103.566 87.3259 104.535C87.1778 106.101 87.1778 107.741 87.3259 109.307C87.3999 110.351 88.2879 110.948 89.25 110.948C90.3601 110.873 91.1001 110.277 91.1741 109.084C91.2481 108.412 91.1741 107.741 91.1741 107.07C91.2481 106.325 91.2481 105.579 91.2481 104.834Z" fill="#4E4B66"/>
<path d="M49.5832 102.969C48.5472 102.969 47.7331 103.64 47.6591 104.833C47.5851 105.579 47.6591 106.324 47.6591 107.07C47.6591 107.741 47.6591 108.412 47.6591 109.083C47.7331 110.276 48.4732 110.947 49.5092 111.022C50.4713 111.096 51.2854 110.5 51.5074 109.456C51.7294 107.89 51.7294 106.25 51.5074 104.684C51.3594 103.491 50.6193 102.895 49.5832 102.969Z" fill="#4E4B66"/>
<path d="M21.8313 104.833C21.7573 103.715 21.0173 102.969 19.9072 102.969C18.7231 102.894 17.909 103.64 17.835 104.908C17.761 106.324 17.761 107.741 17.835 109.158C17.909 110.276 18.7231 110.947 19.8332 110.947C20.9433 110.947 21.6833 110.201 21.8313 109.083C21.9053 108.412 21.8313 107.741 21.8313 107.07C21.8313 106.324 21.9053 105.579 21.8313 104.833Z" fill="#4E4B66"/>
<path d="M101.165 105.132C101.165 103.864 100.425 102.97 99.1666 102.97C97.9085 102.97 97.1684 103.79 97.0944 105.057C97.0204 106.25 97.0944 107.518 97.0944 108.711C97.0944 109.978 97.8345 110.873 99.0925 110.873C100.351 110.873 101.091 110.053 101.165 108.786C101.165 108.189 101.165 107.593 101.165 106.921C101.165 106.4 101.165 105.728 101.165 105.132Z" fill="#4E4B66"/>
<path d="M61.4242 104.834C61.3502 103.641 60.6102 102.97 59.5741 102.97C58.464 102.97 57.65 103.566 57.65 104.759C57.576 106.25 57.576 107.742 57.65 109.158C57.724 110.351 58.538 110.948 59.5741 110.948C60.6102 110.948 61.4242 110.277 61.4982 109.084C61.5722 108.413 61.4982 107.742 61.4982 107.071C61.4242 106.325 61.4982 105.579 61.4242 104.834Z" fill="#4E4B66"/>
<path d="M76.5951 63.0039C70.3047 63.0039 63.9402 63.0039 57.6498 63.0039C51.1374 63.0039 44.625 63.0039 38.1125 63.0039C36.7064 63.0039 35.8184 63.5258 35.8184 65.0171C35.8184 66.3592 36.7804 66.9557 37.9645 67.0302C38.1125 67.0302 38.3345 67.0302 38.4825 67.0302C51.2114 67.0302 63.8662 67.0302 76.5951 67.0302C78.0012 67.0302 79.3333 66.5829 79.3333 64.9425C79.3333 63.3767 78.0752 63.0039 76.5951 63.0039Z" fill="#4E4B66"/>
<path d="M80.5916 54.9521C71.785 54.9521 63.0524 54.9521 54.2458 54.9521C52.7657 54.9521 51.5816 55.3995 51.6556 57.0399C51.6556 58.6057 52.8397 58.9785 54.2458 58.9785C58.6121 58.9785 62.9784 58.9785 67.3447 58.9785C71.785 58.9785 76.1513 58.9785 80.5916 58.9785C82.0717 58.9785 83.2558 58.6802 83.3298 56.9653C83.2558 55.3995 82.0717 54.9521 80.5916 54.9521Z" fill="#4E4B66"/>
<path d="M71.2668 70.9827C68.0106 70.9081 64.7543 70.9081 61.5721 70.9827C60.314 70.9827 59.5 71.8029 59.574 73.145C59.648 74.3379 60.4621 75.009 61.6461 75.009C63.2742 75.009 64.8283 75.009 66.4565 75.009C68.0846 75.009 69.6387 75.009 71.2668 75.009C72.5989 75.009 73.4129 74.3379 73.4869 73.0704C73.4129 71.7283 72.5249 70.9827 71.2668 70.9827Z" fill="#4E4B66"/>
<path d="M37.8908 59.0529C39.1489 59.0529 40.333 59.0529 41.591 59.0529C42.8491 59.0529 44.1812 59.0529 45.4393 59.0529C46.7714 59.0529 47.5854 58.3073 47.5854 57.0398C47.5854 55.8468 46.7714 55.1012 45.5873 55.0266C42.9231 54.9521 40.333 54.9521 37.6688 55.0266C36.4847 55.0266 35.6706 55.8468 35.7447 57.0398C35.8187 58.3819 36.5587 59.0529 37.8908 59.0529Z" fill="#4E4B66"/>
</svg>
