<svg width="128" height="142" viewBox="0 0 128 142" fill="none" xmlns="http://www.w3.org/2000/svg">
<path d="M52.3673 50.2676C53.3875 50.2676 54.2146 49.4405 54.2146 48.4203C54.2146 47.4001 53.3875 46.573 52.3673 46.573C51.3471 46.573 50.52 47.4001 50.52 48.4203C50.52 49.4405 51.3471 50.2676 52.3673 50.2676Z" fill="#4E4B66"/>
<path d="M52.3655 50.843C50.98 50.843 49.9409 49.6884 49.9409 48.4184C49.9409 47.033 50.98 45.9939 52.3655 45.9939C53.7509 45.9939 54.79 47.1484 54.79 48.4184C54.79 49.6884 53.6355 50.843 52.3655 50.843ZM52.3655 47.033C51.6727 47.033 50.98 47.6103 50.98 48.4184C50.98 49.2266 51.5573 49.8039 52.3655 49.8039C53.0582 49.8039 53.7509 49.2266 53.7509 48.4184C53.7509 47.6103 53.0582 47.033 52.3655 47.033Z" fill="#4E4B66"/>
<path d="M80.8844 50.2676C81.9046 50.2676 82.7317 49.4405 82.7317 48.4203C82.7317 47.4001 81.9046 46.573 80.8844 46.573C79.8642 46.573 79.0371 47.4001 79.0371 48.4203C79.0371 49.4405 79.8642 50.2676 80.8844 50.2676Z" fill="#4E4B66"/>
<path d="M80.8831 50.843C79.4976 50.843 78.4585 49.6884 78.4585 48.4184C78.4585 47.033 79.6131 45.9939 80.8831 45.9939C82.2685 45.9939 83.3076 47.1484 83.3076 48.4184C83.3076 49.6884 82.2685 50.843 80.8831 50.843ZM80.8831 47.033C80.1903 47.033 79.4976 47.6103 79.4976 48.4184C79.4976 49.2266 80.0749 49.8039 80.8831 49.8039C81.5758 49.8039 82.2685 49.2266 82.2685 48.4184C82.2685 47.6103 81.5758 47.033 80.8831 47.033Z" fill="#4E4B66"/>
<path d="M64.9503 93.4458C55.3675 93.4458 47.863 90.213 42.7829 83.7476C35.5093 74.6266 34.2393 60.6566 34.4702 50.4966C34.7011 39.9902 36.5484 31.2156 36.7793 30.6383L37.3566 24.7501C37.3566 24.6347 37.472 24.5192 37.5875 24.4038L43.0139 19.5547C43.1293 19.4392 43.2448 19.4392 43.4757 19.4392L91.6203 25.5583C91.8512 25.5583 92.0822 25.7892 92.0822 26.0201C92.0822 26.1356 94.3913 35.9493 94.8531 47.9566C95.3149 59.0402 94.1603 74.2803 86.5403 83.9785C81.4603 90.213 74.1867 93.4458 64.9503 93.4458ZM38.3957 25.0965L37.8184 30.8692C37.8184 30.8692 37.8184 30.8692 37.8184 30.9847C37.7029 31.3311 30.0829 66.1984 43.5911 83.1703C48.5557 89.2894 55.7139 92.4067 64.9503 92.4067C73.8403 92.4067 80.7676 89.2894 85.6167 83.2857C99.1249 66.3139 91.9667 30.6383 91.1585 26.7129L43.4757 20.5938L38.3957 25.0965Z" fill="#4E4B66"/>
<path d="M64.0263 111.11C48.5554 111.11 38.1645 101.643 37.9335 101.528C37.8181 101.412 37.7026 101.297 37.7026 101.181V74.6266C37.7026 74.2802 37.9335 74.0493 38.2799 74.0493C38.6263 74.0493 38.8572 74.2802 38.8572 74.6266V100.95C41.0508 102.798 62.9872 120.578 89.6573 100.95V76.1275C89.6573 75.7811 89.8882 75.5502 90.2346 75.5502C90.5809 75.5502 90.8119 75.7811 90.8119 76.1275V101.066C90.8119 101.181 90.6964 101.412 90.5809 101.528C80.8827 108.686 71.8773 111.11 64.0263 111.11Z" fill="#4E4B66"/>
<path d="M64.9516 92.8701C50.0579 92.8701 42.207 84.9037 38.397 74.7437C38.397 79.0155 38.5124 90.0991 38.5124 90.3301C38.5124 90.3301 73.3798 107.764 90.2362 79.0155V76.4755C86.0798 85.9428 78.5753 92.8701 64.9516 92.8701Z" fill="#4E4B66"/>
<path d="M61.2552 95.9858C49.017 95.9858 38.3951 90.9057 38.2797 90.7903C38.0488 90.6748 37.9333 90.5594 37.9333 90.3285C37.9333 90.0976 37.8179 79.0139 37.8179 74.7421C37.8179 74.5112 38.0488 74.2802 38.2797 74.1648C38.5106 74.1648 38.7415 74.2803 38.857 74.5112C43.3597 86.2876 52.1343 92.2912 64.9498 92.2912C76.7262 92.2912 85.1544 86.8648 89.6571 76.243C89.7726 76.0121 90.0035 75.8966 90.2344 75.8966C90.4653 75.8966 90.6962 76.1275 90.6962 76.4739V79.0139C90.6962 79.1294 90.6962 79.2448 90.5807 79.2448C82.9607 92.4067 71.5307 95.9858 61.2552 95.9858ZM38.9724 89.9821C41.6279 91.2521 61.717 99.9112 77.7652 90.9057C74.0707 92.6376 69.7989 93.5612 64.9498 93.5612C52.5961 93.4458 43.8215 88.1348 38.9724 77.513C38.9724 81.9003 38.9724 88.3657 38.9724 89.9821Z" fill="#4E4B66"/>
<path d="M33.4322 38.8371C34.9332 38.8371 35.9722 39.1834 37.0113 40.1071C37.2422 30.4088 38.5122 18.8634 41.6295 13.3215C35.395 15.5152 32.0468 27.7534 31.585 39.1834C32.1622 39.068 32.855 38.8371 33.4322 38.8371Z" fill="#4E4B66"/>
<path d="M37.01 40.683C36.8946 40.683 36.7791 40.683 36.6637 40.5675C35.8555 39.7593 34.9319 39.413 33.5464 39.413C32.9691 39.413 32.3919 39.5284 31.93 39.7593C31.8146 39.8748 31.5837 39.7593 31.4682 39.6439C31.3528 39.5284 31.2373 39.413 31.2373 39.1821C31.6991 28.5602 34.5855 15.2829 41.6282 12.8584C41.8591 12.7429 42.0901 12.8584 42.2055 12.9738C42.321 13.2047 42.321 13.4356 42.2055 13.5511C39.6655 18.0538 37.9337 27.983 37.7028 40.1057C37.7028 40.3366 37.5873 40.5675 37.3564 40.5675C37.1255 40.683 37.1255 40.683 37.01 40.683ZM33.4309 38.3739C34.701 38.3739 35.6246 38.6048 36.4328 39.0666C36.5482 33.8712 37.241 21.5175 40.3582 14.5902C35.3937 17.8229 32.6228 28.4448 32.1609 38.4893C32.6228 38.3739 33.0846 38.3739 33.4309 38.3739Z" fill="#4E4B66"/>
<path d="M33.4326 50.8442C32.9708 50.8442 32.509 50.7288 32.1626 50.7288C33.2017 57.1943 35.049 58.8106 35.049 58.8106L37.4735 54.8852C37.4735 54.8852 37.0117 53.0379 36.8962 49.6897C35.8572 50.6133 34.9335 50.8442 33.4326 50.8442Z" fill="#4E4B66"/>
<path d="M35.0476 59.2711C34.9322 59.2711 34.8167 59.2711 34.7013 59.1556C34.5858 59.0402 32.6231 57.3084 31.584 50.8429C31.584 50.612 31.584 50.4965 31.6994 50.3811C31.8149 50.2656 32.0458 50.2656 32.1613 50.2656C32.5076 50.3811 32.9694 50.3811 33.3158 50.3811C34.8167 50.3811 35.5094 50.1502 36.4331 49.342C36.5485 49.2265 36.7795 49.1111 37.0104 49.2265C37.2413 49.342 37.3567 49.4574 37.3567 49.6884C37.3567 52.9211 37.934 54.6529 37.934 54.6529C37.934 54.7684 37.934 54.9993 37.8185 55.1147L35.6249 59.0402C35.5094 59.1557 35.394 59.2711 35.0476 59.2711C35.1631 59.2711 35.1631 59.2711 35.0476 59.2711ZM32.854 51.3047C33.5467 54.9993 34.4704 56.962 35.0476 57.7702L36.8949 54.6529C36.7795 54.1911 36.5485 52.8056 36.4331 50.7274C35.5094 51.3047 34.5858 51.4202 33.5467 51.4202C33.3158 51.4202 33.0849 51.4202 32.854 51.3047Z" fill="#4E4B66"/>
<path d="M97.1632 50.8447C96.9323 50.8447 96.7014 50.8447 96.4705 50.8447C95.7778 50.8447 95.085 50.7292 94.5078 50.4983C94.5078 55.9247 94.2769 59.8501 94.2769 59.8501C95.6623 56.8483 96.586 53.8465 97.1632 50.8447Z" fill="#4E4B66"/>
<path d="M94.275 60.3101H94.1596C93.9287 60.1947 93.6978 59.9638 93.6978 59.7329C93.6978 59.7329 93.9287 55.8074 93.9287 50.4965C93.9287 50.2656 94.0441 50.1501 94.1596 50.0346C94.275 49.9192 94.5059 49.9192 94.6214 49.9192C95.4296 50.2656 96.2378 50.2656 97.0459 50.2656C97.1614 50.2656 97.3923 50.2656 97.5078 50.381C97.6232 50.4965 97.6232 50.7274 97.6232 50.8428C97.0459 54.0756 96.0069 57.1928 94.7368 59.9638C94.6214 60.1947 94.5059 60.3101 94.275 60.3101ZM94.9678 51.1892C94.9678 53.3828 94.9678 55.2301 94.8523 56.731C95.4296 54.9992 96.0068 53.2674 96.3532 51.4201C96.0068 51.4201 95.545 51.3047 94.9678 51.1892Z" fill="#4E4B66"/>
<path d="M96.4695 38.8375C96.9313 38.8375 97.2777 38.8375 97.6241 38.9529C96.8159 28.3311 92.8904 20.1338 92.8904 20.1338L90.6968 24.5211C92.4286 28.562 93.3522 34.1038 93.9295 39.4147C94.7377 39.0684 95.5459 38.8375 96.4695 38.8375Z" fill="#4E4B66"/>
<path d="M93.9288 39.9902C93.8133 39.9902 93.6978 39.9902 93.6978 39.8747C93.5824 39.7593 93.4669 39.6438 93.4669 39.4129C92.8897 33.1783 91.8506 28.2138 90.3497 24.6347C90.2342 24.5192 90.3497 24.2883 90.3497 24.1729L92.5433 19.7856C92.6588 19.5547 92.7742 19.4392 93.0051 19.4392C93.236 19.4392 93.3515 19.5547 93.4669 19.7856C93.4669 19.901 97.3924 28.2138 98.2006 38.8356C98.2006 38.9511 98.2006 39.182 97.9697 39.2974C97.8542 39.4129 97.6233 39.4129 97.5078 39.4129C96.3533 39.182 95.1988 39.2974 94.1597 39.8747C94.1597 39.9902 94.0442 39.9902 93.9288 39.9902ZM91.3887 24.5192C92.7742 27.9829 93.8133 32.7165 94.506 38.6047C95.3142 38.2583 96.2379 38.1429 97.1615 38.2583C96.4688 30.292 94.0442 23.8265 93.0051 21.2865L91.3887 24.5192Z" fill="#4E4B66"/>
<path d="M37.5881 29.1388C37.5881 29.1388 38.6272 21.5188 45.4391 24.5206C52.2509 27.5225 87.811 48.9971 94.2765 18.517C94.2765 18.517 94.161 18.4015 91.3901 17.247C89.7737 16.5543 86.6564 14.9379 84.2319 10.3197C81.8073 5.70151 71.7628 -1.57215 55.9454 2.58423C40.2436 6.62515 37.0109 17.4779 37.5881 29.1388Z" fill="#4E4B66"/>
<path d="M76.0334 35.1411C65.6425 35.1411 53.7506 29.2529 47.9779 26.3665C46.8234 25.7892 45.8997 25.3274 45.207 24.981C43.3597 24.1729 41.8588 24.1729 40.7042 24.7501C38.5106 25.9047 38.0488 29.1374 38.0488 29.1374C38.0488 29.3683 37.8179 29.5992 37.4715 29.5992C37.2406 29.5992 37.0097 29.3683 37.0097 29.1374C36.317 14.1283 42.3206 5.46917 55.8288 2.00553C72.108 -2.2663 82.268 5.70008 84.6925 10.2028C86.8862 14.2437 89.6571 16.091 91.6198 16.8992C94.3907 18.0537 94.6217 18.1692 94.6217 18.2847C94.7371 18.4001 94.8526 18.631 94.7371 18.7465C93.1207 26.0201 89.7726 30.9847 84.6925 33.4092C82.1525 34.6792 79.1507 35.1411 76.0334 35.1411ZM42.5515 23.2492C43.4752 23.2492 44.5143 23.4801 45.6688 23.9419C46.3615 24.2883 47.2852 24.7501 48.4397 25.3274C55.8288 29.022 73.1471 37.6811 84.2307 32.3701C88.9644 30.0611 92.0817 25.5583 93.5826 18.8619C93.2362 18.7465 92.5435 18.4001 91.158 17.8228C89.0798 17.0147 85.9625 15.0519 83.6534 10.6646C81.4598 6.39281 71.7616 -0.996297 56.1752 3.04462C44.1679 6.1619 38.2797 13.551 38.0488 26.0201C38.5106 25.2119 39.2033 24.2883 40.127 23.8265C40.9352 23.4801 41.6279 23.2492 42.5515 23.2492Z" fill="#4E4B66"/>
<path d="M65.8735 139.859C55.829 139.05 25.8107 107.762 24.5407 106.377C24.4253 106.261 24.3098 106.03 24.4253 105.915C24.4253 105.684 24.5407 105.569 24.7716 105.569L31.3526 102.913C31.5835 102.798 31.8144 102.913 31.9298 103.029C32.1607 103.259 52.8272 128.313 64.4881 133.047C67.0281 131.315 88.1563 116.306 97.2773 103.49C97.3927 103.259 97.7391 103.259 97.97 103.259L103.512 105.569C103.627 105.684 103.743 105.799 103.858 105.915C103.858 106.03 103.858 106.261 103.743 106.377C88.5027 125.08 66.4508 139.628 66.2199 139.743C66.1045 139.859 65.989 139.859 65.8735 139.859ZM25.9262 106.261C30.0826 110.533 56.6372 137.665 65.7581 138.82C67.7208 137.434 88.0409 123.695 102.473 106.261L98.0854 104.414C88.2718 118.038 65.2963 133.855 65.0654 134.086C64.9499 134.201 64.719 134.201 64.6035 134.201C53.1735 129.814 34.1235 107.185 31.5835 104.068L25.9262 106.261Z" fill="#4E4B66"/>
<path d="M72.9161 30.0612C64.9497 30.0612 60.3315 27.0593 56.2906 24.4039C53.0579 22.3257 50.287 20.4784 46.3615 20.363C43.3597 20.2475 41.166 21.0557 39.7806 22.5566C37.7024 24.7502 38.0488 27.983 38.0488 27.983C38.0488 28.3293 37.8178 28.5602 37.5869 28.5602C37.2406 28.5602 37.0097 28.3293 37.0097 28.0984C37.0097 27.983 36.6633 24.4039 38.9724 21.7484C40.5888 20.0166 43.1288 19.0929 46.3615 19.2084C50.5179 19.3239 53.6352 21.2866 56.8679 23.3648C61.3706 26.2512 66.3352 29.4839 75.8025 28.6757C89.6571 27.5212 93.8134 18.2848 93.8134 18.1693C93.9289 17.9384 94.2752 17.7075 94.5062 17.8229C94.7371 17.9384 94.968 18.2848 94.8525 18.5157C94.7371 18.9775 90.4652 28.4448 75.9179 29.7148C74.8788 29.9457 73.8397 30.0612 72.9161 30.0612Z" fill="#4E4B66"/>
<path d="M74.3019 23.1339C67.721 23.1339 63.5646 20.5939 59.9855 18.4002C56.8682 16.4375 54.0973 14.8211 50.2873 14.9366C41.8591 15.2829 38.5109 20.3629 38.5109 20.3629C38.3955 20.5939 38.0491 20.7093 37.7027 20.4784C37.4718 20.3629 37.3564 20.0166 37.5873 19.6702C37.7027 19.4393 41.1664 14.1284 50.2873 13.6666C54.4437 13.4357 57.4455 15.2829 60.5628 17.2457C64.2574 19.5548 68.4137 22.0948 75.4565 21.7484C87.9256 21.5175 90.9274 17.0148 90.9274 17.0148C91.0429 16.7838 91.3892 16.6684 91.7356 16.8993C91.9665 17.0148 92.082 17.3611 91.9665 17.592C91.8511 17.8229 88.7338 22.5566 75.5719 23.1339C75.1101 23.1339 74.7637 23.1339 74.3019 23.1339Z" fill="#4E4B66"/>
<path d="M82.3835 17.9384C77.188 17.9384 73.1471 15.7447 68.9908 13.4356C65.4117 11.4729 61.8326 9.51016 57.2144 8.81743C45.5534 7.20106 39.7807 16.322 39.7807 16.4374C39.6652 16.6684 39.3189 16.7838 38.9725 16.6684C38.7416 16.5529 38.6261 16.2065 38.7416 15.8602C38.857 15.7447 44.9761 6.04651 57.3298 7.77834C62.0635 8.47107 65.8735 10.4338 69.4526 12.512C75.1099 15.6293 80.5362 18.5156 89.0799 15.7447C89.3108 15.6293 89.6572 15.8602 89.7726 16.0911C89.8881 16.322 89.6572 16.6684 89.4263 16.7838C86.7708 17.592 84.4617 17.9384 82.3835 17.9384Z" fill="#4E4B66"/>
<path d="M85.7318 13.3202C85.7318 13.3202 85.6164 13.3202 85.7318 13.3202C82.8455 13.0893 80.7673 11.9348 78.2273 10.4339C75.4564 8.8175 71.8773 6.73931 65.7582 4.89204C54.2127 1.42839 46.2463 7.66295 46.1308 7.66295C45.8999 7.89386 45.5536 7.77841 45.3226 7.5475C45.0917 7.31659 45.2072 6.97022 45.4381 6.73931C45.5536 6.62386 53.9818 0.0429327 65.9891 3.73749C72.2236 5.58477 75.8027 7.66295 78.6891 9.39477C81.2291 10.8957 83.0764 11.9348 85.7318 12.1657C86.0782 12.1657 86.3091 12.3966 86.1937 12.743C86.1937 13.0893 85.9627 13.3202 85.7318 13.3202Z" fill="#4E4B66"/>
<path d="M33.4308 39.4128C33.0844 39.4128 32.8535 39.1819 32.8535 38.8355C32.969 30.061 37.1253 21.4019 37.3563 21.0555C37.4717 20.8246 37.8181 20.7091 38.049 20.8246C38.2799 20.94 38.3953 21.2864 38.2799 21.5173C38.2799 21.6328 34.0081 30.2919 33.8926 38.8355C34.0081 39.1819 33.7772 39.4128 33.4308 39.4128Z" fill="#4E4B66"/>
<path d="M35.0469 55.3459C34.9315 55.3459 34.9315 55.3459 35.0469 55.3459C33.1997 54.9995 32.9688 51.5359 32.9688 50.8431C32.9688 50.4968 33.1997 50.2659 33.546 50.2659C33.8924 50.2659 34.1233 50.4968 34.1233 50.8431C34.2388 52.3441 34.7006 54.1913 35.1624 54.3068C35.5088 54.3068 35.6242 54.6532 35.6242 54.8841C35.5088 55.115 35.2778 55.3459 35.0469 55.3459Z" fill="#4E4B66"/>
<path d="M43.4754 43.4538C43.3599 43.4538 43.129 43.3383 43.0136 43.2229C42.7827 42.992 42.8981 42.6456 43.129 42.4147C43.2445 42.2992 46.7081 39.5283 53.1736 38.2583C53.5199 38.1428 53.7509 38.3738 53.8663 38.7201C53.9818 39.0665 53.7509 39.2974 53.4045 39.4129C47.2854 40.6829 43.9372 43.3383 43.8217 43.3383C43.7063 43.4538 43.5908 43.4538 43.4754 43.4538Z" fill="#4E4B66"/>
<path d="M88.2718 43.4538C88.1563 43.4538 88.0409 43.4538 87.9254 43.3383C87.9254 43.3383 84.4618 40.5674 78.3427 39.4128C77.9963 39.2974 77.8809 39.0665 77.8809 38.7201C77.9963 38.3738 78.2272 38.2583 78.5736 38.2583C84.9236 39.5283 88.3873 42.2992 88.6182 42.4147C88.8491 42.6456 88.8491 42.9919 88.7336 43.2229C88.6182 43.4538 88.5027 43.4538 88.2718 43.4538Z" fill="#4E4B66"/>
<path d="M66.5659 65.5055C64.3723 65.5055 61.9477 65.2746 60.6777 65.0437C60.3314 64.9283 60.2159 64.6974 60.3314 64.351C60.4468 64.0046 60.6777 63.8892 61.0241 64.0046C63.4487 64.5819 69.7987 64.5819 71.1841 64.0046C71.7614 63.1964 71.5305 54.5373 70.8378 46.6864C70.8378 46.34 71.0687 46.1091 71.2996 46.1091C71.646 46.1091 71.8769 46.34 71.8769 46.571C72.5696 54.6528 73.0314 64.351 71.5305 64.9283C70.7223 65.3901 68.6441 65.5055 66.5659 65.5055Z" fill="#4E4B66"/>
<path d="M37.4728 54.7699C38.0501 56.8481 39.551 59.1572 42.7837 61.1199C45.4392 60.1963 47.2864 58.1181 47.2864 55.5781C47.2864 52.2299 43.8228 49.5745 39.551 49.5745C38.6273 49.5745 37.7037 49.6899 36.8955 49.9208C37.1264 52.1145 37.2419 53.7308 37.4728 54.7699Z" fill="#FF0282"/>
<path d="M42.8979 61.6959C42.7824 61.6959 42.667 61.6959 42.667 61.5804C38.8569 59.2713 37.4715 56.6159 37.0097 54.884C36.7788 53.9604 36.6633 52.344 36.5479 49.9195C36.5479 49.6886 36.6633 49.4577 36.8942 49.3422C37.8179 49.1113 38.7415 48.9958 39.6651 48.9958C44.1679 48.9958 47.8624 51.9977 47.8624 55.5768C47.8624 58.2322 45.8997 60.5413 42.8979 61.5804C43.0133 61.6959 42.8979 61.6959 42.8979 61.6959ZM38.0488 54.6531C38.3951 56.1541 39.5497 58.4631 42.8979 60.5413C45.3224 59.6177 46.8233 57.655 46.8233 55.6922C46.8233 52.6904 43.5906 50.1504 39.6651 50.1504C38.9724 50.1504 38.2797 50.2659 37.5869 50.3813C37.7024 52.344 37.8179 53.845 38.0488 54.6531Z" fill="#4E4B66"/>
<path d="M86.6571 61.5819C90.5826 59.0419 92.0835 56.1556 92.5453 54.7701C92.7762 54.1928 92.7762 52.6919 92.7762 50.6137C92.0835 50.4983 91.2753 50.3828 90.5826 50.3828C86.3108 50.3828 82.8471 53.0383 82.8471 56.3865C82.7317 58.5801 84.348 60.5428 86.6571 61.5819Z" fill="#FF0282"/>
<path d="M86.6554 62.1576C86.5399 62.1576 86.5399 62.1576 86.4244 62.1576C83.8844 61.0031 82.2681 58.8094 82.2681 56.3849C82.2681 52.8058 85.9626 49.804 90.4654 49.804C91.2735 49.804 92.0817 49.9194 92.8899 50.0349C93.1208 50.1503 93.3517 50.2658 93.3517 50.6121C93.3517 53.7294 93.2363 54.5376 93.1208 54.884C92.7745 56.154 91.389 59.2712 87.0017 62.0422C86.7708 62.1576 86.6554 62.1576 86.6554 62.1576ZM90.4654 50.9585C86.5399 50.9585 83.3072 53.3831 83.3072 56.5003C83.3072 58.3476 84.5772 60.0794 86.5399 61.1185C90.3499 58.5785 91.6199 55.8076 91.9663 54.7685C92.0817 54.4221 92.1972 53.614 92.1972 51.1894C91.6199 50.9585 91.0426 50.9585 90.4654 50.9585Z" fill="#4E4B66"/>
<path d="M91.5063 26.137C91.5063 26.137 93.3536 51.8834 92.4299 54.7698C91.5063 57.6561 86.6572 66.4307 65.8753 66.0843C45.7862 65.738 38.7434 59.7343 37.4734 54.7698C36.2034 49.8052 38.0507 27.2915 38.0507 27.2915L37.2425 30.7552C37.2425 30.7552 23.157 92.8699 64.9517 92.8699C106.977 92.8699 91.5063 26.137 91.5063 26.137ZM65.8753 77.2835C56.8698 77.2835 56.2926 71.8571 56.2926 71.8571C56.2926 71.8571 64.9517 73.9353 74.8808 71.8571C74.8808 71.8571 74.8808 77.2835 65.8753 77.2835Z" fill="#4E4B66"/>
<path d="M64.9503 93.4458C55.3675 93.4458 47.863 90.2131 42.7829 83.7476C35.5093 74.6267 34.2393 60.6566 34.4702 50.4966C34.7011 39.5284 36.7793 30.6384 36.7793 30.6384L37.5875 27.1747C37.7029 26.9438 37.9338 26.7129 38.1647 26.7129C38.3957 26.7129 38.6266 27.0593 38.6266 27.2902C38.6266 27.5211 36.7793 49.8039 38.0493 54.653C38.6266 57.0775 42.4366 65.1594 65.8739 65.5057C87.2331 65.8521 91.274 56.5003 91.9667 54.653C92.6594 52.3439 91.5049 33.4093 91.0431 26.2511C91.0431 26.0202 91.274 25.6738 91.5049 25.6738C91.7358 25.6738 92.0822 25.7893 92.0822 26.1356C92.0822 26.2511 94.3913 36.0648 94.8531 48.0721C95.3149 59.1557 94.1603 74.3958 86.5403 84.094C81.4603 90.2131 74.1867 93.4458 64.9503 93.4458ZM37.0102 35.4875C35.3938 45.5321 32.9693 69.7776 43.5911 83.0549C48.5557 89.174 55.7139 92.2913 64.9503 92.2913C73.8403 92.2913 80.7676 89.174 85.6167 83.1703C95.3149 71.0476 94.3912 49.3421 92.7749 36.5266C93.2367 44.0311 93.5831 53.1521 93.0058 54.8839C92.3131 56.8466 88.0412 66.8912 65.8739 66.5448C42.3211 66.1985 37.8184 58.2321 37.0102 54.8839C36.202 51.8821 36.5484 42.4148 37.0102 35.4875ZM65.8739 77.8594C56.5221 77.8594 55.7139 72.0867 55.7139 71.8558C55.7139 71.6249 55.7139 71.5094 55.9448 71.3939C56.0602 71.2785 56.2912 71.2785 56.4066 71.2785C56.5221 71.2785 65.0657 73.3567 74.7639 71.2785C74.8794 71.2785 75.1103 71.2785 75.2257 71.3939C75.3412 71.5094 75.4567 71.6249 75.4567 71.8558C75.4567 71.8558 75.3412 77.8594 65.8739 77.8594ZM56.9839 72.5485C57.5612 73.9339 59.4084 76.8203 65.8739 76.8203C72.3394 76.8203 73.8403 73.9339 74.1867 72.5485C66.4512 74.0494 59.4084 73.0103 56.9839 72.5485Z" fill="#4E4B66"/>
<path d="M96.4693 51.4202C95.6611 51.4202 94.8529 51.1893 94.0447 50.9584C93.8138 50.843 93.6983 50.4966 93.8138 50.2657C93.9293 50.0348 94.2756 49.9193 94.5065 50.0348C95.0838 50.2657 95.7765 50.4966 96.4693 50.4966C99.3556 50.4966 101.665 48.072 101.665 45.0702C101.665 42.0684 99.3556 39.6438 96.4693 39.6438C95.6611 39.6438 94.9683 39.8747 94.2756 40.2211C94.0447 40.3366 93.6983 40.2211 93.5829 39.9902C93.4674 39.7593 93.5829 39.4129 93.8138 39.2975C94.622 38.8356 95.5456 38.6047 96.5847 38.6047C100.048 38.6047 102.819 41.4911 102.819 45.0702C102.704 48.4184 99.9329 51.4202 96.4693 51.4202Z" fill="#4E4B66"/>
<path d="M95.7765 48.303C95.1992 48.303 94.6219 48.1876 94.0447 47.9567C93.8138 47.8412 93.5828 47.4949 93.6983 47.264C93.8138 47.033 94.1601 46.8021 94.391 46.9176C94.7374 47.033 95.1992 47.1485 95.661 47.1485C97.1619 47.1485 98.4319 46.1094 98.4319 44.8394C98.4319 43.5694 97.1619 42.5303 95.661 42.5303C95.0838 42.5303 94.5065 42.6458 94.0447 42.9921C93.8138 43.1076 93.4674 42.9921 93.3519 42.7612C93.2365 42.5303 93.3519 42.1839 93.5828 42.0685C94.1601 41.7221 94.9683 41.4912 95.661 41.4912C97.8547 41.4912 99.5865 42.9921 99.5865 44.8394C99.702 46.6867 97.9701 48.303 95.7765 48.303Z" fill="#4E4B66"/>
<path d="M33.4309 51.4202C29.9672 51.4202 27.1963 48.5338 27.1963 44.9547C27.1963 41.3756 29.9672 38.4893 33.4309 38.4893C34.239 38.4893 35.0472 38.6047 35.8554 38.9511C36.0863 39.0665 36.2018 39.4129 36.0863 39.6438C35.9709 39.8747 35.6245 39.9902 35.3936 39.8747C34.8163 39.6438 34.1236 39.4129 33.4309 39.4129C30.5445 39.4129 28.2354 41.8374 28.2354 44.8393C28.2354 47.8411 30.5445 50.2657 33.4309 50.2657C34.0081 50.2657 34.3545 50.2657 34.8163 50.0347C35.1627 49.9193 35.3936 50.1502 35.509 50.3811C35.6245 50.612 35.3936 50.9584 35.1627 51.0738C34.5854 51.3047 34.1236 51.4202 33.4309 51.4202Z" fill="#4E4B66"/>
<path d="M34.1232 48.3028C31.9296 48.3028 30.1978 46.8019 30.1978 44.9546C30.1978 43.1074 31.9296 41.6064 34.1232 41.6064C34.7005 41.6064 35.2778 41.7219 35.7396 41.9528C35.9705 42.0683 36.2014 42.4146 36.086 42.6455C35.9705 42.8764 35.6241 43.1074 35.3932 42.9919C35.0469 42.8764 34.585 42.761 34.1232 42.761C32.6223 42.761 31.3523 43.8001 31.3523 45.0701C31.3523 46.3401 32.6223 47.3792 34.1232 47.3792C34.3541 47.3792 34.585 47.3792 34.9314 47.2637C35.2778 47.1483 35.5087 47.3792 35.6241 47.7256C35.7396 48.0719 35.5087 48.3028 35.1623 48.4183C34.8159 48.1874 34.4696 48.3028 34.1232 48.3028Z" fill="#4E4B66"/>
<path d="M126.834 141.821H1.44963C1.21872 141.821 0.872355 141.59 0.872355 141.36C0.872355 141.129 -0.628558 116.883 16.9206 109.032C34.1234 101.181 38.0488 100.604 38.2797 100.604C38.6261 100.604 38.857 100.719 38.857 101.066C38.857 101.412 38.7415 101.643 38.3952 101.643C38.3952 101.643 34.3543 102.336 17.3824 109.956C8.60783 113.881 4.91327 122.194 3.29691 128.429C1.91145 134.086 1.91145 139.166 1.91145 140.782H126.256C126.256 139.166 126.372 134.086 124.871 128.429C123.254 122.194 119.56 113.881 110.785 109.956C93.8135 102.22 89.7726 101.643 89.7726 101.643C89.4262 101.643 89.3108 101.297 89.3108 101.066C89.3108 100.719 89.6571 100.604 89.888 100.604C90.0035 100.604 93.929 101.297 111.247 109.032C128.796 116.999 127.295 141.129 127.295 141.36C127.411 141.59 127.065 141.821 126.834 141.821Z" fill="#4E4B66"/>
</svg>
