<svg width="117" height="99" viewBox="0 0 117 99" fill="none" xmlns="http://www.w3.org/2000/svg">
<path d="M94.0793 41.4132C92.1497 27.4565 87.2429 11.961 78.6173 8.37438C69.9512 4.82126 57.6069 13.1436 46.3076 22.5645C35.0083 31.9854 24.7136 42.5385 26.2501 52.9698C27.7091 63.3898 40.9623 73.6432 54.1911 78.1789C67.4604 82.6811 80.6277 81.4543 87.7944 74.621C94.961 67.7876 96.0088 55.3698 94.0793 41.4132Z" fill="#F7F7FC"/>
<path d="M76.8328 73.5684C75.9622 75.4545 75.182 77.4199 74.4205 79.3695C74.331 79.5987 74.2417 79.8277 74.1526 80.0563C73.4818 81.7771 72.8191 83.4769 72.1097 85.1079C70.4997 88.8094 68.6772 92.0864 66.0689 94.3398C60.9075 98.7919 52.4152 99.2455 44.7101 97.6839L44.7069 97.6833C37.0421 96.1817 30.2429 92.6581 23.4375 88.8374L23.4364 88.8367C16.6796 85.0662 10.1202 80.9754 5.89753 75.1577C1.67882 69.2929 -0.225913 61.6214 0.751411 54.5245L0.751927 54.5205C1.67854 47.3664 5.49305 40.8019 9.57866 34.4652C13.6584 28.1376 17.8691 22.1662 23.6265 17.136L23.6284 17.1344C29.4053 12.035 36.5667 7.94203 43.6628 7.99237C47.2038 8.04367 50.7435 9.15252 54.2828 10.8116C57.8239 12.4716 61.3327 14.6665 64.8186 16.8677C71.8521 21.3284 78.5118 25.6741 82.6328 31.8024C86.6966 37.9238 88.2366 45.8464 86.6452 52.8268C85.8495 56.3171 84.2671 59.592 82.4385 62.9613C81.9631 63.8372 81.4702 64.7207 80.971 65.6158C79.5597 68.1459 78.0973 70.7678 76.8328 73.5684ZM76.8328 73.5684C76.8331 73.5677 76.8335 73.567 76.8338 73.5663L77.2877 73.7758L76.832 73.5701C76.8323 73.5695 76.8325 73.5689 76.8328 73.5684Z" stroke="#D6D8E7"/>
<path d="M55.6047 34.1988C56.6169 34.1988 57.549 34.1975 58.4825 34.1988C59.3666 34.2001 59.6053 34.4388 59.6053 35.3256C59.6053 45.9911 59.6053 56.6566 59.6053 67.3221C59.6053 70.8386 59.6053 74.3551 59.6053 77.8716C59.6053 78.7611 59.3653 79.0051 58.4878 79.0051C48.0383 79.0051 37.5902 79.0051 27.1407 79.0051C26.2313 79.0051 26.0019 78.7704 26.0006 77.8449C26.0006 77.1822 26.0006 76.5194 26.0006 75.806C24.9951 75.806 24.0336 75.8073 23.0722 75.806C22.2574 75.8047 22 75.5473 22 74.7285C22 60.5132 22 46.2978 22 32.0825C22 31.2597 22.2547 31.001 23.0668 31.001C33.5496 30.9997 44.0311 30.9997 54.5139 31.001C55.3567 31.001 55.6034 31.253 55.6047 32.1105C55.6061 32.7879 55.6047 33.4667 55.6047 34.1988ZM57.9704 77.3822C57.9704 63.5029 57.9704 49.665 57.9704 35.839C47.8303 35.839 37.7249 35.839 27.6275 35.839C27.6275 49.7063 27.6275 63.5336 27.6275 77.3822C37.7476 77.3822 47.841 77.3822 57.9704 77.3822ZM26.0006 74.1804C26.0006 73.9284 26.0006 73.7137 26.0006 73.5003C26.0006 60.8025 26.0006 48.1034 26.0006 35.4056C26.0006 34.4121 26.2113 34.1988 27.1927 34.1988C35.9246 34.1988 44.6565 34.1988 53.3884 34.1988C53.5818 34.1988 53.7752 34.1988 53.9672 34.1988C53.9672 33.6307 53.9672 33.1253 53.9672 32.6386C43.8257 32.6386 33.7203 32.6386 23.6256 32.6386C23.6256 46.5045 23.6256 60.3305 23.6256 74.1804C24.4097 74.1804 25.1698 74.1804 26.0006 74.1804Z" fill="#4E4B66"/>
<path d="M62.7538 41.3998C62.9351 40.0583 63.0938 39.7769 63.6419 39.8036C64.1793 39.8289 64.338 40.1356 64.434 41.3612C64.9207 41.3972 65.4195 41.3932 65.9022 41.4785C67.8278 41.8212 69.184 43.4134 69.2 45.3697C69.22 47.7034 69.22 50.037 69.196 52.3694C69.1907 52.9548 69.2787 53.4842 69.5881 53.9829C69.7281 54.2083 69.8388 54.4537 69.9361 54.7017C70.1015 55.1218 69.9441 55.5218 69.5587 55.7152C69.18 55.9045 68.7386 55.7979 68.5252 55.3991C68.0078 54.4377 67.5278 53.5002 67.5784 52.312C67.6745 50.049 67.6078 47.7794 67.6051 45.5137C67.6038 44.5109 67.1744 43.7548 66.2916 43.2668C66.2236 43.2294 66.1436 43.2161 66.0062 43.1694C66.0062 43.4148 66.0062 43.6068 66.0062 43.8002C66.0062 53.2668 66.0075 62.7335 66.0022 72.2002C66.0022 72.4629 65.9875 72.7363 65.9182 72.9883C65.4315 74.7352 64.9207 76.4754 64.4327 78.221C64.3086 78.6664 64.0939 78.9998 63.5952 78.9945C63.0951 78.9891 62.8964 78.6424 62.7724 78.201C62.2884 76.4701 61.7829 74.7459 61.3002 73.015C61.2255 72.7482 61.2095 72.4575 61.2095 72.1775C61.2055 62.3441 61.2055 52.5107 61.2055 42.6773C61.2055 41.5825 61.3776 41.4092 62.4764 41.3972C62.5591 41.3985 62.6417 41.3998 62.7538 41.3998ZM62.8404 46.2232C62.8404 54.767 62.8404 63.2709 62.8404 71.7628C63.3805 71.7628 63.8872 71.7628 64.3807 71.7628C64.3807 63.2296 64.3807 54.7377 64.3807 46.2232C63.8619 46.2232 63.3685 46.2232 62.8404 46.2232ZM64.382 43.0281C63.8299 43.0281 63.3378 43.0281 62.8378 43.0281C62.8378 43.5601 62.8378 44.0642 62.8378 44.5629C63.3752 44.5629 63.8792 44.5629 64.382 44.5629C64.382 44.0335 64.382 43.5415 64.382 43.0281ZM63.5499 75.0752C63.5872 75.0752 63.6232 75.0752 63.6605 75.0766C63.8166 74.5365 63.9713 73.9964 64.1313 73.4417C63.7552 73.4417 63.4379 73.4417 63.0778 73.4417C63.2445 74.0164 63.3978 74.5458 63.5499 75.0752Z" fill="#4E4B66"/>
<path d="M57.9704 77.3822C47.841 77.3822 37.7476 77.3822 27.6275 77.3822C27.6275 63.5322 27.6275 49.7063 27.6275 35.839C37.7235 35.839 47.829 35.839 57.9704 35.839C57.9704 49.6649 57.9704 63.5042 57.9704 77.3822ZM42.8029 52.6014C46.9368 52.6014 51.0708 52.6014 55.2047 52.6014C55.3714 52.6014 55.5421 52.6187 55.7034 52.588C56.1328 52.508 56.3942 52.2426 56.3942 51.7999C56.3929 51.3585 56.1328 51.0931 55.7021 51.0131C55.5567 50.9865 55.4034 51.0011 55.2527 51.0011C46.9515 51.0011 38.6517 51.0011 30.3505 51.0011C30.2012 51.0011 30.0465 50.9865 29.9011 51.0131C29.4704 51.0931 29.2103 51.3585 29.2117 51.8012C29.2117 52.244 29.473 52.5093 29.9038 52.588C30.0651 52.6174 30.2358 52.6014 30.4025 52.6014C34.5364 52.6014 38.669 52.6014 42.8029 52.6014ZM42.7709 55.8018C46.9048 55.8018 51.0388 55.8018 55.1727 55.8018C55.3394 55.8018 55.5074 55.8125 55.6728 55.7938C56.1075 55.7431 56.4235 55.3964 56.3982 54.983C56.3715 54.5416 56.1181 54.2816 55.6848 54.2122C55.5381 54.1882 55.3847 54.2029 55.2354 54.2029C46.9515 54.2029 38.6677 54.2029 30.3825 54.2029C30.2158 54.2029 30.0451 54.1869 29.8838 54.2189C29.4757 54.2976 29.2384 54.5536 29.2077 54.971C29.1797 55.3644 29.4664 55.7165 29.8718 55.7858C30.0345 55.8138 30.2038 55.8031 30.3705 55.8031C34.5031 55.8018 38.637 55.8018 42.7709 55.8018ZM42.7576 59.0023C46.9075 59.0023 51.0588 59.0023 55.2087 59.0023C55.3754 59.0023 55.5461 59.0196 55.7074 58.9889C56.1368 58.9076 56.3969 58.6395 56.3942 58.1981C56.3915 57.7568 56.1288 57.4927 55.6981 57.4154C55.5527 57.3887 55.3994 57.4034 55.2487 57.4034C46.9475 57.4034 38.6477 57.4034 30.3465 57.4034C30.1972 57.4034 30.0425 57.3887 29.8971 57.4167C29.4664 57.4994 29.2077 57.7647 29.2117 58.2075C29.2143 58.6502 29.4771 58.9142 29.9078 58.9903C30.0691 59.0196 30.2398 59.0023 30.4065 59.0023C34.5231 59.0023 38.641 59.0023 42.7576 59.0023ZM42.8536 60.6025C38.7037 60.6025 34.5524 60.6025 30.4025 60.6025C30.2358 60.6025 30.0651 60.5865 29.9038 60.6145C29.473 60.6918 29.213 60.9572 29.2117 61.3999C29.2103 61.8427 29.4717 62.1067 29.9011 62.188C30.0465 62.216 30.1998 62.2014 30.3505 62.2014C38.6517 62.2014 46.9515 62.2014 55.2527 62.2014C55.402 62.2014 55.5567 62.216 55.7021 62.1894C56.1315 62.1094 56.3942 61.844 56.3942 61.4026C56.3942 60.9612 56.1355 60.6932 55.7034 60.6158C55.5421 60.5865 55.3714 60.6025 55.2047 60.6025C51.0881 60.6025 46.9702 60.6025 42.8536 60.6025ZM42.7536 65.4032C46.9035 65.4032 51.0548 65.4032 55.2047 65.4032C55.3714 65.4032 55.5421 65.4205 55.7034 65.3898C56.1328 65.3098 56.3942 65.0444 56.3942 64.6017C56.3942 64.1603 56.1328 63.8949 55.7021 63.8149C55.5567 63.7883 55.4034 63.8029 55.2527 63.8029C46.9515 63.8029 38.6517 63.8029 30.3505 63.8029C30.2012 63.8029 30.0465 63.7883 29.9011 63.8149C29.4704 63.8949 29.2103 64.1603 29.2103 64.6017C29.2103 65.0444 29.4717 65.3098 29.9024 65.3885C30.0638 65.4178 30.2345 65.4018 30.4012 65.4018C34.5191 65.4032 38.6357 65.4032 42.7536 65.4032ZM42.8536 67.0034C38.7037 67.0034 34.5524 67.0034 30.4025 67.0034C30.2358 67.0034 30.0651 66.9874 29.9038 67.0154C29.473 67.0927 29.213 67.3594 29.213 67.8008C29.213 68.2436 29.4744 68.5076 29.9038 68.5889C30.0491 68.617 30.2025 68.6023 30.3532 68.6023C38.6543 68.6023 46.9542 68.6023 55.2554 68.6023C55.4047 68.6023 55.5594 68.6169 55.7048 68.5903C56.1341 68.5089 56.3969 68.2449 56.3969 67.8035C56.3969 67.3621 56.1368 67.0941 55.7061 67.0167C55.5447 66.9874 55.374 67.0034 55.2073 67.0034C51.0868 67.0034 46.9702 67.0034 42.8536 67.0034ZM39.5891 41.2638C39.6158 40.2409 39.5491 40.1156 38.9371 39.7475C37.7542 39.0354 36.5661 38.3313 35.3872 37.6126C35.0098 37.3819 34.6645 37.3432 34.2697 37.5846C33.0216 38.3487 31.764 39.0994 30.5052 39.8462C30.1331 40.0663 29.9531 40.3756 30.0091 40.7984C30.0985 41.4731 30.1571 42.1585 30.3225 42.816C30.9093 45.1483 32.1401 47.0459 34.1924 48.3688C34.5818 48.6195 34.9485 48.6901 35.3459 48.4021C37.8862 46.5618 39.3971 44.1335 39.5891 41.2638ZM45.4473 72.0681C45.306 71.8041 45.2179 71.6267 45.1166 71.4574C44.8419 71.0013 44.4272 70.8866 43.9671 71.14C43.8217 71.22 43.6764 71.308 43.551 71.4147C42.4536 72.3508 41.2227 72.8522 39.7558 72.6055C39.7078 72.5975 39.6558 72.6028 39.6065 72.6068C39.1304 72.6442 38.809 72.9642 38.8077 73.4003C38.805 73.8364 39.1264 74.1791 39.5998 74.1977C41.1147 74.2591 42.6482 74.3778 43.8431 73.1429C43.8991 73.0856 43.9818 73.0562 44.0871 72.9922C44.1698 73.1469 44.2485 73.2896 44.3218 73.435C44.8019 74.3818 45.2819 74.4564 46.0381 73.7017C46.4314 73.3096 46.8248 72.9176 47.2409 72.5028C47.9197 74.3071 47.5196 74.2137 49.6706 74.2031C50.0373 74.2017 50.404 74.2031 50.7707 74.2031C52.3536 74.2031 53.9365 74.2084 55.5194 74.1991C56.0608 74.1964 56.4102 73.8564 56.4009 73.387C56.3915 72.9349 56.0541 72.6269 55.5394 72.6042C55.4234 72.5988 55.306 72.6028 55.19 72.6028C53.2897 72.6028 51.3908 72.5868 49.4905 72.6148C49.0732 72.6215 48.8971 72.4882 48.8038 72.1014C48.7064 71.6987 48.5531 71.3093 48.4144 70.9173C48.1357 70.1225 47.5223 69.9678 46.9275 70.5506C46.4408 71.0293 45.9727 71.5267 45.4473 72.0681ZM47.6036 41.3998C47.3369 41.3998 47.0702 41.3998 46.8035 41.3998C45.2366 41.3998 43.6697 41.4011 42.1028 41.3984C41.6921 41.3971 41.3321 41.5505 41.2694 41.9572C41.2294 42.2239 41.3414 42.5853 41.5188 42.7906C41.6574 42.952 42.0002 42.9907 42.2522 42.992C44.7525 43.0053 47.2529 43 49.7519 43C50.8681 43 51.9856 43.0067 53.1017 42.9973C53.6631 42.9933 54.0299 42.6333 53.9978 42.1505C53.9672 41.6865 53.6218 41.4038 53.0524 41.4024C51.2375 41.3971 49.4199 41.3998 47.6036 41.3998ZM47.5529 46.2005C49.3865 46.2005 51.2201 46.2031 53.0537 46.1991C53.6725 46.1978 54.0645 45.8137 53.9952 45.3003C53.9352 44.8469 53.5951 44.6016 53.003 44.6016C50.5694 44.5989 48.1357 44.6002 45.7033 44.6002C44.5032 44.6002 43.303 44.5936 42.1028 44.6029C41.5214 44.6069 41.1454 45.0003 41.212 45.499C41.2707 45.9377 41.6054 46.1965 42.1535 46.1978C43.9538 46.2031 45.7527 46.2005 47.5529 46.2005Z" fill="white"/>
<path d="M26.0006 74.1805C25.1698 74.1805 24.4097 74.1805 23.6256 74.1805C23.6256 60.3305 23.6256 46.5046 23.6256 32.6386C33.7217 32.6386 43.8258 32.6386 53.9672 32.6386C53.9672 33.1253 53.9672 33.6307 53.9672 34.1988C53.7765 34.1988 53.5818 34.1988 53.3884 34.1988C44.6565 34.1988 35.9246 34.1988 27.1927 34.1988C26.2113 34.1988 26.0006 34.4122 26.0006 35.4057C26.0006 48.1034 26.0006 60.8026 26.0006 73.5004C26.0006 73.7151 26.0006 73.9284 26.0006 74.1805Z" fill="white"/>
<path d="M62.8404 46.2232C63.3685 46.2232 63.8619 46.2232 64.3807 46.2232C64.3807 54.7377 64.3807 63.2309 64.3807 71.7628C63.8859 71.7628 63.3805 71.7628 62.8404 71.7628C62.8404 63.2722 62.8404 54.7684 62.8404 46.2232Z" fill="white"/>
<path d="M63.2572 47.032C63.1096 47.0484 63.0179 47.1465 63.0133 47.3134C62.9991 47.5044 63.088 47.6208 63.2479 47.6516C63.4717 47.6924 63.7044 47.6852 63.9247 47.6308C64.0821 47.5903 64.1518 47.469 64.1343 47.279C64.1071 47.1131 64.019 47.0205 63.8705 47.0131C63.7749 47.0042 63.6802 47.019 63.585 47.0219C63.4687 47.0255 63.3625 47.0168 63.2572 47.032Z" fill="#FF0282"/>
<path d="M63.2572 48.032C63.1096 48.0484 63.0179 48.1465 63.0133 48.3134C62.9991 48.5044 63.088 48.6208 63.2479 48.6516C63.4717 48.6924 63.7044 48.6852 63.9247 48.6308C64.0821 48.5903 64.1518 48.469 64.1343 48.279C64.1071 48.1131 64.019 48.0205 63.8705 48.0131C63.7749 48.0042 63.6802 48.019 63.585 48.0219C63.4687 48.0255 63.3625 48.0168 63.2572 48.032Z" fill="#FF0282"/>
<path d="M63.2572 49.032C63.1096 49.0484 63.0179 49.1465 63.0133 49.3134C62.9991 49.5044 63.088 49.6208 63.2479 49.6516C63.4717 49.6924 63.7044 49.6852 63.9247 49.6308C64.0821 49.5903 64.1518 49.469 64.1343 49.279C64.1071 49.1131 64.019 49.0205 63.8705 49.0131C63.7749 49.0042 63.6802 49.019 63.585 49.0219C63.4687 49.0255 63.3625 49.0168 63.2572 49.032Z" fill="#FF0282"/>
<path d="M63.2572 50.032C63.1096 50.0484 63.0179 50.1465 63.0133 50.3134C62.9991 50.5044 63.088 50.6208 63.2479 50.6516C63.4717 50.6924 63.7044 50.6852 63.9247 50.6308C64.0821 50.5903 64.1518 50.469 64.1343 50.279C64.1071 50.1131 64.019 50.0205 63.8705 50.0131C63.7749 50.0042 63.6802 50.019 63.585 50.0219C63.4687 50.0255 63.3625 50.0168 63.2572 50.032Z" fill="#FF0282"/>
<path d="M63.2572 51.032C63.1096 51.0484 63.0179 51.1465 63.0133 51.3134C62.9991 51.5044 63.088 51.6208 63.2479 51.6516C63.4717 51.6924 63.7044 51.6852 63.9247 51.6308C64.0821 51.5903 64.1518 51.469 64.1343 51.279C64.1071 51.1131 64.019 51.0205 63.8705 51.0131C63.7749 51.0042 63.6802 51.019 63.585 51.0219C63.4687 51.0255 63.3625 51.0168 63.2572 51.032Z" fill="#FF0282"/>
<path d="M63.2572 52.032C63.1096 52.0484 63.0179 52.1465 63.0133 52.3134C62.9991 52.5044 63.088 52.6208 63.2479 52.6516C63.4717 52.6924 63.7044 52.6852 63.9247 52.6308C64.0821 52.5903 64.1518 52.469 64.1343 52.279C64.1071 52.1131 64.019 52.0205 63.8705 52.0131C63.7749 52.0042 63.6802 52.019 63.585 52.0219C63.4687 52.0255 63.3625 52.0168 63.2572 52.032Z" fill="#FF0282"/>
<path d="M63.2572 53.032C63.1096 53.0484 63.0179 53.1465 63.0133 53.3134C62.9991 53.5044 63.088 53.6208 63.2479 53.6516C63.4717 53.6924 63.7044 53.6852 63.9247 53.6308C64.0821 53.5903 64.1518 53.469 64.1343 53.279C64.1071 53.1131 64.019 53.0205 63.8705 53.0131C63.7749 53.0042 63.6802 53.019 63.585 53.0219C63.4687 53.0255 63.3625 53.0168 63.2572 53.032Z" fill="#FF0282"/>
<path d="M64.382 43.028C64.382 43.5414 64.382 44.0335 64.382 44.5629C63.8792 44.5629 63.3752 44.5629 62.8378 44.5629C62.8378 44.0642 62.8378 43.5601 62.8378 43.028C63.3378 43.028 63.8299 43.028 64.382 43.028Z" fill="white"/>
<path d="M63.5499 75.0752C63.3965 74.5458 63.2445 74.0164 63.0778 73.4416C63.4378 73.4416 63.7552 73.4416 64.1313 73.4416C63.9713 73.9964 63.8166 74.5364 63.6605 75.0765C63.6245 75.0765 63.5872 75.0752 63.5499 75.0752Z" fill="white"/>
<path d="M42.8029 52.6014C38.669 52.6014 34.5351 52.6014 30.4012 52.6014C30.2345 52.6014 30.0638 52.6174 29.9024 52.5881C29.473 52.5094 29.2117 52.244 29.2103 51.8013C29.2103 51.3586 29.469 51.0932 29.8998 51.0132C30.0451 50.9865 30.1985 51.0012 30.3492 51.0012C38.6503 51.0012 46.9502 51.0012 55.2514 51.0012C55.4007 51.0012 55.5554 50.9865 55.7007 51.0132C56.1315 51.0919 56.3915 51.3572 56.3928 51.8C56.3942 52.2427 56.1328 52.5081 55.7021 52.5881C55.5407 52.6174 55.37 52.6014 55.2033 52.6014C51.0708 52.6014 46.9368 52.6014 42.8029 52.6014Z" fill="#4E4B66"/>
<path d="M42.7709 55.8019C38.637 55.8019 34.5031 55.8019 30.3692 55.8019C30.2025 55.8019 30.0331 55.8125 29.8705 55.7845C29.4664 55.7152 29.1784 55.3631 29.2064 54.9697C29.237 54.5523 29.4744 54.295 29.8825 54.2176C30.0438 54.187 30.2145 54.2016 30.3812 54.2016C38.665 54.2016 46.9489 54.2016 55.234 54.2016C55.3834 54.2016 55.5367 54.187 55.6834 54.211C56.1168 54.2816 56.3689 54.5417 56.3969 54.9817C56.4222 55.3938 56.1062 55.7405 55.6714 55.7925C55.5074 55.8125 55.3381 55.8005 55.1714 55.8005C51.0388 55.8019 46.9049 55.8019 42.7709 55.8019Z" fill="#4E4B66"/>
<path d="M42.7576 59.0023C38.641 59.0023 34.5231 59.0023 30.4065 59.0023C30.2398 59.0023 30.0691 59.0183 29.9078 58.9903C29.4771 58.913 29.2144 58.6503 29.2117 58.2075C29.209 57.7648 29.4677 57.4981 29.8971 57.4167C30.0425 57.3887 30.1958 57.4034 30.3465 57.4034C38.6477 57.4034 46.9475 57.4034 55.2487 57.4034C55.3981 57.4034 55.5527 57.3887 55.6981 57.4154C56.1288 57.4928 56.3915 57.7568 56.3942 58.1982C56.3969 58.6409 56.1368 58.9076 55.7074 58.989C55.5461 59.0196 55.3754 59.0023 55.2087 59.0023C51.0588 59.0023 46.9075 59.0023 42.7576 59.0023Z" fill="#4E4B66"/>
<path d="M42.8536 60.6025C46.9702 60.6025 51.0881 60.6025 55.2047 60.6025C55.3714 60.6025 55.5421 60.5865 55.7034 60.6159C56.1341 60.6945 56.3942 60.9612 56.3942 61.4026C56.3942 61.8454 56.1315 62.1094 55.7021 62.1894C55.5567 62.2161 55.4034 62.2014 55.2527 62.2014C46.9515 62.2014 38.6517 62.2014 30.3505 62.2014C30.2011 62.2014 30.0465 62.2161 29.9011 62.1881C29.4717 62.1067 29.2103 61.8427 29.2117 61.4C29.213 60.9572 29.4717 60.6919 29.9038 60.6145C30.0651 60.5852 30.2358 60.6025 30.4025 60.6025C34.5524 60.6025 38.7037 60.6025 42.8536 60.6025Z" fill="#4E4B66"/>
<path d="M42.7536 65.4032C38.637 65.4032 34.5191 65.4032 30.4025 65.4032C30.2358 65.4032 30.0651 65.4192 29.9038 65.3898C29.4744 65.3111 29.213 65.0458 29.2117 64.6031C29.2117 64.1603 29.4717 63.8963 29.9025 63.8163C30.0478 63.7896 30.2012 63.8043 30.3519 63.8043C38.653 63.8043 46.9529 63.8043 55.254 63.8043C55.4034 63.8043 55.5581 63.7896 55.7034 63.8163C56.1342 63.8963 56.3942 64.1617 56.3955 64.6031C56.3955 65.0458 56.1342 65.3112 55.7048 65.3912C55.5434 65.4205 55.3727 65.4045 55.206 65.4045C51.0534 65.4032 46.9035 65.4032 42.7536 65.4032Z" fill="#4E4B66"/>
<path d="M42.8536 67.0034C46.9702 67.0034 51.0881 67.0034 55.2047 67.0034C55.3714 67.0034 55.5421 66.9874 55.7034 67.0167C56.1341 67.0954 56.3942 67.3621 56.3942 67.8035C56.3942 68.2462 56.1315 68.5103 55.7021 68.5903C55.5567 68.6169 55.4034 68.6023 55.2527 68.6023C46.9515 68.6023 38.6517 68.6023 30.3505 68.6023C30.2011 68.6023 30.0465 68.6169 29.9011 68.5889C29.4717 68.5076 29.2103 68.2436 29.2103 67.8008C29.2103 67.3581 29.4704 67.0927 29.9011 67.0154C30.0625 66.986 30.2332 67.0034 30.3998 67.0034C34.5524 67.0034 38.7023 67.0034 42.8536 67.0034Z" fill="#4E4B66"/>
<path d="M39.5891 41.2638C39.3971 44.1335 37.8862 46.5618 35.3445 48.4008C34.9472 48.6875 34.5804 48.6181 34.191 48.3674C32.1388 47.0446 30.9093 45.147 30.3212 42.8146C30.1558 42.1572 30.0971 41.4718 30.0078 40.797C29.9518 40.3743 30.1318 40.0663 30.5039 39.8449C31.764 39.0995 33.0202 38.3487 34.2684 37.5832C34.6618 37.3419 35.0072 37.3819 35.3859 37.6112C36.5647 38.3313 37.7529 39.0341 38.9357 39.7462C39.5491 40.1156 39.6158 40.2409 39.5891 41.2638ZM34.7911 46.8285C36.5834 45.391 37.7222 43.6054 37.9569 41.3064C37.9702 41.1757 37.8396 40.9704 37.7182 40.893C36.8594 40.353 35.9926 39.8222 35.1085 39.3262C34.9498 39.2368 34.6578 39.2475 34.4911 39.3355C33.9177 39.6355 33.3709 39.9902 32.8149 40.325C31.508 41.1104 31.4987 41.1131 31.9227 42.6039C32.4081 44.3135 33.2843 45.7657 34.7911 46.8285Z" fill="#FF0282"/>
<path d="M45.4473 72.0681C45.9727 71.5281 46.4408 71.0293 46.9275 70.5519C47.5223 69.9692 48.1357 70.1252 48.4144 70.9186C48.5517 71.3107 48.7051 71.7001 48.8038 72.1028C48.8971 72.4882 49.0731 72.6215 49.4905 72.6162C51.3895 72.5882 53.2897 72.6042 55.19 72.6042C55.306 72.6042 55.4234 72.6002 55.5394 72.6055C56.0541 72.6282 56.3915 72.9363 56.4008 73.3883C56.4102 73.8577 56.0608 74.1978 55.5194 74.2004C53.9365 74.2098 52.3536 74.2044 50.7707 74.2044C50.404 74.2044 50.0373 74.2031 49.6706 74.2044C47.5196 74.2151 47.9196 74.3084 47.2409 72.5042C46.8248 72.9189 46.4314 73.311 46.038 73.703C45.2806 74.4578 44.8019 74.3831 44.3218 73.4363C44.2485 73.291 44.1698 73.1483 44.0871 72.9936C43.9831 73.0563 43.8991 73.0869 43.8431 73.1443C42.6469 74.3791 41.1147 74.2604 39.5998 74.1991C39.1251 74.1804 38.805 73.8364 38.8077 73.4017C38.8104 72.9643 39.1304 72.6455 39.6065 72.6082C39.6558 72.6042 39.7078 72.5989 39.7558 72.6069C41.2227 72.8536 42.4535 72.3522 43.551 71.416C43.6764 71.3094 43.8231 71.2213 43.9671 71.1413C44.4258 70.8866 44.8419 71.0026 45.1166 71.4587C45.2179 71.6254 45.3059 71.8041 45.4473 72.0681Z" fill="#FF0282"/>
<path d="M47.6036 41.3998C49.4199 41.3998 51.2375 41.3972 53.0537 41.4012C53.6231 41.4025 53.9685 41.6852 53.9992 42.1493C54.0312 42.632 53.6645 42.9921 53.1031 42.9961C51.9869 43.0054 50.8694 42.9987 49.7533 42.9987C47.2529 42.9987 44.7526 43.0041 42.2535 42.9907C42.0015 42.9894 41.6601 42.9507 41.5201 42.7894C41.3427 42.5853 41.2307 42.2226 41.2707 41.9559C41.3321 41.5492 41.6935 41.3958 42.1042 41.3972C43.6711 41.3998 45.238 41.3985 46.8048 41.3985C47.0702 41.3998 47.3369 41.3998 47.6036 41.3998Z" fill="#FF0282"/>
<path d="M47.5529 46.2005C45.7527 46.2005 43.9524 46.2031 42.1522 46.1991C41.6041 46.1978 41.2681 45.9391 41.2107 45.5004C41.144 45.0003 41.5201 44.6082 42.1015 44.6042C43.3017 44.5949 44.5018 44.6016 45.702 44.6016C48.1357 44.6016 50.5694 44.6002 53.0017 44.6029C53.5938 44.6029 53.9338 44.8483 53.9939 45.3017C54.0619 45.8151 53.6711 46.1991 53.0524 46.2005C51.2201 46.2031 49.3865 46.2005 47.5529 46.2005Z" fill="#FF0282"/>
<path d="M34.7911 46.8285C33.2856 45.7657 32.4095 44.3135 31.9227 42.6026C31.4987 41.1117 31.508 41.1091 32.8149 40.3236C33.3709 39.9889 33.9164 39.6355 34.4911 39.3341C34.6578 39.2475 34.9498 39.2368 35.1085 39.3248C35.9926 39.8209 36.8594 40.3516 37.7182 40.8917C37.8409 40.969 37.9703 41.1731 37.9569 41.3051C37.7209 43.6054 36.5834 45.391 34.7911 46.8285Z" fill="white"/>
</svg>
