<svg width="255" height="217" viewBox="0 0 196 169" fill="none" xmlns="http://www.w3.org/2000/svg">
<path d="M157.5 71.5319C154.168 47.4249 145.692 20.6599 130.793 14.4649C115.825 8.32764 94.5027 22.7025 74.9857 38.9751C55.4687 55.2476 37.6869 73.4756 40.3409 91.4933C42.8609 109.491 65.7528 127.202 88.6026 135.036C111.522 142.813 134.266 140.694 146.645 128.891C159.023 117.088 160.833 95.6389 157.5 71.5319Z" fill="#F7F7FC"/>
<path d="M126.362 116.366C124.938 119.306 123.66 122.371 122.411 125.418C122.264 125.776 122.117 126.134 121.971 126.491C120.871 129.179 119.781 131.841 118.615 134.395C115.97 140.186 112.958 145.357 108.624 148.923C100.038 155.977 85.9676 156.665 73.2921 154.218L73.289 154.218C60.6546 151.86 49.4576 146.33 38.2904 140.359L38.2893 140.359C27.2026 134.466 16.3832 128.046 9.41111 118.898C2.44427 109.675 -0.697972 97.6184 0.91503 86.4628L0.915598 86.4587C2.44474 75.2145 8.73726 64.9109 15.4412 55.0081C22.1378 45.1162 29.0654 35.7561 38.5463 27.8668L38.5482 27.8652C48.0477 19.879 59.8766 13.4207 71.6456 13.5007C83.4278 13.6628 95.0782 20.5295 106.536 27.4201C118.066 34.3848 129.052 41.2066 135.855 50.8411C142.566 60.4675 145.109 72.9221 142.481 83.9022C141.166 89.3932 138.555 94.5374 135.551 99.8073C134.768 101.182 133.958 102.566 133.137 103.967C130.823 107.918 128.432 112.001 126.362 116.366ZM126.362 116.366C126.363 116.366 126.363 116.365 126.364 116.364L126.814 116.582L126.362 116.368C126.362 116.367 126.362 116.367 126.362 116.366Z" stroke="#D6D8E7"/>
<path d="M100.069 52.6489C100.078 53.6437 99.3087 54.4299 98.326 54.4299C97.3433 54.4299 96.5738 53.6437 96.5858 52.6489C96.5954 51.6926 97.3361 50.9327 98.2853 50.9064C99.2608 50.88 100.059 51.659 100.069 52.6489Z" fill="#FF0282"/>
<path d="M96.9879 115.206C97.0047 116.198 96.2617 116.989 95.2861 117.016C94.3226 117.042 93.522 116.265 93.5028 115.287C93.4836 114.3 94.2339 113.502 95.2046 113.475C96.1658 113.449 96.9688 114.228 96.9879 115.206Z" fill="#4E4B66"/>
<path d="M87.3983 122.143C88.3427 122.145 89.1697 122.977 89.1625 123.919C89.1577 124.868 88.3307 125.686 87.3839 125.681C86.4348 125.676 85.6198 124.856 85.6222 123.907C85.627 122.96 86.4515 122.141 87.3983 122.143Z" fill="#FF0282"/>
<path d="M38.1893 57.9823C37.2425 58.0111 36.4132 57.2105 36.3892 56.2541C36.3677 55.2882 37.1419 54.4684 38.1006 54.4421C39.0522 54.4157 39.8816 55.2091 39.9079 56.1678C39.9343 57.117 39.1409 57.9536 38.1893 57.9823Z" fill="#FF0282"/>
<path d="M107.202 65.0147C107.221 64.0391 108.055 63.2505 109.016 63.2937C109.965 63.3368 110.694 64.1063 110.692 65.0626C110.689 66.0526 109.898 66.8411 108.923 66.8268C107.945 66.8124 107.18 66.0094 107.202 65.0147Z" fill="#4E4B66"/>
<path d="M39.516 104.258C39.4776 105.214 38.6363 105.998 37.6871 105.964C36.7283 105.928 35.9445 105.092 35.9781 104.14C36.0116 103.182 36.8386 102.414 37.8046 102.443C38.7609 102.474 39.5519 103.316 39.516 104.258Z" fill="#FF0282"/>
<path d="M56.0253 127.031C56.0444 128.004 55.275 128.814 54.3115 128.836C53.3503 128.857 52.5449 128.078 52.5257 127.105C52.5066 126.137 53.2784 125.32 54.2371 125.296C55.1935 125.272 56.0061 126.06 56.0253 127.031Z" fill="#4E4B66"/>
<path d="M104.861 83.136C104.861 92.0733 98.7885 100.719 91.2097 108.837C88.033 112.239 84.6486 115.492 81.4178 118.598C80.8207 119.171 80.2288 119.74 79.6445 120.304C76.3861 123.448 73.3443 126.452 71.0081 129.256C68.4453 126.374 65.2719 123.318 61.9403 120.134C61.724 119.927 61.507 119.72 61.2894 119.512C57.6885 116.072 53.9164 112.469 50.4406 108.695C43.0229 100.641 37.2271 92.0876 37.2271 83.136C37.2271 64.9213 52.3404 50.1072 71.0439 50.1072C89.7474 50.1072 104.861 64.9213 104.861 83.136Z" stroke="#4E4B66" stroke-width="2.5"/>
<path d="M47.0093 81.954H53.3134C53.7486 81.954 54.1014 82.3068 54.1014 82.742V82.742C54.1014 83.1772 53.7486 83.53 53.3134 83.53H47.0093V81.954Z" fill="#4E4B66"/>
<path d="M85.6222 82.742C85.6222 82.3068 85.975 81.954 86.4102 81.954H92.7144V83.53H86.4102C85.975 83.53 85.6222 83.1772 85.6222 82.742V82.742Z" fill="#4E4B66"/>
<path d="M93.0404 83.136C93.0404 96.1737 82.6442 106.709 69.8618 106.709C57.0794 106.709 46.6832 96.1737 46.6832 83.136C46.6832 70.0983 57.0794 59.5634 69.8618 59.5634C82.6442 59.5634 93.0404 70.0983 93.0404 83.136Z" stroke="#4E4B66" stroke-width="2.5"/>
<mask id="path-14-inside-1_2522_36408" fill="white">
<path d="M70.5078 96.1376C66.6383 95.1746 62.2432 91.0802 60.6472 86.6113C60.1318 85.1685 59.7333 83.694 59.6881 82.1628C59.6195 79.8353 59.6335 77.5052 59.6176 75.1764C59.615 74.8345 59.7523 74.6756 60.1178 74.572C61.8282 74.0864 63.5093 73.5175 65.1498 72.8317C66.9084 72.097 68.6112 71.2472 70.2517 70.2767C70.5752 70.0854 70.8453 70.0866 71.1701 70.276C74.3353 72.1218 77.6792 73.5487 81.2086 74.5389C81.7126 74.6807 81.8086 74.8116 81.8073 75.329C81.8041 77.3114 81.8397 79.2951 81.7876 81.2762C81.6815 85.358 80.2482 88.9179 77.4605 91.9179C76.0807 93.4026 74.498 94.6249 72.6682 95.502C72.1101 95.7696 71.5006 95.9291 70.9139 96.1382C70.7792 96.1376 70.6432 96.1376 70.5078 96.1376ZM80.7109 75.5495C80.6086 75.5152 80.5056 75.4802 80.402 75.4466C79.6775 75.2133 78.9478 74.9959 78.2302 74.7442C75.7012 73.8582 73.2739 72.7466 70.9489 71.4144C70.769 71.3114 70.64 71.3133 70.4665 71.4188C70.1055 71.6381 69.7317 71.8389 69.3593 72.0385C66.6809 73.4737 63.8862 74.6235 60.9638 75.4586C60.7521 75.519 60.6949 75.6124 60.6962 75.8247C60.7057 77.4175 60.6968 79.0103 60.7025 80.6025C60.7089 82.4965 60.9835 84.3455 61.6419 86.1302C62.4224 88.2461 63.6269 90.0893 65.2362 91.6636C66.5849 92.9825 68.0983 94.0655 69.8468 94.8047C70.3877 95.0335 70.9158 95.1073 71.4637 94.848C71.7008 94.7361 71.9474 94.6446 72.1826 94.5295C73.8828 93.6963 75.3618 92.5655 76.6495 91.1831C79.1753 88.4723 80.5285 85.2556 80.6766 81.5609C80.7548 79.6071 80.7103 77.6482 80.7205 75.6913C80.7205 75.6493 80.7147 75.6067 80.7109 75.5495Z"/>
</mask>
<path d="M70.5078 96.1376C66.6383 95.1746 62.2432 91.0802 60.6472 86.6113C60.1318 85.1685 59.7333 83.694 59.6881 82.1628C59.6195 79.8353 59.6335 77.5052 59.6176 75.1764C59.615 74.8345 59.7523 74.6756 60.1178 74.572C61.8282 74.0864 63.5093 73.5175 65.1498 72.8317C66.9084 72.097 68.6112 71.2472 70.2517 70.2767C70.5752 70.0854 70.8453 70.0866 71.1701 70.276C74.3353 72.1218 77.6792 73.5487 81.2086 74.5389C81.7126 74.6807 81.8086 74.8116 81.8073 75.329C81.8041 77.3114 81.8397 79.2951 81.7876 81.2762C81.6815 85.358 80.2482 88.9179 77.4605 91.9179C76.0807 93.4026 74.498 94.6249 72.6682 95.502C72.1101 95.7696 71.5006 95.9291 70.9139 96.1382C70.7792 96.1376 70.6432 96.1376 70.5078 96.1376ZM80.7109 75.5495C80.6086 75.5152 80.5056 75.4802 80.402 75.4466C79.6775 75.2133 78.9478 74.9959 78.2302 74.7442C75.7012 73.8582 73.2739 72.7466 70.9489 71.4144C70.769 71.3114 70.64 71.3133 70.4665 71.4188C70.1055 71.6381 69.7317 71.8389 69.3593 72.0385C66.6809 73.4737 63.8862 74.6235 60.9638 75.4586C60.7521 75.519 60.6949 75.6124 60.6962 75.8247C60.7057 77.4175 60.6968 79.0103 60.7025 80.6025C60.7089 82.4965 60.9835 84.3455 61.6419 86.1302C62.4224 88.2461 63.6269 90.0893 65.2362 91.6636C66.5849 92.9825 68.0983 94.0655 69.8468 94.8047C70.3877 95.0335 70.9158 95.1073 71.4637 94.848C71.7008 94.7361 71.9474 94.6446 72.1826 94.5295C73.8828 93.6963 75.3618 92.5655 76.6495 91.1831C79.1753 88.4723 80.5285 85.2556 80.6766 81.5609C80.7548 79.6071 80.7103 77.6482 80.7205 75.6913C80.7205 75.6493 80.7147 75.6067 80.7109 75.5495Z" fill="#4E4B66"/>
<path d="M70.5078 96.1376L69.3004 100.99L69.895 101.138H70.5078V96.1376ZM60.6472 86.6113L65.356 84.9297L65.3558 84.9291L60.6472 86.6113ZM59.6881 82.1628L64.686 82.0155L64.686 82.0154L59.6881 82.1628ZM59.6176 75.1764L64.6175 75.1423L64.6175 75.1393L59.6176 75.1764ZM60.1178 74.572L61.4815 79.3824L61.4834 79.3819L60.1178 74.572ZM65.1498 72.8317L63.2223 68.2182L63.2212 68.2186L65.1498 72.8317ZM70.2517 70.2767L67.7066 65.9729L67.7057 65.9734L70.2517 70.2767ZM71.1701 70.276L68.6512 74.5952L68.6514 74.5953L71.1701 70.276ZM81.2086 74.5389L82.5621 69.7256L82.5593 69.7248L81.2086 74.5389ZM81.8073 75.329L76.8073 75.3167L76.8073 75.321L81.8073 75.329ZM81.7876 81.2762L76.7893 81.1447L76.7893 81.1462L81.7876 81.2762ZM77.4605 91.9179L81.123 95.3217L81.1233 95.3214L77.4605 91.9179ZM72.6682 95.502L70.507 90.9932L70.5063 90.9935L72.6682 95.502ZM70.9139 96.1382L70.8904 101.138L71.767 101.142L72.5927 100.848L70.9139 96.1382ZM80.7109 75.5495L85.6999 75.2169L85.477 71.8743L82.3009 70.8091L80.7109 75.5495ZM80.402 75.4466L81.9481 70.6916L81.9412 70.6893L81.9342 70.6871L80.402 75.4466ZM78.2302 74.7442L79.8851 70.026L79.8834 70.0254L78.2302 74.7442ZM70.9489 71.4144L73.4347 67.0761L73.4329 67.075L70.9489 71.4144ZM70.4665 71.4188L73.0622 75.6923L73.0642 75.691L70.4665 71.4188ZM69.3593 72.0385L71.7208 76.4457L71.7208 76.4457L69.3593 72.0385ZM60.9638 75.4586L62.3355 80.2668L62.3377 80.2662L60.9638 75.4586ZM60.6962 75.8247L65.6961 75.7948V75.7948L60.6962 75.8247ZM60.7025 80.6025L65.7025 80.5857L65.7025 80.5845L60.7025 80.6025ZM61.6419 86.1302L66.333 84.3998L66.3329 84.3995L61.6419 86.1302ZM65.2362 91.6636L61.7397 95.2378L61.7405 95.2385L65.2362 91.6636ZM69.8468 94.8047L71.7948 90.1998L71.7937 90.1994L69.8468 94.8047ZM71.4637 94.848L69.3301 90.3261L69.3246 90.3286L71.4637 94.848ZM72.1826 94.5295L74.3797 99.0209L74.383 99.0193L72.1826 94.5295ZM76.6495 91.1831L72.9914 87.7746L72.9909 87.7751L76.6495 91.1831ZM80.6766 81.5609L85.6726 81.7612L85.6726 81.7608L80.6766 81.5609ZM80.7205 75.6913L85.7204 75.7172L85.7205 75.7042V75.6913H80.7205ZM71.7152 91.2855C70.8572 91.072 69.5324 90.3671 68.1791 89.074C66.8543 87.8083 65.8469 86.3043 65.356 84.9297L55.9385 88.293C57.0436 91.3872 59.0317 94.1648 61.2708 96.3043C63.4814 98.4164 66.2889 100.24 69.3004 100.99L71.7152 91.2855ZM65.3558 84.9291C64.917 83.7011 64.7089 82.7923 64.686 82.0155L54.6903 82.3101C54.7577 84.5956 55.3465 86.636 55.9387 88.2935L65.3558 84.9291ZM64.686 82.0154C64.6195 79.7632 64.6339 77.5568 64.6175 75.1423L54.6177 75.2105C54.633 77.4536 54.6194 79.9074 54.6903 82.3102L64.686 82.0154ZM64.6175 75.1393C64.621 75.6149 64.532 76.8348 63.5674 77.9898C62.695 79.0344 61.669 79.3293 61.4815 79.3824L58.7541 69.7615C58.2012 69.9183 56.9238 70.3444 55.892 71.5798C54.768 72.9257 54.6116 74.396 54.6177 75.2136L64.6175 75.1393ZM61.4834 79.3819C63.3516 78.8515 65.2247 78.2198 67.0783 77.4448L63.2212 68.2186C61.7939 68.8153 60.3047 69.3213 58.7522 69.7621L61.4834 79.3819ZM67.0772 77.4453C69.0425 76.6242 70.9524 75.6716 72.7976 74.5799L67.7057 65.9734C66.27 66.8228 64.7744 67.5697 63.2223 68.2182L67.0772 77.4453ZM72.7967 74.5805C72.4248 74.8004 71.6964 75.1341 70.7077 75.1336C69.7245 75.133 69.0058 74.802 68.6512 74.5952L73.6889 65.9568C73.0096 65.5607 71.9934 65.1343 70.7131 65.1336C69.4272 65.1329 68.402 65.5616 67.7066 65.9729L72.7967 74.5805ZM68.6514 74.5953C72.1759 76.6505 75.9114 78.2458 79.8579 79.353L82.5593 69.7248C79.4469 68.8516 76.4948 67.593 73.6888 65.9568L68.6514 74.5953ZM79.855 79.3522C79.8469 79.3499 79.7877 79.3333 79.6981 79.3013C79.6093 79.2696 79.4541 79.21 79.2627 79.1134C78.861 78.9108 78.2424 78.5156 77.7057 77.8041C77.1688 77.0923 76.9588 76.3886 76.8743 75.9469C76.834 75.7366 76.8194 75.5714 76.8133 75.4783C76.8071 75.3844 76.8073 75.3237 76.8073 75.3167L86.8073 75.3413C86.8079 75.1076 86.8829 73.3646 85.6892 71.7821C84.4952 70.1993 82.8003 69.7926 82.5621 69.7256L79.855 79.3522ZM76.8073 75.321C76.8039 77.4373 76.8394 79.2424 76.7893 81.1447L86.7859 81.4077C86.8401 79.3478 86.8043 77.1855 86.8073 75.337L76.8073 75.321ZM76.7893 81.1462C76.7144 84.0251 75.7466 86.417 73.7978 88.5143L81.1233 95.3214C84.7498 91.4187 86.6485 86.6908 86.7859 81.4062L76.7893 81.1462ZM73.798 88.5141C72.79 89.5987 71.7031 90.4198 70.507 90.9932L74.8294 100.011C77.2929 98.8299 79.3713 97.2066 81.123 95.3217L73.798 88.5141ZM70.5063 90.9935C70.5108 90.9914 70.4929 91.0001 70.4416 91.0199C70.389 91.0402 70.3163 91.0664 70.2065 91.1033C70.0857 91.144 69.9785 91.1784 69.8022 91.2361C69.6445 91.2877 69.4457 91.3534 69.2352 91.4285L72.5927 100.848C72.6097 100.842 73.9749 100.42 74.83 100.01L70.5063 90.9935ZM70.9375 91.1383C70.789 91.1376 70.6411 91.1376 70.5078 91.1376V101.138C70.6453 101.138 70.7694 101.138 70.8904 101.138L70.9375 91.1383ZM82.3009 70.8091C82.2219 70.7826 82.0809 70.7348 81.9481 70.6916L78.8559 80.2015C78.9304 80.2257 78.9953 80.2478 79.121 80.29L82.3009 70.8091ZM81.9342 70.6871C81.0655 70.4074 80.5262 70.2509 79.8851 70.026L76.5753 79.4624C77.3694 79.741 78.2894 80.0191 78.8698 80.206L81.9342 70.6871ZM79.8834 70.0254C77.6455 69.2414 75.4967 68.2576 73.4347 67.0761L68.4631 75.7527C71.051 77.2355 73.7569 78.475 76.577 79.463L79.8834 70.0254ZM73.4329 67.075C72.9047 66.7727 71.9371 66.3253 70.6533 66.3387C69.3623 66.3521 68.3987 66.8243 67.8687 67.1466L73.0642 75.691C72.7077 75.9078 71.8954 76.3263 70.7573 76.3381C69.6264 76.3499 68.8132 75.9531 68.4649 75.7537L73.4329 67.075ZM67.8708 67.1454C67.6426 67.284 67.385 67.4239 66.9978 67.6313L71.7208 76.4457C72.0785 76.254 72.5684 75.9922 73.0622 75.6923L67.8708 67.1454ZM66.9978 67.6313C64.6179 68.9065 62.1533 69.9185 59.5899 70.6511L62.3377 80.2662C65.6191 79.3284 68.7439 78.0408 71.7208 76.4457L66.9978 67.6313ZM59.5921 70.6505C59.0513 70.8048 57.6758 71.2716 56.667 72.6989C55.7025 74.0635 55.6939 75.4508 55.6963 75.8547L65.6961 75.7948C65.6972 75.9863 65.7165 77.2208 64.8332 78.4706C63.9057 79.7829 62.6646 80.1729 62.3355 80.2668L59.5921 70.6505ZM55.6963 75.8547C55.706 77.4839 55.6965 78.9227 55.7026 80.6204L65.7025 80.5845C65.6972 79.0979 65.7054 77.3512 65.6961 75.7948L55.6963 75.8547ZM55.7026 80.6192C55.7105 82.9903 56.0558 85.4344 56.951 87.8609L66.3329 84.3995C65.9112 83.2565 65.7073 82.0028 65.7025 80.5857L55.7026 80.6192ZM56.9509 87.8606C57.9924 90.6839 59.6096 93.1539 61.7397 95.2378L68.7327 88.0895C67.6442 87.0246 66.8525 85.8083 66.333 84.3998L56.9509 87.8606ZM61.7405 95.2385C63.4516 96.9118 65.4751 98.385 67.8998 99.4101L71.7937 90.1994C70.7214 89.746 69.7182 89.0532 68.7319 88.0887L61.7405 95.2385ZM67.8988 99.4096C69.2025 99.9612 71.3115 100.452 73.6028 99.3673L69.3246 90.3286C69.8254 90.0916 70.388 89.9875 70.9248 90.0168C71.4084 90.0432 71.7228 90.1694 71.7948 90.1998L67.8988 99.4096ZM73.5974 99.3698C73.5937 99.3716 73.6026 99.3673 73.6343 99.3535C73.6708 99.3377 73.706 99.3228 73.7781 99.2922C73.8939 99.243 74.1277 99.1442 74.3797 99.0209L69.9854 90.0381C70.0023 90.0299 69.9952 90.0343 69.8696 90.0876C69.7807 90.1254 69.5572 90.2189 69.3301 90.3261L73.5974 99.3698ZM74.383 99.0193C76.6738 97.8966 78.638 96.3841 80.3081 94.5911L72.9909 87.7751C72.0856 88.747 71.0918 89.4959 69.9822 90.0397L74.383 99.0193ZM80.3076 94.5917C83.6403 91.015 85.4761 86.6633 85.6726 81.7612L75.6806 81.3607C75.5809 83.8479 74.7104 85.9297 72.9914 87.7746L80.3076 94.5917ZM85.6726 81.7608C85.7552 79.6965 85.7112 77.4825 85.7204 75.7172L75.7205 75.6653C75.7094 77.814 75.7544 79.5178 75.6806 81.361L85.6726 81.7608ZM85.7205 75.6913C85.7205 75.4555 85.7044 75.2659 85.7001 75.2137C85.6988 75.1977 85.6975 75.1835 85.697 75.1774C85.6966 75.1732 85.6965 75.1719 85.6964 75.17C85.6962 75.1685 85.6962 75.1683 85.6963 75.1689C85.6964 75.171 85.6981 75.19 85.6999 75.2169L75.722 75.8821C75.7257 75.9376 75.7295 75.9834 75.7318 76.0109C75.7328 76.0235 75.7339 76.036 75.7342 76.0394C75.7347 76.0454 75.7345 76.043 75.7342 76.0385C75.7335 76.0305 75.7302 75.9902 75.7271 75.9353C75.724 75.878 75.7205 75.7938 75.7205 75.6913H85.7205Z" fill="#4E4B66" mask="url(#path-14-inside-1_2522_36408)"/>
<mask id="path-16-inside-2_2522_36408" fill="white">
<path d="M68.9518 84.0009C69.2092 83.7352 69.4304 83.5013 69.6573 83.2738C71.2202 81.709 72.7832 80.1448 74.3486 78.5831C75.023 77.91 75.8486 77.7823 76.6145 78.2234C77.5202 78.7452 77.7598 80.0094 77.1064 80.8261C77.027 80.9253 76.9444 81.0219 76.8548 81.1115C74.6753 83.2935 72.4952 85.4748 70.3139 87.6543C69.6395 88.328 68.8101 88.4628 68.0506 88.0185C67.8917 87.9257 67.7461 87.803 67.6152 87.6727C66.5874 86.652 65.5616 85.6287 64.5408 84.6003C63.7082 83.7613 63.7521 82.5715 64.6323 81.8609C65.2457 81.3658 66.1997 81.3378 66.7934 81.8628C67.4016 82.4005 67.9609 82.9941 68.5393 83.5655C68.6709 83.6958 68.7948 83.8344 68.9518 84.0009ZM68.8209 87.177C69.1762 87.1897 69.363 87.0575 69.5372 86.8827C71.7217 84.695 73.9082 82.5098 76.0933 80.324C76.1473 80.27 76.2014 80.216 76.2465 80.155C76.5357 79.7653 76.3571 79.2327 75.8925 79.0922C75.5601 78.9918 75.3255 79.1514 75.105 79.3719C73.2319 81.2475 71.3563 83.1213 69.4813 84.995C69.0808 85.3948 68.826 85.396 68.4294 85.0001C67.6978 84.2704 66.9707 83.5363 66.2353 82.8104C65.9251 82.5047 65.5158 82.499 65.2374 82.7774C64.959 83.0558 64.9622 83.4676 65.2673 83.7759C66.3173 84.8342 67.3705 85.8886 68.4319 86.9354C68.5571 87.06 68.7383 87.1274 68.8209 87.177Z"/>
</mask>
<path d="M68.9518 84.0009C69.2092 83.7352 69.4304 83.5013 69.6573 83.2738C71.2202 81.709 72.7832 80.1448 74.3486 78.5831C75.023 77.91 75.8486 77.7823 76.6145 78.2234C77.5202 78.7452 77.7598 80.0094 77.1064 80.8261C77.027 80.9253 76.9444 81.0219 76.8548 81.1115C74.6753 83.2935 72.4952 85.4748 70.3139 87.6543C69.6395 88.328 68.8101 88.4628 68.0506 88.0185C67.8917 87.9257 67.7461 87.803 67.6152 87.6727C66.5874 86.652 65.5616 85.6287 64.5408 84.6003C63.7082 83.7613 63.7521 82.5715 64.6323 81.8609C65.2457 81.3658 66.1997 81.3378 66.7934 81.8628C67.4016 82.4005 67.9609 82.9941 68.5393 83.5655C68.6709 83.6958 68.7948 83.8344 68.9518 84.0009ZM68.8209 87.177C69.1762 87.1897 69.363 87.0575 69.5372 86.8827C71.7217 84.695 73.9082 82.5098 76.0933 80.324C76.1473 80.27 76.2014 80.216 76.2465 80.155C76.5357 79.7653 76.3571 79.2327 75.8925 79.0922C75.5601 78.9918 75.3255 79.1514 75.105 79.3719C73.2319 81.2475 71.3563 83.1213 69.4813 84.995C69.0808 85.3948 68.826 85.396 68.4294 85.0001C67.6978 84.2704 66.9707 83.5363 66.2353 82.8104C65.9251 82.5047 65.5158 82.499 65.2374 82.7774C64.959 83.0558 64.9622 83.4676 65.2673 83.7759C66.3173 84.8342 67.3705 85.8886 68.4319 86.9354C68.5571 87.06 68.7383 87.1274 68.8209 87.177Z" fill="#4E4B66"/>
<path d="M68.9518 84.0009L65.3137 87.4308L68.9024 91.2374L72.5428 87.4802L68.9518 84.0009ZM69.6573 83.2738L66.1196 79.7404L66.1168 79.7432L69.6573 83.2738ZM74.3486 78.5831L77.8798 82.123L77.8808 82.122L74.3486 78.5831ZM76.6145 78.2234L79.1106 73.891L79.1099 73.8906L76.6145 78.2234ZM77.1064 80.8261L81.0083 83.9527L81.0108 83.9496L77.1064 80.8261ZM76.8548 81.1115L73.3192 77.576L73.3172 77.578L76.8548 81.1115ZM70.3139 87.6543L73.8478 91.1915L73.8479 91.1914L70.3139 87.6543ZM68.0506 88.0185L70.5751 83.7026L70.5721 83.7008L68.0506 88.0185ZM67.6152 87.6727L71.1421 84.1286L71.1386 84.1251L67.6152 87.6727ZM64.5408 84.6003L60.9919 88.1223L60.9922 88.1226L64.5408 84.6003ZM64.6323 81.8609L67.7729 85.7515L67.773 85.7514L64.6323 81.8609ZM66.7934 81.8628L63.481 85.6082L63.4818 85.6089L66.7934 81.8628ZM68.5393 83.5655L72.0577 80.0129L72.0533 80.0086L68.5393 83.5655ZM68.8209 87.177L66.2484 91.4644L67.3538 92.1277L68.6421 92.1738L68.8209 87.177ZM69.5372 86.8827L65.9991 83.3497L65.9952 83.3536L69.5372 86.8827ZM76.0933 80.324L72.5578 76.7885L72.5573 76.789L76.0933 80.324ZM76.2465 80.155L72.2316 77.1749L72.2265 77.1818L76.2465 80.155ZM75.8925 79.0922L77.3394 74.3062L77.3384 74.3059L75.8925 79.0922ZM75.105 79.3719L71.5694 75.8364L71.567 75.8388L75.105 79.3719ZM69.4813 84.995L73.014 88.5333L73.0156 88.5317L69.4813 84.995ZM68.4294 85.0001L71.9621 81.4617L71.9603 81.4599L68.4294 85.0001ZM66.2353 82.8104L69.7477 79.2519L69.7452 79.2495L66.2353 82.8104ZM65.2673 83.7759L61.7135 87.2931L61.7179 87.2976L65.2673 83.7759ZM68.4319 86.9354L71.9584 83.3909L71.9507 83.3832L71.9428 83.3755L68.4319 86.9354ZM72.5428 87.4802C72.8575 87.1553 73.0029 86.9998 73.1978 86.8044L66.1168 79.7432C65.8579 80.0029 65.5609 80.3152 65.3609 80.5217L72.5428 87.4802ZM73.195 86.8072C74.7578 85.2425 76.3179 83.6811 77.8798 82.123L70.8174 75.0433C69.2484 76.6084 67.6827 78.1754 66.1196 79.7404L73.195 86.8072ZM77.8808 82.122C77.6042 82.3981 77.0539 82.7939 76.2261 82.9244C75.3725 83.059 74.6239 82.8469 74.1191 82.5562L79.1099 73.8906C77.8392 73.1588 76.2949 72.79 74.6684 73.0465C73.0677 73.2989 71.7674 74.0951 70.8164 75.0443L77.8808 82.122ZM74.1184 82.5558C72.3725 81.5499 71.94 79.2802 73.2021 77.7027L81.0108 83.9496C83.5796 80.7386 82.6679 75.9405 79.1106 73.891L74.1184 82.5558ZM73.2045 77.6996C73.1974 77.7085 73.2043 77.6995 73.2219 77.6794C73.2398 77.659 73.2727 77.6225 73.3192 77.576L80.3903 84.647C80.6581 84.3793 80.8674 84.1285 81.0083 83.9527L73.2045 77.6996ZM73.3172 77.578C71.1383 79.7594 68.9596 81.9394 66.7799 84.1172L73.8479 91.1914C76.0309 89.0103 78.2123 86.8276 80.3923 84.645L73.3172 77.578ZM66.78 84.1171C67.0509 83.8464 67.5941 83.4523 68.4178 83.3195C69.2739 83.1813 70.0419 83.3907 70.5751 83.7026L65.526 92.3344C66.8188 93.0905 68.3812 93.4546 70.0105 93.1918C71.6074 92.9342 72.9025 92.1359 73.8478 91.1915L66.78 84.1171ZM70.5721 83.7008C70.9004 83.8926 71.0906 84.0773 71.1421 84.1286L64.0883 91.2168C64.4017 91.5287 64.8829 91.9587 65.529 92.3361L70.5721 83.7008ZM71.1386 84.1251C70.1157 83.1092 69.0989 82.0949 68.0895 81.0779L60.9922 88.1226C62.0242 89.1624 63.0592 90.1948 64.0917 91.2203L71.1386 84.1251ZM68.0898 81.0782C68.5536 81.5455 68.9761 82.3427 68.9413 83.3546C68.9058 84.3847 68.4052 85.2411 67.7729 85.7515L61.4918 77.9703C59.9792 79.1913 59.0165 80.9978 58.9472 83.0103C58.8785 85.0044 59.6955 86.816 60.9919 88.1223L68.0898 81.0782ZM67.773 85.7514C67.1451 86.2583 66.4265 86.4735 65.7621 86.4791C65.0874 86.4848 64.2293 86.27 63.481 85.6082L70.1057 78.1173C67.4865 75.801 63.7901 76.115 61.4917 77.9703L67.773 85.7514ZM63.4818 85.6089C63.9532 86.0256 64.2747 86.381 65.0254 87.1225L72.0533 80.0086C71.6471 79.6073 70.8501 78.7754 70.105 78.1167L63.4818 85.6089ZM65.021 87.1182C65.018 87.1152 65.0302 87.1272 65.0832 87.1838C65.111 87.2136 65.1364 87.2409 65.1783 87.286C65.2165 87.3271 65.2627 87.3767 65.3137 87.4308L72.59 80.5711C72.5532 80.5321 72.2679 80.2211 72.0577 80.0129L65.021 87.1182ZM68.6421 92.1738C69.5122 92.2049 70.4569 92.0582 71.3819 91.6214C72.253 91.2101 72.8206 90.6713 73.0792 90.4118L65.9952 83.3536C66.0796 83.2689 66.4667 82.8836 67.112 82.5789C67.8112 82.2487 68.4848 82.1617 68.9997 82.1802L68.6421 92.1738ZM73.0753 90.4156C75.2585 88.2293 77.4421 86.0469 79.6294 83.859L72.5573 76.789C70.3742 78.9727 68.1849 81.1607 65.9991 83.3497L73.0753 90.4156ZM79.6288 83.8596C79.637 83.8514 79.9628 83.5388 80.2665 83.1281L72.2265 77.1818C72.3488 77.0164 72.4551 76.8981 72.5097 76.8394C72.5571 76.7884 72.5959 76.7504 72.5578 76.7885L79.6288 83.8596ZM80.2614 83.135C82.6337 79.9389 81.0856 75.4387 77.3394 74.3062L74.4455 83.8783C71.6286 83.0267 70.4377 79.5918 72.2316 77.1749L80.2614 83.135ZM77.3384 74.3059C76.0249 73.9091 74.6727 74.0066 73.4827 74.5179C72.4733 74.9517 71.8198 75.586 71.5694 75.8364L78.6405 82.9074C78.6107 82.9372 78.1847 83.3816 77.4308 83.7055C76.4964 84.1071 75.4276 84.175 74.4465 83.8786L77.3384 74.3059ZM71.567 75.8388C69.6962 77.7121 67.8229 79.5836 65.9469 81.4582L73.0156 88.5317C74.8897 86.6589 76.7676 84.7829 78.6429 82.905L71.567 75.8388ZM65.9485 81.4566C66.0048 81.4005 66.2602 81.1475 66.6937 80.8958C67.1707 80.6189 67.9399 80.3008 68.9296 80.296C69.9226 80.2912 70.702 80.6039 71.1937 80.8861C71.6387 81.1415 71.9015 81.4012 71.9621 81.4617L64.8967 88.5384C65.2644 88.9055 66.686 90.307 68.9782 90.2959C71.2499 90.2848 72.6562 88.8905 73.014 88.5333L65.9485 81.4566ZM71.9603 81.4599C71.2602 80.7617 70.4927 79.9873 69.7477 79.2519L62.7229 86.369C63.4487 87.0853 64.1354 87.7791 64.8984 88.5402L71.9603 81.4599ZM69.7452 79.2495C68.8099 78.3276 67.4642 77.6209 65.8622 77.5768C64.2353 77.532 62.7562 78.1875 61.7019 79.2419L68.773 86.3129C67.997 87.0889 66.8618 87.6081 65.5867 87.573C64.3365 87.5385 63.3505 86.9876 62.7254 86.3714L69.7452 79.2495ZM61.7019 79.2419C60.6506 80.2932 59.997 81.765 60.0349 83.3826C60.0724 84.9826 60.7724 86.3422 61.7135 87.2931L68.8211 80.2587C69.4571 80.9014 70.003 81.9009 70.0322 83.1483C70.0618 84.4133 69.5459 85.54 68.773 86.3129L61.7019 79.2419ZM61.7179 87.2976C62.7752 88.3632 63.8421 89.4314 64.921 90.4954L71.9428 83.3755C70.8988 82.3458 69.8594 81.3052 68.8167 80.2543L61.7179 87.2976ZM64.9054 90.48C65.4662 91.0379 66.0275 91.3543 66.2605 91.4805C66.3863 91.5487 66.5036 91.6064 66.512 91.6106C66.5285 91.6188 66.5061 91.6078 66.4747 91.5914C66.4456 91.5762 66.3593 91.531 66.2484 91.4644L71.3934 82.8895C71.2618 82.8106 71.1518 82.7523 71.0964 82.7235C71.0389 82.6935 70.9878 82.6681 70.9737 82.6611C70.921 82.6348 70.9697 82.6586 71.0242 82.6881C71.0868 82.722 71.2101 82.7913 71.3619 82.8954C71.513 82.999 71.7268 83.1605 71.9584 83.3909L64.9054 90.48Z" fill="#FF0282" mask="url(#path-16-inside-2_2522_36408)"/>
<path d="M71.4446 93.2571C71.3159 93.0999 71.1519 93.0741 70.9595 93.1912C70.7741 93.3198 70.7217 93.4773 70.8333 93.6606C70.9538 93.8857 71.0863 94.1034 71.2308 94.3138C71.3285 94.4742 71.4995 94.5115 71.6748 94.4205C71.8621 94.3221 71.9456 94.1614 71.865 93.9749C71.8193 93.8457 71.7426 93.7196 71.6659 93.5936C71.6538 93.6009 71.6538 93.6009 71.6418 93.6082C71.5841 93.4863 71.5194 93.353 71.4446 93.2571Z" fill="#FF0282"/>
<path d="M61.9249 75.9414C61.8796 75.7434 61.7442 75.6473 61.5198 75.6665C61.2966 75.6992 61.1795 75.8169 61.1979 76.0308C61.2057 76.2859 61.2274 76.5398 61.2633 76.7926C61.2793 76.9797 61.4159 77.0892 61.6134 77.0857C61.8249 77.081 61.9711 76.9742 61.982 76.7713C61.9986 76.6352 61.9859 76.4882 61.9733 76.3412C61.9593 76.3424 61.9593 76.3424 61.9453 76.3436C61.9478 76.2087 61.9492 76.0605 61.9249 75.9414Z" fill="#FF0282"/>
<path d="M63.0813 75.6484C63.036 75.4503 62.9006 75.3542 62.6762 75.3735C62.453 75.4061 62.3359 75.5239 62.3543 75.7377C62.3621 75.9929 62.3839 76.2468 62.4197 76.4995C62.4357 76.6867 62.5723 76.7961 62.7698 76.7926C62.9813 76.7879 63.1275 76.6811 63.1384 76.4783C63.155 76.3422 63.1423 76.1952 63.1297 76.0482C63.1157 76.0494 63.1157 76.0494 63.1017 76.0506C63.1042 75.9157 63.1056 75.7675 63.0813 75.6484Z" fill="#FF0282"/>
<path d="M64.2194 75.197C64.1741 74.9989 64.0387 74.9028 63.8143 74.9221C63.5911 74.9547 63.474 75.0725 63.4924 75.2863C63.5001 75.5415 63.5219 75.7954 63.5578 76.0481C63.5738 76.2353 63.7104 76.3447 63.9079 76.3412C64.1194 76.3365 64.2656 76.2297 64.2765 76.0269C64.293 75.8908 64.2804 75.7438 64.2678 75.5968C64.2538 75.598 64.2538 75.598 64.2398 75.5992C64.2423 75.4643 64.2437 75.3161 64.2194 75.197Z" fill="#FF0282"/>
<path d="M65.4667 74.8327C65.4215 74.6346 65.2861 74.5385 65.0617 74.5578C64.8384 74.5904 64.7214 74.7082 64.7397 74.922C64.7475 75.1772 64.7693 75.4311 64.8051 75.6839C64.8212 75.871 64.9577 75.9804 65.1552 75.9769C65.3667 75.9723 65.513 75.8655 65.5238 75.6626C65.5404 75.5265 65.5278 75.3795 65.5152 75.2325C65.5012 75.2337 65.5012 75.2337 65.4871 75.2349C65.4897 75.1 65.4911 74.9518 65.4667 74.8327Z" fill="#FF0282"/>
<path d="M66.6527 74.3671C66.6075 74.169 66.4721 74.0729 66.2477 74.0922C66.0244 74.1248 65.9074 74.2426 65.9257 74.4564C65.9335 74.7116 65.9553 74.9655 65.9911 75.2182C66.0072 75.4053 66.1437 75.5148 66.3412 75.5113C66.5527 75.5066 66.699 75.3998 66.7098 75.1969C66.7264 75.0609 66.7138 74.9139 66.7012 74.7668C66.6871 74.768 66.6871 74.768 66.6731 74.7693C66.6757 74.6344 66.6771 74.4862 66.6527 74.3671Z" fill="#FF0282"/>
<path d="M72.539 92.6437C72.4103 92.4864 72.2463 92.4606 72.0539 92.5777C71.8685 92.7063 71.8161 92.8638 71.9277 93.0472C72.0482 93.2722 72.1807 93.4899 72.3252 93.7003C72.4229 93.8607 72.5939 93.898 72.7692 93.807C72.9565 93.7087 73.04 93.548 72.9594 93.3614C72.9137 93.2322 72.837 93.1062 72.7602 92.9801C72.7482 92.9874 72.7482 92.9874 72.7362 92.9948C72.6785 92.8729 72.6138 92.7395 72.539 92.6437Z" fill="#FF0282"/>
<path d="M73.6218 91.9235C73.4931 91.7662 73.3291 91.7404 73.1367 91.8575C72.9513 91.9861 72.8989 92.1436 73.0105 92.327C73.131 92.552 73.2635 92.7697 73.4081 92.9801C73.5057 93.1405 73.6767 93.1778 73.852 93.0868C74.0393 92.9885 74.1228 92.8278 74.0422 92.6412C73.9965 92.512 73.9198 92.386 73.8431 92.2599C73.8311 92.2672 73.8311 92.2672 73.819 92.2746C73.7613 92.1527 73.6966 92.0193 73.6218 91.9235Z" fill="#FF0282"/>
<path d="M74.5637 91.2057C74.435 91.0484 74.271 91.0226 74.0786 91.1397C73.8932 91.2683 73.8407 91.4258 73.9523 91.6092C74.0728 91.8342 74.2054 92.0519 74.3499 92.2623C74.4475 92.4227 74.6185 92.46 74.7939 92.369C74.9812 92.2707 75.0646 92.1099 74.9841 91.9234C74.9384 91.7942 74.8616 91.6681 74.7849 91.5421C74.7729 91.5494 74.7729 91.5494 74.7609 91.5567C74.7031 91.4348 74.6384 91.3015 74.5637 91.2057Z" fill="#FF0282"/>
<path d="M75.5418 90.4459C75.4131 90.2887 75.2491 90.2629 75.0567 90.38C74.8713 90.5086 74.8189 90.6661 74.9305 90.8494C75.051 91.0745 75.1835 91.2922 75.328 91.5026C75.4257 91.663 75.5967 91.7003 75.772 91.6093C75.9593 91.5109 76.0428 91.3502 75.9622 91.1637C75.9165 91.0345 75.8398 90.9084 75.763 90.7824C75.751 90.7897 75.751 90.7897 75.739 90.797C75.6813 90.6751 75.6166 90.5417 75.5418 90.4459Z" fill="#FF0282"/>
</svg>
