<svg width="76" height="111" viewBox="0 0 76 111" fill="none" xmlns="http://www.w3.org/2000/svg">
<path d="M42.4315 0C43.7092 0.868551 45.2525 0.620906 46.6558 0.990578C62.2574 5.10004 72.863 16.7645 74.9949 32.725C76.165 41.4894 74.2915 49.7873 69.3816 57.1772C59.8348 71.5478 50.1264 85.8071 40.4754 100.106C38.7993 102.589 37.4427 102.582 35.7451 100.07C26.0977 85.7712 16.418 71.4939 6.83166 57.1521C-2.8552 42.6595 -0.202885 21.8537 12.6567 10.1355C18.2341 5.05339 24.6513 1.7694 32.095 0.502467C32.4683 0.437864 32.9779 0.595783 33.1035 0.0071781C36.2116 -6.68513e-09 39.3198 0 42.4315 0ZM38.121 95.781C38.6271 95.0417 38.9321 94.6002 39.23 94.1588C47.8761 81.3351 56.5508 68.5329 65.1502 55.6806C71.3484 46.4172 72.5615 36.4253 68.8935 25.9381C62.7921 8.49887 42.4063 -0.394796 25.4804 6.88021C6.11026 15.214 -0.619214 38.5069 11.2641 55.9677C17.8142 65.5935 24.278 75.2768 30.785 84.9313C33.1789 88.4809 35.58 92.0233 38.121 95.781Z" fill="#4E4B66"/>
<path d="M11.2071 110.543C10.3313 109.688 9.56688 108.773 10.1878 107.445C10.7764 106.186 11.9392 106.218 13.1021 106.218C29.7481 106.225 46.3905 106.225 63.0366 106.218C64.1958 106.218 65.3551 106.182 65.9796 107.413C66.6543 108.734 65.8217 109.638 65.0429 110.543C47.0976 110.543 29.1523 110.543 11.2071 110.543Z" fill="#4E4B66"/>
<path d="M20.8213 35.912C20.9649 30.1947 23.9366 24.9618 29.8549 21.7281C35.7123 18.5303 41.6737 18.9143 47.4233 22.3024C48.6077 23.0022 49.0994 24.0215 48.4857 25.3315C47.9186 26.5446 46.5548 26.8605 45.1156 25.9704C40.0766 22.8443 33.7921 23.5657 29.7437 27.0255C25.3399 30.7905 23.8899 37.179 26.3377 42.3436C28.85 47.6447 34.6966 50.7635 40.1842 49.7263C46.2784 48.5742 50.6822 43.7685 51.0555 37.8286C51.1129 36.9206 51.1129 35.991 51.8343 35.3414C52.5019 34.742 53.3202 34.6056 54.1744 34.9897C55.2044 35.4526 55.4485 36.3284 55.409 37.3512C55.1398 44.0054 52.0676 49.0336 46.2748 52.1812C34.8006 58.4046 20.8859 50.035 20.8213 35.912Z" fill="#4E4B66"/>
<path d="M53.6579 29.6636C53.5682 31.1889 52.7966 31.9211 51.4866 31.9139C50.1442 31.9067 49.3511 31.0382 49.3654 29.7605C49.3798 28.4756 50.2124 27.6429 51.5476 27.6645C52.8755 27.686 53.5682 28.4935 53.6579 29.6636Z" fill="#4E4B66"/>
</svg>
