<svg width="88" height="105" viewBox="0 0 88 105" fill="none" xmlns="http://www.w3.org/2000/svg">
<path d="M81.7078 6.53468C75.997 6.53468 70.2235 6.28146 64.5127 6.59799C60.2453 6.85122 56.5428 6.21815 53.4677 3.05283C53.2795 2.86291 53.0285 2.7363 52.8402 2.60969C48.9493 0.204044 44.8075 -0.492327 40.4146 0.330657C36.712 1.02703 33.888 3.11614 31.0013 5.33186C29.8717 6.21815 28.6793 6.53468 27.2987 6.53468C20.2701 6.47138 13.2414 6.53468 6.2128 6.53468C1.94542 6.53468 0.0627556 8.43388 0.0627556 12.802C0.0627556 41.4165 0.125511 70.031 0 98.5822C0 102.001 1.75716 104.913 6.15005 104.913C31.1895 104.786 56.2918 104.85 81.3312 104.85C85.6614 104.85 87.4813 103.014 87.4813 98.6455C87.4813 84.275 87.4813 69.9677 87.4813 55.5972C87.4813 41.1633 87.4813 26.7927 87.4813 12.3589C87.4813 8.56049 85.5358 6.53468 81.7078 6.53468ZM30.9385 9.57339C32.6957 8.49718 34.3273 7.10444 36.0217 5.90162C40.7911 2.54638 46.8157 2.54638 51.5851 5.96493C53.7815 7.54759 55.978 9.13025 58.1117 10.7762C60.3081 12.4222 61.4377 16.5371 60.3709 19.006C59.9316 20.1456 58.9902 20.1456 58.0489 20.1456C53.2795 20.1456 48.5101 20.1456 43.6779 20.1456C38.9712 20.1456 34.2018 20.1456 29.4951 20.1456C27.4242 20.1456 27.1104 19.6391 26.8594 17.55C26.5456 13.9415 27.8635 11.4093 30.9385 9.57339ZM74.0516 76.5516C74.0516 77.5645 73.7378 77.7544 72.7965 77.7544C70.0352 77.6911 67.274 77.6911 64.5127 77.7544C61.877 77.7544 60.6219 79.0205 60.5591 81.6794C60.5591 84.4016 60.4964 87.1237 60.5591 89.9092C60.6219 91.1754 60.1826 91.3653 59.053 91.3653C44.3054 91.302 29.5579 91.302 14.8103 91.3653C13.618 91.3653 13.3669 91.0487 13.3669 89.8459C13.4297 78.5141 13.3669 67.1189 13.3669 55.7871C13.3669 44.4552 13.3669 33.0601 13.3669 21.7282C13.3669 20.5254 13.618 20.0823 14.8731 20.1456C17.446 20.2722 19.9563 20.2089 22.5293 20.1456C23.3451 20.1456 23.8471 20.2722 24.2864 21.0319C25.2277 22.6778 26.6711 23.4375 28.5538 23.4375C38.5947 23.4375 48.6356 23.4375 58.7392 23.4375C60.6846 23.4375 62.128 22.6145 63.1321 20.9052C63.4459 20.3355 63.7597 20.0823 64.45 20.0823C67.274 20.1456 70.098 20.1456 72.8592 20.0823C73.8006 20.0823 73.9261 20.4621 73.9261 21.2851C74.0516 39.7705 74.0516 58.1294 74.0516 76.5516ZM63.9479 81.7427C63.9479 81.1729 64.2617 81.1729 64.6382 81.1729C66.8347 81.1729 69.0311 81.1729 71.3531 81.1729C68.8429 83.6419 66.4582 86.0475 63.9479 88.5165C63.9479 86.2375 63.9479 84.0217 63.9479 81.7427ZM84.0925 98.5189C84.0925 101.178 83.7787 101.494 81.143 101.494C56.229 101.494 31.315 101.494 6.46382 101.494C3.70258 101.494 3.45156 101.241 3.45156 98.3923C3.45156 69.9044 3.45156 41.4165 3.45156 12.9286C3.45156 10.3331 3.82809 9.95323 6.40107 9.95323C12.6139 9.95323 18.8267 9.95323 25.2905 9.95323C24.0354 11.9157 23.5333 14.0048 23.5961 16.1573C23.5961 17.0435 22.9058 16.7903 22.4665 16.7903C19.768 16.7903 17.0695 16.7903 14.3083 16.7903C11.296 16.7903 10.1664 17.9931 10.1664 21.1585C10.1664 35.4024 10.1664 49.6463 10.1664 63.8903C10.1664 72.6899 10.1664 81.4262 10.1664 90.2258C10.1664 93.6443 11.296 94.7205 14.622 94.7205C29.8089 94.7205 44.933 94.7205 60.1198 94.7205C62.0653 94.7205 63.6342 94.0874 65.0148 92.6947C68.4663 89.1495 71.9806 85.6044 75.495 82.1225C76.8128 80.7931 77.4404 79.3371 77.4404 77.5012C77.4404 58.6359 77.4404 39.7705 77.4404 20.8419C77.4404 17.9298 76.248 16.727 73.3613 16.727C70.6 16.727 67.8388 16.727 65.0775 16.727C64.5755 16.727 63.9479 16.8536 64.0107 16.0306C64.0734 13.8782 63.6342 11.9157 62.3163 9.88992C69.1566 9.88992 75.6832 9.88992 82.2098 9.88992C83.4649 9.88992 84.1552 10.5863 84.1552 11.8524C84.1552 12.2323 84.1552 12.6121 84.1552 12.9286C84.0925 41.5431 84.0925 70.031 84.0925 98.5189Z" fill="#4E4B66"/>
<path d="M62.6928 60.9151C62.2535 60.7885 61.7515 60.7885 61.3122 60.7885C57.1703 60.7885 52.9657 60.7885 48.8238 60.7885C45.2468 60.7885 41.6697 60.7885 38.0926 60.7885C37.1513 60.7885 36.21 60.7252 35.2686 60.8518C34.3273 60.9151 33.7625 61.4849 33.7625 62.4978C33.7625 63.5107 34.2646 64.0805 35.2686 64.1438C35.5824 64.1438 35.8962 64.1438 36.21 64.1438C44.6192 64.1438 53.0285 64.1438 61.5005 64.1438C61.877 64.1438 62.2535 64.1438 62.5673 64.0805C63.4459 63.9539 63.8852 63.3841 63.9479 62.6244C63.9479 61.8014 63.5714 61.1051 62.6928 60.9151Z" fill="#FF0282"/>
<path d="M33.7625 52.3053C33.7625 53.7614 34.7666 54.0779 36.0217 54.0779C39.2223 54.0779 42.36 54.0779 45.5606 54.0779C48.6356 54.0779 51.7106 54.0779 54.7856 54.0779C56.0408 54.0779 57.1704 53.9513 57.2959 52.4319C57.4214 51.2924 56.5428 50.6594 54.8484 50.6594C48.6356 50.6594 42.36 50.6594 36.1472 50.6594C34.8294 50.5961 33.7625 50.8493 33.7625 52.3053Z" fill="#FF0282"/>
<path d="M54.9739 67.5623C51.8361 67.6256 48.7611 67.5623 45.6233 67.5623C42.4228 67.5623 39.1595 67.5623 35.9589 67.5623C34.7666 67.5623 33.8252 67.8155 33.7625 69.2081C33.6997 70.6641 34.7038 71.0439 35.9589 71.0439C42.2972 71.0439 48.6356 71.0439 54.9739 71.0439C56.1662 71.0439 57.1075 70.7274 57.1703 69.3981C57.2331 67.9421 56.229 67.5623 54.9739 67.5623Z" fill="#FF0282"/>
<path d="M26.2318 43.8856C24.2236 44.0122 21.9644 43.3158 20.6466 45.5948C20.0818 46.6077 20.3328 47.7473 20.2073 48.8235C20.3328 49.963 19.9563 51.1658 20.5838 52.242C21.3369 53.6348 22.592 54.1412 24.0981 54.0779C26.1691 53.9513 28.6165 54.7743 29.8089 52.3053C30.7502 50.2162 30.6247 47.8739 29.8716 45.7215C29.3068 44.1388 27.8635 43.759 26.2318 43.8856ZM24.8512 51.2291C23.0313 51.2291 22.9685 51.2291 23.0313 48.5069C23.0313 46.2912 22.592 46.671 25.7925 46.6077C27.6124 46.6077 27.6124 46.6077 27.6124 48.8868C27.5497 51.2291 27.5497 51.2291 24.8512 51.2291Z" fill="#FF0282"/>
<path d="M35.7707 47.3042C41.1049 47.3042 46.5019 47.3042 51.8361 47.3042C52.9657 47.3042 53.907 46.8611 53.8443 45.4684C53.7815 44.139 52.9029 43.8857 51.7733 43.8857C49.2004 43.8857 46.5646 43.8857 43.9917 43.8857C41.2932 43.8857 38.5947 43.8857 35.8962 43.8857C34.7666 43.8857 33.888 44.139 33.8253 45.4684C33.637 46.7978 34.5783 47.3042 35.7707 47.3042Z" fill="#FF0282"/>
<path d="M27.2359 61.4846C26.2946 62.3709 25.3532 63.3205 24.4747 64.2701C23.9099 64.8398 23.5961 65.1564 22.7803 64.5233C21.7134 63.7003 20.27 64.5866 20.27 65.916C20.27 67.0555 22.4665 69.2712 23.7216 69.2712C24.1609 69.2712 24.6002 69.018 24.9767 68.6382C26.5456 67.0555 28.1145 65.4729 29.6834 63.827C30.4365 63.0673 30.6247 62.1177 29.8717 61.2947C29.0558 60.5351 28.0518 60.6617 27.2359 61.4846Z" fill="#FF0282"/>
<path d="M65.5168 43.8857C64.45 43.8857 63.3204 43.8857 62.2535 43.8857C61.1867 43.8857 60.0571 43.8857 58.9902 43.8857C57.9861 43.8857 57.2958 44.3922 57.2331 45.4683C57.1703 46.5445 57.7979 47.1775 58.802 47.2409C61.0612 47.3042 63.3831 47.3042 65.6423 47.2409C66.6464 47.2409 67.274 46.6078 67.2112 45.4683C67.2112 44.3922 66.5837 43.8857 65.5168 43.8857Z" fill="#FF0282"/>
<path d="M70.6628 28.6287C70.6 27.6791 70.098 27.046 69.1567 26.9194C68.1526 26.7928 67.4623 27.3625 67.3367 28.3121C67.2112 29.6416 67.2112 31.0343 67.3367 32.3638C67.3995 33.1868 68.1526 33.6932 69.0311 33.6299C69.9725 33.5666 70.5373 32.9969 70.6 32.0473C70.6628 31.4775 70.6 30.9077 70.6 30.338C70.6628 29.7682 70.6628 29.1984 70.6628 28.6287Z" fill="#FF0282"/>
<path d="M20.2701 28.5021C20.1446 27.4892 19.5798 26.8561 18.5129 26.9194C17.5088 26.9827 16.944 27.6158 16.944 28.692C16.944 29.1985 16.944 29.7683 16.944 30.2748C16.944 30.7813 16.944 31.351 16.944 31.8575C16.944 32.9338 17.4461 33.5669 18.4502 33.6302C19.5798 33.6935 20.2073 33.0604 20.2701 31.9841C20.3328 30.8446 20.3956 29.6417 20.2701 28.5021Z" fill="#FF0282"/>
<path d="M25.2905 31.9208C25.2905 32.9971 25.8553 33.5669 26.9221 33.6302C27.8635 33.6935 28.5538 33.0604 28.6166 32.1741C28.7421 30.9079 28.7421 29.6417 28.6166 28.4388C28.5538 27.4892 27.9262 26.9194 26.9221 26.9194C25.918 26.9827 25.3532 27.5525 25.2905 28.6288C25.2905 29.1985 25.2905 29.7683 25.2905 30.3381C25.2905 30.9079 25.2905 31.4144 25.2905 31.9208Z" fill="#FF0282"/>
<path d="M60.7474 33.63C61.626 33.5034 62.128 32.9969 62.1908 32.1106C62.1908 31.5409 62.1908 30.9711 62.1908 30.4014C62.1908 29.7683 62.2536 29.1353 62.1908 28.5022C62.128 27.6159 61.5632 27.0462 60.7474 26.9196C59.8061 26.793 59.1157 27.2994 58.9275 28.249C58.7392 29.5784 58.6764 30.9711 58.9275 32.3006C59.1157 33.2502 59.8061 33.7566 60.7474 33.63Z" fill="#FF0282"/>
<path d="M35.3314 33.6301C36.2727 33.6301 36.9631 33.1237 37.0258 32.1108C37.0886 30.8446 37.0886 29.5785 37.0258 28.3756C36.9631 27.426 36.3355 26.8563 35.3314 26.9196C34.2646 26.9829 33.7625 27.616 33.6998 28.6289C33.6998 29.1353 33.6998 29.7051 33.6998 30.2115C33.6998 30.7813 33.6998 31.3511 33.6998 31.9208C33.7625 32.9971 34.3273 33.6301 35.3314 33.6301Z" fill="#FF0282"/>
<path d="M52.3382 33.63C53.2167 33.5667 53.7815 33.0602 53.8443 32.1106C53.9071 31.4775 53.8443 30.8445 53.8443 30.2114C53.8443 29.6416 53.8443 29.0719 53.8443 28.5021C53.7815 27.4892 53.2167 26.9194 52.2754 26.8561C51.3341 26.7928 50.6438 27.3626 50.581 28.3122C50.4555 29.6416 50.3927 31.0344 50.6438 32.3638C50.7693 33.3134 51.4596 33.6933 52.3382 33.63Z" fill="#FF0282"/>
<path d="M43.8034 33.6297C44.7448 33.6297 45.3096 33.06 45.3723 32.0471C45.4351 31.4774 45.3723 30.9077 45.3723 30.3379C45.3723 29.7049 45.4351 29.0718 45.3723 28.4388C45.3096 27.4892 44.7448 26.9195 43.8034 26.8562C42.8621 26.8562 42.1718 27.3626 42.1718 28.3122C42.109 29.5783 42.109 30.8444 42.1718 32.0471C42.2345 33.1866 42.8621 33.693 43.8034 33.6297Z" fill="#FF0282"/>
<path d="M43.8034 13.3086C45.6233 13.3086 47.1922 11.7892 47.1922 9.95337C47.1922 8.11749 45.6233 6.59814 43.8034 6.59814C41.9835 6.59814 40.4146 8.1808 40.4146 9.95337C40.4146 11.7892 41.9207 13.3086 43.8034 13.3086Z" fill="#FF0282"/>
</svg>
