<svg width="109" height="108" viewBox="0 0 109 108" fill="none" xmlns="http://www.w3.org/2000/svg">
<path d="M54.5028 0C24.6384 0 0.0332031 24.2296 0.0332031 53.7183C0.0332031 83.5826 24.2628 108 53.9393 108C83.8036 108 108.221 83.7704 108.221 53.9061C108.221 24.4174 83.9915 0 54.5028 0ZM54.1271 104.243C26.5167 104.243 3.78972 81.7043 3.78972 54.0939C3.78972 26.2957 26.5167 3.5687 54.315 3.75652C81.9254 3.75652 104.465 26.4835 104.465 54.0939C104.465 81.7043 81.9254 104.243 54.1271 104.243Z" fill="#FF0282"/>
<path d="M55.4424 15.026C55.8181 15.026 56.3815 15.026 56.7572 15.026C58.6355 14.6503 61.8285 16.9042 62.2042 13.7112C62.392 10.8938 59.0111 11.8329 56.945 11.2695C56.5694 11.2695 56.3815 11.2695 56.0059 11.2695C27.4563 10.5181 6.41981 35.499 12.2424 63.2973C13.745 70.9981 17.5016 77.7599 22.9485 83.5825C23.8876 84.5216 24.6389 85.4608 26.1416 84.5216C26.705 84.146 27.2685 83.3947 26.705 82.4555C26.1416 81.5164 25.3903 80.7651 24.639 79.826C14.1207 66.866 11.6789 52.5912 18.6285 37.3773C25.9537 22.1634 38.9137 15.4016 55.4424 15.026Z" fill="#4E4B66"/>
<path d="M82.49 21.9758C81.363 21.0366 80.0482 18.7827 78.17 20.661C76.2917 22.7271 78.7334 23.4784 79.8604 24.6053C96.5769 40.1949 97.8917 62.734 83.0534 80.3897C82.1143 81.5166 80.0482 82.4558 81.7386 84.1462C83.6169 86.0245 84.7439 83.7706 85.683 82.6436C93.196 74.5671 96.5769 64.8001 96.9526 53.9062C96.7647 41.3219 92.0691 30.4279 82.49 21.9758Z" fill="#4E4B66"/>
<path d="M73.6603 39.4431C65.9595 46.9561 58.4464 54.4692 50.9334 62.17C49.0551 64.0483 47.9282 64.0483 46.2377 62.17C42.8569 58.6013 39.2882 55.0327 35.7195 51.6518C34.7803 50.9005 34.029 49.5857 32.5264 50.9005C30.836 52.4031 32.1508 53.3422 33.0899 54.2814C37.4099 58.6014 41.9177 63.1092 46.2377 67.4292C46.8012 67.9927 47.3647 68.9318 48.8673 68.9318C49.4308 68.3683 50.3699 67.8048 51.1212 67.0535C59.5734 58.7892 67.8377 50.337 76.1021 42.0727C77.0412 40.9457 79.4829 40.0066 77.6047 37.9405C75.7264 36.0622 74.5995 38.504 73.6603 39.4431Z" fill="#FF0282"/>
<path d="M72.3445 19.158C73.2836 19.5337 74.7862 18.4067 74.4106 17.2798C73.6593 14.6502 70.8419 14.6502 69.1514 13.8989C67.6488 13.7111 66.5219 14.4624 66.8975 15.5893C67.461 18.4067 70.2784 18.4067 72.3445 19.158Z" fill="#4E4B66"/>
<path d="M44.5471 88.4665C42.1053 89.03 42.481 91.4717 41.9175 93.1622C41.5418 94.2891 42.2932 95.2283 43.6079 95.4161C46.2375 95.0404 45.674 92.4109 46.4253 90.7204C46.9888 89.4056 46.0497 88.0909 44.5471 88.4665Z" fill="#4E4B66"/>
<path d="M63.7053 88.2783C62.0149 88.4661 61.2636 89.5931 61.8271 90.9079C62.5784 92.5983 61.8271 95.2279 64.8323 95.2279C66.1471 95.2279 66.7106 94.1009 66.3349 92.974C65.7714 91.2835 66.1471 89.0296 63.7053 88.2783Z" fill="#4E4B66"/>
<path d="M54.3137 89.5931C52.0598 89.4053 52.2476 91.2836 52.2476 92.7862C52.2476 94.2888 51.6841 96.5427 54.1259 96.7305C56.1919 96.7305 55.8163 94.6644 56.0041 93.1618C56.0041 91.6592 56.3798 89.7809 54.3137 89.5931Z" fill="#4E4B66"/>
<path d="M36.0955 84.7097C33.4659 85.2732 33.0903 87.5271 32.5268 89.5932C32.339 90.5323 32.9025 91.4715 34.0294 91.2836C36.659 90.7202 36.659 88.2784 37.7859 86.4002C37.4103 85.461 37.2225 84.5219 36.0955 84.7097Z" fill="#4E4B66"/>
<path d="M72.1598 84.7092C71.0328 84.5214 70.4693 85.6483 70.6572 86.5874C71.2207 88.6535 71.5963 90.9074 74.2259 91.2831C75.3528 91.4709 75.7285 90.5318 75.7285 88.8414C74.7893 87.7144 74.9772 84.897 72.1598 84.7092Z" fill="#4E4B66"/>
</svg>
