<svg width="283" height="240" viewBox="0 0 283 240" fill="none" xmlns="http://www.w3.org/2000/svg">
<path d="M228.424 101.536C223.693 67.3176 211.663 29.3258 190.514 20.5322C169.267 11.8207 139.001 32.2252 111.298 55.3234C83.5945 78.4215 58.354 104.295 62.1212 129.871C65.6983 155.418 98.1923 180.557 130.627 191.678C163.16 202.716 195.444 199.709 213.015 182.955C230.586 166.201 233.155 135.755 228.424 101.536Z" fill="#F7F7FC"/>
<path d="M103.741 233.563L103.737 233.563C85.8171 230.052 69.9404 221.817 54.1269 212.939L54.1258 212.939C38.4305 204.18 23.0711 194.617 13.1664 180.971C3.26519 167.208 -1.2037 149.213 1.09025 132.555L1.09077 132.551C3.26467 115.767 12.2069 100.404 21.6974 85.6846C31.1821 70.9741 41.0056 57.0356 54.4545 45.2852L54.4564 45.2836C67.9249 33.3948 84.7181 23.7594 101.446 23.879C109.803 23.9996 118.124 26.6153 126.392 30.4914C134.663 34.3683 142.849 39.4902 150.943 44.6011C167.261 54.9504 182.859 65.1154 192.524 79.4875C202.062 93.8533 205.682 112.446 201.942 128.848C200.072 137.05 196.359 144.724 192.105 152.562C190.993 154.611 189.844 156.672 188.681 158.756C185.406 164.628 182.028 170.684 179.103 177.163C177.089 181.526 175.282 186.077 173.512 190.607C173.304 191.139 173.097 191.672 172.89 192.203C171.332 196.199 169.788 200.16 168.134 203.962C164.385 212.582 160.102 220.31 153.925 225.647C141.696 236.195 121.701 237.203 103.741 233.563Z" stroke="#D6D8E7"/>
<path d="M100.305 177.304C98.3809 177.035 96.4463 176.836 94.5382 176.487C80.9662 173.999 69.9144 167.229 61.2283 156.595C54.3732 148.202 50.2856 138.576 49.2531 127.769C48.0476 115.147 51.1665 103.547 58.2319 93.0835C66.1116 81.4116 76.8334 73.4521 90.5464 70.0165C108.371 65.5511 124.338 69.7877 138.333 81.4303C147.927 89.4111 154.087 99.638 156.796 111.858C157.286 114.064 157.472 116.337 157.802 118.578C157.853 118.923 157.933 119.267 157.999 119.613C157.999 121.742 157.999 123.871 157.999 126C157.911 126.697 157.818 127.397 157.738 128.094C156.533 138.765 152.554 148.295 145.768 156.598C137.08 167.229 126.03 173.999 112.459 176.49C110.55 176.839 108.616 177.038 106.692 177.307C104.563 177.304 102.434 177.304 100.305 177.304ZM103.549 72.5606C76.3677 72.5154 53.33 95.4945 53.2555 122.726C53.1836 149.897 76.1495 172.945 103.395 173.044C130.592 173.142 153.717 150.075 153.739 122.825C153.763 95.6356 130.77 72.6085 103.549 72.5606Z" fill="black"/>
<path d="M103.501 77.4546C111.176 77.396 118.843 79.4664 125.951 83.6285C133.251 87.8997 138.988 93.733 143.11 101.102C147.443 108.843 149.361 117.157 148.701 126.042C147.996 135.545 144.526 143.968 138.498 151.251C130.877 160.462 121.15 166.247 109.191 167.719C93.7536 169.616 80.7964 164.419 70.2235 153.202C63.9032 146.499 60.0791 138.483 58.6421 129.374C57.418 121.611 58.4159 114.088 61.5614 106.906C62.8068 104.061 64.4435 101.389 65.9178 98.6455C66.0827 98.3394 66.3143 98.0547 66.5644 97.8072C67.2483 97.1339 68.3181 97.0222 69.1112 97.5091C69.9414 98.0201 70.3646 99.0925 69.9494 100.008C69.5582 100.873 69.0207 101.677 68.5284 102.494C65.9364 106.813 64.0363 111.403 63.0597 116.361C61.902 122.226 62.3571 128.009 63.9911 133.714C66.1014 141.078 70.0133 147.35 75.5884 152.593C80.5861 157.29 86.3715 160.587 92.9952 162.426C100.146 164.408 107.28 164.368 114.399 162.322C121.76 160.204 128.037 156.3 133.28 150.727C137.98 145.732 141.277 139.947 143.118 133.323C145.104 126.173 145.064 119.038 143.02 111.917C140.907 104.556 136.995 98.2836 131.43 93.0331C125.89 87.8039 119.394 84.3337 111.972 82.6572C104.119 80.8848 96.4547 81.6033 89.0912 84.858C86.6376 85.941 84.3251 87.3488 81.9486 88.6075C81.5415 88.8231 81.1583 89.0892 80.7325 89.2569C79.7691 89.6321 78.7473 89.2835 78.2177 88.4479C77.7014 87.6335 77.7866 86.46 78.5663 85.8319C79.4179 85.148 80.3626 84.5705 81.3046 84.0117C87.9815 80.0705 95.1241 77.6648 103.501 77.4546Z" fill="#FF0083"/>
<path d="M91.4779 122.817C88.6065 119.945 85.8043 117.188 83.0606 114.373C82.3022 113.596 81.5996 112.715 81.0781 111.768C79.1833 108.308 80.1094 103.898 83.1724 101.384C86.3232 98.797 90.81 98.6852 93.841 101.28C95.6959 102.869 97.3724 104.665 99.1128 106.384C100.55 107.802 101.966 109.245 103.762 111.049C103.972 110.637 104.076 110.211 104.342 109.945C106.931 107.318 109.526 104.694 112.163 102.113C116.134 98.2222 121.834 98.5522 125.203 102.831C127.808 106.139 127.404 110.876 124.186 114.149C121.6 116.781 118.973 119.371 116.365 121.981C116.118 122.229 115.881 122.487 115.357 123.04C115.769 123.306 116.211 123.501 116.53 123.817C119.056 126.311 121.565 128.818 124.064 131.335C127.71 135.013 127.859 140.242 124.431 143.704C121.017 147.153 115.729 147.031 112.062 143.401C109.465 140.83 106.891 138.236 104.307 135.654C104.063 135.409 103.802 135.178 103.504 134.898C103.214 135.167 102.953 135.396 102.708 135.641C100.071 138.273 97.4655 140.934 94.799 143.534C90.8286 147.406 85.115 147.036 81.7646 142.738C79.1806 139.422 79.6144 134.699 82.8504 131.426C85.6659 128.573 88.5213 125.763 91.4779 122.817ZM118.566 141.959C119.654 141.935 120.729 141.464 121.576 140.511C123.143 138.749 123.015 136.325 121.203 134.494C118.012 131.263 114.787 128.067 111.578 124.855C110.01 123.288 110.021 122.314 111.61 120.722C114.667 117.659 117.728 114.599 120.785 111.536C121.086 111.235 121.389 110.932 121.656 110.605C123.667 108.13 122.483 104.556 119.388 103.784C117.661 103.353 116.277 103.994 115.069 105.208C111.916 108.375 108.749 111.531 105.587 114.69C103.967 116.307 103.022 116.3 101.377 114.66C98.3145 111.603 95.2568 108.542 92.1938 105.485C91.917 105.21 91.6402 104.931 91.3395 104.684C88.8141 102.597 85.1017 103.872 84.4338 107.071C84.0905 108.71 84.7052 110.048 85.8602 111.201C89.0536 114.381 92.2337 117.569 95.4191 120.757C96.9865 122.324 96.9759 123.298 95.3898 124.89C92.3321 127.953 89.2718 131.013 86.2141 134.076C85.9134 134.377 85.61 134.68 85.3439 135.008C83.3321 137.482 84.5163 141.056 87.6112 141.828C89.3383 142.259 90.7221 141.618 91.9303 140.404C95.0838 137.238 98.2506 134.081 101.412 130.923C103.033 129.305 103.977 129.31 105.622 130.952C108.76 134.084 111.902 137.214 115.027 140.359C115.961 141.299 117.014 141.948 118.566 141.959Z" fill="black"/>
<path d="M117.553 110.96C116.937 110.401 115.952 109.787 116.643 108.871C117.544 107.724 118.257 108.793 118.949 109.422C119.565 109.98 120.55 110.595 119.635 111.448C118.874 112.44 118.168 111.518 117.553 110.96Z" fill="#FF0282"/>
<path d="M115.553 112.96C114.937 112.401 113.952 111.787 114.643 110.871C115.544 109.724 116.257 110.793 116.949 111.422C117.565 111.98 118.55 112.595 117.635 113.448C116.874 114.44 116.168 113.518 115.553 112.96Z" fill="#FF0282"/>
<path d="M113.553 114.96C112.937 114.401 111.952 113.787 112.643 112.871C113.544 111.724 114.257 112.793 114.949 113.422C115.565 113.98 116.55 114.595 115.635 115.448C114.874 116.44 114.168 115.518 113.553 114.96Z" fill="#FF0282"/>
<path d="M117.42 138.385C118.045 137.837 118.767 136.927 119.598 137.718C120.636 138.742 119.493 139.33 118.79 139.947C118.166 140.495 117.444 141.405 116.7 140.4C115.799 139.531 116.795 138.934 117.42 138.385Z" fill="#FF0282"/>
<path d="M115.42 136.385C116.045 135.837 116.767 134.927 117.598 135.718C118.636 136.742 117.493 137.33 116.79 137.947C116.166 138.495 115.444 139.405 114.7 138.4C113.799 137.531 114.795 136.934 115.42 136.385Z" fill="#FF0282"/>
<path d="M113.42 134.385C114.045 133.837 114.767 132.927 115.598 133.718C116.636 134.742 115.493 135.33 114.79 135.947C114.166 136.495 113.444 137.405 112.7 136.4C111.799 135.531 112.795 134.934 113.42 134.385Z" fill="#FF0282"/>
<path d="M111.42 132.385C112.045 131.837 112.767 130.927 113.598 131.718C114.636 132.742 113.493 133.33 112.79 133.947C112.166 134.495 111.444 135.405 110.7 134.4C109.799 133.531 110.795 132.934 111.42 132.385Z" fill="#FF0282"/>
<path d="M119.553 108.96C118.937 108.401 117.952 107.787 118.643 106.871C119.544 105.724 120.257 106.793 120.949 107.422C121.565 107.98 122.55 108.595 121.635 109.448C120.874 110.44 120.168 109.518 119.553 108.96Z" fill="#FF0282"/>
<path d="M73.256 94.8981C72.1409 94.8901 71.1483 93.8869 71.1563 92.7745C71.1643 91.6595 72.1675 90.6669 73.2799 90.6749C74.3949 90.6828 75.3876 91.6861 75.3796 92.7985C75.3716 93.9135 74.3683 94.9035 73.256 94.8981Z" fill="#FF0083"/>
</svg>
