<svg width="24" height="32" viewBox="0 0 24 32" fill="none" xmlns="http://www.w3.org/2000/svg">
<path d="M1.25747 0C7.04899 0 12.8405 0 18.632 0C18.752 0.0966641 18.882 0.183329 18.9903 0.291659C20.5236 1.81995 22.0519 3.35325 23.5869 4.88071C23.7927 5.0857 23.8827 5.31319 23.8811 5.60402C23.8727 6.92565 23.8777 8.24812 23.8777 9.56975C23.8777 15.1179 23.8827 20.6653 23.8761 26.2135C23.8727 28.8409 22.1819 31.0825 19.6912 31.7842C19.3837 31.8708 19.0687 31.9283 18.757 32C12.9238 32 7.09066 32 1.25747 32C0.298332 31.6692 -0.00165972 30.975 6.89838e-06 29.9951C0.0191731 20.6228 0.0116733 11.2514 0.0116733 1.87995C0.0116733 1.75495 0.00750673 1.62996 0.0150065 1.50496C0.0400059 1.08164 0.185835 0.699982 0.515827 0.432489C0.734988 0.25416 1.00831 0.141663 1.25747 0ZM17.817 1.25247C17.6679 1.25247 17.5562 1.25247 17.4437 1.25247C12.2364 1.25247 7.02899 1.25247 1.82163 1.25247C1.32831 1.25247 1.26331 1.31663 1.26331 1.80745C1.26331 11.2747 1.26331 20.742 1.26331 30.2092C1.26331 30.6784 1.33331 30.7475 1.80746 30.7475C5.93152 30.7475 10.0564 30.7475 14.1805 30.7467C14.2788 30.7467 14.3771 30.7375 14.503 30.7317C11.7164 28.3609 11.9097 24.491 13.958 22.3527C14.9313 21.3369 16.1104 20.7128 17.5104 20.5745C19.5462 20.3736 21.2361 21.0944 22.6094 22.6577C22.6094 17.0987 22.6094 11.5955 22.6094 6.06068C22.4811 6.06068 22.3694 6.06068 22.2578 6.06068C21.3411 6.06068 20.4245 6.06151 19.5078 6.06068C18.4637 6.05901 17.8187 5.41153 17.817 4.36239C17.8162 3.34158 17.817 2.32161 17.817 1.25247ZM18.1329 21.7919C15.6621 21.7994 13.6688 23.7927 13.6647 26.261C13.6605 28.7351 15.6763 30.75 18.1529 30.7467C20.6203 30.7434 22.6378 28.7109 22.6261 26.241C22.6136 23.781 20.597 21.7844 18.1329 21.7919ZM19.0695 2.22661C19.0695 2.97492 19.057 3.72074 19.0828 4.46572C19.087 4.58238 19.2645 4.78654 19.3678 4.79071C20.1303 4.81821 20.8936 4.80571 21.6569 4.80571C20.7886 3.9399 19.9378 3.09242 19.0695 2.22661Z" fill="current"/>
<path d="M12.0051 7.62476C14.4309 7.62476 16.8575 7.62476 19.2833 7.62476C19.8833 7.62476 20.0991 7.83308 20.0999 8.42557C20.1016 11.5697 20.1016 14.7146 20.0999 17.8587C20.0999 18.4661 19.8824 18.6753 19.2649 18.6753C14.4234 18.6761 9.58186 18.6753 4.74032 18.6753C4.0945 18.6753 3.88867 18.4661 3.88867 17.8087C3.88867 14.6954 3.88867 11.5822 3.88867 8.4689C3.88867 7.82892 4.09117 7.62476 4.72782 7.62476C7.15359 7.62476 9.57936 7.62476 12.0051 7.62476ZM5.15614 10.8622C6.40111 10.8622 7.63107 10.8622 8.85521 10.8622C8.85521 10.1889 8.85521 9.53971 8.85521 8.90056C7.60774 8.90056 6.38527 8.90056 5.15614 8.90056C5.15614 9.56471 5.15614 10.2055 5.15614 10.8622ZM13.8451 10.8747C13.8451 10.1947 13.8451 9.54637 13.8451 8.89639C12.5993 8.89639 11.3776 8.89639 10.1518 8.89639C10.1518 9.56554 10.1518 10.2147 10.1518 10.8747C11.386 10.8747 12.6009 10.8747 13.8451 10.8747ZM5.15114 14.1338C6.40194 14.1338 7.62441 14.1338 8.86188 14.1338C8.86188 13.4671 8.86188 12.818 8.86188 12.1646C7.61441 12.1646 6.38527 12.1646 5.15114 12.1646C5.15114 12.8263 5.15114 13.4588 5.15114 14.1338ZM13.8409 14.1371C13.8409 13.4513 13.8409 12.8038 13.8409 12.1596C12.5926 12.1596 11.371 12.1596 10.1535 12.1596C10.1535 12.833 10.1535 13.4829 10.1535 14.1371C11.3901 14.1371 12.6051 14.1371 13.8409 14.1371ZM5.15781 17.4003C6.42027 17.4003 7.64191 17.4003 8.86354 17.4003C8.86354 16.7329 8.86354 16.0904 8.86354 15.4387C7.61941 15.4387 6.39111 15.4387 5.15781 15.4387C5.15781 16.1079 5.15781 16.7479 5.15781 17.4003ZM13.8442 17.412C13.8442 16.7345 13.8442 16.087 13.8442 15.4312C12.5993 15.4312 11.3785 15.4312 10.1518 15.4312C10.1518 16.102 10.1518 16.7504 10.1518 17.412C11.3868 17.412 12.6001 17.412 13.8442 17.412ZM18.8183 10.8713C18.8183 10.1914 18.8183 9.54387 18.8183 8.89389C17.5775 8.89389 16.365 8.89389 15.14 8.89389C15.14 9.55971 15.14 10.2089 15.14 10.8713C16.3725 10.8713 17.585 10.8713 18.8183 10.8713ZM15.1475 12.1513C15.1475 12.8371 15.1475 13.4863 15.1475 14.1304C16.3867 14.1304 17.5991 14.1304 18.8216 14.1304C18.8216 13.4613 18.8216 12.8138 18.8216 12.1513C17.5858 12.1513 16.3733 12.1513 15.1475 12.1513ZM15.1334 17.407C16.3833 17.407 17.595 17.407 18.8233 17.407C18.8233 16.7404 18.8233 16.092 18.8233 15.4346C17.5825 15.4346 16.3633 15.4346 15.1334 15.4346C15.1334 16.1004 15.1334 16.742 15.1334 17.407Z" fill="current"/>
<path d="M7.06432 6.05981C6.25268 6.05981 5.44103 6.06148 4.63022 6.05898C4.18773 6.05731 3.89107 5.80065 3.89357 5.42983C3.89607 5.0565 4.1869 4.81068 4.63688 4.80984C6.24934 4.80818 7.8618 4.80818 9.47426 4.80984C9.93675 4.81068 10.2042 5.044 10.2026 5.43566C10.2009 5.82482 9.93091 6.05648 9.46842 6.05814C8.66595 6.06148 7.86513 6.05981 7.06432 6.05981Z" fill="current"/>
<path d="M7.03286 21.5177C6.20038 21.5177 5.36874 21.5293 4.53626 21.5135C4.02544 21.5035 3.71462 21.0002 3.98628 20.6052C4.09794 20.4427 4.3496 20.2844 4.54043 20.2819C6.21455 20.2569 7.88951 20.2619 9.56446 20.2719C9.95445 20.2744 10.2028 20.546 10.2019 20.8985C10.2011 21.2652 9.94612 21.5127 9.52946 21.5168C8.69699 21.5252 7.86534 21.5193 7.03286 21.5193C7.03286 21.5185 7.03286 21.5177 7.03286 21.5177Z" fill="current"/>
<path d="M5.79837 22.7968C6.20336 22.7976 6.60918 22.7901 7.01417 22.7993C7.40166 22.8076 7.66749 23.0559 7.67832 23.4009C7.68999 23.7534 7.41749 24.0392 7.02 24.0459C6.19919 24.0584 5.37755 24.0576 4.55673 24.0467C4.15924 24.0409 3.88425 23.7576 3.89175 23.4068C3.90008 23.0526 4.17258 22.8118 4.58173 22.7976C4.60257 22.7968 4.6234 22.7968 4.64423 22.7968C5.02922 22.7959 5.41338 22.7959 5.79837 22.7968Z" fill="current"/>
<path d="M11.8125 5.4431C11.8084 5.08645 12.0817 4.80895 12.4342 4.81229C12.7659 4.81562 13.0475 5.09311 13.0533 5.42394C13.0592 5.76476 12.7642 6.06142 12.4225 6.05809C12.0867 6.05475 11.8167 5.78226 11.8125 5.4431Z" fill="current"/>
<path d="M19.3941 24.7609C19.3133 24.7276 19.1749 24.6559 19.0274 24.6151C18.7108 24.5276 18.3933 24.4259 18.0691 24.3892C17.8158 24.3609 17.6433 24.5284 17.5892 24.7892C17.5392 25.0301 17.7092 25.1292 17.8816 25.2084C18.1833 25.3476 18.4875 25.4842 18.7983 25.5992C19.5616 25.8817 20.0483 26.3909 20.0858 27.2267C20.1241 28.0767 19.7291 28.7083 18.9816 29.1025C18.8116 29.1925 18.7466 29.2816 18.7258 29.4674C18.6875 29.8116 18.4391 30.0199 18.1191 30.0233C17.7975 30.0266 17.5492 29.8258 17.505 29.4816C17.4833 29.3125 17.4058 29.2758 17.2608 29.225C16.9983 29.1341 16.74 29.015 16.5017 28.8708C16.1842 28.6791 16.1009 28.3283 16.2675 28.0333C16.4392 27.7283 16.805 27.6142 17.1292 27.8075C17.4467 27.9967 17.7733 28.0883 18.1383 28.0583C18.5475 28.025 18.845 27.7133 18.8408 27.3225C18.8383 27.0567 18.6883 26.9067 18.4566 26.81C18.0633 26.6459 17.6667 26.4909 17.2833 26.3059C16.6817 26.0159 16.3159 25.5426 16.3334 24.8542C16.3509 24.1551 16.6742 23.6276 17.3075 23.2959C17.3942 23.2501 17.47 23.1243 17.49 23.0226C17.5575 22.6926 17.785 22.461 18.0925 22.4501C18.3875 22.4393 18.6558 22.636 18.7116 22.9568C18.745 23.1451 18.835 23.2001 18.9983 23.2576C19.2808 23.3568 19.5608 23.4776 19.8191 23.6284C20.0858 23.7843 20.1499 24.0559 20.0591 24.3392C19.9708 24.6151 19.7608 24.7559 19.3941 24.7609Z" fill="current"/>
</svg>
