<svg width="117" height="99" viewBox="0 0 117 99" fill="none" xmlns="http://www.w3.org/2000/svg">
<path d="M94.0793 41.4132C92.1497 27.4565 87.2429 11.961 78.6173 8.37439C69.9512 4.82127 57.6069 13.1436 46.3076 22.5645C35.0083 31.9854 24.7135 42.5385 26.2501 52.9698C27.7091 63.3898 40.9622 73.6432 54.1911 78.1789C67.4604 82.6811 80.6277 81.4543 87.7944 74.621C94.961 67.7876 96.0088 55.3699 94.0793 41.4132Z" fill="#F7F7FC"/>
<path d="M44.7101 97.6839L44.7069 97.6833C37.0421 96.1817 30.2429 92.6581 23.4375 88.8374L23.4364 88.8367C16.6799 85.0664 10.1208 80.9759 5.89814 75.1585C1.67901 69.2937 -0.22596 61.6217 0.751411 54.5245L0.751928 54.5205C1.67854 47.3664 5.49305 40.8019 9.57866 34.4652C13.6584 28.1376 17.8691 22.1662 23.6265 17.136L23.6284 17.1344C29.4053 12.035 36.5667 7.94204 43.6628 7.99237C47.2038 8.04367 50.7435 9.15252 54.2828 10.8116C57.8238 12.4716 61.3326 14.6665 64.8185 16.8676C71.8517 21.3281 78.5111 25.6736 82.6322 31.8015C86.6964 37.923 88.2367 45.8461 86.6452 52.8268C85.8495 56.3171 84.2671 59.592 82.4385 62.9613C81.9631 63.8372 81.4703 64.7207 80.9711 65.6157C79.5599 68.1457 78.0976 70.7673 76.8332 73.5676C75.9624 75.454 75.1821 77.4196 74.4205 79.3695C74.3309 79.5988 74.2416 79.8279 74.1525 80.0566C73.4817 81.7773 72.819 83.477 72.1097 85.1079C70.4997 88.8095 68.677 92.0866 66.0686 94.3401C60.9072 98.7919 52.4151 99.2454 44.7101 97.6839Z" stroke="#D6D8E7"/>
<path d="M43.5976 75.9993C38.0152 75.9993 32.4328 76.0008 26.8504 75.9993C23.3929 75.9979 21.0088 73.6284 21.0073 70.1856C21.0044 63.2486 21.0132 56.3116 21 49.3746C20.9971 48.0771 21.5272 47.1457 22.6372 46.4853C24.8676 45.157 27.0745 43.7863 29.3092 42.464C29.7002 42.2326 29.8056 41.9763 29.8027 41.5516C29.7851 38.8424 29.7924 36.1332 29.7939 33.4255C29.7968 30.769 31.5439 29.0103 34.1857 29.0088C38.4692 29.0059 42.7512 29.0147 47.0346 29C47.4974 28.9985 47.8239 29.1421 48.13 29.4847C51.1042 32.8163 54.0814 36.145 57.082 39.4516C57.4818 39.8924 57.5302 40.3698 57.4613 40.8707C57.3369 41.7566 57.6693 42.2604 58.4615 42.7129C60.541 43.9006 62.5414 45.2215 64.5946 46.456C65.7397 47.1443 66.2713 48.0991 66.2669 49.4405C66.2479 56.3409 66.2596 63.2413 66.2581 70.1416C66.2567 73.6328 63.8916 75.9979 60.4034 75.9993C54.799 76.0008 49.199 75.9993 43.5976 75.9993ZM22.3239 51.867C22.3239 52.1409 22.3239 52.3181 22.3239 52.4938C22.3239 58.3691 22.3224 64.2458 22.3239 70.1211C22.3239 72.9153 24.0885 74.6814 26.8826 74.6814C38.0489 74.6814 49.2137 74.6814 60.3799 74.6814C63.177 74.6814 64.9387 72.9197 64.9387 70.1211C64.9402 64.2458 64.9387 58.3691 64.9387 52.4938C64.9387 52.3181 64.9387 52.1424 64.9387 51.889C64.7454 51.9959 64.6194 52.0604 64.4994 52.1336C63.1418 52.9624 61.7843 53.7928 60.4268 54.6216C58.1643 56.0041 55.9002 57.385 53.6377 58.7674C53.5908 58.7967 53.5454 58.826 53.4971 58.8538C52.9524 59.1789 52.5731 59.1467 52.3549 58.7601C52.1499 58.3984 52.3007 58.0455 52.8001 57.7394C53.7973 57.1273 54.8063 56.5312 55.7875 55.8957C55.9618 55.7829 56.1375 55.5105 56.1375 55.3114C56.1565 50.4612 56.1536 45.6095 56.1507 40.7594C56.1507 40.1824 55.7011 39.7504 55.1182 39.7489C53.7461 39.746 52.3724 39.7562 51.0003 39.746C48.5576 39.7269 46.7725 37.9667 46.7344 35.5255C46.7124 34.0611 46.73 32.5966 46.73 31.1322C46.73 30.8818 46.73 30.6314 46.73 30.3678C46.5997 30.3473 46.5308 30.3282 46.462 30.3282C42.2518 30.3268 38.0416 30.3092 33.8328 30.337C32.3098 30.3473 31.1192 31.6126 31.1177 33.159C31.109 40.5353 31.1104 47.9116 31.128 55.2894C31.128 55.4915 31.2905 55.7741 31.4633 55.881C35.4012 58.3091 39.3493 60.7224 43.3062 63.1182C43.4731 63.2193 43.8026 63.2105 43.9798 63.1124C44.7164 62.7067 45.4223 62.2484 46.1398 61.809C46.9819 61.2936 47.8122 60.7547 48.6777 60.2816C48.8842 60.1689 49.2503 60.2055 49.4729 60.3153C49.6135 60.3856 49.7292 60.7517 49.6706 60.9231C49.593 61.1515 49.3674 61.3683 49.1507 61.503C47.553 62.5003 45.9319 63.4609 44.3401 64.467C43.8407 64.7818 43.4453 64.7804 42.9371 64.4684C36.6577 60.6111 30.3665 56.7714 24.0782 52.9288C23.5203 52.5905 22.9623 52.2551 22.3239 51.867ZM57.4862 54.7974C57.5873 54.7798 57.6283 54.7842 57.6561 54.7666C59.9948 53.3403 62.3335 51.9139 64.6692 50.4817C64.7703 50.4187 64.886 50.3235 64.9226 50.2196C65.2462 49.2823 64.8391 48.1723 63.9824 47.6407C61.9483 46.3798 59.9113 45.1248 57.8743 43.8698C57.763 43.801 57.6356 43.757 57.4862 43.6882C57.4862 47.4225 57.4862 51.0924 57.4862 54.7974ZM29.7675 43.7263C29.5742 43.8391 29.4366 43.9167 29.3004 43.9987C27.4259 45.1336 25.5778 46.3169 23.6653 47.3844C22.6314 47.9614 22.1833 48.7083 22.3092 49.8725C22.3444 50.2005 22.4308 50.3894 22.7134 50.5593C24.9012 51.8817 27.0803 53.2216 29.2623 54.5543C29.4117 54.6451 29.5684 54.7241 29.7675 54.8325C29.7675 51.1202 29.7675 47.4723 29.7675 43.7263ZM54.367 38.4265C52.2333 36.0483 50.1963 33.777 48.0934 31.4339C48.0934 33.0389 48.0041 34.5326 48.1197 36.0117C48.2266 37.3868 49.3689 38.3621 50.7513 38.4177C51.8994 38.4631 53.0505 38.4265 54.367 38.4265Z" fill="#4E4B66"/>
<path d="M22.3238 51.867C22.9623 52.2537 23.5203 52.5905 24.0753 52.9302C30.3635 56.7729 36.6547 60.6126 42.9342 64.4699C43.4409 64.7818 43.8377 64.7833 44.3371 64.4684C45.9289 63.4624 47.5501 62.5017 49.1478 61.5044C49.3645 61.3697 49.59 61.153 49.6676 60.9245C49.7262 60.7532 49.612 60.3871 49.4699 60.3168C49.2473 60.207 48.8812 60.1703 48.6747 60.2831C47.8093 60.7561 46.9789 61.295 46.1369 61.8105C45.4193 62.2498 44.712 62.7082 43.9769 63.1138C43.7997 63.212 43.4702 63.2207 43.3032 63.1197C39.3449 60.7239 35.3982 58.3105 31.4604 55.8825C31.2876 55.7756 31.125 55.493 31.125 55.2909C31.1075 47.9146 31.106 40.5382 31.1148 33.1604C31.1163 31.614 32.3068 30.3487 33.8298 30.3385C38.0401 30.3107 42.2503 30.3282 46.4591 30.3297C46.5279 30.3297 46.5982 30.3502 46.7271 30.3692C46.7271 30.6328 46.7271 30.8833 46.7271 31.1337C46.7271 32.5981 46.7095 34.0625 46.7314 35.527C46.7681 37.9682 48.5547 39.7284 50.9973 39.7474C52.3695 39.7577 53.7431 39.7474 55.1153 39.7504C55.6981 39.7518 56.1477 40.1838 56.1477 40.7608C56.1506 45.611 56.1536 50.4627 56.1345 55.3128C56.1331 55.512 55.9588 55.7844 55.7845 55.8971C54.8019 56.5327 53.7944 57.1287 52.7971 57.7409C52.2992 58.0469 52.1484 58.3999 52.3519 58.7616C52.5716 59.1496 52.9494 59.1804 53.4942 58.8553C53.541 58.8275 53.5879 58.7982 53.6348 58.7689C55.8973 57.3865 58.1613 56.0055 60.4238 54.6231C61.7814 53.7942 63.1389 52.9639 64.4964 52.135C64.6165 52.0618 64.7424 51.9974 64.9357 51.8905C64.9357 52.1424 64.9357 52.3196 64.9357 52.4953C64.9357 58.3706 64.9372 64.2473 64.9357 70.1226C64.9357 72.9211 63.174 74.6828 60.377 74.6828C49.2107 74.6828 38.0459 74.6828 26.8797 74.6828C24.087 74.6828 22.3224 72.9167 22.3209 70.1226C22.3194 64.2473 22.3209 58.3706 22.3209 52.4953C22.3238 52.3181 22.3238 52.1424 22.3238 51.867ZM51.8906 49.1915C51.8965 44.6708 48.2252 40.9717 43.7118 40.9497C39.1018 40.9278 35.3924 44.5727 35.3733 49.1417C35.3543 53.7679 39.0154 57.4582 43.6327 57.4655C48.2105 57.4743 51.8848 53.7928 51.8906 49.1915ZM25.6422 64.6383C25.6422 63.5781 25.6452 62.5178 25.6408 61.459C25.6378 60.8674 25.4138 60.5628 24.9949 60.5613C24.579 60.5599 24.3272 60.8821 24.3257 61.4517C24.3213 63.6088 24.3213 65.7645 24.3257 67.9216C24.3272 68.5029 24.5732 68.8061 25.0125 68.7768C25.5397 68.7402 25.6452 68.3785 25.6422 67.9289C25.6378 66.8306 25.6422 65.7337 25.6422 64.6383ZM35.7277 45.5612C35.6443 45.4631 35.5271 45.1922 35.3309 45.1131C34.6397 44.8305 33.928 44.5918 33.2104 44.3765C32.8531 44.2696 32.5441 44.416 32.4328 44.7953C32.3273 45.1541 32.443 45.4602 32.8135 45.5978C33.4989 45.8512 34.1857 46.1016 34.8842 46.3154C35.3236 46.4487 35.716 46.1382 35.7277 45.5612ZM32.8311 53.781C33.7361 53.4852 34.5313 53.2641 35.284 52.9478C35.4583 52.8746 35.6194 52.4294 35.5564 52.2273C35.492 52.0223 35.1054 51.744 34.9223 51.7836C34.1418 51.9564 33.3685 52.1995 32.6275 52.5011C32.4489 52.5744 32.2893 52.9888 32.3273 53.2129C32.3639 53.4325 32.6642 53.6053 32.8311 53.781ZM55.1036 45.507C55.0845 44.933 54.717 44.6225 54.3011 44.7338C53.5791 44.9301 52.863 45.1541 52.1586 45.4045C51.8013 45.5319 51.6636 45.8526 51.7896 46.2129C51.9126 46.5673 52.2011 46.7357 52.5745 46.6288C53.276 46.4282 53.9818 46.2275 54.6628 45.9654C54.8751 45.8863 55.0113 45.6081 55.1036 45.507ZM54.9674 53.267C54.8839 53.1733 54.758 52.917 54.5617 52.835C53.8896 52.5568 53.1954 52.3283 52.5013 52.1057C52.1352 51.9886 51.8438 52.1453 51.7017 52.4953C51.5567 52.8541 51.6871 53.1733 52.0371 53.311C52.7312 53.5834 53.4371 53.8338 54.1546 54.0388C54.6159 54.1706 54.9732 53.8587 54.9674 53.267ZM33.0376 49.8608C33.3114 49.8608 33.6219 49.9428 33.8474 49.8388C34.0846 49.729 34.3453 49.4698 34.4068 49.2281C34.4991 48.862 34.2252 48.5926 33.8518 48.5662C33.3261 48.5296 32.7842 48.4959 32.2717 48.5867C32.0462 48.6263 31.7621 48.9499 31.7079 49.1901C31.6288 49.543 31.8968 49.8066 32.2732 49.8535C32.5236 49.8857 32.7813 49.8593 33.0376 49.8608ZM54.3216 49.8652C54.5588 49.8652 54.796 49.8784 55.0318 49.8622C55.4389 49.833 55.685 49.5986 55.682 49.1974C55.6791 48.824 55.4433 48.5794 55.0626 48.5618C54.553 48.5384 54.0404 48.5311 53.5322 48.5648C53.1574 48.5897 52.9362 48.8327 52.9435 49.2223C52.9509 49.6118 53.1808 49.8256 53.5571 49.8608C53.8105 49.8827 54.0668 49.8637 54.3216 49.8652ZM25.6495 58.3398C25.6408 58.1758 25.6935 57.9547 25.6085 57.8609C25.4211 57.6545 25.1575 57.3645 24.9364 57.3748C24.3638 57.3982 24.3169 57.8785 24.3228 58.3457C24.3286 58.7821 24.3316 59.2214 24.8851 59.3195C25.2615 59.3854 25.5265 59.2097 25.6173 58.8319C25.6554 58.6737 25.6408 58.5053 25.6495 58.3398Z" fill="white"/>
<path d="M53.7383 70.7122C53.7061 70.2937 53.4486 70.0362 52.9979 70.004C52.5472 69.9718 52.1931 70.1327 52.0966 70.5834C51.9678 71.3238 51.9678 72.0642 52.0966 72.8046C52.1931 73.2553 52.5472 73.4484 52.9979 73.384C53.4164 73.3518 53.7061 73.0943 53.7383 72.6758C53.7705 72.3217 53.7383 71.9998 53.7383 71.6457C53.7383 71.356 53.7705 71.0341 53.7383 70.7122Z" fill="#FF0282"/>
<path d="M58.293 70.8837C58.2608 70.433 58.0033 70.1433 57.5526 70.1111C57.0375 70.0467 56.7156 70.3042 56.619 70.7871C56.4903 71.4631 56.4903 72.1713 56.619 72.8473C56.7156 73.3302 57.0375 73.5555 57.5526 73.5233C58.0033 73.4589 58.2608 73.2014 58.293 72.7507C58.3252 72.461 58.293 72.1713 58.293 71.8816C58.293 71.5275 58.3252 71.2056 58.293 70.8837Z" fill="#FF0282"/>
<path d="M62.526 70.7823C62.4938 70.3317 62.2363 70.0419 61.7856 70.0098C61.2706 69.9454 60.9486 70.2029 60.8521 70.6858C60.7233 71.3618 60.7233 72.07 60.8521 72.746C60.9486 73.2289 61.2706 73.4542 61.7856 73.422C62.2363 73.3576 62.4938 73.1001 62.526 72.6494C62.5582 72.3597 62.526 72.07 62.526 71.7803C62.526 71.4262 62.5582 71.1043 62.526 70.7823Z" fill="#FF0282"/>
<path d="M49.6659 71.8172C49.6659 71.4953 49.6981 71.1734 49.6659 70.8515C49.6337 70.3364 49.3118 70.0789 48.8289 70.1111C48.3139 70.1111 48.0241 70.4008 48.0241 70.8837C47.992 71.4953 47.992 72.1069 48.0241 72.7186C48.0563 73.2014 48.3139 73.4911 48.8289 73.5233C49.3762 73.5233 49.6659 73.2336 49.6981 72.7186C49.6981 72.3967 49.6981 72.1069 49.6659 71.8172Z" fill="#FF0282"/>
<path d="M57.4862 54.7973C57.4862 51.0938 57.4862 47.4225 57.4862 43.6882C57.6356 43.757 57.763 43.8009 57.8743 43.8698C59.9113 45.1248 61.9483 46.3798 63.9824 47.6407C64.8406 48.1722 65.2462 49.2823 64.9226 50.2195C64.886 50.3249 64.7703 50.4201 64.6692 50.4816C62.3335 51.9139 59.9948 53.3402 57.6561 54.7666C57.6283 54.7827 57.5887 54.7797 57.4862 54.7973Z" fill="white"/>
<path d="M29.7675 43.7263C29.7675 47.4723 29.7675 51.1217 29.7675 54.8326C29.5684 54.7227 29.4117 54.6451 29.2623 54.5543C27.0803 53.2217 24.9027 51.8817 22.7134 50.5594C22.4308 50.388 22.3444 50.2006 22.3092 49.8725C22.1833 48.7098 22.6314 47.9629 23.6653 47.3845C25.5778 46.3169 27.4259 45.1337 29.3004 43.9987C29.4366 43.9167 29.5742 43.8391 29.7675 43.7263Z" fill="white"/>
<path d="M54.367 38.4266C53.0505 38.4266 51.8994 38.4632 50.7513 38.4178C49.3689 38.3622 48.2266 37.3868 48.1197 36.0117C48.0055 34.5327 48.0934 33.039 48.0934 31.4339C50.1963 33.777 52.2348 36.0484 54.367 38.4266Z" fill="white"/>
<path d="M51.8906 49.1915C51.8848 53.7913 48.2105 57.4728 43.6327 57.4655C39.0154 57.4582 35.3543 53.7678 35.3734 49.1417C35.3924 44.5727 39.1018 40.9277 43.7118 40.9497C48.2252 40.9717 51.8965 44.6708 51.8906 49.1915ZM50.5727 49.2501C50.5844 45.3854 47.5208 42.2852 43.6737 42.2691C39.812 42.253 36.7148 45.3108 36.6913 49.1651C36.6679 53.04 39.7564 56.1446 43.643 56.1504C47.452 56.1548 50.5609 53.059 50.5727 49.2501Z" fill="#4E4B66"/>
<path d="M25.6422 64.6384C25.6422 65.7352 25.6378 66.8306 25.6452 67.9275C25.6481 68.377 25.5426 68.7402 25.0154 68.7754C24.5761 68.8047 24.3301 68.5015 24.3286 67.9201C24.3228 65.763 24.3242 63.6074 24.3286 61.4503C24.3301 60.8806 24.582 60.5585 24.9979 60.5599C25.4167 60.5614 25.6408 60.866 25.6437 61.4576C25.6452 62.5179 25.6422 63.5781 25.6422 64.6384Z" fill="#FF0282"/>
<path d="M35.7277 45.5612C35.716 46.1382 35.3236 46.4486 34.8842 46.3154C34.1857 46.1016 33.4989 45.8511 32.8135 45.5978C32.443 45.4616 32.3273 45.1541 32.4328 44.7953C32.5441 44.416 32.8531 44.2696 33.2104 44.3765C33.9265 44.5917 34.6382 44.829 35.3309 45.1131C35.5271 45.1922 35.6457 45.4631 35.7277 45.5612Z" fill="#FF0282"/>
<path d="M32.8311 53.781C32.6642 53.6053 32.3639 53.431 32.3288 53.2143C32.2922 52.9902 32.4504 52.5758 32.629 52.5026C33.37 52.2009 34.1418 51.9578 34.9238 51.785C35.1054 51.744 35.4934 52.0237 35.5579 52.2287C35.6208 52.4293 35.4597 52.876 35.2855 52.9492C34.5313 53.2655 33.7361 53.4852 32.8311 53.781Z" fill="#FF0282"/>
<path d="M55.1036 45.507C55.0113 45.608 54.8751 45.8863 54.6628 45.9668C53.9818 46.229 53.2774 46.4281 52.5745 46.6302C52.2011 46.7371 51.9126 46.5687 51.7896 46.2143C51.6636 45.8541 51.8013 45.5333 52.1586 45.4059C52.863 45.1541 53.5791 44.93 54.3011 44.7352C54.717 44.6225 55.0845 44.9344 55.1036 45.507Z" fill="#FF0282"/>
<path d="M54.9674 53.267C54.9733 53.8586 54.6159 54.1705 54.1532 54.0387C53.4371 53.8337 52.7312 53.5833 52.0356 53.3109C51.6856 53.1733 51.5567 52.854 51.7003 52.4952C51.8408 52.1452 52.1337 51.9885 52.4998 52.1057C53.194 52.3283 53.8881 52.5567 54.5603 52.835C54.758 52.917 54.8839 53.1733 54.9674 53.267Z" fill="#FF0282"/>
<path d="M33.0376 49.8607C32.7828 49.8607 32.5236 49.8856 32.2732 49.8549C31.8968 49.808 31.6274 49.5444 31.7079 49.1915C31.7621 48.9513 32.0462 48.6277 32.2717 48.5882C32.7843 48.4974 33.3261 48.531 33.8518 48.5677C34.2267 48.5926 34.4991 48.8635 34.4068 49.2296C34.3453 49.4712 34.0847 49.7319 33.8474 49.8402C33.6219 49.9428 33.31 49.8607 33.0376 49.8607Z" fill="#FF0282"/>
<path d="M54.3216 49.8651C54.0668 49.8651 53.809 49.8842 53.5557 49.8607C53.1808 49.8256 52.9509 49.6118 52.9421 49.2222C52.9347 48.8327 53.1559 48.5896 53.5308 48.5647C54.0389 48.531 54.5515 48.5384 55.0611 48.5618C55.4418 48.5794 55.6776 48.8254 55.6806 49.1974C55.6849 49.5986 55.4375 49.8344 55.0303 49.8622C54.7975 49.8783 54.5588 49.8651 54.3216 49.8651Z" fill="#FF0282"/>
<path d="M25.6496 58.3398C25.6408 58.5038 25.6555 58.6737 25.6174 58.8304C25.5266 59.2082 25.2615 59.3839 24.8852 59.318C24.3316 59.2199 24.3287 58.7806 24.3228 58.3442C24.317 57.877 24.3624 57.3967 24.9364 57.3733C25.1575 57.3645 25.4226 57.6544 25.6086 57.8595C25.6935 57.9546 25.6393 58.1758 25.6496 58.3398Z" fill="#FF0282"/>
<path d="M50.5727 49.2501C50.5609 53.0591 47.452 56.1549 43.6415 56.149C39.7549 56.1431 36.6665 53.04 36.6899 49.1637C36.7133 45.3093 39.8106 42.2516 43.6723 42.2677C47.5208 42.2867 50.5844 45.3855 50.5727 49.2501ZM42.5915 49.8915C42.1698 49.3995 41.7715 48.9264 41.3643 48.4622C41.0817 48.14 40.7346 48.0654 40.3993 48.3436C40.0581 48.6277 40.0874 48.9821 40.3627 49.3087C40.8913 49.9384 41.4244 50.5622 41.9604 51.1861C42.224 51.4921 42.5696 51.5829 42.8844 51.3325C44.2288 50.2664 45.5599 49.1827 46.8794 48.0859C47.1679 47.8457 47.1854 47.5001 46.9453 47.2013C46.7022 46.8997 46.3844 46.8865 46.0637 47.0798C45.9392 47.1545 45.8323 47.257 45.7195 47.3493C44.6857 48.1884 43.6532 49.029 42.5915 49.8915Z" fill="white"/>
<path d="M42.5915 49.8916C43.6532 49.029 44.6857 48.1885 45.7196 47.3493C45.8323 47.2571 45.9407 47.1546 46.0637 47.0799C46.3859 46.8866 46.7037 46.8998 46.9453 47.2014C47.1854 47.5002 47.1693 47.8458 46.8794 48.086C45.5599 49.1828 44.2288 50.2665 42.8844 51.3326C42.5696 51.583 42.224 51.4922 41.9604 51.1861C41.4244 50.5638 40.8913 49.9385 40.3627 49.3087C40.0874 48.9807 40.0581 48.6263 40.3993 48.3437C40.7346 48.0654 41.0832 48.1416 41.3643 48.4623C41.7729 48.9265 42.1698 49.3995 42.5915 49.8916Z" fill="#FF0282"/>
</svg>
