<svg width="57" height="56" viewBox="0 0 57 56" fill="none" xmlns="http://www.w3.org/2000/svg">
<path d="M28.2435 0C12.7583 0 0 12.5635 0 27.8539C0 43.3391 12.5635 56 27.9513 56C43.4365 56 56.0974 43.4365 56.0974 27.9513C56.0974 12.6609 43.5339 0 28.2435 0ZM28.0487 54.0522C13.7322 54.0522 1.94783 42.3652 1.94783 28.0487C1.94783 13.6348 13.7322 1.85043 28.1461 1.94783C42.4626 1.94783 54.1496 13.7322 54.1496 28.0487C54.1496 42.3652 42.4626 54.0522 28.0487 54.0522Z" fill="white"/>
<path d="M28.7306 7.79136C28.9254 7.79136 29.2176 7.79136 29.4124 7.79136C30.3863 7.59657 32.0419 8.76527 32.2367 7.10962C32.3341 5.64875 30.5811 6.1357 29.5098 5.84353C29.315 5.84353 29.2176 5.84353 29.0228 5.84353C14.2193 5.45396 3.3115 18.407 6.33063 32.8209C7.10976 36.814 9.05759 40.32 11.8819 43.3392C12.3689 43.8261 12.7585 44.3131 13.5376 43.8261C13.8298 43.6314 14.1219 43.2418 13.8298 42.7548C13.5376 42.2679 13.148 41.8783 12.7585 41.3914C7.30455 34.6714 6.03846 27.2696 9.64194 19.3809C13.4402 11.4922 20.1602 7.98614 28.7306 7.79136Z" fill="white"/>
<path d="M42.7552 11.3948C42.1709 10.9079 41.4891 9.73916 40.5152 10.7131C39.5413 11.7844 40.8074 12.1739 41.3917 12.7583C50.0595 20.8418 50.7413 32.5287 43.0474 41.6835C42.5604 42.2679 41.4891 42.7548 42.3656 43.6313C43.3395 44.6052 43.9239 43.4366 44.4109 42.8522C48.3065 38.6644 50.0596 33.6 50.2543 27.9513C50.1569 21.4261 47.7222 15.7774 42.7552 11.3948Z" fill="white"/>
<path d="M38.1771 20.4521C34.184 24.3478 30.2884 28.2434 26.3927 32.2365C25.4188 33.2104 24.8345 33.2104 23.958 32.2365C22.2049 30.386 20.3545 28.5356 18.504 26.7826C18.0171 26.393 17.6275 25.7112 16.8484 26.393C15.9719 27.1721 16.6536 27.6591 17.1406 28.146C19.3806 30.386 21.718 32.7234 23.958 34.9634C24.2501 35.2556 24.5423 35.7426 25.3214 35.7426C25.6136 35.4504 26.1006 35.1582 26.4901 34.7686C30.8727 30.4834 35.1579 26.1008 39.4432 21.8156C39.9301 21.2312 41.1962 20.7443 40.2223 19.673C39.2484 18.6991 38.664 19.9652 38.1771 20.4521Z" fill="white"/>
<path d="M37.4947 9.93401C37.9816 10.1288 38.7608 9.54444 38.566 8.9601C38.1764 7.59662 36.7155 7.59662 35.839 7.20705C35.0599 7.10966 34.4755 7.49923 34.6703 8.08358C34.9625 9.54444 36.4234 9.54444 37.4947 9.93401Z" fill="white"/>
<path d="M23.0813 45.8714C21.8153 46.1636 22.01 47.4297 21.7179 48.3062C21.5231 48.8906 21.9126 49.3775 22.5944 49.4749C23.9579 49.2801 23.6657 47.9166 24.0553 47.0401C24.3474 46.3584 23.8605 45.6766 23.0813 45.8714Z" fill="white"/>
<path d="M33.0151 45.7739C32.1386 45.8713 31.7491 46.4557 32.0412 47.1374C32.4308 48.0139 32.0412 49.3774 33.5995 49.3774C34.2812 49.3774 34.5734 48.7931 34.3786 48.2087C34.0864 47.3322 34.2812 46.1635 33.0151 45.7739Z" fill="white"/>
<path d="M28.1454 46.4557C26.9767 46.3583 27.0741 47.3323 27.0741 48.1114C27.0741 48.8905 26.7819 50.0592 28.048 50.1566C29.1193 50.1566 28.9245 49.0853 29.0219 48.3062C29.0219 47.527 29.2167 46.5531 28.1454 46.4557Z" fill="white"/>
<path d="M18.699 43.9235C17.3355 44.2157 17.1407 45.3844 16.8485 46.4557C16.7511 46.9427 17.0433 47.4296 17.6277 47.3322C18.9911 47.0401 18.9911 45.774 19.5755 44.8001C19.3807 44.3131 19.2833 43.8262 18.699 43.9235Z" fill="white"/>
<path d="M37.3989 43.9233C36.8146 43.8259 36.5224 44.4103 36.6198 44.8972C36.9119 45.9686 37.1067 47.1372 38.4702 47.332C39.0546 47.4294 39.2493 46.9425 39.2493 46.0659C38.7624 45.4816 38.8598 44.0207 37.3989 43.9233Z" fill="white"/>
</svg>
