<svg width="128" height="142" viewBox="0 0 128 142" fill="none" xmlns="http://www.w3.org/2000/svg">
<path d="M64.0999 88.5278C63.7511 88.5278 63.5186 88.5278 63.1698 88.5278C49.8003 88.1791 41.1974 82.25 37.5934 70.7406C35.2683 63.3002 35.3845 55.046 35.7333 49.4657C35.7333 48.8844 35.8496 48.1868 35.8496 47.6056C35.9658 46.0942 36.0821 44.5829 36.1983 43.3041C36.4308 40.8627 36.5471 38.8863 36.5471 37.6075C36.5471 37.4913 36.5471 37.4913 36.5471 37.375L39.4535 27.7257C39.5698 27.4932 39.686 27.377 39.9186 27.377L78.9807 26.6794C79.097 26.6794 79.3295 26.7957 79.4457 26.9119L90.7226 41.2115C90.7226 41.3277 90.8388 41.3277 90.8388 41.444C90.8388 41.444 91.4201 44.6992 91.6527 49.2332C91.8852 53.8834 91.6527 58.3012 91.0714 62.3701C90.4901 66.0903 89.5601 69.4618 88.3975 72.4844C84.096 83.18 75.958 88.5278 64.0999 88.5278ZM37.7097 37.7238C37.7097 39.0026 37.5934 40.979 37.3609 43.4203C37.2446 44.6992 37.1284 46.2105 37.0121 47.7218C37.0121 48.3031 36.8959 48.8844 36.8959 49.5819C36.5471 55.046 36.4309 63.1839 38.756 70.3918C42.2437 81.3199 50.4979 87.1327 63.4024 87.3653C75.1443 87.5978 83.2822 82.4825 87.4674 72.2519C88.63 69.3455 89.56 66.0903 90.0251 62.3701C90.6064 58.4174 90.8389 53.9997 90.6064 49.3494C90.3738 45.3967 90.0251 42.4903 89.9088 41.7927L78.8644 27.7257L40.4998 28.307L37.7097 37.7238Z" fill="#4E4B66"/>
<path d="M91.189 52.1413C91.189 55.2802 91.0728 58.8841 90.4915 62.4881C90.1427 64.9295 89.5614 67.4871 88.7476 69.9285C83.2836 68.8822 79.2146 65.3945 79.2146 61.2093C79.2146 56.3265 84.4462 52.4901 91.189 52.1413Z" fill="#FF0282"/>
<path d="M88.8626 70.3916C88.7464 70.3916 88.7464 70.3916 88.8626 70.3916C82.8173 69.2291 78.7483 65.3926 78.7483 61.0911C78.7483 56.0921 84.2124 51.9069 91.1877 51.5581C91.304 51.5581 91.5365 51.5581 91.5365 51.6744C91.6528 51.7906 91.6528 51.9069 91.6528 52.0231C91.6528 55.7433 91.4202 59.231 90.9552 62.4862C90.6064 65.1601 90.0252 67.7177 89.2114 70.0429C89.2114 70.2754 89.0951 70.3916 88.8626 70.3916ZM90.6065 52.7207C84.4449 53.302 79.7946 56.9059 79.7946 61.2074C79.7946 64.9276 83.2823 68.1828 88.3976 69.3453C89.0951 67.2527 89.5601 64.9276 89.9089 62.4862C90.3739 59.3473 90.6065 56.0921 90.6065 52.7207Z" fill="#4E4B66"/>
<path d="M36.3158 50.5136C41.5473 51.6762 45.3838 55.1639 45.3838 59.2329C45.3838 63.0693 42.1286 66.2083 37.3621 67.6033C36.0833 61.9068 35.967 55.8614 36.3158 50.5136Z" fill="#FF0282"/>
<path d="M37.3609 68.183C37.2446 68.183 37.1284 68.183 37.1284 68.0668C37.0121 67.9505 36.8958 67.8342 36.8958 67.718C35.8495 62.9515 35.5008 57.2549 35.8495 50.512C35.8495 50.3958 35.9658 50.1633 36.0821 50.047C36.1983 49.9308 36.4308 49.9308 36.5471 49.9308C42.2436 51.2096 46.0801 54.8135 46.0801 59.115C46.0801 63.0677 42.8249 66.5554 37.7096 68.0668C37.4771 68.183 37.3609 68.183 37.3609 68.183ZM36.7796 51.2096C36.5471 57.3712 36.7796 62.4865 37.7096 66.9042C42.0111 65.5091 44.8013 62.4864 44.8013 59.2313C44.8013 55.6273 41.6623 52.4884 36.7796 51.2096Z" fill="#4E4B66"/>
<path d="M63.7523 73.3C63.7523 73.3 53.6379 75.0439 46.7788 68.301C46.7788 68.301 50.1503 67.6035 51.6616 67.6035C53.0567 67.6035 53.6379 70.5099 53.6379 70.5099C53.6379 70.5099 57.0094 67.836 58.2882 69.3473C59.3345 70.7424 62.0084 72.835 63.7523 73.3Z" fill="#4E4B66"/>
<path d="M60.6121 73.9958C57.0081 73.9958 50.9628 73.182 46.4288 68.648C46.3126 68.5318 46.1963 68.2992 46.3126 68.0667C46.3126 67.8342 46.5451 67.718 46.7776 67.718C46.8938 67.718 50.2653 67.0204 51.7766 67.0204C53.0554 67.0204 53.753 68.5318 54.1018 69.5781C55.2643 68.7643 57.5894 67.4855 58.752 68.9968C59.9146 70.3919 62.4722 72.3682 64.0998 72.8333C64.3323 72.9495 64.5648 73.182 64.4486 73.4145C64.4486 73.647 64.2161 73.8796 63.9835 73.8796C63.751 73.8796 62.4722 73.9958 60.6121 73.9958ZM47.9401 68.648C52.5904 72.717 58.6358 73.0658 61.6584 72.9495C60.1471 72.0194 58.6357 70.7406 57.7057 69.6943C57.0081 68.8805 54.7993 70.2756 53.8692 70.9731C53.753 71.0894 53.5205 71.0894 53.2879 71.0894C53.0554 70.9731 52.9392 70.8569 52.9392 70.6244C52.8229 69.8106 52.2416 68.183 51.5441 68.183C50.7303 68.0667 49.1027 68.4155 47.9401 68.648Z" fill="#4E4B66"/>
<path d="M65.495 63.5327C63.5186 63.5327 60.4959 63.3002 60.0309 63.184C59.6821 63.184 59.4496 62.8352 59.5659 62.6027C59.5659 62.2539 59.9147 62.0214 60.1472 62.1377C62.2398 62.3702 65.7275 62.6027 66.5413 62.3702C67.0063 62.2539 67.1226 62.1377 67.1226 60.0451C67.1226 59.6963 67.1226 59.2313 67.1226 58.7662C67.1226 55.8598 67.8201 45.8618 67.8201 45.3967C67.8201 45.048 68.0526 44.8155 68.4014 44.9317C68.7501 44.9317 68.9827 45.1642 68.8664 45.513C68.8664 45.6293 68.1689 55.9761 68.1689 58.7662C68.1689 59.2313 68.1689 59.58 68.1689 60.0451C68.1689 62.0214 68.1689 63.184 66.7738 63.4165C66.425 63.5327 66.0763 63.5327 65.495 63.5327Z" fill="#4E4B66"/>
<path d="M50.0342 50.5133C50.0342 51.4433 50.848 52.2571 51.778 52.2571C52.7081 52.2571 53.5219 51.4433 53.5219 50.5133C53.5219 49.5832 52.7081 48.7694 51.778 48.7694C50.848 48.7694 50.0342 49.5832 50.0342 50.5133Z" fill="#4E4B66"/>
<path d="M51.7768 52.7208C50.498 52.7208 49.5679 51.6745 49.5679 50.5119C49.5679 49.2331 50.6142 48.3031 51.7768 48.3031C53.0556 48.3031 53.9856 49.3494 53.9856 50.5119C53.9856 51.7907 53.0556 52.7208 51.7768 52.7208ZM51.7768 49.3494C51.1955 49.3494 50.6142 49.8144 50.6142 50.5119C50.6142 51.2095 51.0792 51.6745 51.7768 51.6745C52.4743 51.6745 52.9393 51.2095 52.9393 50.5119C52.9393 49.8144 52.3581 49.3494 51.7768 49.3494Z" fill="#4E4B66"/>
<path d="M75.6111 50.6298C75.6111 51.5598 76.4249 52.3736 77.3549 52.3736C78.285 52.3736 79.0988 51.5598 79.0988 50.6298C79.0988 49.6997 78.285 48.8859 77.3549 48.8859C76.4249 48.8859 75.6111 49.6997 75.6111 50.6298Z" fill="#4E4B66"/>
<path d="M77.2367 52.8371C75.9579 52.8371 75.0278 51.7908 75.0278 50.6283C75.0278 49.3494 76.0741 48.4194 77.2367 48.4194C78.5155 48.4194 79.4456 49.4657 79.4456 50.6283C79.5618 51.9071 78.5155 52.8371 77.2367 52.8371ZM77.2367 49.4657C76.6554 49.4657 76.0741 49.9307 76.0741 50.6283C76.0741 51.2095 76.5392 51.7908 77.2367 51.7908C77.818 51.7908 78.3993 51.3258 78.3993 50.6283C78.3993 50.047 77.9342 49.4657 77.2367 49.4657Z" fill="#4E4B66"/>
<path d="M44.9176 43.4203C44.6851 43.4203 44.5688 43.304 44.4526 43.1878C44.3363 42.9553 44.3363 42.6065 44.5688 42.374C49.3354 39.1188 56.0782 40.0489 56.3108 40.0489C56.6595 40.0489 56.7758 40.3976 56.7758 40.6301C56.7758 40.9789 56.427 41.0952 56.1945 41.0952C56.0782 41.0952 49.5679 40.1651 45.2664 43.1878C45.0339 43.4203 45.0339 43.4203 44.9176 43.4203Z" fill="#4E4B66"/>
<path d="M126.878 141.89H0.507743C0.391487 141.89 0.158953 141.773 0.158953 141.773C0.0426962 141.657 0.0427246 141.541 0.0427246 141.308C0.0427246 140.843 2.94911 97.5959 44.4526 97.2471V82.1338C44.4526 81.785 44.6852 81.5525 45.0339 81.5525C45.3827 81.5525 45.6152 81.785 45.6152 82.1338V97.7122C45.6152 98.0609 45.3827 98.2934 45.0339 98.2934C6.66932 98.2934 1.78657 135.612 1.20529 140.727H126.413C126.065 101.084 87.3513 98.2934 86.8862 98.2934C86.6537 98.2934 86.4212 98.0609 86.4212 97.7122V82.7151C86.4212 82.3663 86.6537 82.1338 87.0025 82.1338C87.3513 82.1338 87.5838 82.3663 87.5838 82.7151V97.2471C92.3503 97.7122 127.576 102.711 127.576 141.308C127.343 141.657 127.111 141.89 126.878 141.89Z" fill="#4E4B66"/>
<path d="M65.9598 96.4332C53.5204 96.4332 44.8012 93.0618 44.5686 92.9455C44.3361 92.8293 44.1036 92.4805 44.2199 92.248C44.3361 92.0155 44.6849 91.783 44.9174 91.8992C45.1499 92.0155 64.4485 99.5722 86.4209 91.8992C86.6535 91.783 87.0022 91.8992 87.1185 92.248C87.2347 92.4805 87.1185 92.8293 86.7697 92.9455C79.4455 95.5032 72.2377 96.4332 65.9598 96.4332Z" fill="#4E4B66"/>
<path d="M63.2874 87.948C53.9869 87.7155 47.709 84.8091 43.6401 80.3913L40.7336 82.2514L44.8026 84.9253C44.8026 84.9253 62.8223 96.551 86.7711 86.2042V74.811C82.9347 82.3677 75.8431 88.2968 63.2874 87.948Z" fill="#4E4B66"/>
<path d="M66.7736 90.9693C53.5203 90.9693 44.6848 85.389 44.5686 85.389L40.4996 82.7151C40.3834 82.5988 40.2671 82.4826 40.2671 82.2501C40.2671 82.0175 40.3834 81.9013 40.4996 81.785L43.406 79.9249C43.6385 79.8087 43.8711 79.8087 44.1036 80.0412C48.5213 84.8077 54.9154 87.2491 63.4021 87.4816C74.214 87.7141 82.0032 83.4126 86.4209 74.5771C86.5372 74.3446 86.7697 74.2284 87.0022 74.3446C87.2347 74.4609 87.4672 74.5771 87.4672 74.9259V86.319C87.4672 86.5515 87.351 86.7841 87.1184 86.7841C79.5618 89.923 72.7027 90.9693 66.7736 90.9693ZM41.7784 82.2501L45.1499 84.4589C45.2661 84.5752 63.0533 95.7358 86.1884 85.7377V76.9023C81.4219 84.8077 73.6327 88.7604 63.1696 88.5279C54.6829 88.2954 48.0563 85.854 43.406 81.0875L41.7784 82.2501Z" fill="#4E4B66"/>
<path d="M36.6646 45.5141C36.6646 45.5141 45.0351 41.9101 45.3838 33.6559C45.3838 33.6559 44.3375 44.9328 53.5218 43.7702C62.5898 42.6077 62.8223 31.2145 62.8223 31.2145C62.8223 31.2145 60.9622 43.7702 71.774 43.7702C82.5859 43.7702 85.2598 37.4924 85.2598 37.4924C85.2598 37.4924 81.4233 54.6983 91.1889 56.3259C91.1889 56.3259 82.1208 64.8126 88.5149 70.858C88.5149 70.858 82.1208 81.6698 89.91 85.39C97.8155 88.994 102.233 84.1112 102.233 84.1112C102.233 84.1112 103.861 95.0393 112.115 89.5753C120.369 84.1112 121.067 74.9269 115.021 69.6954C115.021 69.6954 122.694 67.7191 121.997 58.8836C121.299 50.0481 114.44 49.4668 114.44 49.4668C114.44 49.4668 120.137 40.515 115.719 31.9121C111.301 23.3091 103.28 25.2855 103.28 25.2855C103.28 25.2855 110.952 13.1948 100.141 7.14947C89.3287 1.10414 84.446 13.311 84.446 13.311C84.446 13.311 83.5159 2.84799 74.0991 1.91794C64.5661 0.987885 61.776 9.4746 61.776 9.4746C61.776 9.4746 54.103 -1.80227 46.7789 1.91794C39.4547 5.52188 41.7799 15.5199 41.7799 15.5199C41.7799 15.5199 35.6183 9.82336 27.0153 16.2175C18.4123 22.6116 25.1552 32.3771 25.1552 32.3771C25.1552 32.3771 13.6458 31.2145 12.2508 41.4451C10.8557 51.7919 17.1335 53.187 17.1335 53.187C17.1335 53.187 4.92661 54.2333 6.43794 65.6264C7.94927 77.0196 17.1335 73.8806 17.1335 73.8806C17.1335 73.8806 13.4133 81.7861 19.5749 86.2038C25.7365 90.6216 31.4331 87.9477 31.4331 87.9477C31.4331 87.9477 36.0833 94.6905 40.7336 90.9703C45.3838 87.2501 46.6626 78.8797 38.6409 71.5555C38.6409 71.5555 36.7809 65.6264 36.5483 61.79C36.4321 62.1388 40.2686 51.0944 36.6646 45.5141Z" fill="#4E4B66"/>
<path d="M37.826 92.9456C37.5935 92.9456 37.361 92.9456 37.1285 92.9456C34.3383 92.4805 32.0132 89.9229 31.3156 88.8766C29.8043 89.4579 24.8053 90.7367 19.3412 86.9002C14.2259 83.2963 15.621 77.3672 16.4348 74.9258C15.0397 75.1583 12.5984 75.3909 10.2732 73.8795C7.9481 72.4844 6.55302 69.8105 6.08799 65.9741C5.62297 62.6026 6.32053 59.8125 8.18063 57.4874C10.3895 54.8135 13.6447 53.6509 15.621 53.1859C13.7609 51.9071 10.9708 48.7681 11.9008 41.5602C13.0634 32.7247 21.3176 31.9109 24.3403 31.9109C22.8289 29.2371 19.4575 21.4479 26.7817 15.9838C33.5245 10.9848 38.8723 13.0774 41.1974 14.4725C40.8487 11.5661 40.7324 4.5907 46.6615 1.56804C53.1718 -1.68714 59.7984 5.98578 61.7748 8.54342C62.8211 6.33455 66.4251 0.870498 74.2143 1.56804C81.6547 2.26557 84.096 8.65967 84.7936 11.6823C85.8399 9.82224 88.0487 6.79957 91.4202 5.52075C94.2103 4.5907 97.233 4.93947 100.488 6.79957C103.511 8.54342 105.487 10.8685 106.185 13.775C107.347 18.1927 105.371 22.7267 104.325 24.7031C106.766 24.4705 112.695 24.8193 116.183 31.7947C120.019 39.3514 116.532 46.908 115.253 49.2332C117.113 49.6982 121.879 51.6745 122.461 58.9987C123.042 66.3228 118.043 69.2293 115.95 70.0431C118.392 72.4844 119.67 75.6234 119.438 78.9948C119.205 83.2963 116.532 87.249 112.346 90.1554C109.905 91.783 107.812 92.248 105.952 91.4342C103.395 90.2717 102.232 86.9002 101.883 85.2726C100.256 86.5515 95.9542 88.8766 89.6763 85.9702C87.7 85.0401 86.4212 83.6451 85.8399 81.6687C84.5611 77.4835 87.0025 72.4844 87.8163 70.9731C86.4212 69.4618 85.6074 67.7179 85.7236 65.7416C85.7236 61.7889 88.7463 58.0687 90.1414 56.5573C88.5138 56.0923 87.1187 55.046 86.0724 53.5346C83.3985 49.5819 83.8635 43.1878 84.3286 39.7001C82.5847 41.5602 78.8645 44.1179 71.7729 44.2341C71.7729 44.2341 71.7729 44.2341 71.6566 44.2341C68.6339 44.2341 66.3088 43.3041 64.6812 41.444C63.4024 39.9327 62.7049 38.0725 62.3561 36.3287C61.1935 39.7001 58.7522 43.6529 53.5206 44.2341C50.963 44.5829 48.9866 44.0016 47.4753 42.4903C46.0802 41.0952 45.3827 39.2351 45.0339 37.6075C43.1738 42.2578 38.8723 44.8154 37.361 45.6292C40.4999 51.2095 37.361 60.8588 37.0122 62.0214C37.2447 65.3928 38.756 70.5081 39.1048 71.4381C43.0575 75.0421 45.1501 79.2273 45.0339 83.4125C44.9176 86.6677 43.5226 89.5741 41.0812 91.5505C40.0349 92.5968 38.9886 92.9456 37.826 92.9456ZM31.4319 87.714C31.6644 87.714 31.7807 87.8303 31.8969 87.9466C31.8969 87.9466 34.3383 91.4342 37.2447 91.8993C38.4073 92.0155 39.4536 91.783 40.3836 90.9692C42.4762 89.2254 43.7551 86.5515 43.8713 83.6451C43.9876 79.8086 42.0112 75.7396 38.1748 72.4844C38.0585 72.3682 38.0585 72.3682 38.0585 72.2519C37.9422 72.0194 36.1984 66.2066 35.8496 62.3701C35.8496 62.2539 35.8496 62.2539 35.8496 62.1376C35.8496 62.0214 39.5699 51.3258 36.0822 46.0942C35.9659 45.978 35.9659 45.7455 35.9659 45.6292C35.9659 45.513 36.0821 45.3967 36.3147 45.2804C36.4309 45.2804 44.1039 41.7928 44.6851 34.3523C44.6851 34.1198 44.6851 34.0036 44.6851 34.0036C44.6851 33.6548 44.9176 33.5386 45.2664 33.5386C45.6152 33.5386 45.8477 33.7711 45.7314 34.1198C45.7314 34.2361 45.7314 34.3523 45.7314 34.4686C45.7314 35.6312 45.6152 40.0489 48.0566 42.2578C49.3354 43.4203 51.0792 43.8854 53.2881 43.6529C60.031 42.8391 61.6586 35.8637 62.0073 32.9573C62.0073 32.2597 62.1236 31.6784 62.1236 31.6784C62.1236 31.4459 62.3561 31.2134 62.7049 31.2134C62.9374 31.2134 63.1699 31.4459 63.1699 31.7947C63.1699 31.7947 63.1699 32.2597 63.0536 32.9573C62.9374 34.8174 63.0536 38.7701 65.2625 41.2115C66.6576 42.8391 68.7502 43.6529 71.4241 43.6529C71.4241 43.6529 71.4241 43.6529 71.5404 43.6529C81.7709 43.6529 84.4448 37.9563 84.5611 37.7238C84.6773 37.4913 84.9098 37.375 85.2586 37.375C85.4911 37.4913 85.7236 37.7238 85.6074 38.0725C85.6074 38.1888 83.3985 48.4194 86.7699 53.5346C87.8162 55.046 89.2113 55.976 91.0714 56.3248C91.3039 56.3248 91.4202 56.5573 91.5364 56.6736C91.6527 56.9061 91.5364 57.1386 91.4202 57.2549C91.4202 57.2549 86.6537 61.7889 86.6537 66.3229C86.6537 68.0667 87.3512 69.6943 88.7463 70.9731C88.9788 71.2056 88.9788 71.4381 88.8626 71.6707C88.8626 71.6707 85.4911 77.4835 86.7699 81.785C87.235 83.4125 88.3975 84.5751 90.0251 85.3889C97.4655 88.8766 101.535 84.4588 101.651 84.2263C101.767 84.1101 102 83.9938 102.232 84.1101C102.465 84.2263 102.581 84.3426 102.581 84.5751C102.581 84.5751 103.395 89.5741 106.301 90.853C107.812 91.4342 109.556 91.0855 111.649 89.6904C115.602 87.0165 118.043 83.2963 118.275 79.3436C118.508 76.0884 117.113 72.9495 114.555 70.6243C114.439 70.5081 114.323 70.2756 114.323 70.0431C114.323 69.8105 114.555 69.6943 114.671 69.6943C115.02 69.578 121.879 67.7179 121.182 59.4637C120.484 51.2095 114.439 50.512 114.206 50.512C113.974 50.512 113.858 50.3957 113.741 50.1632C113.625 50.047 113.625 49.8145 113.741 49.5819C113.741 49.4657 119.205 40.8627 115.02 32.6085C110.835 24.4705 103.278 26.3307 103.162 26.3307C102.93 26.3307 102.697 26.3306 102.581 26.0981C102.465 25.8656 102.465 25.6331 102.581 25.5168C102.581 25.5168 106.185 19.704 104.79 14.4725C104.092 11.9148 102.348 9.70598 99.5581 8.19465C96.6517 6.56706 93.8616 6.21829 91.4202 7.03208C86.8862 8.65967 84.6773 14.0075 84.6773 14.1237C84.5611 14.3562 84.3286 14.4725 84.096 14.4725C83.8635 14.4725 83.631 14.24 83.631 14.0075C83.631 13.5424 82.701 4.00941 73.7492 3.19562C64.7975 2.38182 62.1236 10.0548 62.0073 10.2873C61.8911 10.5198 61.7748 10.636 61.5423 10.636C61.3098 10.636 61.0773 10.5198 60.961 10.4035C60.8448 10.2873 53.5206 -0.408327 46.6615 2.96311C39.8023 6.33455 42.0112 15.8676 42.0112 15.9838C42.0112 16.2163 42.0112 16.4489 41.7787 16.5651C41.5462 16.6814 41.3137 16.6814 41.0812 16.4489C40.8487 16.2163 35.0358 11.2173 27.0141 17.2627C18.9925 23.308 25.0378 32.2597 25.2703 32.6085C25.3866 32.841 25.3866 33.0735 25.2703 33.1898C25.154 33.4223 24.9215 33.4223 24.689 33.4223C24.224 33.4223 13.6447 32.376 12.3658 42.0253C11.087 51.6746 16.7836 53.1859 16.8999 53.1859C17.1324 53.3021 17.3649 53.5346 17.3649 53.7672C17.3649 53.9997 17.1324 54.2322 16.8999 54.2322C16.8999 54.2322 11.4358 54.8135 8.52938 58.4174C6.90179 60.3938 6.32051 62.9514 6.78554 65.9741C7.25056 69.4618 8.5294 71.9032 10.5058 73.182C13.2959 74.9258 16.7836 73.8795 16.7836 73.7633C17.0161 73.647 17.2486 73.7633 17.3649 73.8795C17.4811 73.9958 17.5974 74.2283 17.4811 74.4608C17.3649 74.8096 13.9934 82.0175 19.69 86.0864C25.5028 90.2717 30.7343 87.9465 30.9669 87.8303C31.3156 87.714 31.4319 87.714 31.4319 87.714Z" fill="#4E4B66"/>
</svg>
