<svg width="16" height="10" viewBox="0 0 16 10" fill="none" xmlns="http://www.w3.org/2000/svg">
<path d="M0 4.8188C0.0942944 4.44646 0.35985 4.18735 0.603645 3.91575C1.62597 2.77777 2.76718 1.78203 4.10624 1.02849C5.3639 0.320875 6.70014 -0.081287 8.15969 0.0138133C9.22191 0.0831238 10.2076 0.410736 11.1429 0.905177C12.4066 1.5733 13.4897 2.47474 14.4798 3.49545C14.641 3.66148 14.7962 3.83354 14.9533 4.00359C15.1754 4.24417 15.3885 4.49038 15.474 4.8184C15.474 4.93929 15.474 5.06018 15.474 5.18107C15.3821 5.53648 15.1322 5.78834 14.8997 6.05027C13.9004 7.17656 12.7797 8.15779 11.4676 8.90851C10.5598 9.42794 9.59949 9.8031 8.55782 9.94455C7.52542 10.0848 6.52042 9.95381 5.5404 9.61089C4.209 9.14546 3.0557 8.38425 1.99751 7.4671C1.37976 6.93156 0.807547 6.34967 0.292554 5.715C0.166829 5.55986 0.0963092 5.35998 0 5.18107C0 5.06058 0 4.93969 0 4.8188ZM7.7261 0.949101C6.81861 0.953534 5.95465 1.18685 5.1326 1.57854C3.49655 2.35747 2.18005 3.53615 1.01185 4.89778C0.944959 4.97596 0.954227 5.03237 1.01749 5.10611C2.11719 6.39077 3.35672 7.50699 4.86906 8.29077C5.68587 8.71429 6.54863 8.99233 7.47344 9.0415C8.39099 9.09025 9.26583 8.89401 10.1012 8.52771C11.8513 7.76006 13.2367 6.52496 14.4673 5.09443C14.5298 5.02189 14.5205 4.96548 14.4617 4.89697C13.3455 3.59257 12.0874 2.45942 10.5449 1.67565C9.66356 1.22795 8.73392 0.953534 7.7261 0.949101Z" fill="current"/>
<path d="M7.74459 1.66604C9.59019 1.6733 11.0735 3.16387 11.0687 5.00624C11.0638 6.84982 9.57165 8.33475 7.72888 8.33032C5.88611 8.32589 4.39956 6.83249 4.4048 4.99052C4.41004 3.14775 5.90545 1.65879 7.74459 1.66604ZM7.73774 2.61503C6.4277 2.61463 5.35338 3.68813 5.35298 4.99778C5.35258 6.30702 6.42729 7.38254 7.73573 7.38294C9.04497 7.38335 10.1209 6.30823 10.1205 4.99979C10.1205 3.68934 9.04739 2.61543 7.73774 2.61503Z" fill="current"/>
</svg>
