<svg width="117" height="99" viewBox="0 0 117 99" fill="none" xmlns="http://www.w3.org/2000/svg">
<path d="M94.0793 41.4132C92.1497 27.4565 87.2429 11.961 78.6173 8.37438C69.9512 4.82126 57.6069 13.1436 46.3076 22.5645C35.0083 31.9854 24.7135 42.5385 26.2501 52.9698C27.7091 63.3898 40.9622 73.6432 54.1911 78.1789C67.4604 82.6811 80.6277 81.4543 87.7944 74.621C94.961 67.7876 96.0088 55.3698 94.0793 41.4132Z" fill="#F7F7FC"/>
<path d="M76.8328 73.5684C75.9622 75.4545 75.182 77.4199 74.4205 79.3695C74.331 79.5987 74.2417 79.8277 74.1526 80.0563C73.4818 81.7771 72.8191 83.4769 72.1097 85.1079C70.4997 88.8094 68.6772 92.0864 66.0689 94.3398C60.9075 98.7919 52.4152 99.2455 44.7101 97.6839L44.7069 97.6833C37.0421 96.1817 30.2429 92.6581 23.4375 88.8374L23.4364 88.8367C16.6796 85.0662 10.1202 80.9754 5.89753 75.1577C1.67882 69.2929 -0.225913 61.6214 0.751411 54.5245L0.751927 54.5205C1.67854 47.3664 5.49305 40.8019 9.57866 34.4652C13.6584 28.1376 17.8691 22.1662 23.6265 17.136L23.6284 17.1344C29.4053 12.035 36.5667 7.94203 43.6628 7.99237C47.2038 8.04367 50.7435 9.15252 54.2828 10.8116C57.8239 12.4716 61.3327 14.6665 64.8186 16.8677C71.8521 21.3284 78.5118 25.6741 82.6328 31.8024C86.6966 37.9238 88.2366 45.8464 86.6452 52.8268C85.8495 56.3171 84.2671 59.592 82.4385 62.9613C81.9631 63.8372 81.4702 64.7207 80.971 65.6158C79.5597 68.1459 78.0973 70.7678 76.8328 73.5684ZM76.8328 73.5684C76.8331 73.5677 76.8335 73.567 76.8338 73.5663L77.2877 73.7758L76.832 73.5701C76.8323 73.5695 76.8325 73.5689 76.8328 73.5684Z" stroke="#D6D8E7"/>
<rect x="42.7516" y="59.9167" width="23.2084" height="6.50996" transform="rotate(-46.0333 42.7516 59.9167)" fill="white"/>
<path d="M66.0438 43.5104C66.0438 43.8326 66.0438 44.1559 66.0438 44.4781C65.8294 45.5976 65.1333 46.4015 64.3514 47.1767C61.5703 49.9315 58.8145 52.7115 56.0378 55.4695C55.765 55.7411 55.6661 56.0117 55.6661 56.3899C55.676 62.4151 55.6738 68.4403 55.6738 74.4666C55.6738 74.6382 55.6738 74.8098 55.6738 75C45.3543 75 35.0865 75 24.7637 75C24.7637 73.5055 24.7637 72.0352 24.7637 70.521C23.4869 70.521 22.263 70.521 21.0005 70.521C21.0005 70.3494 21.0005 70.2207 21.0005 70.0921C21.0005 58.5695 20.9984 47.0459 21.0027 35.5233C21.0038 32.9676 22.9052 31.0135 25.4565 31.0091C35.3812 30.9937 45.307 31.0025 55.2317 31.0025C56.3468 31.0025 57.3167 31.3808 58.1712 32.0945C60.6224 34.1432 59.9615 38.2868 56.9857 39.4536C56.5689 39.6175 56.1268 39.7175 55.6727 39.855C55.6727 40.6589 55.6727 41.4639 55.6727 42.2699C55.6727 43.0606 55.6727 43.8513 55.6727 44.642C55.7123 44.6541 55.7519 44.6673 55.7914 44.6793C55.8871 44.5694 55.9762 44.4539 56.0785 44.3516C57.165 43.2607 58.2459 42.1644 59.3434 41.0856C60.6741 39.778 62.5303 39.5471 63.9555 40.5368C65.0068 41.2637 65.7799 42.216 66.0438 43.5104ZM26.1064 39.8385C26.1064 51.1466 26.1064 62.425 26.1064 73.7002C35.5395 73.7002 44.932 73.7002 54.3344 73.7002C54.3344 68.2028 54.3344 62.7363 54.3344 57.416C53.1863 58.5596 51.9843 59.7572 50.7977 60.9394C51.1496 60.9394 51.5686 60.9394 52.0019 60.9394C52.0019 61.377 52.0019 61.7784 52.0019 62.2271C51.6379 62.2271 51.297 62.2722 50.9726 62.2194C49.7607 62.0226 48.8139 62.4107 48.1046 63.4115C47.7846 63.8623 47.315 64.0691 46.7861 64.2032C46.0427 64.3924 45.3125 64.6365 44.5768 64.8565C44.5812 64.8883 44.5867 64.9202 44.5911 64.9521C47.0555 64.9521 49.5188 64.9521 51.9975 64.9521C51.9975 65.3997 51.9975 65.7989 51.9975 66.2014C44.3448 66.2014 36.7294 66.2014 29.1108 66.2014C29.1108 65.7692 29.1108 65.3689 29.1108 64.9422C29.5264 64.9422 29.9069 64.9422 30.2874 64.9422C33.4106 64.9422 36.5337 64.9444 39.6568 64.9356C39.8063 64.9356 40.0593 64.8741 40.0901 64.7817C40.3661 63.9558 40.6036 63.1167 40.8708 62.2172C36.9032 62.2172 33.0103 62.2172 29.102 62.2172C29.102 61.7663 29.102 61.3649 29.102 60.9229C29.2856 60.9229 29.444 60.9229 29.6023 60.9229C33.3413 60.9229 37.0802 60.9174 40.8192 60.9317C41.1579 60.9328 41.3074 60.8349 41.3943 60.5083C41.5999 59.7385 41.8452 58.9786 42.0838 58.1802C37.7675 58.1802 33.4347 58.1802 29.1064 58.1802C29.1064 57.7349 29.1064 57.3324 29.1064 56.8925C29.3109 56.8925 29.4836 56.8925 29.6562 56.8925C33.8207 56.8925 37.9842 56.8595 42.1476 56.9167C43.1505 56.9299 43.9005 56.7089 44.535 55.9149C45.0123 55.3166 45.6149 54.8185 46.1615 54.2752C46.1472 54.2401 46.1329 54.2038 46.1186 54.1686C40.4453 54.1686 34.772 54.1686 29.0965 54.1686C29.0965 53.7122 29.0965 53.3207 29.0965 52.8808C29.3065 52.8808 29.4946 52.8808 29.6815 52.8808C35.4725 52.8808 41.2645 52.8775 47.0555 52.8874C47.4074 52.8885 47.657 52.7896 47.9001 52.5355C48.5577 51.846 49.2439 51.184 49.9158 50.5088C50.0016 50.423 50.0752 50.3241 50.2193 50.1558C43.1164 50.1558 36.1147 50.1558 29.1031 50.1558C29.1031 49.7071 29.1031 49.3057 29.1031 48.8681C29.3197 48.8681 29.5078 48.8681 29.6958 48.8681C36.8218 48.8681 43.9467 48.8659 51.0727 48.8758C51.4257 48.8758 51.6698 48.7746 51.9128 48.5217C52.6331 47.7706 53.3897 47.0536 54.1078 46.3014C54.2508 46.1518 54.3574 45.9011 54.3596 45.6966C54.3794 43.8788 54.3717 42.061 54.3695 40.2421C54.3695 40.1145 54.3541 39.987 54.3442 39.8396C44.9276 39.8385 35.5352 39.8385 26.1064 39.8385ZM28.573 38.5101C28.8061 38.5101 28.9623 38.5101 29.1174 38.5101C37.7092 38.5101 46.3011 38.5101 54.893 38.509C55.0986 38.509 55.3032 38.5068 55.5088 38.4936C57.2518 38.3836 58.577 36.7759 58.3669 35.0417C58.202 33.6868 57.0748 32.2803 55.003 32.2847C46.3517 32.3056 37.7015 32.2935 29.0503 32.2957C28.915 32.2957 28.7809 32.3133 28.6181 32.3254C30.2236 34.8668 30.2203 36.2645 28.573 38.5101ZM24.7626 38.4881C25.1387 38.4881 25.4477 38.5189 25.749 38.4826C26.9576 38.3352 27.8329 37.6864 28.2805 36.5702C28.7633 35.3672 28.5521 34.2213 27.6548 33.2723C26.8377 32.4068 25.7996 32.1099 24.6438 32.4123C23.1284 32.8093 22.3092 33.975 22.3092 35.6608C22.3081 46.683 22.3081 57.7052 22.3081 68.7274C22.3081 68.8824 22.3081 69.0375 22.3081 69.1925C23.157 69.1925 23.9411 69.1925 24.7626 69.1925C24.7626 58.9665 24.7626 48.7702 24.7626 38.4881ZM47.1941 62.3679C52.3153 57.2466 57.4619 52.1001 62.5798 46.9821C61.3955 45.7988 60.1748 44.5804 58.9816 43.3883C53.8604 48.5096 48.7138 53.6561 43.5959 58.7741C44.7835 59.9595 46.0031 61.178 47.1941 62.3679ZM60.0065 42.2941C61.2481 43.5456 62.46 44.7673 63.674 45.9891C65.1344 44.6552 65.1245 43.3069 63.6102 41.9114C62.4633 40.8546 60.9831 41.0339 60.0065 42.2941ZM41.5878 64.3836C43.0911 63.936 44.4954 63.517 45.8436 63.1157C44.8363 62.1083 43.8499 61.1208 42.8525 60.1223C42.4467 61.4892 42.0288 62.8968 41.5878 64.3836Z" fill="#4E4B66"/>
<path d="M26.1064 39.8385C35.5352 39.8385 44.9276 39.8385 54.3465 39.8385C54.3564 39.9859 54.3718 40.1135 54.3718 40.241C54.3729 42.0588 54.3806 43.8777 54.3619 45.6955C54.3597 45.9011 54.2519 46.1508 54.1101 46.3003C53.392 47.0536 52.6354 47.7695 51.9151 48.5206C51.6731 48.7735 51.4279 48.8758 51.0749 48.8747C43.9489 48.8648 36.824 48.867 29.698 48.867C29.51 48.867 29.3219 48.867 29.1053 48.867C29.1053 49.3047 29.1053 49.706 29.1053 50.1547C36.1169 50.1547 43.1187 50.1547 50.2215 50.1547C50.0775 50.323 50.0038 50.4208 49.918 50.5077C49.245 51.1829 48.5599 51.846 47.9023 52.5345C47.6593 52.7885 47.4096 52.8875 47.0577 52.8864C41.2668 52.8765 35.4747 52.8798 29.6837 52.8798C29.4957 52.8798 29.3087 52.8798 29.0987 52.8798C29.0987 53.3196 29.0987 53.7111 29.0987 54.1675C34.7742 54.1675 40.4475 54.1675 46.1208 54.1675C46.1351 54.2027 46.1494 54.239 46.1637 54.2742C45.6171 54.8174 45.0145 55.3156 44.5373 55.9138C43.9027 56.7089 43.1527 56.9299 42.1498 56.9156C37.9864 56.8584 33.8219 56.8914 29.6584 56.8914C29.4858 56.8914 29.312 56.8914 29.1086 56.8914C29.1086 57.3313 29.1086 57.7349 29.1086 58.1792C33.4359 58.1792 37.7698 58.1792 42.086 58.1792C41.8474 58.9764 41.6022 59.7363 41.3965 60.5072C41.3097 60.8338 41.1601 60.9317 40.8214 60.9306C37.0825 60.9174 33.3435 60.9218 29.6046 60.9218C29.4462 60.9218 29.2878 60.9218 29.1042 60.9218C29.1042 61.3639 29.1042 61.7653 29.1042 62.2161C33.0125 62.2161 36.9054 62.2161 40.8731 62.2161C40.6059 63.1157 40.3683 63.9547 40.0923 64.7806C40.0615 64.8719 39.8086 64.9335 39.659 64.9346C36.5359 64.9434 33.4128 64.9412 30.2897 64.9412C29.9092 64.9412 29.5298 64.9412 29.113 64.9412C29.113 65.3678 29.113 65.7681 29.113 66.2003C36.7317 66.2003 44.3481 66.2003 51.9997 66.2003C51.9997 65.7989 51.9997 65.3997 51.9997 64.9511C49.5221 64.9511 47.0577 64.9511 44.5933 64.9511C44.5889 64.9192 44.5834 64.8873 44.579 64.8554C45.3147 64.6354 46.0449 64.3913 46.7883 64.2022C47.3173 64.0669 47.7868 63.8613 48.1068 63.4104C48.8161 62.4086 49.763 62.0215 50.9748 62.2183C51.3003 62.2711 51.6412 62.226 52.0041 62.226C52.0041 61.7773 52.0041 61.376 52.0041 60.9383C51.5709 60.9383 51.1519 60.9383 50.8 60.9383C51.9865 59.7561 53.1885 58.5586 54.3366 57.4149C54.3366 62.7352 54.3366 68.2028 54.3366 73.6991C44.9342 73.6991 35.5418 73.6991 26.1086 73.6991C26.1064 62.4251 26.1064 51.1466 26.1064 39.8385ZM52.0129 44.8641C44.347 44.8641 36.7295 44.8641 29.1009 44.8641C29.1009 45.2952 29.1009 45.6988 29.1009 46.1079C36.7525 46.1079 44.3789 46.1079 52.0129 46.1079C52.0129 45.679 52.0129 45.2886 52.0129 44.8641ZM52.0096 68.5503C44.3415 68.5503 36.7295 68.5503 29.102 68.5503C29.102 68.9814 29.102 69.3828 29.102 69.7897C36.7525 69.7897 44.3756 69.7897 52.0096 69.7897C52.0096 69.3652 52.0096 68.9759 52.0096 68.5503Z" fill="white"/>
<path d="M28.5731 38.5101C30.2215 36.2645 30.2248 34.8668 28.6192 32.3244C28.782 32.3123 28.9162 32.2947 29.0514 32.2947C37.7016 32.2936 46.3528 32.3046 55.003 32.2848C57.0748 32.2804 58.202 33.6869 58.367 35.0417C58.5781 36.7759 57.253 38.3837 55.5089 38.4936C55.3043 38.5068 55.0987 38.509 54.893 38.509C46.3012 38.5101 37.7093 38.5101 29.1174 38.5101C28.9623 38.5101 28.8062 38.5101 28.5731 38.5101ZM48.9085 33.2162C48.9085 33.6759 48.9085 34.0784 48.9085 34.5204C49.0944 34.5204 49.2538 34.5204 49.4122 34.5204C51.3168 34.5204 53.2204 34.5171 55.1251 34.5226C55.7607 34.5248 56.1544 34.8613 56.1698 35.4035C56.1742 35.5432 56.1357 35.685 56.1159 35.8324C56.4931 36.0248 56.8505 36.2063 57.2068 36.3888C57.9161 34.9306 56.9726 33.3064 55.3956 33.2294C54.5917 33.1898 53.7846 33.2173 52.9796 33.2162C51.6314 33.2151 50.2864 33.2162 48.9085 33.2162ZM45.395 34.4995C45.9372 34.4995 46.4408 34.4995 46.9621 34.4995C46.9621 34.063 46.9621 33.6517 46.9621 33.2459C46.421 33.2459 45.9163 33.2459 45.395 33.2459C45.395 33.6649 45.395 34.0564 45.395 34.4995Z" fill="white"/>
<path d="M24.7626 38.4881C24.7626 48.7702 24.7626 58.9666 24.7626 69.1915C23.9411 69.1915 23.157 69.1915 22.3081 69.1915C22.3081 69.0364 22.3081 68.8814 22.3081 68.7263C22.3081 57.7041 22.307 46.6819 22.3092 35.6597C22.3092 33.9739 23.1295 32.8082 24.6449 32.4113C25.7996 32.1088 26.8377 32.4058 27.6559 33.2712C28.5521 34.2202 28.7633 35.3661 28.2816 36.5692C27.834 37.6854 26.9576 38.3342 25.7501 38.4815C25.4477 38.52 25.1387 38.4881 24.7626 38.4881Z" fill="white"/>
<path d="M60.0066 42.2942C60.9831 41.0339 62.4633 40.8547 63.6103 41.9115C65.1246 43.307 65.1344 44.6552 63.6741 45.9891C62.46 44.7663 61.2481 43.5445 60.0066 42.2942Z" fill="#FF0282"/>
<path d="M41.5878 64.3836C42.0288 62.8969 42.4467 61.4904 42.8514 60.1223C43.8488 61.1209 44.8363 62.1084 45.8425 63.1157C44.4954 63.5171 43.0911 63.9361 41.5878 64.3836Z" fill="white"/>
<path d="M52.0129 44.8641C52.0129 45.2875 52.0129 45.679 52.0129 46.1079C44.3789 46.1079 36.7525 46.1079 29.1009 46.1079C29.1009 45.6988 29.1009 45.2963 29.1009 44.8641C36.7294 44.8641 44.3459 44.8641 52.0129 44.8641Z" fill="#4E4B66"/>
<path d="M52.0096 68.5504C52.0096 68.976 52.0096 69.3653 52.0096 69.7897C44.3755 69.7897 36.7525 69.7897 29.1019 69.7897C29.1019 69.3828 29.1019 68.9815 29.1019 68.5504C36.7294 68.5504 44.3414 68.5504 52.0096 68.5504Z" fill="#4E4B66"/>
<path d="M48.9085 33.2162C50.2864 33.2162 51.6324 33.2151 52.9774 33.2162C53.7834 33.2173 54.5895 33.1898 55.3934 33.2294C56.9703 33.3064 57.9139 34.9306 57.2046 36.3888C56.8483 36.2073 56.4909 36.0248 56.1137 35.8324C56.1335 35.685 56.172 35.5431 56.1676 35.4035C56.1522 34.8613 55.7585 34.5248 55.1229 34.5226C53.2182 34.5171 51.3146 34.5204 49.41 34.5204C49.2516 34.5204 49.0933 34.5204 48.9063 34.5204C48.9085 34.0783 48.9085 33.6759 48.9085 33.2162Z" fill="#FF0282"/>
<path d="M47.9223 33.4656C47.9087 33.203 47.7694 33.0328 47.5212 33.0115C47.2378 32.9711 47.0579 33.1192 47.0002 33.3999C46.923 33.7928 46.9164 34.2052 46.9812 34.5996C47.03 34.8814 47.2054 35.0144 47.4896 34.9986C47.7387 34.9637 47.8831 34.8151 47.905 34.5529C47.9254 34.3843 47.9104 34.2154 47.9131 34.0467C47.9163 33.8405 47.9371 33.6532 47.9223 33.4656Z" fill="#FF0282"/>
<path d="M46.0006 33.4963C45.987 33.2336 45.8477 33.0635 45.5995 33.0422C45.3161 33.0018 45.1363 33.1499 45.0786 33.4306C45.0013 33.8235 44.9948 34.2359 45.0595 34.6303C45.1083 34.9121 45.2837 35.0451 45.568 35.0293C45.8171 34.9943 45.9614 34.8458 45.9834 34.5836C46.0038 34.415 45.9887 34.2461 45.9914 34.0774C45.9947 33.8712 46.0154 33.6839 46.0006 33.4963Z" fill="#FF0282"/>
<path d="M43.9223 33.4656C43.9087 33.203 43.7694 33.0328 43.5212 33.0115C43.2378 32.9711 43.0579 33.1192 43.0002 33.3999C42.923 33.7928 42.9164 34.2052 42.9812 34.5996C43.03 34.8814 43.2054 35.0144 43.4896 34.9986C43.7387 34.9637 43.8831 34.8151 43.905 34.5529C43.9254 34.3843 43.9104 34.2154 43.9131 34.0467C43.9163 33.8405 43.9371 33.6532 43.9223 33.4656Z" fill="#FF0282"/>
<path d="M42.0006 33.4963C41.987 33.2336 41.8477 33.0635 41.5995 33.0422C41.3161 33.0018 41.1363 33.1499 41.0786 33.4306C41.0013 33.8235 40.9948 34.2359 41.0595 34.6303C41.1083 34.9121 41.2837 35.0451 41.568 35.0293C41.8171 34.9943 41.9614 34.8458 41.9834 34.5836C42.0038 34.415 41.9887 34.2461 41.9914 34.0774C41.9947 33.8712 42.0154 33.6839 42.0006 33.4963Z" fill="#FF0282"/>
<path d="M59.0209 45.3898C58.6735 45.0572 58.3099 44.9747 58.0196 45.1997C57.6677 45.4354 57.6647 45.8142 57.9593 46.2433C58.3756 46.8405 58.8916 47.3912 59.4604 47.8455C59.8693 48.1675 60.2241 48.1641 60.5057 47.8533C60.7256 47.5533 60.6905 47.2101 60.3812 46.8418C60.1892 46.5986 59.9591 46.3912 59.748 46.1659C59.49 45.8905 59.2745 45.6223 59.0209 45.3898Z" fill="#FF0282"/>
<path d="M57.3307 47.2986C56.9833 46.966 56.6198 46.8836 56.3294 47.1085C55.9775 47.3442 55.9745 47.7231 56.2692 48.1522C56.6854 48.7493 57.2014 49.3001 57.7702 49.7544C58.1792 50.0763 58.534 50.073 58.8155 49.7622C59.0355 49.4621 59.0003 49.119 58.691 48.7506C58.499 48.5075 58.2689 48.3 58.0578 48.0747C57.7998 47.7993 57.5843 47.5311 57.3307 47.2986Z" fill="#FF0282"/>
<path d="M55.3307 49.2987C54.9833 48.966 54.6198 48.8836 54.3294 49.1086C53.9775 49.3442 53.9745 49.7231 54.2692 50.1522C54.6854 50.7493 55.2014 51.3001 55.7702 51.7544C56.1792 52.0763 56.534 52.073 56.8155 51.7622C57.0355 51.4621 57.0003 51.119 56.691 50.7507C56.499 50.5075 56.2689 50.3 56.0578 50.0747C55.7998 49.7993 55.5843 49.5311 55.3307 49.2987Z" fill="#FF0282"/>
</svg>
