<svg width="109" height="108" viewBox="0 0 109 108" fill="none" xmlns="http://www.w3.org/2000/svg">
<path d="M54.8008 0C24.9883 0 0.800781 24.375 0.800781 54.1875C0.800781 83.8125 25.1758 108 54.9883 108C84.4258 108 108.613 83.625 108.801 54.1875C108.801 24.375 84.4258 0 54.8008 0ZM54.8008 104.25C27.2383 104.25 4.55078 81.75 4.55078 54.1875C4.55078 26.25 27.2383 3.75 54.9883 3.75C82.5508 3.9375 105.051 26.4375 105.051 54C104.863 81.75 82.3633 104.25 54.8008 104.25Z" fill="#FF0282"/>
<path d="M56.115 15.0003C56.6775 15.0003 57.4275 15.0003 57.99 15.0003C59.6775 14.8128 62.6775 16.6878 62.865 13.6878C63.0525 11.0628 59.865 11.8128 58.1775 11.4378C57.8025 11.2503 57.24 11.4378 56.865 11.4378C28.365 10.3128 7.17749 35.2503 12.99 63.1878C14.49 70.8753 18.24 77.6253 23.6775 83.4378C24.615 84.3753 25.365 85.3128 26.865 84.3753C27.4275 84.0003 27.99 83.2503 27.4275 82.3128C26.865 81.3753 26.115 80.6253 25.365 79.6878C14.865 66.9378 12.4275 52.5003 19.5525 37.3128C26.6775 22.1253 39.615 15.3753 56.115 15.0003Z" fill="#4E4B66"/>
<path d="M70.7378 67.3125C67.1753 63.75 63.6128 60 59.8628 56.4375C57.8003 54.5625 57.6128 53.4375 59.8628 51.375C63.8003 47.8125 67.3628 44.0625 71.1128 40.3125C72.0503 39.375 73.5503 38.4375 71.8628 36.9375C70.3628 35.4375 69.4253 36.9375 68.4878 37.875C64.7378 41.625 60.9878 45.1875 57.4253 49.125C55.7378 51 54.6128 51.1875 52.7378 49.125C49.1753 45.1875 45.4253 41.625 41.6753 37.875C40.7378 36.9375 39.8003 35.4375 38.3003 36.75C36.4253 38.4375 38.3003 39.5625 39.2378 40.5C42.9878 44.25 46.5503 48 50.4878 51.5625C52.1753 53.25 52.3628 54.1875 50.4878 55.875C46.5503 59.625 42.8003 63.5625 39.0503 67.3125C38.1128 68.25 36.6128 69.1875 38.3003 70.6875C39.8003 72.1875 40.7378 70.6875 41.6753 69.75C45.4253 66 49.1753 62.25 52.9253 58.6875C53.6753 57.9375 54.4253 57.1875 55.3628 56.4375C56.3003 57.375 56.8628 57.9375 57.6128 58.5C61.3628 62.25 65.1128 65.9999 68.8628 69.5624C69.8003 70.4999 70.7378 72.1875 72.2378 70.6875C73.5503 69.375 71.6753 68.4375 70.7378 67.3125Z" fill="#FF0282"/>
<path d="M82.5531 21.5625C81.4281 20.625 80.1156 18.9375 78.6156 20.625C76.9281 22.5 78.9906 23.25 80.1156 24.1875C96.9906 40.5 98.4906 62.25 83.6781 80.25C82.7406 81.375 80.6781 82.3125 82.5531 84C84.6156 85.875 85.5531 83.625 86.4906 82.5C93.9906 74.4375 97.1781 64.6875 97.5531 53.8125C97.1781 40.875 92.4906 30.1875 82.5531 21.5625Z" fill="#4E4B66"/>
<path d="M72.8016 19.125C73.9266 19.6875 75.2391 18.5625 75.0516 17.625C74.4891 14.8125 71.4891 15.1875 70.1766 14.0625C68.4891 13.6875 67.3641 14.25 67.5516 15.5625C67.9266 18.375 70.7391 18.375 72.8016 19.125Z" fill="#4E4B66"/>
<path d="M45.2376 88.3126C42.8001 88.8751 43.1751 91.3126 42.8001 93.1876C42.6126 94.5001 43.1751 95.2501 44.8626 95.2501C47.1126 94.6876 46.7376 92.2501 47.3001 90.5626C47.6751 89.2501 46.5501 87.9376 45.2376 88.3126Z" fill="#4E4B66"/>
<path d="M64.3646 88.3123C63.2396 88.1248 62.1146 89.0623 62.4896 90.1873C63.0521 92.0623 62.3021 94.8748 65.3021 95.2498C66.6146 95.4373 67.1771 94.3123 66.9896 92.8123C66.0521 91.4998 66.8021 88.8748 64.3646 88.3123Z" fill="#4E4B66"/>
<path d="M54.6126 89.4375C52.5501 89.4375 52.9251 91.5 52.9251 93C52.9251 94.5 52.5501 96.375 54.8001 96.5625C57.0501 96.5625 56.6751 94.6875 56.6751 93.1875C56.4876 91.6875 57.0501 89.4375 54.6126 89.4375Z" fill="#4E4B66"/>
<path d="M36.7999 84.7499C34.3624 84.9374 33.9874 87.1874 33.2374 89.0624C32.6749 90.1874 33.2374 91.1249 34.7374 91.4999C36.9874 91.1249 37.3624 88.8749 38.1124 87.1874C38.6749 85.8749 38.2999 84.5624 36.7999 84.7499Z" fill="#4E4B66"/>
<path d="M72.803 84.75C71.303 84.75 70.928 85.875 71.4905 87C72.2405 88.6875 72.6155 90.9375 74.8655 91.3125C76.553 91.125 76.928 90 76.3655 88.875C75.6155 87.1875 75.2405 84.75 72.803 84.75Z" fill="#4E4B66"/>
</svg>
