<svg width="90" height="83" viewBox="0 0 90 83" fill="none" xmlns="http://www.w3.org/2000/svg">
<path d="M0 23.6091C0.135802 22.9836 0.296296 22.3602 0.401234 21.7305C1.67695 14.0659 5.7572 8.2902 12.3025 4.23053C13.6296 3.40749 15.1255 2.84576 16.5782 2.247C17.5782 1.83342 18.537 2.28609 18.8518 3.18115C19.1749 4.09885 18.7654 5.05152 17.7531 5.42395C15.3498 6.30872 13.1317 7.51242 11.2016 9.19144C6.89917 12.9342 4.28189 17.5721 3.64815 23.3149C2.98148 29.3622 4.5535 34.747 8.40123 39.3869C13 44.9322 19.0062 47.5741 26.216 47.2655C31.142 47.0556 35.4897 45.2284 39.1769 41.9733C46.1029 35.8581 48.7592 25.8972 44.7119 17.0062C42.4629 12.0659 38.9094 8.42806 34.0041 6.11325C33.4506 5.85193 32.8601 5.66675 32.2901 5.43218C31.0823 4.93629 30.5288 4.05975 30.8683 3.19967C31.3169 2.06593 32.144 1.74288 33.4773 2.21407C37.0555 3.47539 40.179 5.45481 42.823 8.18115C43.535 8.91572 44.2181 9.68115 45.0164 10.5433C50.8806 3.43012 58.3909 0.0062561 67.5905 0.89926C74.4855 1.56798 80.144 4.77169 84.502 10.175C92.5349 20.1359 91.5884 34.6173 82.3107 43.6852C78.8744 47.0433 74.7736 49.2367 70.0679 50.1935C65.3724 51.1461 60.7407 50.8334 56.2222 49.1461C51.716 47.463 48.0473 44.642 45.2654 41.1626C44.0391 42.2429 42.8559 43.2737 41.6831 44.319C37.5658 47.9877 32.7942 50.0968 27.2716 50.5741C21.2592 51.0947 15.7778 49.6996 10.8477 46.2531C5.16255 42.2799 1.6893 36.8519 0.419753 30.0227C0.28395 29.2593 0.141975 28.4918 0 27.7243C0 26.3519 0 24.9815 0 23.6091ZM64.7757 39.9198C72.2551 39.9857 79.4032 33.7593 78.9958 24.9713C78.6687 17.9301 72.7386 11.0556 63.7819 11.5906C56.9259 12.0001 50.6913 17.7285 50.6111 25.7141C50.535 33.4692 57.0123 39.9054 64.7757 39.9198ZM48.7942 33.8293C48.3107 34.8745 47.9033 35.8828 47.3889 36.8334C47.0391 37.4774 47.1255 37.9589 47.5555 38.5103C50.5205 42.3149 54.2222 45.0145 58.8889 46.4095C67.6707 49.035 77.4074 45.6503 82.6357 38.0721C88.4526 29.642 87.8086 18.7634 80.8395 11.1811C75.6214 5.50419 69.0144 3.30872 61.4135 4.48156C55.6378 5.37251 51.0205 8.33753 47.5205 13.0186C47.3271 13.2758 47.072 13.6955 47.1584 13.9178C47.6708 15.2367 48.2736 16.5186 48.9218 17.9795C51.9485 12.6276 56.2098 9.19967 62.2428 8.3581C68.2366 7.52271 73.4403 9.27168 77.6913 13.5762C84.8868 20.8663 84.3127 32.6894 76.6049 39.5001C68.8539 46.3498 54.6008 45.3416 48.7942 33.8293Z" fill="black"/>
<path d="M0 80.8106C0.582304 79.8065 1.46708 79.5411 2.59671 79.5431C15.6564 79.5699 28.7201 79.4012 41.7757 79.6275C48.1502 79.7386 53.9917 78.2839 59.7263 75.7098C66.0267 72.8806 72.4465 70.3209 78.7798 67.5678C79.8683 67.0946 80.9773 66.3991 81.7407 65.5143C82.9423 64.1193 82.8271 62.1584 81.7962 60.6419C80.7469 59.1008 78.8847 58.2839 77.1275 58.8682C74.893 59.6131 72.7222 60.5473 70.537 61.432C66.5432 63.0493 62.5596 64.6892 58.572 66.3168C58.4465 66.3682 58.2921 66.3806 58.1893 66.4588C56.0164 68.0925 53.5082 68.1481 50.9382 68.0987C47.3745 68.0308 43.8086 68.0946 40.2428 68.0699C38.8436 68.0596 38.0905 67.2345 38.3127 66.0411C38.5061 65.002 39.2901 64.6954 40.1975 64.644C41.1214 64.5946 42.0473 64.6296 42.9732 64.6296C46.4012 64.6296 49.8292 64.6398 53.2572 64.6254C55.6317 64.6152 57.3559 62.9526 57.358 60.716C57.3601 58.4176 55.6954 56.7324 53.3148 56.7283C47.3168 56.7139 41.3168 56.716 35.3189 56.7592C33.2428 56.7736 31.4547 57.6234 30.0144 59.1028C28.9156 60.2304 27.8889 61.4279 26.8642 62.6254C24.3806 65.5246 21.395 66.8435 17.4876 66.1357C12.3477 65.2057 7.16049 64.5452 2.00823 63.6748C1.29218 63.5534 0.666666 62.9032 0 62.4979C0 62.1543 0 61.8127 0 61.4691C0.633744 60.4547 1.47325 60.1357 2.69959 60.3394C7.8539 61.1975 13.0329 61.9032 18.1811 62.7942C20.6255 63.216 22.4444 62.395 24.0288 60.644C25.5206 58.9958 26.9588 57.2777 28.6132 55.8045C30.5041 54.1213 32.8477 53.3168 35.4053 53.3086C41.4382 53.2921 47.4732 53.2654 53.5061 53.3127C57.5617 53.3436 60.6275 56.4197 60.7551 60.4526C60.7675 60.8189 60.7572 61.1872 60.7572 61.7798C62.3847 61.1193 63.823 60.539 65.2572 59.9526C68.6749 58.5555 72.0576 57.0617 75.5205 55.7818C78.4917 54.6831 81.3086 55.2201 83.5987 57.465C85.9609 59.7839 86.5843 62.6357 85.5144 65.7674C84.7407 68.037 83.074 69.5287 80.8991 70.4464C72.5802 73.9567 64.2654 77.4835 55.9218 80.9341C52.2448 82.4546 48.3642 82.9958 44.3868 82.9896C30.3642 82.967 16.3436 82.9711 2.32099 82.9999C1.28601 83.004 0.557613 82.6563 0 81.8394C0 81.4958 0 81.1542 0 80.8106Z" fill="#4E4B66"/>
<path d="M35.5157 23.5946C35.5157 24.2016 35.5157 24.5658 35.5157 24.93C35.5157 28.1872 35.5198 31.4424 35.5137 34.6996C35.5096 36.4383 34.8984 37.0308 33.1762 37.0308C27.6227 37.0288 22.0713 37.0329 16.5178 37.0267C14.7009 37.0247 14.2668 36.5946 14.2627 34.788C14.2565 31.5329 14.2606 28.2757 14.2606 25.0185C14.2606 24.6461 14.2606 24.2737 14.2606 23.6543C13.7894 23.9506 13.4869 24.1214 13.203 24.3189C12.3408 24.9197 11.3882 24.7881 10.7544 23.9732C10.1948 23.251 10.3162 22.2387 11.1001 21.5988C12.6371 20.3457 14.1742 19.0864 15.7668 17.9033C16.4808 17.3724 16.7791 16.7839 16.703 15.9074C16.6351 15.1255 16.6783 14.3313 16.6948 13.5432C16.7174 12.4218 17.2462 11.7881 18.2009 11.7016C19.2092 11.609 19.9108 12.1934 20.1001 13.2942C20.1454 13.5556 20.1639 13.823 20.2174 14.2983C21.3388 13.4074 22.347 12.6193 23.3429 11.8128C24.4828 10.8889 25.1701 10.8992 26.3326 11.8292C30.1248 14.8642 33.9252 17.8889 37.7215 20.9177C38.0425 21.1749 38.3738 21.4239 38.6618 21.7119C39.3902 22.4403 39.4458 23.3848 38.8264 24.1111C38.2709 24.7654 37.31 24.856 36.5034 24.3189C36.2503 24.1543 36.0137 23.963 35.5157 23.5946ZM17.6721 27.0699C17.6721 28.9547 17.705 30.8395 17.6557 32.7201C17.6351 33.5082 17.9252 33.7325 18.668 33.7037C19.8985 33.6584 21.1351 33.6646 22.3655 33.7016C23.0631 33.7222 23.3635 33.4979 23.3264 32.7654C23.2791 31.8436 23.2832 30.9156 23.3306 29.9918C23.3902 28.8169 24.0836 28.144 25.1104 28.1728C26.096 28.2016 26.7009 28.8642 26.738 30.0185C26.7688 30.9424 26.7729 31.8683 26.7441 32.7922C26.7236 33.4465 26.9705 33.7201 27.6413 33.6996C28.8038 33.6666 29.9705 33.6605 31.1351 33.7016C31.8573 33.7263 32.0898 33.4424 32.0857 32.7387C32.0631 29.0062 32.0898 25.2716 32.0528 21.5391C32.0487 21.1543 31.8367 20.6502 31.5466 20.4074C29.526 18.7222 27.4705 17.0782 25.3882 15.4691C25.1618 15.2942 24.5692 15.2881 24.345 15.4609C22.2832 17.0411 20.2483 18.6605 18.2503 20.323C17.9396 20.5802 17.7112 21.109 17.6968 21.5185C17.6392 23.3704 17.6721 25.2202 17.6721 27.0699Z" fill="black"/>
<path d="M27.5249 2.49591C27.5229 3.86422 26.4118 4.94447 25.0126 4.93418C23.6587 4.92595 22.6299 3.8848 22.6216 2.51237C22.6134 1.09673 23.6669 0.00619783 25.0496 2.4998e-05C26.3994 -0.00614784 27.527 1.13171 27.5249 2.49591Z" fill="#FF0282" stroke="#FF0282"/>
<path d="M3.49514 78.144C3.06921 78.1132 2.86139 78.1584 2.73588 78.0782C2.30584 77.8025 1.65563 77.5514 1.54864 77.1646C1.35522 76.4691 2.0116 76.1378 2.6186 76.1008C3.3758 76.0555 4.15563 76.0864 4.89637 76.2325C5.13917 76.2798 5.42724 76.7839 5.44164 77.0905C5.45193 77.3148 5.09185 77.6564 4.82024 77.7736C4.33259 77.9856 3.78526 78.0679 3.49514 78.144Z" fill="#FF0282" stroke="#FF0282"/>
<path d="M3.45396 73.0226C3.10005 72.9938 2.89224 73.037 2.76878 72.9547C2.32845 72.6563 1.91693 72.3168 1.49512 71.9917C1.86137 71.6522 2.17824 71.1193 2.60211 71.0144C3.25849 70.8518 4.00746 70.8847 4.67413 71.0308C4.99717 71.1028 5.37989 71.5987 5.43133 71.9485C5.46425 72.1728 4.98483 72.5699 4.65767 72.7243C4.23997 72.9238 3.74614 72.9568 3.45396 73.0226Z" fill="#FF0282" stroke="#FF0282"/>
<path d="M3.14815 67.9774C2.70164 67.8169 2.24485 67.7387 1.88889 67.5062C1.28395 67.1111 1.36214 66.5761 1.86214 66.1461C2.54938 65.5555 4.24074 65.4959 4.96708 66.0432C5.20782 66.2263 5.46913 66.5946 5.4465 66.8518C5.42181 67.109 5.0967 67.4444 4.82716 67.5535C4.29629 67.7654 3.71399 67.8436 3.14815 67.9774Z" fill="#FF0282" stroke="#FF0282"/>
<path d="M69.566 20.1872C69.3561 20.4403 69.066 21.1234 68.6092 21.2613C68.0475 21.4321 67.243 21.323 66.7347 21.0164C66.0495 20.6028 65.3911 20.1563 64.6689 20.5637C64.1998 20.8292 63.7224 21.4156 63.6401 21.9218C63.5784 22.2942 64.0578 22.9156 64.459 23.1687C65.1113 23.5823 65.8952 23.7901 66.6277 24.074C68.7388 24.8888 70.3747 26.1584 70.5578 28.5967C70.7409 31.037 69.5784 32.8024 67.4755 33.9526C66.9281 34.251 66.6833 34.5617 66.7059 35.2181C66.7368 36.179 66.0454 36.8312 65.1216 36.8786C64.1607 36.9279 63.4179 36.3065 63.3973 35.2654C63.3849 34.6399 63.101 34.4588 62.601 34.2818C61.994 34.0658 61.4055 33.786 60.8376 33.4794C59.78 32.9094 59.4364 32.0164 59.8829 31.1131C60.3479 30.1728 61.2903 29.9835 62.4467 30.43C63.2821 30.753 64.1833 31.0185 65.0701 31.0679C66.1627 31.1296 66.9981 30.323 67.1483 29.3107C67.315 28.1913 66.5804 27.7119 65.6956 27.3662C64.8685 27.0432 64.0166 26.7716 63.208 26.4074C61.5022 25.6399 60.3767 24.3724 60.1648 22.4629C59.9323 20.3724 60.8623 18.8024 62.5928 17.7242C63.1566 17.3724 63.4137 17.0473 63.3932 16.3662C63.3623 15.3477 64.0084 14.6728 64.8932 14.6296C65.9528 14.5782 66.6442 15.1625 66.6874 16.2839C66.7121 16.9238 66.9528 17.214 67.5207 17.5C68.4837 17.9856 69.5002 18.5185 69.566 20.1872Z" fill="#FF0282" stroke="#FF0282"/>
</svg>
