<svg width="38" height="37" viewBox="0 0 38 37" fill="none" xmlns="http://www.w3.org/2000/svg">
<path d="M0.60498 29.491C0.783014 28.5099 1.39847 27.816 2.07998 27.1383C6.35373 22.8846 10.6122 18.6157 14.8773 14.3534C14.9788 14.2519 15.0908 14.1629 15.2238 14.0442C14.5366 13.3551 13.8847 12.6936 13.2185 12.0466C13.1582 11.9873 12.9984 11.9901 12.8989 12.0169C11.5875 12.3778 10.349 11.9193 9.69425 10.8186C9.03189 9.70537 9.22333 8.38735 10.1987 7.41008C12.2863 5.31866 14.3815 3.23491 16.4614 1.13584C16.9324 0.660125 17.4837 0.364359 18.1202 0.200684C18.4074 0.200684 18.6945 0.200684 18.9817 0.200684C19.0802 0.235142 19.1788 0.274386 19.2793 0.304058C20.7438 0.734784 21.5737 2.22892 21.1372 3.69052C21.0597 3.94991 21.1114 4.09349 21.2951 4.27631C24.0001 6.96882 26.6984 9.66708 29.3899 12.372C29.567 12.5491 29.7067 12.5759 29.946 12.5032C31.1329 12.1452 32.3839 12.6305 33.0329 13.6738C33.6761 14.7066 33.5756 16.0763 32.7084 16.9578C30.5098 19.1909 28.294 21.4077 26.059 23.6054C25.1688 24.4802 23.8192 24.5731 22.7778 23.9203C21.7192 23.257 21.2492 22.0031 21.6254 20.7999C21.6914 20.5884 21.6627 20.4601 21.5019 20.306C20.8903 19.7164 20.2949 19.1105 19.6928 18.5113C19.6775 18.496 19.6507 18.4931 19.5387 18.3945C19.4612 18.5151 19.4019 18.6539 19.3033 18.7525C14.8993 23.1632 10.4916 27.57 6.08381 31.9758C5.0003 33.0584 3.64208 33.3359 2.38244 32.7272C1.48845 32.2955 0.932332 31.5815 0.685383 30.6224C0.661453 30.5305 0.631781 30.4405 0.60498 30.3496C0.60498 30.0653 0.60498 29.7782 0.60498 29.491ZM14.3595 11.0569C17.098 13.7953 19.8603 16.5568 22.5959 19.2924C24.5227 17.3665 26.4725 15.4187 28.4012 13.491C25.6589 10.7487 22.8965 7.98725 20.1618 5.25358C18.2399 7.17557 16.2901 9.12532 14.3595 11.0569ZM13.432 17.7772C13.3794 17.847 13.3296 17.9322 13.2616 17.9992C11.1319 20.1318 9.00031 22.2625 6.86965 24.3931C5.44921 25.8136 4.03069 27.2369 2.60642 28.6544C2.15942 29.0995 1.94789 29.6221 2.07711 30.2472C2.21207 30.8971 2.60738 31.3441 3.24772 31.5269C3.92923 31.7222 4.51023 31.524 5.01083 31.0225C8.55905 27.4675 12.113 23.9174 15.6641 20.3654C15.7292 20.3003 15.7847 20.2256 15.8268 20.1768C15.0353 19.3833 14.2599 18.6061 13.432 17.7772ZM12.2384 10.719C12.3973 10.63 12.7352 10.5027 12.9936 10.2825C13.4282 9.91116 13.8129 9.48043 14.2178 9.07459C15.9245 7.36796 17.6292 5.65942 19.3387 3.95566C19.6708 3.62543 19.8776 3.25022 19.8115 2.77451C19.7369 2.24424 19.4421 1.87286 18.9281 1.70535C18.3959 1.5321 17.946 1.69004 17.5583 2.07865C15.4392 4.20069 13.3171 6.32082 11.197 8.44191C11.1463 8.49263 11.0936 8.54241 11.0496 8.59792C10.7165 9.02003 10.6409 9.48426 10.8716 9.97337C11.1022 10.4606 11.5062 10.6989 12.2384 10.719ZM24.1954 22.8961C24.6079 22.9086 24.9285 22.7286 25.2119 22.4443C27.3167 20.3357 29.4244 18.2309 31.5301 16.1241C31.6058 16.0485 31.6823 15.971 31.7465 15.8848C32.2892 15.1555 31.9302 14.094 31.0544 13.869C30.5203 13.7322 30.0791 13.9112 29.6914 14.3007C27.599 16.4036 25.4981 18.4989 23.4019 20.5979C23.3014 20.6984 23.2018 20.8066 23.1272 20.9272C22.8668 21.3484 22.8505 21.7896 23.086 22.2223C23.3234 22.6549 23.7005 22.8798 24.1954 22.8961ZM16.8721 19.0339C17.4263 18.4826 17.9805 17.9303 18.5031 17.4096C17.7479 16.6592 16.9649 15.881 16.1925 15.1134C15.6632 15.6417 15.108 16.1978 14.571 16.7348C15.3435 17.5072 16.1255 18.2873 16.8721 19.0339Z" fill="current"/>
<path d="M37.3569 25.6147C37.1444 25.9985 36.8256 26.1344 36.3834 26.1249C35.2626 26.1009 34.1408 26.1182 33.019 26.1163C32.4724 26.1153 32.1499 25.8349 32.1604 25.3812C32.17 24.9437 32.4868 24.6834 33.0199 24.6824C34.1417 24.6805 35.2635 24.6977 36.3844 24.6738C36.8266 24.6642 37.1453 24.7992 37.3578 25.184C37.3569 25.3276 37.3569 25.4711 37.3569 25.6147Z" fill="current"/>
<path d="M32.6804 23.4396C32.4536 23.2463 32.22 23.117 32.0898 22.9199C31.9281 22.6739 31.9855 22.3829 32.1865 22.157C32.4009 21.9168 32.6364 21.6956 32.8642 21.4669C33.7582 20.5719 34.656 19.6789 35.5471 18.7801C35.7979 18.5274 36.0784 18.4135 36.4191 18.5513C36.9054 18.7485 37.0068 19.3267 36.6182 19.7354C36.199 20.1766 35.7606 20.5997 35.3299 21.0304C34.6627 21.6976 34.0023 22.3714 33.3236 23.0261C33.1628 23.1821 32.9417 23.275 32.6804 23.4396Z" fill="current"/>
<path d="M19.5521 9.41887C19.7809 9.31837 19.9713 9.21787 20.1742 9.14991C20.5877 9.01207 20.9859 9.19394 21.1171 9.5634C21.2539 9.95106 21.0663 10.2918 20.6748 10.4966C20.4298 10.6249 20.1934 10.8077 20.0201 11.0202C19.9263 11.136 19.8976 11.4184 19.9752 11.5275C20.0517 11.6347 20.3197 11.6826 20.4719 11.6405C20.7907 11.5534 21.0922 11.3964 21.3946 11.2557C22.1786 10.8929 22.9376 10.8977 23.6038 11.4835C24.2853 12.0817 24.493 12.8599 24.2336 13.7261C24.157 13.9826 24.2183 14.1138 24.3877 14.2746C24.6356 14.5101 24.7141 14.802 24.561 15.1236C24.4298 15.3983 24.1867 15.5696 23.8986 15.5151C23.6449 15.4672 23.4143 15.2988 23.1262 15.1609C22.8993 15.2471 22.6083 15.382 22.303 15.4682C21.8005 15.6108 21.4052 15.4127 21.2932 14.9973C21.1802 14.579 21.4329 14.2583 21.9211 14.0717C22.2092 13.9616 22.4868 13.774 22.7136 13.5625C22.9835 13.3098 22.9701 12.9202 22.7481 12.6503C22.5164 12.3679 22.2513 12.4493 21.9699 12.5689C21.5535 12.746 21.1419 12.9527 20.7074 13.0628C19.2994 13.4218 18.1068 12.1554 18.5461 10.7694C18.638 10.4794 18.46 10.3875 18.3288 10.2363C18.0503 9.91564 18.0407 9.5165 18.3059 9.23414C18.5767 8.94603 19.0075 8.93837 19.3358 9.21882C19.4085 9.282 19.4755 9.34804 19.5521 9.41887Z" fill="current"/>
</svg>
