<svg width="16" height="16" viewBox="0 0 16 16" fill="none" xmlns="http://www.w3.org/2000/svg">
<path d="M13.1433 5.71429C13.7084 5.71429 14.2608 5.54672 14.7306 5.23277C15.2005 4.91882 15.5667 4.4726 15.7829 3.95053C15.9992 3.42845 16.0558 2.85398 15.9455 2.29974C15.8353 1.74551 15.5632 1.23642 15.1636 0.836839C14.764 0.43726 14.2549 0.165144 13.7007 0.0549005C13.1464 -0.055343 12.572 0.00123795 12.0499 0.217488C11.5278 0.433739 11.0816 0.799946 10.7676 1.2698C10.4537 1.73966 10.2861 2.29205 10.2861 2.85714C10.2861 3.61491 10.5872 4.34163 11.123 4.87745C11.6588 5.41327 12.3855 5.71429 13.1433 5.71429ZM13.1433 1.14286C13.4823 1.14286 13.8138 1.2434 14.0957 1.43177C14.3776 1.62014 14.5973 1.88787 14.7271 2.20112C14.8568 2.51436 14.8908 2.85905 14.8246 3.19158C14.7585 3.52412 14.5952 3.82958 14.3555 4.06933C14.1157 4.30907 13.8103 4.47234 13.4777 4.53849C13.1452 4.60464 12.8005 4.57069 12.4872 4.44094C12.174 4.31119 11.9063 4.09146 11.7179 3.80955C11.5295 3.52764 11.429 3.1962 11.429 2.85714C11.429 2.40249 11.6096 1.96645 11.9311 1.64496C12.2526 1.32347 12.6886 1.14286 13.1433 1.14286Z" fill="current"/>
<path d="M13.1433 10.2856C12.5782 10.2856 12.0258 10.4532 11.5559 10.7672C11.0861 11.0811 10.7199 11.5273 10.5036 12.0494C10.2874 12.5715 10.2308 13.146 10.341 13.7002C10.4513 14.2544 10.7234 14.7635 11.123 15.1631C11.5226 15.5627 12.0316 15.8348 12.5859 15.945C13.1401 16.0553 13.7146 15.9987 14.2367 15.7824C14.7587 15.5662 15.205 15.2 15.5189 14.7301C15.8329 14.2603 16.0004 13.7079 16.0004 13.1428C16.0004 12.385 15.6994 11.6583 15.1636 11.1225C14.6278 10.5867 13.901 10.2856 13.1433 10.2856ZM13.1433 14.8571C12.8042 14.8571 12.4728 14.7565 12.1909 14.5682C11.909 14.3798 11.6892 14.1121 11.5595 13.7988C11.4297 13.4856 11.3958 13.1409 11.4619 12.8083C11.5281 12.4758 11.6913 12.1704 11.9311 11.9306C12.1708 11.6909 12.4763 11.5276 12.8088 11.4614C13.1414 11.3953 13.4861 11.4292 13.7993 11.559C14.1126 11.6887 14.3803 11.9085 14.5687 12.1904C14.757 12.4723 14.8576 12.8037 14.8576 13.1428C14.8576 13.5974 14.677 14.0335 14.3555 14.355C14.034 14.6765 13.5979 14.8571 13.1433 14.8571Z" fill="current"/>
<path d="M9.6 3.66849C9.51802 3.54136 9.38897 3.45192 9.24115 3.41978C9.09333 3.38765 8.93879 3.41544 8.81143 3.49706L4.90286 6.01135C4.63715 5.74269 4.32079 5.52941 3.97209 5.38384C3.6234 5.23828 3.24929 5.16333 2.87143 5.16333C2.49357 5.16333 2.11946 5.23828 1.77076 5.38384C1.42207 5.52941 1.10571 5.74269 0.84 6.01135C0.733156 6.11895 0.673432 6.26459 0.673968 6.41623C0.674504 6.56786 0.735255 6.71308 0.842857 6.81992C0.950459 6.92677 1.0961 6.98649 1.24773 6.98595C1.39937 6.98542 1.54458 6.92467 1.65143 6.81706C1.80742 6.65334 1.99426 6.52209 2.20119 6.43088C2.40812 6.33967 2.63105 6.29031 2.85714 6.28563C3.1962 6.28563 3.52764 6.38618 3.80955 6.57454C4.09146 6.76291 4.31119 7.03065 4.44094 7.34389C4.57069 7.65714 4.60464 8.00182 4.53849 8.33436C4.47234 8.6669 4.30907 8.97236 4.06933 9.2121C3.82958 9.45185 3.52412 9.61512 3.19158 9.68127C2.85904 9.74741 2.51436 9.71346 2.20111 9.58371C1.88787 9.45396 1.62013 9.23424 1.43177 8.95233C1.2434 8.67041 1.14286 8.33897 1.14286 7.99992C1.14286 7.84837 1.08265 7.70302 0.97549 7.59586C0.868326 7.4887 0.722981 7.42849 0.571429 7.42849C0.419876 7.42849 0.274531 7.4887 0.167368 7.59586C0.0602039 7.70302 0 7.84837 0 7.99992C0.00121518 8.56687 0.171077 9.12064 0.487969 9.59077C0.804861 10.0609 1.25446 10.4261 1.77954 10.6399C2.30462 10.8538 2.88145 10.9065 3.43662 10.7916C3.99179 10.6766 4.50019 10.399 4.89714 9.99421L8.75429 12.4742C8.88165 12.5558 9.03618 12.5836 9.184 12.5515C9.33183 12.5194 9.46088 12.4299 9.54286 12.3028C9.62448 12.1754 9.65227 12.0209 9.62014 11.8731C9.588 11.7252 9.49856 11.5962 9.37143 11.5142L5.51429 9.02849C5.77997 8.36851 5.77997 7.63133 5.51429 6.97135L9.42857 4.45706C9.55571 4.37508 9.64515 4.24603 9.67728 4.09821C9.70942 3.95039 9.68163 3.79586 9.6 3.66849Z" fill="current"/>
</svg>
