<svg width="71" height="70" viewBox="0 0 71 70" fill="none" xmlns="http://www.w3.org/2000/svg">
<path d="M44.7389 69.5218C43.479 69.0908 42.4799 68.3626 42.2405 66.9755C42.1431 66.4108 42.2405 65.7932 42.3462 65.2153C42.4601 64.5927 42.6847 63.99 42.8944 63.2585C42.6087 63.2585 42.3759 63.2585 42.1414 63.2585C35.4339 63.2585 28.7247 63.2585 22.0172 63.2568C21.7497 63.2568 21.4772 63.2651 21.2146 63.2188C20.7192 63.1313 20.4616 62.8011 20.4633 62.3073C20.4633 61.8351 20.7259 61.5296 21.1849 61.4355C21.4243 61.3859 21.677 61.3909 21.923 61.3909C28.8997 61.3859 35.8764 61.3793 42.8531 61.3909C43.3518 61.3925 43.6722 61.2918 43.9529 60.8261C44.2782 60.2862 44.7207 59.804 45.1699 59.3532C48.6194 55.8855 52.0789 52.426 55.5499 48.9781C55.8686 48.6611 55.9974 48.349 55.9958 47.8998C55.9858 37.2292 55.9891 26.5569 55.9908 15.8863C55.9908 15.6799 55.9842 15.4735 55.9941 15.2671C56.0255 14.6941 56.4053 14.2961 56.9106 14.2994C57.4225 14.3027 57.8056 14.6891 57.8501 15.2588C57.8667 15.4636 57.8551 15.6716 57.8551 15.878C57.8551 25.8469 57.8551 35.8174 57.8551 45.7862C57.8551 46.0256 57.8551 46.2651 57.8551 46.5045C57.9013 46.5309 57.9476 46.5573 57.9955 46.5838C58.3307 46.2337 58.6576 45.8754 58.9994 45.5319C60.1785 44.3463 61.3575 43.1606 62.5464 41.9849C64.3331 40.2213 66.7605 40.2164 68.5621 41.9651C68.9468 42.3383 69.3266 42.7197 69.7015 43.1028C71.4237 44.8681 71.4403 47.3235 69.7064 49.0756C67.0924 51.716 64.457 54.3349 61.8298 56.9621C58.6626 60.1293 55.4838 63.2849 52.3332 66.4686C51.2285 67.5849 49.9471 68.3461 48.4378 68.7606C47.6105 68.9868 46.7964 69.2659 45.9774 69.5202C45.5646 69.5218 45.1517 69.5218 44.7389 69.5218ZM61.0157 54.7444C59.6781 53.4102 58.2101 51.9488 56.9403 50.6823C53.2546 54.3052 49.5111 57.9876 45.8188 61.6171C47.2241 63.0207 48.6492 64.4441 50.0362 65.8312C53.6905 62.1422 57.3861 58.4103 61.0157 54.7444ZM66.2585 49.7856C67.0198 49.0359 67.8157 48.316 68.5356 47.5266C69.2985 46.6878 69.2804 45.4972 68.529 44.6517C68.0502 44.1134 67.5366 43.6015 66.9983 43.1227C66.2569 42.4638 65.1819 42.3267 64.4305 42.9295C63.4926 43.6808 62.6686 44.5725 61.8314 45.3701C63.3506 46.8859 64.7905 48.3226 66.2585 49.7856Z" fill="#4E4B66"/>
<path d="M52.1268 6.00165C52.4207 6.08587 52.7179 6.16183 53.0086 6.2543C54.9901 6.89005 56.3343 8.183 57.008 10.1563C57.2656 10.9093 57.0906 11.3882 56.5143 11.5979C55.9429 11.8076 55.5119 11.5269 55.2477 10.7739C54.5988 8.92278 53.1357 7.86596 51.1674 7.86596C40.1665 7.861 29.1672 7.861 18.1664 7.86596C15.6613 7.86761 13.8713 9.65596 13.8713 12.1626C13.8647 27.1051 13.8664 42.0477 13.8697 56.9902C13.8697 58.8991 14.8291 60.3027 16.5894 61.021C17.3027 61.3116 17.5686 61.7327 17.3787 62.266C17.1624 62.8704 16.6571 63.0339 15.8909 62.7499C13.6319 61.9127 12.078 59.761 12.0136 57.3502C11.9889 56.4634 12.0054 55.575 12.0054 54.6883C12.0054 40.654 12.0054 26.6197 12.0054 12.5853C12.0054 9.03342 13.66 6.92307 17.1062 6.07101C17.1426 6.06275 17.1723 6.02477 17.2053 6C28.8436 6.00165 40.4852 6.00165 52.1268 6.00165Z" fill="#4E4B66"/>
<path d="M34.7255 10.3131C37.7589 10.3131 40.7923 10.3098 43.8257 10.3148C46.093 10.3181 47.4768 11.7019 47.4982 13.9807C47.5048 14.661 47.5263 15.3446 47.4751 16.0217C47.3314 17.9388 45.9229 19.2466 44.0008 19.2516C40.0806 19.2615 36.1588 19.2549 32.2386 19.2549C29.9681 19.2549 27.6993 19.2582 25.4287 19.2532C23.292 19.2483 21.8504 17.8315 21.8157 15.7013C21.8058 15.0408 21.7959 14.3803 21.819 13.7198C21.8917 11.7134 23.3085 10.3247 25.3164 10.3165C28.4522 10.3049 31.588 10.3148 34.7255 10.3131ZM34.7288 12.1923C31.6343 12.1923 28.5414 12.189 25.4469 12.194C24.3059 12.1956 23.7312 12.7554 23.6982 13.8882C23.6833 14.4034 23.6932 14.9202 23.6949 15.4354C23.7015 16.8457 24.2365 17.3807 25.6417 17.3807C29.9731 17.3823 34.3044 17.3807 38.6374 17.3807C40.3911 17.3807 42.1447 17.3873 43.8968 17.3774C44.9916 17.3724 45.5728 16.7961 45.6042 15.703C45.619 15.1465 45.6124 14.5883 45.6075 14.0319C45.5959 12.7224 45.0675 12.194 43.7647 12.1923C40.7527 12.189 37.7407 12.1907 34.7288 12.1923Z" fill="#4E4B66"/>
<path d="M26.6884 14.7537C26.6884 15.3786 26.8179 16.0728 26.0407 16.0728C25.2634 16.0728 25.3929 15.3091 25.3929 14.8231C25.3929 14.2677 25.1986 13.3651 26.1054 13.4346C26.8179 13.504 26.6236 14.2677 26.6884 14.7537Z" fill="#FF0282"/>
<path d="M28.8524 14.7537C28.8524 14.1983 28.7229 13.4346 29.4348 13.4346C30.3409 13.3651 30.1467 14.2677 30.1467 14.8231C30.1467 15.3786 30.2761 16.0728 29.4995 16.0728C28.7229 16.0728 28.8524 15.3091 28.8524 14.7537Z" fill="#FF0282"/>
<path d="M32.1457 14.752C32.1457 14.0592 32.1457 13.3663 32.8958 13.4356C33.6458 13.5049 33.4413 14.267 33.4413 14.8213C33.4413 15.3756 33.5777 16.1377 32.7594 16.0684C31.9412 16.0684 32.2821 15.1677 32.1457 14.752Z" fill="#FF0282"/>
<path d="M36.7612 14.6823C36.696 15.2385 36.9567 16.0728 36.0442 16.0728C35.3272 16.0728 35.4576 15.308 35.4576 14.7518C35.4576 14.1956 35.3272 13.5003 36.1094 13.4308C36.8916 13.4308 36.7612 14.1261 36.7612 14.6823Z" fill="#FF0282"/>
<path d="M38.76 14.8233C38.8329 14.2679 38.6143 13.5043 39.4158 13.4349C40.436 13.3654 40.2174 14.1985 40.2174 14.8233C40.2174 15.3786 40.3631 16.0728 39.4887 16.0728C38.6143 16.0728 38.76 15.3786 38.76 14.8233Z" fill="#FF0282"/>
<path d="M43.5316 14.7518C43.5316 15.308 43.6596 16.0728 42.892 16.0728C41.9966 16.0728 42.2524 15.2385 42.2524 14.6823C42.2524 14.1261 42.1885 13.4308 42.956 13.4308C43.6596 13.5003 43.4677 14.2651 43.5316 14.7518Z" fill="#FF0282"/>
<path d="M23.3019 34.4715C25.5311 34.4831 27.3508 36.3111 27.3508 38.5386C27.3508 40.7827 25.475 42.6421 23.2375 42.6157C21.0049 42.5893 19.1869 40.7563 19.1885 38.537C19.1902 36.2846 21.038 34.46 23.3019 34.4715ZM23.2474 36.3424C22.0353 36.3523 21.0495 37.3514 21.0627 38.5585C21.0759 39.7623 22.0865 40.7464 23.2936 40.7316C24.5057 40.7167 25.4964 39.7127 25.4799 38.5122C25.4634 37.3018 24.466 36.3325 23.2474 36.3424Z" fill="#FF0282"/>
<path d="M23.2837 54.3399C21.0231 54.3465 19.1802 52.5102 19.1885 50.2595C19.1984 48.0336 21.0181 46.2205 23.2556 46.2139C25.5195 46.2072 27.3607 48.0402 27.3508 50.2942C27.3426 52.5234 25.5229 54.3332 23.2837 54.3399ZM23.2655 52.464C24.4858 52.4656 25.4766 51.4881 25.4799 50.281C25.4832 49.0755 24.4924 48.0914 23.2738 48.0897C22.0551 48.0881 21.0627 49.0656 21.0611 50.2727C21.0578 51.4782 22.0502 52.4623 23.2655 52.464Z" fill="#FF0282"/>
<path d="M40.7461 51.2123C38.3319 51.2123 35.9177 51.2173 33.5035 51.2057C33.2443 51.204 32.8909 51.1958 32.7505 51.0406C32.5293 50.7929 32.3014 50.3867 32.3575 50.1043C32.4137 49.8203 32.7935 49.5742 33.0758 49.3744C33.2013 49.2853 33.4375 49.3447 33.6224 49.3447C38.3897 49.343 43.1553 49.3447 47.9226 49.3447C48.0464 49.3447 48.1703 49.3397 48.2941 49.348C48.8622 49.3876 49.2585 49.7707 49.2601 50.2777C49.2618 50.7879 48.8704 51.1875 48.3007 51.2074C47.6617 51.2288 47.021 51.214 46.3819 51.214C44.5011 51.2123 42.6236 51.2123 40.7461 51.2123Z" fill="#4E4B66"/>
<path d="M40.7296 27.7244C38.3567 27.7244 35.9854 27.726 33.6125 27.7227C33.3863 27.7227 33.094 27.7739 32.9504 27.6567C32.6878 27.4436 32.3443 27.1183 32.3476 26.8442C32.3526 26.5371 32.6581 26.1837 32.9206 25.9492C33.0692 25.8155 33.3929 25.8518 33.6373 25.8518C38.4029 25.8468 43.1669 25.8485 47.9325 25.8485C48.0151 25.8485 48.0976 25.8468 48.1802 25.8501C48.8407 25.8881 49.2618 26.2646 49.2552 26.8079C49.2486 27.3495 48.8259 27.7194 48.1554 27.7211C45.6801 27.7293 43.2049 27.7244 40.7296 27.7244Z" fill="#4E4B66"/>
<path d="M40.7973 39.4634C38.3633 39.4634 35.9276 39.465 33.4936 39.4617C32.7142 39.4601 32.2981 39.1265 32.303 38.5271C32.308 37.9293 32.7307 37.5941 33.5085 37.5925C38.3567 37.5892 43.2049 37.5925 48.053 37.5892C48.5402 37.5892 49.024 37.6767 49.1462 38.1919C49.2188 38.499 49.1264 38.9449 48.9299 39.1827C48.7631 39.3841 48.3453 39.4502 48.0365 39.4535C45.624 39.4716 43.2098 39.4634 40.7973 39.4634Z" fill="#4E4B66"/>
<path d="M21.6126 27.4536C22.4184 26.6362 23.1516 25.8865 23.8897 25.1418C24.717 24.3078 25.5427 23.469 26.3848 22.65C26.8224 22.2239 27.3888 22.2289 27.762 22.6153C28.1137 22.9802 28.122 23.5383 27.7174 23.9462C25.9192 25.7643 24.111 27.5724 22.2929 29.3707C21.8785 29.7802 21.388 29.7769 20.9653 29.374C20.2338 28.6772 19.5204 27.9605 18.8203 27.2323C18.4223 26.8178 18.4273 26.263 18.779 25.8997C19.1637 25.5034 19.6988 25.5001 20.1512 25.9377C20.6383 26.4099 21.0924 26.9103 21.6126 27.4536Z" fill="#4E4B66"/>
<path d="M56.359 55.6328C56.1955 55.9531 56.1295 56.2058 55.971 56.3709C55.0116 57.36 54.0406 58.3376 53.0531 59.2987C52.6585 59.6834 52.0822 59.6537 51.7222 59.292C51.3639 58.9321 51.3308 58.3541 51.7139 57.9595C52.6733 56.9703 53.6344 55.9812 54.6549 55.0581C54.8828 54.8517 55.3914 54.8055 55.7101 54.8996C55.971 54.9739 56.1394 55.3669 56.359 55.6328Z" fill="#FF0282"/>
<circle cx="65" cy="21" r="1" fill="#FF0282"/>
<circle cx="61.5" cy="33.5" r="1" stroke="#FF0282"/>
<circle cx="1.5" cy="41.5" r="1" stroke="#FF0282"/>
<circle cx="35.5" cy="67.5" r="1" stroke="#FF0282"/>
<circle cx="5" cy="49" r="1" fill="#FF0282"/>
<circle cx="13" cy="1" r="1" fill="#FF0282"/>
</svg>
