<svg width="255" height="217" viewBox="0 0 255 217" fill="none" xmlns="http://www.w3.org/2000/svg">
<path d="M206.214 90.7742C201.985 60.1824 191.229 26.2174 172.322 18.3558C153.327 10.5677 126.269 28.8095 101.502 49.4594C76.7351 70.1094 54.1699 93.2408 57.5378 116.105C60.7358 138.945 89.7857 161.42 118.782 171.362C147.867 181.23 176.729 178.541 192.438 163.563C208.147 148.585 210.443 121.366 206.214 90.7742Z" fill="#F7F7FC"/>
<path d="M145.533 207.615C133.825 217.714 114.771 218.632 97.7833 215.189C80.7953 211.861 65.7586 204.057 50.8367 195.68L145.533 207.615ZM145.533 207.615L145.207 207.236C145.207 207.236 145.207 207.236 145.207 207.237L145.533 207.615ZM168.954 161.503C168.953 161.503 168.953 161.504 168.953 161.505L169.408 161.71L168.955 161.501C168.954 161.501 168.954 161.502 168.954 161.503ZM181.618 69.3745C181.618 69.3748 181.618 69.375 181.619 69.3752C181.619 69.3758 181.619 69.3763 181.62 69.3769L182.035 69.0979L181.618 69.3745ZM142.397 36.4694L142.664 36.0466L142.396 36.4689C142.396 36.4691 142.397 36.4692 142.397 36.4694ZM95.71 16.9224C95.7106 16.9224 95.7112 16.9224 95.7118 16.9224C95.7124 16.9224 95.713 16.9224 95.7136 16.9224L95.7172 16.4225L95.71 16.9224ZM12.4456 165.091C12.4454 165.09 12.4453 165.09 12.4451 165.09C12.4449 165.09 12.4446 165.089 12.4443 165.089L12.0397 165.383L12.4456 165.091Z" stroke="#D6D8E7"/>
<path d="M133.332 66.8119C133.345 68.0742 132.368 69.0719 131.121 69.0719C129.874 69.0719 128.898 68.0742 128.913 66.8119C128.925 65.5982 129.865 64.634 131.069 64.6006C132.307 64.5671 133.32 65.5557 133.332 66.8119Z" fill="#FF0282"/>
<path d="M129.423 146.197C129.444 147.456 128.501 148.46 127.263 148.493C126.041 148.527 125.025 147.541 125 146.3C124.976 145.047 125.928 144.034 127.16 144.001C128.38 143.967 129.399 144.956 129.423 146.197Z" fill="#4E4B66"/>
<path d="M117.254 155C118.452 155.003 119.502 156.059 119.493 157.254C119.487 158.458 118.437 159.496 117.236 159.49C116.031 159.483 114.997 158.443 115 157.239C115.006 156.037 116.052 154.997 117.254 155Z" fill="#FF0282"/>
<path d="M54.8073 73.5797C53.6059 73.6162 52.5534 72.6003 52.523 71.3867C52.4956 70.1608 53.4781 69.1206 54.6948 69.0871C55.9024 69.0537 56.9548 70.0605 56.9883 71.2771C57.0217 72.4817 56.0149 73.5432 54.8073 73.5797Z" fill="#FF0282"/>
<path d="M142.385 82.5041C142.409 81.2661 143.467 80.2654 144.687 80.3201C145.892 80.3749 146.816 81.3513 146.813 82.5649C146.81 83.8212 145.807 84.8219 144.569 84.8036C143.328 84.7854 142.357 83.7664 142.385 82.5041Z" fill="#4E4B66"/>
<path d="M56.4909 132.304C56.4422 133.517 55.3746 134.512 54.1701 134.469C52.9534 134.424 51.9587 133.362 52.0013 132.155C52.0439 130.938 53.0933 129.964 54.3191 130.001C55.5328 130.041 56.5365 131.108 56.4909 132.304Z" fill="#FF0282"/>
<path d="M77.4414 161.203C77.4657 162.438 76.4893 163.466 75.2665 163.493C74.0468 163.521 73.0248 162.532 73.0004 161.297C72.9761 160.068 73.9555 159.031 75.1722 159.001C76.3859 158.97 77.417 159.971 77.4414 161.203Z" fill="#4E4B66"/>
<path d="M139.75 105.5C139.75 116.984 131.955 128.04 122.336 138.344C118.298 142.669 113.996 146.804 109.896 150.745C109.139 151.473 108.388 152.194 107.648 152.909C103.392 157.015 99.444 160.917 96.4631 164.543C93.1789 160.814 89.0597 156.846 84.7152 152.694C84.4402 152.431 84.1642 152.167 83.8874 151.903C79.3195 147.539 74.5254 142.96 70.107 138.162C60.6887 127.936 53.25 116.998 53.25 105.5C53.25 82.1926 72.5868 63.25 96.5 63.25C120.413 63.25 139.75 82.1926 139.75 105.5Z" stroke="#4E4B66" stroke-width="2.5"/>
<path d="M66 104H74C74.5523 104 75 104.448 75 105C75 105.552 74.5523 106 74 106H66V104Z" fill="#4E4B66"/>
<path d="M115 105C115 104.448 115.448 104 116 104H124V106H116C115.448 106 115 105.552 115 105Z" fill="#4E4B66"/>
<path d="M124.75 105.5C124.75 122.226 111.412 135.75 95 135.75C78.5883 135.75 65.25 122.226 65.25 105.5C65.25 88.7745 78.5883 75.25 95 75.25C111.412 75.25 124.75 88.7745 124.75 105.5Z" stroke="#4E4B66" stroke-width="2.5"/>
<mask id="path-14-inside-1_2537_37148" fill="white">
<path d="M95.8198 121.999C90.9094 120.777 85.332 115.581 83.3067 109.91C82.6526 108.079 82.1468 106.208 82.0896 104.265C82.0025 101.312 82.0202 98.3547 82 95.3994C81.9968 94.9655 82.171 94.7638 82.6348 94.6324C84.8053 94.0161 86.9387 93.2943 89.0204 92.424C91.2522 91.4916 93.413 90.4132 95.4947 89.1816C95.9053 88.9388 96.2481 88.9404 96.6602 89.1808C100.677 91.523 104.92 93.3338 109.399 94.5904C110.039 94.7703 110.161 94.9364 110.159 95.593C110.155 98.1087 110.2 100.626 110.134 103.14C109.999 108.32 108.18 112.837 104.643 116.644C102.892 118.529 100.883 120.08 98.5613 121.193C97.8531 121.532 97.0796 121.735 96.3352 122C96.1642 121.999 95.9916 121.999 95.8198 121.999ZM108.768 95.8729C108.638 95.8293 108.507 95.7849 108.376 95.7422C107.456 95.4462 106.53 95.1703 105.62 94.8509C102.41 93.7266 99.33 92.3159 96.3795 90.6253C96.1513 90.4947 95.9875 90.4971 95.7673 90.631C95.3092 90.9092 94.835 91.1641 94.3623 91.4174C90.9634 93.2386 87.417 94.6977 83.7084 95.7575C83.4398 95.8341 83.3672 95.9527 83.3688 96.2221C83.3809 98.2434 83.3696 100.265 83.3769 102.285C83.3849 104.689 83.7334 107.035 84.569 109.3C85.5594 111.985 87.0879 114.324 89.1301 116.322C90.8416 117.995 92.7621 119.37 94.9809 120.308C95.6673 120.598 96.3376 120.692 97.0328 120.363C97.3337 120.221 97.6466 120.105 97.9451 119.959C100.103 118.901 101.98 117.466 103.614 115.712C106.819 112.272 108.536 108.19 108.724 103.501C108.823 101.022 108.767 98.5361 108.78 96.0527C108.78 95.9995 108.772 95.9455 108.768 95.8729Z"/>
</mask>
<path d="M95.8198 121.999C90.9094 120.777 85.332 115.581 83.3067 109.91C82.6526 108.079 82.1468 106.208 82.0896 104.265C82.0025 101.312 82.0202 98.3547 82 95.3994C81.9968 94.9655 82.171 94.7638 82.6348 94.6324C84.8053 94.0161 86.9387 93.2943 89.0204 92.424C91.2522 91.4916 93.413 90.4132 95.4947 89.1816C95.9053 88.9388 96.2481 88.9404 96.6602 89.1808C100.677 91.523 104.92 93.3338 109.399 94.5904C110.039 94.7703 110.161 94.9364 110.159 95.593C110.155 98.1087 110.2 100.626 110.134 103.14C109.999 108.32 108.18 112.837 104.643 116.644C102.892 118.529 100.883 120.08 98.5613 121.193C97.8531 121.532 97.0796 121.735 96.3352 122C96.1642 121.999 95.9916 121.999 95.8198 121.999ZM108.768 95.8729C108.638 95.8293 108.507 95.7849 108.376 95.7422C107.456 95.4462 106.53 95.1703 105.62 94.8509C102.41 93.7266 99.33 92.3159 96.3795 90.6253C96.1513 90.4947 95.9875 90.4971 95.7673 90.631C95.3092 90.9092 94.835 91.1641 94.3623 91.4174C90.9634 93.2386 87.417 94.6977 83.7084 95.7575C83.4398 95.8341 83.3672 95.9527 83.3688 96.2221C83.3809 98.2434 83.3696 100.265 83.3769 102.285C83.3849 104.689 83.7334 107.035 84.569 109.3C85.5594 111.985 87.0879 114.324 89.1301 116.322C90.8416 117.995 92.7621 119.37 94.9809 120.308C95.6673 120.598 96.3376 120.692 97.0328 120.363C97.3337 120.221 97.6466 120.105 97.9451 119.959C100.103 118.901 101.98 117.466 103.614 115.712C106.819 112.272 108.536 108.19 108.724 103.501C108.823 101.022 108.767 98.5361 108.78 96.0527C108.78 95.9995 108.772 95.9455 108.768 95.8729Z" fill="#4E4B66"/>
<path d="M95.8198 121.999L94.6123 126.851L95.207 126.999H95.8198V121.999ZM83.3067 109.91L88.0154 108.229L88.0152 108.228L83.3067 109.91ZM82.0896 104.265L87.0874 104.118L87.0874 104.118L82.0896 104.265ZM82 95.3994L86.9999 95.3653L86.9999 95.3622L82 95.3994ZM82.6348 94.6324L83.9985 99.4428L84.0004 99.4423L82.6348 94.6324ZM89.0204 92.424L87.093 87.8104L87.0919 87.8109L89.0204 92.424ZM95.4947 89.1816L92.9497 84.8778L92.9488 84.8783L95.4947 89.1816ZM96.6602 89.1808L94.1414 93.5L94.1415 93.5L96.6602 89.1808ZM109.399 94.5904L110.753 89.7771L110.75 89.7763L109.399 94.5904ZM110.159 95.593L105.159 95.5807L105.159 95.585L110.159 95.593ZM110.134 103.14L105.136 103.009L105.136 103.01L110.134 103.14ZM104.643 116.644L108.305 120.048L108.306 120.048L104.643 116.644ZM98.5613 121.193L96.4001 116.684L96.3995 116.684L98.5613 121.193ZM96.3352 122L96.3116 127L97.1882 127.004L98.0139 126.71L96.3352 122ZM108.768 95.8729L113.757 95.5403L113.534 92.1977L110.358 91.1324L108.768 95.8729ZM108.376 95.7422L109.922 90.9872L109.915 90.985L109.908 90.9828L108.376 95.7422ZM105.62 94.8509L107.274 90.1328L107.273 90.1321L105.62 94.8509ZM96.3795 90.6253L98.8653 86.287L98.8635 86.286L96.3795 90.6253ZM95.7673 90.631L98.363 94.9044L98.3651 94.9032L95.7673 90.631ZM94.3623 91.4174L96.7238 95.8246L96.7238 95.8246L94.3623 91.4174ZM83.7084 95.7575L85.0801 100.566L85.0822 100.565L83.7084 95.7575ZM83.3688 96.2221L88.3687 96.1922L88.3687 96.1922L83.3688 96.2221ZM83.3769 102.285L88.3768 102.268L88.3768 102.267L83.3769 102.285ZM84.569 109.3L89.26 107.569L89.2599 107.569L84.569 109.3ZM89.1301 116.322L85.6336 119.896L85.6344 119.897L89.1301 116.322ZM94.9809 120.308L96.929 115.703L96.9279 115.702L94.9809 120.308ZM97.0328 120.363L94.8992 115.841L94.8938 115.843L97.0328 120.363ZM97.9451 119.959L100.142 124.45L100.145 124.448L97.9451 119.959ZM103.614 115.712L99.9555 112.303L99.955 112.304L103.614 115.712ZM108.724 103.501L113.72 103.702L113.72 103.701L108.724 103.501ZM108.78 96.0527L113.78 96.0787L113.78 96.0657V96.0527H108.78ZM97.0272 117.147C95.6488 116.804 93.7681 115.759 91.9354 114.008C90.1313 112.284 88.721 110.204 88.0154 108.229L78.598 111.592C79.9177 115.287 82.3087 118.641 85.0272 121.238C87.7171 123.808 91.0804 125.972 94.6123 126.851L97.0272 117.147ZM88.0152 108.228C87.4378 106.612 87.1224 105.307 87.0874 104.118L77.0917 104.412C77.1712 107.11 77.8673 109.547 78.5982 111.593L88.0152 108.228ZM87.0874 104.118C87.0025 101.239 87.0207 98.4063 86.9999 95.3653L77.0002 95.4335C77.0197 98.3031 77.0024 101.384 77.0917 104.413L87.0874 104.118ZM86.9999 95.3622C87.0031 95.7919 86.9232 96.9781 85.98 98.1075C85.1291 99.1264 84.1368 99.4036 83.9985 99.4428L81.2712 89.8219C80.669 89.9926 79.3578 90.4363 78.3046 91.6975C77.1592 93.069 76.9938 94.573 77.0002 95.4366L86.9999 95.3622ZM84.0004 99.4423C86.3287 98.7812 88.654 97.9965 90.9489 97.0371L87.0919 87.8109C85.2233 88.5921 83.2818 89.2511 81.2692 89.8225L84.0004 99.4423ZM90.9479 97.0375C93.3862 96.0188 95.7542 94.8376 98.0407 93.4848L92.9488 84.8783C91.0717 85.9888 89.1181 86.9643 87.093 87.8104L90.9479 97.0375ZM98.0398 93.4854C97.7114 93.6796 97.0229 94.0005 96.0742 94C95.131 93.9995 94.4522 93.6813 94.1414 93.5L99.179 84.8616C98.456 84.4399 97.3998 84.0007 96.0795 84C94.7537 83.9993 93.6886 84.4408 92.9497 84.8778L98.0398 93.4854ZM94.1415 93.5C98.5175 96.0518 103.153 98.0309 108.048 99.4045L110.75 89.7763C106.688 88.6367 102.836 86.9943 99.1789 84.8615L94.1415 93.5ZM108.046 99.4037C108.101 99.4192 107.864 99.3605 107.536 99.1946C107.155 99.0028 106.553 98.62 106.028 97.924C105.503 97.2276 105.3 96.5426 105.22 96.1243C105.151 95.7637 105.159 95.5207 105.159 95.5807L115.159 95.6053C115.16 95.3021 115.228 93.5154 114.011 91.9019C112.794 90.2882 111.059 89.8631 110.753 89.7771L108.046 99.4037ZM105.159 95.585C105.155 98.2346 105.2 100.573 105.136 103.009L115.132 103.272C115.2 100.679 115.155 97.9828 115.159 95.601L105.159 95.585ZM105.136 103.01C105.032 106.987 103.679 110.337 100.98 113.241L108.306 120.048C112.682 115.338 114.966 109.653 115.132 103.27L105.136 103.01ZM100.98 113.241C99.6011 114.725 98.0885 115.875 96.4001 116.684L100.723 125.701C103.678 124.285 106.182 122.332 108.305 120.048L100.98 113.241ZM96.3995 116.684C95.9883 116.881 95.9706 116.822 94.6564 117.29L98.0139 126.71C98.1887 126.647 99.7179 126.183 100.723 125.701L96.3995 116.684ZM96.3588 117C96.174 116.999 95.9895 116.999 95.8198 116.999V126.999C95.9937 126.999 96.1544 126.999 96.3116 127L96.3588 117ZM110.358 91.1324C110.251 91.0967 110.082 91.0395 109.922 90.9872L106.83 100.497C106.932 100.53 107.024 100.562 107.178 100.613L110.358 91.1324ZM109.908 90.9828C108.844 90.6403 108.109 90.4253 107.274 90.1328L103.965 99.5691C104.952 99.9154 106.068 100.252 106.843 100.502L109.908 90.9828ZM107.273 90.1321C104.355 89.1098 101.553 87.8269 98.8653 86.287L93.8937 94.9636C97.1071 96.8049 100.466 98.3434 103.966 99.5697L107.273 90.1321ZM98.8635 86.286C98.3112 85.9698 97.3227 85.5157 96.0184 85.5292C94.7069 85.5429 93.7229 86.0223 93.1696 86.3588L98.3651 94.9032C98.0319 95.1058 97.24 95.5171 96.1224 95.5287C95.0121 95.5402 94.2196 95.1502 93.8955 94.9647L98.8635 86.286ZM93.1717 86.3575C92.8463 86.5551 92.4882 86.749 92.0008 87.0102L96.7238 95.8246C97.1817 95.5792 97.7721 95.2634 98.363 94.9044L93.1717 86.3575ZM92.0008 87.0102C88.9005 88.6715 85.6841 89.9927 82.3345 90.95L85.0822 100.565C89.1498 99.4026 93.0264 97.8058 96.7238 95.8246L92.0008 87.0102ZM82.3367 90.9494C81.7674 91.1118 80.3738 91.589 79.3541 93.0317C78.3787 94.4117 78.3663 95.8197 78.3689 96.252L88.3687 96.1922C88.3697 96.3552 88.3927 97.5691 87.5204 98.8034C86.6037 100.1 85.3807 100.48 85.0801 100.566L82.3367 90.9494ZM78.3689 96.252C78.3812 98.3097 78.3692 100.177 78.3769 102.303L88.3768 102.267C88.3699 100.352 88.3806 98.177 88.3687 96.1922L78.3689 96.252ZM78.3769 102.302C78.3865 105.182 78.8057 108.124 79.878 111.03L89.2599 107.569C88.6611 105.946 88.3833 104.195 88.3768 102.268L78.3769 102.302ZM79.8779 111.03C81.1294 114.423 83.0706 117.389 85.6336 119.896L92.6266 112.748C91.1052 111.259 89.9895 109.547 89.26 107.569L79.8779 111.03ZM85.6344 119.897C87.7083 121.925 90.1389 123.689 93.034 124.913L96.9279 115.702C95.3852 115.05 93.9749 114.066 92.6258 112.747L85.6344 119.897ZM93.0329 124.913C94.4822 125.526 96.7332 126.036 99.1719 124.882L94.8938 115.843C95.3209 115.641 95.811 115.55 96.2758 115.575C96.4845 115.586 96.6484 115.619 96.7569 115.647C96.8632 115.675 96.9234 115.701 96.929 115.703L93.0329 124.913ZM99.1665 124.885C99.2084 124.865 99.2592 124.843 99.4441 124.764C99.5924 124.701 99.8586 124.589 100.142 124.45L95.7479 115.467C95.748 115.467 95.747 115.468 95.7448 115.469C95.7426 115.47 95.7394 115.471 95.735 115.473C95.7261 115.477 95.7134 115.483 95.6955 115.491C95.6568 115.508 95.6103 115.528 95.5356 115.56C95.4142 115.611 95.1582 115.719 94.8992 115.841L99.1665 124.885ZM100.145 124.448C102.894 123.102 105.256 121.285 107.272 119.12L99.955 112.304C98.7033 113.648 97.3117 114.701 95.7447 115.469L100.145 124.448ZM107.272 119.121C111.284 114.815 113.484 109.598 113.72 103.702L103.728 103.301C103.589 106.782 102.354 109.729 99.9555 112.303L107.272 119.121ZM113.72 103.701C113.824 101.111 113.768 98.3704 113.78 96.0787L103.78 96.0267C103.766 98.7019 103.823 100.933 103.728 103.301L113.72 103.701ZM113.78 96.0527C113.78 95.8113 113.763 95.6161 113.758 95.5577C113.757 95.5401 113.756 95.5243 113.755 95.5166C113.754 95.5064 113.754 95.5049 113.754 95.5031C113.754 95.5018 113.755 95.5172 113.757 95.5403L103.779 96.2055C103.783 96.2648 103.787 96.3142 103.789 96.3451C103.79 96.3595 103.792 96.3736 103.792 96.3786C103.793 96.3862 103.793 96.3854 103.792 96.3824C103.792 96.3776 103.789 96.3402 103.786 96.2882C103.783 96.2338 103.78 96.1525 103.78 96.0527H113.78Z" fill="#4E4B66" mask="url(#path-14-inside-1_2537_37148)"/>
<mask id="path-16-inside-2_2537_37148" fill="white">
<path d="M93.8453 106.598C94.172 106.261 94.4526 105.964 94.7406 105.675C96.7239 103.689 98.7073 101.704 100.694 99.7225C101.55 98.8684 102.597 98.7063 103.569 99.266C104.719 99.9282 105.023 101.532 104.194 102.569C104.093 102.695 103.988 102.817 103.874 102.931C101.108 105.7 98.3419 108.468 95.5738 111.234C94.718 112.089 93.6654 112.26 92.7016 111.696C92.4999 111.578 92.3152 111.423 92.1491 111.257C90.8449 109.962 89.5431 108.663 88.2477 107.358C87.1911 106.294 87.2468 104.784 88.3639 103.882C89.1422 103.254 90.3529 103.218 91.1062 103.884C91.8781 104.567 92.5879 105.32 93.3218 106.045C93.4888 106.211 93.6461 106.386 93.8453 106.598ZM93.6791 110.628C94.13 110.644 94.3671 110.476 94.5881 110.255C97.3603 107.478 100.135 104.706 102.908 101.932C102.976 101.863 103.045 101.795 103.102 101.717C103.469 101.223 103.243 100.547 102.653 100.369C102.231 100.241 101.934 100.444 101.654 100.723C99.2767 103.104 96.8965 105.481 94.5172 107.859C94.009 108.367 93.6856 108.368 93.1823 107.866C92.2539 106.94 91.3312 106.008 90.398 105.087C90.0044 104.699 89.485 104.692 89.1317 105.045C88.7784 105.398 88.7825 105.921 89.1696 106.312C90.5021 107.655 91.8386 108.993 93.1855 110.322C93.3444 110.48 93.5743 110.565 93.6791 110.628Z"/>
</mask>
<path d="M93.8453 106.598C94.172 106.261 94.4526 105.964 94.7406 105.675C96.7239 103.689 98.7073 101.704 100.694 99.7225C101.55 98.8684 102.597 98.7063 103.569 99.266C104.719 99.9282 105.023 101.532 104.194 102.569C104.093 102.695 103.988 102.817 103.874 102.931C101.108 105.7 98.3419 108.468 95.5738 111.234C94.718 112.089 93.6654 112.26 92.7016 111.696C92.4999 111.578 92.3152 111.423 92.1491 111.257C90.8449 109.962 89.5431 108.663 88.2477 107.358C87.1911 106.294 87.2468 104.784 88.3639 103.882C89.1422 103.254 90.3529 103.218 91.1062 103.884C91.8781 104.567 92.5879 105.32 93.3218 106.045C93.4888 106.211 93.6461 106.386 93.8453 106.598ZM93.6791 110.628C94.13 110.644 94.3671 110.476 94.5881 110.255C97.3603 107.478 100.135 104.706 102.908 101.932C102.976 101.863 103.045 101.795 103.102 101.717C103.469 101.223 103.243 100.547 102.653 100.369C102.231 100.241 101.934 100.444 101.654 100.723C99.2767 103.104 96.8965 105.481 94.5172 107.859C94.009 108.367 93.6856 108.368 93.1823 107.866C92.2539 106.94 91.3312 106.008 90.398 105.087C90.0044 104.699 89.485 104.692 89.1317 105.045C88.7784 105.398 88.7825 105.921 89.1696 106.312C90.5021 107.655 91.8386 108.993 93.1855 110.322C93.3444 110.48 93.5743 110.565 93.6791 110.628Z" fill="#4E4B66"/>
<path d="M93.8453 106.598L90.2072 110.028L93.7958 113.834L97.4362 110.077L93.8453 106.598ZM94.7406 105.675L91.2029 102.142L91.2001 102.144L94.7406 105.675ZM100.694 99.7225L104.225 103.262L104.226 103.261L100.694 99.7225ZM103.569 99.266L106.065 94.9336L106.065 94.9332L103.569 99.266ZM104.194 102.569L108.095 105.695L108.098 105.692L104.194 102.569ZM103.874 102.931L100.339 99.3955L100.337 99.3976L103.874 102.931ZM95.5738 111.234L99.1076 114.771L99.1078 114.771L95.5738 111.234ZM92.7016 111.696L95.2261 107.38L95.2231 107.378L92.7016 111.696ZM92.1491 111.257L95.676 107.713L95.6725 107.71L92.1491 111.257ZM88.2477 107.358L84.6988 110.88L84.699 110.881L88.2477 107.358ZM88.3639 103.882L91.5044 107.773L91.5045 107.773L88.3639 103.882ZM91.1062 103.884L87.7938 107.63L87.7946 107.631L91.1062 103.884ZM93.3218 106.045L96.8402 102.493L96.8358 102.488L93.3218 106.045ZM93.6791 110.628L91.1067 114.916L92.2121 115.579L93.5004 115.625L93.6791 110.628ZM94.5881 110.255L91.05 106.722L91.0462 106.726L94.5881 110.255ZM102.908 101.932L99.3724 98.3962L99.3718 98.3967L102.908 101.932ZM103.102 101.717L99.0874 98.7371L99.0823 98.744L103.102 101.717ZM102.653 100.369L104.1 95.5825L104.099 95.5822L102.653 100.369ZM101.654 100.723L98.1181 97.1879L98.1157 97.1903L101.654 100.723ZM94.5172 107.859L98.0499 111.398L98.0515 111.396L94.5172 107.859ZM93.1823 107.866L96.715 104.327L96.7132 104.325L93.1823 107.866ZM90.398 105.087L93.9104 101.528L93.9079 101.526L90.398 105.087ZM89.1696 106.312L85.6158 109.829L85.6203 109.834L89.1696 106.312ZM93.1855 110.322L96.712 106.777L96.7043 106.769L96.6965 106.762L93.1855 110.322ZM97.4362 110.077C97.8203 109.681 98.0251 109.462 98.2811 109.206L91.2001 102.144C90.8801 102.465 90.5237 102.841 90.2544 103.118L97.4362 110.077ZM98.2783 109.208C100.261 107.223 102.242 105.241 104.225 103.262L97.1626 96.1827C95.1726 98.1679 93.1864 100.156 91.2029 102.142L98.2783 109.208ZM104.226 103.261C104.04 103.447 103.591 103.789 102.867 103.903C102.117 104.021 101.476 103.83 101.074 103.599L106.065 94.9332C104.691 94.1421 103.04 93.7522 101.309 94.0251C99.6045 94.2939 98.2033 95.144 97.1617 96.1837L104.226 103.261ZM101.073 103.598C100.267 103.134 99.8392 102.387 99.7105 101.707C99.5817 101.026 99.7075 100.173 100.289 99.4454L108.098 105.692C110.843 102.262 109.866 97.1235 106.065 94.9336L101.073 103.598ZM100.292 99.4424C100.274 99.4646 100.27 99.4688 100.276 99.4615C100.283 99.4539 100.304 99.43 100.339 99.3955L107.41 106.467C107.702 106.175 107.933 105.898 108.095 105.695L100.292 99.4424ZM100.337 99.3976C97.5715 102.166 94.8063 104.933 92.0398 107.697L99.1078 114.771C101.878 112.004 104.645 109.234 107.412 106.465L100.337 99.3976ZM92.0399 107.697C92.2201 107.517 92.6622 107.177 93.3819 107.061C94.134 106.939 94.795 107.128 95.2261 107.38L90.1771 116.012C91.572 116.828 93.2413 117.213 94.9745 116.933C96.6755 116.659 98.0716 115.806 99.1076 114.771L92.0399 107.697ZM95.2231 107.378C95.3739 107.466 95.4829 107.548 95.5505 107.602C95.6186 107.657 95.6606 107.698 95.676 107.713L88.6222 114.801C88.9708 115.148 89.4911 115.611 90.1801 116.014L95.2231 107.378ZM95.6725 107.71C94.3731 106.419 93.0804 105.13 91.7964 103.836L84.699 110.881C86.0057 112.197 87.3166 113.505 88.6256 114.805L95.6725 107.71ZM91.7967 103.836C92.1485 104.191 92.518 104.851 92.4877 105.731C92.4567 106.629 92.0183 107.358 91.5044 107.773L85.2233 99.9914C83.5923 101.308 82.5675 103.242 82.4936 105.387C82.4204 107.513 83.2904 109.461 84.6988 110.88L91.7967 103.836ZM91.5045 107.773C90.9591 108.213 90.346 108.393 89.7862 108.398C89.2163 108.402 88.4623 108.221 87.7938 107.63L94.4185 100.139C91.6397 97.6815 87.6866 98.0029 85.2232 99.9915L91.5045 107.773ZM87.7946 107.631C88.4296 108.192 88.9017 108.707 89.8079 109.602L96.8358 102.488C96.274 101.933 95.3265 100.942 94.4178 100.138L87.7946 107.631ZM89.8035 109.598C89.8917 109.685 89.8877 109.689 90.2072 110.028L97.4834 103.168C97.4045 103.084 97.0859 102.736 96.8402 102.493L89.8035 109.598ZM93.5004 115.625C94.4183 115.658 95.3994 115.503 96.3548 115.052C97.2563 114.626 97.8481 114.067 98.1301 113.784L91.0462 106.726C91.1071 106.664 91.47 106.3 92.0849 106.009C92.7537 105.694 93.3909 105.615 93.8579 105.631L93.5004 115.625ZM98.1262 113.788C100.897 111.013 103.669 108.243 106.444 105.467L99.3718 98.3967C96.601 101.168 93.8235 103.944 91.05 106.722L98.1262 113.788ZM106.443 105.467C106.466 105.445 106.806 105.117 107.122 104.69L99.0823 98.744C99.1985 98.5868 99.2982 98.4763 99.3457 98.4251C99.3862 98.3815 99.4177 98.3508 99.3724 98.3962L106.443 105.467ZM107.117 104.697C109.567 101.396 107.971 96.7529 104.1 95.5825L101.206 105.155C98.5141 104.341 97.3712 101.049 99.0874 98.7371L107.117 104.697ZM104.099 95.5822C102.741 95.1719 101.35 95.2734 100.126 95.7995C99.0823 96.248 98.3981 96.908 98.1181 97.1879L105.189 104.259C105.189 104.259 104.794 104.678 104.074 104.987C103.174 105.374 102.143 105.438 101.207 105.155L104.099 95.5822ZM98.1157 97.1903C95.7411 99.5683 93.3631 101.944 90.9828 104.322L98.0515 111.396C100.43 109.019 102.812 106.639 105.192 104.257L98.1157 97.1903ZM90.9844 104.321C91.0138 104.292 91.2447 104.059 91.6549 103.821C92.1087 103.557 92.8559 103.246 93.8236 103.241C94.7947 103.236 95.5522 103.543 96.0207 103.812C96.4426 104.054 96.6811 104.293 96.715 104.327L89.6496 111.404C90.0706 111.824 91.5361 113.252 93.8722 113.241C96.1879 113.23 97.6382 111.809 98.0499 111.398L90.9844 104.321ZM96.7132 104.325C95.8163 103.431 94.8532 102.459 93.9104 101.528L86.8856 108.646C87.8092 109.557 88.6915 110.448 89.6514 111.406L96.7132 104.325ZM93.9079 101.526C92.931 100.563 91.5369 99.8354 89.8875 99.79C88.2133 99.7438 86.688 100.418 85.5962 101.51L92.6672 108.581C91.9287 109.319 90.8398 109.82 89.612 109.786C88.4091 109.753 87.4715 109.223 86.8881 108.648L93.9079 101.526ZM85.5962 101.51C84.5074 102.598 83.8354 104.117 83.8744 105.782C83.913 107.429 84.6337 108.837 85.6158 109.829L92.7234 102.795C93.3184 103.396 93.8435 104.347 93.8716 105.547C93.9002 106.765 93.4027 107.845 92.6672 108.581L85.5962 101.51ZM85.6203 109.834C86.96 111.184 88.3102 112.536 89.6746 113.882L96.6965 106.762C95.3669 105.45 94.0441 104.126 92.719 102.791L85.6203 109.834ZM89.659 113.866C90.2366 114.441 90.8185 114.77 91.0707 114.907C91.2061 114.98 91.3326 115.042 91.3493 115.051C91.431 115.091 91.2797 115.019 91.1067 114.916L96.2516 106.341C96.1173 106.26 96.004 106.2 95.9452 106.169C95.8841 106.138 95.8291 106.11 95.8109 106.101C95.7501 106.071 95.7895 106.09 95.8345 106.114C95.8874 106.143 96.0008 106.206 96.143 106.304C96.2844 106.401 96.4889 106.555 96.712 106.777L89.659 113.866Z" fill="#FF0282" mask="url(#path-16-inside-2_2537_37148)"/>
<path d="M97.0085 118.344C96.8452 118.144 96.6371 118.112 96.3929 118.26C96.1576 118.423 96.0911 118.623 96.2327 118.856C96.3856 119.141 96.5538 119.418 96.7372 119.685C96.8611 119.888 97.0781 119.936 97.3006 119.82C97.5383 119.695 97.6442 119.491 97.542 119.255C97.484 119.091 97.3866 118.931 97.2893 118.771C97.274 118.78 97.274 118.78 97.2587 118.789C97.1855 118.635 97.1034 118.465 97.0085 118.344Z" fill="#FF0282"/>
<path d="M84.9279 96.37C84.8704 96.1186 84.6986 95.9967 84.4139 96.0211C84.1305 96.0625 83.982 96.2119 84.0053 96.4833C84.0152 96.8071 84.0428 97.1293 84.0883 97.4501C84.1086 97.6875 84.2819 97.8264 84.5325 97.822C84.801 97.816 84.9866 97.6805 85.0003 97.423C85.0214 97.2504 85.0053 97.0638 84.9893 96.8772C84.9715 96.8788 84.9715 96.8788 84.9537 96.8803C84.957 96.7092 84.9588 96.5211 84.9279 96.37Z" fill="#FF0282"/>
<path d="M86.3953 95.9982C86.3379 95.7468 86.1661 95.6249 85.8813 95.6493C85.598 95.6907 85.4495 95.8402 85.4727 96.1115C85.4826 96.4353 85.5103 96.7576 85.5557 97.0783C85.5761 97.3157 85.7494 97.4547 86 97.4502C86.2684 97.4443 86.454 97.3088 86.4678 97.0513C86.4888 96.8786 86.4728 96.6921 86.4568 96.5055C86.439 96.507 86.439 96.507 86.4212 96.5085C86.4244 96.3374 86.4262 96.1493 86.3953 95.9982Z" fill="#FF0282"/>
<path d="M87.8395 95.4254C87.7821 95.174 87.6103 95.0521 87.3255 95.0765C87.0422 95.1179 86.8937 95.2673 86.917 95.5387C86.9268 95.8625 86.9545 96.1848 86.9999 96.5055C87.0203 96.7429 87.1936 96.8818 87.4442 96.8774C87.7126 96.8715 87.8982 96.7359 87.912 96.4785C87.933 96.3058 87.917 96.1192 87.901 95.9327C87.8832 95.9342 87.8832 95.9342 87.8654 95.9357C87.8687 95.7646 87.8704 95.5765 87.8395 95.4254Z" fill="#FF0282"/>
<path d="M89.4225 94.9631C89.365 94.7117 89.1932 94.5898 88.9085 94.6142C88.6251 94.6556 88.4766 94.8051 88.4999 95.0764C88.5098 95.4002 88.5374 95.7225 88.5829 96.0432C88.6032 96.2806 88.7765 96.4195 89.0271 96.4151C89.2956 96.4092 89.4812 96.2736 89.4949 96.0162C89.516 95.8435 89.4999 95.657 89.4839 95.4704C89.4661 95.4719 89.4661 95.4719 89.4483 95.4734C89.4516 95.3023 89.4534 95.1142 89.4225 94.9631Z" fill="#FF0282"/>
<path d="M90.9275 94.3722C90.8701 94.1209 90.6982 93.9989 90.4135 94.0234C90.1302 94.0648 89.9816 94.2142 90.0049 94.4856C90.0148 94.8093 90.0424 95.1316 90.0879 95.4523C90.1083 95.6898 90.2815 95.8287 90.5322 95.8242C90.8006 95.8183 90.9862 95.6828 90.9999 95.4253C91.021 95.2526 91.005 95.0661 90.989 94.8795C90.9712 94.881 90.9712 94.881 90.9534 94.8826C90.9566 94.7114 90.9584 94.5233 90.9275 94.3722Z" fill="#FF0282"/>
<path d="M98.3973 117.565C98.234 117.366 98.0259 117.333 97.7817 117.482C97.5465 117.645 97.4799 117.845 97.6215 118.077C97.7745 118.363 97.9426 118.639 98.1261 118.906C98.25 119.11 98.467 119.157 98.6894 119.042C98.9272 118.917 99.033 118.713 98.9308 118.476C98.8728 118.312 98.7754 118.152 98.6781 117.992C98.6628 118.002 98.6628 118.002 98.6476 118.011C98.5743 117.856 98.4922 117.687 98.3973 117.565Z" fill="#FF0282"/>
<path d="M99.7714 116.651C99.6081 116.452 99.4 116.419 99.1559 116.568C98.9206 116.731 98.8541 116.931 98.9957 117.163C99.1486 117.449 99.3167 117.725 99.5002 117.992C99.6241 118.196 99.8411 118.243 100.064 118.128C100.301 118.003 100.407 117.799 100.305 117.562C100.247 117.398 100.15 117.238 100.052 117.078C100.037 117.088 100.037 117.088 100.022 117.097C99.9484 116.942 99.8663 116.773 99.7714 116.651Z" fill="#FF0282"/>
<path d="M100.967 115.74C100.803 115.541 100.595 115.508 100.351 115.657C100.116 115.82 100.049 116.02 100.191 116.252C100.344 116.538 100.512 116.814 100.695 117.081C100.819 117.285 101.036 117.332 101.259 117.217C101.496 117.092 101.602 116.888 101.5 116.651C101.442 116.487 101.345 116.327 101.247 116.167C101.232 116.177 101.232 116.177 101.217 116.186C101.144 116.031 101.062 115.862 100.967 115.74Z" fill="#FF0282"/>
<path d="M102.208 114.776C102.045 114.577 101.836 114.544 101.592 114.693C101.357 114.856 101.291 115.056 101.432 115.288C101.585 115.574 101.753 115.85 101.937 116.117C102.061 116.321 102.278 116.368 102.5 116.253C102.738 116.128 102.844 115.924 102.741 115.687C102.683 115.523 102.586 115.363 102.489 115.203C102.473 115.213 102.473 115.213 102.458 115.222C102.385 115.067 102.303 114.898 102.208 114.776Z" fill="#FF0282"/>
</svg>
