<svg width="29" height="29" viewBox="0 0 29 29" fill="none" xmlns="http://www.w3.org/2000/svg">
<circle opacity="0.79" cx="14.5" cy="14.5" r="14.5" fill="#FCDDEC"/>
<path d="M6.74785 20.2038H21.6996C21.7874 20.2042 21.8738 20.1814 21.9499 20.1375C22.0261 20.0938 22.0893 20.0307 22.1332 19.9546C22.177 19.8789 22.2 19.7929 22.2 19.7054C22.2 19.618 22.177 19.532 22.1332 19.4562L14.6548 6.49806C14.5657 6.34432 14.4014 6.24976 14.2237 6.24976C14.046 6.24976 13.8817 6.34432 13.7926 6.49806L6.31675 19.4562C6.22775 19.6104 6.22775 19.8005 6.31675 19.9546C6.40564 20.1087 6.56995 20.2036 6.74784 20.2038H6.74785ZM14.2237 7.74404L20.835 19.2071H7.61278L14.2237 7.74404Z" fill="#EB5757"/>
<path d="M14.2238 10.2361C14.0916 10.2361 13.9648 10.2886 13.8714 10.382C13.7779 10.4755 13.7254 10.6023 13.7254 10.7345V15.9676C13.7254 16.1457 13.8204 16.3102 13.9746 16.3992C14.1288 16.4882 14.3188 16.4882 14.473 16.3992C14.6272 16.3102 14.7222 16.1457 14.7222 15.9676V10.7345C14.7222 10.6023 14.6697 10.4755 14.5762 10.382C14.4828 10.2886 14.356 10.2361 14.2238 10.2361Z" fill="#EB5757"/>
<path d="M14.7222 17.712C14.7222 17.9872 14.499 18.2104 14.2238 18.2104C13.9486 18.2104 13.7254 17.9872 13.7254 17.712C13.7254 17.4368 13.9486 17.2136 14.2238 17.2136C14.499 17.2136 14.7222 17.4368 14.7222 17.712Z" fill="#EB5757"/>
</svg>
