<svg width="117" height="99" viewBox="0 0 117 99" fill="none" xmlns="http://www.w3.org/2000/svg">
<path d="M94.0793 41.4132C92.1497 27.4565 87.2429 11.961 78.6173 8.37438C69.9512 4.82126 57.6069 13.1436 46.3076 22.5645C35.0083 31.9854 24.7135 42.5385 26.2501 52.9698C27.7091 63.3898 40.9622 73.6432 54.1911 78.1789C67.4604 82.6811 80.6277 81.4543 87.7944 74.621C94.961 67.7876 96.0088 55.3698 94.0793 41.4132Z" fill="#F7F7FC"/>
<path d="M76.8328 73.5684C75.9622 75.4545 75.182 77.4199 74.4205 79.3695C74.331 79.5987 74.2417 79.8277 74.1526 80.0563C73.4818 81.7771 72.8191 83.4769 72.1097 85.1079C70.4997 88.8094 68.6772 92.0864 66.0689 94.3398C60.9075 98.7919 52.4152 99.2455 44.7101 97.6839L44.7069 97.6833C37.0421 96.1817 30.2429 92.6581 23.4375 88.8374L23.4364 88.8367C16.6796 85.0662 10.1202 80.9754 5.89753 75.1577C1.67882 69.2929 -0.225913 61.6214 0.751411 54.5245L0.751927 54.5205C1.67854 47.3664 5.49305 40.8019 9.57866 34.4652C13.6584 28.1376 17.8691 22.1662 23.6265 17.136L23.6284 17.1344C29.4053 12.035 36.5667 7.94203 43.6628 7.99237C47.2038 8.04367 50.7435 9.15252 54.2828 10.8116C57.8239 12.4716 61.3327 14.6665 64.8186 16.8677C71.8521 21.3284 78.5118 25.6741 82.6328 31.8024C86.6966 37.9238 88.2366 45.8464 86.6452 52.8268C85.8495 56.3171 84.2671 59.592 82.4385 62.9613C81.9631 63.8372 81.4702 64.7207 80.971 65.6158C79.5597 68.1459 78.0973 70.7678 76.8328 73.5684ZM76.8328 73.5684C76.8331 73.5677 76.8335 73.567 76.8338 73.5663L77.2877 73.7758L76.832 73.5701C76.8323 73.5695 76.8325 73.5689 76.8328 73.5684Z" stroke="#D6D8E7"/>
<path d="M22.7411 30.981H53.0659V71.8362L37.6036 73.7023H22.7411V30.981Z" fill="white"/>
<rect x="26.8066" y="45.0496" width="22.6237" height="32.1809" transform="rotate(-14.4175 26.8066 45.0496)" fill="white"/>
<path d="M23.6355 73.1998C26.2975 73.1998 28.9234 73.1998 31.5733 73.1998C31.5733 73.7303 31.5733 74.2235 31.5733 74.7647C31.412 74.7727 31.2534 74.786 31.0934 74.786C28.4275 74.7874 25.7616 74.7874 23.0957 74.786C22.2479 74.786 22 74.5354 22 73.6823C22 59.4863 22 45.2904 22 31.0957C22 30.2466 22.2493 30 23.1024 30C33.0329 30 42.9634 30 52.894 30C53.7417 30 53.9896 30.2506 53.9896 31.1037C53.991 32.9698 53.9896 34.836 53.9896 36.7021C53.9896 36.8487 53.9896 36.9954 53.9896 37.17C53.4578 37.17 52.9633 37.17 52.4141 37.17C52.4141 36.4102 52.4141 35.6384 52.4141 34.7986C52.1675 34.7986 51.9742 34.7986 51.7809 34.7986C45.1828 34.7986 38.5847 34.7946 31.9865 34.808C31.48 34.8093 31.1028 34.668 30.7522 34.3001C29.9591 33.4684 29.1367 32.6646 28.3156 31.8608C28.1956 31.7435 28.017 31.6142 27.8637 31.6115C26.4654 31.5929 25.0671 31.6009 23.6329 31.6009C23.6355 45.4583 23.6355 59.2931 23.6355 73.1998ZM42.3076 31.6209C42.8168 32.1141 43.2047 32.53 43.6392 32.8899C43.8338 33.0511 44.1218 33.1844 44.367 33.1858C46.881 33.2071 49.3949 33.1991 51.9102 33.1991C52.0555 33.1991 52.2008 33.1991 52.3914 33.1991C52.3914 32.9032 52.3914 32.6579 52.3914 32.4127C52.3914 32.1527 52.3914 31.8928 52.3914 31.6209C49.0404 31.6209 45.752 31.6209 42.3076 31.6209ZM30.3217 31.5995C30.8735 32.1461 31.3187 32.5926 31.7719 33.0298C31.8492 33.1045 31.9639 33.1884 32.0612 33.1884C33.3528 33.1991 34.6431 33.1951 35.9347 33.1951C35.9574 33.1551 35.9801 33.1138 36.0027 33.0738C35.5269 32.6193 35.055 32.1594 34.5698 31.7129C34.4938 31.6435 34.3632 31.6035 34.2579 31.6022C32.9969 31.5969 31.7346 31.5995 30.3217 31.5995ZM41.5252 33.1978C41.5438 33.1591 41.5625 33.1205 41.5825 33.0831C41.1293 32.6419 40.6787 32.1994 40.2202 31.7635C40.1416 31.6889 40.0269 31.6089 39.9283 31.6075C38.9046 31.5969 37.8809 31.6009 36.8571 31.6009C36.8385 31.6395 36.8185 31.6782 36.7998 31.7168C37.2744 32.1741 37.7476 32.6353 38.2288 33.0871C38.2941 33.1484 38.4034 33.1924 38.4927 33.1924C39.5017 33.2004 40.5134 33.1978 41.5252 33.1978Z" fill="#4E4B66"/>
<path d="M54.3575 61.4511C48.07 59.3611 45.0642 53.1228 46.2398 47.623C47.4728 41.8607 52.3634 37.9431 58.1631 38.0017C63.7829 38.0591 68.6775 42.1432 69.7599 47.667C70.8995 53.4854 67.6258 59.453 61.6221 61.4525C61.6795 61.5871 61.7368 61.7204 61.7914 61.8537C62.266 62.992 61.8461 64.277 60.7624 64.8648C60.4651 65.0261 60.3812 65.1941 60.3812 65.514C60.3932 68.8624 60.3932 72.2094 60.3838 75.5578C60.3812 76.5216 59.9426 77.2587 59.0882 77.7079C58.2684 78.1384 57.442 78.0904 56.6715 77.5813C55.9184 77.0854 55.5852 76.3576 55.5865 75.4565C55.5918 72.1748 55.5852 68.8944 55.5945 65.6126C55.5958 65.2554 55.5332 65.0341 55.1733 64.8342C54.0043 64.1824 53.7204 62.9414 54.3575 61.4511ZM58.0272 39.6C52.1861 39.6213 47.5794 44.2627 47.5941 50.1077C47.6088 55.7701 52.3274 60.4101 58.0525 60.3901C63.7402 60.3714 68.4109 55.6661 68.3856 49.9797C68.3602 44.2493 63.6989 39.5786 58.0272 39.6ZM58.7536 73.1665C58.7536 70.4873 58.7536 67.852 58.7536 65.2141C58.2244 65.2141 57.7326 65.2141 57.2167 65.2141C57.2167 67.8733 57.2167 70.5086 57.2167 73.1665C57.7366 73.1665 58.2284 73.1665 58.7536 73.1665ZM57.9552 63.5905C58.471 63.5905 58.9882 63.5999 59.5041 63.5879C60.0453 63.5759 60.3945 63.244 60.3852 62.7748C60.3758 62.3229 60.0386 62.0003 59.5241 61.995C58.5084 61.983 57.4913 61.9843 56.4756 61.9936C55.9318 61.999 55.5865 62.3336 55.5958 62.8054C55.6052 63.2573 55.9424 63.5732 56.4569 63.5865C56.9555 63.5999 57.4553 63.5892 57.9552 63.5905ZM57.1994 74.806C57.2181 75.3605 57.0061 75.9604 57.6139 76.2576C57.8339 76.3656 58.2271 76.3443 58.435 76.2136C58.9642 75.8817 58.7683 75.3206 58.7683 74.806C58.2404 74.806 57.7499 74.806 57.1994 74.806Z" fill="#4E4B66"/>
<path d="M50.6399 39.7399C43.0727 41.5287 35.6002 43.2936 28.0769 45.0717C30.4669 55.1849 32.8476 65.2621 35.2496 75.4259C41.4252 73.9676 47.5794 72.5147 53.803 71.0458C53.9243 71.5549 54.039 72.0321 54.1709 72.5813C53.8497 72.6626 53.5364 72.7466 53.2219 72.8213C47.1849 74.2475 41.1479 75.6725 35.111 77.096C34.3125 77.284 33.9953 77.0894 33.8113 76.3096C31.7106 67.4241 29.6112 58.5386 27.5118 49.6531C27.1452 48.0989 26.776 46.546 26.4121 44.9918C26.2041 44.1054 26.3801 43.8254 27.2758 43.6135C33.6527 42.1072 40.0296 40.6023 46.4064 39.0974C47.6821 38.7962 48.9577 38.4963 50.2787 38.1844C50.3986 38.7082 50.5133 39.2014 50.6399 39.7399Z" fill="#4E4B66"/>
<path d="M44.2057 50.3023C44.331 50.8328 44.4457 51.314 44.5723 51.8498C43.5486 52.0964 42.5529 52.339 41.5545 52.575C39.0299 53.1721 36.5039 53.7653 33.978 54.3625C33.0236 54.5877 32.7476 54.4238 32.5237 53.4801C32.0852 51.6352 31.6493 49.7904 31.2147 47.9443C31.0135 47.0912 31.2081 46.7953 32.0598 46.5953C36.0747 45.6503 40.0896 44.7012 44.1044 43.7548C44.2657 43.7175 44.427 43.6828 44.6483 43.6335C44.7696 44.1414 44.8882 44.6319 45.0188 45.1757C40.964 46.1341 36.9425 47.0859 32.8863 48.0456C33.2595 49.6185 33.6221 51.1487 33.9926 52.7136C37.409 51.9058 40.772 51.1127 44.2057 50.3023Z" fill="#FF0282"/>
<path d="M52.6767 62.2602C52.802 62.7948 52.914 63.2746 53.0419 63.8171C47.3235 65.1688 41.6518 66.5097 35.9374 67.86C35.8081 67.3308 35.6921 66.8496 35.5602 66.3084C41.2599 64.9595 46.9343 63.6185 52.6767 62.2602Z" fill="#4E4B66"/>
<path d="M35.1963 64.7489C35.0683 64.2104 34.955 63.7318 34.8284 63.1946C39.543 62.079 44.2297 60.9713 48.9964 59.8436C49.119 60.3528 49.2363 60.842 49.3696 61.3978C44.6403 62.5162 39.9429 63.6265 35.1963 64.7489Z" fill="#4E4B66"/>
<path d="M36.6679 70.9738C36.5386 70.4339 36.4239 69.9527 36.296 69.4209C40.952 68.3199 45.588 67.2228 50.292 66.1111C50.4146 66.615 50.5346 67.1082 50.6692 67.6654C45.9959 68.7691 41.3492 69.8674 36.6679 70.9738Z" fill="#4E4B66"/>
<path d="M46.5984 57.1243C46.7264 57.6549 46.841 58.1361 46.9716 58.6786C42.8021 59.6636 38.6526 60.6447 34.4632 61.6364C34.3339 61.1032 34.2192 60.6247 34.0886 60.0835C38.2474 59.0985 42.3836 58.1214 46.5984 57.1243Z" fill="#4E4B66"/>
<path d="M38.0235 55.8647C40.3761 55.3089 42.6542 54.7703 44.9975 54.2172C45.1201 54.7277 45.2388 55.2195 45.3707 55.7674C43.0487 56.3179 40.7574 56.8618 38.398 57.4203C38.2741 56.9084 38.1554 56.4179 38.0235 55.8647Z" fill="#FF0282"/>
<path d="M35.2802 58.1441C35.1523 57.6095 35.0376 57.1337 34.911 56.6072C35.4229 56.4845 35.9147 56.3659 36.4572 56.2366C36.5825 56.7591 36.7012 57.247 36.8305 57.7882C36.2973 57.9108 35.8094 58.0228 35.2802 58.1441Z" fill="#FF0282"/>
<path d="M42.3076 31.6209C45.752 31.6209 49.0404 31.6209 52.3914 31.6209C52.3914 31.8928 52.3914 32.1527 52.3914 32.4127C52.3914 32.6579 52.3914 32.9032 52.3914 33.1991C52.2008 33.1991 52.0555 33.1991 51.9102 33.1991C49.3963 33.1991 46.881 33.2071 44.367 33.1858C44.1204 33.1831 43.8339 33.0511 43.6392 32.8899C43.2047 32.53 42.8181 32.1141 42.3076 31.6209Z" fill="white"/>
<path d="M30.3217 31.5995C31.7346 31.5995 32.9969 31.5969 34.2592 31.6049C34.3645 31.6049 34.4965 31.6462 34.5711 31.7155C35.055 32.1621 35.5269 32.6219 36.0041 33.0765C35.9814 33.1165 35.9587 33.1578 35.9361 33.1978C34.6444 33.1978 33.3541 33.2018 32.0625 33.1911C31.9652 33.1898 31.8506 33.1071 31.7732 33.0325C31.3187 32.5926 30.8735 32.1461 30.3217 31.5995Z" fill="white"/>
<path d="M41.5251 33.1978C40.5134 33.1978 39.5017 33.2004 38.49 33.1938C38.4007 33.1938 38.2914 33.1498 38.2261 33.0885C37.7449 32.6366 37.273 32.1767 36.7971 31.7182C36.8158 31.6795 36.8358 31.6409 36.8545 31.6022C37.8782 31.6022 38.9019 31.5982 39.9256 31.6089C40.0242 31.6102 40.1389 31.6902 40.2175 31.7648C40.6761 32.1994 41.1266 32.6433 41.5798 33.0845C41.5625 33.1218 41.5438 33.1591 41.5251 33.1978Z" fill="white"/>
<path d="M58.0272 39.6C63.6989 39.5786 68.3616 44.2493 68.3869 49.9797C68.4122 55.6661 63.7416 60.3714 58.0538 60.3901C52.3288 60.4088 47.6101 55.7701 47.5954 50.1077C47.5781 44.2626 52.1862 39.6226 58.0272 39.6ZM57.9925 41.1968C53.1192 41.2128 49.1777 45.1571 49.1937 50.001C49.2097 54.8903 53.1565 58.8025 58.0605 58.7879C62.8925 58.7732 66.8114 54.785 66.786 49.909C66.7607 45.1211 62.7858 41.1822 57.9925 41.1968Z" fill="white"/>
<path d="M58.7536 73.1665C58.2285 73.1665 57.7353 73.1665 57.2167 73.1665C57.2167 70.5086 57.2167 67.8733 57.2167 65.2141C57.7326 65.2141 58.2258 65.2141 58.7536 65.2141C58.7536 67.852 58.7536 70.4872 58.7536 73.1665Z" fill="white"/>
<path d="M57.9552 63.5905C57.4553 63.5905 56.9555 63.5999 56.4556 63.5879C55.9411 63.5745 55.6038 63.2586 55.5945 62.8067C55.5852 62.3349 55.9318 62.0016 56.4743 61.995C57.49 61.9843 58.507 61.9843 59.5227 61.9963C60.0373 62.0016 60.3745 62.3242 60.3838 62.7761C60.3932 63.2453 60.0439 63.5772 59.5027 63.5892C58.9882 63.5985 58.471 63.5905 57.9552 63.5905Z" fill="#FF0282"/>
<path d="M57.1994 74.806C57.7486 74.806 58.2404 74.806 58.767 74.806C58.7683 75.3219 58.9642 75.8831 58.4337 76.2136C58.2244 76.3443 57.8326 76.3656 57.6126 76.2576C57.0061 75.9604 57.2181 75.3619 57.1994 74.806Z" fill="#FF0282"/>
<path d="M57.9925 41.1968C62.7845 41.1808 66.7607 45.1211 66.786 49.9104C66.8114 54.7863 62.8925 58.7732 58.0605 58.7892C53.1579 58.8039 49.2097 54.893 49.1937 50.0024C49.179 45.1571 53.1206 41.2128 57.9925 41.1968ZM65.1865 49.9917C65.1732 46.0235 61.9514 42.7924 58.0112 42.7977C53.995 42.8031 50.7812 46.0301 50.7919 50.0463C50.8026 54.0039 54.0696 57.2137 58.0658 57.191C61.9794 57.1697 65.1998 53.9133 65.1865 49.9917Z" fill="#4E4B66"/>
<path d="M65.1865 49.9917C65.1998 53.9133 61.978 57.1697 58.0658 57.191C54.0696 57.2137 50.8025 54.0039 50.7919 50.0464C50.7812 46.0302 53.995 42.8031 58.0112 42.7977C61.9514 42.7924 65.1745 46.0235 65.1865 49.9917Z" fill="white"/>
<path d="M56.008 40.2284C56.0261 40.0968 56.1703 40.0122 56.4228 40.0028C56.7114 39.9841 56.8918 40.0592 56.9459 40.2002C57.018 40.3976 57.018 40.6044 56.9459 40.8017C56.8918 40.9427 56.7114 41.0085 56.4228 40.9991C56.1703 40.9803 56.0261 40.9051 56.008 40.7735C55.99 40.689 56.008 40.6044 56.008 40.5198C56.008 40.4164 55.99 40.3224 56.008 40.2284Z" fill="#FF0282"/>
<path d="M58.008 40.2284C58.0261 40.0968 58.1703 40.0122 58.4228 40.0028C58.7114 39.9841 58.8918 40.0592 58.9459 40.2002C59.018 40.3976 59.018 40.6044 58.9459 40.8017C58.8918 40.9427 58.7114 41.0085 58.4228 40.9991C58.1703 40.9803 58.0261 40.9051 58.008 40.7735C57.99 40.689 58.008 40.6044 58.008 40.5198C58.008 40.4164 57.99 40.3224 58.008 40.2284Z" fill="#FF0282"/>
<path d="M60.008 40.5198C60.0261 40.3882 60.1703 40.3036 60.4228 40.2942C60.7114 40.2754 60.8918 40.3506 60.9459 40.4916C61.018 40.689 61.018 40.8958 60.9459 41.0931C60.8918 41.2341 60.7114 41.2999 60.4228 41.2905C60.1703 41.2717 60.0261 41.1965 60.008 41.0649C59.99 40.9804 60.008 40.8958 60.008 40.8112C60.008 40.7078 59.99 40.6138 60.008 40.5198Z" fill="#FF0282"/>
<path d="M61.5932 41.0028C61.6112 40.8712 61.7555 40.7866 62.008 40.7772C62.2966 40.7584 62.477 40.8336 62.5311 40.9746C62.6032 41.172 62.6032 41.3787 62.5311 41.5761C62.477 41.7171 62.2966 41.7829 62.008 41.7735C61.7555 41.7547 61.6112 41.6795 61.5932 41.5479C61.5752 41.4633 61.5932 41.3787 61.5932 41.2941C61.5932 41.1908 61.5752 41.0968 61.5932 41.0028Z" fill="#FF0282"/>
<path d="M63.008 41.9371C63.0261 41.8055 63.1703 41.7209 63.4228 41.7115C63.7114 41.6927 63.8918 41.7679 63.9459 41.9089C64.018 42.1063 64.018 42.313 63.9459 42.5104C63.8918 42.6514 63.7114 42.7172 63.4228 42.7078C63.1703 42.689 63.0261 42.6138 63.008 42.4822C62.99 42.3976 63.008 42.313 63.008 42.2284C63.008 42.1251 62.99 42.0311 63.008 41.9371Z" fill="#FF0282"/>
<path d="M64.4228 43.0029C64.4409 42.8713 64.5852 42.7867 64.8377 42.7773C65.1262 42.7585 65.3066 42.8337 65.3607 42.9747C65.4329 43.1721 65.4329 43.3789 65.3607 43.5762C65.3066 43.7172 65.1262 43.783 64.8377 43.7736C64.5852 43.7548 64.4409 43.6796 64.4228 43.548C64.4048 43.4634 64.4228 43.3789 64.4228 43.2943C64.4228 43.1909 64.4048 43.0969 64.4228 43.0029Z" fill="#FF0282"/>
<path d="M65.5311 44.4258C65.5491 44.2942 65.6934 44.2096 65.9459 44.2002C66.2345 44.1814 66.4148 44.2566 66.4689 44.3976C66.5411 44.595 66.5411 44.8017 66.4689 44.9991C66.4148 45.1401 66.2345 45.2059 65.9459 45.1965C65.6934 45.1777 65.5491 45.1025 65.5311 44.9709C65.513 44.8863 65.5311 44.8017 65.5311 44.7171C65.5311 44.6138 65.513 44.5198 65.5311 44.4258Z" fill="#FF0282"/>
</svg>
