<svg width="117" height="99" viewBox="0 0 117 99" fill="none" xmlns="http://www.w3.org/2000/svg">
<path d="M94.0793 41.4132C92.1497 27.4565 87.2429 11.961 78.6173 8.37438C69.9512 4.82126 57.6069 13.1436 46.3076 22.5645C35.0083 31.9854 24.7136 42.5385 26.2501 52.9698C27.7091 63.3898 40.9623 73.6432 54.1911 78.1789C67.4604 82.6811 80.6277 81.4543 87.7944 74.621C94.961 67.7876 96.0088 55.3698 94.0793 41.4132Z" fill="#F7F7FC"/>
<path d="M76.8328 73.5684C75.9622 75.4545 75.182 77.4199 74.4205 79.3695C74.331 79.5987 74.2417 79.8277 74.1526 80.0563C73.4818 81.7771 72.8191 83.4769 72.1097 85.1079C70.4997 88.8094 68.6772 92.0864 66.0689 94.3398C60.9075 98.7919 52.4152 99.2455 44.7101 97.6839L44.7069 97.6833C37.0421 96.1817 30.2429 92.6581 23.4375 88.8374L23.4364 88.8367C16.6796 85.0662 10.1202 80.9754 5.89753 75.1577C1.67882 69.2929 -0.225913 61.6214 0.751411 54.5245L0.751927 54.5205C1.67854 47.3664 5.49305 40.8019 9.57866 34.4652C13.6584 28.1376 17.8691 22.1662 23.6265 17.136L23.6284 17.1344C29.4053 12.035 36.5667 7.94203 43.6628 7.99237C47.2038 8.04367 50.7435 9.15252 54.2828 10.8116C57.8239 12.4716 61.3327 14.6665 64.8186 16.8677C71.8521 21.3284 78.5118 25.6741 82.6328 31.8024C86.6966 37.9238 88.2366 45.8464 86.6452 52.8268C85.8495 56.3171 84.2671 59.592 82.4385 62.9613C81.9631 63.8372 81.4702 64.7207 80.971 65.6158C79.5597 68.1459 78.0973 70.7678 76.8328 73.5684ZM76.8328 73.5684C76.8331 73.5677 76.8335 73.567 76.8338 73.5663L77.2877 73.7758L76.832 73.5701C76.8323 73.5695 76.8325 73.5689 76.8328 73.5684Z" stroke="#D6D8E7"/>
<path d="M65.5459 46.2471C63.5178 44.6376 61.522 42.9637 59.5261 41.3219C54.3434 37.0727 49.1606 32.7913 43.9778 28.5421C42.5614 27.3832 41.4669 27.3832 40.0505 28.5742C33.226 34.1433 26.4337 39.7124 19.6092 45.3136C16.6476 47.7279 17.0339 47.1807 17.0339 50.9792C17.0339 51.0758 17.0339 51.2046 17.0339 51.3011C17.1305 52.6854 18.5469 53.3936 19.7058 52.621C19.9311 52.4922 20.1242 52.3313 20.414 52.0737C20.414 52.46 20.414 52.7176 20.414 52.9751C20.414 58.1257 20.414 63.2762 20.414 68.4268C20.414 70.2617 20.414 70.2617 18.5469 70.2617C17.388 70.2617 16.9695 70.487 17.0017 71.163C17.0339 71.8069 17.388 72 18.5469 72C34.1596 72 49.7722 72 65.3849 72C65.578 72 65.7712 72 65.9322 72C66.5116 71.9678 66.9301 71.7103 66.8979 71.0665C66.8657 70.487 66.5116 70.2295 65.9322 70.2617C65.2561 70.2617 64.6123 70.2617 63.9363 70.2617C63.5822 70.2617 63.4856 70.1973 63.4856 69.811C63.4856 63.9522 63.4856 58.0613 63.4856 52.0415C63.711 52.2025 63.8075 52.2669 63.9041 52.3635C64.5157 52.9107 65.1918 53.1038 65.9643 52.7497C66.7047 52.3956 66.9301 51.7518 66.9301 50.947C66.9301 50.3998 66.8979 49.8204 66.9301 49.2731C67.091 47.9855 66.576 47.0519 65.5459 46.2471ZM60.8782 70.2617C54.5687 70.2295 48.2593 70.2617 41.982 70.2617C35.6403 70.2617 29.2665 70.2617 22.9249 70.2617C22.3132 70.2617 22.1845 70.1329 22.1845 69.5213C22.2167 63.4372 22.2167 57.3531 22.1845 51.2368C22.1845 50.7539 22.3132 50.4642 22.6673 50.1745C28.8802 45.1205 35.0609 40.0343 41.2416 34.9481C41.8532 34.433 42.1751 34.433 42.7868 34.9481C48.9031 40.0343 55.0516 45.0561 61.2323 50.0779C61.6507 50.432 61.8439 50.7861 61.8439 51.3655C61.8117 57.3853 61.8117 63.3728 61.8439 69.3925C61.8117 70.1651 61.5864 70.2617 60.8782 70.2617ZM65.2883 49.4341C65.2239 49.9491 65.2883 50.4964 65.2883 51.2046C62.8096 49.1443 60.4597 47.2451 58.1097 45.3136C53.1845 41.2575 48.2593 37.2336 43.3662 33.2098C42.3683 32.3728 41.6923 32.3728 40.6622 33.2098C33.6445 38.972 26.5947 44.7342 19.577 50.5286C19.3517 50.7217 19.1263 50.8827 18.7722 51.1402C18.7722 50.2066 18.7722 49.3697 18.7722 48.5649C18.7722 48.2108 19.0297 48.0177 19.2873 47.7923C26.5625 41.8692 33.8055 35.8816 41.0806 29.9263C41.9498 29.2181 42.0786 29.2181 42.9799 29.9585C48.7743 34.7227 54.5687 39.487 60.3631 44.2513C61.7151 45.3458 63.035 46.4725 64.387 47.5348C65.0308 48.0498 65.3849 48.5971 65.2883 49.4341Z" fill="#4E4B66"/>
<path d="M25.6289 65.8515C25.5645 65.3686 25.2748 65.1111 24.7597 65.1111C24.2447 65.1433 23.9549 65.4008 23.9549 65.9159C23.9228 66.5275 23.9228 67.1392 23.9549 67.7508C23.9549 68.2015 24.2447 68.4912 24.6953 68.5234C25.1782 68.5556 25.5323 68.3302 25.5967 67.8474C25.6611 67.5254 25.6611 67.1713 25.6611 66.8172C25.6289 66.8172 25.6289 66.8172 25.5967 66.8172C25.6289 66.4953 25.6611 66.1412 25.6289 65.8515Z" fill="#FF0282"/>
<path d="M34.2239 65.8194C34.1917 65.4009 33.9342 65.1434 33.4835 65.1112C33.0328 65.079 32.6787 65.2399 32.5822 65.6906C32.4534 66.431 32.4534 67.1714 32.5822 67.9118C32.6787 68.3625 33.0328 68.5556 33.4835 68.4912C33.902 68.459 34.1917 68.2015 34.2239 67.783C34.2561 67.4289 34.2239 67.107 34.2239 66.7529C34.2239 66.4632 34.2561 66.1413 34.2239 65.8194Z" fill="#FF0282"/>
<path d="M50.5448 65.1112C50.0298 65.1434 49.7722 65.4653 49.74 65.9482C49.7079 66.2379 49.74 66.5276 49.74 66.8173C49.74 67.0748 49.74 67.3646 49.74 67.6221C49.74 68.1372 49.9976 68.4913 50.5448 68.5234C51.0921 68.5556 51.414 68.2337 51.4462 67.7187C51.5106 67.107 51.5106 66.4954 51.4462 65.8838C51.414 65.4009 51.0921 65.079 50.5448 65.1112Z" fill="#FF0282"/>
<path d="M54.8262 65.1111C54.3755 65.1433 54.0858 65.433 54.0536 65.8837C54.0214 66.2056 54.0536 66.5275 54.0536 66.8494C54.0536 67.1391 54.0536 67.4288 54.0536 67.7186C54.0858 68.1692 54.3111 68.459 54.794 68.5233C55.2769 68.5877 55.6632 68.3624 55.7275 67.8795C55.8563 67.1713 55.8563 66.4631 55.7275 65.7549C55.631 65.272 55.3091 65.0789 54.8262 65.1111Z" fill="#FF0282"/>
<path d="M59.1398 65.1112C58.6891 65.1434 58.3994 65.4009 58.3994 65.8838C58.3672 66.1735 58.3994 66.4632 58.3994 66.7529C58.3994 67.0749 58.3994 67.3968 58.3994 67.7187C58.4316 68.2337 58.6891 68.4913 59.2042 68.5235C59.7192 68.5556 60.0412 68.2659 60.0733 67.7831C60.1055 67.1392 60.1055 66.4632 60.0733 65.7872C60.009 65.3043 59.6549 65.079 59.1398 65.1112Z" fill="#FF0282"/>
<path d="M38.5375 65.8837C38.5053 65.433 38.2478 65.1433 37.7971 65.1111C37.282 65.0468 36.9601 65.3043 36.8635 65.7871C36.7348 66.4632 36.7348 67.1714 36.8635 67.8474C36.9601 68.3302 37.282 68.5556 37.7971 68.5234C38.2478 68.459 38.5053 68.2015 38.5375 67.7508C38.5697 67.4611 38.5375 67.1714 38.5375 66.8816C38.5375 66.5275 38.5697 66.2056 38.5375 65.8837Z" fill="#FF0282"/>
<path d="M42.7705 65.7823C42.7383 65.3317 42.4808 65.0419 42.0301 65.0098C41.5151 64.9454 41.1931 65.2029 41.0966 65.6858C40.9678 66.3618 40.9678 67.07 41.0966 67.746C41.1931 68.2289 41.5151 68.4542 42.0301 68.422C42.4808 68.3576 42.7383 68.1001 42.7705 67.6494C42.8027 67.3597 42.7705 67.07 42.7705 66.7803C42.7705 66.4262 42.8027 66.1043 42.7705 65.7823Z" fill="#FF0282"/>
<path d="M47.1647 65.8836C47.1004 65.4008 46.8428 65.111 46.3278 65.0788C45.8127 65.0788 45.4908 65.3686 45.4586 65.8192C45.3942 66.4631 45.3942 67.1069 45.4586 67.7185C45.4908 68.1692 45.8127 68.4911 46.3278 68.4589C46.8428 68.4589 47.1004 68.137 47.1647 67.6863C47.1969 67.3966 47.1647 67.1069 47.1647 66.8172C47.1647 66.5274 47.1969 66.2055 47.1647 65.8836Z" fill="#FF0282"/>
<path d="M29.9104 66.8173C29.9104 66.4953 29.9425 66.1734 29.9104 65.8515C29.8782 65.3365 29.5563 65.0789 29.0734 65.1111C28.5583 65.1111 28.2686 65.4009 28.2686 65.8837C28.2364 66.4953 28.2364 67.107 28.2686 67.7186C28.3008 68.2015 28.5583 68.4912 29.0734 68.5234C29.6206 68.5234 29.9104 68.2337 29.9425 67.7186C29.9425 67.3967 29.9425 67.107 29.9104 66.8173Z" fill="#FF0282"/>
<circle cx="61" cy="71" r="6.25" fill="white" stroke="#4E4B66" stroke-width="1.5"/>
<path d="M64.2895 70.4018C63.537 70.4232 62.7845 70.3805 62.032 70.4232C61.6664 70.4446 61.5805 70.3163 61.5805 69.9741C61.602 69.1828 61.602 68.3701 61.5805 67.5788C61.5805 67.2152 61.3654 66.98 60.9784 67.0013C60.6129 67.0227 60.4409 67.2366 60.4409 67.6002C60.4409 68.0279 60.4409 68.4556 60.4409 68.8834C60.4194 69.3753 60.6559 70.0169 60.3549 70.3163C60.0324 70.6371 59.3659 70.3805 58.9574 70.4232C58.5059 70.4232 58.1189 70.4232 57.7534 70.4232C57.3449 70.4018 57.0224 70.5088 57.0009 70.9793C56.9794 71.4712 57.3449 71.5781 57.7534 71.5781C58.5274 71.5781 59.2799 71.5995 60.0539 71.5781C60.3549 71.5781 60.4624 71.6637 60.4409 71.9631C60.4194 72.7116 60.4409 73.4602 60.4194 74.2087C60.4194 74.6364 60.5054 75 60.9784 75C61.4514 75 61.5804 74.6364 61.5589 74.2087C61.5589 73.5029 61.5805 72.7972 61.5375 72.07C61.516 71.6209 61.6665 71.5353 62.075 71.5567C62.7845 71.5781 63.494 71.5567 64.225 71.5567C64.6335 71.5567 64.999 71.4284 64.999 70.9579C65.0205 70.5302 64.698 70.4018 64.2895 70.4018Z" fill="#FF0282"/>
<rect x="35.75" y="46.75" width="13.5" height="10.5" stroke="#4E4B66" stroke-width="1.5"/>
</svg>
