<svg width="150" height="151" viewBox="0 0 150 151" fill="none" xmlns="http://www.w3.org/2000/svg">
<path d="M148.905 63.701C148.905 40.401 127.705 31.901 113.305 33.701C100.705 35.301 92.3054 42.701 87.4054 54.201C86.8054 55.701 86.2054 57.301 85.4054 58.701C83.8054 61.501 81.0054 63.101 78.3054 64.401C76.6054 65.201 74.8054 63.101 73.0054 62.401C69.0054 60.901 66.2054 58.201 64.2054 54.401C63.1054 52.301 61.7054 50.301 60.4054 48.301C49.3054 32.301 27.4054 28.801 12.6054 40.801C7.70539 44.801 4.40539 50.101 1.30539 55.501C-0.394606 58.401 -0.294606 61.701 0.805394 64.901C2.20539 69.501 3.70539 74.001 5.30539 78.501C6.60539 82.201 9.20539 84.701 13.1054 85.401C14.9054 85.701 15.2054 86.401 15.1054 88.001C14.0054 98.601 13.0054 109.101 12.0054 119.701C11.4054 126.101 10.6054 132.601 10.2054 139.001C9.8054 146.301 16.5054 151.501 23.5054 149.701C27.2054 148.801 29.6054 146.301 31.1054 142.801C34.4054 148.701 38.8054 151.001 44.2054 149.801C49.3054 148.601 52.2054 144.301 52.2054 137.601C52.3054 116.501 52.5054 95.401 52.6054 74.301C52.6054 73.801 52.3054 73.101 53.0054 72.701C56.5054 76.301 60.7054 78.901 65.5054 80.401C69.6054 81.701 73.6054 83.001 78.0054 83.201C81.8054 83.401 84.9054 83.101 88.1054 81.201C91.5054 79.201 94.9054 77.201 97.9054 74.101C98.0054 74.801 98.1054 75.101 98.1054 75.401C98.3054 86.501 97.8054 97.601 97.2054 108.801C96.7054 119.001 96.2054 129.201 96.0054 139.401C95.8054 146.201 101.705 151.001 108.405 149.901C112.505 149.201 115.105 146.701 117.005 142.501C117.305 143.301 117.405 143.601 117.605 143.901C120.105 148.701 125.005 151.001 130.105 149.701C134.805 148.501 138.005 144.201 138.005 138.901C138.005 135.601 137.705 132.301 137.605 128.901C137.105 118.401 136.705 107.801 136.205 97.301C136.205 96.301 136.005 95.801 137.405 96.001C144.505 97.101 149.105 93.201 149.205 85.901C148.905 78.601 148.905 71.101 148.905 63.701ZM78.9054 75.201C78.1054 77.401 76.2054 78.201 73.6054 77.601C64.6054 75.301 56.8054 71.301 51.6054 63.101C50.2054 60.901 48.5054 59.001 46.9054 57.001C45.7054 55.501 44.3054 54.701 42.7054 56.101C41.2054 57.401 41.3054 59.001 42.7054 60.201C46.8054 63.901 47.1054 68.601 47.1054 73.701C46.8054 94.901 46.8054 116.201 46.7054 137.501C46.7054 138.301 46.7054 139.201 46.6054 140.001C46.3054 142.801 44.0054 144.901 41.3054 144.901C38.4054 144.801 36.1054 142.501 36.1054 139.401C36.1054 132.001 36.1054 124.601 36.1054 117.201C36.2054 117.201 36.4054 117.201 36.5054 117.201C36.5054 109.701 36.5054 102.301 36.5054 94.801C36.5054 92.001 34.4054 90.501 32.4054 91.701C31.5054 92.301 31.2054 93.101 31.0054 94.201C29.4054 109.201 27.7054 124.201 26.1054 139.201C25.7054 142.801 23.5054 145.101 20.5054 144.901C17.3054 144.701 15.2054 142.101 15.6054 138.501C16.9054 125.101 18.1054 111.701 19.5054 98.401C20.9054 85.201 20.2054 72.001 20.4054 58.801C20.4054 57.001 19.7054 55.701 17.7054 55.701C15.7054 55.701 15.1054 57.001 15.1054 58.901C15.1054 65.401 15.1054 71.901 15.1054 78.301C15.1054 79.001 15.6054 79.901 14.7054 80.301C14.0054 80.601 13.3054 80.101 12.6054 79.701C11.4054 79.001 10.7054 77.801 10.3054 76.601C8.70539 72.001 7.20539 67.701 5.90539 63.401C5.00539 60.801 5.30539 58.401 6.90539 56.101C8.50539 53.801 10.1054 51.501 11.8054 49.201C22.8054 34.801 44.9054 35.701 55.7054 51.101C57.4054 53.501 58.9054 56.101 60.4054 58.701C62.4054 62.201 65.2054 64.801 68.9054 66.401C71.5054 67.601 74.0054 68.801 76.5054 70.101C78.9054 71.301 79.6054 73.101 78.9054 75.201ZM143.505 86.401C143.505 89.401 142.005 91.101 139.505 91.101C137.005 91.101 135.505 89.501 135.505 86.501C135.505 77.701 135.505 68.901 135.505 60.101C135.505 59.401 135.605 58.801 135.405 58.101C135.105 56.501 134.305 55.501 132.605 55.601C130.905 55.701 130.105 56.701 130.105 58.401C130.205 70.301 129.805 82.101 130.305 94.001C130.905 108.901 131.605 123.801 132.305 138.801C132.405 142.301 130.205 144.801 127.105 144.801C124.205 144.901 121.805 142.501 121.705 139.201C121.005 125.401 120.305 111.501 119.705 97.701C119.605 96.501 119.505 95.201 119.405 94.001C119.305 92.301 118.305 91.301 116.705 91.301C115.105 91.301 114.205 92.401 114.105 94.001C113.805 98.801 113.605 103.601 113.305 108.401C112.805 118.701 112.305 129.001 111.805 139.201C111.605 142.501 109.205 144.901 106.305 144.701C103.305 144.601 101.105 142.201 101.205 138.801C101.805 124.501 102.405 110.101 103.105 95.801C103.705 83.301 103.205 70.701 103.405 58.201C103.405 56.501 102.505 55.501 100.905 55.401C99.3054 55.301 98.3054 56.301 98.0054 57.901C97.9054 58.301 97.9054 58.701 98.0054 59.101C99.1054 65.901 94.8054 69.901 90.2054 73.501C88.5054 74.901 86.4054 75.801 84.1054 77.301C84.8054 74.101 84.8054 71.501 83.3054 69.101C82.8054 68.401 82.9054 68.001 83.6054 67.501C88.6054 64.801 90.9054 60.101 92.9054 54.901C96.9054 44.701 107.105 38.001 118.005 38.801C130.505 39.701 140.105 45.801 142.905 57.601C143.405 59.901 143.605 62.201 143.605 64.501C143.505 71.801 143.505 79.101 143.505 86.401Z" fill="#FF0282"/>
<path d="M36.4051 32.201C45.3051 32.201 52.5051 25.001 52.4051 16.001C52.4051 7.20103 45.3051 0.101029 36.4051 0.0010292C27.6051 -0.0989708 20.3051 7.10103 20.2051 16.001C20.2051 25.001 27.5051 32.301 36.4051 32.201ZM36.3051 4.80103C42.6051 4.80103 47.7051 9.90103 47.7051 16.101C47.7051 22.401 42.6051 27.501 36.3051 27.401C30.0051 27.301 25.0051 22.201 25.0051 15.901C25.1051 9.90103 30.1051 4.80103 36.3051 4.80103Z" fill="#FF0282"/>
<path d="M116.506 32.201C125.506 32.201 132.606 25.201 132.706 16.201C132.706 7.20098 125.606 0.100977 116.706 0.000976562C107.906 0.000976562 100.706 7.10098 100.706 15.901C100.606 25.001 107.606 32.201 116.506 32.201ZM117.106 4.80098C123.206 5.00098 128.206 10.301 128.106 16.301C127.906 22.601 122.706 27.601 116.406 27.401C110.206 27.201 105.206 22.101 105.306 16.001C105.406 9.70098 110.706 4.70098 117.106 4.80098Z" fill="#FF0282"/>
<path d="M63.1051 21.5009C64.6051 21.5009 65.6051 20.6009 65.8051 19.1009C65.9051 18.2009 65.8051 17.3009 65.8051 16.4009C65.8051 15.4009 65.9051 14.4009 65.8051 13.4009C65.6051 11.8009 64.7051 10.8009 63.0051 10.9009C61.5051 11.0009 60.5051 12.0009 60.4051 13.4009C60.3051 15.3009 60.3051 17.2009 60.4051 19.1009C60.6051 20.6009 61.6051 21.5009 63.1051 21.5009Z" fill="#4E4B66"/>
<path d="M73.8047 18.801C73.8047 20.501 74.8047 21.401 76.4047 21.501C77.9047 21.601 79.0047 20.601 79.1047 19.201C79.3047 17.201 79.3047 15.201 79.1047 13.301C79.0047 11.901 78.0047 10.901 76.4047 11.001C74.8047 11.101 73.9047 12.101 73.8047 13.701C73.8047 14.501 73.8047 15.401 73.8047 16.201C73.8047 17.001 73.8047 17.901 73.8047 18.801Z" fill="#4E4B66"/>
<path d="M87.2046 18.601C87.2046 20.301 88.0046 21.301 89.6046 21.401C91.3046 21.501 92.3046 20.501 92.5046 19.001C92.7046 17.001 92.7046 15.001 92.5046 13.101C92.3046 11.601 91.3046 10.701 89.7046 10.801C88.2046 10.901 87.3046 11.801 87.2046 13.401C87.1046 14.301 87.2046 15.201 87.2046 16.101C87.3046 17.001 87.3046 17.801 87.2046 18.601Z" fill="#4E4B66"/>
</svg>
