<svg width="22" height="22" viewBox="0 0 22 22" fill="none" xmlns="http://www.w3.org/2000/svg">
<path d="M0 16.6723C0 12.8769 0 9.08102 0 5.28559C0.0133203 5.2452 0.0305078 5.20609 0.0386719 5.16484C0.262969 4.05195 0.925547 3.32965 2.02641 3.08387C2.50594 2.97688 3.0207 3.02543 3.51957 3.00996C3.77438 3.0018 4.02918 3.00824 4.2698 3.00824C4.28613 2.9743 4.29129 2.96828 4.29129 2.96184C4.29387 2.82605 4.29344 2.69027 4.29773 2.55449C4.3248 1.67406 4.69863 0.97668 5.40977 0.459336C5.75824 0.20582 6.16172 0.0923828 6.57422 0C9.52488 0 12.4751 0 15.4258 0C15.4589 0.0124609 15.4907 0.0300781 15.525 0.0360938C16.671 0.23418 17.4943 1.06391 17.6683 2.21418C17.7074 2.47156 17.704 2.73539 17.7212 3.00996C18.318 3.00996 18.9037 2.99621 19.4885 3.0134C20.3088 3.03703 20.9705 3.38937 21.4775 4.03477C21.7675 4.40387 21.9038 4.83613 22.0004 5.28559C22.0004 9.08102 22.0004 12.8769 22.0004 16.6723C21.9871 16.7127 21.9699 16.7518 21.9618 16.793C21.7379 17.9059 21.0749 18.6278 19.974 18.874C19.4945 18.9814 18.9797 18.9325 18.4804 18.9479C18.2261 18.9557 17.9712 18.9492 17.7027 18.9492C17.7027 19.1331 17.7066 19.2895 17.7018 19.4455C17.6756 20.3259 17.3014 21.0233 16.5902 21.5407C16.2418 21.7942 15.8383 21.908 15.4258 22C12.4751 22 9.52488 22 6.57422 22C6.54113 21.9875 6.50934 21.9699 6.47496 21.9639C5.32898 21.7658 4.50527 20.9365 4.33211 19.7858C4.29129 19.5143 4.29602 19.2362 4.27883 18.9471C3.68242 18.9471 3.09676 18.9608 2.51195 18.9436C1.69168 18.92 1.02996 18.5677 0.52293 17.9223C0.232891 17.554 0.0966797 17.1218 0 16.6723ZM15.9844 11.0056C15.9844 8.24871 15.9844 5.49184 15.9844 2.73496C15.9844 2.04875 15.6565 1.71918 14.9742 1.71918C12.3247 1.71918 9.67527 1.71918 7.02582 1.71918C6.34348 1.71918 6.01562 2.04875 6.01562 2.73496C6.01562 8.24141 6.01562 13.7483 6.01562 19.2547C6.01562 19.9555 6.33961 20.2812 7.03656 20.2812C9.67871 20.2812 12.3213 20.2812 14.9634 20.2812C15.6604 20.2812 15.9844 19.9555 15.9844 19.2547C15.9844 16.5052 15.9844 13.7556 15.9844 11.0056ZM4.28227 17.2279C4.28227 13.0496 4.28227 8.89453 4.28227 4.72699C3.7675 4.72699 3.26691 4.72699 2.76676 4.72699C2.03672 4.72699 1.71875 5.04324 1.71875 5.76941C1.71875 9.24172 1.71875 12.714 1.71875 16.1868C1.71875 16.2654 1.7166 16.3445 1.72262 16.4231C1.75484 16.8614 2.08957 17.2116 2.52871 17.224C3.1075 17.2404 3.68672 17.2279 4.28227 17.2279ZM17.7182 4.73172C17.7182 8.90957 17.7182 13.0646 17.7182 17.2163C17.747 17.2227 17.7603 17.2288 17.774 17.2288C18.2682 17.2296 18.7619 17.2309 19.256 17.2309C19.9555 17.2309 20.2808 16.9065 20.2808 16.2087C20.2808 12.7218 20.2808 9.23527 20.2808 5.74836C20.2808 5.6766 20.2825 5.60484 20.277 5.53352C20.2447 5.1034 19.9195 4.75105 19.4911 4.73645C18.9058 4.71625 18.3193 4.73172 17.7182 4.73172Z" fill="current"/>
</svg>
