<svg width="117" height="99" viewBox="0 0 117 99" fill="none" xmlns="http://www.w3.org/2000/svg">
<path d="M94.0793 41.4132C92.1497 27.4565 87.2429 11.961 78.6173 8.3744C69.9512 4.82128 57.6069 13.1436 46.3076 22.5645C35.0083 31.9855 24.7135 42.5385 26.2501 52.9698C27.7091 63.3898 40.9622 73.6432 54.1911 78.1789C67.4604 82.6811 80.6277 81.4543 87.7944 74.621C94.961 67.7876 96.0088 55.3699 94.0793 41.4132Z" fill="#F7F7FC"/>
<path d="M76.8328 73.5684C75.9622 75.4545 75.182 77.4199 74.4205 79.3695C74.331 79.5987 74.2417 79.8277 74.1526 80.0563C73.4818 81.7771 72.8191 83.4769 72.1097 85.1079C70.4997 88.8094 68.6772 92.0864 66.0689 94.3398C60.9075 98.7919 52.4152 99.2455 44.7101 97.6839L44.7069 97.6833C37.0421 96.1817 30.2429 92.6581 23.4375 88.8374L23.4364 88.8367C16.6796 85.0663 10.1202 80.9755 5.89753 75.1577C1.67882 69.2929 -0.225913 61.6214 0.751411 54.5245L0.751927 54.5205C1.67854 47.3664 5.49305 40.8019 9.57866 34.4652C13.6584 28.1376 17.8691 22.1662 23.6265 17.1361L23.6284 17.1344C29.4053 12.035 36.5667 7.94204 43.6628 7.99238C47.2038 8.04368 50.7435 9.15253 54.2828 10.8117C57.8239 12.4716 61.3327 14.6665 64.8186 16.8677C71.8521 21.3284 78.5118 25.6741 82.6328 31.8024C86.6966 37.9238 88.2366 45.8465 86.6452 52.8268C85.8495 56.3171 84.2671 59.592 82.4385 62.9613C81.9631 63.8372 81.4702 64.7208 80.971 65.6158C79.5597 68.146 78.0973 70.7678 76.8328 73.5684ZM76.8328 73.5684C76.8331 73.5677 76.8335 73.567 76.8338 73.5663L77.2877 73.7758L76.832 73.5701C76.8323 73.5695 76.8325 73.5689 76.8328 73.5684Z" stroke="#D6D8E7"/>
<path d="M25.642 65.267C25.642 63.7106 25.642 62.2271 25.642 60.6669C25.343 60.6669 25.0479 60.6745 24.7527 60.6656C24.0844 60.6451 23.3995 60.6988 22.7516 60.5723C21.6323 60.3538 20.978 59.2331 21.0317 57.8186C21.0815 56.4986 21.8175 55.5134 22.9292 55.3384C23.3202 55.277 23.7253 55.3064 24.124 55.3026C24.6159 55.2975 25.1079 55.3013 25.6241 55.3013C25.6241 53.7667 25.6241 52.2716 25.6241 50.7012C25.021 50.7012 24.4038 50.6756 23.7905 50.7063C22.7542 50.7587 21.8699 50.5018 21.378 49.5128C20.8451 48.4382 20.8668 47.3482 21.4994 46.3144C21.8929 45.6704 22.505 45.3471 23.2627 45.3382C24.0409 45.328 24.8204 45.3356 25.6241 45.3356C25.6241 43.7971 25.6241 42.3021 25.6241 40.7342C25.0006 40.7342 24.3681 40.7087 23.7394 40.7393C22.6507 40.793 21.769 40.4659 21.3166 39.413C20.8298 38.2795 20.886 37.1653 21.6438 36.152C22.0514 35.6051 22.6366 35.3687 23.3151 35.3674C24.078 35.3648 24.8396 35.3674 25.651 35.3674C25.651 34.4014 25.6497 33.4801 25.651 32.5588C25.6535 30.9295 26.5774 30.0006 28.2015 30.0006C37.7046 29.9993 47.2064 30.0006 56.7096 30.0006C58.4768 30.0006 59.4083 30.9449 59.4045 32.73C59.4045 32.8233 59.4045 32.9165 59.4045 33.0673C60.106 33.0673 60.7871 33.066 61.4681 33.0673C63.036 33.0699 63.9829 34.0052 63.9842 35.5616C63.9867 37.9895 63.9867 40.416 63.9842 42.8439C63.9829 44.3773 63.0335 45.328 61.5103 45.3331C60.8254 45.3356 60.1392 45.3331 59.4198 45.3331C59.4198 45.8404 59.4198 46.3247 59.4198 46.8665C60.1162 46.8665 60.8139 46.8652 61.5103 46.8665C63.0335 46.8716 63.9816 47.8223 63.9842 49.3556C63.9867 51.7835 63.9867 54.2101 63.9842 56.6379C63.9829 58.1905 63.0322 59.1296 61.4669 59.1322C60.7973 59.1335 60.1277 59.1322 59.4211 59.1322C59.4211 59.6357 59.4211 60.12 59.4211 60.6656C60.0958 60.6656 60.7768 60.6643 61.4579 60.6656C63.0501 60.6681 63.9829 61.6009 63.9842 63.1982C63.9854 65.6094 63.9867 68.022 63.9842 70.4332C63.9829 71.9921 63.0373 72.9288 61.472 72.9326C60.8024 72.9339 60.1328 72.9326 59.393 72.9326C59.393 73.2009 59.407 73.4501 59.3904 73.6967C59.2959 75.0832 58.3311 75.9981 56.9523 75.9981C47.3381 76.0006 37.7238 76.0006 28.1095 75.9981C26.6196 75.9981 25.6586 75.0295 25.6523 73.5383C25.6484 72.6119 25.6471 71.6855 25.642 70.7603C25.642 70.7322 25.6178 70.7054 25.5845 70.6325C24.8894 70.6325 24.1751 70.6351 23.4608 70.6325C22.2443 70.6274 21.4508 70.0154 21.1377 68.8295C20.9448 68.0986 20.9691 67.3677 21.2706 66.6713C21.6604 65.7653 22.3465 65.2683 23.3547 65.267C24.1023 65.267 24.8498 65.267 25.642 65.267ZM27.1856 70.6338C27.1856 71.5705 27.1856 72.447 27.1856 73.3223C27.1856 74.2615 27.3926 74.4673 28.3421 74.4673C37.7966 74.4673 47.2499 74.4673 56.7044 74.4673C57.6462 74.4673 57.8532 74.259 57.8532 73.3147C57.8532 59.7724 57.8532 46.2301 57.8532 32.6878C57.8532 31.7397 57.6475 31.5327 56.707 31.5327C47.2524 31.5327 37.7992 31.5327 28.3446 31.5327C28.1849 31.5327 28.0226 31.5199 27.8667 31.5429C27.4949 31.5991 27.2163 31.8227 27.2061 32.1946C27.1767 33.2411 27.1959 34.2889 27.1959 35.3661C28.5082 35.3661 29.7668 35.3636 31.0267 35.3674C32.0119 35.3699 32.6943 35.8504 33.084 36.7372C33.4252 37.5141 33.4393 38.3217 33.176 39.1229C32.8285 40.1809 32.0618 40.724 30.9462 40.7329C30.5948 40.7355 30.2434 40.7329 29.892 40.7329C29.0027 40.7329 28.1146 40.7329 27.2189 40.7329C27.2189 42.2932 27.2189 43.7997 27.2189 45.3331C28.4468 45.3331 29.6429 45.3318 30.8389 45.3331C32.1742 45.3356 33.0023 45.9848 33.2731 47.2984C33.5977 48.8726 32.8949 50.8992 30.6063 50.7025C30.384 50.6833 30.1591 50.6999 29.9355 50.6999C29.0308 50.6999 28.1261 50.6999 27.2201 50.6999C27.2201 52.2627 27.2201 53.7692 27.2201 55.3C28.5146 55.3 29.7745 55.2962 31.0344 55.3013C31.9979 55.3051 32.67 55.7703 33.0674 56.6341C33.3933 57.3433 33.429 58.0844 33.2386 58.8332C32.9307 60.0458 32.1359 60.6605 30.8913 60.6656C30.0134 60.6681 29.1343 60.6656 28.2564 60.6656C27.9102 60.6656 27.5651 60.6656 27.2227 60.6656C27.2227 62.2309 27.2227 63.7374 27.2227 65.2657C28.4545 65.2657 29.6505 65.2644 30.8479 65.2657C32.1691 65.2683 32.9729 65.8957 33.2655 67.1914C33.6079 68.7133 32.9575 70.8076 30.6 70.644C29.487 70.5699 28.3663 70.6338 27.1856 70.6338ZM59.4262 34.6007C59.4262 37.6611 59.4262 40.7087 59.4262 43.7959C60.1967 43.7959 60.9583 43.8138 61.7186 43.7895C62.1773 43.7754 62.4482 43.4534 62.4495 42.9525C62.4559 40.4493 62.4559 37.9447 62.4495 35.4415C62.4482 34.9035 62.153 34.6135 61.6189 34.6033C60.9021 34.5905 60.1839 34.6007 59.4262 34.6007ZM59.4198 48.4024C59.4198 51.4998 59.4198 54.5359 59.4198 57.5975C60.1993 57.5975 60.9481 57.6116 61.6943 57.5924C62.1454 57.5809 62.4457 57.2819 62.4469 56.827C62.4572 54.2752 62.4572 51.7234 62.4469 49.1716C62.4457 48.7154 62.1454 48.419 61.693 48.4075C60.9455 48.3883 60.198 48.4024 59.4198 48.4024ZM59.4032 71.3979C60.1954 71.3979 60.943 71.412 61.6892 71.3928C62.1415 71.3813 62.4444 71.0849 62.4457 70.6313C62.4559 68.0795 62.4546 65.5277 62.4469 62.9759C62.4457 62.5555 62.2054 62.2437 61.7914 62.222C61.003 62.1798 60.2095 62.2092 59.4032 62.2092C59.4032 65.2849 59.4032 68.3107 59.4032 71.3979ZM27.2342 39.1996C28.4315 39.1996 29.6301 39.2021 30.8274 39.1983C31.5059 39.1957 31.8331 38.8124 31.8279 38.038C31.8228 37.2828 31.5021 36.9008 30.853 36.9008C28.4098 36.8982 25.9666 36.8969 23.5221 36.9008C22.8781 36.902 22.5369 37.302 22.5306 38.0355C22.5242 38.7868 22.8743 39.1957 23.5439 39.1983C24.7744 39.2021 26.0037 39.1996 27.2342 39.1996ZM27.1614 49.1665C28.3753 49.1665 29.5892 49.1678 30.8031 49.1652C31.4995 49.164 31.8228 48.8023 31.8292 48.0293C31.8356 47.2562 31.5072 46.8677 30.8312 46.8665C28.4034 46.8639 25.9768 46.8639 23.549 46.8665C22.8768 46.8677 22.5267 47.2741 22.5318 48.0254C22.5382 48.7781 22.8832 49.1627 23.5694 49.1652C24.7655 49.1691 25.964 49.1665 27.1614 49.1665ZM27.192 59.1335C28.406 59.1335 29.6199 59.136 30.8338 59.1322C31.5072 59.1296 31.8369 58.7386 31.8292 57.9668C31.8215 57.2116 31.5021 56.836 30.8491 56.8347C28.4213 56.8321 25.9947 56.8321 23.5669 56.8347C22.8832 56.836 22.5369 57.2231 22.5318 57.9758C22.528 58.7284 22.8768 59.1309 23.5515 59.1322C24.7642 59.136 25.9781 59.1335 27.192 59.1335ZM27.2342 69.1004C28.4315 69.1004 29.6301 69.103 30.8274 69.0992C31.5059 69.0966 31.8331 68.7133 31.8279 67.9389C31.8228 67.1837 31.5021 66.8016 30.853 66.8016C28.4098 66.7991 25.9666 66.7978 23.5221 66.8016C22.8781 66.8029 22.5369 67.2029 22.5306 67.9363C22.5242 68.6877 22.8743 69.0966 23.5439 69.0992C24.7744 69.103 26.0037 69.1004 27.2342 69.1004Z" fill="#4E4B66"/>
<path d="M27.1856 70.6338C28.3663 70.6338 29.487 70.5699 30.5974 70.6466C32.9537 70.8089 33.6041 68.7145 33.2629 67.1939C32.9716 65.8982 32.1666 65.2695 30.8453 65.2683C29.6493 65.267 28.4519 65.2683 27.2201 65.2683C27.2201 63.74 27.2201 62.2335 27.2201 60.6681C27.5626 60.6681 27.9076 60.6681 28.2539 60.6681C29.1317 60.6681 30.0109 60.6707 30.8887 60.6681C32.1346 60.6643 32.9281 60.0497 33.2361 58.8357C33.4265 58.0869 33.3907 57.3445 33.0649 56.6366C32.6675 55.7728 31.9953 55.3064 31.0319 55.3039C29.7719 55.2988 28.512 55.3026 27.2176 55.3026C27.2176 53.7705 27.2176 52.2652 27.2176 50.7024C28.1248 50.7024 29.0282 50.7024 29.9329 50.7024C30.1566 50.7024 30.3814 50.6858 30.6038 50.705C32.8911 50.9018 33.5952 48.8752 33.2706 47.3009C32.9997 45.9873 32.1704 45.3382 30.8363 45.3356C29.6403 45.3343 28.4456 45.3356 27.2163 45.3356C27.2163 43.8022 27.2163 42.2957 27.2163 40.7355C28.112 40.7355 29.0001 40.7355 29.8895 40.7355C30.2409 40.7355 30.5923 40.738 30.9437 40.7355C32.0605 40.7265 32.8259 40.1848 33.1735 39.1254C33.4367 38.3243 33.4214 37.5167 33.0815 36.7398C32.6917 35.853 32.0107 35.3725 31.0242 35.3699C29.7655 35.3661 28.5056 35.3687 27.1933 35.3687C27.1933 34.2915 27.1741 33.2437 27.2035 32.1971C27.2137 31.8253 27.4923 31.6029 27.8641 31.5454C28.02 31.5212 28.1823 31.5352 28.3421 31.5352C37.7966 31.5352 47.2499 31.5352 56.7044 31.5352C57.6449 31.5352 57.8506 31.7422 57.8506 32.6904C57.8506 46.2327 57.8506 59.7749 57.8506 73.3172C57.8506 74.2615 57.6436 74.4698 56.7019 74.4698C47.2473 74.4698 37.7941 74.4698 28.3395 74.4698C27.3901 74.4698 27.1831 74.2654 27.1831 73.3249C27.1856 72.447 27.1856 71.5704 27.1856 70.6338ZM39.8156 51.8717C39.6852 51.901 39.6098 51.9228 39.5332 51.9343C38.1838 52.1387 37.0529 52.7533 36.1827 53.7986C34.7299 55.5415 34.5535 57.5579 35.071 59.6676C35.2819 60.5301 35.8479 61.2189 36.7437 61.4208C38.3895 61.7913 40.043 62.1721 41.7157 62.3651C44.8719 62.7318 47.9846 62.3574 51.0514 61.5319C52.0928 61.2521 52.8097 60.6349 53.0397 59.6139C53.2186 58.8179 53.2556 57.9732 53.2352 57.1529C53.1738 54.6931 51.4373 52.6051 49.035 52.0224C48.7948 51.9637 48.5533 51.9138 48.2951 51.855C50.2425 49.0451 49.403 45.7624 47.5936 44.2444C45.6743 42.6356 42.4709 42.6279 40.5362 44.2239C38.755 45.6934 37.8209 48.98 39.8156 51.8717Z" fill="white"/>
<path d="M59.4262 34.6007C60.184 34.6007 60.9008 34.5917 61.6189 34.6032C62.1531 34.6122 62.4482 34.9022 62.4495 35.4415C62.4572 37.9447 62.4559 40.4492 62.4495 42.9525C62.4482 43.4534 62.1786 43.7754 61.7186 43.7894C60.9583 43.8137 60.1955 43.7958 59.4262 43.7958C59.4262 40.7086 59.4262 37.661 59.4262 34.6007Z" fill="white"/>
<path d="M59.4198 48.4024C60.198 48.4024 60.9468 48.3883 61.693 48.4075C62.1454 48.419 62.4444 48.7155 62.4469 49.1716C62.4572 51.7234 62.4572 54.2752 62.4469 56.827C62.4457 57.2819 62.1454 57.5809 61.6943 57.5924C60.9468 57.6116 60.1993 57.5976 59.4198 57.5976C59.4198 54.5359 59.4198 51.4998 59.4198 48.4024Z" fill="white"/>
<path d="M59.4032 71.3979C59.4032 68.3094 59.4032 65.2848 59.4032 62.2104C60.2095 62.2104 61.003 62.181 61.7914 62.2232C62.2054 62.2449 62.4457 62.5567 62.447 62.9771C62.4546 65.5289 62.4559 68.0807 62.4457 70.6325C62.4444 71.0861 62.1416 71.3826 61.6892 71.3941C60.943 71.412 60.1954 71.3979 59.4032 71.3979Z" fill="white"/>
<path d="M27.2342 39.1996C26.0049 39.1996 24.7744 39.2022 23.5451 39.1983C22.8756 39.1958 22.5242 38.7869 22.5318 38.0355C22.5382 37.302 22.8807 36.9021 23.5234 36.9008C25.9666 36.897 28.4098 36.897 30.8542 36.9008C31.5034 36.9021 31.8241 37.2829 31.8292 38.0381C31.8343 38.8124 31.5059 39.1958 30.8287 39.1983C29.6288 39.2022 28.4315 39.1996 27.2342 39.1996Z" fill="white"/>
<path d="M27.1613 49.1666C25.964 49.1666 24.7654 49.1691 23.5681 49.1653C22.8819 49.1627 22.5369 48.7794 22.5305 48.0255C22.5242 47.2741 22.8756 46.8678 23.5477 46.8665C25.9755 46.864 28.4021 46.864 30.83 46.8665C31.5072 46.8678 31.8356 47.255 31.8279 48.0293C31.8215 48.8024 31.4983 49.164 30.8018 49.1653C29.5892 49.1679 28.3753 49.1666 27.1613 49.1666Z" fill="white"/>
<path d="M27.192 59.1335C25.9781 59.1335 24.7642 59.136 23.5502 59.1322C22.8768 59.1297 22.5267 58.7271 22.5305 57.9758C22.5344 57.2232 22.8807 56.836 23.5656 56.8347C25.9934 56.8321 28.42 56.8321 30.8478 56.8347C31.5008 56.836 31.8203 57.2117 31.8279 57.9668C31.8356 58.7399 31.5059 59.1309 30.8325 59.1322C29.6186 59.136 28.4047 59.1335 27.192 59.1335Z" fill="white"/>
<path d="M27.2342 69.1005C26.0049 69.1005 24.7744 69.103 23.5451 69.0992C22.8756 69.0966 22.5242 68.6877 22.5318 67.9364C22.5382 67.2029 22.8807 66.803 23.5234 66.8017C25.9666 66.7978 28.4098 66.7978 30.8542 66.8017C31.5034 66.803 31.8241 67.1837 31.8292 67.9389C31.8343 68.7133 31.5059 69.0979 30.8287 69.0992C29.6288 69.103 28.4315 69.1005 27.2342 69.1005Z" fill="white"/>
<path d="M39.8156 51.8716C37.8196 48.9799 38.755 45.6934 40.535 44.2252C42.4696 42.6292 45.6731 42.6369 47.5923 44.2456C49.403 45.7637 50.2425 49.0464 48.2939 51.8563C48.552 51.9151 48.7935 51.9649 49.0337 52.0237C51.4347 52.6076 53.1726 54.6943 53.2339 57.1541C53.2543 57.9745 53.2173 58.8191 53.0384 59.6152C52.8084 60.6362 52.0915 61.2533 51.0501 61.5332C47.9834 62.3587 44.8706 62.7318 41.7144 62.3663C40.043 62.1721 38.3882 61.7926 36.7424 61.422C35.8467 61.2201 35.2819 60.5314 35.0698 59.6689C34.5522 57.5592 34.7286 55.5428 36.1815 53.7999C37.0529 52.7546 38.1838 52.14 39.5319 51.9355C39.6098 51.9227 39.6852 51.901 39.8156 51.8716ZM44.0298 60.9428C46.2903 60.9224 48.5136 60.6298 50.6974 60.0356C51.2213 59.8938 51.5817 59.5845 51.6213 59.067C51.6839 58.2454 51.7529 57.4007 51.6277 56.5944C51.537 56.013 51.2354 55.3958 50.8533 54.9422C49.7979 53.6887 48.3156 53.3066 46.7464 53.1954C46.5995 53.1852 46.4398 53.267 46.2928 53.3232C44.7978 53.9021 43.3066 53.897 41.8077 53.3271C41.5789 53.2402 41.3004 53.1661 41.0717 53.2133C40.3114 53.3731 39.5319 53.5149 38.8163 53.8024C37.7097 54.2471 36.7897 55.0087 36.5533 56.2213C36.377 57.126 36.437 58.0869 36.4741 59.0197C36.4971 59.5807 36.8945 59.9014 37.4542 60.0496C39.6098 60.6247 41.8 60.9211 44.0298 60.9428ZM44.0707 52.232C46.2992 52.2269 47.8466 50.6692 47.8607 48.4164C47.8747 46.1547 46.3069 44.5676 44.0579 44.5664C41.8051 44.5651 40.2398 46.1406 40.2449 48.4049C40.2487 50.6718 41.8153 52.2371 44.0707 52.232Z" fill="#FF0282"/>
<path d="M44.0298 60.9416C41.8013 60.9212 39.6111 60.6234 37.4554 60.051C36.8958 59.9027 36.4984 59.582 36.4754 59.021C36.4383 58.0882 36.3782 57.1273 36.5546 56.2226C36.791 55.0087 37.711 54.2484 38.8176 53.8037C39.5332 53.5162 40.3126 53.3731 41.0729 53.2147C41.3017 53.1674 41.5802 53.2415 41.809 53.3284C43.3078 53.8983 44.799 53.9021 46.2941 53.3245C46.441 53.2683 46.5995 53.1865 46.7477 53.1968C48.3156 53.3079 49.7991 53.69 50.8546 54.9435C51.2367 55.3972 51.5382 56.0143 51.629 56.5958C51.7542 57.4008 51.6852 58.2454 51.6226 59.0683C51.583 59.5871 51.2213 59.8951 50.6987 60.0369C48.5124 60.6285 46.2903 60.9224 44.0298 60.9416Z" fill="white"/>
<path d="M44.0707 52.232C41.8154 52.2372 40.2487 50.6706 40.2449 48.405C40.2398 46.1407 41.8051 44.5652 44.0579 44.5664C46.3069 44.5677 47.8748 46.1548 47.8607 48.4165C47.8466 50.6693 46.2992 52.2282 44.0707 52.232Z" fill="white"/>
<path d="M61.1007 35.8313C60.6606 35.7457 60.0135 35.8909 59.9054 35.4418C59.8862 35.2995 60.1047 35.1541 60.3462 35.1795C60.8292 35.2303 61.4801 35.1136 61.6312 35.5279C61.7048 35.7208 61.4319 35.8156 61.1007 35.8313Z" fill="#FF0282"/>
<path d="M61.1007 37.4981C60.6606 37.4126 60.0135 37.5578 59.9054 37.1087C59.8862 36.9664 60.1047 36.821 60.3462 36.8464C60.8292 36.8972 61.4801 36.7805 61.6312 37.1948C61.7048 37.3877 61.4319 37.4825 61.1007 37.4981Z" fill="#FF0282"/>
<path d="M61.1007 39.243C60.6606 39.1575 60.0135 39.3027 59.9054 38.8536C59.8862 38.7113 60.1047 38.5659 60.3462 38.5913C60.8292 38.6421 61.4801 38.5254 61.6312 38.9397C61.7048 39.1326 61.4319 39.2274 61.1007 39.243Z" fill="#FF0282"/>
<path d="M61.1007 40.9284C60.6606 40.8429 60.0135 40.9881 59.9054 40.539C59.8862 40.3967 60.1047 40.2513 60.3462 40.2767C60.8292 40.3275 61.4801 40.2108 61.6312 40.6251C61.7048 40.818 61.4319 40.9128 61.1007 40.9284Z" fill="#FF0282"/>
<path d="M61.1007 42.4512C60.6606 42.3656 60.0135 42.5108 59.9054 42.0617C59.8862 41.9194 60.1047 41.774 60.3462 41.7994C60.8292 41.8502 61.4801 41.7335 61.6312 42.1478C61.7048 42.3407 61.4319 42.4355 61.1007 42.4512Z" fill="#FF0282"/>
<path d="M61.1007 49.8313C60.6606 49.7457 60.0135 49.8909 59.9054 49.4418C59.8862 49.2995 60.1047 49.1541 60.3462 49.1795C60.8292 49.2303 61.4801 49.1136 61.6312 49.5279C61.7048 49.7208 61.4319 49.8156 61.1007 49.8313Z" fill="#FF0282"/>
<path d="M61.1007 51.4981C60.6606 51.4126 60.0135 51.5578 59.9054 51.1087C59.8862 50.9664 60.1047 50.821 60.3462 50.8464C60.8292 50.8972 61.4801 50.7805 61.6312 51.1948C61.7048 51.3877 61.4319 51.4825 61.1007 51.4981Z" fill="#FF0282"/>
<path d="M61.1007 53.243C60.6606 53.1575 60.0135 53.3027 59.9054 52.8536C59.8862 52.7113 60.1047 52.5659 60.3462 52.5913C60.8292 52.6421 61.4801 52.5254 61.6312 52.9397C61.7048 53.1326 61.4319 53.2274 61.1007 53.243Z" fill="#FF0282"/>
<path d="M61.1007 54.9284C60.6606 54.8429 60.0135 54.9881 59.9054 54.539C59.8862 54.3967 60.1047 54.2513 60.3462 54.2767C60.8292 54.3275 61.4801 54.2108 61.6312 54.6251C61.7048 54.818 61.4319 54.9128 61.1007 54.9284Z" fill="#FF0282"/>
<path d="M61.1007 56.4512C60.6606 56.3656 60.0135 56.5108 59.9054 56.0617C59.8862 55.9194 60.1047 55.774 60.3462 55.7994C60.8292 55.8502 61.4801 55.7335 61.6312 56.1478C61.7048 56.3407 61.4319 56.4355 61.1007 56.4512Z" fill="#FF0282"/>
<path d="M61.1007 63.8313C60.6606 63.7457 60.0135 63.8909 59.9054 63.4418C59.8862 63.2995 60.1047 63.1541 60.3462 63.1795C60.8292 63.2303 61.4801 63.1136 61.6312 63.5279C61.7048 63.7208 61.4319 63.8156 61.1007 63.8313Z" fill="#FF0282"/>
<path d="M61.1007 65.4981C60.6606 65.4126 60.0135 65.5578 59.9054 65.1087C59.8862 64.9664 60.1047 64.821 60.3462 64.8464C60.8292 64.8972 61.4801 64.7805 61.6312 65.1948C61.7048 65.3877 61.4319 65.4825 61.1007 65.4981Z" fill="#FF0282"/>
<path d="M61.1007 67.243C60.6606 67.1575 60.0135 67.3027 59.9054 66.8536C59.8862 66.7113 60.1047 66.5659 60.3462 66.5913C60.8292 66.6421 61.4801 66.5254 61.6312 66.9397C61.7048 67.1326 61.4319 67.2274 61.1007 67.243Z" fill="#FF0282"/>
<path d="M61.1007 68.9284C60.6606 68.8429 60.0135 68.9881 59.9054 68.539C59.8862 68.3967 60.1047 68.2513 60.3462 68.2767C60.8292 68.3275 61.4801 68.2108 61.6312 68.6251C61.7048 68.818 61.4319 68.9128 61.1007 68.9284Z" fill="#FF0282"/>
<path d="M61.1007 70.4512C60.6606 70.3656 60.0135 70.5108 59.9054 70.0617C59.8862 69.9194 60.1047 69.774 60.3462 69.7994C60.8292 69.8502 61.4801 69.7335 61.6312 70.1478C61.7048 70.3407 61.4319 70.4355 61.1007 70.4512Z" fill="#FF0282"/>
<path d="M47.4569 70.8194C47.4248 70.4009 47.1672 70.1433 46.7166 70.1111C46.2659 70.079 45.9118 70.2399 45.8152 70.6906C45.6864 71.431 45.6864 72.1714 45.8152 72.9118C45.9118 73.3624 46.2659 73.5556 46.7166 73.4912C47.135 73.459 47.4248 73.2015 47.4569 72.783C47.4891 72.4289 47.4569 72.107 47.4569 71.7529C47.4569 71.4632 47.4891 71.1413 47.4569 70.8194Z" fill="#FF0282"/>
<path d="M51.7705 70.8837C51.7383 70.433 51.4808 70.1433 51.0301 70.1111C50.5151 70.0467 50.1931 70.3042 50.0966 70.7871C49.9678 71.4631 49.9678 72.1713 50.0966 72.8473C50.1931 73.3302 50.5151 73.5555 51.0301 73.5233C51.4808 73.4589 51.7383 73.2014 51.7705 72.7507C51.8027 72.461 51.7705 72.1713 51.7705 71.8816C51.7705 71.5275 51.8027 71.2056 51.7705 70.8837Z" fill="#FF0282"/>
<path d="M56.0035 70.7823C55.9714 70.3317 55.7138 70.0419 55.2631 70.0098C54.7481 69.9454 54.4262 70.2029 54.3296 70.6858C54.2008 71.3618 54.2008 72.07 54.3296 72.746C54.4262 73.2289 54.7481 73.4542 55.2631 73.422C55.7138 73.3576 55.9714 73.1001 56.0035 72.6494C56.0357 72.3597 56.0035 72.07 56.0035 71.7803C56.0035 71.4262 56.0357 71.1043 56.0035 70.7823Z" fill="#FF0282"/>
<path d="M43.1434 71.8172C43.1434 71.4953 43.1756 71.1734 43.1434 70.8515C43.1112 70.3364 42.7893 70.0789 42.3064 70.1111C41.7914 70.1111 41.5017 70.4008 41.5017 70.8837C41.4695 71.4953 41.4695 72.1069 41.5017 72.7186C41.5338 73.2014 41.7914 73.4911 42.3064 73.5233C42.8537 73.5233 43.1434 73.2336 43.1756 72.7186C43.1756 72.3967 43.1756 72.1069 43.1434 71.8172Z" fill="#FF0282"/>
<path d="M34.7705 70.8837C34.7383 70.433 34.4808 70.1433 34.0301 70.1111C33.5151 70.0467 33.1931 70.3042 33.0966 70.7871C32.9678 71.4631 32.9678 72.1713 33.0966 72.8473C33.1931 73.3302 33.5151 73.5555 34.0301 73.5233C34.4808 73.4589 34.7383 73.2014 34.7705 72.7507C34.8027 72.461 34.7705 72.1713 34.7705 71.8816C34.7705 71.5275 34.8027 71.2056 34.7705 70.8837Z" fill="#FF0282"/>
<path d="M39.0035 70.7823C38.9714 70.3317 38.7138 70.0419 38.2631 70.0098C37.7481 69.9454 37.4262 70.2029 37.3296 70.6858C37.2008 71.3618 37.2008 72.07 37.3296 72.746C37.4262 73.2289 37.7481 73.4542 38.2631 73.422C38.7138 73.3576 38.9714 73.1001 39.0035 72.6494C39.0357 72.3597 39.0035 72.07 39.0035 71.7803C39.0035 71.4262 39.0357 71.1043 39.0035 70.7823Z" fill="#FF0282"/>
</svg>
