<svg width="11" height="11" viewBox="0 0 11 11" fill="none" xmlns="http://www.w3.org/2000/svg">
<path d="M9.14735 2.0155C8.17262 1.078 6.87453 0.562378 5.49502 0.562378C2.6476 0.562378 0.330577 2.78559 0.330577 5.51774C0.330577 6.3905 0.567862 7.24318 1.01917 7.99541L0.286377 10.5624L3.02446 9.87265C3.77819 10.2677 4.6273 10.4753 5.4927 10.4753H5.49502C8.34012 10.4753 10.7083 8.25211 10.7083 5.51997C10.7083 4.19631 10.1221 2.953 9.14735 2.0155ZM5.49502 9.6405C4.72268 9.6405 3.96662 9.44184 3.30827 9.06684L3.15241 8.97756L1.52864 9.38604L1.96133 7.86595L1.85897 7.7097C1.4286 7.05345 1.20295 6.29675 1.20295 5.51774C1.20295 3.24765 3.12915 1.39943 5.49735 1.39943C6.64423 1.39943 7.72132 1.828 8.53088 2.60702C9.34044 3.38604 9.83827 4.41952 9.83595 5.51997C9.83595 7.79229 7.8609 9.6405 5.49502 9.6405ZM7.84926 6.55568C7.72132 6.49318 7.08623 6.19407 6.96759 6.1539C6.84894 6.11149 6.76287 6.0914 6.6768 6.2164C6.59072 6.3414 6.34413 6.61818 6.26736 6.703C6.19292 6.78559 6.11615 6.79675 5.9882 6.73425C5.22982 6.37041 4.73199 6.0847 4.23183 5.26104C4.09923 5.04229 4.36443 5.05791 4.61102 4.5847C4.65289 4.50211 4.63195 4.43068 4.59939 4.36818C4.56682 4.30568 4.3086 3.69631 4.20158 3.44854C4.0969 3.20747 3.98989 3.24095 3.91079 3.23649C3.83635 3.23202 3.75028 3.23202 3.6642 3.23202C3.57813 3.23202 3.43855 3.26327 3.31991 3.38604C3.20126 3.51104 2.8686 3.81015 2.8686 4.41952C2.8686 5.0289 3.33154 5.61818 3.39435 5.70077C3.45949 5.78336 4.30394 7.03336 5.59971 7.57131C6.41857 7.91059 6.73961 7.93961 7.14904 7.88157C7.39796 7.84586 7.91207 7.58247 8.01909 7.29229C8.1261 7.00211 8.1261 6.75434 8.09353 6.703C8.06329 6.6472 7.97721 6.61595 7.84926 6.55568Z" fill="current"/>
</svg>
