<svg width="33" height="32" viewBox="0 0 33 32" fill="none" xmlns="http://www.w3.org/2000/svg">
<ellipse cx="15.6706" cy="9.70421" rx="6.44311" ry="6.37071" stroke="#A0A3BD" stroke-width="2.5" stroke-linecap="round" stroke-linejoin="round"/>
<path fill-rule="evenodd" clip-rule="evenodd" d="M5.45022 24.9354C5.44849 24.4876 5.54979 24.0452 5.74645 23.6417C6.36361 22.4213 8.10399 21.7745 9.54813 21.4816C10.5896 21.2618 11.6455 21.115 12.708 21.0422C14.675 20.8714 16.6533 20.8714 18.6203 21.0422C19.6827 21.1158 20.7385 21.2626 21.7802 21.4816C23.2243 21.7745 24.9647 22.3603 25.5818 23.6417C25.9773 24.4641 25.9773 25.4189 25.5818 26.2413C24.9647 27.5227 23.2243 28.1086 21.7802 28.3893C20.7399 28.6181 19.6836 28.7691 18.6203 28.8408C17.0193 28.975 15.4109 28.9995 13.8065 28.914C13.4362 28.914 13.0783 28.914 12.708 28.8408C11.6487 28.77 10.5964 28.619 9.56047 28.3893C8.10399 28.1086 6.37595 27.5227 5.74645 26.2413C5.55079 25.8332 5.44959 25.3871 5.45022 24.9354Z" stroke="#A0A3BD" stroke-width="2.5" stroke-linecap="round" stroke-linejoin="round"/>
</svg>
