<svg width="32" height="32" viewBox="0 0 32 32" fill="none" xmlns="http://www.w3.org/2000/svg">
<path d="M23.46 14.5759C25.5964 14.5759 27.3295 12.844 27.3295 10.7076C27.3295 8.57112 25.5964 6.83923 23.46 6.83923" stroke="#A0A3BD" stroke-width="2.5" stroke-linecap="round" stroke-linejoin="round"/>
<path d="M25.2383 18.7797C25.8763 18.8237 26.5106 18.9141 27.1352 19.0547C28.0029 19.2246 29.0467 19.5802 29.4183 20.3588C29.6554 20.8574 29.6554 21.438 29.4183 21.9379C29.0479 22.7164 28.0029 23.0709 27.1352 23.2493" stroke="#A0A3BD" stroke-width="2.5" stroke-linecap="round" stroke-linejoin="round"/>
<path d="M8.38616 14.5759C6.24971 14.5759 4.5166 12.844 4.5166 10.7076C4.5166 8.57112 6.24971 6.83923 8.38616 6.83923" stroke="#A0A3BD" stroke-width="2.5" stroke-linecap="round" stroke-linejoin="round"/>
<path d="M6.60753 18.7797C5.96953 18.8237 5.33519 18.9141 4.71064 19.0547C3.84286 19.2246 2.79908 19.5802 2.42875 20.3588C2.19042 20.8574 2.19042 21.438 2.42875 21.9379C2.79786 22.7164 3.84286 23.0709 4.71064 23.2493" stroke="#A0A3BD" stroke-width="2.5" stroke-linecap="round" stroke-linejoin="round"/>
<path fill-rule="evenodd" clip-rule="evenodd" d="M15.9172 19.6128C20.2463 19.6128 23.9448 20.2679 23.9448 22.8896C23.9448 25.51 20.2708 26.1896 15.9172 26.1896C11.5869 26.1896 7.88965 25.5345 7.88965 22.9128C7.88965 20.2911 11.5636 19.6128 15.9172 19.6128Z" stroke="#A0A3BD" stroke-width="2.5" stroke-linecap="round" stroke-linejoin="round"/>
<path fill-rule="evenodd" clip-rule="evenodd" d="M15.9168 15.8733C13.0617 15.8733 10.7725 13.584 10.7725 10.7277C10.7725 7.8726 13.0617 5.58337 15.9168 5.58337C18.7719 5.58337 21.0611 7.8726 21.0611 10.7277C21.0611 13.584 18.7719 15.8733 15.9168 15.8733Z" stroke="#A0A3BD" stroke-width="2.5" stroke-linecap="round" stroke-linejoin="round"/>
</svg>
