<svg width="151" height="129" viewBox="0 0 151 129" fill="none" xmlns="http://www.w3.org/2000/svg">
<g clip-path="url(#clip0)">
<path d="M75.1 128.5C53.2 128.5 31.3 128.5 9.3 128.5C3.2 128.5 0 125.4 0 119.4C0 82.7 0 45.9 0 9.1C0 3.1 3.3 0 9.3 0C53.1 0 97 0 140.8 0C146.9 0 150.1 3.1 150.1 9.1C150.1 45.9 150.1 82.6 150.1 119.4C150.1 125.4 146.9 128.5 140.8 128.5C118.9 128.5 97 128.5 75.1 128.5ZM75 5.4C53.2 5.4 31.3 5.4 9.5 5.4C6.2 5.4 5.5 6.1 5.4 9.5C5.4 14.3 5.5 19.1 5.3 23.9C5.2 26.1 5.7 26.8 8.1 26.8C43.1 26.7 78 26.7 113 26.7C113.9 26.7 114.8 26.7 115.7 26.8C117 27 117.7 27.9 117.8 29.2C117.9 30.5 117.3 31.4 116 31.9C115 32.3 113.9 32.2 112.8 32.2C77.8 32.2 42.9 32.2 7.9 32.1C5.7 32.1 5.2 32.6 5.2 34.8C5.3 62.8 5.3 90.7 5.3 118.7C5.3 122.3 6 123 9.7 123C53.3 123 96.9 123 140.5 123C144 123 144.7 122.3 144.7 118.8C144.7 82.4 144.7 45.9 144.7 9.5C144.7 6 144 5.4 140.4 5.4C118.6 5.4 96.8 5.4 75 5.4Z" fill="#A0A3BD"/>
<path d="M74.9998 5.3999C96.7998 5.3999 118.7 5.3999 140.5 5.3999C144 5.3999 144.8 6.0999 144.8 9.4999C144.8 45.8999 144.8 82.3999 144.8 118.8C144.8 122.3 144.1 123 140.6 123C96.9998 123 53.3998 123 9.7998 123C6.0998 123 5.3998 122.3 5.3998 118.7C5.3998 90.6999 5.3998 62.7999 5.2998 34.7999C5.2998 32.5999 5.7998 32.0999 7.9998 32.0999C42.9998 32.1999 77.8998 32.1999 112.9 32.1999C114 32.1999 115.1 32.2999 116.1 31.8999C117.4 31.3999 118 30.4999 117.9 29.1999C117.8 27.8999 117.1 26.9999 115.8 26.7999C114.9 26.6999 114 26.6999 113.1 26.6999C78.0998 26.6999 43.1998 26.6999 8.1998 26.7999C5.7998 26.7999 5.2998 26.0999 5.3998 23.8999C5.5998 19.0999 5.3998 14.2999 5.4998 9.4999C5.4998 6.0999 6.1998 5.3999 9.5998 5.3999C31.2998 5.3999 53.0998 5.3999 74.9998 5.3999ZM72.1998 112.5C87.9998 112.5 103.7 112.5 119.5 112.5C121.5 112.5 123.2 112 123.2 109.8C123.2 107.6 121.6 107 119.6 107C116.4 107.1 113.3 106.8 110.1 107.1C107.4 107.3 107.1 106.3 107.1 104C107.2 90.2999 107.2 76.5999 107.1 62.8999C107.1 59.5999 106.3 58.7999 103 58.7999C99.7998 58.7999 96.4998 58.6999 93.2998 58.7999C91.4998 58.8999 90.7998 58.4999 90.8998 56.4999C91.0998 53.0999 90.9998 49.6999 90.8998 46.2999C90.8998 43.5999 90.0998 42.6999 87.3998 42.6999C82.8998 42.6999 78.3998 42.6999 73.9998 42.6999C70.1998 42.6999 69.4998 43.2999 69.4998 47.0999C69.4998 59.1999 69.4998 71.2999 69.4998 83.3999C69.4998 84.8999 69.2998 85.5999 67.4998 85.4999C65.1998 85.2999 62.8998 85.3999 60.4998 85.4999C59.1998 85.4999 58.6998 85.1999 58.7998 83.8999C58.8998 82.0999 58.8998 80.2999 58.7998 78.3999C58.7998 75.6999 57.8998 74.7999 55.1998 74.7999C50.5998 74.7999 45.8998 74.7999 41.2998 74.7999C37.9998 74.7999 37.3998 75.3999 37.2998 78.6999C37.2998 87.2999 37.1998 95.9999 37.3998 104.6C37.3998 106.7 36.7998 107.1 34.8998 107C31.2998 106.9 27.7998 107 24.1998 107C22.8998 107 21.8998 107.4 21.4998 108.7C21.0998 109.8 21.2998 110.8 22.1998 111.7C23.0998 112.6 24.2998 112.5 25.4998 112.5C41.1998 112.5 56.6998 112.5 72.1998 112.5ZM131.4 26.7999C129.6 26.7999 127.8 26.7999 125.9 26.7999C124.4 26.7999 123.4 27.5999 123.2 29.1999C123.1 30.8999 123.9 31.9999 125.6 32.0999C129.3 32.1999 133 32.1999 136.8 32.0999C138.4 31.9999 139.4 30.8999 139.2 29.2999C139.1 27.5999 138 26.8999 136.3 26.8999C134.8 26.7999 133.1 26.7999 131.4 26.7999ZM18.7998 16.0999C18.7998 15.2999 18.7998 14.3999 18.7998 13.5999C18.7998 11.8999 17.9998 10.8999 16.3998 10.7999C14.6998 10.6999 13.6998 11.5999 13.4998 13.1999C13.2998 15.1999 13.2998 17.1999 13.4998 19.0999C13.6998 20.5999 14.6998 21.4999 16.2998 21.3999C17.7998 21.2999 18.6998 20.3999 18.7998 18.7999C18.7998 17.8999 18.7998 16.9999 18.7998 16.0999ZM32.1998 15.9999C32.1998 15.0999 32.1998 14.1999 32.1998 13.2999C32.0998 11.6999 31.1998 10.8999 29.6998 10.7999C28.1998 10.6999 27.0998 11.5999 26.8998 13.0999C26.6998 15.0999 26.6998 17.2999 26.8998 19.2999C27.0998 20.6999 28.1998 21.6999 29.6998 21.4999C31.1998 21.2999 32.0998 20.3999 32.1998 18.8999C32.1998 17.8999 32.1998 16.8999 32.1998 15.9999ZM58.9998 16.0999C58.9998 15.2999 59.0998 14.3999 58.9998 13.5999C58.8998 11.8999 57.9998 10.6999 56.1998 10.7999C54.3998 10.7999 53.4998 11.8999 53.5998 13.6999C53.5998 15.3999 53.5998 16.9999 53.5998 18.6999C53.5998 20.3999 54.5998 21.3999 56.1998 21.3999C57.8998 21.4999 58.7998 20.3999 58.9998 18.7999C59.0998 17.8999 58.9998 16.9999 58.9998 16.0999ZM66.9998 16.1999C66.9998 17.0999 66.8998 17.9999 66.9998 18.8999C67.0998 20.3999 67.9998 21.2999 69.4998 21.3999C70.8998 21.4999 71.9998 20.6999 72.1998 19.2999C72.5998 17.0999 72.5998 14.7999 72.1998 12.5999C71.8998 11.1999 70.7998 10.4999 69.3998 10.6999C67.9998 10.7999 67.0998 11.5999 66.9998 13.0999C66.9998 14.1999 67.0998 15.1999 66.9998 16.1999ZM125.9 16.0999C125.9 15.2999 125.9 14.3999 125.9 13.5999C125.9 11.8999 125.1 10.8999 123.5 10.7999C121.8 10.6999 120.8 11.5999 120.6 13.1999C120.4 15.1999 120.4 17.1999 120.6 19.0999C120.8 20.5999 121.8 21.4999 123.4 21.3999C124.9 21.2999 125.8 20.3999 125.9 18.7999C125.9 17.8999 125.9 16.9999 125.9 16.0999ZM139.3 15.9999C139.3 15.0999 139.3 14.1999 139.3 13.2999C139.2 11.6999 138.3 10.8999 136.8 10.7999C135.3 10.6999 134.2 11.5999 134 13.0999C133.8 15.0999 133.8 17.2999 134 19.2999C134.2 20.6999 135.3 21.6999 136.8 21.4999C138.3 21.2999 139.2 20.3999 139.3 18.8999C139.4 17.8999 139.3 16.8999 139.3 15.9999ZM40.1998 15.8999C40.1998 16.8999 40.0998 17.8999 40.1998 18.8999C40.3998 20.3999 41.2998 21.2999 42.7998 21.3999C44.3998 21.3999 45.3998 20.4999 45.4998 18.9999C45.6998 16.9999 45.6998 14.9999 45.4998 12.9999C45.3998 11.4999 44.2998 10.5999 42.7998 10.6999C41.2998 10.6999 40.2998 11.5999 40.1998 13.1999C40.0998 14.0999 40.1998 14.9999 40.1998 15.8999ZM80.4998 15.8999C80.4998 16.9999 80.3998 18.0999 80.4998 19.0999C80.6998 20.4999 81.5998 21.2999 82.9998 21.2999C84.2998 21.2999 85.2998 20.6999 85.5998 19.3999C85.9998 17.0999 85.9998 14.7999 85.5998 12.4999C85.2998 11.0999 84.1998 10.4999 82.7998 10.5999C81.4998 10.6999 80.5998 11.3999 80.4998 12.7999C80.3998 13.9999 80.4998 14.9999 80.4998 15.8999ZM112.5 15.9999C112.5 15.1999 112.5 14.2999 112.5 13.4999C112.5 11.7999 111.6 10.7999 110 10.6999C108.3 10.5999 107.3 11.5999 107.2 13.1999C107.1 15.1999 107.1 17.1999 107.3 19.0999C107.4 20.5999 108.6 21.3999 110.1 21.2999C111.5 21.1999 112.4 20.2999 112.5 18.8999C112.5 17.9999 112.5 16.9999 112.5 15.9999ZM99.1998 16.2999H99.0998C99.0998 15.1999 99.1998 14.1999 99.0998 13.0999C98.9998 11.4999 97.8998 10.7999 96.3998 10.7999C94.9998 10.7999 93.9998 11.5999 93.8998 12.9999C93.7998 15.0999 93.7998 17.0999 93.8998 19.1999C93.9998 20.5999 94.9998 21.3999 96.3998 21.3999C97.7998 21.3999 98.7998 20.6999 98.9998 19.2999C99.1998 18.2999 99.0998 17.2999 99.1998 16.2999Z" fill="#FEFEFE"/>
<path d="M72.1998 112.5C56.6998 112.5 41.1998 112.5 25.5998 112.5C24.3998 112.5 23.1998 112.6 22.2998 111.7C21.3998 110.9 21.1998 109.9 21.5998 108.7C22.0998 107.4 23.0998 107 24.2998 107C27.8998 107 31.3998 106.9 34.9998 107C36.8998 107.1 37.4998 106.7 37.4998 104.6C37.3998 96.0002 37.3998 87.3002 37.3998 78.7002C37.3998 75.4002 37.9998 74.8002 41.3998 74.8002C45.9998 74.8002 50.6998 74.8002 55.2998 74.8002C57.9998 74.8002 58.7998 75.7002 58.8998 78.4002C58.8998 80.2002 58.9998 82.1002 58.8998 83.9002C58.7998 85.3002 59.2998 85.6002 60.5998 85.5002C62.8998 85.4002 65.2998 85.3002 67.5998 85.5002C69.3998 85.6002 69.5998 84.9002 69.5998 83.4002C69.4998 71.3002 69.5998 59.2002 69.5998 47.1002C69.5998 43.3002 70.2998 42.7002 74.0998 42.7002C78.5998 42.7002 83.0998 42.7002 87.4998 42.7002C90.1998 42.7002 90.9998 43.5002 90.9998 46.3002C90.9998 49.7002 91.0998 53.1002 90.9998 56.5002C90.8998 58.5002 91.5998 58.8002 93.3998 58.8002C96.5998 58.7002 99.8998 58.8002 103.1 58.8002C106.4 58.8002 107.2 59.6002 107.2 62.9002C107.2 76.6002 107.3 90.3002 107.2 104C107.2 106.3 107.5 107.4 110.2 107.1C113.3 106.8 116.5 107.1 119.7 107C121.7 106.9 123.3 107.6 123.3 109.8C123.3 112 121.6 112.5 119.6 112.5C103.8 112.5 87.9998 112.5 72.1998 112.5ZM85.6998 77.7002C85.6998 68.5002 85.6998 59.3002 85.6998 50.1002C85.6998 48.8002 85.4998 48.2002 83.9998 48.2002C81.4998 48.3002 78.9998 48.3002 76.4998 48.2002C75.2998 48.2002 74.9998 48.6002 74.9998 49.7002C74.9998 68.3002 74.9998 86.9002 74.9998 105.4C74.9998 106.8 75.4998 107 76.6998 107C78.9998 106.9 81.3998 106.9 83.6998 107C85.2998 107.1 85.7998 106.6 85.7998 105C85.6998 96.0002 85.6998 86.9002 85.6998 77.7002ZM101.9 85.7002C101.9 81.5002 101.9 77.2002 101.9 73.0002C101.9 70.2002 101.8 67.4002 101.8 64.6002C98.8998 63.9002 95.8998 64.5002 92.8998 64.3002C92.7998 64.3002 92.6998 64.3002 92.6998 64.3002C91.4998 64.1002 91.0998 64.6002 91.0998 65.8002C91.0998 79.1002 91.0998 92.3002 91.0998 105.6C91.0998 106.8 91.4998 107.2 92.6998 107.1C95.0998 107 97.4998 107 99.8998 107.1C101.5 107.2 102 106.7 102 105.1C101.8 98.6002 101.9 92.2002 101.9 85.7002ZM53.5998 93.8002C53.5998 89.8002 53.5998 85.8002 53.5998 81.8002C53.5998 80.7002 53.3998 80.2002 52.0998 80.2002C49.5998 80.3002 47.0998 80.3002 44.5998 80.2002C43.2998 80.2002 42.8998 80.5002 42.8998 81.9002C42.8998 89.8002 42.9998 97.7002 42.8998 105.6C42.8998 106.8 43.1998 107.2 44.3998 107.1C46.8998 107 49.3998 107 51.8998 107.1C53.3998 107.2 53.5998 106.5 53.5998 105.2C53.5998 101.5 53.5998 97.7002 53.5998 93.8002ZM69.5998 99.6002C69.5998 97.0002 69.4998 94.8002 69.5998 92.7002C69.5998 91.6002 69.3998 91.1002 68.0998 91.1002C65.5998 91.2002 63.0998 91.2002 60.5998 91.1002C59.3998 91.0002 58.9998 91.5002 58.9998 92.8002C59.0998 96.7002 59.1998 100.6 58.9998 104.5C58.8998 106.6 59.3998 107.4 61.5998 107.2C64.0998 106.9 67.5998 108.1 68.9998 106.8C70.6998 105.3 69.3998 101.7 69.5998 99.6002Z" fill="#A0A3BD"/>
<path d="M131.4 26.8002C133.1 26.8002 134.7 26.8002 136.4 26.8002C138 26.8002 139.1 27.6002 139.3 29.2002C139.4 30.9002 138.5 32.0002 136.9 32.0002C133.2 32.1002 129.5 32.1002 125.7 32.0002C124.1 31.9002 123.2 30.8002 123.3 29.1002C123.4 27.5002 124.4 26.8002 126 26.7002C127.8 26.8002 129.6 26.8002 131.4 26.8002Z" fill="#A0A3BD"/>
<path d="M18.7996 16.0998C18.7996 16.9998 18.7996 17.8998 18.7996 18.7998C18.6996 20.3998 17.7996 21.2998 16.2996 21.3998C14.6996 21.4998 13.6996 20.5998 13.4996 19.0998C13.2996 17.0998 13.2996 15.0998 13.4996 13.1998C13.5996 11.5998 14.6996 10.5998 16.3996 10.7998C17.9996 10.8998 18.8996 11.9998 18.7996 13.5998C18.7996 14.3998 18.7996 15.2998 18.7996 16.0998Z" fill="#A0A3BD"/>
<path d="M32.2 15.9998C32.2 16.8998 32.2 17.7998 32.2 18.6998C32.1 20.1998 31.2 21.1998 29.7 21.2998C28.1 21.4998 27 20.4998 26.9 19.0998C26.7 17.0998 26.7 14.9998 26.9 12.8998C27 11.3998 28.1 10.4998 29.7 10.5998C31.2 10.6998 32.1 11.5998 32.2 13.0998C32.2 14.1998 32.2 15.0998 32.2 15.9998Z" fill="#A0A3BD"/>
<path d="M58.9996 16.0998C58.9996 16.9998 59.0996 17.8998 58.9996 18.7998C58.7996 20.3998 57.8996 21.4998 56.1996 21.3998C54.5996 21.2998 53.5996 20.2998 53.5996 18.6998C53.5996 16.9998 53.5996 15.3998 53.5996 13.6998C53.5996 11.8998 54.4996 10.7998 56.1996 10.7998C57.9996 10.7998 58.8996 11.8998 58.9996 13.5998C59.0996 14.3998 58.9996 15.2998 58.9996 16.0998Z" fill="#A0A3BD"/>
<path d="M67 16.2002C67 15.2002 67 14.2002 67 13.2002C67.1 11.7002 68 10.9002 69.4 10.8002C70.8 10.7002 71.9 11.3002 72.2 12.7002C72.7 14.9002 72.6 17.1002 72.2 19.4002C72 20.8002 71 21.6002 69.5 21.5002C68 21.4002 67.1 20.5002 67 19.0002C67 18.0002 67 17.1002 67 16.2002Z" fill="#A0A3BD"/>
<path d="M125.9 16.0998C125.9 16.9998 125.9 17.8998 125.9 18.7998C125.8 20.3998 124.9 21.2998 123.4 21.3998C121.8 21.4998 120.8 20.5998 120.6 19.0998C120.4 17.0998 120.4 15.0998 120.6 13.1998C120.7 11.5998 121.8 10.5998 123.5 10.7998C125.1 10.8998 126 11.9998 125.9 13.5998C125.9 14.3998 125.9 15.2998 125.9 16.0998Z" fill="#A0A3BD"/>
<path d="M139.3 15.9998C139.3 16.8998 139.3 17.7998 139.3 18.6998C139.2 20.1998 138.3 21.1998 136.8 21.2998C135.2 21.4998 134.1 20.4998 134 19.0998C133.8 17.0998 133.8 14.9998 134 12.8998C134.1 11.3998 135.2 10.4998 136.8 10.5998C138.3 10.6998 139.2 11.5998 139.3 13.0998C139.4 14.1998 139.3 15.0998 139.3 15.9998Z" fill="#A0A3BD"/>
<path d="M40.1997 15.9002C40.1997 15.0002 40.0997 14.1002 40.1997 13.2002C40.3997 11.7002 41.2997 10.8002 42.7997 10.7002C44.2997 10.7002 45.3997 11.5002 45.4997 13.0002C45.6997 15.0002 45.6997 17.0002 45.4997 19.0002C45.3997 20.5002 44.2997 21.4002 42.7997 21.4002C41.2997 21.4002 40.3997 20.4002 40.1997 18.9002C40.0997 17.9002 40.1997 16.9002 40.1997 15.9002Z" fill="#A0A3BD"/>
<path d="M80.4995 15.8998C80.4995 14.8998 80.3995 13.8998 80.4995 12.8998C80.5995 11.4998 81.4995 10.7998 82.7995 10.6998C84.1995 10.5998 85.2995 11.0998 85.5995 12.5998C85.9995 14.8998 85.9995 17.1998 85.5995 19.4998C85.2995 20.7998 84.2995 21.3998 82.9995 21.3998C81.5995 21.2998 80.6995 20.5998 80.4995 19.1998C80.3995 18.0998 80.4995 16.9998 80.4995 15.8998Z" fill="#A0A3BD"/>
<path d="M112.5 15.9998C112.5 16.9998 112.6 17.9998 112.5 18.9998C112.4 20.3998 111.5 21.2998 110.1 21.3998C108.6 21.4998 107.4 20.6998 107.3 19.1998C107.1 17.1998 107.1 15.1998 107.2 13.2998C107.3 11.6998 108.3 10.6998 110 10.7998C111.6 10.8998 112.5 11.8998 112.5 13.5998C112.5 14.3998 112.5 15.1998 112.5 15.9998Z" fill="#A0A3BD"/>
<path d="M99.2002 16.2998C99.2002 17.2998 99.2002 18.2998 99.0002 19.2998C98.8002 20.6998 97.8002 21.4998 96.4002 21.3998C95.0002 21.3998 94.0002 20.5998 93.9002 19.1998C93.8002 17.0998 93.8002 15.0998 93.9002 12.9998C94.0002 11.4998 95.0002 10.7998 96.4002 10.7998C97.9002 10.7998 98.9002 11.4998 99.1002 13.0998C99.2002 14.1998 99.1002 15.1998 99.1002 16.2998C99.1002 16.2998 99.1002 16.2998 99.2002 16.2998Z" fill="#A0A3BD"/>
<path d="M85.7004 77.6999C85.7004 86.7999 85.7004 95.9999 85.7004 105.1C85.7004 106.7 85.3004 107.2 83.6004 107.1C81.3004 107 79.0004 107 76.6004 107.1C75.4004 107.1 74.9004 106.9 74.9004 105.5C75.0004 86.8999 74.9004 68.2999 74.9004 49.7999C74.9004 48.5999 75.2004 48.1999 76.4004 48.2999C78.9004 48.3999 81.4004 48.3999 83.9004 48.2999C85.4004 48.1999 85.6004 48.8999 85.6004 50.1999C85.7004 59.2999 85.7004 68.4999 85.7004 77.6999Z" fill="white"/>
<path d="M101.9 85.6999C101.9 92.1999 101.8 98.5999 101.9 105.1C101.9 106.7 101.5 107.2 99.8 107.1C97.4 107 95 107 92.6 107.1C91.4 107.1 91 106.8 91 105.6C91 92.2999 91 79.0999 91 65.7999C91 64.5999 91.4 64.0999 92.6 64.2999C92.7 64.2999 92.8 64.2999 92.8 64.2999C95.7 64.4999 98.7 63.8999 101.7 64.5999C101.7 67.3999 101.8 70.1999 101.8 72.9999C101.9 77.1999 101.9 81.4999 101.9 85.6999Z" fill="#FAF9FA"/>
<path d="M53.6005 93.7998C53.6005 97.5998 53.6005 101.4 53.6005 105.3C53.6005 106.6 53.4005 107.2 51.9005 107.2C49.4005 107.1 46.9005 107.1 44.4005 107.2C43.2005 107.2 42.8005 106.9 42.9005 105.7C43.0005 97.7998 43.0005 89.8998 42.9005 81.9998C42.9005 80.6998 43.4005 80.2998 44.6005 80.2998C47.1005 80.3998 49.6005 80.3998 52.1005 80.2998C53.4005 80.2998 53.6005 80.7998 53.6005 81.8998C53.6005 85.8998 53.6005 89.8998 53.6005 93.7998Z" fill="#FEFEFE"/>
<path d="M69.5998 99.6C69.3998 101.8 70.6998 105.3 69.0998 106.7C67.5998 108 64.1998 106.9 61.6998 107.1C59.3998 107.3 58.9998 106.5 59.0998 104.4C59.2998 100.5 59.1998 96.6 59.0998 92.7C59.0998 91.4 59.3998 91 60.7998 91C63.2998 91.1 65.7998 91.1 68.2998 91C69.5998 91 69.7998 91.4 69.7998 92.6C69.5998 94.8 69.5998 97 69.5998 99.6Z" fill="white"/>
</g>
<defs>
<clipPath id="clip0">
<rect width="150.1" height="128.5" fill="white"/>
</clipPath>
</defs>
</svg>
