<svg width="32" height="32" viewBox="0 0 32 32" fill="none" xmlns="http://www.w3.org/2000/svg">
<path fill-rule="evenodd" clip-rule="evenodd" d="M10.2602 17.8539C9.40056 17.8539 8.70215 17.1555 8.70215 16.2958C8.70215 15.4386 9.40056 14.7402 10.2602 14.7402C11.1199 14.7402 11.8183 15.4386 11.8183 16.2958C11.8183 17.1555 11.1199 17.8539 10.2602 17.8539ZM16.3174 17.8539C15.4577 17.8539 14.7593 17.1555 14.7593 16.2958C14.7593 15.4386 15.4577 14.7402 16.3174 14.7402C17.1771 14.7402 17.8755 15.4386 17.8755 16.2958C17.8755 17.1555 17.1771 17.8539 16.3174 17.8539ZM20.8166 16.2958C20.8166 17.1555 21.515 17.8539 22.3747 17.8539C23.2344 17.8539 23.9328 17.1555 23.9328 16.2958C23.9328 15.4386 23.2344 14.7402 22.3747 14.7402C21.515 14.7402 20.8166 15.4386 20.8166 16.2958Z" fill="#FF0282"/>
<path fill-rule="evenodd" clip-rule="evenodd" d="M16.027 2.66602C8.28033 2.66602 2.66699 8.99417 2.66699 16.0194C2.66699 18.2627 3.32033 20.5715 4.46699 22.6814C4.68033 23.0299 4.70699 23.4692 4.56033 23.8845L3.66699 26.8757C3.46699 27.5967 4.08033 28.1295 4.76033 27.9159L7.45366 27.116C8.18699 26.8757 8.76033 27.1815 9.44033 27.5967C11.387 28.7438 13.8137 29.3327 16.0003 29.3327C22.6137 29.3327 29.3337 24.2183 29.3337 15.9793C29.3337 8.874 23.6003 2.66602 16.027 2.66602Z" stroke="#FF0282" stroke-width="1.5" stroke-linecap="round" stroke-linejoin="round"/>
</svg>
