<svg width="30" height="30" viewBox="0 0 30 30" fill="none" xmlns="http://www.w3.org/2000/svg">
<path fill-rule="evenodd" clip-rule="evenodd" d="M9.26024 16.8545C8.40056 16.8545 7.70215 16.1561 7.70215 15.2964C7.70215 14.4393 8.40056 13.7408 9.26024 13.7408C10.1199 13.7408 10.8183 14.4393 10.8183 15.2964C10.8183 16.1561 10.1199 16.8545 9.26024 16.8545ZM15.3174 16.8545C14.4577 16.8545 13.7593 16.1561 13.7593 15.2964C13.7593 14.4393 14.4577 13.7408 15.3174 13.7408C16.1771 13.7408 16.8755 14.4393 16.8755 15.2964C16.8755 16.1561 16.1771 16.8545 15.3174 16.8545ZM19.8166 15.2964C19.8166 16.1561 20.515 16.8545 21.3747 16.8545C22.2344 16.8545 22.9328 16.1561 22.9328 15.2964C22.9328 14.4393 22.2344 13.7408 21.3747 13.7408C20.515 13.7408 19.8166 14.4393 19.8166 15.2964Z" fill="white"/>
<path fill-rule="evenodd" clip-rule="evenodd" d="M15.027 1.66663C7.28033 1.66663 1.66699 7.99478 1.66699 15.02C1.66699 17.2634 2.32033 19.5722 3.46699 21.682C3.68033 22.0305 3.70699 22.4698 3.56033 22.8851L2.66699 25.8763C2.46699 26.5974 3.08033 27.1302 3.76033 26.9165L6.45366 26.1166C7.18699 25.8763 7.76033 26.1821 8.44033 26.5974C10.387 27.7444 12.8137 28.3333 15.0003 28.3333C21.6137 28.3333 28.3337 23.219 28.3337 14.9799C28.3337 7.87461 22.6003 1.66663 15.027 1.66663Z" stroke="white" stroke-width="2" stroke-linecap="round" stroke-linejoin="round"/>
</svg>
