<svg width="38" height="38" viewBox="0 0 38 38" fill="none" xmlns="http://www.w3.org/2000/svg">
<path d="M17.8125 25.7595C17.8125 25.104 18.3445 24.5625 19 24.5625C19.6555 24.5625 20.1875 25.0866 20.1875 25.7421V25.7595C20.1875 26.415 19.6555 26.947 19 26.947C18.3445 26.947 17.8125 26.415 17.8125 25.7595Z" fill="#4E4B66"/>
<path d="M7.59297 32.3285H30.5228C32.3389 32.2335 33.7354 30.6865 33.642 28.8705C33.6214 28.5031 33.5422 28.1405 33.4029 27.8017L21.881 7.63638C21.0006 6.04513 18.9977 5.4688 17.4065 6.35071C16.865 6.64838 16.4185 7.09488 16.1192 7.63638L4.5973 27.8017C3.9133 29.4864 4.72397 31.4054 6.40705 32.091C6.74905 32.2287 7.11005 32.3079 7.47738 32.3285" stroke="#4E4B66" stroke-width="1.5" stroke-linecap="round" stroke-linejoin="round"/>
<path d="M18.984 21.2111V16.3027" stroke="#4E4B66" stroke-width="1.5" stroke-linecap="round" stroke-linejoin="round"/>
</svg>
