<svg width="68" height="72" viewBox="0 0 68 72" fill="none" xmlns="http://www.w3.org/2000/svg">
<path d="M9.15573 51.1099C4.8676 50.7622 4.86763 50.7622 4.40405 44.3879C2.12763e-05 43.4608 0 43.4608 0 38.5932C0 27.0036 0 15.4141 0 3.82453C0 0.463567 0.463603 0 3.82457 0C14.7187 0 25.497 0 36.3911 0C41.3746 0 41.3747 -1.43684e-05 41.4906 4.98349C41.4906 5.56296 41.4906 6.14245 41.4906 6.60603C45.6628 7.30141 45.6628 7.30141 46.3582 13.5598C50.7622 14.371 50.7622 14.371 50.7622 18.775C50.7622 25.8447 50.8781 32.9143 50.7622 39.9839C50.7622 41.8382 51.3417 43.229 52.7324 44.5038C56.7887 48.4443 60.6133 52.3847 64.5537 56.3252C67.9147 59.802 67.9147 62.5835 64.5537 66.0604C63.2789 67.3352 62.004 68.726 60.7292 70.0008C57.8318 72.6664 54.9344 72.6664 52.037 70.0008C48.5602 66.5239 45.1992 62.9312 41.6064 59.5702C40.6793 58.759 39.1727 58.0636 37.8978 58.0636C30.0169 57.9477 22.136 57.9477 14.2552 57.9477C9.50344 57.9477 9.38753 57.8318 9.38753 53.0801C9.15574 52.5006 9.15573 51.9211 9.15573 51.1099ZM48.2125 39.868C48.2125 31.7553 48.2125 24.1062 48.2125 16.4571C35.8117 16.4571 23.7586 16.4571 11.7054 16.4571C11.7054 29.5533 11.7054 42.5336 11.7054 55.6298C16.1095 55.6298 20.2817 55.6298 24.4539 55.6298C28.6262 55.6298 32.7984 55.6298 37.0865 55.6298C35.8117 54.239 34.7686 53.196 33.8415 52.1529C33.262 52.3847 32.5666 52.7324 31.9871 53.0801C31.7553 52.3847 31.4076 51.6893 31.2918 50.994C31.06 50.1827 31.2918 48.9078 30.8282 48.5602C27.1195 45.8946 27.8149 41.7223 27.2354 38.0137C26.8877 35.8117 26.7718 33.4937 26.54 30.944C31.2917 31.5235 35.464 31.8712 39.6362 32.4507C40.0998 32.4507 40.6793 32.5666 41.027 32.7984C43.229 35.1163 45.5469 37.3183 48.2125 39.868ZM2.43381 2.31791C2.43381 15.4141 2.43381 28.5103 2.43381 41.4905C4.75172 42.3018 4.51991 40.6793 4.51991 39.2885C4.51991 29.6692 4.51991 20.1658 4.51991 10.5465C4.51991 7.76498 5.56299 6.72192 8.22858 6.72192C17.5002 6.83781 26.6559 6.72192 35.9276 6.72192C36.9706 6.72192 38.0137 6.72192 38.9409 6.72192C38.9409 4.98349 38.9409 3.59274 38.9409 2.0861C26.7718 2.31789 14.7187 2.31791 2.43381 2.31791ZM6.95372 48.4443C9.38753 49.2555 9.15573 47.7489 9.15573 46.3582C9.15573 36.8547 9.15573 27.4672 9.15573 17.9638C9.15573 14.371 9.61934 13.9074 13.0962 13.9074C20.6294 13.9074 28.2785 13.9074 35.8117 13.9074C38.3614 13.9074 40.9111 13.9074 43.4608 13.9074C43.4608 12.169 43.4608 10.7783 43.4608 9.50342C31.06 9.50342 19.0068 9.50342 6.83782 9.50342C6.95372 22.4837 6.95372 35.3481 6.95372 48.4443ZM36.623 42.4177C37.8978 44.0403 38.3614 44.8515 38.9409 45.431C40.2157 46.8217 41.7223 48.0966 42.9972 49.6032C43.4608 50.1827 43.4608 51.1098 43.6926 51.8052C42.9972 51.5734 42.07 51.6893 41.4906 51.2257C40.2157 50.1827 39.0568 49.0237 38.0137 47.7489C36.3912 45.6628 34.5368 45.3151 32.4507 46.4741C37.2024 51.1099 41.9541 55.6298 46.4741 60.0338C49.3714 57.2523 52.5006 54.1231 55.398 51.2257C50.7622 46.5899 46.0105 41.9541 41.3747 37.2024C40.2157 38.9409 42.4177 43.3449 36.623 42.4177ZM51.8053 66.5239C55.398 70.6962 56.557 70.6962 60.4974 66.6398C60.961 66.1763 61.4245 65.7127 61.8881 65.2491C65.5968 61.5404 65.365 59.802 61.3087 56.9046C58.0636 60.1497 54.9344 63.3948 51.8053 66.5239ZM38.4773 40.0998C38.7091 38.2455 38.9409 36.7388 39.1727 35.2322C35.6958 34.0732 32.4507 33.9573 30.7123 37.3183C29.7851 39.1726 29.901 41.6065 29.5533 44.1562C31.9871 43.8085 33.4938 43.6926 35.1163 43.4608C34.7686 40.7952 35.9276 39.7521 38.4773 40.0998ZM49.1396 64.206C52.6165 60.7292 55.8616 57.6 59.1066 54.3549C58.5272 53.8913 57.9477 53.4278 57.6 53.0801C54.2391 56.3251 51.1099 59.3384 47.633 62.8153C48.3284 63.3948 48.9078 63.9742 49.1396 64.206Z" fill="#4E4B66"/>
<path d="M25.2654 27.8163C22.8316 27.8163 20.5137 27.9322 18.0799 27.8163C17.3845 27.8163 16.8051 27.1209 16.2256 26.6573C16.8051 26.3096 17.3845 25.6143 17.964 25.6143C22.9475 25.4984 27.931 25.4984 32.9145 25.6143C33.494 25.6143 33.9576 26.3096 34.5371 26.7732C33.9576 27.1209 33.3781 27.8163 32.7986 27.8163C30.2489 27.8163 27.6993 27.8163 25.2654 27.8163Z" fill="#4E4B66"/>
<path d="M40.3314 25.4968C40.5631 25.4968 40.9108 25.3809 41.1426 25.4968C41.9539 25.8445 42.7651 26.308 43.5764 26.6557C42.7651 27.0034 41.838 27.467 41.0267 27.8147C40.7949 27.9306 40.4472 27.9306 40.2155 27.8147C39.0565 27.467 38.0134 27.0034 36.8545 26.6557C37.8976 26.0763 38.9406 25.6127 40.0995 25.0332C40.2154 25.1491 40.2155 25.3809 40.3314 25.4968Z" fill="#4E4B66"/>
<path d="M19.4707 34.7701C19.0071 34.7701 18.4276 34.886 18.0799 34.7701C17.3845 34.4224 16.8051 33.9588 16.2256 33.4952C16.8051 33.1475 17.3845 32.6839 17.964 32.4522C18.4276 32.3363 18.8912 32.3363 19.3548 32.4522C20.5137 32.7998 21.6727 33.2634 22.9475 33.727C21.9045 34.1906 20.7455 34.7701 19.7024 35.2336C19.5866 35.0018 19.4707 34.886 19.4707 34.7701Z" fill="#4E4B66"/>
<path d="M16.5725 51.1096C15.8772 52.0368 15.2977 52.6162 14.8341 53.1957C14.4864 52.3844 13.791 51.6891 13.791 50.8778C13.791 50.1824 14.4864 49.3712 14.95 48.6758C15.4136 49.487 15.8772 50.1824 16.5725 51.1096Z" fill="#4E4B66"/>
<path d="M22.3675 51.1096C21.6721 52.0368 21.0926 52.6162 20.629 53.1957C20.2813 52.3844 19.5859 51.6891 19.5859 50.8778C19.5859 50.1824 20.2813 49.3712 20.7449 48.6758C21.2085 49.487 21.6721 50.1824 22.3675 51.1096Z" fill="#4E4B66"/>
<path d="M28.1627 50.7612C27.4673 51.8043 27.1196 52.4997 26.656 53.195C26.1924 52.4997 25.4971 51.8043 25.4971 51.1089C25.4971 50.2977 26.0766 49.4864 26.4243 48.791C26.8878 49.3705 27.4673 49.9499 28.1627 50.7612Z" fill="#4E4B66"/>
</svg>
