<svg width="170" height="129" viewBox="0 0 170 129" fill="none" xmlns="http://www.w3.org/2000/svg">
<g clip-path="url(#clip0)">
<path d="M75.8 128.5C54.7 128.5 33.7 128.3 12.6 128.6C4.2 128.7 0 122.8 0 116.1C0.2 80.5 0.1 44.9 0.1 9.3C0.1 3.2 3.3 0 9.5 0C20.6 0 31.7 0 42.9 0C47.3 0 51 1.4 54 4.6C56.6 7.3 59.4 9.7 61.9 12.5C64.4 15.3 67.3 16.2 71 16.2C92.5 16.1 114 16.2 135.5 16.1C138.3 16.1 140.8 16.6 142.7 18.8C144.1 20.4 144.8 22.2 144.7 24.2C144.7 27.9 144.8 31.7 144.7 35.4C144.7 37 145.1 37.6 146.8 37.5C151.5 37.4 156.3 37.4 161 37.5C167.7 37.5 171.2 41.9 169.6 48.4C163.8 72.1 157.9 95.7 152 119.3C150.5 125.5 146.7 128.4 140.2 128.4C118.6 128.5 97.2 128.5 75.8 128.5ZM19.7 123.1C20.2 123.1 20.6 123.2 21 123.2C34.9 123.2 48.7 123.2 62.6 123.2C88.2 123.2 113.9 123.2 139.5 123.2C144.1 123.2 145.5 122.1 146.6 117.9C148.6 109.8 150.6 101.7 152.6 93.6C156.5 78.1 160.3 62.7 164.2 47.2C165 44.1 164 42.9 160.7 42.9C159 42.9 157.4 42.9 155.7 42.9C119 42.9 82.4 42.9 45.7 42.9C41.5 42.9 39.8 44.1 38.9 47.9C35.1 63.2 31.3 78.5 27.4 93.8C26.8 96 27.1 96.5 29.5 96.5C59.1 96.4 88.7 96.4 118.3 96.4C119.1 96.4 120 96.4 120.8 96.5C122.3 96.6 123 97.5 123.1 98.9C123.2 100.3 122.5 101.3 121.1 101.6C120.1 101.8 119.1 101.8 118.1 101.8C88 101.8 57.9 101.8 27.8 101.8C26 101.8 25.3 102.3 24.9 104.1C23.3 110.4 22.3 116.9 19.7 123.1ZM5.5 63.4C5.5 80.9 5.5 98.4 5.5 115.9C5.5 116.8 5.4 117.7 5.6 118.6C5.9 120.8 7.2 122.2 9.3 122.8C11.5 123.4 13.2 122.6 14.4 120.8C15.5 119.2 16 117.4 16.5 115.5C22.3 92.3 28 69 33.9 45.8C35.2 40.6 39 37.7 44.3 37.5C46.4 37.4 48.4 37.5 50.5 37.5C79.2 37.5 107.9 37.5 136.6 37.5C138.6 37.5 139.4 37.1 139.2 34.9C139 31.9 139.2 28.9 139.1 25.9C139.1 21.9 138.6 21.3 134.5 21.3C113.1 21.3 91.7 21.2 70.3 21.3C65.4 21.3 61.5 19.8 58.1 16.2C55.5 13.4 52.7 10.8 50 8.1C48 6.1 45.7 5.1 42.9 5.2C31.7 5.3 20.5 5.2 9.3 5.2C6.1 5.2 5.4 5.9 5.4 9.2C5.5 27.4 5.5 45.4 5.5 63.4Z" fill="#4E4B66"/>
<path d="M136.6 96.5C138.3 96.5 140.1 96.5 141.8 96.5C143.5 96.5 144.4 97.3 144.5 99.1C144.6 100.9 143.5 101.8 141.9 101.8C138.3 101.9 134.6 101.9 131 101.8C129.4 101.7 128.4 100.7 128.5 99C128.6 97.3 129.7 96.5 131.3 96.5C133.2 96.5 134.9 96.5 136.6 96.5Z" fill="#4E4B66"/>
<path d="M60.3999 110.2C59.8999 112.1 59.4999 114.2 58.7999 116.2C58.3999 117.4 57.1999 118.2 55.7999 117.8C54.3999 117.4 53.4999 116.4 53.7999 114.9C54.1999 112.9 54.6999 110.9 55.2999 108.9C55.6999 107.6 56.7999 106.9 58.1999 107.2C59.4999 107.5 60.3999 108.5 60.3999 110.2Z" fill="#4E4B66"/>
<path d="M67 114.9C67.5 112.8 67.9 110.8 68.5 109C69 107.6 70.1 106.8 71.6 107.2C73.2 107.6 74 108.7 73.7 110.4C73.3 112.3 72.9 114.1 72.3 115.9C71.9 117.3 70.8 118.1 69.3 117.9C67.7 117.5 67 116.3 67 114.9Z" fill="#4E4B66"/>
<path d="M87.2002 110C86.7002 112.1 86.3002 114.2 85.5002 116.2C85.0002 117.5 83.8002 118.2 82.3002 117.7C80.9002 117.2 80.2002 116.1 80.5002 114.6C80.9002 112.7 81.3002 110.9 81.9002 109.1C82.3002 107.7 83.4002 106.9 84.9002 107.2C86.3002 107.4 87.0002 108.5 87.2002 110Z" fill="#4E4B66"/>
<path d="M113.8 110.7C113.4 112.1 113 114.2 112.3 116.2C111.9 117.5 110.7 118.1 109.3 117.8C107.9 117.4 107 116.4 107.2 114.9C107.6 112.9 108.1 110.9 108.7 108.9C109.1 107.6 110.2 106.9 111.6 107.2C113.1 107.5 113.9 108.5 113.8 110.7Z" fill="#4E4B66"/>
<path d="M26.7998 115C27.3998 112.9 27.7998 110.7 28.5998 108.6C29.0998 107.3 30.2998 106.8 31.5998 107.2C32.8998 107.6 33.7998 108.6 33.4998 110C33.0998 112.1 32.5998 114.2 31.9998 116.2C31.5998 117.5 30.3998 118.1 28.9998 117.8C27.6998 117.4 26.8998 116.5 26.7998 115Z" fill="#4E4B66"/>
<path d="M127.1 110.8C126.7 112.1 126.3 114.2 125.6 116.2C125.2 117.5 124 118.1 122.6 117.8C121.2 117.4 120.3 116.4 120.6 114.9C121 112.9 121.5 110.9 122.1 108.9C122.5 107.6 123.6 106.9 125 107.2C126.4 107.5 127.3 108.4 127.1 110.8Z" fill="#4E4B66"/>
<path d="M133.9 114.9C134.5 112.8 134.9 110.8 135.6 108.8C136 107.5 137.2 106.9 138.6 107.3C139.9 107.6 140.9 108.6 140.6 110C140.2 112.2 139.7 114.3 139 116.4C138.6 117.6 137.4 118.3 136 117.8C134.6 117.3 133.9 116.4 133.9 114.9Z" fill="#4E4B66"/>
<path d="M40.2998 114.4C40.6998 113 41.1998 110.8 41.8998 108.7C42.3998 107.4 43.4998 106.8 44.8998 107.2C46.1998 107.6 47.0998 108.5 46.8998 109.9C46.4998 112.1 45.9998 114.2 45.2998 116.3C44.8998 117.4 43.6998 118.1 42.4998 117.7C41.0998 117.4 40.2998 116.6 40.2998 114.4Z" fill="#4E4B66"/>
<path d="M100.5 110.2C100 112 99.6 114.1 98.9 116.1C98.4 117.5 97.2 118.1 95.7 117.6C94.3 117.1 93.5 116 93.8 114.5C94.2 112.6 94.7 110.6 95.3 108.8C95.7 107.5 96.8 106.8 98.2 107C99.7 107.4 100.4 108.5 100.5 110.2Z" fill="#4E4B66"/>
</g>
<defs>
<clipPath id="clip0">
<rect width="169.8" height="128.6" fill="white"/>
</clipPath>
</defs>
</svg>
