<svg width="63" height="67" viewBox="0 0 63 67" fill="none" xmlns="http://www.w3.org/2000/svg">
<path d="M16.3875 38.6794C18.6729 38.6794 20.8544 39.1989 22.8282 40.1338C25.4253 41.3804 28.0223 42.5231 30.5155 43.7697C32.3854 44.7046 34.3592 45.224 36.4368 45.0163C38.6183 44.7046 40.5921 45.3279 41.7348 47.4056C42.462 48.6522 43.1892 48.2366 44.1241 47.925C48.0716 46.8862 51.9153 45.8473 55.8628 44.9124C58.6676 44.1852 60.953 45.3279 61.888 47.8211C62.8229 50.2104 61.888 52.4958 59.3948 53.8463C52.1231 57.6899 44.8513 61.4297 37.4756 65.1695C34.463 66.7277 31.5543 66.5199 28.5417 64.9617C24.6981 62.9879 20.9583 61.0142 17.2186 58.9365C14.6215 57.4822 12.1283 57.0666 9.32349 58.0016C7.66137 58.521 5.99927 58.9365 4.33715 59.352C1.94785 59.8715 0.181851 58.6249 0.181851 56.2356C0.0779687 51.9764 0.181851 47.8211 0.181851 43.5619C0.181851 41.4843 1.32456 40.4455 3.29832 40.1338C7.66138 39.6144 12.0245 39.095 16.3875 38.6794ZM5.68761 56.8589C5.68761 55.82 3.29832 55.5084 4.75267 54.2618C5.58373 53.4307 7.86915 53.5346 7.97303 54.2618C8.49244 57.586 10.4662 55.4045 11.6089 55.4045C13.6866 55.4045 15.5564 55.82 17.3224 56.755C21.1661 58.8326 25.1136 60.7025 28.9573 62.884C31.9698 64.65 34.6708 64.5462 37.6834 62.884C44.228 59.352 50.8764 56.0278 57.5249 52.5997C58.1482 52.288 58.7715 51.9764 59.2909 51.457C60.122 50.6259 60.4336 49.5871 59.8103 48.4444C59.187 47.3017 58.1482 46.4706 57.1094 46.8862C51.9153 49.0677 45.5785 47.925 41.1115 52.9113C37.3717 56.9627 27.8146 56.3395 23.5554 52.8075C23.1399 52.4958 22.8282 52.0803 23.036 51.457C23.3476 50.8337 23.867 50.6259 24.5942 50.9376C25.8408 51.457 26.9835 51.7686 28.1262 52.3919C31.9699 54.2618 35.6058 53.6385 39.2416 51.7686C40.696 51.0415 40.7999 50.1065 40.1766 48.8599C39.4494 47.4056 38.2028 46.99 36.7484 47.1978C33.9436 47.6133 31.5543 46.7823 29.0611 45.5357C26.9835 44.4969 24.802 43.6658 22.8282 42.5231C20.4389 41.2765 17.8419 40.6532 15.1409 40.9649C11.505 41.3804 7.97303 41.7959 4.33715 42.2115C2.67503 42.4192 2.2595 43.1464 2.2595 44.7046C2.36338 47.8211 2.2595 50.9376 2.2595 53.9502C2.2595 57.586 2.25949 57.586 5.68761 56.8589Z" fill="#A0A3BD"/>
<path d="M31.0349 33.1736C22.9321 33.1736 14.8293 33.1736 6.72645 33.1736C3.19445 33.1736 2.25952 32.2387 2.25952 28.8106C2.25952 20.6039 2.25952 12.5011 2.25952 4.29434C2.25952 0.970104 3.19446 0.0351562 6.62258 0.0351562C23.036 0.0351562 39.4494 0.0351562 55.9667 0.0351562C59.2909 0.0351562 60.2259 0.970095 60.2259 4.39821C60.2259 12.6049 60.2259 20.7078 60.2259 28.9145C60.2259 32.2387 59.291 33.1736 55.8629 33.1736C47.5523 33.1736 39.2416 33.1736 31.0349 33.1736ZM31.2427 2.21669C23.1399 2.21669 15.0371 2.32058 6.93423 2.21669C4.85658 2.21669 4.23329 2.73611 4.33717 4.81375C4.44105 12.7088 4.44105 20.6039 4.33717 28.6028C4.33717 30.6805 4.96046 31.1999 6.93423 31.1999C23.1399 31.096 39.2416 31.096 55.4473 31.1999C57.5249 31.1999 58.1482 30.6805 58.0444 28.6028C57.9405 20.7078 57.9405 12.8127 58.0444 4.81375C58.0444 2.73611 57.4211 2.11281 55.4473 2.21669C47.3445 2.21669 39.3455 2.21669 31.2427 2.21669Z" fill="#A0A3BD"/>
<path d="M5.68763 56.8589C2.25951 57.6899 2.25953 57.6899 2.25953 54.054C2.25953 50.9376 2.36341 47.8211 2.25953 44.8085C2.15564 43.2503 2.67506 42.4192 4.33717 42.3153C7.97306 42.0037 11.5051 41.4843 15.1409 41.0687C17.8419 40.7571 20.4389 41.2765 22.8282 42.627C24.9059 43.6658 26.9835 44.6007 29.0612 45.6395C31.4505 46.8861 33.9436 47.7172 36.7485 47.3017C38.2028 47.0939 39.4494 47.5094 40.1766 48.9638C40.7999 50.2104 40.696 51.1453 39.2417 51.8725C35.6058 53.7424 31.9699 54.3657 28.1262 52.4958C26.9835 51.8725 25.7369 51.5609 24.5942 51.0414C23.9709 50.8337 23.3477 50.9376 23.036 51.5609C22.7244 52.0803 23.036 52.4958 23.5554 52.9113C27.9185 56.5472 37.4757 57.0666 41.1115 53.0152C45.5785 48.0289 51.9153 49.1716 57.1094 46.99C58.1482 46.5745 59.1871 47.4056 59.8104 48.5483C60.4337 49.691 60.122 50.7298 59.291 51.5609C58.7715 51.9764 58.1482 52.3919 57.5249 52.7036C50.8765 56.1317 44.228 59.5598 37.6834 62.9879C34.6708 64.65 31.9699 64.65 28.9573 62.9879C25.2175 60.8064 21.27 58.9365 17.3225 56.8589C15.5565 55.9239 13.6866 55.5084 11.6089 55.5084C10.3624 55.5084 8.49247 57.6899 7.97306 54.3657C7.86917 53.5346 5.68764 53.5346 4.7527 54.3657C3.40223 55.5084 5.79151 55.82 5.68763 56.8589ZM6.41482 45.6395C7.24588 45.5357 8.38858 45.8473 8.38858 44.7046C8.49246 43.3541 7.24587 43.5619 6.31093 43.5619C5.47987 43.5619 4.44105 43.458 4.44105 44.6007C4.44105 45.8473 5.58376 45.5357 6.41482 45.6395ZM6.51869 50.7298C7.34975 50.7298 8.49246 50.9376 8.38858 49.691C8.38858 48.4444 7.24588 48.6521 6.41482 48.6521C5.47988 48.6521 4.23329 48.4444 4.33717 49.7948C4.54494 51.0414 5.68763 50.7298 6.51869 50.7298Z" fill="white"/>
<path d="M31.2427 2.21681C39.3455 2.21681 47.4484 2.32069 55.5512 2.21681C57.6288 2.21681 58.2521 2.84011 58.1483 4.81387C58.0444 12.7089 58.0444 20.604 58.1483 28.6029C58.1483 30.6806 57.525 31.2 55.5512 31.2C39.3455 31.0961 23.2438 31.0961 7.03811 31.2C4.96047 31.2 4.33717 30.5767 4.44105 28.6029C4.54494 20.7079 4.54494 12.8128 4.44105 4.81387C4.44105 2.73622 5.06435 2.11293 7.03811 2.21681C15.0371 2.21681 23.1399 2.21681 31.2427 2.21681ZM40.4882 17.7992C40.4882 13.4361 39.2417 10.6313 36.9562 8.55363C36.0213 7.72257 34.9825 7.09927 35.2941 5.64492C35.398 5.02162 35.0864 4.39834 34.4631 4.29446C33.7359 4.19058 33.3204 4.60611 33.3204 5.33328C33.3204 7.09928 31.9699 6.26822 31.2427 6.26822C30.5155 6.26822 29.269 7.20316 29.1651 5.43716C29.1651 4.70998 28.7495 4.29446 28.0224 4.29446C27.2952 4.39834 26.9835 4.91774 27.0874 5.64492C27.3991 7.09927 26.4641 7.72257 25.5292 8.55363C20.6467 12.8128 20.6467 20.3962 25.4253 24.7593C26.3602 25.5903 27.3991 26.2136 27.0874 27.668C26.9835 28.2913 27.2952 28.9146 27.9185 29.0185C28.6456 29.1223 29.0612 28.7068 29.0612 27.9796C29.0612 26.2136 30.4117 27.0447 31.1388 27.0447C31.866 27.0447 33.1126 26.1098 33.2165 27.8758C33.2165 28.6029 33.632 29.0185 34.3592 29.0185C35.0864 28.9146 35.398 28.3952 35.2941 27.668C34.9825 26.2136 35.9174 25.5903 36.8524 24.7593C39.4494 22.5778 40.4882 19.7729 40.4882 17.7992ZM16.8031 17.6953C16.8031 15.4099 15.1409 13.54 12.8555 13.4361C10.4662 13.3322 8.59636 15.2021 8.49248 17.4875C8.49248 19.7729 10.1546 21.6428 12.44 21.7467C14.7254 21.9545 16.6992 20.0846 16.8031 17.6953ZM49.7338 13.54C47.3445 13.54 45.5785 15.5138 45.6824 17.903C45.7862 20.0846 47.6561 21.8506 49.9416 21.8506C52.227 21.8506 54.0968 19.8768 53.993 17.4875C53.8891 15.2021 52.0192 13.54 49.7338 13.54ZM9.94683 7.41093C11.1934 6.89152 13.3749 8.13811 13.3749 6.37211C13.3749 4.29446 11.0895 5.33328 9.84294 5.33328C8.70023 5.33328 6.5187 4.39834 6.5187 6.26822C6.62259 8.24198 8.80412 6.89152 9.94683 7.41093ZM52.3308 7.41093C53.4735 6.78764 55.8629 8.34586 55.8629 6.16433C55.8629 4.39833 53.5774 5.33328 52.4347 5.33328C51.292 5.33328 49.1105 4.39834 49.0066 6.26822C48.9027 8.24198 51.1881 6.89152 52.3308 7.41093ZM9.94683 28.0835C11.1934 27.5641 13.3749 28.8107 13.3749 27.0447C13.3749 24.9671 11.0895 26.0059 9.84294 26.0059C8.70023 26.0059 6.5187 25.0709 6.5187 26.9408C6.62259 28.9146 8.80412 27.5641 9.94683 28.0835ZM52.3308 28.0835C53.4735 27.4602 55.8629 29.0185 55.8629 26.8369C55.8629 25.0709 53.5774 26.0059 52.4347 26.0059C51.292 26.0059 49.1105 25.0709 49.0066 26.9408C48.9027 28.9146 51.1881 27.5641 52.3308 28.0835ZM16.6992 6.26822C16.8031 6.89151 16.2837 8.24198 17.738 8.24198C18.9846 8.34586 18.7768 7.20317 18.7768 6.37211C18.7768 5.54105 18.9846 4.39834 17.9458 4.29446C16.6992 4.19058 16.6992 5.22939 16.6992 6.26822ZM23.9709 6.16433C23.9709 5.43715 24.1787 4.29446 22.9321 4.29446C21.6855 4.29446 21.8933 5.43716 21.8933 6.26822C21.8933 7.09928 21.5817 8.44975 23.036 8.34587C24.1787 8.24198 23.9709 7.09927 23.9709 6.16433ZM40.4882 6.26822C40.4882 5.54104 40.696 4.39833 39.4494 4.39833C38.2028 4.39833 38.4106 5.43716 38.4106 6.26822C38.4106 7.09928 38.099 8.44975 39.5533 8.34587C40.696 8.24198 40.4882 7.09928 40.4882 6.26822ZM45.6824 6.26822C45.6824 5.43716 45.8901 4.39834 44.6435 4.29446C43.397 4.29446 43.6047 5.33327 43.6047 6.16433C43.6047 6.99539 43.2931 8.34586 44.7474 8.24198C45.8901 8.24198 45.6824 7.09928 45.6824 6.26822ZM16.6992 26.8369C16.8031 27.668 16.3875 28.9146 17.738 29.0185C18.9846 29.1223 18.7768 27.9796 18.7768 27.1486C18.7768 26.3175 18.9846 25.1748 17.9458 25.0709C16.6992 24.8632 16.6992 25.902 16.6992 26.8369ZM23.9709 26.9408C23.9709 26.1098 24.1787 25.0709 22.9321 24.9671C21.6855 24.8632 21.7894 26.0059 21.8933 26.8369C21.8933 27.668 21.5817 29.0185 23.036 28.9146C24.1787 28.9146 23.9709 27.7719 23.9709 26.9408ZM40.4882 26.8369C40.4882 26.0059 40.5921 24.8632 39.4494 24.9671C38.2028 25.0709 38.5145 26.1098 38.5145 26.9408C38.5145 27.7719 38.3067 28.9146 39.4494 28.9146C40.7999 29.0185 40.3844 27.7719 40.4882 26.8369ZM43.6047 27.0447C43.6047 27.8758 43.397 29.0185 44.6435 29.0185C45.8901 29.0185 45.6824 27.8758 45.6824 27.0447C45.6824 26.2136 45.994 24.8632 44.5397 24.9671C43.3969 25.0709 43.7086 26.2136 43.6047 27.0447Z" fill="white"/>
<path d="M6.41475 45.6395C5.58369 45.5356 4.44098 45.8472 4.44098 44.6006C4.44098 43.354 5.47981 43.5618 6.31087 43.5618C7.24581 43.5618 8.4924 43.3541 8.38851 44.7045C8.28463 45.8472 7.14193 45.5356 6.41475 45.6395Z" fill="#A0A3BD"/>
<path d="M6.51868 50.7297C5.68762 50.6258 4.54491 50.9375 4.44103 49.7948C4.33715 48.3404 5.58373 48.6521 6.51868 48.6521C7.34974 48.6521 8.38857 48.4443 8.49245 49.6909C8.38857 50.9375 7.24585 50.7297 6.51868 50.7297Z" fill="#A0A3BD"/>
<path d="M40.4883 17.7991C40.4883 19.7728 39.3455 22.5777 36.8524 24.7592C35.9174 25.5902 34.9825 26.2135 35.2941 27.6679C35.398 28.2912 35.0864 28.9145 34.3592 29.0184C33.632 29.1222 33.3204 28.6028 33.2165 27.8757C33.1126 26.1097 31.866 27.0446 31.1388 27.0446C30.4117 27.0446 29.0612 26.2135 29.0612 27.9795C29.0612 28.7067 28.5418 29.1222 27.9185 29.0184C27.1913 28.9145 26.9835 28.2912 27.0874 27.6679C27.3991 26.2135 26.3602 25.5902 25.4253 24.7592C20.6467 20.5 20.6467 12.9166 25.5292 8.55353C26.4641 7.72247 27.3991 7.09917 27.0874 5.64482C26.9835 5.02153 27.2952 4.39824 28.0224 4.29436C28.7495 4.19048 29.1651 4.70988 29.1651 5.43706C29.269 7.20306 30.5156 6.26812 31.2427 6.26812C31.9699 6.26812 33.3204 7.09919 33.3204 5.33318C33.3204 4.60601 33.8398 4.19048 34.4631 4.29436C35.1903 4.39824 35.398 5.02153 35.2941 5.64482C34.9825 7.09917 36.0213 7.72247 36.9563 8.55353C39.3456 10.6312 40.4883 13.436 40.4883 17.7991ZM23.971 16.6564C23.971 21.1233 27.1913 24.8631 31.1388 24.8631C34.9825 24.8631 38.3067 21.1233 38.4106 16.7602C38.5145 12.1894 35.0864 8.34577 31.1388 8.34577C27.2952 8.44965 23.971 12.1894 23.971 16.6564Z" fill="#A0A3BD"/>
<path d="M16.803 17.6951C16.803 19.9805 14.8292 21.8503 12.4399 21.7465C10.1545 21.6426 8.49243 19.7727 8.49243 17.4873C8.49243 15.098 10.4662 13.332 12.8555 13.4359C15.037 13.6436 16.803 15.5135 16.803 17.6951ZM12.5438 15.6174C11.2973 15.9291 10.4662 16.6562 10.674 17.9028C10.7778 19.0455 11.6089 19.7727 12.7516 19.6688C13.8943 19.5649 14.7254 18.8378 14.6215 17.6951C14.6215 16.4485 13.7904 15.7213 12.5438 15.6174Z" fill="#A0A3BD"/>
<path d="M49.7338 13.5399C52.0192 13.5399 53.8891 15.202 53.9929 17.4875C54.0968 19.7729 52.227 21.7466 49.9415 21.8505C47.6561 21.8505 45.7862 20.0845 45.6824 17.903C45.5785 15.5137 47.4483 13.5399 49.7338 13.5399ZM47.76 17.6952C47.9678 18.8379 48.5911 19.669 49.7338 19.669C50.9803 19.669 51.8114 18.8379 51.8114 17.5913C51.8114 16.4486 50.9804 15.6176 49.8376 15.6176C48.5911 15.6176 47.9678 16.4486 47.76 17.6952Z" fill="#A0A3BD"/>
<path d="M9.94673 7.41091C8.80402 6.89149 6.6225 8.24196 6.6225 6.37208C6.6225 4.39832 8.80402 5.33325 9.94673 5.43713C11.1933 5.43713 13.4787 4.39831 13.4787 6.47595C13.3748 8.24196 11.1933 6.89149 9.94673 7.41091Z" fill="#A0A3BD"/>
<path d="M52.3308 7.41075C51.1881 6.89134 49.0066 8.24181 49.0066 6.26804C49.0066 4.39816 51.1881 5.3331 52.4347 5.3331C53.5774 5.3331 55.8628 4.39815 55.8628 6.16415C55.8628 8.34568 53.4735 6.78746 52.3308 7.41075Z" fill="#A0A3BD"/>
<path d="M9.94673 28.0835C8.80402 27.5641 6.6225 28.9146 6.6225 27.0447C6.6225 25.0709 8.80402 26.0059 9.94673 26.1097C11.1933 26.1097 13.4787 25.0709 13.4787 27.1486C13.3748 28.8107 11.1933 27.5641 9.94673 28.0835Z" fill="#A0A3BD"/>
<path d="M52.3308 28.0835C51.1881 27.5641 49.0066 28.9145 49.0066 26.9408C49.0066 25.0709 51.1881 26.0058 52.4347 26.0058C53.6813 26.0058 55.8628 25.0709 55.8628 26.8369C55.8628 29.0184 53.4735 27.4602 52.3308 28.0835Z" fill="#A0A3BD"/>
<path d="M16.6992 6.26806C16.6992 5.22924 16.6992 4.19042 17.8419 4.2943C18.9846 4.39819 18.673 5.54089 18.673 6.37195C18.673 7.20301 18.8807 8.3457 17.6342 8.24182C16.3876 8.24182 16.907 6.89136 16.6992 6.26806Z" fill="#A0A3BD"/>
<path d="M23.9709 6.16419C23.867 6.99525 24.1786 8.24184 23.0359 8.24184C21.5816 8.34572 21.8932 7.09913 21.8932 6.16419C21.8932 5.33313 21.6855 4.29431 22.932 4.19043C24.1786 4.29431 23.9709 5.43701 23.9709 6.16419Z" fill="#A0A3BD"/>
<path d="M40.4882 6.2681C40.4882 7.09916 40.6959 8.24186 39.5532 8.34575C38.0989 8.44963 38.5144 7.09916 38.4105 6.2681C38.4105 5.43704 38.2027 4.29433 39.4493 4.39821C40.6959 4.39821 40.4882 5.43704 40.4882 6.2681Z" fill="#A0A3BD"/>
<path d="M45.6824 6.2681C45.6824 7.09916 45.8901 8.24186 44.7474 8.34575C43.2931 8.44963 43.6047 7.20304 43.6047 6.2681C43.6047 5.43704 43.3969 4.29433 44.6435 4.39821C45.8901 4.29433 45.6824 5.43704 45.6824 6.2681Z" fill="#A0A3BD"/>
<path d="M16.6992 26.8368C16.6992 25.9019 16.6992 24.863 17.8419 24.9669C18.9846 25.0708 18.673 26.2135 18.673 27.0446C18.673 27.8756 18.8807 29.0183 17.6342 28.9145C16.3876 28.9145 16.8031 27.564 16.6992 26.8368Z" fill="#A0A3BD"/>
<path d="M23.971 26.9407C23.971 27.7718 24.1787 28.9145 23.036 28.9145C21.5817 28.9145 21.9972 27.6679 21.8933 26.8368C21.8933 26.0058 21.7894 24.8631 22.9322 24.9669C24.1787 25.0708 23.971 26.1096 23.971 26.9407Z" fill="#A0A3BD"/>
<path d="M40.4882 26.8368C40.3843 27.6679 40.7998 29.0183 39.3455 28.9145C38.2028 28.9145 38.4105 27.7717 38.4105 26.9407C38.4105 26.1096 38.2028 25.0708 39.3455 24.9669C40.6959 24.9669 40.4882 26.0057 40.4882 26.8368Z" fill="#A0A3BD"/>
<path d="M43.6046 27.0447C43.6046 26.2136 43.3968 25.0709 44.5396 24.967C45.9939 24.8631 45.6823 26.1097 45.6823 27.0447C45.6823 27.8757 45.89 29.0184 44.6434 29.0184C43.3969 28.9146 43.6046 27.8757 43.6046 27.0447Z" fill="#A0A3BD"/>
<path d="M23.9709 16.6563C23.9709 12.1893 27.1912 8.44958 31.1388 8.44958C35.0863 8.44958 38.5144 12.2932 38.4105 16.8641C38.3067 21.331 34.9824 25.0708 31.1388 24.9669C27.2951 24.863 23.9709 21.1232 23.9709 16.6563Z" fill="white"/>
<path d="M12.5439 15.6176C13.7904 15.7214 14.6215 16.4486 14.6215 17.6952C14.6215 18.8379 13.8943 19.669 12.7516 19.669C11.6089 19.7728 10.7779 19.0457 10.674 17.903C10.4662 16.5525 11.2973 15.9292 12.5439 15.6176Z" fill="white"/>
<path d="M47.76 17.6952C47.9678 16.4486 48.5911 15.6176 49.9415 15.6176C51.0843 15.6176 51.9153 16.4486 51.9153 17.5913C51.9153 18.8379 51.0842 19.669 49.8377 19.669C48.5911 19.669 47.9678 18.8379 47.76 17.6952Z" fill="white"/>
</svg>
