<svg width="98" height="84" viewBox="0 0 98 84" fill="none" xmlns="http://www.w3.org/2000/svg">
<path d="M49.0326 84C34.7342 84 20.4357 84 6.07195 84C2.08927 84 0 81.9735 0 78.0514C0 54.0607 0 30.0047 0 5.94864C0 2.02646 2.15456 0 6.07195 0C34.6689 0 63.3311 0 91.928 0C95.9107 0 98 2.02646 98 5.94864C98 30.0047 98 53.9953 98 78.0514C98 81.9735 95.9107 84 91.928 84C77.6296 84 63.3311 84 49.0326 84ZM48.9674 3.52996C34.7342 3.52996 20.4357 3.52996 6.20253 3.52996C4.04797 3.52996 3.59094 3.98755 3.52565 6.21012C3.52565 9.34786 3.59094 12.4856 3.46036 15.6233C3.39507 17.0615 3.72152 17.5191 5.28847 17.5191C28.1399 17.4537 50.926 17.4537 73.7775 17.4537C74.3651 17.4537 74.9527 17.4537 75.5403 17.5191C76.3891 17.6498 76.8461 18.2381 76.9114 19.0879C76.9767 19.9377 76.5849 20.5261 75.7362 20.8529C75.0833 21.1144 74.3651 21.049 73.6469 21.049C50.7955 21.049 28.0093 21.049 5.15789 20.9837C3.72152 20.9837 3.39507 21.3105 3.39507 22.7486C3.46036 41.0521 3.46036 59.2903 3.46036 77.5938C3.46036 79.9471 3.91739 80.4047 6.33311 80.4047C34.7995 80.4047 63.2658 80.4047 91.7322 80.4047C94.0173 80.4047 94.4743 79.9471 94.4743 77.6591C94.4743 53.8646 94.4743 30.0047 94.4743 6.21012C94.4743 3.92218 94.0173 3.52996 91.6669 3.52996C77.4337 3.52996 63.2005 3.52996 48.9674 3.52996Z" fill="#A0A3BD"/>
<path d="M48.9669 3.53027C63.2001 3.53027 77.4986 3.53027 91.7318 3.53027C94.0169 3.53027 94.5392 3.98786 94.5392 6.21043C94.5392 30.005 94.5392 53.8649 94.5392 77.6595C94.5392 79.9474 94.0822 80.405 91.7971 80.405C63.3307 80.405 34.8644 80.405 6.398 80.405C3.98228 80.405 3.52525 79.9474 3.52525 77.5941C3.52525 59.2906 3.52525 41.0525 3.45996 22.749C3.45996 21.3108 3.78641 20.984 5.22279 20.984C28.0742 21.0493 50.8604 21.0493 73.7118 21.0493C74.43 21.0493 75.1482 21.1147 75.8011 20.8532C76.6498 20.5264 77.0416 19.9381 76.9763 19.0883C76.911 18.2384 76.454 17.6501 75.6052 17.5194C75.0176 17.454 74.43 17.454 73.8424 17.454C50.9909 17.454 28.2048 17.454 5.35336 17.5194C3.78641 17.5194 3.45996 17.0618 3.52525 15.6237C3.65583 12.4859 3.52525 9.34817 3.59054 6.21043C3.59054 3.98786 4.04757 3.53027 6.26742 3.53027C20.4353 3.53027 34.6685 3.53027 48.9669 3.53027ZM47.1388 73.5412C57.4546 73.5412 67.7051 73.5412 78.0209 73.5412C79.3267 73.5412 80.4366 73.2143 80.4366 71.7762C80.4366 70.3381 79.392 69.9458 78.0862 69.9458C75.9969 70.0112 73.9729 69.8151 71.8837 70.0112C70.1208 70.1419 69.925 69.4883 69.925 67.9847C69.9903 59.0291 69.9903 50.0735 69.925 41.1178C69.925 38.9606 69.4027 38.4377 67.2481 38.4377C65.1588 38.4377 63.0043 38.3723 60.915 38.4377C59.7398 38.503 59.2827 38.2416 59.348 36.9342C59.4786 34.7116 59.4133 32.489 59.348 30.2665C59.348 28.5015 58.8257 27.9132 57.0629 27.9132C54.1248 27.9132 51.1868 27.9132 48.3141 27.9132C45.833 27.9132 45.376 28.3054 45.376 30.7894C45.376 38.6991 45.376 46.6089 45.376 54.5186C45.376 55.4991 45.2454 55.9567 44.0702 55.8914C42.5686 55.7606 41.0669 55.826 39.4999 55.8914C38.6512 55.8914 38.3247 55.6953 38.39 54.8455C38.4553 53.6688 38.4553 52.4921 38.39 51.2501C38.39 49.4851 37.8024 48.8968 36.0396 48.8968C33.0362 48.8968 29.9676 48.8968 26.9643 48.8968C24.8097 48.8968 24.418 49.289 24.3527 51.4462C24.3527 57.068 24.2874 62.7552 24.418 68.377C24.418 69.7497 24.0262 70.0112 22.7857 69.9458C20.4353 69.8805 18.1502 69.9458 15.7997 69.9458C14.951 69.9458 14.2981 70.2073 14.0369 71.0571C13.7758 71.7762 13.9063 72.4299 14.4939 73.0182C15.0815 73.6065 15.865 73.5412 16.6485 73.5412C26.899 73.5412 37.0189 73.5412 47.1388 73.5412ZM85.7904 17.5194C84.6152 17.5194 83.44 17.5194 82.1995 17.5194C81.2201 17.5194 80.5672 18.0423 80.4366 19.0883C80.3713 20.1995 80.8937 20.9186 82.0036 20.984C84.4193 21.0493 86.835 21.0493 89.316 20.984C90.3607 20.9186 91.0136 20.1995 90.883 19.1536C90.8177 18.0423 90.0995 17.5847 88.9896 17.5847C88.0103 17.5194 86.9003 17.5194 85.7904 17.5194ZM12.2741 10.5248C12.2741 10.0019 12.2741 9.41354 12.2741 8.89059C12.2741 7.7793 11.7518 7.1256 10.7071 7.06023C9.5972 6.99487 8.9443 7.58319 8.81372 8.62911C8.68315 9.9365 8.68315 11.2439 8.81372 12.4859C8.9443 13.4665 9.5972 14.0548 10.6418 13.9894C11.6212 13.924 12.2088 13.3357 12.2741 12.2898C12.2741 11.7015 12.2741 11.1132 12.2741 10.5248ZM21.0229 10.4595C21.0229 9.87113 21.0229 9.2828 21.0229 8.69448C20.9576 7.64856 20.37 7.1256 19.3907 7.06023C18.4113 6.99487 17.6931 7.58319 17.5626 8.56374C17.432 9.87113 17.432 11.3093 17.5626 12.6167C17.6931 13.5318 18.4113 14.1855 19.3907 14.0548C20.37 13.924 20.9576 13.3357 21.0229 12.3552C21.0229 11.7015 21.0229 11.0478 21.0229 10.4595ZM38.5206 10.5248C38.5206 10.0019 38.5859 9.41354 38.5206 8.89059C38.4553 7.7793 37.8677 6.99487 36.6925 7.06023C35.5173 7.06023 34.9296 7.7793 34.9949 8.95595C34.9949 10.0672 34.9949 11.1132 34.9949 12.2244C34.9949 13.3357 35.6478 13.9894 36.6925 13.9894C37.8024 14.0548 38.39 13.3357 38.5206 12.2898C38.5859 11.7015 38.5206 11.1132 38.5206 10.5248ZM43.7438 10.5902C43.7438 11.1785 43.6785 11.7668 43.7438 12.3552C43.8091 13.3357 44.3967 13.924 45.376 13.9894C46.2901 14.0548 47.0083 13.5318 47.1388 12.6167C47.4 11.1785 47.4 9.67502 47.1388 8.23689C46.943 7.32171 46.2248 6.86413 45.3107 6.99486C44.3967 7.06023 43.8091 7.58319 43.7438 8.56374C43.7438 9.2828 43.8091 9.9365 43.7438 10.5902ZM82.1995 10.5248C82.1995 10.0019 82.1995 9.41354 82.1995 8.89059C82.1995 7.7793 81.6771 7.1256 80.6325 7.06023C79.5226 6.99487 78.8697 7.58319 78.7391 8.62911C78.6085 9.9365 78.6085 11.2439 78.7391 12.4859C78.8697 13.4665 79.5226 14.0548 80.5672 13.9894C81.5466 13.924 82.1342 13.3357 82.1995 12.2898C82.1995 11.7015 82.1995 11.1132 82.1995 10.5248ZM90.9483 10.4595C90.9483 9.87113 90.9483 9.2828 90.9483 8.69448C90.883 7.64856 90.2954 7.1256 89.316 7.06023C88.3367 6.99487 87.6185 7.58319 87.4879 8.56374C87.3574 9.87113 87.3574 11.3093 87.4879 12.6167C87.6185 13.5318 88.3367 14.1855 89.316 14.0548C90.2954 13.924 90.883 13.3357 90.9483 12.3552C91.0136 11.7015 90.9483 11.0478 90.9483 10.4595ZM26.2461 10.3941C26.2461 11.0478 26.1808 11.7015 26.2461 12.3552C26.3767 13.3357 26.9643 13.924 27.9436 13.9894C28.9883 13.9894 29.6412 13.4011 29.7065 12.4205C29.837 11.1132 29.837 9.80576 29.7065 8.49837C29.6412 7.51782 28.923 6.9295 27.9436 6.99486C26.9643 6.99486 26.3114 7.58319 26.2461 8.62911C26.1808 9.21743 26.2461 9.80576 26.2461 10.3941ZM52.5579 10.3941C52.5579 11.1132 52.4926 11.8322 52.5579 12.4859C52.6885 13.4011 53.2761 13.924 54.1901 13.924C55.0389 13.924 55.6918 13.5318 55.8877 12.682C56.1488 11.1785 56.1488 9.67502 55.8877 8.17152C55.6918 7.25634 54.9736 6.86413 54.0596 6.9295C53.2108 6.99487 52.6232 7.45245 52.5579 8.36763C52.4926 9.15206 52.5579 9.80576 52.5579 10.3941ZM73.4506 10.4595C73.4506 9.9365 73.4506 9.34817 73.4506 8.82522C73.4506 7.71393 72.863 7.06023 71.8184 6.99486C70.7085 6.9295 70.0556 7.58319 69.9903 8.62911C69.925 9.9365 69.925 11.2439 70.0556 12.4859C70.1208 13.4665 70.9043 13.9894 71.8837 13.924C72.7977 13.8587 73.3853 13.2704 73.4506 12.3552C73.4506 11.7668 73.4506 11.1132 73.4506 10.4595ZM64.7671 10.6556H64.7018C64.7018 9.9365 64.7671 9.2828 64.7018 8.56374C64.6365 7.51782 63.9183 7.06023 62.939 7.06023C62.0249 7.06023 61.372 7.58319 61.3067 8.49837C61.2414 9.87113 61.2414 11.1785 61.3067 12.5513C61.372 13.4665 62.0249 13.9894 62.939 13.9894C63.853 13.9894 64.5059 13.5318 64.6365 12.6167C64.7671 11.963 64.7018 11.3093 64.7671 10.6556Z" fill="#FEFEFE"/>
<path d="M47.1395 73.5411C37.0196 73.5411 26.8997 73.5411 16.7145 73.5411C15.931 73.5411 15.1475 73.6065 14.5599 73.0181C13.9723 72.4952 13.8417 71.8415 14.1029 71.0571C14.4293 70.2073 15.0822 69.9458 15.8657 69.9458C18.2161 69.9458 20.5013 69.8804 22.8517 69.9458C24.0922 70.0111 24.4839 69.7497 24.4839 68.3769C24.4187 62.7551 24.4187 57.0679 24.4187 51.4462C24.4187 49.289 24.8104 48.8967 27.0302 48.8967C30.0336 48.8967 33.1022 48.8967 36.1055 48.8967C37.8684 48.8967 38.3907 49.4851 38.456 51.2501C38.456 52.4267 38.5213 53.6687 38.456 54.8454C38.3907 55.7606 38.7171 55.9567 39.5659 55.8913C41.0676 55.8259 42.6345 55.7606 44.1362 55.8913C45.3114 55.9567 45.442 55.4991 45.442 54.5185C45.3767 46.6088 45.442 38.6991 45.442 30.7893C45.442 28.3053 45.899 27.9131 48.38 27.9131C51.3181 27.9131 54.2561 27.9131 57.1288 27.9131C58.8917 27.9131 59.414 28.436 59.414 30.2664C59.414 32.489 59.4793 34.7115 59.414 36.9341C59.3487 38.2415 59.8057 38.4376 60.9809 38.4376C63.0702 38.3722 65.2248 38.4376 67.3141 38.4376C69.4686 38.4376 69.9909 38.9606 69.9909 41.1178C69.9909 50.0734 70.0562 59.029 69.9909 67.9847C69.9909 69.4882 70.1868 70.2072 71.9496 70.0111C73.9736 69.815 76.0629 70.0111 78.1522 69.9458C79.458 69.8804 80.5026 70.338 80.5026 71.7761C80.5026 73.2143 79.3927 73.5411 78.0869 73.5411C67.7711 73.5411 57.4553 73.5411 47.1395 73.5411ZM55.9536 50.7925C55.9536 44.7785 55.9536 38.7644 55.9536 32.7504C55.9536 31.9006 55.8231 31.5084 54.8437 31.5084C53.2115 31.5738 51.5792 31.5738 49.947 31.5084C49.1635 31.5084 48.9676 31.7699 48.9676 32.489C48.9676 44.6477 48.9676 56.8065 48.9676 68.8999C48.9676 69.815 49.2941 69.9458 50.0775 69.9458C51.5792 69.8804 53.1462 69.8804 54.6478 69.9458C55.6925 70.0111 56.0189 69.6843 56.0189 68.6384C55.9536 62.7551 55.9536 56.8065 55.9536 50.7925ZM66.5306 56.022C66.5306 53.2765 66.5306 50.4656 66.5306 47.7201C66.5306 45.8897 66.4653 44.0594 66.4653 42.229C64.5719 41.7715 62.6132 42.1637 60.6545 42.0329C60.5892 42.0329 60.5239 42.0329 60.5239 42.0329C59.7404 41.9022 59.4793 42.229 59.4793 43.0135C59.4793 51.7076 59.4793 60.3364 59.4793 69.0306C59.4793 69.815 59.7404 70.0765 60.5239 70.0111C62.0909 69.9458 63.6578 69.9458 65.2248 70.0111C66.2694 70.0765 66.5959 69.7497 66.5959 68.7037C66.4653 64.4547 66.5306 60.2711 66.5306 56.022ZM34.9956 61.317C34.9956 58.7022 34.9956 56.0874 34.9956 53.4726C34.9956 52.7536 34.865 52.4267 34.0163 52.4267C32.384 52.4921 30.7518 52.4921 29.1195 52.4267C28.2708 52.4267 28.0096 52.6228 28.0096 53.538C28.0096 58.7022 28.0749 63.8664 28.0096 69.0306C28.0096 69.815 28.2055 70.0765 28.9889 70.0111C30.6212 69.9458 32.2534 69.9458 33.8857 70.0111C34.865 70.0765 34.9956 69.6189 34.9956 68.7691C34.9956 66.3504 34.9956 63.8664 34.9956 61.317ZM45.442 65.1084C45.442 63.4088 45.3767 61.9707 45.442 60.5979C45.442 59.8788 45.3114 59.552 44.4626 59.552C42.8304 59.6174 41.1981 59.6174 39.5659 59.552C38.7824 59.4866 38.5213 59.8135 38.5213 60.6633C38.5865 63.2127 38.6518 65.7621 38.5213 68.3115C38.456 69.6843 38.7824 70.2073 40.2188 70.0765C41.851 69.8804 44.1362 70.6648 45.0502 69.815C46.1602 68.8345 45.3114 66.4812 45.442 65.1084Z" fill="#A0A3BD"/>
<path d="M85.7914 17.5195C86.9014 17.5195 87.946 17.5195 89.0559 17.5195C90.1006 17.5195 90.8188 18.0424 90.9493 19.0883C91.0146 20.1996 90.427 20.9187 89.3824 20.9187C86.9667 20.9841 84.5509 20.9841 82.0699 20.9187C81.0253 20.8533 80.4377 20.1343 80.503 19.023C80.5683 17.9771 81.2212 17.5195 82.2658 17.4541C83.441 17.5195 84.6162 17.5195 85.7914 17.5195Z" fill="#A0A3BD"/>
<path d="M12.2751 10.5241C12.2751 11.1125 12.2751 11.7008 12.2751 12.2891C12.2098 13.335 11.6222 13.9234 10.6428 13.9887C9.59821 14.0541 8.94531 13.4658 8.81473 12.4852C8.68415 11.1778 8.68415 9.87044 8.81473 8.62842C8.88002 7.5825 9.59821 6.92881 10.7081 7.05955C11.7528 7.12492 12.3404 7.84398 12.2751 8.8899C12.2751 9.41285 12.2751 10.0012 12.2751 10.5241Z" fill="#A0A3BD"/>
<path d="M21.0231 10.4587C21.0231 11.0471 21.0231 11.6354 21.0231 12.2237C20.9578 13.2043 20.3702 13.8579 19.3909 13.9233C18.3463 14.0541 17.6281 13.4004 17.5628 12.4852C17.4322 11.1778 17.4322 9.80503 17.5628 8.43227C17.6281 7.45172 18.3463 6.86339 19.3909 6.92876C20.3702 6.99413 20.9578 7.58246 21.0231 8.56301C21.0231 9.28207 21.0231 9.8704 21.0231 10.4587Z" fill="#A0A3BD"/>
<path d="M38.5208 10.5242C38.5208 11.1125 38.5861 11.7008 38.5208 12.2891C38.3902 13.3351 37.8026 14.0541 36.6927 13.9888C35.648 13.9234 34.9951 13.2697 34.9951 12.2238C34.9951 11.1125 34.9951 10.0666 34.9951 8.95529C34.9951 7.77864 35.5827 7.05957 36.6927 7.05957C37.8679 7.05957 38.4555 7.77864 38.5208 8.88992C38.5861 9.41288 38.5208 10.0012 38.5208 10.5242Z" fill="#A0A3BD"/>
<path d="M43.7441 10.5897C43.7441 9.93598 43.7441 9.28228 43.7441 8.62859C43.8094 7.64804 44.397 7.12508 45.3111 7.05971C46.2252 6.99434 46.9433 7.38656 47.1392 8.30174C47.4657 9.73987 47.4004 11.178 47.1392 12.6815C47.0086 13.5967 46.3557 14.1196 45.3764 14.0543C44.397 13.9889 43.8094 13.4006 43.7441 12.42C43.7441 11.7663 43.7441 11.178 43.7441 10.5897Z" fill="#A0A3BD"/>
<path d="M82.1999 10.5241C82.1999 11.1125 82.1999 11.7008 82.1999 12.2891C82.1346 13.335 81.547 13.9234 80.5677 13.9887C79.523 14.0541 78.8701 13.4658 78.7395 12.4852C78.609 11.1778 78.609 9.87044 78.7395 8.62842C78.8048 7.5825 79.523 6.92881 80.6329 7.05955C81.6776 7.12492 82.2652 7.84398 82.1999 8.8899C82.1999 9.41285 82.1999 10.0012 82.1999 10.5241Z" fill="#A0A3BD"/>
<path d="M90.9489 10.4587C90.9489 11.0471 90.9489 11.6354 90.9489 12.2237C90.8836 13.2043 90.296 13.8579 89.3167 13.9233C88.272 14.0541 87.5538 13.4004 87.4886 12.4852C87.358 11.1778 87.358 9.80503 87.4886 8.43227C87.5538 7.45172 88.272 6.86339 89.3167 6.92876C90.296 6.99413 90.8836 7.58246 90.9489 8.56301C91.0142 9.28207 90.9489 9.8704 90.9489 10.4587Z" fill="#A0A3BD"/>
<path d="M26.2468 10.3934C26.2468 9.80504 26.1815 9.21671 26.2468 8.62838C26.3774 7.64784 26.965 7.05951 27.9443 6.99414C28.9237 6.99414 29.6419 7.5171 29.7072 8.49764C29.8377 9.80504 29.8377 11.1124 29.7072 12.4198C29.6419 13.4004 28.9237 13.9887 27.9443 13.9887C26.965 13.9887 26.3774 13.335 26.2468 12.3545C26.1815 11.7008 26.2468 11.0471 26.2468 10.3934Z" fill="#A0A3BD"/>
<path d="M52.5583 10.3936C52.5583 9.73988 52.493 9.08618 52.5583 8.43249C52.6236 7.51731 53.2112 7.05972 54.06 6.99435C54.974 6.92898 55.6922 7.25583 55.8881 8.23638C56.1492 9.73988 56.1492 11.2434 55.8881 12.7469C55.6922 13.5967 55.0393 13.9889 54.1906 13.9889C53.2765 13.9235 52.6889 13.466 52.5583 12.5508C52.493 11.8317 52.5583 11.1126 52.5583 10.3936Z" fill="#A0A3BD"/>
<path d="M73.4505 10.4594C73.4505 11.1131 73.5158 11.7668 73.4505 12.4205C73.3852 13.3356 72.7976 13.924 71.8836 13.9893C70.9042 14.0547 70.1207 13.5317 70.0554 12.5512C69.9249 11.2438 69.9249 9.93642 69.9902 8.69439C70.0554 7.64848 70.7083 6.99478 71.8183 7.06015C72.8629 7.12552 73.4505 7.77922 73.4505 8.8905C73.4505 9.41346 73.4505 9.93642 73.4505 10.4594Z" fill="#A0A3BD"/>
<path d="M64.7671 10.6549C64.7671 11.3086 64.7671 11.9623 64.6366 12.616C64.506 13.5312 63.8531 14.0541 62.939 13.9888C62.025 13.9888 61.3721 13.4658 61.3068 12.5506C61.2415 11.1779 61.2415 9.87047 61.3068 8.4977C61.3721 7.51716 62.025 7.05957 62.939 7.05957C63.9184 7.05957 64.5713 7.51716 64.7018 8.56307C64.7671 9.28214 64.7018 9.93583 64.7018 10.6549C64.7018 10.6549 64.7018 10.6549 64.7671 10.6549Z" fill="#A0A3BD"/>
<path d="M55.9536 50.7927C55.9536 56.7414 55.9536 62.7554 55.9536 68.704C55.9536 69.75 55.6925 70.0768 54.5825 70.0114C53.0809 69.9461 51.5792 69.9461 50.0123 70.0114C49.2288 70.0114 48.9023 69.8807 48.9023 68.9655C48.9676 56.8068 48.9023 44.648 48.9023 32.5546C48.9023 31.7702 49.0982 31.5087 49.8817 31.5741C51.5139 31.6394 53.1462 31.6394 54.7784 31.5741C55.7578 31.5087 55.8883 31.9663 55.8883 32.8161C55.9536 38.7647 55.9536 44.7787 55.9536 50.7927Z" fill="white"/>
<path d="M66.5307 56.0221C66.5307 60.2711 66.4654 64.4548 66.5307 68.7038C66.5307 69.7497 66.2695 70.0765 65.1596 70.0112C63.5926 69.9458 62.0257 69.9458 60.4587 70.0112C59.6752 70.0112 59.4141 69.8151 59.4141 69.0306C59.4141 60.3365 59.4141 51.7077 59.4141 43.0135C59.4141 42.2291 59.6752 41.9022 60.4587 42.033C60.524 42.033 60.5893 42.033 60.5893 42.033C62.4827 42.1637 64.4414 41.7715 66.4001 42.2291C66.4001 44.0594 66.4654 45.8898 66.4654 47.7201C66.5307 50.4656 66.5307 53.2765 66.5307 56.0221Z" fill="#FAF9FA"/>
<path d="M34.9956 61.3171C34.9956 63.8011 34.9956 66.2852 34.9956 68.8346C34.9956 69.6844 34.865 70.0766 33.8857 70.0766C32.2534 70.0113 30.6212 70.0113 28.989 70.0766C28.2055 70.0766 27.9443 69.8805 28.0096 69.0961C28.0749 63.9319 28.0749 58.7677 28.0096 53.6035C28.0096 52.7537 28.3361 52.4922 29.1195 52.4922C30.7518 52.5576 32.384 52.5576 34.0163 52.4922C34.865 52.4922 34.9956 52.819 34.9956 53.5381C34.9956 56.1529 34.9956 58.7677 34.9956 61.3171Z" fill="#FEFEFE"/>
<path d="M45.4416 65.1081C45.311 66.5462 46.1598 68.8342 45.1152 69.7494C44.1358 70.5992 41.916 69.8801 40.2837 70.0108C38.7821 70.1416 38.5209 69.6186 38.5862 68.2459C38.7168 65.6964 38.6515 63.147 38.5862 60.5976C38.5862 59.7478 38.782 59.4863 39.6961 59.4863C41.3284 59.5517 42.9606 59.5517 44.5928 59.4863C45.4416 59.4863 45.5722 59.7478 45.5722 60.5322C45.4416 61.9704 45.4416 63.4085 45.4416 65.1081Z" fill="white"/>
</svg>
