<svg width="71" height="62" viewBox="0 0 71 62" fill="none" xmlns="http://www.w3.org/2000/svg">
<path d="M38.8477 52.5779C38.8477 53.3454 38.8477 54.0277 38.8477 54.6673C38.8477 56.5436 38.8477 58.4199 38.8477 60.2961C38.8477 61.2342 38.4213 61.746 37.4405 61.7033C35.351 61.6607 33.2616 61.7033 31.1721 61.7033C30.0634 61.7033 29.7223 61.3622 29.7223 60.2108C29.6796 58.0787 29.7223 55.9466 29.7223 53.8145C29.7223 53.4307 29.7223 53.0469 29.7223 52.5352C29.1679 52.5352 28.7841 52.5352 28.3577 52.5352C20.6821 52.5352 12.9639 52.45 5.28827 52.5779C2.0901 52.6205 -0.0420141 50.4458 0.00062814 47.2476C0.0432704 32.9198 0.00062814 18.5067 0.00062814 4.1363C0.00062814 1.23662 1.23725 0 4.13693 0C9.68042 0 15.1813 0 20.7248 0C22.4731 0 23.9656 0.596991 25.2022 1.83362C26.3962 3.0276 27.6328 4.22158 28.8268 5.41556C29.7649 6.39634 30.831 6.82276 32.2382 6.82276C41.2357 6.78012 50.2332 6.82276 59.2307 6.82276C62.8553 6.82276 63.7934 7.6756 64.1346 11.4281C65.1153 11.4281 66.1387 11.4281 67.1195 11.4281C69.5075 11.4708 70.872 12.7927 70.872 15.1806C70.872 25.8838 70.8294 36.587 70.9147 47.2902C70.9573 50.0193 69.209 52.6205 65.5844 52.5779C57.1412 52.45 48.6981 52.5352 40.2975 52.5352C39.8285 52.5779 39.4447 52.5779 38.8477 52.5779ZM29.5943 50.3178C29.5943 44.3906 29.5943 38.6339 29.5943 32.536C28.7415 33.4315 28.0592 34.1564 27.3769 34.8387C26.5667 35.6489 26.0124 35.6489 25.2022 34.8387C23.8803 33.5168 22.5584 32.1949 21.2365 30.873C20.3836 30.0201 20.3836 29.4658 21.2365 28.6129C25.2022 24.6046 29.2106 20.6388 33.1763 16.6731C34.0718 15.7776 34.4982 15.7776 35.3937 16.6305C39.4021 20.5962 43.3678 24.6046 47.3335 28.5703C48.229 29.4658 48.1864 29.9775 47.2909 30.873C46.0116 32.1522 44.7323 33.4315 43.4531 34.7108C42.5149 35.6063 42.0459 35.6063 41.1504 34.7534C40.4681 34.0711 39.7858 33.3889 38.9756 32.6213C38.9756 38.6339 38.9756 44.3906 38.9756 50.1899C46.8218 50.1899 54.5401 50.1899 62.3009 50.1899C61.1922 47.205 62.0877 44.1774 61.6613 41.1498C61.1922 41.1498 60.7658 41.1498 60.382 41.1498C54.668 41.1498 48.9539 41.1498 43.2825 41.1498C42.8561 41.1498 42.3444 41.1924 42.0459 41.0218C41.7047 40.8086 41.2783 40.2969 41.2783 39.9131C41.321 39.572 41.79 39.1456 42.1738 38.9324C42.4297 38.7618 42.8561 38.8897 43.1972 38.8897C48.9539 38.8897 54.7533 38.8897 60.51 38.8897C60.8937 38.8897 61.2775 38.8897 61.7892 38.8897C61.7892 38.4207 61.7892 38.0369 61.7892 37.6531C61.7892 28.7835 61.7892 19.9566 61.7892 11.087C61.7892 9.42393 61.5334 9.16808 59.913 9.16808C50.617 9.16808 41.3636 9.16808 32.0676 9.16808C30.2766 9.16808 28.7415 8.57109 27.5049 7.29182C26.2682 6.0552 25.0316 4.86122 23.8376 3.62459C22.9848 2.7291 21.9614 2.34532 20.7248 2.34532C15.1813 2.38797 9.68042 2.34532 4.13693 2.34532C2.68709 2.34532 2.43124 2.60118 2.43124 4.09365C2.43124 15.3086 2.43124 26.5661 2.43124 37.781C2.43124 38.6339 2.64445 38.9324 3.53993 38.9324C10.8318 38.8897 18.1236 38.9324 25.458 38.9324C26.9932 38.9324 27.5902 39.2309 27.5902 40.0411C27.5902 40.8513 26.9505 41.1924 25.458 41.1924C18.2089 41.1924 11.0023 41.1924 3.75314 41.1924C3.32672 41.1924 2.94294 41.1924 2.43124 41.1924C2.43124 43.2819 2.43124 45.1581 2.43124 47.077C2.43124 49.6356 3.11351 50.3178 5.6294 50.3178C13.305 50.3178 20.938 50.3178 28.6136 50.3178C28.8268 50.3178 29.2106 50.3178 29.5943 50.3178ZM26.2682 32.6213C26.5667 32.3655 26.8226 32.1522 27.0358 31.8964C27.9739 30.9583 28.9121 29.9348 29.9355 29.082C30.234 28.8262 30.8736 28.6129 31.2574 28.7835C31.5985 28.9114 31.8117 29.5084 31.9397 29.9348C32.0249 30.2333 31.9823 30.5745 31.9823 30.873C31.9823 39.9558 31.9823 48.9959 31.9823 58.0787C31.9823 58.5051 31.9823 58.9316 31.9823 59.4006C33.5601 59.4006 35.0099 59.4006 36.5877 59.4006C36.5877 58.9316 36.5877 58.5051 36.5877 58.0787C36.5877 48.7827 36.5877 39.5294 36.5877 30.2333C36.5877 29.6364 36.5877 28.8688 37.3126 28.7835C37.8243 28.7409 38.4639 28.9967 38.8477 29.3379C39.999 30.4039 41.1077 31.5553 42.1312 32.6213C43.1972 31.5553 44.1353 30.6598 44.9882 29.8069C41.4062 26.225 37.8243 22.6004 34.3703 19.1464C30.7883 22.7283 27.2064 26.3103 23.6671 29.8496C24.4346 30.6598 25.3301 31.5979 26.2682 32.6213ZM64.0919 13.7734C64.0919 14.1999 64.0493 14.541 64.0493 14.8821C64.0493 25.7133 64.0493 36.5444 64.0493 47.3755C64.0493 47.6314 64.0493 47.8872 64.0493 48.1004C64.2198 49.5076 65.627 50.531 66.9489 50.1473C67.9724 49.8488 68.5267 48.9959 68.5267 47.5887C68.5267 36.8429 68.5267 26.1397 68.5267 15.3938C68.5267 15.1806 68.612 14.8821 68.4841 14.7542C68.1856 14.3704 67.8444 13.8161 67.4607 13.7734C66.3946 13.6882 65.2859 13.7734 64.0919 13.7734Z" fill="#4E4B66"/>
<path d="M3.41211 45.7543C3.41211 45.3705 3.41211 44.9867 3.41211 44.6029C3.41211 43.878 3.88117 43.3663 4.52081 43.4942C4.94723 43.5795 5.54422 44.0912 5.62951 44.475C5.80007 45.2852 5.80007 46.1807 5.62951 46.9909C5.54422 47.4173 4.94723 47.929 4.52081 47.9717C3.88117 48.057 3.45475 47.5453 3.45475 46.8203C3.41211 46.4792 3.41211 46.0954 3.41211 45.7543Z" fill="#4E4B66"/>
<path d="M28.5283 45.7547C28.5283 46.1385 28.6562 46.6076 28.4856 46.9061C28.2298 47.3325 27.8033 47.8868 27.4196 47.9295C27.0784 47.9721 26.3962 47.4178 26.3535 47.0766C26.1829 46.1811 26.1829 45.243 26.3535 44.3475C26.4388 43.9638 27.0784 43.452 27.4196 43.4947C27.846 43.5373 28.2724 44.0917 28.4856 44.5181C28.6562 44.8592 28.5283 45.3283 28.5283 45.7547Z" fill="#4E4B66"/>
<path d="M39.9992 45.6696C39.9992 45.3285 39.8713 44.902 40.0418 44.6462C40.2977 44.2198 40.6388 43.5801 41.0226 43.5375C41.4064 43.4948 42.1313 44.0492 42.1739 44.3903C42.3445 45.2858 42.3445 46.2239 42.1739 47.1194C42.0886 47.5032 41.4064 48.0149 41.1079 47.9723C40.6815 47.887 40.255 47.3753 40.0418 46.9489C39.8713 46.5651 39.9992 46.096 39.9992 45.6696Z" fill="#4E4B66"/>
<path d="M22.8144 45.7122C22.8144 46.1387 22.9423 46.6077 22.7718 46.9489C22.5585 47.3753 22.0895 47.9296 21.7483 47.9296C21.3219 47.887 20.7249 47.3753 20.6396 46.9915C20.4691 46.1813 20.4691 45.2858 20.6396 44.4756C20.7249 44.0492 21.3646 43.4948 21.7483 43.5375C22.1321 43.5375 22.5585 44.1771 22.7718 44.6035C22.9423 44.8594 22.8144 45.3284 22.8144 45.7122Z" fill="#4E4B66"/>
<path d="M59.4007 45.7114C59.4007 46.1378 59.5286 46.6495 59.358 46.948C59.1448 47.3745 58.6757 47.8862 58.3346 47.8862C57.9508 47.8862 57.3112 47.3745 57.2686 47.0333C57.098 46.1805 57.098 45.2424 57.2686 44.3895C57.3538 44.0057 57.9935 43.4087 58.3773 43.4514C58.761 43.4514 59.1875 44.091 59.4007 44.5174C59.5286 44.9012 59.4007 45.3276 59.4007 45.7114Z" fill="#4E4B66"/>
<path d="M11.3863 45.7545C11.3863 46.1383 11.429 46.5221 11.3863 46.9058C11.3011 47.5881 10.832 48.0998 10.1924 47.9719C9.76593 47.8866 9.29687 47.2896 9.16894 46.8632C8.99837 46.1383 8.99837 45.2854 9.16894 44.5605C9.25423 44.1341 9.85122 43.5371 10.1924 43.5371C10.5761 43.5371 11.0452 44.0915 11.3011 44.5179C11.5143 44.8164 11.3863 45.3281 11.3863 45.7545Z" fill="#4E4B66"/>
<path d="M48.0162 45.7115C48.0162 46.138 48.1015 46.6497 47.9309 46.9482C47.6751 47.3746 47.1634 47.9289 46.8222 47.9289C46.4385 47.9289 45.8841 47.2893 45.7988 46.8629C45.6283 46.138 45.6283 45.2851 45.7988 44.5602C45.8841 44.1338 46.4385 43.5368 46.8222 43.4941C47.206 43.4941 47.7177 44.0485 47.9309 44.4749C48.1015 44.7734 48.0162 45.2851 48.0162 45.7115Z" fill="#4E4B66"/>
<path d="M17.1429 45.7117C17.1429 46.1808 17.2281 46.6925 17.0576 47.0763C16.887 47.4601 16.3753 47.9718 16.0768 47.9291C15.693 47.8865 15.0534 47.4174 15.0107 47.0763C14.8402 46.2235 14.8402 45.2853 15.0107 44.4325C15.096 44.0487 15.693 43.4517 15.9915 43.4944C16.4179 43.537 16.887 44.0487 17.1002 44.4751C17.2708 44.8163 17.1429 45.2853 17.1429 45.7117C17.1002 45.7117 17.1002 45.7117 17.1429 45.7117Z" fill="#4E4B66"/>
<path d="M51.4699 45.6265C51.4699 45.2427 51.342 44.7736 51.5125 44.4751C51.7684 44.0487 52.1948 43.537 52.6212 43.4944C52.9197 43.4517 53.5594 44.0487 53.6446 44.4325C53.8152 45.2853 53.8152 46.2235 53.6446 47.0763C53.5594 47.4601 52.9624 47.9718 52.5786 47.9718C52.1948 47.9718 51.7257 47.4601 51.5552 47.0337C51.342 46.6499 51.4699 46.0955 51.4699 45.6265Z" fill="#4E4B66"/>
</svg>
