<svg width="20" height="20" viewBox="0 0 20 20" fill="none" xmlns="http://www.w3.org/2000/svg">
<path fill-rule="evenodd" clip-rule="evenodd" d="M7.877 13.2063C4.033 13.2063 0.75 13.7873 0.75 16.1153C0.75 18.4423 4.012 19.0453 7.877 19.0453C11.721 19.0453 15.004 18.4633 15.004 16.1363C15.004 13.8093 11.742 13.2063 7.877 13.2063Z" stroke="white" stroke-width="1.5" stroke-linecap="round" stroke-linejoin="round"/>
<path fill-rule="evenodd" clip-rule="evenodd" d="M7.87659 9.886C10.4126 9.886 12.4446 7.853 12.4446 5.318C12.4446 2.782 10.4126 0.75 7.87659 0.75C5.34159 0.75 3.30859 2.782 3.30859 5.318C3.30859 7.853 5.34159 9.886 7.87659 9.886Z" stroke="white" stroke-width="1.5" stroke-linecap="round" stroke-linejoin="round"/>
<path d="M17.2041 6.66919V10.6792" stroke="white" stroke-width="1.5" stroke-linecap="round" stroke-linejoin="round"/>
<path d="M19.2492 8.67407H15.1592" stroke="white" stroke-width="1.5" stroke-linecap="round" stroke-linejoin="round"/>
</svg>
