<svg width="32" height="32" viewBox="0 0 32 32" fill="none" xmlns="http://www.w3.org/2000/svg">
<path fill-rule="evenodd" clip-rule="evenodd" d="M21.7144 2.66675H26.0699C27.8719 2.66675 29.3338 4.14128 29.3338 5.96032V10.3522C29.3338 12.1699 27.8719 13.6458 26.0699 13.6458H21.7144C19.9111 13.6458 18.4492 12.1699 18.4492 10.3522V5.96032C18.4492 4.14128 19.9111 2.66675 21.7144 2.66675Z" stroke="white" stroke-width="2.5" stroke-linecap="round" stroke-linejoin="round"/>
<path fill-rule="evenodd" clip-rule="evenodd" d="M5.93222 2.66675H10.2863C12.0897 2.66675 13.5515 4.14128 13.5515 5.96032V10.3522C13.5515 12.1699 12.0897 13.6458 10.2863 13.6458H5.93222C4.12883 13.6458 2.66699 12.1699 2.66699 10.3522V5.96032C2.66699 4.14128 4.12883 2.66675 5.93222 2.66675Z" stroke="white" stroke-width="2.5" stroke-linecap="round" stroke-linejoin="round"/>
<path fill-rule="evenodd" clip-rule="evenodd" d="M5.93222 18.3542H10.2863C12.0897 18.3542 13.5515 19.8288 13.5515 21.6492V26.0397C13.5515 27.8588 12.0897 29.3333 10.2863 29.3333H5.93222C4.12883 29.3333 2.66699 27.8588 2.66699 26.0397V21.6492C2.66699 19.8288 4.12883 18.3542 5.93222 18.3542Z" stroke="white" stroke-width="2.5" stroke-linecap="round" stroke-linejoin="round"/>
<path fill-rule="evenodd" clip-rule="evenodd" d="M21.7144 18.3542H26.0699C27.8719 18.3542 29.3338 19.8288 29.3338 21.6492V26.0397C29.3338 27.8588 27.8719 29.3333 26.0699 29.3333H21.7144C19.9111 29.3333 18.4492 27.8588 18.4492 26.0397V21.6492C18.4492 19.8288 19.9111 18.3542 21.7144 18.3542Z" stroke="white" stroke-width="2.5" stroke-linecap="round" stroke-linejoin="round"/>
</svg>
