<svg width="24" height="24" viewBox="0 0 24 24" fill="none" xmlns="http://www.w3.org/2000/svg">
<path d="M11.492 2.78894H7.753C4.678 2.78894 2.75 4.96594 2.75 8.04794V16.3619C2.75 19.4439 4.669 21.6209 7.753 21.6209H16.577C19.662 21.6209 21.581 19.4439 21.581 16.3619V12.3339" stroke="#fff" stroke-width="1.5" stroke-linecap="round" stroke-linejoin="round"/>
<path fill-rule="evenodd" clip-rule="evenodd" d="M8.82763 10.9209L16.3006 3.44787C17.2316 2.51787 18.7406 2.51787 19.6716 3.44787L20.8886 4.66487C21.8196 5.59587 21.8196 7.10587 20.8886 8.03587L13.3796 15.5449C12.9726 15.9519 12.4206 16.1809 11.8446 16.1809H8.09863L8.19263 12.4009C8.20663 11.8449 8.43363 11.3149 8.82763 10.9209Z" stroke="#fff" stroke-width="1.5" stroke-linecap="round" stroke-linejoin="round"/>
<path d="M15.165 4.60242L19.731 9.16842" stroke="#fff" stroke-width="1.5" stroke-linecap="round" stroke-linejoin="round"/>
</svg>
