<svg width="152" height="151" viewBox="0 0 152 151" fill="none" xmlns="http://www.w3.org/2000/svg">
<g clip-path="url(#clip0)">
<path d="M34.3003 103.9C28.8003 116.1 23.4003 128 18.1003 140C17.3003 141.8 16.5003 143.6 15.7003 145.4C13.8003 149.6 9.60032 151.5 5.50032 150.1C1.20032 148.6 -0.799679 144.5 0.400321 139.9C5.30032 122 10.3003 104.1 15.3003 86.2C16.9003 80.4 18.5003 74.6 20.2003 68.8C20.3003 68.4 20.7003 68.1 20.4003 67.7C19.8003 66.7 15.1003 65.3 14.0003 65.7C10.4003 67.3 6.70032 66.5 4.40032 63.5C2.20032 60.5 2.30032 56.6 5.00032 53.7C10.9003 47.1 16.9003 40.5 22.9003 34C25.7003 31 29.2003 29.5 33.3003 29.5C39.7003 29.5 46.1003 29.5 52.5003 29.5C54.6003 29.5 56.6003 30.1 58.3003 31.4C64.7003 36.2 71.0003 41 77.4003 45.7C78.8003 46.8 79.2003 48.2 79.4003 49.8C81.7003 64.7 84.1003 79.6 86.3003 94.5C86.4003 95.4 87.0003 95.7 87.6003 96.1C93.9003 99.3 100.3 102.5 106.5 105.9C108 106.7 108.5 106 109.2 105C110.9 102.3 112.8 99.8 116.1 98.9C120.7 97.6 125.2 99.2 127.7 103.5C135.4 116.7 143.1 130 150.7 143.2C152.3 146 151 147.7 147.4 147.7C125.3 147.7 103.2 147.7 81.1003 147.7C79.6003 147.7 78.1003 147.8 76.6003 147.7C74.4003 147.6 73.2003 146.1 73.9003 144C76.0003 137.3 78.0003 130.6 80.7003 124.1C83.3003 117.7 89.1003 115.8 95.5003 115.5C97.0003 115.4 98.5003 115.5 100 115.5C100.9 115.5 101.7 115.6 102.5 114.7C105.2 111.6 105.2 111.4 101.5 109.5C96.2003 106.8 90.9003 104 85.7003 101.3C84.8003 100.8 84.1003 100.6 83.0003 101.2C78.8003 103.5 74.3003 101.6 73.0003 97C72.5003 95.1 71.5003 93.9 69.7003 93.1C65.3003 91 61.0003 88.7 56.6003 86.5C56.0003 86.2 55.2003 84.9 54.4003 86.2C53.8003 87.3 52.3003 88.1 53.5003 89.9C56.7003 94.7 59.6003 99.8 62.9003 104.5C65.0003 107.6 65.9003 110.8 65.8003 114.5C65.6003 123.4 65.8003 132.3 65.7003 141.1C65.6003 147.8 60.0003 152 54.2003 149.7C51.3003 148.5 49.5003 146.4 49.0003 143.3C47.5003 134.1 46.1003 124.8 44.6003 115.6C44.5003 115 44.6003 114.3 44.1003 113.8C40.8003 110.3 37.6003 107.2 34.3003 103.9ZM34.2003 42.8C35.7003 42.8 36.5003 42.8 37.3003 42.8C38.8003 42.7 40.4003 42.7 41.2003 44.3C42.0003 45.8 41.0003 47 40.2003 48.2C36.7003 53.4 33.3003 58.7 29.7003 63.9C28.8003 65.2 28.6003 65.8 30.3003 66.6C37.2003 70 44.0003 73.5 50.8003 77.1C52.3003 77.9 53.0003 77.8 53.8003 76.2C56.7003 71.1 59.8003 66.1 62.8003 61.1C64.1003 59 66.1003 58.5 67.5003 59.9C68.3003 60.7 68.4003 61.8 68.7003 62.8C71.7003 73 74.5003 83.3 77.5003 93.5C77.9003 94.7 77.8003 96.9 79.8003 96.3C81.7003 95.8 80.8003 93.9 80.6003 92.6C78.5003 79.1 76.4003 65.6 74.2003 52.1C74.0003 50.6 73.6003 49.3 72.2003 48.4C66.7003 44.4 61.3003 40.3 55.9003 36.2C54.6003 35.2 53.3003 34.7 51.6003 34.7C45.7003 34.8 39.8003 34.8 33.9003 34.7C30.9003 34.7 28.5003 35.7 26.4003 37.9C20.8003 44.1 15.2003 50.2 9.60032 56.3C8.50032 57.5 7.60032 58.8 8.90032 60.2C10.4003 61.8 11.7003 60.6 12.9003 59.4C17.2003 55 21.7003 50.8 25.9003 46.3C28.4003 43.8 31.0003 41.9 34.2003 42.8ZM33.6003 96.5C34.7003 96.4 35.3003 97.2 36.0003 97.9C39.9003 101.8 43.8003 105.8 47.8003 109.7C48.9003 110.7 49.5003 111.9 49.7003 113.3C50.4003 118 51.1003 122.6 51.8003 127.3C52.5003 132 53.2003 136.6 53.9003 141.3C54.4003 144.1 56.6003 145.4 58.7003 144.1C60.1003 143.2 60.2003 141.9 60.2003 140.4C60.2003 131 60.2003 121.6 60.2003 112.3C60.2003 110.9 59.8003 109.7 59.0003 108.6C55.7003 103.4 52.5003 98 48.9003 92.9C46.7003 89.8 46.2003 87.2 48.8003 84.3C49.8003 83.2 49.6003 82.5 48.2003 81.8C41.1003 78.2 34.0003 74.6 27.0003 71C25.6003 70.3 25.2003 70.3 24.7003 72C23.1003 78.2 21.3003 84.3 19.6003 90.4C15.0003 107 10.3003 123.7 5.70032 140.3C5.20032 142.1 5.20032 143.7 7.20032 144.4C9.10032 145.1 10.3003 144 11.1003 142.3C11.7003 140.9 12.3003 139.6 12.9003 138.2C18.7003 125.2 24.5003 112.3 30.3003 99.3C31.1003 97.9 31.6003 96.4 33.6003 96.5ZM143.9 141.9C137 130 130.3 118.4 123.6 106.8C121.2 102.7 117.6 102.5 114.8 106.4C111.9 110.3 109 114.3 106.2 118.3C105.1 119.9 103.8 120.8 101.7 120.6C99.5003 120.4 97.2003 120.5 95.0003 120.6C91.0003 120.8 87.2003 121.8 85.6003 125.9C83.5003 131.1 81.9003 136.5 80.1003 141.9C101.4 141.9 122.4 141.9 143.9 141.9ZM70.1003 87C68.3003 80.6 66.6003 74.7 64.9003 68.4C62.3003 72.7 60.0003 76.6 57.6003 80.5C61.6003 82.6 65.6003 84.7 70.1003 87ZM19.5003 61C20.6003 61.6 21.7003 62.1 22.7003 62.7C23.4003 63.1 23.8003 63.1 24.3003 62.3C27.3003 57.7 30.4003 53.1 33.5003 48.5C31.6003 48.4 22.8003 56.2 19.5003 61Z" fill="#4E4B66"/>
<path d="M60.3008 16.1C60.3008 7.2 67.5008 0 76.4008 0C85.3008 0 92.4008 7.3 92.4008 16.2C92.4008 25 85.2008 32.2 76.4008 32.2C67.5008 32.3 60.3008 25 60.3008 16.1ZM86.9008 16C86.9008 10 82.1008 5.4 76.1008 5.4C70.3008 5.4 65.6008 10.1 65.6008 16C65.6008 21.9 70.4008 26.8 76.3008 26.8C82.2008 26.8 87.0008 21.9 86.9008 16Z" fill="#4E4B66"/>
<path d="M113.7 131.401C113.7 132.401 113.8 133.401 113.7 134.401C113.6 135.701 112.8 136.501 111.5 136.601C110.1 136.701 109 136.201 108.7 134.801C108.2 132.501 108.3 130.201 108.7 127.901C109 126.501 110.1 125.901 111.5 126.001C112.8 126.101 113.7 126.801 113.8 128.201C113.8 129.201 113.7 130.301 113.7 131.401Z" fill="#4E4B66"/>
<path d="M127.2 131.3C127.2 132.2 127.2 133.1 127.2 134C127.1 135.5 126.3 136.4 124.7 136.6C123.1 136.7 122.1 135.8 121.9 134.4C121.7 132.4 121.7 130.4 121.9 128.5C122 126.9 123 125.9 124.8 126.1C126.5 126.2 127.2 127.3 127.3 128.9C127.2 129.6 127.2 130.5 127.2 131.3Z" fill="#4E4B66"/>
<path d="M100.3 131.4C100.3 132.3 100.4 133.2 100.3 134.1C100.2 135.6 99.3 136.5 97.8 136.5C96.2 136.5 95.2 135.7 95.2 134.2C95.1 132.2 95.1 130.2 95.2 128.3C95.3 126.7 96.3 126 97.8 126C99.4 126 100.2 126.9 100.3 128.4C100.4 129.4 100.3 130.4 100.3 131.4Z" fill="#4E4B66"/>
</g>
<defs>
<clipPath id="clip0">
<rect width="151.4" height="150.6" fill="white"/>
</clipPath>
</defs>
</svg>
