<svg width="28" height="30" viewBox="0 0 28 30" fill="none" xmlns="http://www.w3.org/2000/svg">
<path d="M10.2093 26.6953V22.6063C10.2093 21.5663 11.0572 20.7212 12.1077 20.7142H15.9558C17.0113 20.7142 17.867 21.5613 17.867 22.6063V22.6063V26.708C17.8668 27.591 18.5787 28.3127 19.4704 28.3334H22.0358C24.5932 28.3334 26.6663 26.281 26.6663 23.7492V23.7492V12.1172C26.6527 11.1212 26.1803 10.1859 25.3836 9.57746L16.61 2.58048C15.0729 1.36217 12.8879 1.36217 11.3509 2.58048L2.61571 9.59016C1.81602 10.1961 1.34286 11.133 1.33301 12.1299V23.7492C1.33301 26.281 3.40617 28.3334 5.96356 28.3334H8.52896C9.44281 28.3334 10.1836 27.6 10.1836 26.6953V26.6953" stroke="#4E4B66" stroke-width="2" stroke-linecap="round" stroke-linejoin="round"/>
</svg>
