<svg width="35" height="42" viewBox="0 0 35 42" fill="none" xmlns="http://www.w3.org/2000/svg">
<path d="M31.6396 14.8894V39.334" stroke="white" stroke-width="5" stroke-miterlimit="10"/>
<path d="M2.6709 22.667V39.3338" stroke="white" stroke-width="5" stroke-miterlimit="10"/>
<path d="M3.22656 39.334H31.6392" stroke="white" stroke-width="5" stroke-miterlimit="10"/>
<path d="M31.6397 14.8892L17.1553 2.66602" stroke="white" stroke-width="5" stroke-miterlimit="10"/>
<path d="M2.6709 14.8892L17.1554 2.66602" stroke="white" stroke-width="5" stroke-miterlimit="10"/>
<path d="M31.6395 16.5554C32.5623 16.5554 33.3103 15.8094 33.3103 14.8893C33.3103 13.9691 32.5623 13.2231 31.6395 13.2231C30.7168 13.2231 29.9688 13.9691 29.9688 14.8893C29.9688 15.8094 30.7168 16.5554 31.6395 16.5554Z" fill="white"/>
<path d="M17.1551 4.33221C18.0779 4.33221 18.8259 3.58627 18.8259 2.66611C18.8259 1.74594 18.0779 1 17.1551 1C16.2324 1 15.4844 1.74594 15.4844 2.66611C15.4844 3.58627 16.2324 4.33221 17.1551 4.33221Z" fill="white"/>
<path d="M2.67077 16.5554C3.5935 16.5554 4.34153 15.8094 4.34153 14.8893C4.34153 13.9691 3.5935 13.2231 2.67077 13.2231C1.74803 13.2231 1 13.9691 1 14.8893C1 15.8094 1.74803 16.5554 2.67077 16.5554Z" fill="white"/>
<path d="M2.67077 24.3332C3.5935 24.3332 4.34153 23.5872 4.34153 22.6671C4.34153 21.7469 3.5935 21.001 2.67077 21.001C1.74803 21.001 1 21.7469 1 22.6671C1 23.5872 1.74803 24.3332 2.67077 24.3332Z" fill="white"/>
<path d="M2.67077 40.9999C3.5935 40.9999 4.34153 40.254 4.34153 39.3338C4.34153 38.4137 3.5935 37.6677 2.67077 37.6677C1.74803 37.6677 1 38.4137 1 39.3338C1 40.254 1.74803 40.9999 2.67077 40.9999Z" fill="white"/>
<path d="M31.6395 40.9999C32.5623 40.9999 33.3103 40.254 33.3103 39.3338C33.3103 38.4137 32.5623 37.6677 31.6395 37.6677C30.7168 37.6677 29.9688 38.4137 29.9688 39.3338C29.9688 40.254 30.7168 40.9999 31.6395 40.9999Z" fill="white"/>
<path d="M25.9424 20.5789C24.2947 25.0282 20.7626 33.4662 16.7493 34.2494C15.8699 34.3969 14.9664 34.2355 14.1931 33.7925C11.6331 32.3529 9.86222 28.2491 8.85938 25.3814C10.4397 27.8057 13.3635 31.2358 17.3152 30.04C21.138 28.8768 24.2119 23.9015 25.9424 20.5789Z" fill="white"/>
</svg>
