<svg width="139" height="42" viewBox="0 0 139 42" fill="none" xmlns="http://www.w3.org/2000/svg">
<path d="M31.6396 14.8894V39.334" stroke="white" stroke-width="5" stroke-miterlimit="10"/>
<path d="M2.6709 22.667V39.3338" stroke="white" stroke-width="5" stroke-miterlimit="10"/>
<path d="M3.22656 39.334H31.6393" stroke="white" stroke-width="5" stroke-miterlimit="10"/>
<path d="M31.6398 14.8893L17.1553 2.66602" stroke="white" stroke-width="5" stroke-miterlimit="10"/>
<path d="M2.6709 14.8893L17.1554 2.66602" stroke="white" stroke-width="5" stroke-miterlimit="10"/>
<path d="M31.6395 16.5554C32.5623 16.5554 33.3103 15.8094 33.3103 14.8893C33.3103 13.9691 32.5623 13.2231 31.6395 13.2231C30.7168 13.2231 29.9688 13.9691 29.9688 14.8893C29.9688 15.8094 30.7168 16.5554 31.6395 16.5554Z" fill="white"/>
<path d="M17.1551 4.33222C18.0779 4.33222 18.8259 3.58628 18.8259 2.66611C18.8259 1.74594 18.0779 1 17.1551 1C16.2324 1 15.4844 1.74594 15.4844 2.66611C15.4844 3.58628 16.2324 4.33222 17.1551 4.33222Z" fill="white"/>
<path d="M2.67077 16.5554C3.59351 16.5554 4.34154 15.8094 4.34154 14.8893C4.34154 13.9691 3.59351 13.2231 2.67077 13.2231C1.74803 13.2231 1 13.9691 1 14.8893C1 15.8094 1.74803 16.5554 2.67077 16.5554Z" fill="white"/>
<path d="M2.67077 24.3332C3.59351 24.3332 4.34154 23.5872 4.34154 22.6671C4.34154 21.7469 3.59351 21.001 2.67077 21.001C1.74803 21.001 1 21.7469 1 22.6671C1 23.5872 1.74803 24.3332 2.67077 24.3332Z" fill="white"/>
<path d="M2.67077 40.9999C3.59351 40.9999 4.34154 40.254 4.34154 39.3338C4.34154 38.4137 3.59351 37.6677 2.67077 37.6677C1.74803 37.6677 1 38.4137 1 39.3338C1 40.254 1.74803 40.9999 2.67077 40.9999Z" fill="white"/>
<path d="M31.6395 40.9999C32.5623 40.9999 33.3103 40.254 33.3103 39.3338C33.3103 38.4137 32.5623 37.6677 31.6395 37.6677C30.7168 37.6677 29.9688 38.4137 29.9688 39.3338C29.9688 40.254 30.7168 40.9999 31.6395 40.9999Z" fill="white"/>
<path d="M135.82 35.445C137.051 35.445 138.049 34.4499 138.049 33.2223C138.049 31.9947 137.051 30.9995 135.82 30.9995C134.589 30.9995 133.591 31.9947 133.591 33.2223C133.591 34.4499 134.589 35.445 135.82 35.445Z" fill="white"/>
<path d="M49.1884 18.5593C50.8142 18.5593 52.0866 19.0264 53.0054 19.9605C53.9241 20.8947 54.3829 22.2012 54.3816 23.8801V33.5601H49.506V25.0126C49.506 24.2755 49.3308 23.7048 48.9805 23.3004C48.6302 22.8935 48.1336 22.692 47.4907 22.692C47.1403 22.6809 46.7922 22.7518 46.4743 22.8992C46.1563 23.0465 45.8775 23.2661 45.6601 23.5404C45.1956 24.1073 44.9633 24.8527 44.9633 25.7766V33.5601H40.0742V13.4055H44.9556V20.6803C45.9232 19.265 47.3341 18.558 49.1884 18.5593Z" fill="white"/>
<path d="M70.306 31.9191C68.847 33.3715 66.9542 34.0977 64.6277 34.0977C62.3012 34.0977 60.4091 33.3715 58.9513 31.9191C57.4948 30.4667 56.7666 28.5888 56.7666 26.2854C56.7666 24.0025 57.4948 22.1349 58.9513 20.6825C60.4078 19.2301 62.2999 18.5032 64.6277 18.502C66.9568 18.502 68.8495 19.2288 70.306 20.6825C71.7625 22.1362 72.4907 24.0038 72.4907 26.2854C72.4907 28.5888 71.7625 30.4667 70.306 31.9191ZM62.4141 29.4238C62.9274 30.1609 63.6653 30.5288 64.6277 30.5275C65.0638 30.5426 65.4969 30.4497 65.8882 30.2571C66.2795 30.0645 66.6169 29.7782 66.8701 29.4238C67.3834 28.7072 67.6401 27.6598 67.6401 26.2816C67.6401 24.9239 67.3796 23.8816 66.8586 23.1548C66.3376 22.4279 65.5946 22.0645 64.6296 22.0645C63.6659 22.0645 62.928 22.4279 62.416 23.1548C61.904 23.8816 61.6474 24.9239 61.6461 26.2816C61.6474 27.6623 61.9034 28.711 62.4141 29.4276V29.4238Z" fill="white"/>
<path d="M92.5861 18.5017C94.176 18.5017 95.4297 18.9829 96.3472 19.9452C97.2647 20.9075 97.7235 22.2377 97.7235 23.9358V33.5601H92.8421V24.8418C92.8421 24.145 92.6804 23.5922 92.3589 23.1872C92.2013 22.9871 91.998 22.8276 91.7659 22.7217C91.5339 22.6159 91.2799 22.5668 91.025 22.5787C90.7055 22.5708 90.3887 22.6382 90.1003 22.7757C89.8119 22.9131 89.5603 23.1166 89.3658 23.3696C88.9385 23.8993 88.7255 24.598 88.7268 25.4656V33.5601H83.8434V24.8418C83.8434 24.145 83.6837 23.5922 83.3622 23.1872C83.2043 22.9874 83.001 22.828 82.769 22.7221C82.537 22.6163 82.2831 22.5672 82.0283 22.5787C81.7061 22.5677 81.386 22.6337 81.0946 22.7713C80.8033 22.9089 80.5492 23.114 80.3537 23.3696C79.9353 23.8993 79.7262 24.598 79.7262 25.4656V33.5601H74.8467V18.9547H79.4451L79.5857 20.7955C80.5519 19.2599 81.9243 18.4954 83.7029 18.5017C85.7458 18.5017 87.1933 19.3335 88.0454 20.9971C89.0848 19.3348 90.5984 18.503 92.5861 18.5017Z" fill="white"/>
<path d="M105.727 17.0871H100.846V13.4075H105.727V17.0871ZM105.727 33.5601H100.846V18.9548H105.727V33.5601Z" fill="white"/>
<path d="M117.646 16.8606H116.283C115.734 16.8606 115.346 16.9783 115.119 17.2138C114.892 17.4492 114.778 17.8222 114.778 18.3328V19.043L117.646 18.9586V22.1852L114.778 22.1008V33.5639H109.901V22.1257L107.716 22.1814V18.9547L109.901 19.0123V18.2445C109.901 15.0172 111.66 13.4042 115.18 13.4055H117.646V16.8606Z" fill="white"/>
<path d="M126.363 28.5503L129.115 18.9529H134.253L128.434 35.8789C127.98 37.1432 127.384 38.0351 126.646 38.5546C125.908 39.0742 124.877 39.3301 123.553 39.3224H120.203V35.3721H122.19C122.598 35.396 123.006 35.3077 123.368 35.1168C123.669 34.9121 123.894 34.6138 124.007 34.2684L124.149 33.8711L118.357 18.9548H123.612L125.851 25.9532L126.363 28.5503Z" fill="white"/>
<path d="M25.9424 20.5786C24.2947 25.028 20.7626 33.466 16.7493 34.2492C15.8699 34.3967 14.9664 34.2352 14.1931 33.7923C11.6331 32.3527 9.86222 28.2489 8.85938 25.3812C10.4397 27.8055 13.3635 31.2356 17.3152 30.0397C21.138 28.8765 24.212 23.9012 25.9424 20.5786Z" fill="white"/>
</svg>
