<svg width="70" height="62" viewBox="0 0 70 62" fill="none" xmlns="http://www.w3.org/2000/svg">
<path d="M60.4514 54.0102C60.2338 55.8381 60.7996 57.5355 61.3218 59.2763C61.4089 59.6245 61.583 59.9291 61.7135 60.2773C62.0617 61.4089 61.4524 62.1487 60.2773 61.9747C55.9687 61.2348 52.7046 59.0152 50.9202 54.9242C50.5285 54.0537 50.0933 53.8361 49.2664 53.8361C45.1754 53.8797 41.0843 53.8797 36.9933 53.8361C33.9903 53.8361 32.6847 52.487 32.6847 49.5275C32.6847 47.9172 32.6847 46.2634 32.6847 44.566C32.38 44.5225 32.1624 44.479 31.9013 44.479C29.5946 44.479 27.288 44.4355 24.9378 44.5225C24.5461 44.5225 23.9804 44.8272 23.7628 45.1753C20.8033 50.0062 16.2771 52.487 10.9674 53.7056C10.5757 53.7926 9.83587 53.6185 9.66178 53.3139C9.44417 52.9657 9.48769 52.2693 9.66178 51.8341C10.2711 50.0933 11.0545 48.3524 11.6638 46.6115C11.8814 46.0023 11.7943 45.3494 11.8379 44.566C11.3591 44.566 10.9674 44.5225 10.5757 44.5225C8.39966 44.5225 6.22358 44.5225 4.0475 44.5225C1.30565 44.479 0 43.1734 0 40.4315C0 28.3325 0 16.19 0 4.09102C0 1.39269 1.34917 0 4.0475 0C21.5432 0 39.0388 0 56.578 0C59.2763 0 60.6255 1.34916 60.6255 4.09102C60.6255 9.31361 60.6255 14.5362 60.6255 19.7588C60.6255 20.1505 60.6255 20.5422 60.6255 21.0644C62.4534 21.0644 64.2378 21.0644 65.9786 21.0644C68.5899 21.0644 69.9391 22.3701 69.9391 24.9814C69.9391 33.294 69.9391 41.6066 69.9391 49.8757C69.9391 52.3999 68.6335 53.7491 66.0657 53.7926C64.2378 53.8361 62.4534 53.8361 60.6255 53.8361C60.6255 53.8797 60.582 53.9232 60.4514 54.0102ZM13.2741 50.6155C16.8864 49.3099 20.0634 47.1773 21.9349 43.478C22.4571 42.4335 23.0664 42.0853 24.198 42.0853C34.9913 42.1288 45.7411 42.1288 56.5345 42.0853C58.0142 42.0853 58.3624 41.7807 58.3624 40.3445C58.3624 28.2455 58.3624 16.1465 58.3624 4.00397C58.3624 2.61128 58.0577 2.30664 56.6215 2.30664C39.1259 2.30664 21.6302 2.30664 4.13455 2.30664C2.74186 2.30664 2.39368 2.61129 2.39368 4.0475C2.39368 16.1465 2.39368 28.2455 2.39368 40.388C2.39368 41.7807 2.74186 42.1288 4.13455 42.1288C6.74584 42.1288 9.35713 42.1288 11.9249 42.1288C13.7963 42.1288 14.2751 42.477 14.1445 44.3049C14.0139 46.4375 13.5787 48.5265 13.2741 50.6155ZM60.669 23.4581C60.669 23.9804 60.669 24.3721 60.669 24.7638C60.669 30.1169 60.669 35.47 60.669 40.8667C60.669 42.9122 59.4069 44.2614 57.3614 44.479C56.9262 44.5225 56.491 44.5225 56.0557 44.5225C49.484 44.5225 42.9122 44.5225 36.3405 44.5225C35.9053 44.5225 35.5136 44.5225 35.0348 44.5225C35.0348 46.3504 35.0348 48.0042 35.0348 49.6581C35.0348 51.1813 35.383 51.486 36.8627 51.5295C41.0843 51.5295 45.3059 51.5295 49.5275 51.5295C51.8341 51.5295 52.2258 51.0508 52.9222 53.7491C53.0963 54.489 53.575 55.1853 54.0537 55.8381C55.2288 57.4484 56.7521 58.58 58.7976 59.1458C58.667 58.667 58.58 58.3624 58.5365 58.0577C58.4059 56.3604 58.2753 54.6195 58.2753 52.9222C58.2753 51.9647 58.8846 51.486 59.9291 51.486C61.8441 51.5295 63.759 51.486 65.674 51.486C67.4148 51.486 67.676 51.2248 67.676 49.484C67.676 41.4325 67.676 33.381 67.676 25.3295C67.676 25.0684 67.676 24.8073 67.676 24.5897C67.6325 23.8498 67.2408 23.4581 66.5009 23.4581C64.586 23.4581 62.7145 23.4581 60.669 23.4581Z" fill="#4E4B66"/>
<path d="M25.6769 23.4151C29.6373 23.4151 33.6413 23.4151 37.6018 23.4151C37.9064 23.4151 38.3417 23.3281 38.5593 23.4587C38.951 23.7198 39.6038 24.1115 39.5603 24.4597C39.5167 24.8949 39.038 25.3736 38.6463 25.6783C38.4287 25.8524 37.95 25.7653 37.6018 25.7653C29.6374 25.7653 21.7164 25.7653 13.752 25.7653C13.6649 25.7653 13.5344 25.7653 13.4473 25.7653C12.6204 25.7653 11.75 25.6783 11.75 24.5902C11.75 23.4587 12.5769 23.4151 13.4473 23.4151C17.5384 23.4151 21.5859 23.4151 25.6769 23.4151Z" fill="#4E4B66"/>
<path d="M23.2844 18.716C19.9767 18.716 16.6256 18.7595 13.3179 18.6724C12.8392 18.6724 12.2299 18.4548 11.9252 18.1067C11.403 17.5409 11.8382 16.6269 12.6216 16.4528C12.9262 16.3658 13.2744 16.4093 13.5791 16.4093C20.0638 16.4093 26.592 16.4093 33.0767 16.4093C33.2943 16.4093 33.5119 16.4093 33.7295 16.4093C34.4694 16.4528 34.9916 16.801 34.9916 17.5844C34.9481 18.3678 34.4259 18.716 33.686 18.716C30.4654 18.716 27.2448 18.716 24.0242 18.716C23.8066 18.716 23.5455 18.716 23.2844 18.716Z" fill="#4E4B66"/>
<path d="M40.7805 18.7137C40.0406 18.7137 39.3443 18.7137 38.6044 18.7137C37.9081 18.7137 37.4293 18.3656 37.3858 17.6257C37.3423 16.8858 37.7775 16.4506 38.5174 16.4506C40.0841 16.4071 41.6074 16.4071 43.1742 16.4506C43.8705 16.4506 44.3492 16.8423 44.3492 17.5822C44.3492 18.322 43.914 18.7137 43.1742 18.7137C42.3472 18.7137 41.5639 18.7137 40.7805 18.7137Z" fill="#4E4B66"/>
<path d="M31.5524 37.4305C31.5524 37.8222 31.5959 38.2139 31.5524 38.6056C31.4653 39.3019 31.0301 39.8677 30.3338 39.6936C29.8986 39.6065 29.3763 39.0408 29.2457 38.6056C29.0717 37.9092 29.1587 37.0823 29.2022 36.3424C29.2457 35.5591 29.6374 35.0803 30.4208 35.1238C31.1607 35.1238 31.5089 35.6026 31.5524 36.3424C31.5524 36.7341 31.5524 37.0823 31.5524 37.4305Z" fill="#4E4B66"/>
<path d="M25.6774 37.4715C25.6774 37.8632 25.808 38.342 25.6339 38.6466C25.3728 39.0818 24.9376 39.6911 24.5459 39.7347C24.1542 39.7347 23.5014 39.1689 23.3708 38.7772C23.1967 37.9503 23.1967 37.0363 23.3708 36.2094C23.4578 35.8177 24.1542 35.252 24.5459 35.252C24.9376 35.252 25.3728 35.8613 25.6339 36.2965C25.808 36.6011 25.6774 37.0363 25.6774 37.4715Z" fill="#4E4B66"/>
<path d="M35.0353 37.4715C35.0353 37.0798 34.9047 36.6011 35.0788 36.2965C35.3399 35.8613 35.7752 35.252 36.1668 35.252C36.5585 35.252 37.2549 35.7742 37.3419 36.2094C37.516 37.0363 37.516 37.9503 37.3419 38.7772C37.2549 39.1689 36.5585 39.7347 36.1668 39.7347C35.7752 39.7347 35.3399 39.1254 35.0788 38.6902C34.9047 38.342 35.0353 37.8632 35.0353 37.4715Z" fill="#4E4B66"/>
<path d="M19.8463 37.428C19.8463 37.8632 19.9768 38.3855 19.8027 38.7337C19.5851 39.1689 19.1499 39.6911 18.7582 39.7347C18.3665 39.7782 17.7137 39.2559 17.6267 38.9078C17.4526 37.9938 17.4526 37.0363 17.6267 36.1224C17.7137 35.7307 18.41 35.252 18.8453 35.252C19.1499 35.252 19.5851 35.8613 19.8027 36.2965C19.9768 36.5576 19.8463 37.0363 19.8463 37.428Z" fill="#4E4B66"/>
<path d="M40.8673 37.4308C40.8673 37.0391 40.7368 36.5604 40.9108 36.2557C41.1284 35.8205 41.5201 35.2547 41.9118 35.2547C42.3035 35.2112 42.9999 35.6899 43.0869 36.0381C43.261 36.9956 43.261 37.9966 43.0869 38.9541C43.0434 39.3022 42.3035 39.781 41.9554 39.781C41.5637 39.7374 41.1284 39.2152 40.9544 38.78C40.7368 38.3447 40.8673 37.866 40.8673 37.4308Z" fill="#4E4B66"/>
<path d="M14.0141 37.4272C14.0141 37.7754 14.0141 38.1671 14.0141 38.5152C14.0141 39.2551 13.6659 39.7338 12.926 39.7773C12.1427 39.8209 11.751 39.2986 11.7074 38.5587C11.6639 37.8189 11.6639 37.0355 11.7074 36.2956C11.751 35.5993 12.1427 35.1641 12.8825 35.1641C13.6224 35.2076 13.9706 35.6428 13.9706 36.3827C14.0141 36.7308 14.0141 37.079 14.0141 37.4272Z" fill="#4E4B66"/>
<path d="M49.0485 37.5149C49.005 37.9501 49.1356 38.4723 48.918 38.777C48.7004 39.1687 48.1346 39.7345 47.8299 39.6909C47.3947 39.6474 46.8289 39.0817 46.7419 38.6464C46.5678 37.9066 46.5678 37.0361 46.7419 36.2963C46.8289 35.8611 47.3077 35.2953 47.7429 35.1647C48.4392 34.9906 48.8744 35.4694 48.9615 36.2092C49.005 36.6444 48.9615 37.0797 48.9615 37.5149C49.005 37.5149 49.0485 37.5149 49.0485 37.5149Z" fill="#4E4B66"/>
<path d="M8.13923 37.5156C8.13923 37.9073 8.26979 38.3861 8.0957 38.6907C7.83457 39.1259 7.39936 39.6482 6.96414 39.6917C6.65949 39.7352 6.00667 39.1259 5.91963 38.7777C5.74554 37.9073 5.74554 36.9498 5.91963 36.0794C6.00667 35.6877 6.61597 35.209 7.00767 35.209C7.39936 35.209 7.8781 35.7312 8.05218 36.1229C8.26979 36.5146 8.13923 37.0804 8.13923 37.5156Z" fill="#4E4B66"/>
<path d="M54.793 37.4725C54.793 37.9077 54.9235 38.43 54.7494 38.7346C54.5318 39.1263 54.0531 39.6486 53.7049 39.6921C53.3132 39.6921 52.7039 39.1699 52.6169 38.8217C52.4428 37.9513 52.4428 36.9938 52.6169 36.1234C52.7039 35.7317 53.3132 35.1659 53.6614 35.2094C54.0966 35.2529 54.5318 35.7752 54.793 36.2104C54.9671 36.5586 54.793 37.0373 54.793 37.4725Z" fill="#4E4B66"/>
</svg>
