<svg width="33" height="32" viewBox="0 0 33 32" fill="none" xmlns="http://www.w3.org/2000/svg">
<path fill-rule="evenodd" clip-rule="evenodd" d="M4.93666 18.3827V18.0907C4.97998 17.2268 5.25999 16.3898 5.74781 15.666C6.55979 14.7965 7.11564 13.7309 7.35703 12.5811C7.35703 11.6925 7.35703 10.7912 7.43553 9.90254C7.84111 5.62439 12.1193 2.6665 16.3451 2.6665H16.4498C20.6756 2.6665 24.9538 5.62439 25.3724 9.90254C25.4509 10.7912 25.3724 11.6925 25.4379 12.5811C25.6825 13.7336 26.2378 14.8024 27.0471 15.6787C27.5386 16.3961 27.819 17.2301 27.8582 18.0907V18.37C27.8874 19.5306 27.4832 20.6623 26.72 21.5564C25.7115 22.6018 24.343 23.2522 22.8736 23.3844C18.5646 23.8414 14.2172 23.8414 9.90823 23.3844C8.44044 23.2465 7.07391 22.597 6.06181 21.5564C5.31042 20.6616 4.9116 19.5366 4.93666 18.3827Z" stroke="#fff" stroke-width="2.5" stroke-linecap="round" stroke-linejoin="round"/>
<path d="M13.1006 27.8022C13.7738 28.6378 14.7625 29.1786 15.8478 29.3048C16.9331 29.4311 18.0256 29.1325 18.8833 28.4751C19.1471 28.2806 19.3845 28.0546 19.5898 27.8022" stroke="#fff" stroke-width="2.5" stroke-linecap="round" stroke-linejoin="round"/>
</svg>
