<svg width="146" height="125" viewBox="0 0 146 125" fill="none" xmlns="http://www.w3.org/2000/svg">
<g clip-path="url(#clip0)">
<path d="M72.7636 125C63.1087 125 53.2184 124.763 43.5636 125C39.5604 125 38.1475 124.053 38.1475 119.791C38.1475 107.481 49.2152 94.4599 63.5797 90.6721C81.0055 86.174 98.4313 93.9865 107.38 109.848C109.735 113.873 108.557 118.371 108.557 122.396C108.557 125.236 105.967 124.763 104.083 124.763C93.4862 125 83.1249 125 72.7636 125ZM72.9991 120.265C81.241 120.265 89.4829 120.265 97.4894 120.265C104.318 120.265 105.731 117.424 102.199 111.505C96.7829 102.272 88.7765 96.5906 77.9442 94.6967C64.5216 92.566 49.6862 99.905 43.5636 112.216C40.7378 117.897 41.9152 120.502 48.0378 120.502C56.5152 120.265 64.7571 120.265 72.9991 120.265Z" fill="#A0A3BD"/>
<path d="M26.3741 91.8565C20.2515 91.8565 14.3644 91.8565 8.24182 91.8565C0.235369 91.8565 -2.11947 87.3583 1.88376 80.0193C11.0676 63.6841 33.9096 60.8432 46.6257 74.811C49.9225 78.3621 52.5128 82.3868 52.0418 87.8318C51.8063 90.9095 50.8644 91.8565 47.8031 91.8565C40.7386 91.8565 33.6741 91.8565 26.3741 91.8565ZM26.1386 87.1216C32.2612 87.1216 38.1483 86.8849 44.2708 87.1216C47.8031 87.3583 48.2741 85.9379 47.0967 82.8602C44.5063 75.9947 35.5579 70.5496 26.845 70.5496C17.8967 70.5496 8.71279 75.758 5.88698 82.8602C4.70956 85.7012 4.94505 87.1216 8.71279 87.1216C14.3644 87.1216 20.2515 87.1216 26.1386 87.1216Z" fill="#A0A3BD"/>
<path d="M119.861 91.8557C113.739 91.8557 107.851 91.8557 101.729 91.8557C94.1934 91.8557 91.8386 87.8311 95.3708 80.7288C103.377 64.6303 125.984 60.8424 139.171 73.3898C143.174 77.1777 146.471 81.2023 146 87.5943C145.764 90.9087 144.587 91.8557 141.29 91.8557C134.226 91.8557 126.926 91.8557 119.861 91.8557ZM120.097 87.1208C126.219 87.1208 132.106 86.8841 138.229 87.1208C141.526 87.1208 141.761 85.7004 140.819 83.0962C138.464 76.2307 129.045 70.5489 120.097 70.5489C111.148 70.5489 101.729 76.2307 99.3741 83.0962C98.4321 85.7004 98.6676 87.1209 101.964 86.8841C108.087 87.1209 114.21 87.1208 120.097 87.1208Z" fill="#A0A3BD"/>
<path d="M73.4703 84.9907C63.109 84.9907 54.3961 76.468 54.6316 66.0513C54.6316 55.8714 63.109 47.3486 72.9994 47.3486C83.3606 47.3486 92.0735 55.8714 92.0735 66.288C92.0735 76.2312 83.3606 84.7539 73.4703 84.9907ZM72.9994 51.8467C65.4639 51.8467 58.8703 58.4755 59.1058 66.288C59.3413 73.627 65.6994 80.0191 72.9994 80.0191C80.5348 80.0191 87.1284 73.627 87.1284 66.0513C87.3639 58.4755 80.7703 51.8467 72.9994 51.8467Z" fill="#A0A3BD"/>
<path d="M26.3744 63.6836C17.426 63.6836 10.126 56.1078 10.126 47.3484C10.126 38.1154 17.6615 30.5397 26.8453 30.7764C35.5582 31.0131 43.0937 38.5889 43.0937 47.3484C42.6227 56.1078 35.0873 63.6836 26.3744 63.6836ZM38.1486 47.3484C38.1486 41.1931 33.2034 35.748 26.8453 35.5112C20.4873 35.2745 14.8357 40.7196 14.6002 47.1116C14.6002 53.2669 19.5453 58.712 25.9034 58.9487C32.2615 59.1855 37.9131 53.7404 38.1486 47.3484Z" fill="#A0A3BD"/>
<path d="M120.097 63.6836C111.149 63.6836 103.849 56.3446 103.849 47.3484C103.849 38.1154 111.384 30.5397 120.568 30.7764C129.281 30.7764 136.816 38.5889 136.816 47.3484C136.345 56.1078 128.81 63.6836 120.097 63.6836ZM131.871 47.5851C132.107 41.4298 127.162 35.748 121.039 35.5112C114.681 35.0378 108.794 40.2461 108.558 46.8749C108.323 53.2669 113.739 58.9487 120.097 59.1855C126.22 58.9487 131.636 53.7404 131.871 47.5851Z" fill="#A0A3BD"/>
<path d="M53.2184 30.7766C44.741 30.7766 38.1475 23.6743 38.1475 15.3883C38.1475 6.86561 44.9765 0.236816 53.4539 0.236816C61.6958 0.236816 68.7604 7.33909 68.5249 15.6251C68.5249 23.9111 61.4604 30.7766 53.2184 30.7766ZM63.8152 15.1516C63.5797 9.46977 58.87 4.73492 53.2184 4.73492C47.3313 4.73492 42.6217 9.94326 42.8571 15.8618C43.0926 21.5436 48.2733 26.0417 53.6894 25.805C59.341 25.5683 64.0507 20.5967 63.8152 15.1516Z" fill="#A0A3BD"/>
<path d="M93.2518 0C101.494 0 108.323 7.10227 108.323 15.3883C108.323 23.6742 101.258 30.7765 93.0163 30.7765C84.5389 30.7765 77.9453 23.911 77.9453 15.3883C77.9453 6.86553 84.7743 0 93.2518 0ZM93.2518 25.8049C98.9034 25.8049 103.613 20.8333 103.613 15.1515C103.613 9.4697 98.4324 4.49811 92.7808 4.73485C87.1292 4.97159 82.4195 9.94318 82.655 15.625C82.8905 21.3068 87.8356 26.0417 93.2518 25.8049Z" fill="#A0A3BD"/>
<path d="M72.9998 120.265C64.7578 120.265 56.5159 120.265 48.5094 120.265C42.3869 120.265 40.974 117.898 44.0353 111.979C50.1578 99.9056 64.9933 92.3298 78.4159 94.4605C89.0127 96.3545 97.0191 102.036 102.671 111.269C106.203 117.425 104.79 120.029 97.9611 120.029C89.4836 120.265 81.2417 120.265 72.9998 120.265ZM52.0417 111.033C52.0417 112.69 51.5707 115.294 54.3965 115.294C57.2224 115.294 56.7514 112.926 56.7514 111.033C56.7514 109.139 57.4578 106.061 54.1611 106.298C51.5707 106.298 52.2772 109.139 52.0417 111.033ZM68.5256 110.796C68.5256 108.902 68.9965 106.534 66.4062 106.298C63.5804 106.061 63.8159 108.428 63.8159 110.559C63.8159 112.453 63.1094 115.294 66.1707 115.531C68.9965 115.294 68.5256 112.69 68.5256 110.796ZM82.6546 111.033C82.4191 109.139 83.3611 106.298 80.0643 106.298C77.7094 106.298 77.7094 108.428 77.9449 110.322C78.1804 112.216 77.003 115.057 80.0643 115.294C82.8901 115.531 82.6546 112.926 82.6546 111.033ZM94.4288 110.796C94.4288 108.902 94.8998 106.534 92.3094 106.298C89.4836 106.061 89.7191 108.428 89.7191 110.559C89.7191 112.453 89.0127 115.294 92.074 115.531C94.6643 115.294 94.1933 112.69 94.4288 110.796Z" fill="#FCFCFC"/>
<path d="M26.1382 87.1208C20.2511 87.1208 14.364 86.8841 8.71239 87.1208C4.94464 87.3575 4.94464 85.7003 5.88658 82.8594C8.71239 75.7572 17.6608 70.5488 26.8446 70.5488C35.5575 70.5488 44.5059 75.9939 47.0963 82.8594C48.2737 85.7003 47.8027 87.1208 44.2704 87.1208C38.1479 87.1208 32.0253 87.1208 26.1382 87.1208Z" fill="#FBFBFB"/>
<path d="M120.096 87.1209C113.973 87.1209 108.086 86.8841 101.964 87.1209C98.667 87.1209 98.4315 85.7004 99.3734 83.333C101.728 76.4675 111.148 70.7856 120.096 70.7856C129.044 70.7856 138.464 76.4675 140.819 83.333C141.761 85.7004 141.525 87.3576 138.228 87.3576C132.106 87.1209 126.219 87.1209 120.096 87.1209Z" fill="#FBFBFB"/>
<path d="M73 51.8467C80.5355 51.8467 87.129 58.2387 87.129 66.0512C87.129 73.627 80.5355 80.2558 73 80.019C65.7 80.019 59.3419 73.627 59.1064 66.288C59.1064 58.7122 65.4645 52.0834 73 51.8467Z" fill="#FBFBFB"/>
<path d="M38.148 47.349C38.148 53.741 32.2609 59.1861 25.9028 58.9493C19.7803 58.7126 14.5996 53.2675 14.5996 47.1122C14.5996 40.7202 20.2512 35.2751 26.8448 35.5118C32.9674 35.7486 38.148 41.1937 38.148 47.349Z" fill="white"/>
<path d="M131.871 47.585C131.636 53.7403 126.219 58.9486 120.097 58.9486C113.739 58.9486 108.323 53.2668 108.558 46.638C108.794 40.246 114.681 35.0376 121.039 35.2744C126.926 35.9846 132.107 41.4297 131.871 47.585Z" fill="white"/>
<path d="M63.8163 15.1515C64.0518 20.8334 59.3421 25.8049 53.6905 26.0417C48.0389 26.2784 43.0937 21.7803 42.8582 16.0985C42.3873 10.1799 47.3324 4.97161 53.2195 4.73486C58.8711 4.73486 63.5808 9.46971 63.8163 15.1515Z" fill="white"/>
<path d="M93.2508 25.8048C87.5991 25.8048 82.8895 21.0699 82.654 15.6248C82.4185 9.94302 87.1282 4.97143 92.7798 4.73468C98.4314 4.49794 103.612 9.46953 103.612 15.3881C103.612 21.0699 98.9024 25.8048 93.2508 25.8048Z" fill="white"/>
<path d="M52.042 111.032C52.2775 109.138 51.571 106.534 54.1613 106.297C57.4581 106.06 56.5162 109.138 56.7517 111.032C56.7517 112.926 57.2226 115.53 54.3968 115.293C51.571 115.293 52.2775 112.689 52.042 111.032Z" fill="#A0A3BD"/>
<path d="M68.5252 110.795C68.5252 112.689 68.9962 115.293 66.1704 115.293C63.1091 115.293 63.8156 112.452 63.8156 110.321C63.8156 108.427 63.5801 105.823 66.4059 106.06C68.9962 106.533 68.5252 109.138 68.5252 110.795Z" fill="#A0A3BD"/>
<path d="M82.6548 111.032C82.6548 112.926 82.8903 115.53 80.3 115.293C77.2387 115.056 78.1806 112.215 78.1806 110.321C78.1806 108.664 77.9452 106.297 80.3 106.297C83.3613 106.297 82.4194 109.138 82.6548 111.032Z" fill="#A0A3BD"/>
<path d="M94.4286 110.795C94.4286 112.689 94.8995 115.293 92.0737 115.293C89.0124 115.293 89.7189 112.452 89.7189 110.321C89.7189 108.427 89.4834 105.823 92.3092 106.06C94.8995 106.533 94.1931 109.138 94.4286 110.795Z" fill="#A0A3BD"/>
</g>
<defs>
<clipPath id="clip0">
<rect width="146" height="125" fill="white"/>
</clipPath>
</defs>
</svg>
