<svg width="67" height="66" viewBox="0 0 67 66" fill="none" xmlns="http://www.w3.org/2000/svg">
<path d="M32.3216 45.6545C30.8143 47.1618 29.307 48.669 27.8859 50.2194C27.6275 50.4778 27.4983 50.9515 27.4983 51.3391C27.7567 57.9282 22.8041 63.742 16.3443 64.4311C9.49684 65.1632 3.33845 60.5982 2.26181 53.9231C0.969839 46.1282 6.99903 39.0654 14.9231 39.1515C15.6983 39.1515 16.2581 38.9793 16.7749 38.4194C19.0574 36.0939 21.383 33.8114 23.7946 31.4428C23.4932 31.0983 23.2348 30.8399 22.9764 30.5815C19.4019 26.8778 15.6983 23.2603 12.1238 19.5567C11.0041 18.3939 9.7983 17.5756 8.20487 17.4034C6.65451 17.2742 5.70706 16.4559 4.93188 15.164C3.55378 12.9246 2.08955 10.7282 0.625313 8.48879C-0.322131 7.02456 -0.192934 6.12018 1.0129 4.87127C3.8983 1.94281 3.8983 1.94281 7.34356 4.18222C9.19538 5.38806 10.9611 6.5939 12.856 7.71361C14.0187 8.40266 14.7508 9.3501 14.837 10.6851C14.9662 12.3647 15.7844 13.5705 16.9472 14.6902C20.6078 18.2647 24.2253 21.9253 27.8428 25.5428C28.1012 25.8012 28.3165 26.1457 28.618 26.5333C30.7713 24.38 32.7523 22.399 34.7333 20.3318C34.9056 20.1596 34.9056 19.6859 34.8625 19.3844C34.6472 18.0494 34.3027 16.7143 34.1735 15.3793C33.7859 12.1494 34.6472 9.2209 36.8866 6.85229C41.2362 2.3304 46.5333 -0.124344 52.9501 0.00485299C53.7253 0.00485299 54.5005 0.220181 55.2756 0.392444C56.6107 0.736969 56.826 1.68441 55.8355 2.67492C53.6822 4.82821 51.572 7.02456 49.3756 9.13477C48.6866 9.82382 48.5143 10.4698 48.7727 11.4173C49.6771 14.9486 51.9165 17.0589 55.4479 17.9202C56.2231 18.0924 56.7829 18.0063 57.3859 17.4034C59.4961 15.207 61.6494 13.0537 63.8457 10.9435C64.2333 10.5559 64.9223 10.2545 65.3961 10.3406C65.7837 10.4267 66.1282 11.1158 66.3004 11.5895C66.9895 13.9151 66.7742 16.2837 66.2143 18.5662C65.4391 21.753 64.018 24.5953 62.08 27.1793C58.5056 31.8734 53.8545 33.3807 48.2129 31.8304C46.964 31.4859 46.1457 31.615 45.3705 32.6056C44.7246 33.4238 43.9063 34.0698 43.1311 34.7588C46.7486 37.0844 49.2895 40.4004 52.218 43.2428C55.2326 46.1282 58.118 49.0566 61.0464 52.0712C63.1567 54.2245 63.1997 57.5406 61.1756 59.78C59.9698 61.115 58.7209 62.3639 57.3859 63.5698C55.1464 65.5939 51.7873 65.5508 49.591 63.3975C44.337 58.2296 39.126 52.9756 33.9581 47.7647C33.3122 47.2479 32.9246 46.4727 32.3216 45.6545ZM52.9501 2.3304C52.261 2.3304 51.9165 2.3304 51.572 2.3304C46.5333 2.67492 42.2267 4.69901 38.7815 8.31653C36.8435 10.3837 36.0684 12.9246 36.5421 15.7238C36.7574 16.9297 36.9727 18.1355 37.3173 19.2552C37.6187 20.2888 37.4465 20.9778 36.6713 21.753C30.4268 27.9975 24.1822 34.2421 17.9377 40.5296C17.2056 41.2618 16.5165 41.5202 15.483 41.4771C8.54939 41.1756 3.59684 46.688 4.58735 53.5355C5.36254 58.9617 10.5304 62.7085 16.3012 62.0625C21.4691 61.4596 25.6895 56.2486 25.1297 51.0377C25.0435 50.0471 25.2589 49.4442 25.9479 48.7552C31.9771 42.7691 38.0494 36.7399 43.9924 30.6676C45.2844 29.3326 46.4902 28.6435 48.2559 29.5479C48.5143 29.6771 48.8158 29.6771 49.0742 29.7632C52.864 30.6676 56.2661 30.1077 59.0224 27.1362C61.7355 24.2078 63.4581 20.7625 64.1041 16.8005C64.2764 15.853 64.2764 14.9056 64.3625 13.9151C64.2764 13.872 64.1472 13.872 64.061 13.8289C62.2953 15.5946 60.5296 17.4034 58.764 19.1691C57.8596 20.1165 56.7399 20.5041 55.4479 20.2457C50.7107 19.2552 47.61 16.5421 46.4472 11.7187C46.0165 10.0392 46.318 8.70412 47.5669 7.54134C49.3326 5.94791 51.0121 4.26835 52.9501 2.3304ZM53.4669 63.053C54.3713 62.5793 55.2756 62.2778 55.9216 61.7179C56.9552 60.8566 57.8596 59.8231 58.807 58.8756C60.6588 57.0238 60.6588 55.1289 58.807 53.2771C53.8975 48.3676 48.9881 43.4581 44.0786 38.5486C43.734 38.2041 43.3465 37.8165 42.9158 37.6012C41.4085 36.8691 40.8917 36.9983 39.9873 37.9457C38.437 39.6253 36.8005 41.2187 35.1209 42.8121C34.6041 43.3289 34.3457 43.8888 34.6041 44.5347C34.8625 45.1807 35.1209 45.8698 35.5946 46.3866C40.6764 51.5114 45.7581 56.6362 50.926 61.7179C51.6151 62.2778 52.5625 62.5793 53.4669 63.053ZM4.1567 4.82821C3.81217 5.25886 3.46765 5.77565 3.03699 6.12018C2.39101 6.63696 2.43407 7.06762 2.86473 7.71361C4.28589 9.82382 5.664 12.0202 7.08516 14.1735C7.25743 14.4749 7.51582 14.7764 7.77421 14.9486C9.71217 15.81 10.6596 15.6377 12.1669 14.1304C12.21 14.0873 12.253 14.0443 12.3392 13.9581C13.1574 13.1399 12.9421 10.5559 11.9516 9.86689C9.41071 8.23039 6.86983 6.5939 4.1567 4.82821ZM26.7662 28.299C22.5457 24.0355 18.2822 19.8151 14.1049 15.6377C13.7603 15.9391 13.2436 16.4129 12.8129 16.7574C17.0764 21.064 21.3399 25.2844 25.5173 29.4618C25.991 29.0311 26.5078 28.5574 26.7662 28.299Z" fill="#4E4B66"/>
<path d="M21.2105 50.435C20.6507 52.4161 20.177 54.2679 19.6171 56.0766C19.531 56.3781 19.0573 56.5934 18.7127 56.7226C17.1193 57.1963 15.5689 57.627 13.9755 57.9715C13.5449 58.0577 12.8989 57.8854 12.5544 57.5839C11.3485 56.4642 10.1857 55.3015 9.06603 54.0956C8.76457 53.7511 8.63538 53.1051 8.72151 52.6744C9.06603 51.1241 9.45362 49.5307 9.97041 48.0234C10.1427 47.5496 10.6595 47.0328 11.1762 46.8606C12.6405 46.3438 14.1908 45.9562 15.6981 45.6547C16.1719 45.5686 16.8609 45.6978 17.2485 46.0423C18.4974 47.119 19.6171 48.3248 20.7368 49.5307C20.9091 49.746 21.0383 50.1766 21.2105 50.435ZM18.5835 51.2533C18.6697 50.5212 16.2149 48.0234 15.5689 48.0664C15.4828 48.0664 15.3536 48.1095 15.2675 48.1095C12.0806 48.7985 12.0806 48.7985 11.2624 51.9854C11.2624 52.0715 11.2193 52.1146 11.1762 52.2007C11.004 52.9759 13.4157 55.689 14.1908 55.6029C14.2339 55.6029 14.277 55.6029 14.277 55.5598C15.2244 55.3015 16.2149 55.0431 17.1624 54.7416C17.3777 54.6555 17.6792 54.4401 17.7222 54.2248C18.0668 53.2343 18.3251 52.2007 18.5835 51.2533Z" fill="#4E4B66"/>
<path d="M51.2273 24.8959C50.9259 25.2835 50.7967 25.7142 50.4952 25.8434C50.1507 25.9726 49.677 25.9295 49.2894 25.8003C48.9448 25.6711 48.6865 25.2835 48.4281 25.0251C46.0594 22.6565 43.6908 20.2879 41.2792 17.9193C40.6762 17.3164 40.2886 16.6704 40.9346 15.9813C41.6237 15.2492 42.2697 15.6368 42.8726 16.2397C45.4135 18.7806 47.9113 21.2784 50.4521 23.8193C50.7536 24.0777 50.9259 24.4653 51.2273 24.8959Z" fill="#4E4B66"/>
<path d="M40.2889 29.3749C39.9013 29.2026 39.5568 29.1596 39.3845 28.9873C38.7816 28.4275 38.1787 27.8676 37.6619 27.2647C37.1882 26.7479 37.1882 26.0589 37.7911 25.6713C38.1787 25.4559 38.9108 25.4559 39.2984 25.6713C39.9874 26.1019 40.5473 26.7479 41.021 27.3939C41.2363 27.6523 41.2794 28.2121 41.1933 28.5567C41.021 28.9012 40.5904 29.1165 40.2889 29.3749Z" fill="#4E4B66"/>
<path d="M36.1544 33.4671C35.7668 33.2948 35.4654 33.2087 35.25 33.0364C34.6471 32.4766 34.0011 31.9598 33.5705 31.2707C33.3552 30.9262 33.3982 30.0649 33.6566 29.8065C33.915 29.5481 34.7763 29.5051 35.1209 29.7634C35.8099 30.1941 36.3698 30.8401 36.8435 31.4861C37.0588 31.7875 37.1449 32.3474 37.0157 32.735C36.9296 33.0364 36.4559 33.2087 36.1544 33.4671Z" fill="#4E4B66"/>
<path d="M32.0632 37.5584C31.6756 37.3861 31.3741 37.3431 31.1588 37.1278C30.5559 36.5679 29.9099 36.0511 29.4792 35.3621C29.2639 35.0175 29.2639 34.1562 29.5654 33.8978C29.8238 33.6394 30.6851 33.5964 31.0296 33.8117C31.7186 34.2854 32.3216 34.9314 32.8384 35.5774C33.0537 35.8358 33.0967 36.3956 32.9675 36.7402C32.7953 37.0847 32.3646 37.3 32.0632 37.5584Z" fill="#4E4B66"/>
<path d="M27.9721 41.6063C27.5845 41.434 27.2831 41.3479 27.0677 41.1756C26.4648 40.6588 25.905 40.099 25.3882 39.496C24.9145 38.9793 24.8714 38.2902 25.4743 37.9026C25.8619 37.6873 26.594 37.6442 26.9816 37.9026C27.6707 38.3333 28.2305 38.9793 28.7042 39.6252C28.9196 39.8836 28.9626 40.4435 28.8334 40.788C28.7473 41.1756 28.2736 41.3479 27.9721 41.6063Z" fill="#4E4B66"/>
<path d="M23.838 45.6973C23.4504 45.5251 23.149 45.3959 22.8906 45.2236C22.3307 44.7068 21.6847 44.19 21.2541 43.501C21.0388 43.1564 21.0818 42.3813 21.3402 42.0798C21.5986 41.8214 22.4169 41.6922 22.7183 41.9075C23.4504 42.4243 24.1395 43.1134 24.6993 43.8455C24.9147 44.1039 24.8716 44.6637 24.6993 45.0083C24.6132 45.3097 24.1395 45.482 23.838 45.6973Z" fill="#4E4B66"/>
<path d="M42.6139 43.3301C42.5708 42.1674 43.4321 41.6075 44.2073 41.9951C44.4657 42.1243 44.7241 42.3827 44.9394 42.598C48.4708 46.1294 52.0022 49.6608 55.5336 53.1922C55.7489 53.4075 56.0934 53.6659 56.0934 53.9243C56.1365 54.3549 56.0934 55.0009 55.835 55.2593C55.5766 55.5177 54.9306 55.4316 54.5 55.3454C54.2846 55.3024 54.0693 55.0009 53.854 54.7856C50.3226 51.2973 46.8343 47.7659 43.346 44.2776C43.0014 43.933 42.7431 43.5455 42.6139 43.3301Z" fill="#4E4B66"/>
<path d="M52.9928 57.4103C52.9928 58.5731 52.1315 59.0899 51.3563 58.7023C51.0979 58.5731 50.8826 58.3577 50.7103 58.1424C47.1359 54.568 43.6045 51.0366 40.03 47.4621C39.7716 47.2037 39.4702 46.9023 39.4271 46.6008C39.384 46.2132 39.5132 45.6103 39.7716 45.395C40.03 45.1797 40.6329 45.2227 41.0205 45.3088C41.2789 45.3519 41.5373 45.6964 41.7527 45.9118C45.284 49.4001 48.7724 52.9315 52.2607 56.4629C52.5621 56.8074 52.8205 57.238 52.9928 57.4103Z" fill="#4E4B66"/>
</svg>
