<svg width="75" height="65" viewBox="0 0 75 65" fill="none" xmlns="http://www.w3.org/2000/svg">
<path d="M69.6769 33.6685C69.6769 37.5683 69.6769 41.4248 69.6769 45.3247C69.6769 46.0613 69.8069 46.3646 70.6302 46.3646C72.9268 46.3646 74.2701 47.7946 74.3134 50.0911C74.3134 52.301 74.3134 54.4676 74.3134 56.6775C74.3134 58.8007 72.8401 60.274 70.7169 60.274C67.597 60.274 64.4338 60.3173 61.314 60.274C60.534 60.274 60.3173 60.4907 60.404 61.2273C60.4473 61.7039 60.4473 62.2239 60.3607 62.7439C60.2307 64.0438 59.5374 64.7371 58.2374 64.9105C56.3742 65.1704 54.6843 64.9538 53.731 63.0472C52.6043 60.7507 50.8278 60.0574 48.2712 60.2307C44.718 60.4907 41.1648 60.3173 37.5683 60.274C36.9617 60.274 36.7017 60.4473 36.4417 60.9673C35.1418 63.5239 33.0185 64.9105 30.1587 64.9105C27.3421 64.9105 25.2189 63.5672 23.9623 61.0106C23.7023 60.4907 23.4423 60.1873 22.8357 60.274C22.5323 60.3173 22.1857 60.3173 21.8824 60.274C20.9724 60.144 20.4524 60.4473 20.0191 61.3573C18.7625 63.7405 16.6393 64.9538 13.9527 64.9105C11.1795 64.8671 9.05627 63.6105 7.79966 61.0973C7.453 60.4473 7.10635 60.274 6.41305 60.274C3.68317 60.3173 2.38323 58.9741 2.38323 56.2442C2.38323 54.2076 2.42656 52.1277 2.38323 50.0911C2.3399 48.6179 2.90321 47.4912 4.20315 46.7979C4.72312 46.5379 4.67979 46.148 4.67979 45.7146C4.67979 37.7417 4.67979 29.7254 4.67979 21.7524C4.67979 20.9724 4.50647 20.7558 3.76983 21.1024C3.37985 21.2757 2.94654 21.3624 2.51322 21.4057C1.12662 21.4924 0.0866628 20.5824 0.0433314 19.1958C0 17.8525 0 16.4226 0 15.036C0 13.5627 0.519977 12.8694 1.86325 12.3928C5.54642 11.0928 9.22959 9.74957 12.9128 8.49296C13.6927 8.23297 13.996 7.88632 13.9094 7.06302C13.8227 5.9364 13.9094 4.85312 13.9094 3.7265C13.9094 2.9032 14.256 2.25323 15.166 2.29657C15.9893 2.3399 16.2926 2.94654 16.2493 3.7265C16.206 4.67979 16.2493 5.67642 16.2493 6.62971C16.2493 7.10635 16.3793 7.23635 16.8559 7.10635C18.5892 6.62971 18.5892 6.62971 18.5892 4.80979C18.5892 3.63984 18.5892 2.42656 18.5892 1.25661C18.5892 0.476646 18.9792 0 19.7591 0C20.5391 0 20.9291 0.519977 20.9724 1.25661C21.0157 2.2099 20.9724 3.20652 20.9724 4.15982C20.9724 5.67642 20.9724 5.67642 22.3157 5.15644C26.2588 3.7265 30.2887 2.3399 34.2318 0.866628C36.2251 0.129994 38.0883 0.129994 40.0816 0.866628C50.7844 4.72312 61.5306 8.49296 72.2335 12.3061C73.9234 12.9128 74.3134 13.4761 74.3134 15.2527C74.3134 16.4659 74.3134 17.6792 74.3134 18.9358C74.3134 20.9291 72.8835 21.9257 70.9769 21.3191C69.6769 20.8857 69.6769 20.8857 69.6769 22.229C69.6769 26.0422 69.6769 29.8554 69.6769 33.6685ZM25.6089 46.3646C31.4153 46.3646 37.1784 46.3646 42.9848 46.3646C43.8514 46.3646 44.1114 46.1913 44.1114 45.2813C44.0681 39.9949 44.0681 34.7085 44.0681 29.422C44.0681 26.8655 45.4547 25.5222 48.0112 25.4789C50.8711 25.4789 53.7743 25.4789 56.6342 25.4789C57.6308 25.4789 58.4974 25.6955 59.1907 26.3888C60.1007 27.2121 60.3607 28.3387 60.3607 29.5087C60.3607 34.7951 60.3607 40.0816 60.3173 45.368C60.3173 46.1913 60.534 46.408 61.3573 46.3646C62.9606 46.3213 64.6071 46.278 66.2104 46.3646C67.1204 46.408 67.337 46.1046 67.337 45.238C67.2937 37.1784 67.2937 29.1187 67.337 21.0591C67.337 20.3224 67.1637 19.9325 66.3837 19.6725C57.1108 16.4226 47.8812 13.1294 38.6516 9.83623C37.6117 9.44625 36.5717 9.48958 35.4884 9.87956C26.2588 13.1728 17.0292 16.4659 7.75632 19.7158C7.01969 19.9758 6.8897 20.3224 6.8897 21.0157C6.93303 29.1187 6.93303 37.2217 6.8897 45.3247C6.8897 46.278 7.23635 46.408 8.05964 46.408C13.9527 46.3213 19.7591 46.3646 25.6089 46.3646ZM38.2183 48.6612C27.6454 48.6612 17.0726 48.6612 6.49971 48.6612C4.98311 48.6612 4.67979 48.9645 4.67979 50.4811C4.67979 52.4743 4.67979 54.4243 4.67979 56.4175C4.67979 57.2841 4.93978 57.8041 5.9364 57.9774C7.06302 58.1508 7.01969 57.4141 7.14968 56.7208C7.75632 53.4276 10.5729 51.0444 13.8661 51.0011C17.4626 50.9578 20.2358 53.341 20.8424 57.1541C21.0591 58.4108 21.839 57.8041 22.4023 57.9341C23.0523 58.0641 23.2256 57.7608 23.3123 57.1108C23.7456 53.601 26.6055 51.0011 30.072 51.0011C33.6685 50.9578 36.6151 53.5143 37.0917 57.1541C37.1784 57.8041 37.3084 57.9774 37.9583 57.9774C48.7912 57.9774 59.624 57.9774 70.4569 57.9774C71.6268 57.9774 71.9302 57.6741 71.9302 56.5042C71.9302 54.5543 71.9302 52.6043 71.9302 50.6978C71.9302 48.9645 71.7135 48.7045 69.9369 48.7045C59.364 48.6612 48.7912 48.6612 38.2183 48.6612ZM71.9302 19.1525C71.9302 17.9825 71.8435 16.9426 71.9302 15.946C72.0168 14.9927 71.7135 14.6027 70.8035 14.2994C60.2307 10.5295 49.6578 6.80303 39.0416 2.98987C37.7417 2.51322 36.5717 2.51322 35.2718 2.98987C25.0456 6.62971 14.776 10.2695 4.5498 13.9094C2.3399 14.6894 2.3399 14.6894 2.3399 17.0726C2.3399 17.3759 2.38323 17.7226 2.3399 18.0259C2.2099 18.9792 2.46989 19.1525 3.42318 18.8492C13.8227 15.0793 24.2656 11.4395 34.6651 7.66966C36.3551 7.06302 37.915 7.06302 39.6049 7.62633C47.5346 10.4862 55.5075 13.3027 63.4372 16.1193C66.2537 17.1159 69.027 18.1125 71.9302 19.1525ZM46.4513 37.395C46.4513 40.1249 46.4513 42.8548 46.4513 45.5847C46.4513 46.148 46.5379 46.408 47.1879 46.3646C50.5244 46.3213 53.861 46.3213 57.2408 46.3646C57.8908 46.3646 58.1074 46.1913 58.1074 45.5413C58.0641 40.1682 58.1074 34.7518 58.1074 29.3787C58.1074 28.2088 57.7175 27.8621 56.5475 27.8621C53.6876 27.8621 50.8711 27.8621 48.0112 27.8621C46.7979 27.8621 46.4946 28.2088 46.4946 29.422C46.4513 32.0653 46.4513 34.7085 46.4513 37.395ZM30.202 53.341C27.6021 53.341 25.5222 55.4209 25.5655 57.9774C25.6089 60.4907 27.6454 62.5706 30.1587 62.6139C32.7152 62.6572 34.7951 60.5773 34.8385 57.9774C34.7951 55.3775 32.8019 53.3843 30.202 53.341ZM13.9527 53.341C11.3528 53.341 9.27292 55.3776 9.27292 57.9341C9.27292 60.4907 11.4395 62.6139 13.9527 62.5706C16.4659 62.5272 18.5892 60.404 18.5458 57.8474C18.5458 55.4209 16.5093 53.3843 13.9527 53.341ZM54.5976 60.274C55.1609 61.0106 55.5942 61.5739 56.0275 62.1806C56.5042 62.8739 57.1975 62.6572 57.8041 62.5706C58.3674 62.4839 58.0208 61.8773 58.1074 61.4873C58.2808 60.534 57.9341 60.144 56.9375 60.274C56.2009 60.3607 55.4642 60.274 54.5976 60.274Z" fill="#4E4B66"/>
<path d="M25.5223 39.3879C22.8791 39.3879 20.2792 39.3879 17.636 39.3879C15.3827 39.3879 13.9961 38.0446 13.9095 35.7914C13.8661 33.5815 13.8661 31.3283 13.9095 29.1184C13.9528 26.8218 15.3827 25.4785 17.6793 25.4785C22.8791 25.4785 28.1222 25.4785 33.3219 25.4785C35.7485 25.4785 37.1351 26.8651 37.1351 29.2917C37.1351 31.4582 37.1351 33.6248 37.1351 35.7481C37.1351 37.8713 35.7485 39.3446 33.5819 39.3879C30.8954 39.3879 28.2088 39.3879 25.5223 39.3879ZM25.5223 27.8184C22.9657 27.8184 20.4092 27.8184 17.8526 27.8184C16.596 27.8184 16.206 28.1651 16.206 29.3783C16.206 31.4149 16.206 33.4948 16.206 35.5314C16.206 36.658 16.596 37.048 17.6793 37.048C22.8791 37.048 28.0788 37.048 33.3219 37.048C34.4485 37.048 34.7519 36.7014 34.7519 35.5314C34.7519 33.5382 34.7519 31.5016 34.7519 29.5083C34.7519 28.0351 34.5352 27.8617 33.0186 27.8617C30.592 27.8184 28.0355 27.8184 25.5223 27.8184Z" fill="#4E4B66"/>
<path d="M42.9851 53.2541C42.9851 52.8641 42.9851 52.4742 42.9851 52.0842C43.0284 51.4775 43.4184 51.0876 43.9817 51.0009C44.5883 50.9142 45.065 51.2175 45.195 51.8242C45.4116 52.8208 45.4116 53.8174 45.195 54.8141C45.065 55.4207 44.5883 55.6807 43.9817 55.6374C43.3751 55.5507 42.9851 55.204 42.9851 54.5974C42.9417 54.1208 42.9851 53.6874 42.9851 53.2541Z" fill="#4E4B66"/>
<path d="M48.7907 53.3406C48.7907 52.9073 48.7474 52.474 48.7907 52.0407C48.8341 51.434 49.2241 51.044 49.8307 51.0007C50.4373 50.9574 50.914 51.2174 51.0006 51.8673C51.174 52.8206 51.174 53.7739 51.0006 54.7705C50.914 55.3772 50.4373 55.6805 49.8307 55.6372C49.2241 55.5938 48.8341 55.2905 48.7907 54.6405C48.7474 54.2072 48.7907 53.7739 48.7907 53.3406Z" fill="#4E4B66"/>
<path d="M62.6573 53.2971C62.6573 53.7304 62.6573 54.1637 62.6573 54.597C62.614 55.247 62.224 55.5503 61.6173 55.5937C61.0107 55.637 60.534 55.377 60.4474 54.727C60.2741 53.7737 60.2741 52.8204 60.4474 51.8238C60.534 51.2172 61.0107 50.9139 61.6173 50.9572C62.224 51.0005 62.614 51.3472 62.6573 51.9538C62.7006 52.4738 62.6573 52.9071 62.6573 53.2971Z" fill="#4E4B66"/>
<path d="M68.4633 53.3846C68.4633 53.7746 68.4633 54.1646 68.4633 54.5546C68.42 55.2046 68.0733 55.5512 67.4667 55.5945C66.8167 55.6812 66.2967 55.3346 66.2101 54.6846C66.0367 53.7746 66.0367 52.8213 66.2101 51.9114C66.2967 51.2614 66.7734 50.9148 67.4667 51.0014C68.0733 51.0881 68.42 51.4347 68.4633 52.0847C68.5066 52.518 68.4633 52.9513 68.4633 53.3846Z" fill="#4E4B66"/>
<path d="M37.178 53.2975C37.178 52.9075 37.1347 52.5176 37.178 52.1276C37.2213 51.4776 37.6113 51.0876 38.3046 51.0443C38.9546 51.001 39.3879 51.3909 39.4746 51.9543C39.5612 52.8642 39.5612 53.8175 39.4746 54.7275C39.4312 55.3774 38.9113 55.7241 38.218 55.6374C37.568 55.5508 37.178 55.1608 37.178 54.5108C37.1347 54.0775 37.1347 53.6875 37.178 53.2975Z" fill="#4E4B66"/>
<path d="M56.8512 53.3399C56.8512 53.7299 56.8512 54.1199 56.8512 54.5098C56.8078 55.2465 56.3745 55.6365 55.6812 55.6365C55.0312 55.6365 54.5979 55.2465 54.5979 54.5532C54.5546 53.7299 54.5546 52.9066 54.5979 52.0833C54.6413 51.4333 55.0312 51.0433 55.6812 51C56.3312 51 56.7645 51.3466 56.8078 52.04C56.8945 52.4733 56.8512 52.9066 56.8512 53.3399Z" fill="#4E4B66"/>
<path d="M55.7248 37.1347C55.7248 37.4813 55.7248 37.8713 55.7248 38.218C55.6815 38.9113 55.3349 39.3446 54.5982 39.3879C53.9049 39.4313 53.4716 38.9979 53.4283 38.3913C53.3416 37.5247 53.3416 36.658 53.4283 35.8347C53.5149 35.1414 53.9916 34.7515 54.7282 34.8381C55.4215 34.9248 55.7248 35.3581 55.7682 36.0081C55.7248 36.3547 55.7248 36.7447 55.7248 37.1347Z" fill="#4E4B66"/>
<path d="M30.2022 55.6387C31.5021 55.6387 32.4987 56.6786 32.4987 57.9352C32.4987 59.2352 31.4588 60.2318 30.2022 60.2318C28.9456 60.2318 27.9056 59.1918 27.9056 57.8919C27.8623 56.6786 28.9022 55.6387 30.2022 55.6387Z" fill="#4E4B66"/>
<path d="M16.2494 58.0213C16.2494 59.3212 15.1661 60.3179 13.9095 60.2745C12.6529 60.2312 11.6562 59.1913 11.6562 57.8913C11.6562 56.5914 12.6962 55.5947 13.9961 55.6381C15.2961 55.6814 16.2494 56.678 16.2494 58.0213Z" fill="#4E4B66"/>
</svg>
